<?xml version="1.0" encoding="utf-8"?>
<!-- Generator: Adobe Illustrator 27.3.1, SVG Export Plug-In . SVG Version: 6.00 Build 0)  -->
<svg version="1.1" id="Layer_1" xmlns="http://www.w3.org/2000/svg" xmlns:xlink="http://www.w3.org/1999/xlink" x="0px" y="0px"
	 viewBox="0 0 1920 1080" style="enable-background:new 0 0 1920 1080;" xml:space="preserve">
<style type="text/css">
	.st0{fill:#6EAB09;}
	.st1{fill:#FFFFFF;}
	.st2{fill:#F2DE18;}
	.st3{fill:#404040;}
	.st4{fill:#C55084;}
</style>
<g>
	<g>
		<path d="M1328.8,206c-3.2,4.7-7.9,8-11.7,12.2c-0.7,0.8-2.2,1.5-1.6,2.8c0.5,1.2,1.9,1.1,3.1,1.1c3.1,0.1,7.7-0.1,8.4,2.3
			c0.7,2.5-3.8,3.9-6.2,5.6c-12.7,9.3-25.5,18.6-38.4,27.7c-5.5,3.9-8,10.5-13.8,14.3c-11.8,7.9-22.1,18-35.6,23.5
			c-3.1,1.3-5.3,3.7-7.7,6.1c-7.8,7.9-14.9,17-24.6,22.1c-5.7,3-6.7,8.5-10.8,12c-2.3,2,0.6,2.6,1.8,3.3
			c11.8,7.1,23.7,14.1,35.6,21.2c8.6,5.1,16.7,10.8,24.3,17.3c4.3,3.7,5.5,9,3.1,14.4c-2.6,5.9-5.3,11.8-8,17.7
			c-2.1,4.5-5,5.2-9.2,2.7c-11.2-6.8-22.4-13.7-33.7-20.4c-1.9-1.1-4.3-3.6-6.2-1.5c-2.1,2.3-4.7,5.1-3.4,8.8
			c0.8,2.4,0.9,4.5-0.3,6.7c-0.9,1.5-0.9,3.2,0.3,4.2c3.6,3.2,5.9,7.3,11.4,9.3c4.5,1.7,14,2.3,12.7,12c-0.2,1.7,1,3.6,2.7,4.5
			c2.7,1.4,3.2,4,4.2,6.5c1.5,4,0.5,8.7,7.1,10.8c6.1,1.9,5.5,10.2-0.1,13.8c-3.6,2.2-6.1,4.5-4.3,9.2c0.7,1.8-0.2,3.4-1.5,5
			c-4.6,5.4-4.2,7.3,2,10.3c5,2.4,6.4,5.6,4.4,10.9c-0.9,2.3-0.8,3.7,1.8,4.5c4.4,1.5,5.3,4.7,3.6,8.7c-1.7,4-1.6,8.4-2.6,12.5
			c-0.7,2.7,1.5,3.7,3.9,3.9c4.3,0.5,7.2,2.2,6.8,7.3c-0.1,2,1.5,3.6,3,5c3.7,3.3,5.5,7.2,4.7,12.4c-0.5,3.5,0.8,6.8,1.3,10.2
			c0.6,4.2,0.6,9.2-2,13c-5.3,7.8-6,15.6-1.3,23.8c0.6,1.1,1,2.5,1.1,3.8c0.7,5.8,1.5,11.5,6.2,15.7c2.3,2.1,1.9,4.4-0.5,6.3
			c-0.9,0.7-1.6,1.7-1.6,3c0,7.7-4,13.4-9.5,18.2c-2,1.7-2.1,3.3,0.2,4.8c2.9,1.9,2.9,4.3,1.3,6.9c-1.7,2.8-0.7,4.6,1.7,6.2
			c3.7,2.5,7.1,5,8,10.2c0.6,3.5-0.5,6.5-1.6,9.3c-1.3,3.2-0.9,5.6,0.9,8.3c3.1,4.6,2.7,6.1-2,9.2c-1.1,0.7-3.3,1.4-2.7,2.5
			c3.6,6.1-3.7,7.3-4.8,11.2c-0.4,1.3-1.8,1.8-2.9,1c-5.7-4.1-7.3,0.9-8.4,4.3c-1.6,5-3.5,8.2-9.4,6.2c-1.8-0.6-3.1,0.6-4,2.3
			c-0.9,1.6-1.9,3.2-3.1,4.4c-1.7,1.7-1.6,2.8,0.2,4.5c4.5,4.1,5.3,10.2,2.3,15.3c-1.7,2.9-1.9,5.5,0.8,8.1c3.6,3.4,4.5,7,0.2,10.6
			c-1.3,1.1-1.1,2.6-1.3,4.1c-0.2,2.7-0.9,5.3-3,7.2c-0.4,0.3-0.9,0.7-1,1.1c-2.6,11.7-16.1,12.3-21.6,21.1
			c-0.4,0.6-2.2,1.2-2.7,0.8c-5-3.7-8.8,0.6-12.8,2.1c-3.5,1.4-6.1,1.7-8.6-1.8c-2.4-3.3-5.4-2.5-7.2,1.3c-0.5,1.1-0.6,2.7-1.3,3.2
			c-6.8,3.6-4.5,9.9-4.9,15.5c-0.2,3.5,0.3,8.1-5.4,8.5c-0.4,0-1,0.6-1,1c-0.6,7.7-8.6,8.4-12.5,13c-0.6,0.7-2,1.6-2.4,1.4
			c-4.1-2.2-6.9,0.8-10,2.4c-5.1,2.8-9.9,1.4-14.9-0.4c-7.1-2.6-10-0.5-9.7,7c0.2,5,0.9,9.9-6,11c-0.7,0.1-1.7,1.4-1.7,2.2
			c-0.2,5.5-4.1,6.4-8.2,6.7c-2.9,0.2-4.9,1.6-6.8,3.6c-5.1,5.3-10.9,5.5-16.6,0.6c-1.2-1-2.3-1.9-3.9-1.9
			c-4.6-0.1-8.6-0.5-10.3-6.4c-0.7-2.5-4.8-3.5-7.8-1.6c-4.1,2.7-7.7,6.4-12.9,7.3c-0.4,0.1-1.1,0.5-1.1,0.9
			c-1.6,7.4-7.9,6.5-12.8,6.5c-6.6-0.1-12.2-4.5-14.7-9.9c-2-4.4-0.2-10.4-6-13.3c-0.3-0.2-0.1-1.6-0.1-2.4c0.2-2.9-1-3.6-3.6-2.7
			c-24.7,8.4-49.6,7.7-74.5,1c-3.4-0.9-4.8,0.6-6.3,3.1c-5.9,9.9-13.2,18.7-20.4,27.6c-0.6,0.7-1.5,1.2-2.3,1.8
			c-0.4-2,1.2-3,2.2-4.2c6.6-8.4,13-16.9,18.9-25.7c2.2-3.3,1.7-4.7-1.9-6.2c-4.4-1.9-9.1-3.8-12.7-6.8c-4.1-3.3-8.5,0.5-8.5,1.4
			c-0.2,7.3-7,8.8-10.1,13.1c-5.6,8-14.5,7.6-21.7,11.4c-4.3,2.3-8.9-2-13.4,0.9c-3.7,2.4-6.4-1-9.1-2.9c-2.4-1.6-3.7-3.7-1.7-6.7
			c0.9-1.3-0.3-2.7-1.6-3.1c-1.7-0.5-3,0.4-3.2,2.2c-0.4,3.4-2.1,5.1-5.7,4.7c-1.1-0.1-1.7,0.6-2.5,1.3c-2.8,2.5-6.1,3-9.7,2.1
			c-5.1-1.2-11.1,1.2-15.5-3.5c-0.2-0.2-0.6,0-1,0c-5.6,0-9.9-3.1-14.2-6.1c-1.9-1.3-2.5-3-1.9-5.6c1.3-5.8-0.7-8.6-6.5-10.5
			c-1.3-0.4-2.6-1.3-2.9-2.5c-0.4-2.1-0.4-4.3-0.3-6.4c0-2-0.6-3.7-2.8-2.6c-4.4,2.1-8.9,1.5-13.1,0.7c-6.9-1.3-12.2-6.2-18.1-9.6
			c-1.6-0.9-1.1-3.1-1-4.7c0.2-2.7-0.9-4.1-3.2-5.5c-4.5-2.8-6-8.6-11.3-10.9c-1.1-0.5-0.6-3.4,0.1-5.2c0.6-1.4,1.3-2.7,1.5-4.2
			c0.6-4.2-1.6-6.1-5.5-4.7c-2.1,0.8-3.6,0.6-5.3-0.9c-0.7-0.7-1.8-1.3-3.1-1.2c-6.8,0.5-18.4-1.1-23.7-3.1
			c-0.2-0.1-0.3-0.1-0.5-0.1c-2.2-0.9-3.3-2.6-4.6-4.7c-2.8-4.5-6.4-8.5-6.3-14.3c0-0.5-0.7-1.2-1.2-1.6c-1.7-1.2-1.6-3-1.9-4.8
			c-1.2-6-4.5-11.3-3.6-18c0.3-2.2-2.4-5.3-1.8-8.9c0.9-5.6-1.6-11.8,4.6-16.2c1.9-1.4,2.8-4.4,2.8-7.2c0-2.6-0.1-5,1.5-7.6
			c1.9-3.2-0.7-7-4.7-7.4c-2.3-0.2-4.6,0-6.9,0.1c1.4-7.5,0.1-9.7-7.5-12.2c-2-0.7-3.4-1.9-3.2-3.9c0.3-3.4-1.2-5.2-4-6.7
			c-3.8-1.9-4.9-4.5-4.5-9.3c0.5-5.5,1.2-11.4-1-16.9c-0.8-2-1.1-4.4,0.4-5.7c3.5-3.1,4.8-8,9-10.6c2.4-1.5,4.8-3.8,3.4-7.4
			c-0.5-1.2,0.2-2.2,0.9-3.2c1.4-2,1.2-3.8-0.9-5.1c-2.6-1.6-2.7-4.1-3.3-6.8c-1.3-5.8-0.6-12.2-4.4-17.4c-0.9-1.3-0.2-2.5,0.3-3.8
			c1.2-2.8,2.2-5.5,1.2-8.6c-0.7-2.2,0.4-3.9,2.5-4.8c1.9-0.8,2.7-2.3,3.9-4.1c4.2-6.4,3.4-13,2.1-20c-0.5-2.9,0.8-6.2,0.6-9.6
			c-0.1-2.7,0-5.5-0.2-8.3c-0.1-1-0.2-2.7,0.2-2.9c5.1-2.4,4.2-8.1,6.9-11.9c2.9-4.2,4.7-9.2,6.8-13.9c0.5-1.1,0.5-2.3,1.7-2.9
			c6.7-3.2,5.7-9,5.1-14.7c-0.2-1.8-0.6-3.6-0.7-5.4c-0.4-8.4,2.2-15.5,8.4-21.3c1.1-1,1.8-2.5,1.7-4.1c-0.3-3.4,0.7-5.8,4.2-6.9
			c1.4-0.5,1.6-1.8,1.5-3.3c-0.2-5.9-2.3-11.3-3.6-16.9c-2-8.4,2.1-19.3,9.2-24.4c5.1-3.6,9.2-8.4,12.9-13.5
			c3.1-4.3,7.6-6.9,12.2-8.7c7.2-2.7,12-10.3,10.2-17.8c-1-3.9,0.2-6.5,2.3-9.9c4.8-8,12.4-11.2,20.3-14.3c1.5-0.6,2.2-1.5,2.5-2.8
			c0.5-2.4,2.6-2.4,4-3.5c5.1-4.1,9.9-8.5,15.8-11.6c1.1-0.6,1-3.7,1.4-5.6c0.2-1-0.1-2.3,0.9-2.7c5-2,5.9-6.1,6.9-10.8
			c0.7-3.1,4.7-4,7.6-5c2.3-0.8,4.4-1.8,5.1-4.3c1.4-4.9,5.1-5.4,9.1-4.6c2.4,0.5,4.5,1,6.7-0.1c0.4-0.2,1.2-0.4,1.4-0.1
			c4.8,4.3,9.7-0.3,14.5,0.1c3,0.2,4.5-3.6,7.1-2.9c5.4,1.4,9.2-1.3,13.1-4c3.7-2.5,6.4-6.1,9.7-8.9c6.2-5.2,9.9-13.2,16.6-17
			c4-2.2,7.7-7.7,13.8-5.4c0.6,0.2,1.7-0.1,2.4-0.5c6.5-4.3,11-0.5,15.5,3.6c2.6,2.4,4.6,5.3,8.9,3.5c3.5-1.5,8.3-1.5,5-7.5
			c-0.5-0.9,0.3-2.6,0.7-3.8c2.9-9,7.4-17.3,12.2-25.4c2.8-4.7,6.6-5.7,12.6-3.4c18.2,6.8,36.1,14.5,53.9,22.3
			c8.1,3.5,7.4,3.6,8.3-5.3c0.8-7.3,0.7-14.6,0.7-21.8c0-2.3,0.1-4.7-2-6.4c0.8-2.6,2.9-5,1-8c1.7-1.4,0.3-1.7-0.8-2.1
			c-0.4-3.2-0.1-6.5-1-9.7c-1.6-5.6-3.1-11.3-3.3-17.3c-0.1-2.3,0-5.3-2.9-6.7c2.4-0.1,3.1-1.4,2.6-3.6c-0.6-2.6-1.1-5.1-1.7-7.7
			c1.1-7.6,0.9-15.2,0-22.7c0.2-1.2,0.5-2.4,2.2-2.1c0,3.4-0.1,6.9-0.1,10.3c0,1.3-0.2,2.8,1.8,2.7c1,1.9,3,0.4,4.3,1.3
			c-4.8,0.2-5.4,3.1-5.1,7.2c0.3,6.9,0.2,13.8,1.8,20.7c0.6,2.5,1.6,3.6,3.5,4.6c-2.7,2.5-2.5,13,0.4,14.7c0.5,0.3,1.3,0.2,1.9,0
			c8-2.2,14.9-5.6,18.7-13.9c3-6.5,3.6-13.3,2.5-19.9c-2.7-16.9-8.2-24.9-25.2-29.4c-1.5-0.4-2.7-0.4-2.9,1.5
			c-0.5,0.1-1.1,0.1-1.6,0.2c-0.7-21.1-4.4-42.1-4.3-63.3c0-1.2-1.2-2.7,0.6-3.5c1.7-0.8,3.2-0.1,4.4,1.3
			c8.1,9.9,16.3,19.7,24.4,29.6c8.2,10,16.5,20,24.6,30.1c2.4,3,4.4,3,7.4,0.7c22.5-16.5,45.2-32.8,67.7-49.4
			c3.5-2.5,4.7-2.7,6.2,1.8c9,25.4,18.3,50.6,27.4,76c1.2,3.4,2.7,3.7,5.9,2.7c23.6-7.4,47.3-14.6,71-21.8c5.2-1.6,6-1.3,5.6,4.3
			c-0.3,4,2.4,7,2.3,10.7c7.8-7.5,16.1-14.3,22.8-22.5c2.5-3,3.2-9.1,0.2-13.9c-3.4-5.3-6.5-10.8-9.7-16.3c-0.8-1.4-2.1-3.1,0.1-4.3
			c2.2-1.2,3.3,0.4,4.2,2.2c2.5,5.1,5.9,9.9,7.4,15.2c1.8,6.6,7.4,6.9,11.8,7.6c9.5,1.5,15.9-7.5,12.3-16.3
			c-2.3-5.7-4.9-11.3-7.2-17c-0.7-1.6-2.4-4.1,0.6-5c2.5-0.8,3.3,1.7,4,3.5c2.1,5.6,4.9,11.1,6,16.9c1,5.8,5.3,7.4,9.2,7.8
			c4.4,0.5,9.4-1.6,12.6-4.8c2.7-2.7,4.1-6.5,1.6-11.1c-3-5.5-4.7-11.7-7.1-17.6c-0.7-1.8-1.6-3.8,0.8-4.6c2.4-0.8,3.1,1.4,3.7,3.1
			c2.1,6.1,4.2,12.3,6.1,18.5c1.1,3.5,6.8,7.8,10.1,6.7c5-1.7,11.2-1.8,13.3-8.7c0.7-2.3,0.2-3.8-0.5-5.6c-2.1-6-4.4-11.9-6.5-17.8
			c-0.6-1.5-1.6-3.4,0.8-4.2c2.1-0.7,3,1.1,3.5,2.7c1.9,6,3.7,12.1,5.5,18.1c1,3.4,7.2,7.2,10.6,6c4.7-1.6,9.9-2,12.7-7.4
			c1.1-2.1,1.8-3.4,1-5.7c-1.7-5.3-2.9-10.9-4.4-16.3c-0.5-1.9-1.3-3.9,1.4-4.4c2.5-0.4,2.2,2.2,2.6,3.5c1.1,4.3,1.8,8.7,2.8,13.1
			c1.3,5.9,5.3,9.2,11.4,9.1c3.3-0.1,6.6-0.2,9.9-0.1c4.8,0.2,9.1-4.4,9.1-9.2c0-4.8,0-9.7,0.1-14.5c0-1.5,0-3.3,2.2-3.2
			c2.2,0.1,2.1,2,1.9,3.4c-0.6,4.1-0.8,8.2-1.3,12.3c-0.9,7.4,2.2,12.4,9.5,14.2c10.8,2.7,21.5,5.8,31.7,10.2
			c17.4,7.6,33.7,33.7,19.1,55.3c-8.4,12.5-25.1,17.6-41.4,12.6c-8.7-2.7-16.8-6.6-23.4-12.9c-2.6-2.4-4.1-2.2-6.6-0.1
			c-1.7,1.4-3.2,3.6-5.8,3.6c0,0-0.3-0.3-0.3-0.3c1.3-2.3,3.8-3.2,5.6-4.9c3-2.8,5.2-2.7,8.4,0.4c8.1,7.9,18.2,11.9,29.2,14.3
			c13.9,3,31.1-5.7,35.7-19.1c6.5-18.8-3-38.1-19.4-46.4c-14.6-7.4-30.6-11.3-46.8-13.4c-5-0.6-10.2-2.1-15.3-1
			c-11,2.4-21.8,5.7-32.4,9.6c-21.5,7.9-43,15.9-64.4,23.9c-6.7,2.5-14.3,3.8-19.5,8.6c-9.9,8.9-18.8,18.9-28.1,28.5
			c-1.1,1.1-1.5,2.3-1.2,4c1.4,8.3,2.5,16.6,3.7,24.9c0.1,0.9-0.3,2.2,0.7,2.7c1.3,0.6,2.3-0.5,3-1.3c4.1-4.6,8.2-9.2,12.3-13.8
			c10.9-12.4,21.7-24.8,32.5-37.3c1.2-1.4,2.8-3.1,4.6-1.7c1.9,1.5,1.1,3.6-0.2,5.3c-0.5,0.7-1,1.3-1.6,1.9
			c-15.6,17.8-31,35.7-46.8,53.3c-2.3,2.6-2.9,5-2.3,8c0.5,3.2,1.3,6.5,1.7,9.7c0.3,1.9-0.2,4.1,2.3,4.9c2.5,0.8,3.8-0.9,5.2-2.6
			c21.2-24.4,42.4-48.7,63.7-73.1c3.2-3.6,6.3-7.3,9.6-10.9c1.2-1.4,2.9-1.9,4.4-0.6c1.6,1.4,0.9,3-0.2,4.5
			c-0.5,0.7-1.1,1.3-1.6,1.9c-22.5,25.9-45,51.8-67.5,77.7c-0.9,1.1-2.8,2.1-1.9,3.7c0.6,1.2,2.4,1.8,3.9,1.7
			c5.1-0.4,9.9,0.9,14.9,1.4c2.7,0.3,4.3-0.5,6-2.4c20.8-23.4,41.7-46.7,62.5-70.1c5.8-6.5,11.6-12.9,17.5-19.2
			c1.2-1.3,2.7-2.3,4.3-0.8c1.5,1.4,1,3-0.1,4.5c-0.4,0.5-0.9,1-1.3,1.5c-15.7,17.6-31.5,35.3-47.2,52.9
			c-9.4,10.6-18.9,21.1-28.3,31.7c-0.8,0.9-3.4,1.9-0.9,3.7c3.6,2.6,13.2,1.7,16.6-1.3c4.6-4.1,8.3-9.1,13.7-12.3
			C1328.6,205.7,1328.7,205.8,1328.8,206z M1236.1,283.2c-0.1-2.8-0.3-5.7-0.2-8.5c0.4-6.5,6.2-14,11.9-15.7c8.8-2.6,14.7-1,20,5.6
			c0.6,0.7,1.6,2.1,1.9,2c2.8-1,3.7-3.9,5.4-6.1c1.3-1.7,0.9-2.4-0.3-3.6c-5.9-6-13.4-6.6-21.3-7c-19.7-1.1-30.9,20.5-26.6,35.3
			c2.3,8,3.7,8.6,11,4.5c0.8-0.2,1.7-0.2,2.3-0.7c6.9-5.9,15.3-9.9,22.3-15.8c5.6-4.7,5.8-7.1-0.1-11.4c-1.8-1.3-3.9-1.9-6.1-2
			c-10.7-0.8-17.9,6.3-18.5,18.1C1237.8,280,1238.9,282.3,1236.1,283.2z M974.8,427.2c-16.3-7.2-32.6-6-48.9-0.2
			c-0.6,0.1-1.2,0.1-1.8,0.2c-11.6-12.1-23.5-24-37.3-33.8c-10.1-7.2-20.9-12.7-33.1-15.7c-13.6-3.3-27.2-2.8-40.8-0.1
			c-4.8,0.9-10.3,1.3-14.1,3.9c-14.7,9.8-26.4,22.1-27.2,41.3c-2.4,3-2.4,6-0.1,9.1c0.9,5.5,1.8,10.9,2.6,16.4
			c0.3,2.3-0.2,4.7-3.1,4.7c-5.9-0.1-11.8,0.3-17.8-0.7c-7.6-1.3-14.4-4.3-20.9-8.3c-5.2-3.1-5.5-2.8-5.4,3.4
			c0.1,13.3,0.3,26.6,0.5,39.9c0,1.6-0.7,3.7,1,4.5c1.4,0.7,2.8-0.9,3.9-1.8c10.3-8.4,22.2-11.3,35.2-11c6.4,0.1,8.3,2.5,6.4,8.7
			c-1,3.4-2.3,6.8-2.6,10.4c-0.6,0.6-0.9,1.1-0.1,1.8c-0.2,1.8-0.4,3.5-0.6,5.3c-1.4,1-1,2,0,3.1c0.2,2,0.4,3.9,0.6,5.9
			c-0.8,0.7-0.7,1.3,0.3,1.7c0.8,13.3,8.9,21.9,18.8,29.4c0,1.3,0,2.6,0,3.9c-0.1,6.6,0.3,13.2,0.7,19.7c0.6,12.4,2.8,24.3,6.8,35.9
			c10.5,30.1,28.6,55,53.1,75.4c18.5,15.5,39.8,24.6,63.5,28.9c12.9,2.3,25.8,3.7,38.9,3.7c15-0.1,29.8-0.6,44.3-5.4
			c17.5-5.7,33.6-14.2,48.9-24.2c8.4-5.5,16.7-11.2,23.1-19.2c6.1-7.7,11.6-15.9,16.8-24.3c16.7-27.5,25.8-57.1,24.9-89.5
			c0.2-1.2,1.6-2.7-0.7-3.3c1.3-1,2.7-1.9,4-2.9c9.9-7.7,16.1-17.5,17.6-30.1c2.2-3.2,2-6.5,0.1-9.7c-0.2-1.3-0.5-2.7-0.7-4
			c0.3-1,1.5-2.2-0.3-3c0.3-4.5-2.2-8.4-2.1-13c0.1-3.6,1.2-4.1,4.6-4.4c9-0.5,17.4,2.1,25.8,4.3c2.6,2.9,5.6,5.1,9.7,4.7
			c1,0.6,2,1.1,3,1.8c0.8,0.5,1.4,1.6,2.5,1.3c1.5-0.5,1-2,1-3c-0.5-14,1.4-27.8,1.5-41.7c0-1.7,0.9-3.9-1.1-5
			c-1.9-1-3.4,0.8-4.9,1.7c-11.4,7.2-24,9.5-37.3,9.2c-3.2-0.1-6-1.2-5.4-4.9c1.2-6.7,0.7-13.7,2.5-20.3c1.2-1.2,1.2-2.5,0-3.7
			c-0.2-1.3-0.4-2.7-0.5-4c0.7-1.3,0.5-2.4-0.6-3.4c-0.4-0.7-0.8-1.3-1.2-2c0.5,0.3,1-0.1,0.9-0.5c-0.2-0.5-0.8-0.8-1.2-1.1
			c-6.2-21.5-25.9-36.9-49.6-37.2c-8.1-0.1-16.2-0.6-24.2,1c-10.5,2.1-20.8,4.3-30,10.4c-16.8,11.1-31.6,24.2-45.4,38.7
			C977.4,426.4,976.1,426.8,974.8,427.2z M857.1,729c-1,0.5-1,1.3-1,2.2c-0.7,4.8-1.7,9.6-1.9,14.5c-0.4,8.4-1.6,16.8-0.1,25.3
			c-1.2,1.2-1.9,2.5-0.5,4c0.5,5.5,0.9,11,1.8,16.5c1,5.6,1.3,11.4,3.3,16.8c8.2,22.6,23.7,38.8,44.9,49.6
			c15.6,8,32.5,10.6,50.1,10.3c17-0.3,33.3-2.6,47.9-12.1c10.3-6.7,20.9-12.9,28.1-23.4c12.2-17.7,20.5-36.6,20-58.6
			c1.5-1,0.3-2.1,0.1-3.2c0.4-9.6-1.9-18.9-3.7-28.3c-0.7-3.6,0.2-7.9-3.2-10.8c-0.1-0.7-0.1-1.3-0.2-2c0.4-0.5,1.2-1.2,1-1.6
			c-3.5-10.3-5.2-21.1-7.9-31.6c-0.6-2.3-2-3.1-4.3-1.7c-3.8,2.4-7.4,4.8-11.6,6.4c-7.4,2.8-14.7,5.8-22,8.7c-0.9-0.1-1.7,0-2.1,1
			c-9.5,2-19.1,4-28.9,4c-6,0-11.9,0-17.9,0.1c-0.8,0-1.6,0-2.4,0c-10.3,0.2-20.5-1.3-30.7-3c-5.7-1-11.2-3.4-17.1-3.1
			c-0.4-0.8-0.8-1.5-1.9-1.1c-10.7-3.1-20.9-7.2-30.2-13.3c-1.2-0.8-3.3-1.7-3.9,0.9C860.6,706.5,858.1,717.6,857.1,729z
			 M1009.2,236.2c-2.7,3.6-0.7,7.8-1.2,11.7c-0.1,1,0.9,1.2,1.8,1.2c5.9,3.4,12.4,5.8,18.6,8.4c16.9,7.1,33.6,14.5,50.2,22.2
			c35.1,16.1,69.5,33.8,102.8,53.4c5.7,3.3,8.6,0.7,9.9-5c2-1.4,1.9-2.7-0.2-3.8c-6.5-6.3-12.7-13-19.5-19
			c-30.1-26.6-64.9-45.2-102.6-58.7c-17.4-6.2-35.2-10.8-53.4-14.2C1012.1,231.8,1009.4,231.8,1009.2,236.2z M1000.7,67.4
			c-0.3,1.7-0.4,2.1-0.4,2.6c0.9,15.5,1.6,31.1,2.8,46.6c0.4,5.3-0.1,11.9,8.5,11.4c0.6,0,1.2,0.5,1.9,0.7
			c11.9,4.4,17.5,13.9,20.3,25.6c3.9,16.1-1.2,35.7-20.5,40.3c-4,1-4.7,2.5-4.4,6c0.4,4,2.3,6.2,6.4,6.4c14.1,0.9,28,3.2,41.9,5.9
			c15.1,2.9,29.8,7.7,44,13.2c14.1,5.4,27.5,12.3,40.8,19.5c25.4,13.8,48.8,29.9,68,51.6c7.7,8.7,7.8,8.5,16,0.1
			c1.8-1.8,1.8-3.1,0.7-5.1c-2.7-4.7-3.3-9.9-3-15.2c0.7-12,5.3-21.9,16.7-26.9c12.2-5.4,24.2-4.8,35,3.8c2.7,2.1,4.5,2.6,7.3,0.5
			c12.1-8.9,24.3-17.6,36.4-26.4c1-0.7,2.6-1,2.2-2.9c-6.5-0.8-13-1.6-19.4-2.4c-9-1.2-18.1-2.5-27.1-3.7c-7.3-1-14.6-2-21.8-3.1
			c-1.9-0.3-2.1-1.7-2.3-3.3c-1.1-9.7-3.2-19.3-4.3-29.1c-1.5-13.7-3.9-27.3-5.7-41c-0.6-4.5-1.6-5.4-6.1-4c-22.7,7-45.3,14-68,21
			c-7.1,2.2-7.3,2.1-9.9-5.3c-8.5-23.6-17-47.3-25.5-70.9c-1.9-5.3-2.2-5.3-6.7-2c-12.1,8.8-24.2,17.7-36.4,26.5
			c-10,7.2-20,14.4-30,21.7c-2.6,1.9-5.1,2.7-7.4-0.2c-8.2-10.2-16.3-20.5-24.6-30.6C1018.2,88.4,1009.8,78.4,1000.7,67.4z
			 M1253,385.7c0.3-2.6-1.5-4.9-3.8-6.9c-5.9-5.2-12.3-9.7-19-13.8c-34.5-21.2-69.4-41.5-105.5-59.9c-21.7-11-43.7-21.4-65.9-31.3
			c-12.5-5.6-25.2-11-37.6-16.8c-11.5-5.4-23.5-9.7-35.1-15c-14.1-6.5-28.4-12.2-43-17.4c-4.6-1.6-8-0.3-10.2,4.2
			c-3.4,7.1-6.8,14.1-10.3,21.2c-2.2,4.5-0.8,7.9,3.3,10.1c7.3,4,14.8,7.8,22.6,11c18.3,7.4,36.8,14.4,55,22.1
			c19.6,8.3,39.1,17,58.3,26.1c15.2,7.2,30.4,14.4,45.7,21.4c22.5,10.4,44,22.8,66.5,33.2c20.1,9.2,39.2,20.3,57.9,32.2
			c2.4,1.5,4.7,3.1,7.2,4.5c2.1,1.1,3.9,1.4,4.9-1.8c1.3-3.9,3.4-7.4,5-11.2C1250.5,393.9,1253,390.6,1253,385.7z M1012.1,208.9
			c-2-0.5-2.5,1.2-2.4,3.3c0,4,0.3,8,0.1,12c-0.1,3.2,0.8,4.6,4.3,5.3c12.1,2.4,24.4,4.2,36.2,8.1c19.3,6.4,38.5,13,56.8,22.2
			c15.4,7.7,30,16.6,44.3,26c15.1,10,28,22.5,40.5,35.5c2.7,2.8,4.8,2.8,7.4,0.8c4.3-3.4,8.5-7,12.6-10.6c1.9-1.7,3.1-4.4,1.3-6.1
			c-2.3-2.2-3.9-4.9-6-7.2c-35.4-38.1-80.1-60.9-128.6-77c-11.4-3.8-23.2-6.4-35.1-8.1C1033.3,211.7,1023.1,210.4,1012.1,208.9z"/>
		<path class="st0" d="M656.9,702.2c2.3,0,4.6-0.3,6.9-0.1c4,0.4,6.7,4.2,4.7,7.4c-1.6,2.6-1.5,5-1.5,7.6c0,2.8-0.9,5.8-2.8,7.2
			c-6.2,4.4-3.6,10.6-4.6,16.2c-0.6,3.6,2,6.7,1.8,8.9c-0.9,6.7,2.4,12,3.6,18c0.4,1.8,0.2,3.6,1.9,4.8c0.5,0.4,1.2,1,1.2,1.6
			c-0.1,5.8,3.5,9.8,6.3,14.3c1.3,2.1,2.4,3.8,4.6,4.7c0.2,0.1,0.3,0.1,0.5,0.1c5.3,2,16.9,3.6,23.7,3.1c1.3-0.1,2.4,0.6,3.1,1.2
			c1.7,1.5,3.2,1.6,5.3,0.9c3.9-1.4,6.1,0.5,5.5,4.7c-0.2,1.4-0.9,2.8-1.5,4.2c-0.7,1.8-1.3,4.7-0.1,5.2c5.3,2.3,6.8,8.2,11.3,10.9
			c2.3,1.4,3.4,2.8,3.2,5.5c-0.1,1.6-0.6,3.7,1,4.7c5.9,3.4,11.2,8.3,18.1,9.6c4.3,0.8,8.8,1.4,13.1-0.7c2.2-1,2.8,0.6,2.8,2.6
			c0,2.2-0.1,4.4,0.3,6.4c0.2,1.2,1.6,2.1,2.9,2.5c5.8,1.9,7.8,4.7,6.5,10.5c-0.6,2.6,0,4.2,1.9,5.6c4.3,3,8.6,6.1,14.2,6.1
			c0.3,0,0.8-0.1,1,0c4.4,4.7,10.3,2.3,15.5,3.5c3.6,0.9,6.9,0.4,9.7-2.1c0.8-0.7,1.4-1.4,2.5-1.3c3.5,0.4,5.3-1.3,5.7-4.7
			c0.2-1.8,1.4-2.7,3.2-2.2c1.4,0.4,2.5,1.7,1.6,3.1c-2,3.1-0.6,5.1,1.7,6.7c2.7,1.9,5.4,5.3,9.1,2.9c4.5-2.9,9.1,1.4,13.4-0.9
			c7.1-3.8,16.1-3.4,21.7-11.4c3.1-4.4,9.9-5.9,10.1-13.1c0-1,4.4-4.8,8.5-1.4c3.7,3,8.3,4.9,12.7,6.8c3.6,1.5,4.1,2.9,1.9,6.2
			c-6,8.8-12.3,17.4-18.9,25.7c-1,1.3-2.5,2.3-2.2,4.2c0,0,0.1,0,0.1,0c-5.9,3.4-9.4,9.3-14.5,13.6c-1.7,1.5-4.4,2.5-4.5,5.4
			c0,0,0.1,0,0.1,0c-3.1,0.3-5.1,2.1-6.1,5c0,0,0.1,0,0.1,0c-3-0.1-4.4,2.2-6.1,4.1c0,0,0.1,0,0.1,0c-0.6,0.3-1.3,0.4-1.8,0.8
			c-34.2,27.5-74,42.7-116.2,52.5c-1.7,0.4-3.5,1.7-4.9-0.4c1.4-4.5,3.1-9,4.2-13.6c2.6-10.7,6.6-21.1,7.6-32.1c0-1-0.1-1.9-0.1-2.9
			c1.4-1.5,1.9-3.3,2.2-5.3c1.5-10.1,0.9-20.3,1.3-30.4c0.4-12.3-2.1-24.1-5.6-35.8c-0.4-1.3-0.3-3.3-2.2-3.5
			c-1.7-0.1-2.4,1.6-3.3,2.7c-5.4,7.2-10.7,14.4-16.4,21.4c-3.1,3.8-7.5,6.6-8.6,11.8c0,0,0,0,0,0c-3.9,1.3-6.5,3.8-7,8l0,0
			c-0.6,0.1-1.4,0-1.8,0.3c-3.7,3.3-7.9,6.3-10.7,10.2c-2.7,3.7-7.5,5.5-8.5,10.5l0,0c-0.8-0.1-1.1,0.2-1,1l0,0c-6.1,2-10,6.5-13,12
			l0,0c-4.7,0.8-7.4,3.8-9.1,8.1l0,0c-4.7-0.1-6.3,4.2-9.3,6.6c-9,7.1-17.8,14.5-26.7,21.8c-1.2,0.7-2.9,0.6-3.1,2.5c0,0,0,0,0,0
			c-2.4-0.3-4,1.5-5.8,2.4c-22.3,11.5-45.2,19.6-70.9,15c-3.8-0.7-3-2.1-2.2-4.3c0,0-0.1,0.1-0.1,0.1c0.4,0,0.7-0.1,1.1-0.1
			c12-10.3,20.4-23.4,27.8-37.1c2.3-4.2,5.1-8.2,5.9-13c5.2-9.4,8.8-19.5,11.1-30c2.7-11.9,4.7-23.8,6-35.9c0.4-4,2.2-5.5,6.4-5.1
			c6.2,0.6,12.2-0.3,17.1-4.8c3.5-1.5,6-4.5,7.4-7.7c2.4-5.3,4.5-6,10-3.1c9.9,5.3,27.1,4.7,34.5-9.2c7.6-14.5,5.3-37.4-16.3-42.4
			c-5-1.2-10.1-1.9-15.1-2.5c-2.6-0.3-3.8-1.4-4.5-3.7c-2.9-9-5.9-18-8.9-27c-0.7-2-0.5-3.8,0.1-5.8c5.3-19,14.8-35.7,27.1-50.9
			C654.9,705.2,655.9,703.7,656.9,702.2z M647,881.9c-13.6-2-21.8,9.1-21.6,19.6c0.2,11.6,8.2,21.5,22.7,20.7
			c11.9-0.6,17.9-6.7,18.2-19.3C666.6,888.7,659.9,880.8,647,881.9z"/>
		<path class="st1" d="M1260.1,304.1c6-0.6,11.7,1.1,17.2,3.2c2.8,1.1,3.8,0.9,5.5-2.1c5.1-8.8,11.2-17.6,22.9-17.1
			c16.4,0.8,23.7,9.4,26.1,25.6c0.5,3-1.1,5.7-2.5,8.3c-4.4,8.2-8.6,16.6-14.8,23.7c-1.5,1.7-1.1,3.7-0.6,5.5
			c5.6,20.1,11.4,40.1,17,60.2c6.1,21.4,12.2,42.9,18.2,64.3c4.6,16.4,9.2,32.9,13.6,49.3c1.1,4,4.2,4.1,7.1,4.8
			c6.2,1.5,12.4,2.4,18.3,5.2c11.6,5.5,15.8,16.6,12.5,28c-3.1,10.7-11.7,21.1-24.8,19.7c-5.6-0.6-11-1.8-15.2-5.9
			c-2.9-2.8-4.2-2.2-6,1.2c-3.6,6.7-8.1,12.2-15.8,15.3c-10.7,4.4-29.4-4.6-31.9-17.7c-1.6-8.1,1.6-15,5.5-21.4
			c2.7-4.4,6-8.7,10.1-12.1c2.8-2.4,3.1-5.1,2.1-8.4c-9-30.9-18-61.9-27-92.9c-7.9-27.1-15.8-54.1-23.6-81.2
			c-1.1-3.7-4.2-3.2-6.7-3.7c-5.4-1.3-10.9-2.3-15.9-4.8c-9.2-4.5-14.9-11.2-14.5-22.1c0.4-11,4.1-19.8,14.9-24.5
			C1254.5,303.5,1257.3,304.6,1260.1,304.1z"/>
		<path class="st1" d="M686.3,325c-6.2-2.1-9.9,1.7-13.3,7.9c-17.7,32.3-35.8,64.4-53.8,96.5c-10.2,18.3-20.5,36.6-30.8,54.8
			c-1.7,3-1.9,5.8,0.1,8.8c4.2,6.6,7.6,13.7,10.2,21.2c3.8,11,0.7,17.3-7.6,24.6c-7.9,6.9-17.9,8.8-27.9,4.3
			c-7.9-3.6-12.4-10.5-13.9-18.9c-0.7-3.6-1.5-4.5-5.4-3.5c-6.3,1.7-12.6,3.2-19.4,1.6c-13-3-18.7-18.3-16.9-28.5
			c0.7-4.2,2.7-8.1,5.3-11.8c6.7-9.5,17.4-9.4,27-11.6c2.9-0.7,6-1.7,9.3-1.2c1.3,0.2,2.3-0.5,3.1-1.9c7.8-13.8,15.7-27.6,23.7-41.4
			c13.6-23.7,27.3-47.3,40.9-71c7.5-13,14.8-26.1,22.2-39.1c0.6-1.1,1.5-2.1,2.2-3.3c1.9-3.3,2.7-6.3-0.2-9.9
			c-7.3-8.8-10.3-19-9.9-30.4c0.3-9.9,11.2-21,21.2-21c1.3,0,2.7,0,4,0c14.4,0,22.3,7.3,23.7,21.8c0.3,3,0.4,3.3,4.3,3
			c9.6-0.9,20.1-4.4,28.5,4.4c7.1,7.5,10,16.7,7.8,26.4c-2.3,10.1-10.4,14.9-20.2,17.2C696,324.9,691.7,324.9,686.3,325z"/>
		<path class="st1" d="M1168.7,954.9c-11-0.8-20.1-5.8-27.8-13.6c-2.7-2.7-5.3-4.1-9.6-2.8c-26.9,8.5-53.8,16.7-80.8,25
			c-25.8,7.9-51.7,15.8-77.5,23.7c-3.4,1-6.8,2-10.2,3.1c-7.1,2.2-7.8,3.2-8.1,10.8c-0.5,10.7-13,26.9-22.8,29.4
			c-13,3.3-29.6-9.7-29.8-23.1c-0.1-6.1,1-11.7,4.1-16.9c1.9-3.3,0.7-4.7-2.2-6.5c-6.9-4.2-14.4-8.3-16.8-16.8
			c-4.2-14.6,7.1-30.6,22.9-31.3c8.6-0.4,14.8,4,21.4,7.9c3.1,1.8,5.9,4.1,9,5.9c3.6,2.2,7.3,2.7,11.7,1.4
			c28.7-8.9,57.5-17.4,86.3-26c27.6-8.3,55.1-16.7,82.7-24.9c3.3-1,4.4-2.7,5.3-5.9c2.3-8.6,3.8-17.5,9.5-24.8
			c5-6.4,15-9.4,22.6-6.6c3.2,1.1,6.3,2.5,9.7,3.4c5.4,1.4,10.6,9.6,10.9,16c0.3,7.6-0.8,14.8-5.8,20.9c-1.7,2.1-0.9,2.3,1,3.3
			c3,1.6,5.7,3.8,8.5,5.7c10.4,7.1,9.5,18.9,6.3,27.4c-1.1,3-2.7,5.8-4.8,8.4C1180.1,953.1,1175.4,955.7,1168.7,954.9z"/>
		<path class="st1" d="M1328.4,607.1c12.8,0,22.6,9.1,23.4,22.1c0.2,3.6,1.7,3.2,4.1,2.4c6.9-2.4,13.8-1.8,20.8-0.1
			c9.3,2.3,11.8,10.3,14,17.9c5.2,18.2-10.3,28.3-25,30.4c-4.9,0.7-9.8,1.5-14.8,1.1c-2.3-0.2-3.5,1-4.6,3
			c-13.4,24.7-27,49.4-40.5,74.1c-15.2,27.9-30.5,55.7-45.7,83.6c-1.2,2.3-1.1,3.9,0.1,6.6c4.6,9.6,11.3,18.5,11.6,29.9
			c0.3,12.3-11.3,21.9-22.2,22.9c-15.6,1.4-25.2-7.3-28.5-22.3c-0.7-3.3-2-3.3-4.3-2.4c-7.2,2.6-14.9,2.5-22.1,1.3
			c-8-1.3-12.3-8.1-14.8-15.5c-5.1-15.3,7.2-31.5,21.1-33.2c6.8-0.8,13.6-2.1,20.4-3.5c1.7-0.4,2.7-0.9,3.7-2.7
			c11.3-20.6,22.8-41.2,34.3-61.7c9.6-17,18.7-34.2,28.6-51c7.8-13.2,14.2-27.3,22.3-40.3c3.8-6.1,3.8-9.9-0.1-15.8
			c-4.6-6.8-8.6-14.3-8.4-23.1c0.2-12.7,11.2-23.6,24-23.6C1326.7,607.1,1327.6,607.1,1328.4,607.1z"/>
		<path class="st1" d="M594.8,860.6c-3.4-3-7.9-4.1-10.9-8.1c-7.8-10.5-5.1-25,1.6-34.2c1.4-1.9,2.6-4.1,4.4-5.3
			c7.8-4.8,6.9-10.9,4.3-18.4c-12.4-36.7-24.7-73.4-36.5-110.3c-5.7-18-12-35.9-17.4-54.1c-0.8-2.7-2-3-4.3-3.5
			c-9-2-18.2-3.5-25.7-9.6c-5.7-4.6-9.3-10.2-9.1-17.6c0.1-5.8-1.2-11.6,2.9-17c7.2-9.5,16.4-9.8,26.5-7.1c3,0.8,6.1,1.5,8.8,2.8
			c3.6,1.7,5.3,0.4,6.8-2.9c3.5-7.9,8.8-14.1,17.2-17.4c8.3-3.2,23.3,3.2,27.7,10.8c7.4,12.6,1.6,23.2-3.7,34
			c-2,4.2-4.6,8.3-7.7,11.9c-1.5,1.8-0.7,3.6-0.1,5.6c7.8,25.1,15.6,50.2,23.2,75.3c9,29.9,18.7,59.5,27.9,89.3
			c2.7,8.6,7,12.1,15.3,12.2c7.5,0.1,14.2,3,19.6,7.5c6,4.9,8,12.6,7.3,20.4c-0.9,9.7-3.8,18.8-14,22.3c-8.6,2.9-17.4,3-25.2-3.2
			c-2.4-2-4.1-2.8-6,1.3c-2.3,5-5.5,9.7-9.9,13.4C610.4,862.8,602.7,862.8,594.8,860.6z"/>
		<path class="st1" d="M1006.9,203.1c1.8,2.9-0.2,5.4-1,8c-7.2,6.7-18.3,7.7-27.2,2.7c-6.8-3.8-13.7-7.1-18.2-13.9
			c-1.7-2.6-4.2-1.9-6.7-1.2c-17.4,5.1-34.7,10.6-52.1,15.9c-38.4,11.8-76.6,24-114.9,36.1c-7.3,2.3-9.2,6.4-9.9,12.8
			c-0.7,6.6-3.9,12.7-7.3,17.9c-7,10.7-24.1,11.9-35.1,4.8c-11.1-7.2-12.1-25.3-5.7-33.9c2.3-3,1.7-3.9-1.3-5.3
			c-8.3-3.7-14.7-9.5-17.5-18.4c-5.8-18.9,10-34.8,27.1-30.8c9.8,2.3,17.5,6.9,23.8,13.8c4.5,4.9,8.4,4.8,13.8,2.7
			c8.6-3.2,17.4-5.8,26.2-8.5c14.5-4.6,29-9.1,43.5-13.7c21.7-7,43.4-14,65.1-21c11.1-3.6,22.1-7.2,33.1-10.8c2.6-0.9,4.1-2.1,5-5.2
			c2-7.6,4.4-15.1,8.6-22c5.7-9.3,16.8-13.9,27.6-11.6c7.4,1.6,12,6.3,16.3,11.9c0.9,7.6,1.1,15.2,0,22.7c-2.2,0.9-2.7,3.2-3.8,4.9
			c-2.1,3.2-1.6,5.9,2.8,6.4c2.9,1.4,2.8,4.4,2.9,6.7c0.1,6,1.6,11.7,3.3,17.3c0.9,3.3,0.6,6.5,1,9.7
			C1005.9,201.9,1005.6,202.8,1006.9,203.1z"/>
		<path class="st1" d="M662.1,941c4.8-4.4,8.7-2.1,13.2,1.1c15.5,10.9,31.2,21.3,46.8,32c1.3,0.9,3,1.4,3.9,3.8
			c-7.9-0.5-15.5,0.7-23.2-0.9c-4.6-0.9-9.5-0.7-14.2-1c-11.3-0.7-22.7-1.8-34-2.4c-7-0.4-14.1-0.9-21-1.9c-0.8-0.1-1.6,0.2-2.4,0.3
			c-0.6,0-1.3,0-1.9,0c-2.4-1.3-1.6-1.9,0.3-3.3c10.5-7.2,19.9-15.8,29.6-24C660.2,943.7,661.1,942.3,662.1,941
			C662.1,941,662.1,941,662.1,941z"/>
		<path class="st1" d="M731,978.1c-16.4-11.3-32.9-22.6-49.3-33.9c-2.9-2-5.8-4-8.4-7.1c13.6-0.8,27.2-1.5,40.8-2.3
			c9.6-0.6,19.2-1.1,28.8-1.7c-0.1,1.6,0.2,3.1-0.2,4.8c-3.6,13.4-7,26.8-10.4,40.2C731.8,978,731.4,978,731,978.1z"/>
		<path class="st1" d="M714.1,933.1c-7.8,0.5-15.6,0.9-23.4,1.5c-6,0.5-12.1-0.4-18.1,1.1c-2,0.5-2.4-1.1-1.5-2.8c0,0,0,0,0,0
			c5.2-3,9.4-7.2,13-12c0,0,0,0,0,0c0.6,0,1-0.4,1-1c0,0,0,0,0,0c8.1-5.9,15.1-12.9,21-21c0,0,0,0,0,0c6.2-4.4,6.2-4.3,11.3,1.7
			c8,9.4,15.4,19.4,24,28.3c1.5,2.7-0.1,3.1-2.3,2.9C730.7,931.4,722.5,932.9,714.1,933.1z"/>
		<path d="M731,978.1c0.4,0,0.8,0,1.2,0c0.6,0.3,1.3,0.5,1.9,0.8c1.5,2.1,3.3,0.8,5,0.4c42.2-9.9,82-25,116.2-52.5
			c0.5-0.4,1.2-0.6,1.8-0.8c-0.5,3.8-4.1,4.7-6.4,6.5c-34.1,25.8-73.4,39.8-114.5,49.3C733.2,982.3,730.4,982.4,731,978.1z"/>
		<path d="M594.8,860.6c7.9,2.2,15.7,2.2,23.1-1.8c0.6,0.1,1.2,0.1,1.8,0.2c-4.9,4.5-10.9,5.4-17.1,4.8c-4.2-0.4-6,1.1-6.4,5.1
			c-1.4,12.1-3.4,24-6,35.9c-2.4,10.5-5.9,20.5-11.1,30c5.1-15,10.7-29.9,12.7-45.7C592.8,879.6,596,870.3,594.8,860.6z"/>
		<path d="M544.2,984.9c-0.9,2.2-1.7,3.6,2.2,4.3c25.7,4.6,48.6-3.5,70.9-15c1.9-1,3.4-2.7,5.8-2.4c-3.7,4.1-8.8,5.9-13.5,8.1
			c-16.4,7.8-33.6,12.5-51.9,11.8c-5.3-0.2-10.5-1.3-15.7-2.1c-0.9-0.1-1.8-0.5-1.6-1.5C540.7,986.2,542.2,985.3,544.2,984.9z"/>
		<path d="M714.1,933.1c8.3-0.2,16.6-1.7,25-1.1c2.2,0.1,3.8-0.2,2.3-2.9c1.4,0.8,2.8,1.3,4.4,1.1c0,1,0.1,1.9,0.1,2.9c-1,0-2,0-3,0
			c-9.6,0.6-19.2,1.1-28.8,1.7C714.1,934.2,714.1,933.6,714.1,933.1z"/>
		<path d="M869,916.9c0.2-2.9,2.8-3.9,4.5-5.4c5.1-4.3,8.6-10.3,14.5-13.6C882.9,905.4,876.5,911.7,869,916.9z"/>
		<path d="M1393.8,153c-6.3,6.6-13.3,12.2-21,17c-0.1-0.1-0.2-0.2-0.4-0.4c6.5-6.3,13.5-11.9,21-17L1393.8,153z"/>
		<path d="M1353.8,185c-4.4,4.8-9.3,8.9-15,12c0,0-0.3-0.3-0.3-0.3c4.3-4.8,9.5-8.6,15-12L1353.8,185z"/>
		<path d="M1367.8,174c-4,4.5-8.6,8.3-14,11c0,0-0.3-0.4-0.3-0.4c4.2-4.3,8.9-7.9,14-11C1367.6,173.7,1367.7,173.9,1367.8,174z"/>
		<path d="M1336.9,198.1c-1.2,3.5-3.7,5.7-7.1,6.9l-0.4-0.3C1331.6,202,1333.8,199.5,1336.9,198.1L1336.9,198.1z"/>
		<path d="M863,921.9c1-2.9,2.9-4.7,6.1-5C867.4,919.1,865.8,921.3,863,921.9z"/>
		<path d="M857,925.9c1.7-1.9,3.1-4.1,6.1-4.1C861.5,924,860,926.1,857,925.9z"/>
		<path d="M1372.8,170c-1.1,2-2.5,3.7-5,4c-0.1-0.1-0.2-0.2-0.3-0.4c1.2-1.9,2.9-3.2,5-4C1372.6,169.7,1372.7,169.9,1372.8,170z"/>
		<path d="M623,971.9c0.1-1.9,1.9-1.8,3.1-2.5C625.6,970.9,624.9,972.2,623,971.9z"/>
		<path d="M1338.8,197c-0.3,1-1,1.1-1.9,1.1c0,0,0,0,0,0c0.5-0.5,1.1-0.9,1.6-1.4C1338.5,196.7,1338.8,197,1338.8,197z"/>
		<path d="M629.1,972.1c0.6,0,1.3,0,1.9,0C630.4,973,629.8,973,629.1,972.1z"/>
		<path d="M1329.8,205c-0.3,0.3-0.7,0.7-1,1c-0.1-0.1-0.2-0.3-0.3-0.4c0.3-0.3,0.7-0.6,1-0.9C1329.5,204.7,1329.8,205,1329.8,205z"
			/>
		<path d="M545.2,984.8c-0.4,0-0.7,0.1-1.1,0.1C544.4,984.3,544.8,984.3,545.2,984.8z"/>
		<path class="st1" d="M1110.9,550.2c0.9,32.4-8.1,62-24.9,89.5c-5.1,8.4-10.6,16.6-16.8,24.3c-6.3,7.9-14.7,13.7-23.1,19.2
			c-15.3,10-31.4,18.5-48.9,24.2c-14.5,4.8-29.3,5.3-44.3,5.4c-13.1,0.1-26-1.3-38.9-3.7c-23.6-4.3-44.9-13.4-63.5-28.9
			c-24.5-20.4-42.6-45.3-53.1-75.4c-4-11.5-6.2-23.5-6.8-35.9c-0.3-6.6-0.8-13.1-0.7-19.7c1.5-0.2,2.9-0.2,4.3,0.6
			c17.1,9.3,35.4,8.5,53.7,6.1c9.1-1.2,17.7-4.6,24.9-10.9l0,0c2.2,0,4-0.9,5-3l0,0c8.1-3.4,15-8.5,21-15l0,0c1.3,0.1,2.1-0.8,3-1.6
			c7.4-6.6,14.8-13.3,22.3-19.8c6.5-5.6,13.2-11.1,22.1-12.2c8.4-1,16.5-0.8,23.7,5c13.9,11.3,26,24.6,40.4,35.4
			c10.9,8.2,21.9,16.2,35.3,19.6c10.9,2.7,22,4.3,33.3,3.5c8.8-0.7,17.5-2.3,25.6-5.7C1106.8,550.4,1108.7,549.9,1110.9,550.2z
			 M942.8,651.8L942.8,651.8c-0.8,0-1.7-0.1-1.9,1c-8.6,3.5-13,11.8-12,20.7c1.7,15.3,18.4,22,31.2,13.8c7.2-4.7,10.1-14,7.2-23.5
			c-2-6.7-6.4-10.8-13.3-11.9c-0.4-1.1-1.2-1-2.1-0.8c-2.6,0-5.3,0-7.9,0.1C943.3,650.8,943,651.2,942.8,651.8z M854,654.3
			c2,0.8,3.7,2.3,6.1,1.5c0.6,0.2,1.3,0.4,1.9,0.5c1.2,1.4,2.7,0.5,4.1,0.4c4.6,0,9.2,0,13.9,0c1.1,0.1,2.3,0.6,3.1-0.6
			c0.6-0.1,1.3-0.2,1.9-0.3c3.6-0.6,7.1-1.5,10.1-3.7c18-9.2,28.2-31,22.7-49.7c-4.6-15.6-14.3-27.2-29.7-33.6
			c-0.5-0.8-1.2-1-2.1-0.8c-5.9-1.6-11.9-1-17.9-1c-5.3,0.9-10.9,0.8-15.2,4.8c-1.1,0.1-2.1,0.2-3.2,0.9
			c-10.3,6.3-17.9,14.9-21.6,26.6c-0.5,0.4-1,0.8-0.2,1.4c-0.2,0.8-0.4,1.5-0.5,2.3c-1,0.7-1.4,1.6-0.5,2.6
			c-0.1,1.1-0.3,2.2-0.4,3.4c-2.2,3.6-2.5,7.2,0.2,10.8c0.5,2.2,1,4.5,1.5,6.7C831.3,640.8,841.2,648.9,854,654.3z M1070.3,605.7
			c0.8-1.8,0.8-3.3-1.3-4.2c-4.7-22.7-22.5-31.1-41.5-33.4c-7.9-1-15.1,1.3-22.3,4c-11.9,4.4-24.7,18.3-25.2,30.9
			c-0.6,0.1-1.1,0.3-0.6,1.1c0,0.7,0.1,1.4,0.1,2.1c-2.2,2.9-2.3,10.5-0.2,13.8c0,4.4,0.8,8.6,2.5,12.6
			c7.9,18.3,22.9,26.1,41.9,27.4c8.1,0.5,15.8-2.5,22.8-6c8.9-4.4,16-11.1,19.4-21c1.8-1.2,2.6-2.9,2.2-5.1c0.1-0.6,0.3-1.3,0.4-1.9
			c0.9-0.9,1.1-2,0.6-3.1C1070.4,617.2,1070.4,611.4,1070.3,605.7z"/>
		<path class="st2" d="M771.1,514.1c-0.2-2-0.4-3.9-0.6-5.9c0.6-1,0.8-2,0-3.1c0.2-1.8,0.4-3.5,0.6-5.3c1.1-0.5,0.9-1.1,0.1-1.8
			c0.2-3.6,1.5-7,2.6-10.4c1.9-6.2,0-8.6-6.4-8.7c-13-0.3-24.9,2.6-35.2,11c-1.1,0.9-2.4,2.5-3.9,1.8c-1.7-0.8-1-2.9-1-4.5
			c-0.2-13.3-0.4-26.6-0.5-39.9c-0.1-6.2,0.3-6.6,5.4-3.4c6.5,3.9,13.3,7,20.9,8.3c6,1,11.8,0.6,17.8,0.7c2.9,0.1,3.4-2.4,3.1-4.7
			c-0.7-5.5-1.7-11-2.6-16.4c1-3,0.7-6,0.1-9.1c0.9-19.2,12.5-31.5,27.2-41.3c3.9-2.6,9.3-2.9,14.1-3.9c13.6-2.7,27.1-3.2,40.8,0.1
			c12.1,3,22.9,8.5,33.1,15.7c13.8,9.7,25.7,21.6,37.3,33.8c0.4,0.8,0.8,1.9,2,0.8l0,0c-0.4,0.3-0.8,0.7-0.3,1.2
			c6,6.9,12,13.7,20.9,17c5.4,2,10.6,1.5,14.9-2.4c6.1-5.5,12.1-11.3,17.3-17.7c13.8-14.5,28.6-27.7,45.4-38.7
			c9.2-6.1,19.5-8.4,30-10.4c8-1.6,16.2-1.1,24.2-1c23.7,0.4,43.3,15.7,49.6,37.2c-0.2,0.6-0.4,1.2,0.3,1.6c0.4,0.7,0.8,1.3,1.2,2
			c-0.6,1.3-0.6,2.4,0.6,3.4c0.2,1.3,0.4,2.7,0.5,4c-0.9,1.2-0.9,2.5,0,3.7c-1.9,6.6-1.4,13.6-2.5,20.3c-0.6,3.7,2.2,4.8,5.4,4.9
			c13.3,0.3,25.9-1.9,37.3-9.2c1.5-0.9,2.9-2.7,4.9-1.7c2,1,1.2,3.3,1.1,5c-0.1,13.9-2,27.8-1.5,41.7c0,1,0.6,2.5-1,3
			c-1.1,0.4-1.7-0.7-2.5-1.3c-1-0.6-2-1.2-3-1.8c-3-2-6-4-9.7-4.7c-8.5-2.3-16.8-4.9-25.8-4.3c-3.4,0.2-4.4,0.8-4.6,4.4
			c-0.1,4.5,2.4,8.5,2.1,13c-1.2,1.1-0.7,2.1,0.3,3c0.2,1.3,0.5,2.7,0.7,4c-1.1,3.2-1,6.5-0.1,9.7c-1.5,12.6-7.7,22.4-17.6,30.1
			c-1.3,1-2.6,1.9-4,2.9c-8.2,4.1-16.9,7.2-26,7.9c-24.5,1.9-47.3-3-67.4-18.5c-14.8-11.4-28-24.6-42.1-36.8
			c-2.9-2.5-5.5-5.4-9.3-6.5c-11.5-3.4-22.6-2.9-32.9,4.1c-12,8.2-22,18.8-33.1,28.1c-0.5,0.4-1.5,1.1-0.3,1.9c0,0,0,0,0,0
			c-0.7-1.2-1.4-0.4-2,0c-5.8,4.9-12.1,9.1-18.5,13.2c-0.5,0.3-1.6,0.8-0.5,1.8c0,0,0,0,0,0c-2.7-0.8-4.3,0.4-5,3c0,0,0,0,0,0
			c-1.3-1.4-2.3,0-3.3,0.5c-26.6,13.9-53.1,13.7-79.6-0.3c-9.9-7.5-18-16.1-18.8-29.4C772.2,515.1,772,514.6,771.1,514.1z
			 M862.1,520.8c5.9-2,10.9-5.6,15.8-9.3c16.8-12.8,29.8-29.4,44.5-44.4c2.2-2.2,2.3-4.2-0.3-6.3c-14.1-11.4-26-25.3-39.6-37.3
			c-12.9-11.4-26.6-21-44.7-23.4c-15.3-2-39.9,7.2-39.5,27.8c-1.2,3.3-0.8,6.7,0.1,10c0.8,8.9,5.5,15.7,12,21.5
			c2.2,2,4.8,4.2,0.9,7.1c-8.8,6.5-12.1,16.1-13.9,26.2c-2.1,11.7,3.3,25.7,13.6,31c3.8,2.5,8,3.9,12.6,4.4
			C837.1,529.7,849.8,526.2,862.1,520.8z M1071.9,528.2c3.3,0.3,8.5-0.2,13.7-1.7c11.4-3.4,16.3-11.8,17.7-23.1
			c1.6-13-0.3-25-10.1-34.7c-5-4.9-4.9-5-0.3-10.6c1.6-1.9,2.9-4.1,4.7-5.8c9-8.5,7.1-29,2-37.3c-7.3-11.9-19-14.6-31.3-14.8
			c-13.4-0.2-25.7,4.7-36.4,12.9c-18.9,14.6-34.5,32.8-52.4,48.5c-1.9,1.7-1.4,2.8,0,4.5c12.9,14.9,25.7,29.9,40.9,42.4
			C1034.7,520.2,1050.7,528.2,1071.9,528.2z"/>
		<path class="st2" d="M1000.7,67.4c9.1,11,17.5,21,25.8,31.2c8.3,10.2,16.4,20.4,24.6,30.6c2.3,2.8,4.8,2.1,7.4,0.2
			c9.9-7.3,20-14.4,30-21.7c12.1-8.8,24.2-17.7,36.4-26.5c4.5-3.3,4.8-3.2,6.7,2c8.5,23.6,17,47.3,25.5,70.9
			c2.6,7.4,2.8,7.5,9.9,5.3c22.6-7,45.3-14,68-21c4.5-1.4,5.5-0.5,6.1,4c1.8,13.7,4.1,27.3,5.7,41c1.1,9.8,3.1,19.3,4.3,29.1
			c0.2,1.6,0.3,3,2.3,3.3c7.3,1,14.6,2.1,21.8,3.1c9,1.3,18.1,2.5,27.1,3.7c6.5,0.9,13,1.6,19.4,2.4c0.4,1.9-1.3,2.2-2.2,2.9
			c-12.1,8.8-24.4,17.5-36.4,26.4c-2.9,2.1-4.6,1.7-7.3-0.5c-10.8-8.6-22.9-9.1-35-3.8c-11.4,5-16,14.9-16.7,26.9
			c-0.3,5.3,0.2,10.5,3,15.2c1.1,1.9,1,3.2-0.7,5.1c-8.2,8.4-8.3,8.6-16-0.1c-19.3-21.7-42.6-37.8-68-51.6
			c-13.3-7.2-26.8-14.1-40.8-19.5c-14.3-5.5-28.9-10.3-44-13.2c-13.9-2.7-27.8-5-41.9-5.9c-4.1-0.3-6-2.4-6.4-6.4
			c-0.3-3.5,0.4-5.1,4.4-6c19.3-4.6,24.4-24.2,20.5-40.3c-2.8-11.6-8.3-21.2-20.3-25.6c-0.6-0.2-1.2-0.7-1.9-0.7
			c-8.6,0.5-8.1-6.1-8.5-11.4c-1.1-15.5-1.9-31.1-2.8-46.6C1000.3,69.5,1000.5,69.1,1000.7,67.4z M1221.8,218.2
			c0-3.7-1.7-7-2.8-10.4c-6.3-21-34.8-24-48.2-10.9c-7.9,7.7-10,16.9-9,27.7c1.1,11.1,6.7,19.1,16.3,23.4
			c18.2,8.1,39.5-3.4,43.6-22.9C1223.2,222.7,1223.2,220.5,1221.8,218.2z M1065,173.4c0.1,4.8-0.4,9.5,1.9,14
			c9.3,18.5,29.6,23.5,46.9,9.7c10.9-8.7,12.1-21.3,9.3-34.7c-3.7-17.8-23-23.8-35.6-20.4C1074.5,145.4,1063.6,155.1,1065,173.4z"/>
		<path class="st0" d="M1329.5,204.7c-0.3,0.3-0.7,0.6-1,0.9c-5.4,3.2-9.2,8.2-13.7,12.3c-3.4,3-13,3.9-16.6,1.3
			c-2.5-1.8,0.1-2.8,0.9-3.7c9.4-10.6,18.9-21.1,28.3-31.7c15.8-17.6,31.5-35.3,47.2-52.9c0.4-0.5,0.9-1,1.3-1.5
			c1.1-1.5,1.7-3,0.1-4.5c-1.6-1.5-3.1-0.5-4.3,0.8c-5.8,6.4-11.7,12.8-17.5,19.2c-20.9,23.3-41.7,46.7-62.5,70.1
			c-1.7,1.9-3.3,2.7-6,2.4c-5-0.5-9.8-1.8-14.9-1.4c-1.5,0.1-3.2-0.5-3.9-1.7c-0.9-1.6,1-2.6,1.9-3.7c22.5-25.9,45-51.8,67.5-77.7
			c0.5-0.6,1.1-1.2,1.6-1.9c1.1-1.4,1.7-3.1,0.2-4.5c-1.5-1.3-3.2-0.7-4.4,0.6c-3.2,3.6-6.4,7.2-9.6,10.9
			c-21.2,24.3-42.5,48.7-63.7,73.1c-1.5,1.7-2.7,3.3-5.2,2.6c-2.6-0.8-2.1-3-2.3-4.9c-0.5-3.3-1.2-6.5-1.7-9.7c-0.5-3,0-5.4,2.3-8
			c15.8-17.6,31.2-35.5,46.8-53.3c0.5-0.6,1.1-1.3,1.6-1.9c1.2-1.7,2.1-3.9,0.2-5.3c-1.8-1.4-3.4,0.3-4.6,1.7
			c-10.9,12.4-21.7,24.8-32.5,37.3c-4.1,4.6-8.1,9.3-12.3,13.8c-0.7,0.8-1.7,1.9-3,1.3c-1-0.5-0.6-1.8-0.7-2.7
			c-1.2-8.3-2.3-16.6-3.7-24.9c-0.3-1.7,0.1-2.9,1.2-4c9.3-9.5,18.2-19.5,28.1-28.5c5.2-4.7,12.8-6.1,19.5-8.6
			c21.4-8.1,42.9-16,64.4-23.9c10.6-3.9,21.4-7.2,32.4-9.6c5.1-1.1,10.3,0.4,15.3,1c16.2,2.1,32.2,6,46.8,13.4
			c16.4,8.3,25.8,27.6,19.4,46.4c-4.6,13.4-21.7,22.2-35.7,19.1c-11-2.4-21.1-6.4-29.2-14.3c-3.1-3-5.4-3.2-8.4-0.4
			c-1.8,1.7-4.2,2.7-5.6,4.9c-7.5,5-14.5,10.7-21,16.9c-2.1,0.8-3.8,2.1-5,4c-5.1,3.1-9.8,6.7-14,11c-5.5,3.4-10.6,7.2-15,12
			c-0.5,0.5-1.1,0.9-1.6,1.4C1333.8,199.5,1331.6,202,1329.5,204.7z"/>
		<path class="st2" d="M1253,385.7c0,4.9-2.5,8.1-4,11.7c-1.6,3.8-3.7,7.4-5,11.2c-1.1,3.2-2.8,2.9-4.9,1.8
			c-2.5-1.3-4.8-2.9-7.2-4.5c-18.6-11.9-37.8-23-57.9-32.2c-22.6-10.3-44-22.8-66.5-33.2c-15.3-7-30.5-14.3-45.7-21.4
			c-19.3-9.1-38.7-17.7-58.3-26.1c-18.2-7.7-36.7-14.7-55-22.1c-7.8-3.1-15.2-6.9-22.6-11c-4.1-2.3-5.6-5.6-3.3-10.1
			c3.5-7,6.9-14.1,10.3-21.2c2.2-4.5,5.6-5.8,10.2-4.2c14.6,5.2,28.9,11,43,17.4c11.6,5.3,23.6,9.7,35.1,15
			c12.5,5.8,25.1,11.2,37.6,16.8c22.2,9.9,44.2,20.3,65.9,31.3c36.1,18.4,71,38.7,105.5,59.9c6.7,4.1,13.1,8.6,19,13.8
			C1251.5,380.9,1253.3,383.1,1253,385.7z"/>
		<path class="st1" d="M1049.8,774c0.5,22-7.8,40.9-20,58.6c-7.2,10.5-17.8,16.7-28.1,23.4c-14.7,9.5-30.9,11.8-47.9,12.1
			c-17.6,0.3-34.4-2.3-50.1-10.3c-21.1-10.8-36.7-27-44.9-49.6c-2-5.4-2.3-11.2-3.3-16.8c-0.9-5.5-1.4-11-1.8-16.5
			c1.5,0.2,3,0.1,4.3,0.6c12.3,5.3,24.5,10.7,36.8,15.9c8,3.4,16.2,6.6,25.1,6.4c7.8,2.3,15.9,2.5,23.9,2.6
			c13.7,0.1,27.4,0.2,40.9-2.7c3.7-0.7,7.4-1,11-2.1c16.5-5.3,32.6-11.8,47.9-20C1045.7,774.6,1047.6,773.9,1049.8,774z"/>
		<path class="st2" d="M1012.1,208.9c10.9,1.5,21.2,2.7,31.4,4.2c11.9,1.7,23.7,4.3,35.1,8.1c48.5,16.1,93.2,38.8,128.6,77
			c2.1,2.3,3.7,5,6,7.2c1.8,1.7,0.7,4.5-1.3,6.1c-4.2,3.6-8.3,7.2-12.6,10.6c-2.6,2-4.8,2-7.4-0.8c-12.4-13-25.4-25.6-40.5-35.5
			c-14.3-9.4-28.9-18.3-44.3-26c-18.3-9.2-37.5-15.8-56.8-22.2c-11.7-3.9-24.1-5.7-36.2-8.1c-3.4-0.7-4.4-2.1-4.3-5.3
			c0.1-4-0.1-8-0.1-12C1009.7,210.1,1010.1,208.4,1012.1,208.9z"/>
		<path class="st2" d="M1191.2,328.1c-1.2,5.8-4.2,8.4-9.9,5c-33.3-19.6-67.6-37.3-102.8-53.4c-16.6-7.6-33.3-15.1-50.2-22.2
			c-6.2-2.6-12.7-5-18.6-8.4c-0.2-4.3,1.1-8.6-0.6-12.9c0.2-4.4,2.9-4.4,6.3-3.8c18.2,3.4,36,8,53.4,14.2
			c37.7,13.5,72.4,32.1,102.6,58.7c6.8,6,13,12.6,19.5,19C1191,325.5,1191.1,326.8,1191.2,328.1z"/>
		<path class="st1" d="M1043,731.8c3.3,2.9,2.5,7.1,3.2,10.8c1.8,9.4,4.1,18.7,3.7,28.3c-0.9,0.3-1.9,0.6-2.7,1
			c-10.9,5.6-22.1,10.3-33.3,15.1c-2.6,1.1-5.7,3.1-7.8,2.5c-2.5-0.8-0.9-4.6-1.2-7.1c-1.2-10.3-1.9-20.6-2.8-30.9
			c-0.2-2.3,0.6-3.7,3-4.3C1018.2,743.5,1030.5,737.3,1043,731.8z"/>
		<path class="st1" d="M899,709c6-0.4,11.4,2.1,17.1,3.1c10.2,1.7,20.3,3.3,30.7,3c0,3.1,0,6.3,0.2,9.4c0.4,8.9-0.5,17.8,0.9,26.6
			c-0.4,2.8-2.4,2.5-4.5,2.4c-9.2-0.5-18.3-1.1-27.4-2.6c-4.8-1.4-9.5-2.9-14.3-4c-3.2-0.7-4.2-2.4-4-5.6
			C898.3,730.6,898.6,719.8,899,709z"/>
		<path class="st1" d="M949.2,715.1c6,0,11.9-0.1,17.9-0.1c9.8,0,19.4-1.9,28.9-4c1,9.9,2,19.9,3,29.8c0.4,3.8,0.3,6.8-4.8,7.8
			c-10.6,2.1-21.3,4.1-32.1,4.5c-3.3,0.2-6.6,0.3-9.8,0.6c-2.1,0.2-3.1-0.7-3.2-2.8c0.1-1.6,0.4-3.2,0.4-4.9
			C949.3,735.8,949.2,725.4,949.2,715.1z"/>
		<path class="st1" d="M854.2,770.9c-1.5-8.4-0.3-16.8,0.1-25.3c0.2-4.9,1.2-9.7,1.9-14.5c1.4-0.2,2.6,0.2,3.8,0.8
			c10.9,5.3,22.1,10.1,33.6,14.1c2,0.7,2.1,2.3,1.7,3.6c-2.6,8.4,0.1,17.1-1.1,25.5c-0.3,0.5-0.6,0.9-0.9,1.4c0,3.7,0,7.4,0,11.6
			c-2.7-1.1-4.6-1.7-6.4-2.5C875.9,780.8,865.1,775.9,854.2,770.9z"/>
		<path class="st1" d="M998.1,710c7.3-2.9,14.6-5.8,22-8.7c4.2-1.6,7.9-4.1,11.6-6.4c2.3-1.4,3.7-0.6,4.3,1.7
			c2.7,10.5,4.5,21.3,7.9,31.6c0.1,0.4-0.7,1-1,1.6c-0.9,0.4-1.9,0.7-2.8,1.1c-11.5,5.4-23.2,10.5-35.3,14.5
			c-1.5,0.5-3.5,2.1-3.8-1.4C1000.1,732.6,999,721.3,998.1,710z"/>
		<path class="st1" d="M857.1,729c0.9-11.3,3.5-22.4,5.9-33.5c0.6-2.6,2.7-1.7,3.9-0.9c9.4,6.1,19.6,10.2,30.2,13.3
			c0.1,2-1.1,3.6-1.1,5.7c0.1,9.1-0.3,18.1-0.9,27.2c-0.2,3.6-1.4,3.8-4.1,2.6C879.7,738.5,868.4,733.8,857.1,729z"/>
		<path class="st2" d="M1008.1,145.4c-1.3-0.9-3.3,0.6-4.3-1.3c0.1-4.4,0.6-8.8-0.2-13.1c0.3-1.9,1.4-1.9,2.9-1.5
			c17,4.6,22.5,12.5,25.2,29.4c1.1,6.6,0.4,13.3-2.5,19.9c-3.8,8.3-10.6,11.7-18.7,13.9c-0.6,0.2-1.4,0.3-1.9,0
			c-2.9-1.7-3.1-12.2-0.4-14.7c5.2-2.3,8.5-6.1,8.9-12C1017.7,157.4,1017.4,149.5,1008.1,145.4z"/>
		<path class="st1" d="M925.8,427c16.3-5.8,32.7-7,48.9,0.2c-4.3,5.7-9.6,10.5-14.9,15.3c-1.8,1.7-4.1,2.4-6.8,2.5
			c-7.5,0.3-12.4-4.3-17.7-8.4c-3.4-2.6-5.1-6.9-9.3-8.6c0,0,0,0,0,0C926,427.6,925.9,427.3,925.8,427z"/>
		<path class="st2" d="M1238,289.9c-7.3,4.1-8.6,3.5-11-4.5c-4.3-14.8,6.9-36.4,26.6-35.3c7.9,0.4,15.4,1,21.3,7
			c1.2,1.2,1.5,1.9,0.3,3.6c-1.6,2.2-2.5,5-5.4,6.1c-0.4,0.1-1.3-1.2-1.9-2c-5.3-6.5-11.2-8.2-20-5.6c-5.7,1.7-11.5,9.1-11.9,15.7
			c-0.2,2.8,0.1,5.6,0.2,8.5C1236.5,285.5,1236.7,287.8,1238,289.9z"/>
		<path class="st3" d="M1238,289.9c-1.3-2-1.5-4.3-1.9-6.6c2.7-1,1.7-3.3,1.8-5.1c0.6-11.9,7.8-18.9,18.5-18.1
			c2.2,0.2,4.3,0.8,6.1,2c6,4.2,5.8,6.7,0.1,11.4c-7,5.9-15.4,9.8-22.3,15.8C1239.7,289.6,1238.8,289.6,1238,289.9z"/>
		<path class="st3" d="M899.1,527.1c-1.2-0.8-0.2-1.5,0.3-1.9c11-9.4,21-20,33.1-28.1c10.2-7,21.3-7.5,32.9-4.1
			c3.8,1.1,6.4,4,9.3,6.5c14.1,12.2,27.3,25.4,42.1,36.8c20.1,15.5,42.9,20.3,67.4,18.5c9-0.7,17.8-3.8,26-7.9
			c2.4,0.6,0.9,2.1,0.7,3.3c-2.2-0.2-4.1,0.2-6.1,1.1c-8.2,3.5-16.8,5.1-25.6,5.7c-11.3,0.8-22.4-0.8-33.3-3.5
			c-13.5-3.4-24.4-11.4-35.3-19.6c-14.4-10.8-26.5-24.1-40.4-35.4c-7.1-5.9-15.3-6.1-23.7-5c-8.9,1.1-15.6,6.6-22.1,12.2
			c-7.5,6.5-14.8,13.2-22.3,19.8C901.2,526.2,900.4,527.2,899.1,527.1z"/>
		<path class="st3" d="M998.1,710c1,11.3,2,22.5,2.9,33.8c0.3,3.5,2.3,1.9,3.8,1.4c12.1-4,23.7-9.1,35.3-14.5
			c0.9-0.4,1.8-0.7,2.8-1.1c0.1,0.7,0.1,1.3,0.2,2c-12.5,5.5-24.8,11.7-38.1,15.3c-2.3,0.6-3.2,2-3,4.3c0.9,10.3,1.7,20.6,2.8,30.9
			c0.3,2.5-1.3,6.3,1.2,7.1c2.1,0.7,5.2-1.4,7.8-2.5c11.2-4.8,22.5-9.5,33.3-15.1c0.8-0.4,1.8-0.7,2.7-1c0.2,1.1,1.4,2.2-0.1,3.2
			c-2.2-0.2-4.1,0.6-6,1.6c-15.3,8.1-31.4,14.7-47.9,20c-3.5,1.1-7.3,1.5-11,2.1c0-0.5,0-1,0-1.5c4.2-1.1,8.5-2.1,12.7-3.4
			c5.3-1.6,6-3.3,5.3-9c-1.2-9.6-2.2-19.2-2.9-28.8c-0.4-5.8-0.1-5.7-6-4.5c-10.3,2.2-20.6,3.9-31.1,4.2c-0.3-0.6-0.7-1.1-1-1.7
			c10.9-0.5,21.5-2.5,32.1-4.5c5.1-1,5.2-3.9,4.8-7.8c-1-9.9-2-19.9-3-29.8C996.3,710,997.2,709.9,998.1,710z"/>
		<path class="st3" d="M1008.1,145.4c9.3,4.1,9.7,12.1,9.1,20.6c-0.4,6-3.7,9.7-8.9,12c-1.9-1-3-2.1-3.5-4.6
			c-1.5-6.9-1.4-13.8-1.8-20.7C1002.7,148.5,1003.2,145.6,1008.1,145.4z"/>
		<path class="st3" d="M857.1,729c11.3,4.8,22.6,9.6,33.9,14.4c2.7,1.2,3.9,1,4.1-2.6c0.6-9.1,1-18.1,0.9-27.2
			c0-2.1,1.2-3.7,1.1-5.7c1.1-0.4,1.5,0.3,1.9,1.1c-0.4,10.8-0.7,21.6-1.3,32.3c-0.2,3.2,0.8,4.8,4,5.6c4.8,1.1,9.6,2.6,14.3,4
			c-0.7,0.3-1.3,0.5-2,0.8c-4.9,0.1-9.4-1.7-13.9-3.2c-2.6-0.9-3.1-0.3-3.2,2.1c-0.3,8.2-0.7,16.4-1.1,24.6c-0.6,0-1.2,0-1.8-0.1
			c1.3-8.5-1.4-17.1,1.1-25.5c0.4-1.3,0.3-2.9-1.7-3.6c-11.5-4-22.6-8.8-33.6-14.1c-1.2-0.6-2.5-1-3.8-0.8
			C856.2,730.3,856.1,729.4,857.1,729z"/>
		<path class="st3" d="M854.2,770.9c10.9,4.9,21.7,9.9,32.6,14.8c1.8,0.8,3.6,1.4,6.4,2.5c0-4.2,0-7.9,0-11.6c0.9,0,1.8,0,2.7,0
			c-0.1,3.3,0,6.6-0.2,9.9c-0.1,2,0.6,3.2,2.3,3.8c2.4,0.9,4.8,1.8,7.3,2.4c5.2,1.4,10.5,2.8,15.8,4.1c-0.3,0.3-0.7,0.6-1,0.9
			c-9,0.2-17.1-3-25.1-6.4c-12.3-5.2-24.5-10.7-36.8-15.9c-1.3-0.6-2.9-0.4-4.3-0.6C852.2,773.4,853,772.1,854.2,770.9z"/>
		<path class="st3" d="M790.1,545.3c26.5,14,53,14.2,79.6,0.3c1-0.5,2-1.9,3.3-0.5c-7.2,6.2-15.8,9.7-24.9,10.9
			c-18.3,2.4-36.7,3.2-53.7-6.1c-1.4-0.8-2.8-0.9-4.3-0.6C790.1,547.9,790.1,546.6,790.1,545.3z"/>
		<path class="st3" d="M926.1,428c4.2,1.7,5.9,6,9.3,8.6c5.3,4.1,10.2,8.8,17.7,8.4c2.7-0.1,5-0.8,6.8-2.5
			c5.2-4.8,10.5-9.6,14.9-15.3c1.3-0.4,2.7-0.7,4-1.1c-5.2,6.4-11.2,12.2-17.3,17.7c-4.3,3.9-9.4,4.4-14.9,2.4
			c-8.9-3.3-15-10.1-20.9-17C925.3,428.7,925.7,428.3,926.1,428z"/>
		<path class="st3" d="M949.2,715.1c0.1,10.4,0.1,20.7,0.2,31.1c0,1.6-0.2,3.2-0.4,4.9c-0.3,0-0.7,0.1-1,0.1
			c-1.4-8.8-0.5-17.7-0.9-26.6c-0.2-3.1-0.1-6.3-0.2-9.4C947.6,715.1,948.4,715.1,949.2,715.1z"/>
		<path class="st3" d="M999,167.3c-4.5-0.6-4.9-3.2-2.8-6.4c1.1-1.7,1.6-4,3.8-4.9c0.6,2.6,1.1,5.1,1.7,7.7
			C1002.1,165.9,1001.4,167.2,999,167.3z"/>
		<path class="st0" d="M1003.6,130.9c0.8,4.4,0.4,8.8,0.2,13.1c-2,0.1-1.8-1.4-1.8-2.7c0-3.4,0.1-6.9,0.1-10.3c0,0,0,0,0,0
			C1002.5,131.1,1003.1,131,1003.6,130.9z"/>
		<path class="st0" d="M1009.2,236.2c1.7,4.2,0.3,8.6,0.6,12.9c-0.9,0-1.9-0.2-1.8-1.2C1008.5,244,1006.5,239.8,1009.2,236.2z"/>
		<path class="st0" d="M1131.7,513.9c-0.9-3.2-1.1-6.5,0.1-9.7C1133.8,507.4,1133.9,510.6,1131.7,513.9z"/>
		<path class="st3" d="M1159.1,484.2c3.7,0.6,6.7,2.7,9.7,4.7C1164.6,489.2,1161.7,487.1,1159.1,484.2z"/>
		<path class="st0" d="M771.5,422.8c0.6,3,0.9,6.1-0.1,9.1C769.1,428.8,769.1,425.8,771.5,422.8z"/>
		<path class="st0" d="M1130.6,427.9c-0.9-1.2-0.9-2.5,0-3.7C1131.8,425.4,1131.9,426.7,1130.6,427.9z"/>
		<path class="st0" d="M770.5,505.2c0.8,1,0.7,2,0,3.1C769.4,507.2,769.1,506.2,770.5,505.2z"/>
		<path class="st0" d="M1131.1,500.2c-1-0.9-1.5-1.9-0.3-3C1132.5,498,1131.4,499.1,1131.1,500.2z"/>
		<path class="st0" d="M1130.1,420.2c-1.2-0.9-1.2-2.1-0.6-3.4C1130.6,417.8,1130.8,418.9,1130.1,420.2z"/>
		<path class="st0" d="M1191.2,328.1c-0.1-1.3-0.2-2.5-0.2-3.8C1193.1,325.4,1193.2,326.7,1191.2,328.1z"/>
		<path class="st3" d="M1006.9,203.1c-1.2-0.3-1-1.2-0.8-2.1C1007.2,201.4,1008.5,201.7,1006.9,203.1z"/>
		<path class="st0" d="M771.1,514.1c0.9,0.4,1.1,1,0.3,1.7C770.4,515.4,770.3,514.9,771.1,514.1z"/>
		<path class="st0" d="M771.1,498.2c0.9,0.6,1,1.2-0.1,1.8C770.2,499.3,770.5,498.7,771.1,498.2z"/>
		<path class="st0" d="M1128.3,414.8c-0.7-0.4-0.5-1-0.3-1.6c0.4,0.4,1,0.7,1.2,1.1C1129.3,414.7,1128.8,415.1,1128.3,414.8z"/>
		<path class="st3" d="M925.8,427c0.1,0.3,0.1,0.7,0.2,1c-1.2,1.1-1.6,0-2-0.8C924.6,427.1,925.2,427,925.8,427z"/>
		<path d="M647,881.9c13-1.1,19.6,6.8,19.3,20.9c-0.3,12.7-6.3,18.7-18.2,19.3c-14.5,0.7-22.4-9.1-22.7-20.7
			C625.2,891,633.4,879.9,647,881.9z"/>
		<path class="st3" d="M745.8,930.2c-1.6,0.2-3-0.3-4.4-1.1c-8.6-8.9-16-18.9-24-28.3c-5.2-6.1-5.1-6.1-11.3-1.7
			c0.6-4.2,3.2-6.7,7-8c-0.3,1.3,0.6,2.1,1.3,3c8.7,10.4,17.4,20.9,26.2,31.4c1,1.2,1.7,2.9,4.1,3.3c0.4-3.2,0.5-6.5,1.1-9.6
			c0.7-3.4,0.3-6.9,0.4-10.4c0.9,0.1,1.5-0.3,1.5-1.3c0-0.7-0.3-1.1-1.1-1.1c1.1-6.2,1.2-12.3-0.1-18.5c0.3-0.2,0.9-0.4,0.9-0.6
			c0-0.8-0.6-0.9-1.3-0.8c-0.2-9.5-2.6-18.4-5.7-27.9c-5,6.6-9.3,12.7-14.1,18.4c-4.2,4.9-7.6,10.6-13.2,14.2
			c1.1-5.2,5.6-8,8.6-11.8c5.7-7,11-14.2,16.4-21.4c0.9-1.2,1.5-2.9,3.3-2.7c2,0.2,1.8,2.2,2.2,3.5c3.5,11.7,6,23.5,5.6,35.8
			c-0.4,10.1,0.3,20.3-1.3,30.4C747.7,926.9,747.2,928.6,745.8,930.2z"/>
		<path class="st3" d="M742.9,933.1c1,0,2,0,3,0c-1,11.1-5.1,21.4-7.6,32.1c-1.1,4.6-2.7,9.1-4.2,13.6c-0.6-0.3-1.3-0.5-1.9-0.8
			c3.4-13.4,6.8-26.8,10.4-40.2C743.1,936.2,742.8,934.7,742.9,933.1z"/>
		<path class="st3" d="M706.1,899c-5.9,8.1-12.9,15.1-21,21c0.9-5,5.8-6.8,8.5-10.5c2.9-3.9,7-6.9,10.7-10.2
			C704.7,899,705.5,899.1,706.1,899z"/>
		<path class="st3" d="M684.1,921c-3.6,4.8-7.8,9-13,12C674.1,927.5,678,923,684.1,921z"/>
		<path class="st3" d="M685.1,920c0,0.6-0.4,1-1,1C684,920.2,684.4,919.9,685.1,920z"/>
		<path d="M1066,633c-3.3,9.9-10.5,16.5-19.4,21c-7,3.5-14.7,6.5-22.8,6c-19-1.2-34-9-41.9-27.4c-1.7-4-2.5-8.3-2.5-12.6
			c1.2-4.6,0.9-9.2,0.2-13.8c0-0.7-0.1-1.4-0.1-2.1c0.2-0.4,0.4-0.7,0.6-1.1c0.6-12.6,13.3-26.5,25.2-30.9c7.2-2.7,14.4-5,22.3-4
			c19.1,2.3,36.8,10.7,41.5,33.4c-0.5,1.7,0,3.1,1.3,4.3c0.1,5.7,0.1,11.5-1.2,17.1c-1.4,0.8-1.6,1.8-0.6,3.1
			c-0.1,0.6-0.3,1.3-0.4,1.9C1066.4,629.1,1066.5,631.1,1066,633z"/>
		<path d="M888,568.9c15.4,6.4,25.1,17.9,29.7,33.6c5.5,18.6-4.7,40.5-22.7,49.7c-4-0.4-7.2,1.1-10.1,3.7c-0.6,0.1-1.3,0.2-1.9,0.3
			c-1.4-1.6-2.4-1.3-3.1,0.6c-4.6,0-9.2,0-13.9,0c-1.2-2.4-2.6-2-4.1-0.4c-0.6-0.2-1.3-0.4-1.9-0.5c-1.6-2.3-3.7-2.6-6.1-1.5
			c-12.8-5.4-22.6-13.5-25.9-27.8c-0.5-2.2-1-4.5-1.5-6.7c0.3-3.6,0.7-7.2-0.2-10.8c0.1-1.1,0.3-2.2,0.4-3.4c0.9-0.7,1-1.6,0.5-2.6
			c0.2-0.8,0.4-1.5,0.5-2.3c0.8-0.4,0.8-0.8,0.2-1.4c3.7-11.7,11.3-20.2,21.6-26.6c1.1-0.7,2.1-0.8,3.2-0.9
			c5.1-1.5,10.5-1.9,15.2-4.8c6-0.1,12-0.7,17.9,1C886.3,569.3,886.7,570.3,888,568.9z"/>
		<path d="M954,651.9c7,1.1,11.3,5.2,13.3,11.9c2.9,9.5,0,18.8-7.2,23.5c-12.8,8.2-29.5,1.6-31.2-13.8c-1-8.9,3.4-17.3,12-20.7
			c1.6,1.4,1.8,0.4,1.9-1l0,0c0.4-0.2,0.8-0.4,1.2-0.6c2.6,0,5.3,0,7.9-0.1C952.3,652.3,952.7,653.4,954,651.9z"/>
		<path class="st3" d="M878.1,542.1c-1.1-1,0-1.4,0.5-1.8c6.4-4.1,12.7-8.3,18.5-13.2c0.5-0.4,1.3-1.2,2,0
			C893.1,533.5,886.2,538.6,878.1,542.1z"/>
		<path class="st3" d="M979.5,606.1c0.7,4.6,1,9.2-0.2,13.8C977.3,616.6,977.4,609,979.5,606.1z"/>
		<path class="st3" d="M868.1,567.1c-4.7,2.9-10.1,3.3-15.2,4.8C857.2,567.9,862.8,568,868.1,567.1z"/>
		<path class="st4" d="M826.4,609.1c0.9,3.6,0.5,7.2,0.2,10.8C823.8,616.3,824.2,612.7,826.4,609.1z"/>
		<path class="st3" d="M885,655.9c2.8-2.6,6.1-4.2,10.1-3.7C892,654.4,888.6,655.3,885,655.9z"/>
		<path class="st3" d="M854,654.3c2.4-1.1,4.5-0.8,6.1,1.5C857.7,656.6,855.9,655.1,854,654.3z"/>
		<path class="st4" d="M1070.3,605.7c-1.3-1.1-1.8-2.6-1.3-4.3C1071.1,602.3,1071.1,603.9,1070.3,605.7z"/>
		<path class="st3" d="M1066,633c0.5-1.8,0.4-3.9,2.2-5.1C1068.6,630,1067.8,631.7,1066,633z"/>
		<path class="st3" d="M873.1,545.1c0.7-2.6,2.3-3.8,5-3C877.1,544.2,875.3,545,873.1,545.1z"/>
		<path class="st3" d="M862,656.4c1.6-1.6,3-1.9,4.1,0.4C864.7,656.8,863.2,657.8,862,656.4z"/>
		<path class="st3" d="M880,656.8c0.7-1.9,1.7-2.2,3.1-0.6C882.2,657.4,881.1,657,880,656.8z"/>
		<path class="st3" d="M1068.6,625.9c-1.1-1.3-0.9-2.3,0.6-3.1C1069.7,624,1069.5,625,1068.6,625.9z"/>
		<path class="st4" d="M827.3,603c0.5,1,0.4,1.9-0.5,2.6C825.9,604.6,826.3,603.8,827.3,603z"/>
		<path class="st3" d="M954,651.9c-1.3,1.4-1.7,0.4-2.1-0.8C952.8,650.9,953.6,650.8,954,651.9z"/>
		<path class="st4" d="M828,599.3c0.5,0.6,0.6,1.1-0.2,1.4C827,600.1,827.5,599.7,828,599.3z"/>
		<path class="st3" d="M888,568.9c-1.3,1.4-1.7,0.4-2.1-0.8C886.8,567.9,887.6,568.1,888,568.9z"/>
		<path class="st3" d="M942.8,651.8c-0.1,1.3-0.3,2.4-1.9,1C941.2,651.7,942.1,651.9,942.8,651.8z"/>
		<path class="st3" d="M980,603c-0.2,0.4-0.4,0.7-0.6,1.1C978.9,603.3,979.3,603.1,980,603z"/>
		<path class="st3" d="M944,651.2c-0.4,0.2-0.8,0.4-1.2,0.6C943,651.2,943.3,650.8,944,651.2z"/>
		<path class="st3" d="M1071.9,528.2c-21.2,0-37.2-7.9-51.5-19.7c-15.2-12.5-28-27.5-40.9-42.4c-1.4-1.7-2-2.8,0-4.5
			c18-15.6,33.5-33.9,52.4-48.5c10.7-8.2,22.9-13.1,36.4-12.9c12.3,0.2,24,2.9,31.3,14.8c5.1,8.3,7,28.8-2,37.3
			c-1.8,1.7-3.1,3.9-4.7,5.8c-4.7,5.6-4.7,5.7,0.3,10.6c9.8,9.7,11.7,21.7,10.1,34.7c-1.4,11.2-6.3,19.7-17.7,23.1
			C1080.4,527.9,1075.2,528.4,1071.9,528.2z M1072.9,525.9c0.7,0,2.7,0.1,4.7,0c12.3-0.8,19.9-7,22.8-18.6c0.5-2.1,0.3-4.3,0.6-6.4
			c1.7-12.2-1.3-22.8-10.3-31.6c-5.7-5.5-5.7-6,0-12c8.2-8.7,13.7-17.8,10.6-30.8c-2.4-10.1-7.1-17.5-16.7-21.2
			c-17.7-6.8-34.1-2.2-48.7,8c-19.9,13.8-35.3,32.9-53.4,48.8c-2,1.8-1,3,0.3,4.5c10.9,12.8,22.3,25.2,34.7,36.6
			C1032.8,516.9,1050.1,526.4,1072.9,525.9z"/>
		<path class="st3" d="M798.3,428c-0.4-20.6,24.2-29.8,39.5-27.8c18.1,2.3,31.7,12,44.7,23.4c13.6,12,25.5,25.8,39.6,37.3
			c2.6,2.1,2.4,4.1,0.3,6.3c-14.7,14.9-27.7,31.5-44.5,44.4c-4.9,3.7-9.9,7.3-15.8,9.3c-0.4-0.3-0.8-0.7-1.1-1
			c4.5-2.8,9.2-5.4,13.5-8.5c17.4-12.7,30.6-29.6,45.5-44.7c2.6-2.6,0.5-4.2-1.3-5.6c-9.6-7.6-17.5-16.9-26.4-25.1
			c-6.2-5.8-12.4-11.6-19-17c-12.6-10.5-26.7-17.7-43.7-16.6c-11.7,0.7-21.6,5.3-26.6,16.5c-6.3,14.1-3.2,28.8,8.9,39.2
			c5.2,4.5,5.1,6.4,0.1,11c-16.3,15.1-16.3,39.5,0,54c-0.4,0.3-0.7,0.6-1.1,1c-10.4-5.3-15.7-19.3-13.6-31
			c1.8-10.1,5-19.7,13.9-26.2c3.9-2.8,1.3-5.1-0.9-7.1c-6.5-5.8-11.1-12.6-12-21.5C799.1,434.7,799.1,431.4,798.3,428z"/>
		<path d="M811,523.8c0.4-0.3,0.7-0.6,1.1-1c5.9,3.1,12.1,4.2,18.7,4.2c10.7,0,20.3-3.9,30.2-7.3c0.4,0.3,0.8,0.7,1.1,1
			c-12.3,5.4-24.9,8.9-38.6,7.5C818.9,527.8,814.8,526.4,811,523.8z"/>
		<path class="st0" d="M798.3,428c0.8,3.3,0.8,6.7,0.1,10C797.5,434.7,797,431.4,798.3,428z"/>
		<path d="M1065,173.4c-1.4-18.2,9.5-28,22.5-31.4c12.6-3.4,31.9,2.7,35.6,20.4c2.8,13.4,1.6,26-9.3,34.7
			c-17.3,13.8-37.6,8.7-46.9-9.7C1064.6,182.9,1065.1,178.1,1065,173.4z M1067.7,173.2c-1.5,18.9,13.3,29.3,25.1,28.6
			c18-1,28.5-10,29-30.4c0.4-15.2-9.7-26.3-23.4-27.4C1079.3,142.5,1066.3,155,1067.7,173.2z"/>
		<path d="M1221.8,224.9c-4.1,19.5-25.4,31.1-43.6,22.9c-9.6-4.3-15.2-12.3-16.3-23.4c-1-10.7,1.1-20,9-27.7
			c13.4-13.1,41.9-10.1,48.2,10.9c1,3.4,2.8,6.7,2.8,10.4C1221,220.4,1221,222.7,1221.8,224.9z M1191.7,192.1
			c-14.8-2-28.1,12.6-27.8,27.8c0.3,15.6,11.1,27.4,25.9,28c16.4,0.6,29-11.2,29.1-26.4C1218.9,206.8,1209.9,190.7,1191.7,192.1z"/>
		<path class="st0" d="M1221.8,224.9c-0.8-2.2-0.8-4.5,0-6.7C1223.2,220.5,1223.2,222.7,1221.8,224.9z"/>
		<path d="M920.1,797.8c0.3-0.3,0.7-0.6,1-0.9c7.2,0.4,14.3,2,21.5,1.9c14.2-0.1,28.4-0.1,42.4-2.7c0,0.5,0,1,0,1.5
			c-13.5,2.9-27.2,2.8-40.9,2.7C935.9,800.4,927.9,800.2,920.1,797.8z"/>
		<path d="M947.9,751.1c0.3,0,0.7-0.1,1-0.1c0.1,2,1.1,2.9,3.2,2.8c3.3-0.3,6.6-0.4,9.8-0.6c0.3,0.6,0.7,1.1,1,1.7
			c-4.5,1-9.4-1.3-13.8,1.2c-0.6-0.1-1.1-0.2-1.7-0.3c-5.7,0-11.4-0.5-17-1.1c-5.4-0.6-11.2-0.7-16.4-2.9c0.7-0.3,1.3-0.5,2-0.8
			c9.1,1.5,18.2,2.1,27.4,2.6C945.5,753.7,947.5,754,947.9,751.1z"/>
		<path class="st4" d="M895.9,776.7c-0.9,0-1.8,0-2.7,0c0.3-0.5,0.6-0.9,0.9-1.4c0.6,0,1.2,0,1.8,0.1
			C895.9,775.7,895.9,776.2,895.9,776.7z"/>
		<path class="st1" d="M895.9,776.7c0-0.5,0-0.9,0-1.4c0.4-8.2,0.8-16.4,1.1-24.6c0.1-2.5,0.5-3,3.2-2.1c4.5,1.5,9,3.2,13.9,3.2
			c5.2,2.2,11,2.3,16.4,2.9c5.6,0.6,11.3,1.1,17,1.1c0.1,12.1,0.2,24.2,0.3,36.2c0,1.4,0.1,2.7,1.3,3.5c0.4,0.6,0.7,0.5,0.7-0.2
			c-0.2-13.1,0.3-26.2-0.6-39.2c4.4-2.6,9.2-0.3,13.8-1.2c10.5-0.3,20.8-2,31.1-4.2c5.9-1.3,5.5-1.3,6,4.5
			c0.7,9.6,1.7,19.2,2.9,28.8c0.7,5.6,0,7.3-5.3,9c-4.2,1.3-8.5,2.3-12.7,3.4c-14,2.5-28.2,2.5-42.4,2.7c-7.3,0.1-14.3-1.6-21.5-1.9
			c-5.3-1.4-10.5-2.7-15.8-4.1c-2.5-0.7-4.9-1.6-7.3-2.4c-1.7-0.6-2.5-1.8-2.3-3.8C895.9,783.3,895.8,780,895.9,776.7z"/>
		<path class="st1" d="M746.2,908.6c-0.1,3.5,0.3,7.1-0.4,10.4c-0.6,3.1-0.7,6.4-1.1,9.6c-2.5-0.4-3.1-2.1-4.1-3.3
			c-8.8-10.4-17.4-20.9-26.2-31.4c-0.8-0.9-1.6-1.7-1.3-3c0,0,0,0,0,0c5.6-3.6,9.1-9.3,13.2-14.2c4.8-5.7,9.1-11.8,14.1-18.4
			c3.1,9.4,5.5,18.4,5.7,27.9c-0.2,0.5-0.4,1.1,0.3,1.4c1.4,6.2,1.2,12.3,0.1,18.5C745.6,906.8,746.1,907.7,746.2,908.6z"/>
		<path class="st4" d="M746.2,908.6c-0.2-0.9-0.6-1.8,0.4-2.4c0.8,0,1.1,0.5,1.1,1.2C747.7,908.3,747.1,908.7,746.2,908.6z"/>
		<path class="st4" d="M746.5,887.7c-0.7-0.3-0.5-0.9-0.3-1.4c0.6,0,1.3,0,1.3,0.8C747.5,887.3,746.9,887.5,746.5,887.7z"/>
		<path class="st4" d="M1072.9,525.9c-22.8,0.5-40.2-8.9-55.5-22.9c-12.4-11.3-23.8-23.7-34.7-36.6c-1.3-1.5-2.3-2.7-0.3-4.5
			c18.1-15.9,33.5-35,53.4-48.8c14.6-10.1,31-14.8,48.7-8c9.6,3.7,14.3,11.2,16.7,21.2c3.1,13-2.4,22.1-10.6,30.8
			c-5.7,6-5.7,6.5,0,12c9.1,8.7,12,19.4,10.3,31.6c-0.3,2.1-0.1,4.4-0.6,6.4c-2.9,11.6-10.5,17.9-22.8,18.6
			C1075.6,526,1073.6,525.9,1072.9,525.9z"/>
		<path class="st4" d="M860.9,519.8c-9.8,3.3-19.5,7.2-30.2,7.3c-6.6,0-12.9-1.1-18.7-4.2c-16.3-14.5-16.3-38.9,0-54
			c5-4.6,5.1-6.5-0.1-11c-12.1-10.4-15.2-25.1-8.9-39.2c5-11.2,14.9-15.7,26.6-16.5c17-1.1,31.1,6.1,43.7,16.6
			c6.5,5.4,12.7,11.2,19,17c8.9,8.2,16.8,17.6,26.4,25.1c1.8,1.4,3.9,3,1.3,5.6c-15,15.1-28.2,32.1-45.5,44.7
			C870.1,514.4,865.4,517,860.9,519.8z"/>
		<path class="st2" d="M1067.7,173.2c-1.4-18.2,11.7-30.7,30.7-29.2c13.8,1.1,23.8,12.2,23.4,27.4c-0.5,20.4-11,29.5-29,30.4
			C1081,202.5,1066.2,192.2,1067.7,173.2z M1109.9,171.2c0-9.9-6.6-17.3-15.5-17.1c-10.7,0.3-17.9,7.6-18,17.5
			c-0.1,11.1,6.7,17.4,16.9,18.3C1103,190.8,1109.9,182.4,1109.9,171.2z"/>
		<path class="st2" d="M1191.7,192.1c18.2-1.4,27.3,14.7,27.2,29.4c-0.1,15.2-12.7,27-29.1,26.4c-14.8-0.6-25.6-12.3-25.9-28
			C1163.5,204.7,1176.8,190.2,1191.7,192.1z M1192.6,203c-11.3,0-17.7,6-17.6,16.7c0,8.9,7.4,17.1,15.7,17.4
			c9.7,0.4,17.3-7.5,17.3-17.8C1208,208.3,1203,203,1192.6,203z"/>
		<path class="st3" d="M949.2,756.1c1,13.1,0.4,26.2,0.6,39.2c-0.3-0.2-0.6-0.1-0.7,0.2c-1.3-0.9-1.3-2.2-1.3-3.5
			c-0.1-12.1-0.2-24.2-0.3-36.2C948.1,755.8,948.6,756,949.2,756.1z"/>
		<path class="st4" d="M949.1,795.5c0.2-0.3,0.4-0.4,0.7-0.2C949.7,796,949.5,796.1,949.1,795.5z"/>
		<path d="M1109.9,171.2c0,11.2-6.9,19.6-16.6,18.8c-10.2-0.9-17-7.2-16.9-18.3c0.1-9.9,7.3-17.2,18-17.5
			C1103.3,153.9,1109.9,161.3,1109.9,171.2z M1108.1,171.5c0-8.5-6-15.4-13.4-15.5c-8.6-0.1-15.7,7-15.8,15.9
			c-0.1,8.6,6.8,16.5,14.9,16C1101.1,187.5,1108.2,182.9,1108.1,171.5z"/>
		<path d="M1192.6,203c10.3,0,15.4,5.3,15.4,16.3c0,10.3-7.6,18.1-17.3,17.8c-8.3-0.3-15.7-8.5-15.7-17.4
			C1175,209,1181.3,203,1192.6,203z M1191.1,234.2c9.3,0.1,15.7-6,15.9-15c0.1-7.7-6.7-14.8-14.3-15c-8.9-0.2-14.7,5.7-14.8,15
			C1177.7,228.8,1182.4,234.1,1191.1,234.2z"/>
		<path class="st3" d="M1108.1,171.5c0.1,11.4-7,16-14.3,16.4c-8.1,0.5-15-7.4-14.9-16c0.1-8.9,7.2-16,15.8-15.9
			C1102.1,156.1,1108.1,163,1108.1,171.5z"/>
		<path class="st3" d="M1191.1,234.2c-8.7-0.1-13.4-5.4-13.3-15c0.1-9.3,5.9-15.2,14.8-15c7.7,0.2,14.5,7.3,14.3,15
			C1206.8,228.3,1200.3,234.4,1191.1,234.2z"/>
	</g>
</g>
</svg>
