<?xml version="1.0" encoding="utf-8"?>
<!-- Generator: Adobe Illustrator 27.3.1, SVG Export Plug-In . SVG Version: 6.00 Build 0)  -->
<svg version="1.1" id="Layer_1" xmlns="http://www.w3.org/2000/svg" xmlns:xlink="http://www.w3.org/1999/xlink" x="0px" y="0px"
	 viewBox="0 0 1920 1080" style="enable-background:new 0 0 1920 1080;" xml:space="preserve">
<style type="text/css">
	.st0{fill:#8BDDF3;}
	.st1{fill:#FFFFFF;}
	.st2{fill:#0F0D10;}
	.st3{fill:#404040;}
	.st4{fill:#EF8EC4;}
</style>
<g>
	<g>
		<path class="st0" d="M1145,902.3l-0.1-0.4c0,0-0.4-0.1-0.4-0.1c-0.3-0.6-0.4-1.3-0.8-1.7c-10.9-13.2-19.2-27.9-24.8-44.1
			c-5.3-15.2-8.6-30.8-8.9-46.9c-0.2-14.1-0.6-28.2,1-42.3c0.5-3.9-0.5-8.1,2-11.9c2.8,1.6,5.6,3,8.3,4.7
			c10.8,6.8,21.6,13.6,32.2,20.6c3.3,2.2,5.4,2.2,7.6-1.4c2-3.4,4.7-6.4,7.1-9.6c13.3-17.3,26.5-34.5,39.8-51.7
			c2-2.6,0.9-3.7-1.3-5.5c-26.2-21.7-55.3-39.1-84.2-56.6c-13.3-8.1-13.1-7.3-4.2-20.1c16.8-24.1,31.7-49.1,36.4-78.9
			c2.2-13.7,3.8-27.2,3.6-41.2c-0.3-20.3-5.4-39.3-12.2-58.1c-5.6-15.4-13.7-29.2-24.2-41.7c-14.8-17.6-31.1-33.7-49.8-47.1
			c-14.3-10.2-29.8-18.1-46.7-23.4c-11.4-3.6-22.9-7.3-34.6-9.6c-8.5-1.7-17.1-3.6-25.6-3.9c-11.2-0.4-22.3-1.6-33.6-0.5
			c-15,1.4-29.6,3.7-44,8.1c-23.6,7.2-45.3,18.3-65.7,32.1c-18.9,12.7-36.2,27.2-50.2,45.4c-21.6,28-36,58.9-35.9,95.2
			c0,7.8-0.7,15.8,0.4,23.5c2.3,15,7.6,29.2,14.3,42.9c10.3,21.3,21.9,41.7,35.2,61.2c1.1,1.6,1.5,2.3-0.6,3.6
			c-22.7,13-45.2,26.5-66.4,42c-12,8.8-23.1,18.4-32,30.6c-3,4.1-2.5,6.9,0.7,9.6c8.8,7.4,15.4,16.8,23.7,24.6
			c3.3,3.1,6.7,5.9,9.5,9.4c5.1,6.3,11.2,11.6,16,18.2c1.3,1.7,3,2.9,5.5,1.2c5.8-3.9,11.6-7.8,17.6-11.2c6.8-3.8,12.9-9.1,20.9-11
			c1.1,10.4,2.6,20.4,3.2,30.5c0.7,11.2,0,22.4-1.8,33.6c-2.8,17.5-4.7,34.9-13.2,51.1c-7.7,14.5-16.2,28.2-26.5,40.8
			c-5.9,7.2-8.6,7.5-17.6,4.2c-3.6-1.3-6.6-3.7-9.8-5.7c-6.8-4-7.1-9.5-4.4-15c8-16.7,16.9-33.1,21.9-51.2
			c2.3-8.3,1.7-15.5-4.4-21.8c-3-3.1-5.7-6.4-8.8-9.4c-11.8-11.4-23.7-22.6-35.4-34c-8.5-8.2-16.8-16.6-25.2-24.9
			c-11.2-11.1-21.6-23-31.7-35c-1.7-2-2.3-3.5,0.1-5.8c14.3-14.2,25.9-30.5,34.7-48.6c5.1-10.7,7.9-22.2,10.3-33.7
			c1.2-5.8,0.3-6.4-5.4-5.3c-14.6,2.8-29.2,5.6-43.8,8.4c-1.2,0.2-2.7,1.6-3.6,0.3c-1-1.5,0.8-2.6,1.6-3.8
			c9.2-15.1,18.3-30.1,27.4-45.2c0.8-1.4,2.4-2.8,1.4-4.5c-1.1-2-3.6-1.3-5-0.8c-7.7,2.5-15.7,1.8-23.5,2.7
			c-13.4,1.5-26.6,3.6-39.6,7c-2.9,0.8-4.1-0.4-4.4-2.8c-1.1-10.5-2.9-20.9-2.8-31.4c0.1-13.1-0.6-26.1,0.6-39.3
			c1.5-16.4,4.4-32.4,8.7-48.2c7.2-25.9,18.9-49.7,33.3-72.2c19.8-30.9,44.8-57.6,72-82.1c19.4-17.4,40.3-32.9,61.7-47.7
			c2-1.4,3.4-2.2,6-0.3c2.9,2.3,6.5,4.2,10.1,5c16.4,3.9,32.6,8.8,49.7,8.9c14,0.1,27.6-1.5,41-5.5c24-7.1,43.1-22.2,60.7-39
			c7.4-7,14.5-9.4,23.8-8c10.9,1.6,22,1.7,32.9,2.6c13.3,1.1,26.5,2.6,39.6,4.4c15.5,2.1,30.9,5.3,45.9,9.8c13,3.9,26.1,7.7,39,12.2
			c12.1,4.2,23.6,9.8,35,15.5c11.8,5.9,23,12.7,34.2,19.5c18.5,11.4,35,25.4,50.8,40.3c16,15,31.3,30.7,44.3,48.3
			c20.4,27.6,32.9,59.1,45,90.9c1.1,3,0.7,5.1-2.4,7.1c-29.1,18.7-43.7,47.4-54.2,79c-3.4,10.1-5.2,20.6-6.7,31.1
			c-0.9,6.3-2,12.8-1.3,19.2c0.1,1.5,0,3.3,1.9,3.6c12.6,1.9,25.1,4.7,37.9,5.1c8,0.2,16.1,0,24.1,0c-0.7,3.9-1.3,7-1.7,10.2
			c-1.4,10.2-3.9,20.1-7.2,29.9c-5.2,15.4-12.7,29.8-19.9,44.3c-11.9,24-28.7,44.3-47.7,62.9c-5.7,5.6-11.7,10.8-17.2,16.4
			c-10.1,10.3-21,19.9-31.7,29.6c-6.2,5.6-11.6,12.1-15.1,19.5c-7,14.6-4.1,29.3,1.3,43.6c3.1,8.3,7.8,15.7,12.4,23.3
			c1,1.6,2.5,3.4,0.3,5.3c-5.9,4.8-11.8,9.7-18.5,13.4c-2.4,1.3-5.1,1.1-6.7-1.4C1153,908.6,1148.8,905.7,1145,902.3z M931,300
			c-0.1,0.4-0.6,0.6-0.1,1.2c0.5,0.5,0.8-0.1,1.2-0.1l0-0.1c-0.6,2.8,2,2.8,3.4,3.8c5.6,4.1,12.2,3.3,18.6,3.3
			c7.4,0.1,13.2-3.2,17-9.3c1.6-2.5,4.3-5.3,1.9-8.9c0-1.2,0-2.4,0-3.7c1.1-3.1-0.1-5.8-1.6-8.3c-0.8-1.2-0.9-3.6-3.5-2.7l0,0
			c1-2.2-1.1-2.6-2.2-3.4c-8-5.7-16.9-4.3-25.6-2.4c-2.3,0.5-5.7,1.1-6,4.8l0,0c-2.7-1.1-3.9,1-4.8,2.6c-3.4,5.7-5.1,14.9-0.8,21.5
			C929,299.1,929.2,300.9,931,300L931,300z M1157.4,614.1c-7.1,9.4-9.7,24.2-1.2,31.5c7.2,6.9,15.2,8.5,22.9,4.2
			c7-3.9,12.4-9.5,15.1-17.2c1.7-4.8,1.8-9.9,0.1-14.6c-5.5-15.1-20.9-18.5-33.2-7.5C1159.8,611.6,1158.6,612.9,1157.4,614.1z
			 M1056.4,301.2c-8,9.8-4.8,23.9,4.7,28.5c3,3,7,4.4,10.8,5.9c8.3,3.3,19.4,1.1,23.6-5.3c5.8-9.1,6.6-16.3-0.3-25.1
			c-3.6-4.6-8-8.2-13.3-10.2c-7.4-2.8-15.1-3.4-21.9,2.3C1058.4,298.3,1057.2,299.6,1056.4,301.2z M697.7,421
			c0.1,0.1,0.2,0.2,0.4,0.4c9.3,10.6,23.2,8.2,30.1-0.9c3.5-4.6,6.3-9.5,7.3-15.5c1.7-10.4-1.1-18.3-9.5-22.8
			c-6.3-3.4-13.1-3.2-21.6,4.3c-3.3,2.5-5.9,5.7-7.8,9.3C692,404.3,691.4,412.9,697.7,421z M1193.2,536.9c0,2.1,0.8,3,2.9,1.9
			c-1.1,2.4,1.4,2.3,2.2,2.7c5.8,2.6,11.5,2,16.6-1.8c7.1-5.2,9.6-12.7,10-21.1c0.2-4.9,0.4-10-1.6-14.6
			c-4.1-9.4-19.4-13.5-27.9-7.6c-0.6,0.4-1.6,0.9-0.4,1.8c-4-0.4-5,3-6.6,5.5c-4.6,7.2-4.3,15.5-3.2,23.3
			C1185.9,531,1187.2,536.3,1193.2,536.9z M701.9,538.9c4.9-9.9,4.4-20.2,0.9-30.2c-1.9-5.3-6.1-9.6-12.6-9.9
			c-8.8-3.5-20.7,2-23.1,11.1c-2.3,8.7-1.8,17.3,2.3,25.5C675.8,548.4,694.1,550.3,701.9,538.9z M706.3,640.9c0.2,2.9,1,3.7,3.9,3.9
			c-1.2,0.8-0.2,1.5,0.3,1.8c7.2,4.8,14.6,4.1,22,0.5c6.3-3.1,7.8-8.5,7.6-14.9c-0.1-2.2,0.1-4.3,0-6.5c-0.6-9.3-7.2-21.8-18.4-24.4
			c-7.4-1.7-17.3,1.2-20.4,6.8c-5.6,10.3-4.2,23.2,3.2,32.6C704.8,641.1,705.5,642.1,706.3,640.9z M1162,424.6
			c2.3,2.6,5.4,3.7,8.6,4.8c8.7,3,21.8-3.2,23.1-11.8c1.9-12.1-0.8-23.2-10.5-31.6c-5.8-5-12.7-5.5-19.6-2.8
			c-6.5,2.5-10.8,7.6-11.6,14.5c-1.1,9.5,1.8,18,8.3,25.2C1160.9,423.5,1161.5,424.1,1162,424.6z M798.1,304.1
			c-0.6-1.2-1.5-0.5-2-0.1c-9.2,8.4-13.1,20.8-3,31.7c3.4,3.6,7.7,6.8,12.5,6.1c9.7-1.3,18.4-5.5,24.8-13.3
			c7.4-8.9,4.8-23.7-4.8-29.6c-7.1-4.3-23-1.8-28.1,4.5C797.5,303.5,797.9,303.9,798.1,304.1L798.1,304.1z"/>
		<path class="st1" d="M519.1,883c-0.7-0.1-1.3-0.1-2-0.2c-1-1.8-3-0.9-4.4-1.4c-9.7-3.4-17.4-9.6-24.5-16.6c0,0,0.1,0.1,0.1,0.1
			c-0.3-1.3-0.8-2.5-2.1-3.1c0,0,0.1,0.1,0.1,0.1c-1-3.6-3.1-6.8-4.2-10.5c-2.8-9.7-4-19.4-2.1-29.4c0.1-0.7,0.1-1.3,0.2-2
			c1.8-1.1,1.2-3.2,1.7-4.8c3.9-11.9,11.6-20.8,21.3-28.2c0,0-0.1,0.1-0.1,0.1c6.3-2,12.7-4,19-6c1-0.1,2-0.2,2.9-0.3
			c6.6,0.5,13.1-0.4,19.7,1c14.8,3.2,29.5,6.4,43.4,12.7c1.6,0.7,3.2,0.5,4.6-0.8c2.6-2.3,5.2-4.5,7.8-6.8c0.2-0.3,0.4-0.6,0.5-0.9
			c2.2-0.8,3.8-2.5,5.4-4.1c0.2-0.3,0.4-0.6,0.6-0.9c2.6-1.2,4.5-3.2,6.5-5.1c0.2-0.3,0.3-0.6,0.5-0.9c2.3-0.8,3.8-2.6,5.5-4.1
			c0.2-0.3,0.4-0.6,0.5-0.9c2.2-0.8,3.8-2.5,5.4-4.1c0.5-0.6,1.1-1.2,1.6-1.9c2.3-0.7,3.8-2.6,5.5-4.1c0.2-0.3,0.3-0.6,0.5-0.9
			c2.3-0.8,3.8-2.5,5.4-4.1c0.2-0.3,0.4-0.6,0.6-0.9c2.5-1.1,4.5-2.9,6.2-5.1c0.3-0.3,0.6-0.6,0.8-0.8c2.2-1.5,3.6,0,5,1.4
			c5.3,5.7,10.7,11.3,16.1,16.9c11.7,12.1,24,23.5,36.6,34.6c3.7,3.2,2.6,4.8-0.4,7.2c-5.3,4.4-10.4,9-15.6,13.5
			c0,0,0.1-0.1,0.1-0.1c-0.7,0.4-1.5,0.7-2.1,1.2c-12.2,10.5-24.5,20.9-36.6,31.5c-2.8,2.5-6.7,5.2-4.9,9.9c1,2.6,0.4,5.3,0.9,7.8
			c1,4.6,0.2,9.4,1.8,13.8c0,0.6,0,1.2,0,1.9c-2,7.2-1.5,14.8-2.8,22.1c-1.4,7.9-2.5,15.9-7,23c-7.4,11.6-16.4,21-29.7,25.9
			c-7.7,2.8-15.6,1.8-23.4,2.2c-1,0-2-0.1-3-0.1c-6.9-1.1-13.5-3.5-20-6.1c0,0,0.1,0.1,0.1,0.1c-0.6-1.3-1.8-1.8-3.1-2.1
			c-0.2-0.3-0.4-0.6-0.7-0.9c-3.1-3-6.2-6.1-9.3-9.1c0,0,0.1,0.1,0.1,0.1c-0.6-1.3-1.2-2.7-1.9-4c-3.4-6.6-6-13.6-6.2-21
			c-0.4-10-0.6-20.1,1.9-29.9c0-0.7,0-1.4-0.1-2c0.1-0.7-0.2-0.9-0.9-0.9c-1,0-2.1,0-3.1,0c-2.3,0-4.6,0-6.9,0
			c-0.7-0.1-1.3-0.2-2-0.2C526.1,882.8,522.3,884.7,519.1,883z"/>
		<path class="st1" d="M1246.1,892.8c0-2.6,0-5.2,0-7.8c1.6-1.8,0.7-4,0.8-6c0-0.7,0-1.4,0-2.1c0.5-3.3,0.8-6.7,1.5-9.9
			c1.8-7.5,0.7-10.2-6.3-14.2c0,0,0.1,0.1,0.1,0.1c-1.8-2.6-4.2-4.7-7.1-6.1c0,0,0.1,0.1,0.1,0.1c-1.5-2.3-3.5-4-6.1-5.1
			c0,0,0.1,0.1,0.1,0.1c-1.5-2.3-3.5-4.1-6.1-5.1c0,0,0.1,0.1,0.1,0.1c-1.8-2.7-4.2-4.7-7.1-6.1c0,0,0.1,0.1,0.1,0.1
			c-1.5-2.3-3.5-4-6.1-5.1c0,0,0.1,0.1,0.1,0.1c-1.5-2.3-3.5-4-6.1-5.1c0,0,0.1,0.1,0.1,0.1c-1.5-2.4-3.5-4.1-6.1-5.1
			c-0.3-0.3-0.6-0.6-0.8-0.8c-1.6-2.2-3.6-4-6.1-5.1c0,0,0.1,0.1,0.1,0.1c0.2-1.5-3.5-1.8-1.2-3.9c7.7-7.2,15.3-14.6,23.2-21.6
			c10.8-9.6,21-19.8,30.6-30.5c2.6-2.9,4.5-4.9,8-1.6c0,0-0.1-0.1-0.1-0.1c2,1.7,3.5,4.1,6.1,5.1c0,0-0.1-0.1-0.1-0.1
			c1.6,1.4,2.8,3.5,5,4.2c0,0-0.1-0.1-0.1-0.1c2,1.7,3.5,4.1,6.1,5.1c0,0-0.1-0.1-0.1-0.1c1.7,1.5,3.5,2.9,5.2,4.4
			c0.2,0.2,0.5,0.3,0.7,0.5c1.8,1.4,2.8,3.6,5.2,4.2c0,0-0.1-0.1-0.1-0.1c3.4,3.4,7,6.5,11.1,9.1c0,0-0.1-0.1-0.1-0.1
			c2.2,1.7,3.5,4.7,6.7,5c3.9,5.7,4.6,5.7,9.9,2.5c2.3-1.4,5.1-1.8,7.7-2.7c1.8,0.6,3.1-0.7,4.7-1.1c9.7-2.1,19.3-4.8,29.1-6.6
			c10.5-1.9,20.3-0.9,30.4,1.7c6,1.5,11.3,4.5,16.8,7.2c7.3,6.4,11.7,14.9,15.9,23.5c0.7,5.8,2.2,11.7,2,17.5
			c-0.4,12.6-3.4,24.5-11.1,34.9c0,0,0.1-0.1,0.1-0.1c-1,1-2.4,1.7-2.8,3.2c-0.2,0.3-0.3,0.6-0.1,0.9c-9.5,6.2-19.4,11.7-31,13.1
			c-1,0-1.9,0-2.9,0c-3.5-0.1-7,0.2-10.5-0.2c-3.9-0.5-5.3,1.2-4.5,4.7c2,8.7,0.7,17.5,0.9,26.2c0.3,10.5-2.6,20-9,28.6
			c-12.4,16.8-30.9,19.7-49.3,17.1c-7.1-1-13.2-4.7-19.6-7.5c0,0,0.1,0.1,0.1,0.1c-0.9-1.6-2.3-2.6-4.1-3.1c0,0,0.1,0.1,0.1,0.1
			c-2.7-3.4-5.9-6.2-9.1-9.1c0,0,0.1,0.1,0.1,0.1c-0.2-0.5-0.3-1-0.6-1.4c-7.9-10.1-11.7-21.5-12.9-34.2
			C1247.3,900.5,1248.2,896.4,1246.1,892.8z"/>
		<path class="st1" d="M1250.4,275.1c0.2-0.3,0.4-0.6,0.6-0.9c2.2-0.8,3.8-2.5,5.3-4.1c1.1-0.2,1.6-0.8,1.7-1.9
			c3.7-1.9,2-5.3,1.7-7.8c-0.6-4.8-1.5-9.6-1.5-14.5c0-6-0.3-11.9-0.4-17.9c0.1-0.7,0.1-1.3,0.2-2c1.9-4.8,0.3-10.1,1.8-15
			c0.1-0.7,0.1-1.3,0.2-2c2.3-7.6,5.7-14.8,9.1-22c0,0-0.1,0.1-0.1,0.1c1.3-0.6,1.8-1.8,2.1-3.1c1.5-0.3,2.2-1.5,2.8-2.7
			c1.8-1.7,3.6-3.5,5.3-5.2c0.2-0.3,0.4-0.6,0.6-0.9c1.7-0.6,3.2-1.4,4.1-3.1c0,0-0.1,0.1-0.1,0.1c7.6-3.8,15.7-6.1,24-8.1
			c0.7-0.1,1.3-0.1,2-0.2c17.2-0.7,32.7,2.8,43.8,17.4c0,0-0.1-0.1-0.1-0.1c1.4,2.5,3,5,4,7.6c6.3,15.8,5.6,32.2,3.8,48.6
			c-0.4,3.4,0.4,4.4,2.9,4.4c6.4,0.1,12.7,1.5,19.1,2c21.9,1.8,38,17,40.4,39.2c1.8,17.2-0.3,34-13.3,47.3c0,0-0.1,0.1-0.1,0.1
			c-1.2,1.1-2.4,2.2-3.6,3.4c0,0,0.1-0.1,0.1-0.1c-10.6,8.5-22.7,12.2-36.3,11.3c-4.9-0.3-9.7-0.4-14.6-1c-0.7-0.1-1.3-0.1-2-0.2
			c-1.1-1.4-2.6-0.8-4-0.8c-0.7-0.1-1.3-0.1-2-0.2c-0.8-1.2-1.9-1-3-0.8c-0.7-0.1-1.3-0.1-2-0.2c-8.5-3.1-17.4-5.4-25.3-10.1
			c-2-1.2-3.9-1.1-5.9,0.5c-5.3,4.4-10.9,8.3-16.1,12.7c-10.7,8.8-21.2,17.8-31.8,26.7c-1.2,1-1.8,1.9-3.4-0.1
			c-3.7-4.7-7.7-9.1-11.7-13.5c-13.4-14.7-27.4-28.9-42.6-41.8c-1.3-1.1-1.6-1.9-1-3.2c6.9-4.2,12.5-10,18.6-15.1
			c3.3-2.7,6.9-5,9.2-8.7c2-0.4,3.2-1.8,4.5-3.2c0.2-0.3,0.4-0.6,0.5-0.9c2.2-0.8,3.8-2.5,5.3-4.1c1.1-0.2,1.6-0.8,1.7-1.9
			C1247.3,278.5,1248.8,276.7,1250.4,275.1z"/>
		<path class="st1" d="M571.1,166.2c0.7-0.1,1.3-0.1,2-0.2c3.5-1.5,7.6,0,11-1.8c1.3,0,2.6,0,3.9,0c3.4,1.6,7.2,1.4,10.7,2.2
			c10.1,2.3,19.5,6.1,27.2,13.3c0.2,0.8,0.7,1.3,1.5,1.5c1,2.2,2.9,3.5,4.4,5.2c0,0-0.1-0.1-0.1-0.1c6.2,9.2,10,19.1,11.6,30.3
			c2,14.1,1.3,27.9-0.9,41.8c-0.6,3.9-3.6,8.7,2.5,11.3c0.2,0.2,0.5,0.4,0.7,0.6c2.5,2,4.1,5.1,7.3,6.3c0,0.5,0.3,0.7,0.8,0.6
			c1.7,1.5,2.9,3.6,5.2,4.4c0.3,0.2,0.5,0.4,0.8,0.6c1.7,1.5,3,3.6,5.2,4.4c0.3,0.2,0.5,0.4,0.8,0.6c1.7,1.4,2.7,3.7,5.1,4.2
			c0,0-0.1-0.1-0.1-0.1c2,1.7,3.5,4.1,6.1,5.1c0,0-0.1-0.1-0.1-0.1c3.4,3.4,7,6.5,11.1,9.2c0,0-0.1-0.1-0.1-0.1c2.5,1.9,3,3.5,0,5.6
			c-2.7,1.9-4.7,4.7-7.2,6.8c-12,10.1-21.9,22.1-32.4,33.6c-5.1,5.6-10,11.2-15.1,16.9c-14-11.9-28-23.8-42-35.7
			c-1.5-1.3-2.8-2.2-4.9-1.2c-4.7,2.3-9.4,4.6-14.1,6.9c-9.6,2.5-19.2,5.1-29,6.8c-1,0.1-2,0.1-3,0.2c-8.3-0.5-16.7,0.5-24.9-1
			c-0.7-0.1-1.3-0.1-2-0.2c-4.3-2-8.7-4-13-6.1c0,0,0.1,0.1,0.1,0.1c-1.6-2.2-3.6-3.9-6.1-5.1c-0.3-0.3-0.6-0.6-0.8-0.8
			c-0.4-1.1-1.1-1.8-2.2-2.2c-0.3-0.3-0.6-0.6-0.8-0.8c-0.4-0.7-0.7-1.5-1.2-2.2c-8-10-11.5-21.3-11.2-34.1c0.1-4.6,0.7-9.1,1-13.7
			c0.1-0.7,0.1-1.3,0.2-2c2.4-5.3,4.7-10.7,7.1-16c0,0-0.1,0.1-0.1,0.1c1.6-0.9,2.5-2.5,3.1-4.1c2.1-1.1,3.7-2.7,4.8-4.8
			c1.7-0.6,3.2-1.4,4.1-3.1c0,0-0.1,0.1-0.1,0.1c4-1.7,8-3.4,12-5.1c0.7-0.1,1.3-0.1,2-0.2c1.1,0.1,2.3,0.4,3-0.8
			c0.7-0.1,1.3-0.1,2-0.2c5.1-0.3,10.1-1.1,15.2-0.9c7.5,0.3,9.8,0.2,6.9-10c-0.1-0.7-0.1-1.3-0.2-2c0-1.4,0.7-2.9-0.8-4
			c-0.1-0.7-0.2-1.3-0.2-2c0-3.3,0-6.6,0-9.9c0.1-0.7,0.1-1.3,0.2-2c1.6-1.5,0.8-3.3,0.8-5c0.1-0.7,0.1-1.3,0.2-2
			c2.5-6.6,3.8-13.6,7.1-20c0,0-0.1,0.1-0.1,0.1c1.4-0.6,1.8-1.8,2.1-3.1c0.3-0.2,0.6-0.4,0.8-0.5c3.1-3.1,6.1-6.2,9.2-9.3
			c0,0-0.1,0.1-0.1,0.1C562.3,169.7,566.7,168,571.1,166.2z"/>
		<path class="st2" d="M633,368.1c5-5.6,10-11.3,15.1-16.9c10.5-11.5,20.5-23.5,32.4-33.6c2.5-2.1,4.6-4.9,7.2-6.8
			c3-2.2,2.4-3.8,0-5.6c5.2,2.5,8.2-1.1,11.8-4c14.8-12.1,29.7-24.2,45.8-34.3c7.1-4.5,9-10,9.7-17.4c3.5-35.1,15-67.2,39-93.5
			c24.8-27.2,54.9-45.7,92.2-51.2c11.1-1.6,22.2-1.3,33.2-2.3c3.3-0.3,3.7,1.4,2.8,4.5c-4.6,15.8-9,31.6-13.5,47.4
			c-0.4,1.6-1,3.1-1.6,5.2c10.7-1,21-1.9,31.3-2.8c6.4-0.6,12.9-1.1,19.3-1.8c4.1-0.4,5.1,1.3,3.8,5c-3.1,8.2-5.7,16.7-9.5,24.6
			c-6.1,13.1-12,26.4-21.4,37.6c-0.4,0.5-0.4,1.2-0.6,1.8c-0.1,0.1-0.1,0.3-0.2,0.4c0.1-0.1,0.1-0.3,0.2-0.4c21,1.2,42,2.7,62.9,4.7
			c34.5,3.4,67.9,11.5,100.6,22.7c18.1,6.2,35.4,14.1,52.3,23.2c19.4,10.4,37.3,22.8,54.5,36.4c1.5,1.2,2.9,2.1,4.9,2
			c-0.5,1.4-0.3,2.1,1,3.2c15.1,13,29.1,27.1,42.6,41.8c4,4.4,8,8.8,11.7,13.5c1.6,2,2.3,1.1,3.4,0.1c10.6-8.9,21.1-17.8,31.8-26.7
			c5.3-4.4,10.9-8.3,16.1-12.7c2-1.7,3.9-1.7,5.9-0.5c7.9,4.7,16.7,7,25.3,10.1c-0.9,1.2-1.9,0.9-3.1,0.5c-7-2.5-14.4-4.1-20.9-8
			c-2.9-1.7-5.1-1.3-7.7,0.6c-14.8,11.2-28.7,23.6-43.1,35.3c-5,4-4.7,4.1-0.8,9.9c15.1,22.3,26.9,46.2,36.6,71.3
			c2.3,6,4.8,12,6.9,18.2c1,2.9,2.1,3.8,4.9,2c23.2-14.4,49.4-18.6,75.9-21.7c9.7-1.1,19.4-2.4,29.1-3.7c1.2-0.2,2.3-0.3,3.3,0.6
			c1.3,1.3,0.2,2.5-0.3,3.6c-7.4,14.5-14.8,29.1-22.2,43.6c-0.5,1-1.3,1.9-1,3.7c11.9-2.1,23.7-4.2,35.5-6.2c5.7-1,11.4-2,17.1-3.1
			c1.2-0.2,2.3-0.4,3.2,0.6c0.9,1.2,0.9,2.5,0.1,3.7c-8.5,13.5-14.3,28.5-22.8,42c-9.4,14.9-18.8,29.8-30.9,42.7
			c-17.7,18.9-39.5,30.6-65.2,34.5c-7.9,1.2-15.7,2.6-23.6,2.9c-3.2,0.1-3.4,2.4-3.7,4.4c-3,27.9-14,53.2-26.5,77.9
			c-8.7,17.2-18.8,33.7-31.9,48c-2.8,3.1,0.5,4.7,0,7c-3.4-3.3-5.4-1.3-8,1.6c-9.6,10.7-19.8,20.9-30.6,30.5
			c-7.9,7-15.5,14.4-23.2,21.6c-2.3,2.1,1.4,2.4,1.2,3.9c-1.7,0.2-3.2-1.4-5.1,0.2c-13,10.7-21.6,23.5-19.9,41.1
			c1.3,13.6,6.2,26,13.4,37.7c7,11.3,8.7,9.6-2.9,18.9c-4,3.2-8.2,6.2-12.7,8.8c-3.1,1.7-5.8,1.7-8.1-0.8c-4-4.2-10.2-6.6-10.8-13.5
			c3.8,3.4,8,6.3,10.8,10.7c1.5,2.4,4.3,2.7,6.7,1.4c6.7-3.7,12.6-8.6,18.5-13.4c2.3-1.9,0.7-3.7-0.3-5.3c-4.5-7.6-9.3-15-12.4-23.3
			c-5.4-14.4-8.2-29.1-1.3-43.6c3.6-7.4,8.9-13.9,15.1-19.5c10.7-9.7,21.6-19.2,31.7-29.6c5.5-5.7,11.6-10.9,17.2-16.4
			c19-18.7,35.8-39,47.7-62.9c7.2-14.5,14.7-28.9,19.9-44.3c3.3-9.7,5.8-19.7,7.2-29.9c0.4-3.2,1.1-6.3,1.7-10.2
			c-8.1,0-16.1,0.2-24.1,0c-12.8-0.4-25.3-3.2-37.9-5.1c-1.9-0.3-1.8-2-1.9-3.6c-0.6-6.5,0.4-13,1.3-19.2c1.5-10.5,3.3-21,6.7-31.1
			c10.5-31.5,25.1-60.3,54.2-79c3.1-2,3.6-4.1,2.4-7.1c-12-31.8-24.6-63.3-45-90.9c-13-17.6-28.3-33.2-44.3-48.3
			c-15.8-14.9-32.3-29-50.8-40.3c-11.2-6.9-22.4-13.6-34.2-19.5c-11.5-5.8-23-11.3-35-15.5c-12.9-4.5-25.9-8.3-39-12.2
			c-15-4.5-30.4-7.7-45.9-9.8c-13.1-1.8-26.3-3.3-39.6-4.4c-11-0.9-22-1-32.9-2.6c-9.2-1.3-16.4,1-23.8,8
			c-17.6,16.8-36.6,31.9-60.7,39c-13.4,4-27.1,5.6-41,5.5c-17.1-0.2-33.3-5-49.7-8.9c-3.6-0.9-7.2-2.8-10.1-5c-2.5-2-4-1.1-6,0.3
			c-21.4,14.8-42.4,30.3-61.7,47.7c-27.2,24.5-52.1,51.2-72,82.1c-14.4,22.4-26.2,46.2-33.3,72.2c-4.4,15.9-7.2,31.8-8.7,48.2
			c-1.2,13.1-0.5,26.2-0.6,39.3c-0.1,10.5,1.7,20.9,2.8,31.4c0.3,2.4,1.5,3.6,4.4,2.8c13-3.4,26.2-5.5,39.6-7
			c7.8-0.9,15.8-0.2,23.5-2.7c1.4-0.5,3.9-1.2,5,0.8c1,1.7-0.6,3.1-1.4,4.5c-9.1,15.1-18.3,30.1-27.4,45.2c-0.7,1.2-2.6,2.3-1.6,3.8
			c0.9,1.3,2.3-0.1,3.6-0.3c14.6-2.9,29.2-5.6,43.8-8.4c5.7-1.1,6.6-0.5,5.4,5.3c-2.4,11.5-5.2,23-10.3,33.7
			c-8.8,18.2-20.4,34.4-34.7,48.6c-2.3,2.3-1.7,3.8-0.1,5.8c10.1,12.1,20.5,23.9,31.7,35c8.4,8.3,16.7,16.7,25.2,24.9
			c11.8,11.4,23.7,22.6,35.4,34c3.1,3,5.9,6.3,8.8,9.4c6.1,6.4,6.6,13.6,4.4,21.8c-4.9,18.1-13.9,34.5-21.9,51.2
			c-2.6,5.5-2.3,11,4.4,15c3.2,1.9,6.2,4.3,9.8,5.7c9,3.3,11.7,3,17.6-4.2c10.3-12.6,18.8-26.3,26.5-40.8
			c8.6-16.2,10.5-33.6,13.2-51.1c1.8-11.2,2.5-22.4,1.8-33.6c-0.7-10.1-2.1-20.2-3.2-30.5c-8.1,1.9-14.1,7.2-20.9,11
			c-6.1,3.4-11.9,7.3-17.6,11.2c-2.5,1.7-4.2,0.6-5.5-1.2c-4.8-6.6-10.9-11.9-16-18.2c-2.8-3.5-6.3-6.4-9.5-9.4
			c-8.3-7.8-14.9-17.2-23.7-24.6c-3.2-2.7-3.8-5.5-0.7-9.6c8.9-12.1,20-21.8,32-30.6c21.2-15.5,43.6-29,66.4-42
			c2.1-1.2,1.7-2,0.6-3.6c-13.3-19.5-24.9-40-35.2-61.2c-6.6-13.7-12-27.9-14.3-42.9c-1.2-7.7-0.4-15.6-0.4-23.5
			c-0.1-36.3,14.2-67.1,35.9-95.2c14-18.1,31.3-32.6,50.2-45.4c20.4-13.8,42.1-24.9,65.7-32.1c14.4-4.4,29-6.7,44-8.1
			c11.3-1.1,22.4,0.1,33.6,0.5c8.6,0.3,17.2,2.1,25.6,3.9c11.8,2.4,23.2,6,34.6,9.6c16.8,5.4,32.4,13.2,46.7,23.4
			c18.7,13.4,35.1,29.5,49.8,47.1c10.4,12.5,18.6,26.3,24.2,41.7c6.8,18.8,11.9,37.8,12.2,58.1c0.2,14-1.5,27.5-3.6,41.2
			c-4.7,29.8-19.5,54.9-36.4,78.9c-8.9,12.8-9.1,12,4.2,20.1c28.9,17.5,58,34.9,84.2,56.6c2.2,1.8,3.3,2.9,1.3,5.5
			c-13.3,17.2-26.6,34.5-39.8,51.7c-2.4,3.1-5.1,6.2-7.1,9.6c-2.2,3.7-4.2,3.6-7.6,1.4c-10.6-7-21.4-13.8-32.2-20.6
			c-2.6-1.7-5.4-3.1-8.3-4.7c-2.5,3.8-1.5,8-2,11.9c-1.6,14.1-1.2,28.2-1,42.3c0.3,16.1,3.6,31.7,8.9,46.9
			c5.6,16.2,13.9,30.9,24.8,44.1c0.4,0.5,0.5,1.2,0.8,1.7c-2.5,0.6-3.6-1.4-4.8-2.8c-15-18.1-23.7-39.1-28.6-61.8
			c-1.1-5.2-2.5-4.7-6.3-2.9c-21,10.1-42,20.2-64.9,25.1c-6.2,1.3-12.3,2.5-18.5,3.6c-2.6,0.5-4.1,1.5-4.7,4.6
			c-3.2,14.7-8,28.9-17.6,40.9c-12.6,15.6-28.4,25.4-48.9,27.6c-17.9,1.9-34.5-1.1-49.4-11c-13.1-8.7-22.7-20.8-29.8-34.8
			c-4.1-8-7.6-16.2-10.2-24.8c-1-3.2-3.7-3.6-6.2-4.2c-11.3-2.8-22.1-7.3-32.5-12.5c-11.3-5.7-22-12.4-32.9-18.8
			c-4.4-2.6-4.6-2.5-5.2,2.5c-2.5,20-10.2,38.1-21,54.9c-5.8,8.9-11.7,17.8-18.3,26.1c-6.1,7.7-11.6,9.1-20.5,4.9
			c-4.5-2.1-9.1-4.2-12.8-7.7c-5.3-5-6.3-9.5-3.2-16.1c4.1-8.7,8.1-17.5,12.6-26.1c4-7.6,6.3-15.7,9.1-23.7c3-8.7,1.3-16.3-5.2-22.8
			c-4.5-4.5-9-8.9-13.3-13.5c-1.9-2-3.4-2-5.5-0.2c-4.4,4-9.1,7.8-13.6,11.7c-1.3,1.2-2.6,2.1-4.4,1.7c5.2-4.5,10.3-9.1,15.6-13.5
			c2.9-2.4,4-4,0.4-7.2c-12.6-11.1-24.9-22.5-36.6-34.6c-5.4-5.6-10.7-11.3-16.1-16.9c-1.4-1.5-2.7-3-5-1.4c0.3-1.8,0.6-3.3-1.1-4.9
			c-7.1-6.8-13.3-14.4-19.3-22.2c-2.1-2.7-3.8-2.8-6.4-0.7c-21.3,17.6-46.7,25-73.3,28.5c-21,2.8-41.8,1.2-61.6-7.1
			c-4.3-1.8-8.2-4.3-12.4-6.4c-1.9-0.9-2.1-2.4-1.7-4.2c3.2-17.6,6.1-35.3,12.7-52.1c13-33.4,33.4-60.3,66.1-76.7
			c7.6-3.8,15.2-7.6,23.3-10.1c2.6-0.8,3-2.2,2.7-4.3c-0.8-8.1-1.6-16.2-2.3-24.3c-1.3-15.4-0.9-30.9-0.1-46.3
			c0.8-15,3.1-29.7,6.9-44.1c9.8-37.2,27.7-70.4,50.8-100.9C631.4,371,632.2,369.5,633,368.1z M931.9,600.8
			c-7.8,0.1-12.9,1.3-18.1,2.1c-25,3.7-49.4,9.7-73.3,17.9c-25.7,8.9-49.8,21.3-73.2,35.1c-16.4,9.7-32.3,19.9-47.6,31.2
			c-11.3,8.3-22,17.2-30.3,28.8c-2,2.8-1.9,4.4,0.5,7c14,14.7,28.5,29,41.9,44.3c7.9,9.1,8,9.1,18,2.7c15.5-9.8,30.9-19.8,47.5-27.5
			c20-9.3,40.7-16.7,61.8-23.3c26.1-8.1,52.5-14.3,80.1-13.2c1,0,2,0.1,3,0c15.2-2.6,30.3-0.3,45.4,1.3c11.5,1.2,22.7,4.6,33.9,7.6
			c18,4.8,35.8,10.4,52.9,17.6c23.7,10,45.9,22.8,67.3,36.8c4,2.6,7.6,5.7,12,8c3.2,1.7,4.3,0.9,6.2-1.6
			c14.3-19.2,28.6-38.4,43.4-57.2c2.6-3.4,2.3-4.5-0.7-6.6c-8.7-6.2-17-12.8-25.8-18.9c-21.9-15.3-45-28.8-67.8-42.8
			c-10.8-6.7-21.5-13.6-33.2-18.9c-5.8-2.6-11.8-4.7-17.2-7.7c-11.9-6.5-24.6-9.9-37.5-13.4c-10.6-2.9-21.4-4.5-32.2-6.3
			c-12.4-2.1-24.7-2.9-37.2-3.7C944.3,599.6,936.9,599.8,931.9,600.8z M1040.8,612.5c10.6,4.4,20.4,8.4,29.9,13.2
			c2.3,1.2,4.5,0.8,6.6-2c10.5-14.1,17.3-30.2,24.8-45.9c6.6-13.7,10.1-28.2,11.9-43.2c2-17.3,0.2-34.1-4.7-50.9
			c-4.2-14.3-9.6-28-19-39.6c-20.8-25.6-45.8-45.5-76.9-57.6c-18.8-7.4-38.2-10.7-58.2-11.6c-7.2-0.3-14.2,1.5-21.3,1.1
			c-8.2-0.5-16.2,0.6-24,2.5c-32.7,7.8-62.8,20.5-87.6,44.3c-17,16.4-31.2,34.5-39.8,56.6c-5.3,13.6-5.3,27.9-5.5,42.3
			c-0.1,11.8,2.9,22.8,6.6,33.5c4,11.5,9.4,22.6,15,33.5c6.1,11.8,13.5,22.9,21.1,33.9c1.4,2.1,2.6,2.3,4.9,1.4
			c9.3-3.8,18.6-7.4,28.3-10c3.1-0.8,2.6-1.9,1-3.5c-3.4-3.4-6.8-6.8-10.3-10.2c-6.7-6.4-13.5-12.8-20.1-19.3
			c-2.3-2.3-3.1-4.2,0.4-7c3.1-2.5,6-5.5,9-8.2c6.7-5.9,13.2-12,19.6-18.2c9.7-9.4,20-18.1,30.3-26.8c3.2-2.7,3.4-4,0-6.9
			c-20-16.6-39.7-33.4-59.7-50c-3.5-2.9-3.5-4.8-0.1-7.8c18.4-15.7,36.6-31.5,54.8-47.4c2.3-2,3.8-2.2,6.2,0.1
			c18.3,17.2,36.8,34.2,55,51.5c3.2,3,5.2,2.8,8.3,0.1c19.4-16.7,39-33.1,58.4-49.9c3.5-3.1,5.5-2.6,8.6,0.4
			c17.3,16.6,34.7,33.2,52.2,49.5c3.4,3.1,3.1,4.8-0.1,7.8c-17.5,15.9-34.7,32.1-52.2,48c-2.9,2.7-2.6,3.8,0.1,6.3
			c18.7,17.2,37.3,34.6,56,51.9c4.7,4.4,4.8,4.4,0.3,8.8C1060.7,592.8,1051,602.4,1040.8,612.5z M1066,464.6
			c-7.2-6.8-14.4-13.6-21.5-20.5c-10.6-10.1-21.2-20.2-31.5-30.5c-2.9-2.9-4.5-2.3-7.2,0.2c-7.7,7-15.6,13.6-23.5,20.3
			c-12.2,10.3-24.5,20.4-36.6,30.9c-2.6,2.3-4.1,2-6.2,0c-5.6-5.3-11.3-10.5-16.9-15.8c-13.1-12.3-26.2-24.7-39.1-37.1
			c-2.4-2.3-4.1-1.9-6.2,0.1c-3.9,3.6-7.8,7.2-11.8,10.6c-13.4,11.5-26.8,22.9-40.2,34.4c-2,1.7-3,3.1-0.2,5.4
			c8.3,6.7,16.4,13.7,24.5,20.6c12.1,10.2,24.1,20.4,36.2,30.5c3.9,3.2,3.9,4.4,0.1,7.7c-5.4,4.6-10.5,9.6-16,14.1
			c-6.5,5.3-12,11.5-18.5,16.9c-8.8,7.3-16.8,15.5-25.2,23.1c-1.9,1.7-1.9,2.8-0.1,4.6c10.3,10,20.4,20.1,30.6,30.2
			c1.5,1.5,2.8,2.1,5.2,1.3c11.9-3.9,24.2-6.2,36.4-8.7c4.2-0.9,9,0.2,12.4-3.4c3.7-3.8,7.1-7.8,10.7-11.7
			c6.4-7,12.8-13.9,19.1-20.9c1.9-2.2,3.9-2.6,5.9-0.4c10.1,11,22.2,20,30.7,32.4c0.7,1.1,1.8,1.2,3,1.3c18.4,1.4,36.2,5.8,53.8,11
			c2,0.6,3.6,0.9,5.5-1c9.3-9.6,18.7-19,28.3-28.3c2.3-2.2,1.9-3.2-0.1-5.4c-4.6-5.3-10.4-9.2-15.3-14.2c-7.3-7.4-15-14.7-23-21.4
			c-6.8-5.7-12.6-12.5-19.5-18c-3.4-2.7-2.1-5.3,0.4-7.3c10.2-8.2,19.3-17.5,29-26.2C1048.4,481.1,1057.1,472.8,1066,464.6z
			 M930.4,333.1c-15.3,1.2-30.3,4.1-44.8,8.8c-15.7,5.1-30.6,12.1-45,20.3c-25.7,14.8-49.1,32.4-67.4,56.2
			c-20.8,27.1-34.8,56.8-34.9,91.7c-0.1,10.8-0.6,21.6,1.8,32.1c1.8,7.7,4.6,15,7.6,22.3c10.8,26.1,24.8,50.4,40.9,73.6
			c0.9,1.3,1.1,1.8,2.8,0.9c7.9-3.9,15.9-7.7,24-11.3c2.7-1.2,2.9-2.3,1.2-4.7c-11-15.6-20.7-31.9-28.5-49.4
			c-8.1-18-13.8-36.3-13.8-56.2c-0.1-11.9,0.6-23.6,4.4-35c10.8-32.5,32.8-56.3,59.3-76.4c19.5-14.7,42.3-22.8,65.7-29
			c11.7-3.2,23.8-3.6,35.9-4.4c17.1-1,34.1-0.2,50.7,3.8c15.8,3.8,31,9.5,45.2,17.6c20.8,11.9,39,26.9,54.2,45.3
			c17.5,21.2,25.2,46.4,27.4,73.4c1.2,14.7-0.5,29.4-4.4,43.3c-7,25.1-18.6,48.4-34,69.6c-1.7,2.3-1.7,3,0.7,4.1
			c8.4,3.9,16.2,8.9,24,14c2.7,1.7,4.8,1.3,6.7-1.4c13.2-19.2,26.7-38.3,34.7-60.5c6.2-17.2,9.5-35.1,11.2-53.2
			c1.3-14.3-0.8-28.5-3.9-42.5c-4.4-19.8-11.2-38.5-22.1-55.5c-11.8-18.3-28-32.7-43.6-47.5c-13-12.3-28.3-21.3-44.4-29
			c-12.6-6-25.9-9.9-39.3-13.5c-14.6-3.9-29.6-6-44.7-7.4C948.8,332.2,939.6,332.3,930.4,333.1z M964.9,866.9c2.8,0,5.7,0.3,8.5-0.1
			c14.9-1.9,29.8-3.6,44.6-5.9c19.1-3,37.6-7.8,55.4-15.3c11.1-4.7,22-10.1,33-15c2.9-1.3,2.9-3.4,2.5-5.7c-1.3-7.6-1.8-15.3-1.8-23
			c0-8-0.6-16,0-24c0.6-7.7,1.6-15.3,1.9-23.1c0.1-2-0.6-3-2.3-3.8c-9.6-4.7-18.8-10.1-28.7-14.3c-19.6-8.5-39.8-15.1-60.4-20.7
			c-15-4-30.4-7-45.9-8.1c-22.3-1.6-44.8-0.7-66.9,2.2c-16.7,2.2-32.7,7.6-48.8,12.6c-23.6,7.5-46.8,15.8-68.6,27.8
			c-2.4,1.3-3.8,2.5-3.5,5.6c1.1,11.1,2.2,22.2,2.9,33.4c0.5,8.6,0.4,17.2-1.6,25.6c-1.6,6.8-0.5,9.5,5.8,12.9
			c2.6,1.4,5,3.1,7.6,4.6c14.7,9,29.8,17.2,46.1,22.9c23.8,8.3,48.6,11.5,73.8,11.7C934,867.5,949.5,867.7,964.9,866.9z
			 M819.4,277.2c6.2-0.6,11.5-0.3,16.8-1c18.5-2.5,35.4-8.8,51-19.1c28.6-18.8,50.9-42.7,63.2-75.1c2.7-7.1,5.4-14.1,8-21.2
			c0.4-1.1,1.8-3.7-0.8-3.1c-3.5,0.7-6.9,0.2-10.3,0.6c-12.1,1.4-24.2,2.8-36.3,3.7c-2.3,0.2-5.5,2.5-6.7,0.1
			c-0.9-1.8,0.7-4.9,1.5-7.4c4.4-15.3,8.9-30.6,13.2-45.9c0.4-1.6,1.4-3.6-1.9-3.6c-14.6,0.2-29.1,1-43.3,4.6
			c-29.1,7.2-53.6,22.6-74.1,44.1c-17,17.9-30,38.6-36,62.9c-2.9,11.6-5.1,23.4-6.7,35.3c-1.6,11.9-2.2,10.5,7.9,14.6
			C782.6,273.9,801.3,276.7,819.4,277.2z M1452.6,492c-1.8,0-3.4-0.2-5,0c-13.8,2.4-27.5,4.8-41.2,7.4c-3.1,0.6-7.4,1.8-9-0.1
			c-2.2-2.6,1-6,2.4-8.8c0.2-0.4,0.3-0.9,0.6-1.3c7.8-11.8,12.9-25,19.8-37.3c0.9-1.7,0-3.1-1.3-2.6c-3.3,1.3-6.6,0.2-9.8,0.9
			c-11.1,2.3-22.4,2.8-33.5,4.6c-12.2,2-24.3,3.8-35.9,8.3c-23.4,9-44,22.2-59.3,42.3c-15,19.7-24,42.3-29.5,66.3
			c-2.5,10.7-3.9,21.6-4,32.6c0,2.2,0.1,4.1,2.6,4.5c8.9,1.4,17.7,3.5,26.6,4c19.2,1.1,38.3,0.5,57.4-2.6
			c29.4-4.7,54-17.5,72.7-40.7c16-19.8,29.9-40.9,39.8-64.5C1447.8,500.7,1451.5,497.3,1452.6,492z M524.7,747.1
			c13,0.6,21.9-0.2,30.7-2.2c22.6-5,44.7-11.2,62.5-26.8c19.2-16.8,33.9-37,43.9-60.5c3.6-8.6,5.7-17.7,7.4-26.9
			c0.5-2.6-0.1-3.1-2.5-2.6c-7.3,1.5-14.6,2.9-21.9,4.4c-8.8,1.8-17.6,3.6-26.4,5.3c-1.3,0.3-3.2,0.8-4.1-0.6
			c-0.8-1.3,0.7-2.4,1.4-3.5c4.1-6.8,8.4-13.5,12.5-20.3c5.5-8.9,10.9-17.9,16.3-26.8c0.5-0.8,1.3-1.6,0.9-2.7
			c-0.4-0.8-1.2-0.7-2.1-0.6c-18.9,1.5-37.7,3.2-56.2,7.6c-43.4,10.4-76.2,34.1-95.7,75c-4.9,10.2-9.3,20.6-12,31.5
			c-2.5,10.2-4.3,20.5-6.2,30.8c-0.4,2-0.9,4.6,1.7,5.7c6.6,2.9,12.6,6.9,19.6,8.9C505.8,746.2,517.1,747.2,524.7,747.1z
			 M1004.8,894.2c-1.3-0.2-2,0-2.8,0.2c-10.8,3.7-21.8,6.7-33.1,7.3c-15.8,1-31.7,0.9-47.6,0.3c-13.9-0.6-27.4-2.9-40.9-6.1
			c-0.8-0.2-1.7-1.3-2.6-0.2c-0.8,1,0,2,0.5,2.6c6.3,8.9,13.4,17.1,22.3,23.6c18.8,13.8,40,14.8,61.3,9.2
			C981.5,926,995.7,912.8,1004.8,894.2z M891.2,868.7c2.3,8.2,3.8,16.1,5.6,23.9c0.8,3.6,2.4,4.9,5.1,5.3
			c12.4,1.7,24.9,2.5,37.5,2.2c2.5-0.1,3.7-0.9,3.6-3.5c-0.1-7.8-0.1-15.6,0-23.5c0-2.1-0.5-2.9-2.8-2.9
			C924,870,907.8,870.5,891.2,868.7z M956.2,900c10.3-0.2,20.4-1.9,30.5-4c1.6-0.3,2.2-0.7,2.4-2.3c0.7-7.6,1.4-15.2,2.9-22.7
			c0.4-2-0.2-2.8-2.5-3c-4.2-0.4-8.1,1.2-12.2,1.1c-9.6-0.2-19.1,1.7-28.7,1c-1.9-0.1-2.8,0.4-2.6,2.5c0.6,5.5-1.2,10.7-1,16.2
			C945.3,899.9,945,899.9,956.2,900z M973.9,599.2c-0.1-1.3,0-1.8-0.2-2c-9.3-9.5-18.7-18.9-28-28.3c-1.9-1.9-2.8-0.5-4,0.7
			c-4.7,5.1-9.5,10.3-14.2,15.4c-4.2,4.6-8.3,9.2-12.5,13.9C934.8,597,954.2,596,973.9,599.2z M863.1,864.2c1.4,7.7,5.5,14,8,21
			c1.9,5.4,5.9,7.8,11.3,8.5c2.4,0.3,4.8,0.8,7.2,1.4c5.1,1.3,5.7,0.8,4.4-4.4c-1.6-6.6-3.4-13.1-4.7-19.7c-0.5-2.6-1.5-2.9-3.8-3.2
			C878.1,866.9,870.8,865.5,863.1,864.2z M991.5,893.6c8.8,0.6,15.9-3.8,18.4-11.5c1.5-4.6,2.6-9.2,4-13.9c0.6-2.2,0.2-3.6-2.5-3.3
			c-3.1,0.4-6.2,0.9-9.3,1.1c-7.6,0.5-6.9,0.7-8,8C993.1,880.4,992.4,886.9,991.5,893.6z"/>
		<path class="st2" d="M1410.5,330.5c13-13.3,15.2-30.1,13.3-47.3c-2.4-22.2-18.5-37.4-40.4-39.2c-6.4-0.5-12.6-1.9-19.1-2
			c-2.5,0-3.2-1.1-2.9-4.4c1.8-16.4,2.5-32.8-3.8-48.6c-1.1-2.7-2.7-5.1-4-7.6c2.7-0.2,3.3,2.1,4.1,3.7c5.7,11.9,8,24.5,6.5,37.6
			c-0.6,5.3,0.2,10.6-0.7,15.9c-0.4,2.5,2.4,1.5,3.8,1.6c9.9,0.7,19.9,1.4,29.3,4.8c17.8,6.5,26.5,20.2,29.3,38.2
			c1.8,11.1,0,22-3.7,32.6c-1.9,5.5-5.6,9.7-9,14.2C1412.5,330.9,1411.5,331.1,1410.5,330.5z"/>
		<path class="st2" d="M1274,951.7c6.4,2.8,12.5,6.5,19.6,7.5c18.4,2.6,36.9-0.3,49.3-17.1c6.4-8.7,9.3-18.1,9-28.6
			c-0.2-8.7,1.1-17.5-0.9-26.2c-0.8-3.5,0.6-5.2,4.5-4.7c3.4,0.4,7,0.2,10.5,0.2c-2.1,3.9-5.7,2.1-8.3,1.5c-4.8-1-5,0.7-4.3,4.6
			c2.1,12.9,2.5,25.9-1,38.4c-4.4,15.9-17.8,31-37.4,33.7c-13.2,1.8-25.4,0.1-37.2-5.9C1276.2,954.5,1274,954.2,1274,951.7z"/>
		<path class="st2" d="M584.1,961c7.8-0.4,15.7,0.7,23.4-2.2c13.3-4.9,22.3-14.3,29.7-25.9c4.6-7.1,5.6-15,7-23
			c1.3-7.3,0.8-14.9,2.8-22.1c2.1,2.1,1.2,4.8,0.9,7.1c-1,7.2-1.1,14.5-2.8,21.6c-5.2,21.8-17.8,37-39.3,44.4
			c-6.3,2.2-12.7,1.9-19.2,1.8C585.3,962.8,584.3,962.5,584.1,961z"/>
		<path class="st2" d="M1395.9,790c-5.5-2.7-10.8-5.6-16.8-7.2c-10-2.6-19.8-3.6-30.4-1.7c-9.8,1.8-19.4,4.5-29.1,6.6
			c-1.6,0.3-2.9,1.7-4.7,1.1c0-1.6,1.2-1.7,2.3-2.1c15.7-5.7,31.8-9.3,48.6-8.6c9.5,0.4,18.7,2.6,26.9,7.7
			C1394.4,786.9,1395.9,787.8,1395.9,790z"/>
		<path class="st2" d="M600.6,787c-2.6,2.3-5.2,4.5-7.8,6.8c-1.4,1.3-3,1.5-4.6,0.8c-13.9-6.3-28.6-9.5-43.4-12.7
			c-6.6-1.4-13.1-0.5-19.7-1c0.7-2.7,2.9-1.7,4.5-1.8c19.5-0.7,37.6,4.7,55.3,12.1c3.6,1.5,6.2,1.7,9.2-1.1
			C595.8,788.5,597.6,786.3,600.6,787z"/>
		<path class="st2" d="M646.9,886c-1.6-4.5-0.7-9.3-1.8-13.8c-0.6-2.5,0-5.1-0.9-7.8c-1.7-4.7,2.1-7.4,4.9-9.9
			c12.1-10.6,24.4-21.1,36.6-31.5c0.6-0.5,1.4-0.8,2.1-1.2c-1.7,5.9-7.5,8-11.5,11.7c-8.9,8.4-18.4,16.2-27.7,24.2
			c-2.4,2.1-2.6,4.4-2.4,7.5C646.9,872,649.8,879,646.9,886z"/>
		<path class="st2" d="M645,269.6c-6.1-2.5-3.2-7.4-2.5-11.3c2.3-13.9,2.9-27.7,0.9-41.8c-1.6-11.2-5.4-21.1-11.6-30.3
			c1.9-0.4,2.6,1,3.4,2.3c6.6,9.9,10.4,20.8,10.7,32.6c0.4,13.4,0.9,26.9-1.9,40.2C643.4,264.2,644.7,266.8,645,269.6z"/>
		<path class="st2" d="M1402.7,865.8c7.6-10.4,10.7-22.3,11.1-34.9c0.2-5.8-1.3-11.6-2-17.5c4.5,4,3.5,9.8,3.9,14.7
			c1,12.4-2.7,23.9-8.8,34.6C1405.9,864.4,1405,866.1,1402.7,865.8z"/>
		<path class="st2" d="M1356,344.2c4.8,0.6,9.7,0.7,14.6,1c13.6,0.9,25.6-2.9,36.3-11.3c-0.5,4.5-4.5,5.4-7.4,7.1
			c-11.7,6.8-24.4,7.3-37.4,5.2C1359.9,345.8,1357.1,347.5,1356,344.2z"/>
		<path class="st2" d="M1353.8,181.3c-11.1-14.5-26.6-18-43.8-17.4c3.3-3.9,7.8-1.9,11.4-1.6c11.9,1,22.8,4.9,30.9,14.6
			C1353.3,178.3,1354.2,179.5,1353.8,181.3z"/>
		<path class="st2" d="M542.1,887.9c-2.5,9.8-2.2,19.9-1.9,29.9c0.3,7.4,2.8,14.4,6.2,21c0.7,1.3,1.2,2.7,1.9,4
			c-2.3,0.1-2.5-1.8-3.2-3.2c-6.4-12.5-8-25.7-6.1-39.5c0.5-3.3,0.9-6.5,1.2-9.8C540.3,889,540.5,888,542.1,887.9z"/>
		<path class="st2" d="M479,279.1c-0.4,4.5-0.9,9.1-1,13.7c-0.3,12.8,3.1,24.1,11.2,34.1c0.5,0.6,0.8,1.4,1.2,2.2
			c-5-1.8-6.8-6.6-8.7-10.7c-5.7-12-6.4-24.8-4.3-37.7C477.4,279.6,478.1,279.2,479,279.1z"/>
		<path class="st2" d="M1246.1,892.8c2.1,3.5,1.2,7.7,1.6,11.4c1.2,12.7,5,24.2,12.9,34.2c0.3,0.4,0.4,0.9,0.6,1.4
			c-2.2,0.3-2.6-1.5-3.6-2.8c-7.8-10.1-10.4-21.9-11.3-34.2C1245.9,899.5,1243.3,896.1,1246.1,892.8z"/>
		<path class="st2" d="M626,179.7c-7.8-7.1-17.1-10.9-27.2-13.3c-3.6-0.8-7.3-0.6-10.7-2.2c3-2.4,6-0.5,9-0.1
			c9.2,1.5,17.5,4.9,25.2,10.2C624.1,175.6,626.3,176.8,626,179.7z"/>
		<path class="st2" d="M503.2,787c-9.7,7.4-17.4,16.3-21.3,28.2c-0.5,1.5,0.1,3.7-1.7,4.8c-0.3-0.6-1-1.2-0.8-1.6
			c3.6-12.4,9.6-23.2,20.6-30.6C501,787,502,786.9,503.2,787z"/>
		<path class="st2" d="M488.2,864.7c7.2,7.1,14.8,13.3,24.5,16.6c1.5,0.5,3.4-0.4,4.4,1.4c-0.8,1.3-1.9,0.8-3.1,0.5
			c-9-2.3-16.4-7.5-23.4-13.4C489.2,868.6,488.1,866.9,488.2,864.7z"/>
		<path class="st2" d="M480,822c-1.9,10-0.7,19.7,2.1,29.4c1,3.7,3.2,6.8,4.2,10.5c-2.3,0.1-2.6-1.8-3.2-3.2
			c-4.7-11.1-6.1-22.7-4.9-34.7C478.3,822.8,478.8,822.1,480,822z"/>
		<path class="st2" d="M1368.9,882.8c11.6-1.3,21.5-6.8,31-13.1c-5.8,7.7-14.3,10.8-23.1,13C1374.4,883.3,1371.5,885.5,1368.9,882.8
			z"/>
		<path class="st2" d="M1257.8,228.1c0.1,6,0.4,11.9,0.4,17.9c0,4.9,0.9,9.6,1.5,14.5c0.3,2.6,2,6-1.7,7.8c1.1-8.1-1-16.1-1.6-24.1
			C1256,238.6,1256.8,233.4,1257.8,228.1z"/>
		<path class="st2" d="M543,345c9.8-1.7,19.4-4.3,29-6.8c-0.1,0.9-0.5,1.5-1.4,1.8c-7.8,2.7-15.9,4.5-24,6
			C545.4,346.1,543.9,346.4,543,345z"/>
		<path class="st2" d="M539.1,232c2.9,10.2,0.7,10.3-6.9,10c-5-0.2-10.1,0.6-15.2,0.9c2.9-3.6,7.4-1.3,10.9-2.7
			c1.1-0.5,2.6-0.1,4-0.1c6.3-0.1,6.3-0.1,6.3-6.5C538.3,233.1,538.8,232.6,539.1,232z"/>
		<path class="st2" d="M1242,852.8c7.1,4,8.1,6.6,6.3,14.2c-0.8,3.2-1,6.6-1.5,9.9c-0.8-4-2.2-8,0.1-12.1c1.7-3.2,1.2-6.1-2.2-8.1
			C1243.3,855.8,1241.8,854.8,1242,852.8z"/>
		<path class="st2" d="M515.1,344.2c8.3,1.5,16.6,0.5,24.9,1c-0.2,1.2-0.9,1.7-2,1.7c-7.2,0.3-14.4,0-21.5-1
			C515.7,345.7,515.2,345.1,515.1,344.2z"/>
		<path class="st2" d="M1308,164.2c-8.2,2-16.3,4.3-24,8.1c-0.1-2.2,1.9-2.5,3.2-3.2c5.7-3.1,12-4.2,18.2-5.8
			C1306.4,163,1307.4,163.1,1308,164.2z"/>
		<path class="st2" d="M522.2,781.1c-6.3,2-12.7,4-19,6C506.2,782.4,517.1,779,522.2,781.1z"/>
		<path class="st2" d="M1269.1,187.2c-3.3,7.2-6.7,14.4-9.1,22c-1.5-1.1-0.7-2.3-0.3-3.5c1.5-5.5,3.6-10.7,6.4-15.6
			C1266.8,188.7,1267.1,187,1269.1,187.2z"/>
		<path class="st2" d="M561.1,954.7c6.5,2.6,13,5,20,6.1c-2.5,2.4-5.2,0.6-7.3-0.2C569.5,959,563.9,959.8,561.1,954.7z"/>
		<path class="st2" d="M546.3,185.2c-3.3,6.3-4.6,13.3-7.1,20c-1.3-4.9,1.6-9,2.8-13.5C542.6,189.2,542.7,185.9,546.3,185.2z"/>
		<path class="st2" d="M486.3,261.2c-2.4,5.3-4.7,10.7-7.1,16C478.5,272.5,482.4,263.6,486.3,261.2z"/>
		<path class="st2" d="M1259.9,211.1c-1.5,4.9,0,10.2-1.8,15C1256.2,220.8,1257,215.8,1259.9,211.1z"/>
		<path class="st2" d="M687.9,305.4c-4.1-2.6-7.7-5.7-11.1-9.2C682,297.4,685.9,300.2,687.9,305.4z"/>
		<path class="st2" d="M1290.8,784.3c-4.1-2.6-7.7-5.7-11.1-9.1C1284.9,776.3,1288.8,779.1,1290.8,784.3z"/>
		<path class="st2" d="M1261,939.7c3.2,2.8,6.4,5.7,9.1,9.1C1265.6,947.3,1261.7,945.2,1261,939.7z"/>
		<path class="st2" d="M500.2,337.9c4.3,2,8.7,4,13,6.1C507.8,344.2,503.2,342.7,500.2,337.9z"/>
		<path class="st2" d="M571.1,166.2c-4.4,1.8-8.9,3.5-12.8,6.2C559.7,168.5,565.9,165.4,571.1,166.2z"/>
		<path class="st2" d="M558.4,172.3c-3.1,3.1-6.1,6.2-9.2,9.3C549.8,176.8,553.7,172.8,558.4,172.3z"/>
		<path class="st2" d="M548.2,942.7c3.1,3,6.2,6.1,9.3,9.1C552.8,951.2,549,947.4,548.2,942.7z"/>
		<path class="st2" d="M510.1,244.2c-4,1.7-8,3.4-12,5.1C501,244.8,505.3,243.8,510.1,244.2z"/>
		<path class="st2" d="M584.1,164.2c-3.5,1.8-7.5,0.3-11,1.8C576.4,163.1,580.1,162.4,584.1,164.2z"/>
		<path class="st2" d="M653,276.5c-3.2-1.2-4.8-4.3-7.3-6.3C649.8,270.3,652.1,272.6,653,276.5z"/>
		<path class="st2" d="M1235,846.8c2.9,1.4,5.2,3.4,7.1,6.1C1238.9,851.9,1235.8,850.6,1235,846.8z"/>
		<path class="st2" d="M1216,830.8c2.9,1.4,5.3,3.4,7.1,6.1C1219.9,835.9,1216.8,834.6,1216,830.8z"/>
		<path class="st2" d="M519.1,883c3.1,1.7,6.9-0.2,10,1.8C525.4,886.2,522.1,885.7,519.1,883z"/>
		<path class="st2" d="M1223,836.8c2.6,1,4.6,2.8,6.1,5.1C1226.1,841.4,1223.6,840.2,1223,836.8z"/>
		<path class="st2" d="M645.3,749c-1.6,2.3-3.6,4-6.2,5.1C639.8,750.8,641.8,749,645.3,749z"/>
		<path class="st2" d="M1257.8,757.2c-2.6-1-4.1-3.4-6.1-5.1C1255.3,752,1257.3,753.7,1257.8,757.2z"/>
		<path class="st2" d="M1210,825.8c2.5,1.1,4.5,2.8,6.1,5.1C1213.1,830.3,1210.5,829.3,1210,825.8z"/>
		<path class="st2" d="M1229,841.8c2.5,1.1,4.5,2.8,6.1,5.1C1232.1,846.3,1229.5,845.3,1229,841.8z"/>
		<path class="st2" d="M676.9,296.4c-2.6-1-4.1-3.4-6.1-5.1C674.4,291.1,676.4,292.8,676.9,296.4z"/>
		<path class="st2" d="M1268.8,766.2c-2.6-1-4.1-3.3-6.1-5.1C1266.3,760.9,1268.3,762.7,1268.8,766.2z"/>
		<path class="st2" d="M1204,820.8c2.6,1,4.5,2.8,6.1,5.1C1207.1,825.4,1204.6,824.3,1204,820.8z"/>
		<path class="st2" d="M1198,815.7c2.6,1,4.6,2.8,6.1,5.1C1201.1,820.4,1198.6,819.2,1198,815.7z"/>
		<path class="st2" d="M1191,809.8c2.5,1.1,4.5,2.9,6.1,5.1C1194.2,814.3,1191.5,813.4,1191,809.8z"/>
		<path class="st2" d="M494.1,332.8c2.5,1.2,4.5,2.9,6.1,5.1C496.7,338,494.8,336.2,494.1,332.8z"/>
		<path class="st2" d="M613.6,776c-2,1.9-3.9,4-6.5,5.1C607.9,777.6,610,775.9,613.6,776z"/>
		<path class="st2" d="M1297.4,789.1c-3.2-0.3-4.5-3.3-6.7-5C1294.5,783.7,1296,786.3,1297.4,789.1z"/>
		<path class="st2" d="M1279.4,176.2c-1.8,1.7-3.6,3.5-5.3,5.2C1273.7,177.6,1275.7,176,1279.4,176.2z"/>
		<path class="st2" d="M1246.8,879c0,2,0.9,4.2-0.8,6C1244.8,882.8,1243.8,880.6,1246.8,879z"/>
		<path class="st2" d="M659,281.6c-2.3-0.9-3.5-2.9-5.2-4.4C656.9,277,658.9,278.2,659,281.6z"/>
		<path class="st2" d="M1243.3,281.1c-1.6,1.7-3.1,3.3-5.3,4.1C1238.4,282.1,1240.4,281,1243.3,281.1z"/>
		<path class="st2" d="M606.5,782c-1.6,1.6-3.2,3.3-5.4,4.1C601.5,782.9,603.6,781.9,606.5,782z"/>
		<path class="st2" d="M1250.4,275.1c-1.6,1.6-3.1,3.4-5.4,4.1C1245.4,276,1247.4,274.9,1250.4,275.1z"/>
		<path class="st2" d="M665,286.6c-2.3-0.9-3.5-2.9-5.2-4.4C662.8,282,664.9,283.1,665,286.6z"/>
		<path class="st2" d="M1256.3,270.1c-1.6,1.6-3.1,3.3-5.3,4.1C1251.4,271.1,1253.3,270,1256.3,270.1z"/>
		<path class="st2" d="M1279.8,775.2c-2.3-0.7-3.4-2.9-5.2-4.2C1277.5,770.9,1279.7,771.8,1279.8,775.2z"/>
		<path class="st2" d="M619.6,771c-1.7,1.6-3.2,3.4-5.5,4.1C614.5,771.8,616.6,770.9,619.6,771z"/>
		<path class="st2" d="M1273.9,770.5c-1.7-1.5-3.5-2.9-5.2-4.4C1271.9,765.9,1273.8,767.1,1273.9,770.5z"/>
		<path class="st2" d="M625.5,766c-1.6,1.6-3.1,3.3-5.4,4.1C620.5,766.9,622.5,765.9,625.5,766z"/>
		<path class="st2" d="M631.9,186.3c-1.5-1.7-3.5-3-4.4-5.2C630.9,181.3,632.2,183.1,631.9,186.3z"/>
		<path class="st2" d="M670.9,291.4c-2.4-0.5-3.4-2.8-5.1-4.2C668.7,287.1,670.9,287.9,670.9,291.4z"/>
		<path class="st2" d="M1262.8,761.3c-2.3-0.7-3.4-2.7-5-4.2C1260.7,756.9,1262.7,757.9,1262.8,761.3z"/>
		<path class="st2" d="M638.5,755c-1.6,1.6-3.2,3.4-5.4,4.1C633.5,755.8,635.6,754.9,638.5,755z"/>
		<path class="st2" d="M632.6,760c-1.7,1.6-3.2,3.4-5.5,4.1C627.5,760.8,629.6,759.9,632.6,760z"/>
		<path class="st2" d="M539,207.1c-0.1,1.7,0.8,3.6-0.8,5C536.8,210.2,536.1,208.3,539,207.1z"/>
		<path class="st2" d="M538,214.1c0,3.3,0,6.6,0,9.9C536.6,220.7,536.6,217.4,538,214.1z"/>
		<path class="st2" d="M538.2,226c1.5,1.1,0.8,2.6,0.8,4C536.4,229.2,536.7,227.7,538.2,226z"/>
		<path class="st2" d="M1406.7,333.9c1.2-1.1,2.4-2.2,3.6-3.4C1411.2,333.9,1409,334,1406.7,333.9z"/>
		<path class="st2" d="M1284.1,172.2c-0.9,1.7-2.4,2.5-4.1,3.1C1280,172.5,1281.8,172,1284.1,172.2z"/>
		<path class="st2" d="M1350,343.2c1.4,0,2.9-0.6,4,0.8C1352.3,345.4,1350.8,345.7,1350,343.2z"/>
		<path class="st2" d="M1237.5,286.1c-1.3,1.4-2.5,2.8-4.5,3.2C1233.2,286.3,1235.1,286,1237.5,286.1z"/>
		<path class="st2" d="M489.3,257.1c-0.6,1.7-1.5,3.2-3.1,4.1C486,259,486.5,257.2,489.3,257.1z"/>
		<path class="st2" d="M498.2,249.1c-0.9,1.7-2.4,2.5-4.1,3.1C494.2,249.5,496,249,498.2,249.1z"/>
		<path class="st2" d="M1270,948.7c1.8,0.5,3.2,1.5,4.1,3.1C1271.9,952,1270.1,951.5,1270,948.7z"/>
		<path class="st2" d="M531.1,885.1c2.3,0,4.6,0,6.9,0C535.7,886.4,533.4,886.3,531.1,885.1z"/>
		<path class="st2" d="M1400,868.9c0.4-1.5,1.8-2.2,2.8-3.2C1403.2,867.9,1402.4,869.1,1400,868.9z"/>
		<path class="st2" d="M1345,342.1c1.1-0.1,2.3-0.4,3,0.8C1346.5,344.6,1345.4,344.3,1345,342.1z"/>
		<path class="st2" d="M515.1,243.2c-0.8,1.2-1.9,0.9-3,0.8C512.6,241.8,513.6,241.6,515.1,243.2z"/>
		<path class="st2" d="M486.2,861.8c1.3,0.6,1.8,1.8,2.1,3.1C486,864.9,486,863.4,486.2,861.8z"/>
		<path class="st2" d="M558.1,952.7c1.3,0.3,2.5,0.8,3.1,2.1C559.6,954.9,558.1,955,558.1,952.7z"/>
		<path class="st2" d="M548.3,182.1c-0.3,1.3-0.8,2.5-2.1,3.1C546,183.6,546.1,182.1,548.3,182.1z"/>
		<path class="st2" d="M1271.2,184.1c-0.3,1.3-0.9,2.5-2.1,3.1C1268.9,185.6,1268.9,184.1,1271.2,184.1z"/>
		<path class="st2" d="M491.1,329.9c1.1,0.4,1.8,1.1,2.2,2.2C491.8,332.1,491,331.4,491.1,329.9z"/>
		<path class="st2" d="M541.1,885c0.6-0.1,1,0.2,0.9,0.9C541.7,885.6,541.4,885.3,541.1,885z"/>
		<path class="st1" d="M973,286.2c0,1.2,0,2.4,0,3.7c-1.1,1.6-1.5,3.4-2.1,5.2c-1.9,5.9-8.5,10.7-14.4,11
			c-8.6,0.4-17.1,0.4-24.5-5.1c0,0,0,0.1,0,0.1c-0.4-0.4-0.7-0.7-1.1-1.1c0,0,0.1,0.1,0.1,0.1c-0.5-2.9-3-4.7-3.3-7.9
			c-0.6-7.1,1.2-13,6.2-18c0,0,0,0,0,0c2.5-0.5,3.9-2.8,6.5-3.2c9.6-1.7,19-1.9,27.4,4.2c0,0,0,0,0,0
			C970.1,278.6,971.6,282.4,973,286.2z"/>
		<path class="st3" d="M798.1,304.2c-0.2-0.2-0.5-0.6-0.5-0.7c5-6.3,21-8.8,28.1-4.5c9.7,5.9,12.2,20.7,4.8,29.6
			c-6.4,7.8-15.1,12-24.8,13.3c-4.7,0.6-9.1-2.5-12.5-6.1c-10.1-11-6.2-23.4,3-31.7C796.7,303.6,797.5,302.9,798.1,304.2
			c-3.3,4.2-6.6,8.3-8.4,13.6c-3.2,9.8,7.2,22.3,16.2,22.1c11.5-0.3,24.7-11.1,26.6-22.3c1.4-8.7-3.6-17.7-14.8-18.6
			C810.3,298.4,804.3,301.3,798.1,304.2z"/>
		<path class="st3" d="M1160.4,423c-6.5-7.2-9.4-15.7-8.3-25.2c0.8-6.9,5.1-12,11.6-14.5c6.9-2.7,13.9-2.2,19.6,2.8
			c9.7,8.4,12.4,19.5,10.5,31.6c-1.3,8.6-14.4,14.8-23.1,11.8c-3.1-1.1-6.3-2.2-8.6-4.8c0.4-0.3,0.7-0.5,1.1-0.8
			c2.5,1.2,5,2.6,7.7,3.5c8.9,2.8,19.3-2,20.7-10c2.1-11.3-0.5-22.2-9.9-29.9c-5-4.1-11.3-4.8-17.2-2.3c-6.5,2.8-10.2,7.8-10.5,15.4
			c-0.3,8.2,3.1,14.8,7.3,21.3C1160.9,422.2,1160.6,422.6,1160.4,423z"/>
		<path class="st2" d="M706.3,640.9c-0.8,1.2-1.4,0.3-1.9-0.2c-7.4-9.4-8.8-22.3-3.2-32.6c3.1-5.6,13-8.5,20.4-6.8
			c11.2,2.6,17.9,15.1,18.4,24.4c0.1,2.2-0.1,4.3,0,6.5c0.3,6.4-1.2,11.9-7.6,14.9c-7.4,3.6-14.8,4.3-22-0.5c-0.5-0.4-1.5-1-0.3-1.8
			l-0.1,0.2c4.6,1.8,9,4.3,14.2,3c5.6-1.4,11.1-2.6,13.1-9.7c3.1-11.1-0.5-24.8-9.4-32.2c-6.1-5-20.3-4.4-24.4,1.7
			c-3.5,5.3-5.2,11.1-3.9,18c1.1,5.7,4.2,10.1,6.4,15.1L706.3,640.9z"/>
		<path class="st3" d="M704.2,386.4c8.5-7.4,15.4-7.6,21.6-4.3c8.4,4.5,11.2,12.4,9.5,22.8c-1,6-3.7,10.9-7.3,15.5
			c-6.9,9.1-20.8,11.5-30.1,0.9c0.4-0.2,0.8-0.3,1.2-0.5c1.1,0.7,2.3,1.3,3.4,2c5.7,4.1,14.3,4.5,19.4,0.5
			c8.4-6.6,12.7-15.6,11.9-26.2c-0.7-10-13.3-19.5-23.5-12.8c-1.6,1.1-3.4,1.9-5.2,2.9C704.9,387,704.6,386.7,704.2,386.4z"/>
		<path class="st3" d="M1161.1,610.4c12.3-11,27.7-7.6,33.2,7.5c1.7,4.7,1.6,9.8-0.1,14.6c-2.7,7.7-8.1,13.3-15.1,17.2
			c-7.7,4.3-15.7,2.7-22.9-4.2c0.3-0.3,0.7-0.5,1-0.8c3.8,1.8,6.8,4.9,11.4,5.1c10,0.5,15.8-5.8,21-12.8c4.9-6.7,5.5-14.2,1.4-21.8
			c-4.5-8.3-14.2-11.2-22-8.1c-2.4,1-4.5,2.6-6.8,3.9C1161.8,610.9,1161.4,610.6,1161.1,610.4z"/>
		<path class="st3" d="M1060,297.4c6.8-5.7,14.4-5.1,21.9-2.3c5.2,2,9.7,5.6,13.3,10.2c6.9,8.7,6.2,16,0.3,25.1
			c-4.1,6.4-15.3,8.6-23.6,5.3c-3.8-1.5-7.8-2.9-10.8-5.9c0.4-0.3,0.7-0.5,1.1-0.8c6,2.8,11.6,6.8,18.7,6.1c6.4-0.6,12-2.5,14.8-8.9
			c2.6-6.1,3.5-11.9-1.2-18.1c-8.8-11.7-19.7-15.2-33.3-9.8C1060.8,298,1060.4,297.7,1060,297.4z"/>
		<path class="st3" d="M701.9,538.9c-7.8,11.3-26,9.4-32.5-3.4c-4.1-8.2-4.6-16.8-2.3-25.5c2.4-9.1,14.2-14.6,23.1-11.1
			c-0.3,0.3-0.7,0.6-1,0.9c-1.5,0.1-3,0.2-4.5,0.3c-8,0.1-12.3,3.2-15.4,10.7c-3.6,8.7-1.9,17.1,2.4,24.7c3,5.3,7.7,8.8,14.9,8.6
			c6-0.2,9.9-3.4,14.3-6.3C701.2,538.2,701.6,538.6,701.9,538.9z"/>
		<path class="st2" d="M1195.1,498.2c-1.2-0.9-0.2-1.4,0.4-1.8c8.4-5.9,23.8-1.7,27.9,7.6c2,4.6,1.8,9.6,1.6,14.6
			c-0.4,8.4-2.9,15.9-10,21.1c-5.2,3.8-10.8,4.4-16.6,1.8c-0.8-0.4-3.4-0.3-2.2-2.7l-0.1,0.2c12.8,5.9,21.9-1.5,25.5-11
			c2-5.2,1.5-10.7,1.5-16.1c0.1-9.6-6.5-15.9-16-16c-4.2,0-8.2,0.3-12,2.1L1195.1,498.2z"/>
		<path class="st2" d="M932.1,301c7.4,5.5,15.9,5.5,24.5,5.1c5.9-0.3,12.4-5.1,14.4-11c0.6-1.8,0.9-3.7,2.1-5.2
			c2.4,3.6-0.3,6.4-1.9,8.9c-3.9,6.1-9.6,9.4-17,9.3c-6.4-0.1-13,0.8-18.6-3.3C934.1,303.8,931.5,303.7,932.1,301z"/>
		<path class="st2" d="M701.9,538.9c-0.3-0.4-0.6-0.8-1-1.2c2.7-5.7,1.9-11.8,2.2-17.8c0.4-9.5-4.3-18-14-20.1
			c0.3-0.3,0.7-0.6,1-0.9c6.5,0.3,10.7,4.6,12.6,9.9C706.3,518.7,706.8,529,701.9,538.9z"/>
		<path class="st2" d="M1193.2,536.9c-6-0.6-7.3-5.9-7.9-9.9c-1.1-7.9-1.4-16.1,3.2-23.3c1.5-2.4,2.5-5.9,6.6-5.5
			c0,0-0.1-0.2-0.1-0.2c-9.9,9.5-13.1,28-2,38.9L1193.2,536.9z"/>
		<path class="st2" d="M967.9,275.1c-8.4-6.2-17.7-5.9-27.4-4.2c-2.6,0.5-4,2.7-6.5,3.2c0.3-3.7,3.7-4.3,6-4.8
			c8.7-1.9,17.6-3.3,25.6,2.4C966.8,272.5,968.9,272.9,967.9,275.1z"/>
		<path class="st3" d="M697.7,421c-6.3-8.1-5.7-16.7-1.2-25.3c1.9-3.6,4.5-6.8,7.8-9.3c0.3,0.3,0.7,0.5,1,0.8
			c-8.8,9.5-13.4,19.9-7,32.6C698.1,420.2,697.9,420.6,697.7,421z"/>
		<path class="st3" d="M1061.1,329.7c-9.5-4.6-12.7-18.7-4.7-28.5c0.3,0.4,0.6,0.7,0.8,1.1c-0.2,3.2-2.7,5.4-3.2,8.6
			c-1.2,8,2.9,13.1,8.1,18C1061.8,329.1,1061.5,329.4,1061.1,329.7z"/>
		<path class="st3" d="M1156.1,645.6c-8.4-7.3-5.8-22,1.2-31.5c0.3,0.4,0.5,0.7,0.8,1.1c-4.9,9.7-8.5,19.5-1,29.6
			C1156.8,645,1156.5,645.3,1156.1,645.6z"/>
		<path class="st2" d="M934.1,274.1c-5,5-6.9,10.9-6.2,18c0.3,3.2,2.8,5.1,3.3,7.9c-1.9,0.9-2.1-0.9-2.6-1.8
			c-4.3-6.6-2.6-15.8,0.8-21.5C930.2,275.2,931.4,273,934.1,274.1z"/>
		<path class="st2" d="M973,286.2c-1.4-3.8-2.9-7.6-5.1-11.1c2.5-0.9,2.7,1.5,3.5,2.7C972.9,280.4,974.1,283.1,973,286.2z"/>
		<path class="st2" d="M710.2,644.8c-2.9-0.2-3.7-1-3.9-3.9c0,0-0.2,0.1-0.2,0.1c1.8,0.8,3.2,2.1,4,4L710.2,644.8z"/>
		<path class="st3" d="M1056.4,301.2c0.9-1.6,2.1-2.9,3.7-3.8c0.4,0.3,0.7,0.5,1.1,0.8c-1,1.7-2.3,3.1-4,4
			C1056.9,301.9,1056.6,301.6,1056.4,301.2z"/>
		<path class="st3" d="M1157.4,614.1c1.2-1.2,2.5-2.5,3.7-3.7c0.4,0.3,0.7,0.5,1.1,0.8c-0.9,1.8-2.2,3.1-4,4
			C1157.9,614.8,1157.6,614.5,1157.4,614.1z"/>
		<path class="st2" d="M1196.1,538.8c-2.1,1.1-2.9,0.2-2.9-1.9c0,0-0.1,0.1-0.1,0.1c1.4,0.1,2.5,0.6,3,2L1196.1,538.8z"/>
		<path class="st3" d="M1162,424.6c-0.6-0.6-1.1-1.1-1.7-1.7c0.3-0.4,0.5-0.7,0.8-1.1c1.1,0.2,1.8,0.9,2,2
			C1162.8,424.1,1162.4,424.4,1162,424.6z"/>
		<path class="st2" d="M931,300c0.4,0.4,0.7,0.7,1.1,1.1c-0.4,0.1-0.6,0.7-1.2,0.1C930.4,300.6,931,300.4,931,300z"/>
		<path class="st3" d="M698,421.4c-0.1-0.1-0.2-0.2-0.4-0.4c0.2-0.4,0.4-0.8,0.6-1.1c0.3,0.3,0.6,0.7,1,1
			C698.8,421,698.4,421.2,698,421.4z"/>
		<path class="st4" d="M931.9,600.8c4.9-1.1,12.4-1.3,19.8-0.8c12.4,0.8,24.8,1.6,37.2,3.7c10.8,1.8,21.6,3.4,32.2,6.3
			c12.8,3.5,25.6,6.9,37.5,13.4c5.4,3,11.5,5.1,17.2,7.7c11.7,5.2,22.4,12.2,33.2,18.9c22.8,14,45.9,27.5,67.8,42.8
			c8.7,6.1,17.1,12.7,25.8,18.9c3,2.1,3.4,3.3,0.7,6.6c-14.8,18.8-29.1,38-43.4,57.2c-1.9,2.5-3,3.3-6.2,1.6c-4.3-2.3-8-5.3-12-8
			c-21.5-14.1-43.7-26.9-67.3-36.8c-17.2-7.2-34.9-12.9-52.9-17.6c-11.2-3-22.4-6.3-33.9-7.6c-15-1.6-30.2-3.9-45.4-1.3
			c-1,0.2-2,0.1-3,0c-27.6-1.1-54,5.1-80.1,13.2c-21.1,6.6-41.9,14-61.8,23.3c-16.6,7.7-32,17.8-47.5,27.5c-10,6.3-10.1,6.3-18-2.7
			c-13.4-15.3-27.8-29.6-41.9-44.3c-2.4-2.6-2.6-4.2-0.5-7c8.3-11.5,19-20.5,30.3-28.8c15.3-11.3,31.2-21.5,47.6-31.2
			c23.4-13.8,47.5-26.3,73.2-35.1c23.9-8.2,48.3-14.2,73.3-17.9C919.1,602.2,924.2,600.9,931.9,600.8z"/>
		<path class="st4" d="M1040.8,612.5c10.2-10.1,19.9-19.7,29.6-29.3c4.5-4.4,4.4-4.4-0.3-8.8c-18.6-17.3-37.2-34.7-56-51.9
			c-2.7-2.5-3-3.7-0.1-6.3c17.5-15.9,34.7-32.1,52.2-48c3.2-2.9,3.5-4.6,0.1-7.8c-17.6-16.4-34.9-32.9-52.2-49.5
			c-3.1-3-5-3.4-8.6-0.4c-19.3,16.8-39,33.2-58.4,49.9c-3.2,2.7-5.1,2.9-8.3-0.1c-18.2-17.3-36.7-34.2-55-51.5
			c-2.4-2.3-3.9-2.2-6.2-0.1c-18.2,15.9-36.5,31.7-54.8,47.4c-3.5,3-3.4,4.9,0.1,7.8c19.9,16.6,39.7,33.5,59.7,50
			c3.4,2.8,3.2,4.2,0,6.9c-10.3,8.7-20.7,17.4-30.3,26.8c-6.4,6.2-12.9,12.3-19.6,18.2c-3.1,2.7-5.9,5.8-9,8.2
			c-3.5,2.7-2.7,4.7-0.4,7c6.6,6.5,13.4,12.8,20.1,19.3c3.5,3.3,6.9,6.8,10.3,10.2c1.7,1.7,2.1,2.7-1,3.5c-9.7,2.6-19,6.2-28.3,10
			c-2.3,0.9-3.5,0.7-4.9-1.4c-7.6-11-15-22.1-21.1-33.9c-5.6-10.9-11-22-15-33.5c-3.7-10.7-6.7-21.7-6.6-33.5
			c0.2-14.4,0.2-28.7,5.5-42.3c8.6-22.1,22.8-40.3,39.8-56.6c24.7-23.8,54.9-36.5,87.6-44.3c7.8-1.9,15.9-3,24-2.5
			c7.1,0.4,14.1-1.4,21.3-1.1c20,0.8,39.4,4.2,58.2,11.6c31.1,12.1,56.1,32,76.9,57.6c9.4,11.6,14.8,25.2,19,39.6
			c4.9,16.7,6.7,33.6,4.7,50.9c-1.8,15-5.3,29.5-11.9,43.2c-7.5,15.7-14.3,31.8-24.8,45.9c-2.1,2.8-4.3,3.2-6.6,2
			C1061.2,620.9,1051.4,616.9,1040.8,612.5z"/>
		<path class="st1" d="M1066,464.6c-8.9,8.2-17.6,16.6-26.5,24.5c-9.7,8.7-18.8,18-29,26.2c-2.5,2-3.8,4.6-0.4,7.3
			c6.9,5.6,12.7,12.3,19.5,18c8,6.7,15.6,13.9,23,21.4c4.9,5,10.7,8.9,15.3,14.2c1.9,2.2,2.4,3.2,0.1,5.4
			c-9.6,9.3-19,18.7-28.3,28.3c-1.9,2-3.4,1.6-5.5,1c-17.6-5.2-35.4-9.5-53.8-11c-1.2-0.1-2.3-0.3-3-1.3
			c-8.5-12.5-20.6-21.5-30.7-32.4c-2-2.2-4-1.7-5.9,0.4c-6.3,7-12.7,13.9-19.1,20.9c-3.6,3.9-7,7.9-10.7,11.7
			c-3.4,3.5-8.3,2.5-12.4,3.4c-12.2,2.5-24.5,4.8-36.4,8.7c-2.3,0.8-3.6,0.2-5.2-1.3c-10.2-10.1-20.3-20.2-30.6-30.2
			c-1.9-1.8-1.8-2.9,0.1-4.6c8.4-7.7,16.5-15.8,25.2-23.1c6.4-5.4,12-11.6,18.5-16.9c5.5-4.5,10.6-9.5,16-14.1
			c3.8-3.3,3.8-4.4-0.1-7.7c-12.1-10.1-24.2-20.3-36.2-30.5c-8.2-6.9-16.2-13.9-24.5-20.6c-2.8-2.3-1.8-3.6,0.2-5.4
			c13.4-11.4,26.8-22.9,40.2-34.4c4-3.4,7.9-7,11.8-10.6c2.1-2,3.7-2.4,6.2-0.1c12.9,12.5,26,24.8,39.1,37.1
			c5.6,5.3,11.3,10.5,16.9,15.8c2.1,2,3.6,2.2,6.2,0c12-10.5,24.4-20.6,36.6-30.9c7.9-6.7,15.8-13.4,23.5-20.3
			c2.7-2.4,4.4-3,7.2-0.2c10.4,10.3,21,20.4,31.5,30.5C1051.7,450.9,1058.8,457.7,1066,464.6z"/>
		<path class="st1" d="M930.4,333.1c9.2-0.8,18.3-0.8,27.4,0c15.1,1.4,30,3.5,44.7,7.4c13.4,3.6,26.7,7.6,39.3,13.5
			c16.1,7.6,31.4,16.7,44.4,29c15.6,14.8,31.8,29.2,43.6,47.5c11,17,17.8,35.8,22.1,55.5c3.1,14,5.1,28.2,3.9,42.5
			c-1.6,18.1-4.9,36-11.2,53.2c-8,22.2-21.5,41.3-34.7,60.5c-1.9,2.7-4,3.2-6.7,1.4c-7.8-5.1-15.6-10.1-24-14
			c-2.4-1.1-2.4-1.8-0.7-4.1c15.5-21.2,27-44.4,34-69.6c3.9-14,5.6-28.7,4.4-43.3c-2.2-27-9.9-52.2-27.4-73.4
			c-15.2-18.4-33.4-33.4-54.2-45.3c-14.2-8.1-29.4-13.8-45.2-17.6c-16.6-4-33.6-4.8-50.7-3.8c-12.1,0.7-24.2,1.2-35.9,4.4
			c-23.4,6.3-46.2,14.3-65.7,29c-26.5,20-48.5,43.9-59.3,76.4c-3.8,11.5-4.4,23.1-4.4,35c0.1,19.9,5.8,38.2,13.8,56.2
			c7.9,17.5,17.6,33.8,28.5,49.4c1.7,2.4,1.4,3.5-1.2,4.7c-8.1,3.6-16.1,7.4-24,11.3c-1.7,0.9-1.9,0.4-2.8-0.9
			c-16.1-23.2-30.1-47.5-40.9-73.6c-3-7.3-5.8-14.7-7.6-22.3c-2.4-10.5-1.9-21.4-1.8-32.1c0.2-34.9,14.1-64.7,34.9-91.7
			c18.2-23.7,41.6-41.4,67.4-56.2c14.3-8.3,29.2-15.2,45-20.3C900.2,337.2,915.2,334.3,930.4,333.1z"/>
		<path class="st1" d="M964.9,866.9c-15.5,0.9-31,0.6-46.4,0.6c-25.2-0.1-50-3.3-73.8-11.7c-16.2-5.7-31.4-13.9-46.1-22.9
			c-2.5-1.5-5-3.2-7.6-4.6c-6.2-3.5-7.3-6.1-5.8-12.9c1.9-8.4,2.1-17.1,1.6-25.6c-0.7-11.1-1.7-22.3-2.9-33.4
			c-0.3-3.1,1-4.3,3.5-5.6c21.8-11.9,45-20.3,68.6-27.8c16.1-5.1,32.2-10.5,48.8-12.6c22.1-2.9,44.6-3.8,66.9-2.2
			c15.5,1.1,30.9,4.1,45.9,8.1c20.6,5.5,40.8,12.2,60.4,20.7c9.8,4.3,19.1,9.6,28.7,14.3c1.7,0.8,2.3,1.8,2.3,3.8
			c-0.3,7.7-1.3,15.4-1.9,23.1c-0.6,7.9-0.1,16,0,24c0,7.7,0.5,15.4,1.8,23c0.4,2.2,0.4,4.4-2.5,5.7c-11.1,4.9-21.9,10.3-33,15
			c-17.8,7.5-36.3,12.3-55.4,15.3c-14.8,2.3-29.8,3.9-44.6,5.9C970.6,867.2,967.8,866.9,964.9,866.9z M984,780.3
			c-1.9,25,20.1,45.9,45.8,45c28.3-1,44.2-17.2,43-49.5c-0.8-21.6-13.8-40.4-46.7-39.8C1002.5,736.4,982.3,755.4,984,780.3z
			 M862.7,736.9c-23.5-1.9-45.7,19.6-45.1,43.8c0.6,22.9,18.9,46,45.5,45.3c21-0.5,46.2-17.5,44.1-49.3
			C905.9,756,886,736.9,862.7,736.9z M927,841c-1,10.5,7,17.2,18.2,17.2c9.6,0,16.3-7.1,15.9-18c-0.3-8.9-5.6-17.4-16.9-17.3
			C934.6,823,927,830.9,927,841z"/>
		<path class="st4" d="M819.4,277.2c-18.1-0.5-36.8-3.3-54.5-10.5c-10.1-4.1-9.5-2.7-7.9-14.6c1.6-11.9,3.9-23.7,6.7-35.3
			c6-24.3,18.9-45,36-62.9c20.5-21.5,45-36.9,74.1-44.1c14.2-3.5,28.7-4.4,43.3-4.6c3.3,0,2.3,2,1.9,3.6
			c-4.4,15.3-8.8,30.6-13.2,45.9c-0.7,2.5-2.3,5.6-1.5,7.4c1.2,2.3,4.4,0,6.7-0.1c12.1-0.9,24.2-2.3,36.3-3.7
			c3.4-0.4,6.9,0.1,10.3-0.6c2.6-0.5,1.2,2,0.8,3.1c-2.6,7.1-5.3,14.1-8,21.2c-12.3,32.4-34.7,56.3-63.2,75.1
			c-15.7,10.3-32.5,16.6-51,19.1C830.9,276.9,825.6,276.7,819.4,277.2z"/>
		<path class="st4" d="M1452.6,492c-1.1,5.2-4.8,8.6-6.6,13c-10,23.5-23.9,44.7-39.8,64.5c-18.7,23.2-43.2,36.1-72.7,40.7
			c-19.1,3-38.2,3.7-57.4,2.6c-8.9-0.5-17.8-2.6-26.6-4c-2.5-0.4-2.7-2.3-2.6-4.5c0.2-11,1.6-21.9,4-32.6
			c5.5-24,14.5-46.6,29.5-66.3c15.3-20.1,35.9-33.2,59.3-42.3c11.6-4.5,23.7-6.3,35.9-8.3c11.2-1.8,22.5-2.4,33.5-4.6
			c3.2-0.7,6.5,0.4,9.8-0.9c1.3-0.5,2.2,1,1.3,2.6c-6.8,12.3-12,25.5-19.8,37.3c-0.3,0.4-0.4,0.9-0.6,1.3c-1.5,2.8-4.7,6.2-2.4,8.8
			c1.6,1.9,5.8,0.7,9,0.1c13.7-2.6,27.5-5,41.2-7.4C1449.2,491.8,1450.9,492,1452.6,492z"/>
		<path class="st4" d="M524.7,747.1c-7.5,0.1-18.9-0.9-30.2-4c-7.1-2-13.1-6-19.6-8.9c-2.6-1.2-2-3.8-1.7-5.7
			c1.9-10.3,3.7-20.7,6.2-30.8c2.7-11,7.2-21.3,12-31.5c19.5-40.9,52.3-64.6,95.7-75c18.5-4.4,37.3-6.1,56.2-7.6
			c0.9-0.1,1.7-0.2,2.1,0.6c0.5,1-0.4,1.9-0.9,2.7c-5.4,9-10.8,17.9-16.3,26.8c-4.2,6.8-8.4,13.5-12.5,20.3
			c-0.7,1.1-2.2,2.2-1.4,3.5c0.9,1.4,2.8,0.8,4.1,0.6c8.8-1.7,17.6-3.5,26.4-5.3c7.3-1.5,14.6-2.9,21.9-4.4c2.4-0.5,3,0,2.5,2.6
			c-1.7,9.2-3.8,18.4-7.4,26.9c-10,23.5-24.7,43.8-43.9,60.5c-17.9,15.6-40,21.8-62.5,26.8C546.6,746.9,537.7,747.7,524.7,747.1z"/>
		<path class="st1" d="M1004.8,894.2c-9.1,18.6-23.3,31.8-43,37c-21.3,5.6-42.5,4.6-61.3-9.2c-8.8-6.5-16-14.7-22.3-23.6
			c-0.5-0.6-1.3-1.6-0.5-2.6c0.9-1.1,1.8,0,2.6,0.2c13.5,3.2,27,5.5,40.9,6.1c15.9,0.6,31.8,0.6,47.6-0.3
			c11.3-0.7,22.3-3.7,33.1-7.3C1002.8,894.1,1003.5,894,1004.8,894.2z"/>
		<path class="st1" d="M891.2,868.7c16.6,1.8,32.8,1.4,49,1.5c2.3,0,2.8,0.8,2.8,2.9c-0.1,7.8-0.1,15.6,0,23.5
			c0,2.6-1.1,3.4-3.6,3.5c-12.6,0.3-25-0.4-37.5-2.2c-2.7-0.4-4.3-1.7-5.1-5.3C895,884.7,893.5,876.9,891.2,868.7z"/>
		<path class="st1" d="M956.2,900c-11.2,0-11,0-11.3-11.4c-0.1-5.5,1.6-10.8,1-16.2c-0.2-2,0.7-2.6,2.6-2.5c9.6,0.7,19.1-1.2,28.7-1
			c4.1,0.1,8-1.5,12.2-1.1c2.3,0.2,2.9,1,2.5,3c-1.5,7.5-2.2,15.1-2.9,22.7c-0.1,1.7-0.8,2-2.4,2.3C976.6,898,966.5,899.8,956.2,900
			z"/>
		<path class="st4" d="M973.9,599.2c-19.7-3.2-39-2.2-58.9-0.3c4.2-4.6,8.3-9.3,12.5-13.9c4.7-5.2,9.4-10.3,14.2-15.4
			c1.1-1.2,2.1-2.7,4-0.7c9.3,9.5,18.7,18.9,28,28.3C973.9,597.4,973.8,597.9,973.9,599.2z"/>
		<path class="st1" d="M863.1,864.2c7.8,1.3,15,2.7,22.3,3.6c2.3,0.3,3.3,0.5,3.8,3.2c1.3,6.6,3.1,13.2,4.7,19.7
			c1.3,5.2,0.7,5.7-4.4,4.4c-2.4-0.6-4.8-1-7.2-1.4c-5.4-0.7-9.3-3.2-11.3-8.5C868.6,878.3,864.4,871.9,863.1,864.2z"/>
		<path class="st1" d="M991.5,893.6c0.9-6.7,1.6-13.2,2.6-19.6c1.1-7.3,0.4-7.5,8-8c3.1-0.2,6.2-0.7,9.3-1.1
			c2.7-0.3,3.1,1.1,2.5,3.3c-1.3,4.6-2.5,9.3-4,13.9C1007.4,889.8,1000.3,894.2,991.5,893.6z"/>
		<path class="st3" d="M930,224.1c-0.1,0.1-0.1,0.3-0.2,0.4C929.9,224.4,929.9,224.2,930,224.1C930,224.1,930,224.1,930,224.1z"/>
		<path class="st1" d="M798.1,304.2c6.2-2.9,12.2-5.7,19.6-5.2c11.2,0.9,16.2,9.9,14.8,18.6c-1.8,11.2-15.1,22-26.6,22.3
			c-9,0.2-19.4-12.3-16.2-22.1C791.4,312.5,794.8,308.3,798.1,304.2C798.1,304.1,798.1,304.2,798.1,304.2z"/>
		<path class="st1" d="M1163.1,423.9c-0.2-1.1-0.9-1.8-2-2c-4.2-6.5-7.6-13.1-7.3-21.3c0.3-7.6,4-12.6,10.5-15.4
			c5.9-2.5,12.2-1.9,17.2,2.3c9.4,7.8,12,18.6,9.9,29.9c-1.4,7.9-11.8,12.7-20.7,10C1168.2,426.5,1165.7,425,1163.1,423.9z"/>
		<path class="st1" d="M710.1,644.9c-0.8-1.9-2.2-3.2-4-4c-2.3-5-5.4-9.3-6.4-15.1c-1.3-6.9,0.4-12.8,3.9-18
			c4.1-6.2,18.3-6.8,24.4-1.7c8.9,7.4,12.5,21.1,9.4,32.2c-2,7.1-7.5,8.2-13.1,9.7C719.2,649.2,714.7,646.7,710.1,644.9z"/>
		<path class="st1" d="M699.2,420.8c-0.3-0.3-0.6-0.7-1-1c-6.4-12.7-1.8-23.1,7-32.6c1.7-1,3.5-1.8,5.2-2.9
			c10.2-6.7,22.8,2.9,23.5,12.8c0.8,10.6-3.6,19.6-11.9,26.2c-5.1,4-13.7,3.6-19.4-0.5C701.5,422.1,700.3,421.5,699.2,420.8z"/>
		<path class="st1" d="M1158.2,615.2c1.8-0.9,3.1-2.2,4-4c2.3-1.3,4.4-3,6.8-3.9c7.7-3.1,17.5-0.2,22,8.1c4.1,7.6,3.5,15-1.4,21.8
			c-5.1,7-10.9,13.4-21,12.8c-4.6-0.3-7.6-3.4-11.4-5.1C1149.6,634.7,1153.2,624.9,1158.2,615.2z"/>
		<path class="st1" d="M1057.2,302.3c1.7-0.9,3-2.3,4-4c13.6-5.5,24.5-1.9,33.3,9.8c4.6,6.2,3.8,11.9,1.2,18.1
			c-2.7,6.4-8.4,8.3-14.8,8.9c-7.2,0.7-12.8-3.3-18.7-6.1c-5.3-4.8-9.3-10-8.1-18C1054.5,307.6,1057,305.4,1057.2,302.3z"/>
		<path class="st1" d="M689.1,499.8c9.7,2.2,14.4,10.7,14,20.1c-0.3,6,0.5,12.1-2.2,17.8c-4.4,3-8.3,6.2-14.3,6.3
			c-7.2,0.2-12-3.3-14.9-8.6c-4.3-7.6-6-16-2.4-24.7c3.1-7.5,7.4-10.6,15.4-10.7C686.1,500.1,687.6,499.9,689.1,499.8z"/>
		<path class="st1" d="M1196,539c-0.5-1.4-1.6-1.9-3-2c-11.1-10.8-7.9-29.4,2-38.9c3.8-1.8,7.8-2.1,12-2.1c9.5,0.1,16.1,6.4,16,16
			c0,5.4,0.5,10.8-1.5,16.1C1217.9,537.5,1208.8,544.8,1196,539z"/>
		<path d="M984,780.3c-1.6-24.8,18.5-43.9,42-44.3c32.9-0.6,46,18.2,46.7,39.8c1.2,32.3-14.7,48.5-43,49.5
			C1004,826.1,982.1,805.3,984,780.3z"/>
		<path d="M862.7,736.9c23.3,0,43.2,19.1,44.6,39.8c2.1,31.8-23.2,48.8-44.1,49.3c-26.6,0.6-45-22.4-45.5-45.3
			C817,756.6,839.3,735,862.7,736.9z"/>
		<path d="M927,841c0-10.1,7.6-18,17.2-18.1c11.3-0.1,16.6,8.4,16.9,17.3c0.4,10.9-6.3,18-15.9,18C933.9,858.1,925.9,851.4,927,841z
			"/>
	</g>
</g>
</svg>
