<?xml version="1.0" encoding="utf-8"?>
<!-- Generator: Adobe Illustrator 27.3.1, SVG Export Plug-In . SVG Version: 6.00 Build 0)  -->
<svg version="1.1" id="Layer_1" xmlns="http://www.w3.org/2000/svg" xmlns:xlink="http://www.w3.org/1999/xlink" x="0px" y="0px"
	 viewBox="0 0 1920 1080" style="enable-background:new 0 0 1920 1080;" xml:space="preserve">
<style type="text/css">
	.st0{fill:#010000;}
	.st1{fill:#D574BA;}
	.st2{fill:#C3032D;}
	.st3{fill:#D5DDE8;}
	.st4{fill:#404040;}
	.st5{fill:#FFFFFF;}
</style>
<g>
	<g>
		<path class="st0" d="M1254.8,350.1c0.5,5.9,5.6,8.8,8.8,12.8c12.4,15.4,25.2,30.5,37.7,45.8c3.6,4.4,7.4,6.5,13.5,6.5
			c45.1-0.2,90.3-0.1,135.4,0c1.2,0,2.3,0,3.5,0c1.3,0,3-0.2,3.6,1.1c0.8,2-1.3,2.3-2.4,3.2c-2.2,1.7-4.2,3.8-7.1,4.5
			c-0.1-0.1-0.3-0.3-0.4-0.4c1.1-1,2.2-1.9,3.4-2.9c0.9-0.7,2.4-1.4,2.1-2.6c-0.4-1.7-2.2-1-3.4-1c-46.5-0.2-93.1-0.4-139.6-0.6
			c-0.6-0.2-1.3-0.2-1.5,0.5c-0.2,0.8,0.4,1,1.1,1c3.4,4.1,6.9,8.1,10.1,12.3c2.4,3.1,2.4,6.4-1,9.1c-3.1,2.5-6.1,5.1-9,7.9
			c-3.1,3-6.9,5.3-9.8,9.2c10.2,0,19.8,0,29.4,0c2.4,0.8,4.9,0.9,7.3-0.1c15-0.1,30-0.1,44.9-0.2c2.4,0,4.1,0.3,4.4,3.4
			c0.6,6.9,0.7,6.9,6.7,3.5c0.3-0.2,0.6-0.2,0.9-0.4c0.1,0.1,0.3,0.3,0.4,0.4c-2.7,3.1-5.7,5.8-9.8,7c0-2.2-0.4-4.4-0.1-6.5
			c0.7-4.7-1.3-5.7-5.7-5.7c-25.6,0.3-51.2,0.3-76.8,0.2c-3,0-5.4,0.8-7.7,2.8c-8.9,8-18,15.8-27,23.7c-1.4,1.2-2.9,2.3-3,4.4
			c-0.9,0-1.9-0.2-2.6,0.6c-4.4,3.8-8.5,7.9-13.1,11.4c-4.4,3.4-7.5,8.5-13.2,10.2c-0.6-0.1-1.2-0.2-1.8-0.2
			c-0.1-0.5-0.2-1.1-0.5-1.4c-14.5-16.9-28.9-33.9-43.4-50.8c-0.9-1-1.9-1.7-3.4-1.8c-6.8-0.2-13.6,0.3-20.1,1.8
			c-11.1,2.6-19.9,8.9-26.6,18.1c-0.1-0.9-0.2-1.7-0.2-2.6c9.5-11.3,21.1-18.3,36.3-18.2c3.2,0,6.5,0.4,10-2
			c-6.8-7.8-12.7-16.4-20.3-23.6c-0.2-1.1,0-2.5-1.7-2.4l-0.1-0.2c-0.8-3.6-2.6-6.3-6.1-7.7c-0.6-0.7-1.3-1.4-1.9-2.2
			c0.3-1.6-0.2-2.7-2-2.8l-0.1-0.1c0.1-1.3-0.5-2-1.8-2l-0.1-0.1c0.2-2.3-0.7-3.6-3-3.8c-2.3-2.1-2.9-5.6-5.9-7
			c-1.6-5.5-6.2-8.8-9.5-13c-17.2-21.7-35.2-42.8-54-63.2c-3.8-4.1-3.3-7.4,0.8-11.1c15-13.1,29.9-26.4,44.9-39.5
			c9-7.9,18.3-15.5,27.4-23.3c2.5-2.1,4.9-4.4,7.4-6.4c3-2.4,4.7-1.6,6.7,0.7c5,5.6,9.9,11.1,14.7,16.8
			c9.9,11.8,19.8,23.6,29.6,35.5c6.6,7.9,13.2,15.8,19.6,23.9c1.3,1.6,2.5,2.6,4.4,2.7c0.1,0.6-0.1,1.4,0.2,1.9
			c6.1,7.4,12.2,14.8,18.3,22.2C1253.2,349.9,1253.9,350.2,1254.8,350.1z"/>
		<path class="st1" d="M577.1,754.6c0.1-0.5,0.3-1,0.2-1.5c-1.4-6.5,1.2-9.7,7.6-11.6c6.1-1.9,7.3-7.6,7.2-13.5
			c-0.2-24.3-0.3-48.6-0.4-72.9c-0.3-37-0.6-73.9-1-110.9c-0.1-13.1-0.6-26.3-1-39.4c0-1.3-0.1-2.6-0.1-3.8c0.7-1.7,0.7-3.4-0.1-5
			c0-0.7,0-1.3,0-2c0.1-0.1,0.3-0.3,0.3-0.3c-0.2-0.2-0.4-0.4-0.6-0.6c-0.1-1-0.1-2-0.2-3c0.4-6.5-3.7-10.6-8.5-13.6
			c-3.4-2.1-4.4-4.1-2.3-7.5c1.3-2-0.5-3.3-1.1-4.9c4.5,0,8.9-0.9,13.3-0.9c29.3-0.5,58.6-1.2,87.9-0.1c8.1,0.3,16.1,1.9,22.8,7.1
			c6.7,7.4,10.7,16.3,11.9,25.9c2,16.4,3,32.8,1.5,49.4c-1.3,15.1-4.7,28.7-14.4,40.5c-0.4,0.3-0.8,0.6-1.2,0.9
			c-3.8,2.3-7.7,4.7-11.5,7c-1.1,0.7-2.6,1.1-2.3,2.8c0.3,1.6,1.8,1.3,2.7,1.7c20.1,7.4,29.3,23.3,32.1,43.1
			c2.7,19.4,2.2,38.8,0.5,58.5c-1.7,19.4-9.4,34.9-22.3,48.7c-3.1,3.3-6.7,6-11.1,7.4c-3.6,0.2-7.3,0.7-10.9,0.7
			c-29.5-0.3-59.1-0.7-88.6-1.1C584,755.6,580.5,755.7,577.1,754.6z M662.1,575C662.1,575,662.1,575.1,662.1,575
			c3.6-2.5,4.5-6.7,5.7-10.5c2.2-7.3,2.1-14.9,2.4-22.5c1-1.1,0.6-2.5,0.7-3.8c0.5-11.3-1.6-22.3-3.6-33.3
			c-2.7-15-16-17.4-26.4-13.5c-3.6,1.4-5.8,4.2-5.8,7.9c-0.1,11.3-0.6,22.6,0.4,33.8c0.2,13,0.3,25.9,0.5,38.9
			c-1.4,3.7-0.4,7.5-0.6,11.3c-0.1,1.6,0.5,3.4,2.6,3.6c2.5,0,5,0.4,7.4-0.1C652.7,585.3,659.7,583.3,662.1,575z M635.1,671.3
			c0.4,0,0.8,0,1.3,0c0,18.1-0.1,36.3,0,54.4c0,8.1,0.2,8.1,7.6,10c7.8,2,18.9-3.7,21.7-11.4c5.7-15.4,7.3-31.5,6.5-47.7
			c-0.7-13.5-1.8-27-3.2-40.5c-0.6-5.6-0.6-11.6-4.1-16.6c-5.7-8-13.5-11.4-23.3-10.7c-6.2,0.4-6.5,0.3-6.5,6.6
			C635.1,634,635.1,652.6,635.1,671.3z"/>
		<path class="st2" d="M711.1,842.4c6.8-4.5,12.3-10.6,18.4-16c10.7-9.5,21.1-19.3,31.6-29c0.8-0.7,2-1.3,1.7-2.8
			c0,0,0.2,0.2,0.2,0.2c1.4,0.2,2.1-0.8,3-1.6c8.7-8,17.4-16,26.1-23.9c13-11.9,26.2-23.6,39.2-35.5c13.6-12.5,27.1-25.1,40.6-37.6
			c1.4,0.2,1.2,1.4,1.2,2.3c0.7,14.9,3.4,29.6,7.4,43.9c5.7,20.2,16,38.5,27,56.4c0.8,1.2,1.8,2.5,3.6,2.1c0,0-0.1-0.1-0.1-0.1
			c0,1.1-0.4,2.7,0.2,3.3c3.3,3.1,2.1,5.9-0.3,8.8c0,0,0.1,0,0.1,0c-5.3,2.1-9.8,5.2-13.1,10c0,0,0.1,0,0.1,0
			c-2.2-0.1-3.6,0.8-4.1,3c0,0,0.1,0,0.1,0c-2.2-0.1-3.6,0.8-4.1,3c0,0,0.1,0,0.1,0c-3.9,1.2-7.1,3.3-9.1,7c0,0,0.1,0,0.1,0
			c-2.2-0.1-3.7,0.8-4.1,3c0,0,0.1,0,0.1,0c-2.2-0.1-3.6,0.8-4.1,3c0,0,0.1,0,0.1,0c-3.9,1.2-7.2,3.3-9.1,7c0,0,0.1,0,0.1,0
			c-2.2-0.1-3.7,0.7-4.1,3c0,0,0.1,0,0.1,0c-2.2-0.1-3.6,0.8-4.1,3c0,0,0.1,0,0.1,0c-4,1.1-7.2,3.2-9.1,7c0,0,0.1,0,0.1,0
			c-2.2-0.1-3.7,0.7-4.1,3c0,0,0.1,0,0.1,0c-2.2-0.1-3.7,0.8-4.1,3c0,0,0.1,0,0.1,0c-2.2-0.1-3.6,0.8-4.1,3c0,0,0.1,0,0.1,0
			c-3.9,1.2-7.1,3.3-9.1,7c0,0,0.1,0,0.1,0c-2.2-0.1-3.7,0.8-4.1,3c0,0,0.1,0,0.1,0c-2.2-0.1-3.6,0.8-4.1,3c0,0,0.1,0,0.1,0
			c-3.9,1.1-7.1,3.3-9.1,7c0,0,0.1,0,0.1,0c-2.2-0.1-3.7,0.7-4.1,3c0,0,0.1,0,0.1,0c-2.2-0.1-3.6,0.8-4.1,3c0,0,0.1,0,0.1,0
			c-4.3,1-7.1,4.1-10,7.1c0,0,0,0,0,0c-1.6,0.5-3.1,1-3.1,3c0,0,0.1,0,0.1,0c-2.2-0.1-3.6,0.8-4.1,3c0,0,0.1,0,0.1,0
			c-2.2-0.1-3.6,0.8-4.1,3c0,0,0.1,0,0.1,0c-3.9,1.2-7.1,3.3-9.1,7c0,0,0.1,0,0.1,0c-2.2-0.1-3.7,0.8-4.1,3c0,0,0.1,0,0.1,0
			c-2.2-0.1-3.6,0.8-4.1,3c0,0,0.1,0,0.1,0c-3.9,1.2-7.2,3.3-9.1,7c0,0,0.1,0,0.1,0c-2.2-0.1-3.7,0.7-4.1,3c0,0,0.1,0,0.1,0
			c-2.2-0.1-3.6,0.8-4.1,3c0,0,0.1,0,0.1,0c-4.3,1-7.1,4.1-10,7.1c0,0,0,0,0,0c-1.6,0.5-3.1,1-3.1,3c0,0,0.1,0,0.1,0
			c-2.2-0.1-3.6,0.8-4.1,3c0,0,0.1,0,0.1,0c-2.2-0.1-3.6,0.8-4.1,3c0,0,0.1,0,0.1,0c-3.9,1.2-7.1,3.3-9.1,7c0,0,0.1,0,0.1,0
			c-2.2-0.1-3.7,0.8-4.1,3c0,0,0.1,0,0.1,0c-2.2-0.1-3.6,0.8-4.1,3c0,0,0.1,0,0.1,0c-3.9,1.2-7.1,3.3-9.1,7c0,0,0.1,0,0.1,0
			c-2.2-0.1-3.7,0.7-4.1,3c0,0,0.1,0,0.1,0c-2.2-0.1-3.6,0.8-4.1,3c0,0,0.1,0,0.1,0c-3.9,1.2-7.2,3.2-9.1,7c0,0,0.1,0,0.1,0
			c-2.2-0.1-3.7,0.7-4.1,3c0,0,0.1,0,0.1,0c-2.2-0.1-3.6,0.8-4.1,3c0,0,0.1,0,0.1,0c-1.3-0.9-2.6,1.7-4.2-0.2
			c4.4-15.6,8.8-31.4,13.1-47.1c5.1-18.5,10.3-37.1,15.4-55.6C702.7,874.8,706.8,858.6,711.1,842.4z"/>
		<path class="st2" d="M1028.9,271.6c0,0-0.1,0.1-0.1,0.1c-0.1,1.1,0.2,2.1,1.1,2.9c0,0-0.1,0.1-0.1,0.1c0.4,2,0.6,4,1.2,5.8
			c4.5,14.6,9.2,29.2,13.8,43.8c2.9,9.3,5.8,18.6,8.6,28c-2.1,0.6-3.1-0.4-4.2-1c-11.7-6.2-23.9-10.9-36.5-14.8
			c-24.1-7.4-48.7-10.8-73.7-7.1c-23.9,3.6-45.9,12.4-65.2,27.2c-2,1.6-3.8,3.7-6.5,4.2c-0.9-1.5-0.3-2.8,0.1-4
			c9.3-28.3,18.6-56.6,28-84.9c10.8-32.5,21.7-65,32.5-97.4c11.1-33.4,22.2-66.9,33.4-100.3c0.6-1.9,0.4-5.6,4.5-4
			c0.1,0.3,0.1,0.7,0.2,1c0.1,4.5,1.5,8.6,3.8,12.5c0,0-0.1,0.1-0.1,0.1c-0.1,1.1,0.2,2.1,1.1,2.9c0,0-0.1,0.1-0.1,0.1
			c0.7,5.6,2.2,11,5.1,15.9c0,0-0.1,0.1-0.1,0.1c-0.1,1.1,0.2,2.2,1.1,2.9c0,0-0.1,0-0.1,0c0.4,4.6,1.6,9,4.1,12.9
			c0,0-0.1,0.1-0.1,0.1c-0.1,1.1,0.2,2.1,1.1,2.9c0,0-0.1,0.1-0.1,0.1c0.7,5.6,2.2,11,5.1,15.9c0,0-0.1,0.1-0.1,0.1
			c-0.1,1.1,0.2,2.2,1.1,2.9c0,0-0.1,0-0.1,0c0.4,4.6,1.6,9,4.1,12.9c0,0-0.1,0.1-0.1,0.1c-0.1,1.1,0.2,2.1,1.1,2.9
			c0,0-0.1,0.1-0.1,0.1c0.4,4.6,1.6,9,4.1,12.9c0,0-0.1,0.1-0.1,0.1c0,1.1,0.2,2.1,1.1,2.9c0,0-0.1,0-0.1,0c0.7,5.6,2.2,11,5.1,15.9
			c0,0-0.1,0.1-0.1,0.1c-0.1,1.1,0.2,2.2,1.1,2.9c0,0-0.1,0-0.1,0c0.4,4.6,1.6,9,4.1,12.9c0,0-0.1,0.1-0.1,0.1
			c-0.1,1.1,0.2,2.1,1.1,2.9c0,0-0.1,0-0.1,0c0.4,4.6,1.6,9,4.1,12.9c0,0-0.1,0.1-0.1,0.1c0,1.1,0.2,2.1,1.1,2.9
			c0,0-0.1,0.1-0.1,0.1c0.4,4.6,1.6,9,4.1,12.9c0,0-0.1,0.1-0.1,0.1c0,1.1,0.2,2.1,1.1,2.9c0,0-0.1,0.1-0.1,0.1
			c-0.1,1.1,0.2,2.2,1.1,2.9c0,0-0.1,0-0.1,0c0.4,4.6,1.6,9,4.1,12.9c0,0-0.1,0.1-0.1,0.1c-0.1,1.1,0.2,2.2,1.1,2.9c0,0-0.1,0-0.1,0
			C1025.3,263.3,1026.5,267.6,1028.9,271.6z"/>
		<path class="st3" d="M1216.1,739.9c1.9,8,4,16,5.7,24.1c1,4.6,2.6,7.6,8,8.3c4.8,0.6,9.3,3,14.1,3.6c4.4,0.6,6.1,2.4,5.6,6.6
			c-0.1,1.1-0.2,2.4,0.1,3.5c2.4,11.2-4.1,18.1-11.3,25.2c-7.9,7.7-15,16.1-22.4,24.2c-4.6,5-9.2,9.9-13.6,15c-2,2.3-3.5,2.8-6,0.5
			c-2.2-1.9-4-4.5-7.2-5.1c0,0,0,0.1,0,0.1c-1.2-2.6-3.2-4.2-6-5l0,0c-0.9-2.2-2.6-3.6-5-4l0,0c-1.2-2.6-3.2-4.3-6-5l0,0
			c-2.9-3.9-6.6-6.9-11-9l0,0c-2.9-3.9-6.6-6.9-11-9l0,0c-6.6-6.9-13.9-12.9-22-17.9l0,0c-2.9-4-6.5-7-11-9l0,0c-2.8-4-6.5-7-11-9
			l0,0c-2.8-4-6.5-7-11-9l0,0c-4.2-5.8-10.5-9.4-15.8-13.9c-3.8-3.2-7.2-7.2-12.2-9.1l0,0c-3.3-4.4-7.5-7.9-12.6-10.1
			c-0.1-0.8-0.5-1.7-0.2-2.4c6.1-17.6,7.4-35.9,8.5-54.2c1.1-18.6-2-36.6-8.8-54c-1.2-3.2-4.2-6.8-3.4-9.3c0.8-2.7,5.2-4.2,8-6.3
			c5.8-4.2,10.9-9.4,17.5-12.5c0.7,7.8,1.3,15.7,2.1,23.5c0.2,1.8,1.4,3.1,3.5,3.5c5.6,1.2,11.1,2.6,16.6,4c2.2,0.5,3.5,1.3,3.9,4
			c0.9,5.8,2,11.5,2.8,17.3c0.4,2.8,0,7.3,3.8,7.4c5.1,0,10.1,2.1,15.2,1c1,0.4,2.4-0.3,3,1.1c1.8,6.7,3.5,13.4,5.3,20.1
			c0.3,2.1,1.9,1.8,3.4,2c4.2,0.5,8.1-1,12.2-1.1c5.1-0.7,6,2.8,7.1,6.6c1.6,5.6,2.5,11.6,5.9,16.6c0.4,1,1.2,0.9,2,0.9
			c7.3,0.4,14.6,0.8,21.9,1.1c1,5.8,1.8,11.7,2.9,17.5c0.6,3.2-0.6,6.7,1.6,9.6c-0.6,2,0.6,2.6,2.3,2.8c3.8,0.6,7.8,0.9,11.4,2
			C1207.4,738.2,1212.4,736.5,1216.1,739.9z"/>
		<path class="st1" d="M1263.9,489c0.1-2.1,1.6-3.2,3-4.4c9-7.9,18-15.8,27-23.7c2.2-2,4.6-2.8,7.7-2.8c25.6,0,51.2,0,76.8-0.2
			c4.4,0,6.4,1,5.7,5.7c-0.3,2.1,0,4.3,0.1,6.5c0,19-0.3,38,0.1,56.9c0.2,10-2.2,19.3-4.9,28.7c-7.9,26.9-17.1,53.5-23.6,80.8
			c-3.7,15.4-5.8,31-7.9,46.6c-2.9,21.9-1.5,43.8-1.7,65.7c0,4.9-1.5,6.1-6.2,5.9c-10.8-0.4-21.6-0.3-32.5-0.1
			c-3.3,0-4.7-0.6-4.7-4.3c0.1-18.9,0.1-37.9,1.4-56.8c1.4-19.2,6.1-37.9,10.6-56.7c6.7-27.9,16.4-54.7,25.7-81.7
			c1.4-4,2.3-8.1,3.4-12.2c-0.5-1.8,2-4.7-2.4-4.9c-11.7-0.6-23.3-1.3-35-0.9c-1.3,0-3.1-0.8-3.6,1.4c-0.8,0.6-0.7,1.4-0.7,2.2
			c-0.2,20.1,0,40.1,0.8,60.1c-1.8,0.8-3.6,1.2-5.7,1.3c-10.1,0.2-20.1,0.5-30.2,0.8c-0.4-1.6-1.8-1.8-3.1-1.9c0-15,0-30,0-45
			c0.1-9.6,0.3-19.2,0.3-28.8C1264.1,514.5,1264,501.8,1263.9,489z"/>
		<path class="st0" d="M1075.9,597.1c-6.6,3.1-11.7,8.3-17.5,12.5c-2.8,2-7.1,3.6-8,6.3c-0.8,2.5,2.2,6.2,3.4,9.3
			c6.8,17.4,10,35.5,8.8,54c-1.1,18.3-2.5,36.7-8.5,54.2c-0.2,0.7,0.1,1.6,0.2,2.4c-0.9,0.4-1.2,1.1-1.1,2.1
			c-4.4,9.5-7.8,19.4-12.5,28.8c-5.6,11.4-12.7,21.7-20.1,31.9c-2.6,3.6-3.9,6,0.9,8.4c1.1,0.5,2.5,1.2,2.4,2.9
			c-0.8-0.3-1.7-0.4-2.3-0.9c-2.9-2.6-5.5-3.7-8.5,0.1c-2.3,2.9-4.4,1.8-6.2-1.1c-3.7-5.7-7.6-11.2-11.4-16.9
			c-3.8-5.6-6.2-5.5-9.6,0.2c-4.4,7.4-8.8,14.8-13.4,22c-4.5,7.2-6,7.1-10.6,0.3c-5.8-8.7-11.6-17.3-17.5-26
			c-2.6-3.8-3.9-3.9-6.5-0.2c-4.8,6.9-9.7,13.7-15.1,20.1c-1.9,2.3-3.6,3.7-6.6,3.2c-2.2-0.4-3.4,2-5.5,2c2.4-2.9,3.5-5.7,0.3-8.8
			c-0.6-0.6-0.1-2.2-0.2-3.3c2.5,1,3.6,3.5,4.6,5.5c2,4.1,3.5,2.4,5.2,0.2c6.3-8.2,12.6-16.3,18.6-24.6c2.2-3,3-2.5,4.8,0.2
			c6.6,10,13.8,19.7,20.2,29.9c2.6,4.2,3.8,2.5,5.5-0.1c6.1-9.4,12.3-18.8,18.3-28.4c1.9-3,3-4,5.3-0.1c4.6,7.5,9.7,14.6,14.7,21.8
			c1.1,1.6,2.6,4.6,4.9,0.7c8.3-13.8,18.4-26.5,25.6-41c10.1-20.3,17.4-41.3,19.5-64c3.9-3.1,1.8-5.2-1.3-7.2
			c3.2-1.5,1.9-4.4,2.3-6.8c2.1-0.6,2.4-1.6,0.8-3.1c0.5-6.7,0.5-13.3,0-20c1.6-1.5,1.3-2.5-0.8-3.1c-0.1-4.8-3-3.1-5.4-2.3
			c-9.2,3.3-18,7.6-27.6,9.7c-3.4,0.8-7.8,1.5-6.2,7.4c2.2,8.1,2,16.5,2.8,24.7c0.3,3.1,1.6,3.4,4,2.8c0,0.5,0,1,0.1,1.5
			c-2.2,0.8-4.5,1.4-6.9,1.3c0-0.4-0.1-0.8-0.1-1.3c0.6-7.6-0.6-15.1-1.8-22.5c-0.5-3.4,1.4-8-1-9.9c-2.3-1.9-6.6,0.1-10,0.6
			c-11.6,1.8-23.2,3.3-35,4c-1.9,0.1-2.2,1-2.1,2.5c0.1,9.3,0.1,18.6,0.1,27.9c0,1.2-0.1,2.6,1.5,2.5c7.4-0.3,14.9,1.1,22.2-0.8
			c0.3,0.6,0.6,1.1,1,1.7c-4.9,0.4-9.9,1-14.8,1.1c-14.1,0.4-28.2,0.3-42.2-1.1c-5.8-0.6-11.6-1.8-17.4-2.7
			c-14.2-2.2-27.8-6.4-41.2-11.6c-3.8-1.5-3.5,0.3-3.5,2.7c0.1,6.1,1.3,12,2,18c2.8,24.4,11.9,46.5,23.9,67.5
			c3.1,5.4,7.1,10.1,9.2,16c-1.9,0.5-2.8-0.8-3.6-2.1c-11-17.8-21.3-36.1-27-56.4c-4-14.3-6.7-28.9-7.4-43.9c0-0.9,0.2-2.1-1.2-2.3
			c-0.1-0.6-0.2-1.1-0.2-1.7c0.9-1.6,1.6-3.2,1.3-5.1c-1.4-11.5,0.2-22.9,0.2-34.4c1.8-0.6,2.4-1.5,1-3.1c0.2-1.9,0.4-3.9,0.7-5.8
			c1.1-0.6,1.5-1.3,0.3-2.2c0-0.6-0.1-1.3-0.1-1.9c-0.2-1-0.4-2-0.5-3c1.2-1.2,1.6-2.8,1.9-4.4c0.9-4.8,1.4-9.9,3.3-14.3
			c1.9-4.4,0.4-6.1-3-8.5c-17.1-12.1-32.1-26.3-42.1-45.1c-0.7-1.3-1-3.5-3.5-2.3c-0.4-2.8,1-6-1.8-8.4c-2.5-4.1-3.5-9.8-10.2-9.2
			c-0.1-0.6-0.2-1.2-0.3-1.7c0.1-1,0.2-2.1,0.4-3.1c1,0.6,2,1.7,3.1,0.9c1.2-0.8-0.1-2.2-0.3-2.9c-3.4-8.8-5.2-17.9-7.1-27.1
			c-0.8-3.7,0.6-8.4-3.6-11.4c-3.1-2.2-4.9-5.6-6.9-8.8c-0.9-1.5-2.8-2.7-1.7-4.6c1.1-1.9,3.5-1.4,5-1c4,1.1,4.1-0.8,4.2-4
			c0.4-12.8-0.4-25.6,2-38.5c5.4-28.6,19.5-52.1,40.1-72.1c2.6-2.5,6.3-3.8,7.6-7.5c2.4-0.8,2.7-3.2,3.3-5.1
			c32.3-96.9,64.5-193.8,96.7-290.7c0.5-1.4,0.4-4,2.5-3.7c2.5,0.3,1.7,2.8,1.8,4.5c-4.1-1.6-3.8,2.1-4.5,4
			c-11.2,33.4-22.3,66.8-33.4,100.3c-10.8,32.5-21.7,65-32.5,97.4c-9.4,28.3-18.7,56.6-28,84.9c-0.4,1.2-1,2.5-0.1,4
			c2.7-0.6,4.5-2.7,6.5-4.2c19.4-14.8,41.3-23.6,65.2-27.2c25-3.7,49.6-0.3,73.7,7.1c12.6,3.9,24.8,8.7,36.5,14.8
			c1.1,0.6,2.1,1.7,4.2,1c-2.9-9.3-5.7-18.7-8.6-28c-4.6-14.6-9.2-29.2-13.8-43.8c-0.6-1.9-0.8-3.9-1.2-5.8
			c7.5,16,11.3,33.2,16.9,49.8c3.1,9.1,6,18.3,8.8,27.5c0.7,2.2,1.7,3.8,3.6,5.1c20.3,13.8,35.6,32.3,47.7,53.5
			c2.4,4.2,4.9,6.3,9.7,5.6c1.3-0.2,2.7-0.3,3.7,0.9c-1.6,0-3.3-0.1-4.9,0c-1.3,0.1-3.8-0.8-3.7,1c0.1,1.8,0.3,4.8,3.6,4.7
			c0.3,0.4,0.5,0.8,0.8,1.2c-1.7,1.4-0.9,2.8-0.2,4.4c3.6,8.4,5.2,17.2,6.5,26.2c0.4,2.8-1,6.6,2.6,8.5c0.1,0.9,0.3,1.9,0.4,2.8
			c-2.2,1.1-1.4,3.2-1.4,4.9c-0.1,5.3,0.3,10.6-0.1,15.9c-0.4,4.8,1.3,5.7,5.4,4.1c0.8,0.1,1.5,0.3,2.3,0.4c0.5,1.4,0.9,2.8-0.1,4.2
			c-2.1,3.1-2.6,6.6-2.9,10.2c-1.1-0.3-1.5-3.7-3.3-0.7c-4.3,3.2-4.3,8.3-5.1,12.8c-5.3,28.6-18,53.3-38.9,73.7
			c-1.4,1.4-3.2,2.5-3.3,4.8C1077,596.1,1076.2,596.1,1075.9,597.1z M876.7,693.8c8.7,2.9,17.4,5.9,26.2,8.7
			c1.7,0.5,3.7,1.8,4.2-1.8c1.1-9.4,2.6-18.7,4-28c0.4-2.4-0.4-4.1-2.8-4.8c-9.8-3-19.3-6.7-28.7-10.8c-1.6-0.7-2.9-0.8-3.8,1.9
			c-1,3.1-0.3,5.9-0.4,8.7c-0.2,8.5-0.9,16.9,0.7,25.4C876,693.8,876.2,694.1,876.7,693.8z M1067.1,401.3c-1.7,2.8-1.6,5.6-0.1,8.4
			c1,5.5,0.7,11.2,2.8,16.5c8.3,22.1,25.1,35.2,46.2,43.8c4.6,1.9,5.3-0.1,5-3.8c-0.6-8.2-1.9-16.3-3.6-24.3
			c-2.9-13.9-10.4-25.6-17.5-37.5c-14-23.3-32.5-41.9-57.2-53.6c-21.6-10.3-44.4-17-68.2-19.7c-19.9-2.3-39.5,0.1-58.6,6.4
			c-17,5.7-32.1,14.4-46.1,25.5c-12.8,10.1-24.6,21.4-33.8,34.9C821,420,814,444.4,814.3,470.9c0,3.2,1.2,3.6,3.8,3.1
			c6.5-1.3,12.7-3.2,18.5-6.6c20.8-12.4,26.7-32.7,29.6-54.7c1.5-11.5,0.2-22.8-5.5-33.2c-0.7-1.2-1.6-2.6-0.1-3.4
			c1.4-0.7,2.4,0.6,3,1.9c0.7,1.5,1.5,2.9,2.4,4.2c11.9,16.7,28.1,28.6,45.4,39c23.4,14,48.7,17.7,75.1,10.6c20-5.4,38-15.3,54-28.6
			c10-8.3,19.3-17.3,28.1-26.9c0.8-0.9,1.5-2.9,3-1.8c1,0.7,0.5,2.3,0,3.7C1068.7,385.6,1067.9,393.5,1067.1,401.3z M868.2,415.1
			c-0.1,4.5-1.3,8.8-2.2,13.1c-5.6,25.6-20.3,42.7-46.7,48.1c-4.4,0.9-5.7,2.3-5.5,6.8c0.2,4.3,0.6,7.2,5.6,7.8c2.4,0.3,4.7,1.2,7,2
			c21.2,6.7,42.3,13.8,63.6,20c21.7,6.4,43.2,13.6,64.9,20.2c1.6,0.5,4,0.9,4,3c0,1.7-1.6,2.9-3.1,4.1c-6.9,5.2-13.7,10.7-20.4,16.1
			c-12.4,10.1-25,19.9-38.6,28.3c-3.6,2.2-7.4,2.3-10.9-0.6c-13.7-11.1-25-24.5-36.4-37.9c-8.7-10.2-17.7-20.1-26.6-30.2
			c-0.8-0.9-1.7-2.5-3.2-1.8c-1.4,0.7-0.3,2.4-0.6,3.6c-0.2,0.8,0.3,1.6,0.4,2.3c2.6,14.3,8.2,27.5,14.6,40.5
			c12.6,25.6,32.5,44,57,57.2c18.2,9.8,38.8,13.2,59.1,15c24.9,2.2,49.5-0.9,73.6-8.6c21.3-6.8,38.2-19.8,54.5-34
			c9.4-8.2,16.6-18.2,22.9-28.9c7.1-11.9,11.7-24.9,14.6-38.4c0.3-1.4,2.1-3.8-0.2-4.6c-1-0.3-2.8,1.7-4.2,2.7
			c-0.2,0.2-0.3,0.6-0.5,0.8c-4.9,5.8-9.7,11.7-14.7,17.4c-7,7.9-14.3,15.7-21.5,23.5c-5.4,5.9-10.7,11.8-16.3,17.5
			c-6.2,6.3-9.3,6.5-16.5,1.3c-19.7-14.2-39.2-28.5-58.9-42.8c-3.2-2.3-3.5-3.9,0.4-5.8c12.8-6.2,26.4-10,40-13.8
			c17.3-4.9,34.7-9.4,52.1-14c13.9-3.7,27.9-7.3,41.9-10.8c2.6-0.6,3.7-1.7,3.6-4.3c0-4.5,0.1-9,0.1-13.5c0-1.4-0.2-2.2-2-2.7
			c-11.9-3.3-22.3-9.5-31.8-17.5c-15.4-13-23-29.3-23.5-49.2c-0.2-6.6,1.2-13.1,2.4-19.5c0.2-1.2,1.4-2.5-0.1-3.4
			c-1.4-0.8-2.4,0.5-3.3,1.5c-1.5,1.6-3,3.1-4.6,4.6c-11.3,11-22.9,21.6-37,29.1c-14.2,7.6-28.4,14.4-44.7,16.9
			c-23,3.5-44.5-0.2-64.6-11.4c-14.9-8.3-28.1-19.1-40.4-30.9c-0.9-0.8-1.5-2.6-3.1-1.8c-0.9,0.4-0.4,1.8-0.2,2.8
			c-0.2,0.8-0.5,1.7,0.8,2c0.1,4.7,0.1,9.4,0.2,14.1C867,412,868.3,413.7,868.2,415.1z M967.3,654.9c0,0-0.1,0-0.1,0
			c0-5-0.2-10,0.1-15c0.2-3.4-1.1-4.2-4.2-4c-12.7,0.7-25-2.4-37.5-4.2c-7.1-1.1-6.8-1.4-7.7,5.6c-0.8,6.4-0.9,12.9-2.6,19.3
			c-2.1,7.8-0.7,10.9,4.9,12c14.4,3,28.8,5.8,43.7,5.4c2.8-0.1,3.7-0.8,3.6-3.6C967.2,665.2,967.3,660.1,967.3,654.9z M967.6,693.9
			c-0.1,0-0.1,0-0.2,0c0-4.7-0.1-9.3,0-14c0-1.9-0.1-3.2-2.6-3c-4.1,0.3-8.2-0.7-12.3-0.9c-12.3-0.5-24.2-3-36-5.9
			c-2.8-0.7-3.3,0.3-3.6,2.9c-0.9,9.4-1.7,18.9-3.3,28.2c-0.6,3.1,0.6,3.3,2.5,3.7c17.2,3.7,34.7,5.2,52.2,5.6
			c2.4,0,3.3-0.7,3.2-3.1C967.5,702.9,967.6,698.4,967.6,693.9z M969.8,654.7c0.1,0,0.1,0,0.2,0c0,5,0.2,10-0.1,15
			c-0.2,3.7,1.2,4.5,4.5,4.4c4.3-0.2,8.5-0.7,12.7-1c8.6-0.6,17-2.5,25.5-3.8c5.1-0.8,4.7-3.7,4.2-6.5c-1.5-8.5-2.3-17.1-2.9-25.8
			c-0.4-6-1.8-7.4-7.5-5.8c-9,2.6-18.2,3.6-27.6,3.8c-9.1,0.2-9.1,0.3-9.1,9.3C969.8,647.7,969.8,651.2,969.8,654.7z M1016.2,632.6
			c0.9,10.5,1.9,21.5,2.9,32.4c0.3,3.4,3.1,2.1,4.5,1.7c11.2-3,21.8-7.7,32.7-11.8c1.4-0.5,2.2-1.5,1.9-3.5c-1.3-11-5-21.1-9.1-31.3
			c-0.9-2.3-2.3-2.5-4.3-1.6c-8.5,3.8-17.2,7.4-26.2,9.8C1016.5,628.9,1015.3,629.9,1016.2,632.6z M916.1,631.9
			c0.1-0.9,0.3-3-2.7-3.6c-9.3-1.9-18.1-5-26.3-9.7c-2.5-1.4-4.2-1-5.2,2.7c-2.3,9.3-4.3,18.6-5.1,28.1c-0.3,2.9,0,3.6,2.5,4.8
			c9.5,4.4,19.3,7.9,29.2,11.1c2.3,0.8,3.2,0.2,3.4-1.7C913.3,653.5,914.6,643.3,916.1,631.9z M851.2,506c-6.2,0-9.3,2.7-9.2,8.2
			c0.1,5.9,2.9,8.8,8.5,9c6.1,0.3,9.2-3,9.5-9C860.3,508.1,857.8,506,851.2,506z M1014,526c-5.5,0-8.9,2.8-9,7.4
			c-0.1,5,3.1,9,7.2,8.6c5.8-0.5,9.1-3.7,9-8.1C1021,528.5,1019,526,1014,526z"/>
		<path class="st1" d="M653.1,418c-7.2-8.5-16-15.5-23-24.2c-5-6.3-7.6-13.3-6.9-21.5c0.2-2.1,1.4-3.6,2.7-5.1
			c25.1-31.1,51-61.5,76.9-92c7.5-8.9,15.3-17.6,22.8-26.5c2.6-3.1,4.8-3.7,8.4-1.6c13.5,7.5,25,17.7,36.6,27.6
			c18.1,15.5,36.3,30.9,53.7,47.1c10.6,9.9,11.1,19,1.5,29.9c-32.3,36.8-64.7,73.4-97.1,110.2c-1.1,1.2-2.6,2.2-2.9,4
			c-1,1.1-2.2,2-3,3.3c-2.2,3.3-4.5,3.7-7.8,1.2c-3.8-2.9-8-5.3-11.8-8.2C685.6,448.4,669.3,433.2,653.1,418z M740.2,293.9
			c-3.4-0.8-5.8,1.3-8,3.6c-5.3,5.5-10.5,11.2-15.8,16.7c-16.7,17.4-33.6,34.7-50.2,52.2c-5.2,5.5-4.8,9.1,0,14.8
			c6.9,8,15.2,14.4,23.3,21.1c4.8,4,6.4,4,11-0.3c1.2-1.1,2.4-2.3,3.5-3.6c15.5-17.4,31.9-34,47.8-50.9c5.3-5.7,10.3-11.7,15.1-17.9
			c3.7-4.7,3.1-8.8-0.4-13.6c-5.2-7-11.8-12.6-18.1-18.6C746.3,295.3,743.9,293.3,740.2,293.9z M716,424c-5.1,0-9.2,3.9-9.1,9
			c0,4.2,4.6,9,8.8,9.1c4.7,0.2,9.3-4.4,9.4-9.3C725.2,427.6,721.5,424,716,424z M801.1,343.6c0-4.6-4.2-8.7-8.8-8.7
			c-4.4,0-9.3,4.8-9.4,9.1c0,4.6,4.9,9.2,9.7,9.2C797.2,353.2,801.1,348.8,801.1,343.6z"/>
		<path class="st2" d="M1024.1,809.9c0.1-1.7-1.3-2.3-2.4-2.9c-4.8-2.4-3.4-4.9-0.9-8.4c7.3-10.2,14.4-20.5,20.1-31.9
			c4.7-9.4,8.1-19.3,12.5-28.8c2.1-0.2,3.2,1.5,4.8,2.3c3.2,1.6,4.6,5.9,8.9,5.7c0,0,0,0,0,0c-0.3,0.9,0.1,1.6,0.7,2.2
			c8.3,6.8,16.6,13.7,24.9,20.5c0.7,0.5,1.5,0.7,2.3,0.3c0,0,0,0,0,0c2.4,4.5,6.1,7.6,11,9c0,0,0,0,0,0c2.4,4.5,6,7.6,11,9
			c0,0,0,0,0,0c2.4,4.5,6,7.6,11,9c0,0,0,0,0,0c6.1,7.6,13.2,13.8,22,17.9c0,0,0,0,0,0c2.2,4.8,6,7.6,11,9c0,0,0,0,0,0
			c2.2,4.8,6,7.6,11,9c0,0,0,0,0,0c0.7,3.2,2.6,5,6,5c0,0,0,0,0,0c0.5,2.8,2.1,4.3,5,4l0,0c0.7,3.2,2.6,5,6,5c0,0,0-0.1,0-0.1
			c1.3,4.8,5.8,6.4,9.3,8.9c1.8,1.3,3.3-0.8,4.5-2.1c4.4-4.7,8.8-9.4,13.8-14.8c2.2,6.1,4.3,11.6,6.3,17.1
			c14.6,41.7,29.2,83.3,43.8,125c0.8,2.2,1.6,4.4,1.5,6.8c-0.7,0.1-1.4,0.1-2.1,0.2c0,0,0.1,0,0.1,0c-0.9-3-3.6-3.8-6.1-5l0,0
			c-1.3-1.7-2.6-3.3-5-3.1c0,0,0.1,0,0.1,0c-0.9-3-3.6-3.9-6.1-5l0,0c-1.3-1.7-2.6-3.3-5-3.1c0,0,0.1,0,0.1,0
			c-0.4-2.3-1.9-3.1-4.1-3c0,0,0.1,0,0.1,0c-1.4-3-3.8-4.6-7.1-5c0,0,0.1,0,0.1,0c-0.4-2.3-1.9-3.1-4.1-3c0,0,0.1,0,0.1,0
			c-2.7-4-6.4-6.7-11.1-8c0,0,0.1,0,0.1,0c-0.4-2.3-1.9-3.1-4.1-3c0,0,0.1,0,0.1,0c-0.9-3-3.6-3.8-6.1-5c0,0,0,0,0,0
			c-1.3-1.7-2.6-3.3-5-3.1c0,0,0.1,0,0.1,0c-2.3-4-6.3-5.9-10.1-8c0,0,0,0,0,0c-1.3-1.7-2.6-3.3-5-3.1c0,0,0.1,0,0.1,0
			c-0.9-3-3.6-3.9-6.1-5l0,0c-1.3-1.7-2.6-3.3-5-3.1c0,0,0.1,0,0.1,0c-0.4-2.3-1.9-3.1-4.1-3c0,0,0.1,0,0.1,0c-0.9-3-3.6-3.8-6.1-5
			l0,0c-1.3-1.7-2.6-3.3-5-3.1c0,0,0.1,0,0.1,0c-2.7-4-6.4-6.7-11.1-8c0,0,0.1,0,0.1,0c-0.4-2.3-1.9-3.1-4.1-3c0,0,0.1,0,0.1,0
			c-0.9-3-3.6-3.9-6.1-5c0,0,0,0,0,0c-0.3-1-1.3-0.9-2.1-1.1c0,0,0.1,0.1,0.1,0.1c-0.2-1.2-0.8-1.9-2.1-2.1l0.1,0
			c-3.2-3.3-6.9-6-11-8l0,0c-1.3-1.7-2.6-3.3-5-3.1c0,0,0.1,0,0.1,0c-2.7-4-6.4-6.7-11.1-8c0,0,0.1,0,0.1,0c-0.4-2.3-1.9-3.1-4.1-3
			c0,0,0.1,0,0.1,0c-0.9-3-3.6-3.8-6.1-5l0,0c-1.3-1.7-2.6-3.3-5-3.1c0,0,0.1,0,0.1,0c-2.3-4-6.3-5.9-10.1-8l0,0
			c-1.3-1.7-2.6-3.3-5-3.1c0,0,0.1,0,0.1,0c-2.3-4-6.3-5.9-10.1-8l0,0c-1.3-1.7-2.6-3.3-5-3.1c0,0,0.1,0,0.1,0c-0.9-3-3.6-3.9-6.1-5
			l0,0c-1.3-1.7-2.6-3.3-5-3.1c0,0,0.1,0,0.1,0c-0.4-2.3-1.9-3.1-4.1-3c0,0,0.1,0,0.1,0c-0.9-3-3.6-3.8-6.1-5l0,0
			c-1.3-1.7-2.6-3.3-5-3.1c0,0,0.1,0,0.1,0c-2.7-4-6.4-6.7-11.1-8c0,0,0.1,0,0.1,0C1027.7,810.6,1026.1,809.8,1024.1,809.9
			L1024.1,809.9z"/>
		<path class="st1" d="M1128.4,505.6c0.3-3.6,0.8-7.1,2.9-10.2c1-1.4,0.6-2.8,0.1-4.2c2.6-4.8,5.1-9.5,7.7-14.3
			c6.7-9.2,15.5-15.6,26.6-18.1c6.6-1.5,13.4-1.9,20.1-1.8c1.5,0,2.5,0.7,3.4,1.8c14.5,16.9,29,33.8,43.4,50.8
			c0.3,0.3,0.3,0.9,0.5,1.4c-1,6.1,0.7,12,1,18c0.6,13.7,0.9,27.3,0.3,41c-0.7,1.7-0.7,3.3-0.2,5c-0.2,0.7-0.3,1.3-0.5,2
			c-2,1.8-1.1,4.4-1.4,6.5c-1.5,9.3-6.9,15.2-15,19.2c-1.2,0.6-3.3,0.8-3.2,2.6c0.1,1.4,1.9,1.6,3,2.3c1.6,0.9,3.2,1.7,4.8,2.7
			c8.7,5,12.5,12.9,12.9,22.6c1.1,23.9,0.4,47.8,0.8,71.7c0.2,11-0.3,21.9-1.8,32.7c-0.8,5.9-5.3,9.4-10.1,12.3
			c-2.3,1.4-3-0.6-3.5-2.1c-0.9-2.4-1.4-5-2.1-7.4c0-1.8-1-2.6-2.7-2.9c-4.4-0.7-8.8-1.1-13-2.2c-3.9-1.1-8.4,0.6-11.6-2.8
			c-0.7-5.5-1-11-2.2-16.4c-0.8-3.8-0.2-8.1-2.8-11.5c-7.9-1.1-15.8-2.1-23.8-2.3c-1.8-6-3.6-11.9-5.3-17.9
			c-1.9-6.6-1.9-6.6-8.8-5.7c-4.7,0.5-9.3,1.9-14-0.2c-1.1-5.3-3-10.5-3.1-16.1c0.3-0.7,0.8-0.9,1.5-1c9.1-1.7,18.3-0.7,27.5-0.8
			c0.1,9.6,0.3,19.2,3.1,28.3c2.8,9,8.9,13,17.9,12.6c7.7-0.4,13.9-5.7,15.3-14.3c2.3-14,1.7-27.9-0.6-41.9
			c-1.4-8.7-6.7-13.4-14.6-15.5c-3.8-1-7.8-0.9-11.7-1.3c-0.1-0.7-0.3-1.3-0.4-2c0-0.7,0-1.3,0-2c-0.3-12.4-0.6-24.9-0.9-37.3
			c-0.1-6.7-0.1-6.5,6.4-6.8c13.2-0.5,20.7-7.3,22.4-19.5c1.3-9,0.9-18.3,0.1-27.4c0.1-1.2,0.2-2.3,0.2-3.5
			c-0.2-9.1-5.3-16.1-12.7-17.5c-10.7-2.1-16.8,1.2-20.8,11.4c-2.8,7.3-1.9,15-2.3,22.6c-0.4,6.5,0.8,13-0.5,19.4
			c-9.6,0.2-19.3,0.3-28.9,0.6c-2.4,0.1-3.3-0.9-3.3-3.2c-0.1-5.3-0.3-10.6-0.4-16C1128.1,533.1,1128.2,519.4,1128.4,505.6z"/>
		<path class="st1" d="M819.1,546.8c6.7-0.6,7.7,5.1,10.2,9.2c0,6.7,0,13.3-0.1,20c-0.1,29.2-0.1,58.3-0.2,87.5
			c0,2.3,0.3,5.3-3.3,4.5c-2.7-0.6-7.2,3.1-7.8-3.5c-1-10.6-1.9-21.3-4.8-31.7c-2.1-7.4-5.5-12.9-12.8-14c-4-0.6-5.1,0.5-5.1,4.1
			c0.1,6.2-0.1,12.3,0,18.5c0.3,19.8-1.7,39.7,1,59.4c1.2,8.6-2.7,12.3-8.4,16.7c-2.7,2.1-6.3,4.3-6.8,8.6l0,0.1
			c-2.5-1.3-3.4,1.2-4.6,2.3c-9.4,8.5-18.8,16.9-27.9,25.7c-4.6,4.4-9.9,2.7-15,3.2c-1.5,0.1-1.7-1.3-1.7-2.5c0-2.3,0.1-4.7,0-7
			c-0.1-2.3,1.2-3.2,3.3-3.6c1.6-0.3,3.3-0.5,4.9-1c8.8-2.8,12.3-7.5,12.3-16.8c0.2-20,0.4-39.9,0.5-59.9c0-1.8,0.5-3.7-0.6-5.4
			c0.1-16.7,0.2-33.3,0.3-50c0.9-1.7,0.6-3.6,0.6-5.4c0.1-30.2,0.3-60.4,0.4-90.6c0-1.6-0.2-3.3-0.3-4.9c0-5.3,0-10.5,0.2-15.8
			c0-1.1-1.1-3.3,1.8-2.9c2.5,3.2,5.7,5.5,8.9,7.8c10.8,7.7,19,18.7,31,25c1.6,4.9,0,10,0.6,14.9c-1,18.1-0.8,36.2-0.8,54.3
			c0,3.4,1.9,4.4,4.9,3.5c5.3-1.5,9.7-4.3,12-9.6c3.3-7.8,5.5-15.7,5.7-24.2C817.4,557.5,818.4,552.2,819.1,546.8z"/>
		<path class="st3" d="M861.6,365.1c-1.3,3.7-5,5-7.6,7.5c-20.6,20-34.7,43.5-40.1,72.1c-2.4,12.8-1.6,25.7-2,38.5
			c-0.1,3.2-0.2,5.1-4.2,4c-1.5-0.4-3.9-1-5,1c-1,1.9,0.8,3.1,1.7,4.6c2,3.2,3.8,6.6,6.9,8.8c4.2,3,2.8,7.6,3.6,11.4
			c1.9,9.2,3.7,18.4,7.1,27.1c0.3,0.7,1.6,2.1,0.3,2.9c-1.1,0.7-2.1-0.4-3.1-0.9c-0.4-1.2-1.7-0.9-2.4-1.6c-0.5-0.4-1.1-0.6-1.5-1.1
			c-6.3-6-12.8-11.7-20.1-16.5c-12.5-12-26.2-22.5-39.9-33c-1.2-1.2-2-3-4.1-2.8c-3-3.8-6.7-6.8-11-9c-3-3.8-6.7-6.8-11-9
			c-0.4-0.5-0.7-1-1.1-1.5c-0.2-2.4,1.8-3.4,3.1-4.9c31.2-35.5,62.7-70.7,93.5-106.5c5.8-6.8,11.2-10.5,20.1-9.1
			c4.2,0.7,9.7-1.7,12.6,0.9c2.4,2.2,1.7,7.7,3,11.5C861,361.3,860.3,363.4,861.6,365.1z"/>
		<path class="st1" d="M873.1,655c0,11.5-1.6,22.9-0.2,34.4c0.2,2-0.4,3.6-1.3,5.1c-0.8,0.5-1.7,1-2.4,1.7
			c-22.1,20.1-44.2,40.4-66.4,60.4c-11.4,10.3-22.4,21.1-34.4,30.9c-2.1,1.7-5.5,3.5-5.4,7.3c0,0-0.2-0.2-0.2-0.2
			c-2.3-0.4-3.5,1.4-4.9,2.7c-8.9,8.2-17.9,16.5-26.8,24.7c-6,5.5-12,10.8-18,16.4c-1.9,1.8-3.2,1.7-5-0.1
			c-6.9-7.2-13.9-14.3-21.1-21.4c-2.1-2-2-3.2,0.2-5.1c12.9-11.3,25.9-22.6,38.6-34.1c18.1-16.4,36.1-33.1,54.1-49.7
			c0.6-0.5,1.3-1,1.1-2c0,0,0-0.1,0-0.1c1.9,0.4,2.6-1.2,3.6-2.2c24.9-22.7,49.6-45.6,74.6-68.2c5.1-4.6,9.5-10.2,15.7-13.5
			c0,0.6,0.1,1.3,0.1,1.9c-0.7,0.6-0.9,1.4-0.3,2.2c-0.2,1.9-0.4,3.9-0.7,5.8C873,652.7,872.6,653.7,873.1,655z"/>
		<path class="st1" d="M1124.9,463c-3.7-1.9-2.2-5.7-2.6-8.5c-1.4-9-2.9-17.8-6.5-26.2c-0.7-1.6-1.4-3,0.2-4.4
			c2.9-1.3,5.2-3.3,7.1-5.8c0.7-0.6,1.5-1.2,2.2-1.8c6.1-4.1,11.4-9.1,16.7-14.1c3.1,1.4,3.6,5,5.9,7c0.1,2,1.4,3,3,3.8
			c0,0,0.1,0.1,0.1,0.1c-0.3,1.5,0.2,2.2,1.8,2c0,0,0.1,0.1,0.1,0.1c-0.1,1.5,0.7,2.3,2,2.8c0.6,0.7,1.3,1.4,1.9,2.2
			c1.2,3.2,2.7,6.2,6.1,7.7c0,0,0.1,0.2,0.1,0.2c-1.5,4.1-5.5,5.4-8.6,7.8C1144,444.2,1135.2,454.4,1124.9,463z"/>
		<path class="st1" d="M1254.8,350.1c-0.9,0.1-1.6-0.1-2.2-0.8c-6.1-7.4-12.2-14.8-18.3-22.2c-0.3-0.4-0.2-1.2-0.2-1.9
			c6.9-5.4,13.9-10.7,20.7-16.4c3-2.5,5.1-2.9,7.8,0.3c4.3,5.1,8.8,10,13,15.1c3.1,3.8,1.5,6.2-1.3,8.7c-5.5,4.8-11.1,9.5-16.7,14.3
			C1256.6,348.1,1255.7,349.1,1254.8,350.1z"/>
		<path class="st0" d="M728,467.5c0.4,0.5,0.7,1,1.1,1.5L729,469c-3.2-1.1-5.1,0.8-6.6,3.1c-1.8,2.8-3.5,2.7-6.1,1
			c-4.6-3-9.4-5.8-13.7-9.2c-15.7-12.3-30.6-25.6-45.2-39.4c-1.5-1.4-2.8-2.9-5.5-2.9c-55.1,0.2-110.3,0.3-165.4,0.4
			c-1.2,0-2.6-0.5-4,0.7c0.9,0.8,1.7,1.6,2.6,2.2c8.9,6.7,17.9,13.4,26.7,20.2c10.5,8.1,21.6,15.5,31.6,24.3
			c-0.1,0.1-0.3,0.3-0.4,0.4c-7.8-4.1-14.3-10.2-21.4-15.3c-13-9.5-25.8-19.4-38.6-29.1c-1.3-1-3.4-1.6-2.6-3.7
			c0.7-1.7,2.7-0.9,4-0.9c39.2-0.1,78.3,0.2,117.5-0.3c15.5-0.2,30.9-0.6,46.4-0.6c2.1,0,3.4-0.7,4.7-2.1
			c16.2,15.2,32.5,30.4,50.1,44.1c3.8,2.9,8,5.3,11.8,8.2c3.2,2.5,5.6,2.1,7.8-1.2c0.8-1.2,2-2.2,3-3.3
			C726.6,466.3,727.3,466.9,728,467.5z"/>
		<path class="st0" d="M711.1,842.4c-4.3,16.2-8.4,32.3-12.8,48.5c-5,18.6-10.2,37.1-15.4,55.6c-4.4,15.8-8.8,31.5-13.1,47.1
			c1.6,1.9,2.9-0.7,4.2,0.2c-0.2,0.3-0.2,0.7-0.5,0.9c-1.6,1.4-3,4.1-5.3,2.8c-2-1.2-0.2-3.6,0.3-5.3c12.3-44.7,24.7-89.5,37-134.2
			c1.1-4.2,2.4-8.3,3.4-12.5C709.4,844.1,709.5,842.9,711.1,842.4z"/>
		<path class="st0" d="M577.1,754.6c3.4,1.1,6.9,1,10.4,1c29.5,0.4,59.1,0.8,88.6,1.1c3.6,0,7.3-0.4,10.9-0.7
			c-0.4,2.5-2.5,1.8-4,1.8c-26.8,0-53.6,0.2-80.4-0.3c-7.3-0.1-14.6-0.6-21.9-0.7C579,756.9,577.2,757.2,577.1,754.6z"/>
		<path class="st0" d="M752.4,611c-0.1,16.7-0.2,33.3-0.3,50c-1.7-1.2-1-3-1.1-4.6c0-8.2-0.1-16.3,0.1-24.5c0-2.6-0.3-4.9-2.1-6.9
			c0,0,0,0,0,0c2.7-1.2,1.9-3.6,1.9-5.6c0.2-23.1,0.3-46.3,0.4-69.4c0.9,1.7,0.5,3.6,0.5,5.4c0,16.8,0,33.5,0,50.3
			C751.9,607.4,751.4,609.3,752.4,611z"/>
		<path class="st0" d="M749,625c-6.7-3.1-11.9-8.3-17.8-12.5c-8.7-6.3-17.3-12.9-25.9-19.4c-1.6-1.2-3.3-2.2-4.2-4.1
			c0.1-0.1,0.3-0.3,0.4-0.4c0.6,0.3,1.3,0.5,1.8,0.9c14.7,11,29.4,22.1,44.2,33.2C748.2,623.2,748.9,623.9,749,625L749,625z"/>
		<path class="st0" d="M1263.8,556c0,15,0,30,0,45c-2.7-0.7-1.8-2.9-1.8-4.5c-0.1-10.8-0.1-21.6,0-32.3c0-2.3,0.2-4.5-3.1-4.2
			c0,0-0.1-0.1-0.1-0.1c1.1-1.3,2.3-2.7,3.4-4C1262.8,555.9,1263.3,556,1263.8,556z"/>
		<path class="st0" d="M1233.7,577c0.2-0.7,0.3-1.3,0.5-2c1.3-1.6,1.1-3.3,0.2-5c0.6-13.7,0.3-27.3-0.3-41c0.5,0,1.1-0.1,1.6-0.1
			c0.1,13.6,0.2,27.3,0.3,40.9c0,5.7,0,5.7,4.9,3.2l0.1,0.1C1239.5,576.1,1237.7,578.4,1233.7,577z"/>
		<path class="st0" d="M586,502c-7.8-3.4-13.8-9.4-20.5-14.3c-5-3.7-10.6-6.7-14.5-11.7c0.1-0.1,0.3-0.3,0.4-0.4
			c9.7,6.1,18.4,13.5,27.6,20.3C581.6,497.7,584.6,499,586,502L586,502z"/>
		<path class="st0" d="M1190.8,732c3.3,3.4,7.8,1.8,11.6,2.8c4.2,1.2,8.7,1.5,13,2.2c1.7,0.3,2.7,1.1,2.7,2.9c-0.7,0-1.4,0-2.1-0.1
			c-3.8-3.4-8.7-1.7-13-3c-3.7-1.1-7.6-1.4-11.4-2c-1.7-0.3-2.9-0.8-2.3-2.8C1189.8,732,1190.3,732,1190.8,732z"/>
		<path class="st0" d="M1267,602.9c10.1-0.3,20.1-0.6,30.2-0.8c2,0,3.9-0.5,5.7-1.3c1.5,1.5,0.5,2-0.9,2
			c-11.7,0.4-23.3,1.5-35.1,1.1c-0.3,0-0.5-0.2-0.8-0.3C1266.4,603.4,1266.7,603.1,1267,602.9z"/>
		<path class="st0" d="M1302.7,538.5c0.5-2.2,2.3-1.3,3.6-1.4c11.7-0.4,23.4,0.3,35,0.9c4.4,0.2,1.9,3.2,2.4,4.9
			c-0.8-3.1-2.5-4.1-5.9-4.1c-9.9,0-19.8-0.5-29.8-0.8C1306.4,538,1304.6,538.3,1302.7,538.5z"/>
		<path class="st0" d="M588.9,490c0.1,1,0.1,2,0.2,3c0.1,0.3,0.2,0.7,0.3,1c0,0.7,0,1.3,0,2c-0.8,1.7-0.9,3.4,0.1,5
			c0,1.3,0.1,2.6,0.1,3.8c-1.7-0.3-3.3-0.8-3.6-2.8c0,0,0,0,0,0c2.6-3.7,0.2-8.1,1.5-12C588,490,588.4,490,588.9,490z"/>
		<path class="st2" d="M1115.2,422.7c-3.3,0.1-3.5-2.9-3.6-4.7c-0.1-1.7,2.4-0.8,3.7-1c1.6-0.2,3.3,0,4.9,0
			C1120,420.2,1116.2,420.2,1115.2,422.7z"/>
		<path class="st0" d="M897.9,822.9c3.2-4.8,7.7-8,13.1-10C907.4,817.2,902.8,820.2,897.9,822.9z"/>
		<path class="st0" d="M1429.9,437c-3.1,3.4-6.7,6.2-11,8c-0.1-0.1-0.3-0.3-0.4-0.4c3.3-3.2,6.9-5.9,11-8
			C1429.6,436.7,1429.7,436.9,1429.9,437z"/>
		<path class="st0" d="M1447.9,424c-3.1,3.4-6.7,6.2-11,8c-0.1-0.1-0.3-0.3-0.4-0.4c3.3-3.2,7-5.8,11-8
			C1447.6,423.7,1447.7,423.9,1447.9,424z"/>
		<path class="st0" d="M1151,902.8c4.6,1.4,8.4,4,11.1,8C1157.7,909.1,1154.1,906.3,1151,902.8z"/>
		<path class="st0" d="M1126,883.9c4.1,2,7.8,4.8,11,8C1132.3,890.6,1128.4,888.3,1126,883.9z"/>
		<path class="st0" d="M1110,872.9c4.6,1.4,8.4,4,11.1,8C1116.7,879.1,1113.1,876.3,1110,872.9z"/>
		<path class="st0" d="M1217.9,951.8c4.6,1.4,8.4,4,11.1,8C1224.6,958.1,1221.1,955.3,1217.9,951.8z"/>
		<path class="st0" d="M1251.9,565c-2.5,4.3-6.3,6.8-11,8c0,0-0.1-0.1-0.1-0.1C1244.1,569.7,1247.8,567,1251.9,565L1251.9,565z"/>
		<path class="st0" d="M1028,812.9c4.6,1.4,8.4,4,11.1,8C1034.7,819.2,1031.1,816.3,1028,812.9z"/>
		<path class="st0" d="M1411.9,450c-3.1,3.4-6.7,6.2-11,8c-0.1-0.1-0.3-0.3-0.4-0.4c3.3-3.2,7-5.9,11-8
			C1411.6,449.7,1411.8,449.9,1411.9,450z"/>
		<path class="st0" d="M1192.9,932.9c3.8,2.1,7.8,4,10.1,8C1199,939,1195.1,937,1192.9,932.9z"/>
		<path class="st0" d="M1085,853.9c3.8,2.1,7.8,4,10.1,8C1091,860,1087.1,858.1,1085,853.9z"/>
		<path class="st0" d="M1070,842.9c3.8,2.1,7.8,4,10.1,8C1076.1,849,1072.1,847.1,1070,842.9z"/>
		<path class="st0" d="M976,102.6c-2.8-4.9-4.4-10.3-5.1-15.9C973.1,91.8,975.3,97,976,102.6z"/>
		<path class="st0" d="M987,137.6c-2.8-4.9-4.4-10.3-5.1-15.9C984.1,126.8,986.3,132,987,137.6z"/>
		<path class="st0" d="M1003,188.6c-2.8-4.9-4.4-10.3-5.1-15.9C1000.1,177.8,1002.2,183,1003,188.6z"/>
		<path class="st0" d="M736,945.9c2.9-3,5.7-6.1,10-7.1C743.3,942.1,740.4,945.1,736,945.9z"/>
		<path class="st0" d="M791,903.9c2.9-3,5.7-6.1,10-7.1C798.3,900.1,795.4,903.2,791,903.9z"/>
		<path class="st0" d="M716,961.9c1.9-3.8,5.1-5.9,9.1-7C722.7,958.1,719.6,960.3,716,961.9z"/>
		<path class="st0" d="M880.9,835.9c1.9-3.8,5.1-5.9,9.1-7C887.7,832.1,884.5,834.3,880.9,835.9z"/>
		<path class="st0" d="M863.9,848.9c1.9-3.8,5.1-5.9,9.1-7C870.7,845.1,867.5,847.3,863.9,848.9z"/>
		<path class="st0" d="M771,919.9c1.9-3.8,5.1-5.9,9.1-7C777.7,916.1,774.6,918.3,771,919.9z"/>
		<path class="st0" d="M846.9,861.9c1.9-3.8,5.1-5.9,9.1-7C853.7,858.1,850.5,860.3,846.9,861.9z"/>
		<path class="st0" d="M809,890.9c1.9-3.8,5.1-5.9,9.1-7C815.7,887.1,812.6,889.3,809,890.9z"/>
		<path class="st0" d="M826,877.9c1.9-3.8,5.1-5.9,9.1-7C832.7,874.1,829.5,876.3,826,877.9z"/>
		<path class="st0" d="M682,987.9c1.9-3.8,5.1-5.9,9.1-7C688.7,984.1,685.6,986.3,682,987.9z"/>
		<path class="st0" d="M754,932.9c1.9-3.8,5.1-5.9,9.1-7C760.7,929.1,757.6,931.3,754,932.9z"/>
		<path class="st0" d="M699,974.9c1.9-3.8,5.1-5.9,9.1-7C705.7,971.1,702.6,973.3,699,974.9z"/>
		<path class="st0" d="M1023.9,255.6c-2.5-4-3.7-8.3-4.1-12.9C1021.8,246.8,1023.5,251,1023.9,255.6z"/>
		<path class="st0" d="M992,153.6c-2.5-4-3.7-8.3-4.1-12.9C989.8,144.8,991.5,149,992,153.6z"/>
		<path class="st0" d="M997,169.6c-2.5-4-3.7-8.3-4.1-12.9C994.8,160.8,996.5,165,997,169.6z"/>
		<path class="st0" d="M1008,204.6c-2.5-4-3.7-8.3-4.1-12.9C1005.8,195.8,1007.5,200,1008,204.6z"/>
		<path class="st0" d="M1013,220.6c-2.5-4-3.7-8.3-4.1-12.9C1010.8,211.8,1012.5,216,1013,220.6z"/>
		<path class="st0" d="M1028.9,271.6c-2.5-4-3.7-8.3-4.1-12.9C1026.8,262.8,1028.5,267,1028.9,271.6z"/>
		<path class="st0" d="M981,118.6c-2.5-4-3.7-8.3-4.1-12.9C978.8,109.8,980.5,114,981,118.6z"/>
		<path class="st0" d="M1017.9,236.6c-2.5-4-3.7-8.3-4.1-12.9C1015.9,227.8,1017.5,232,1017.9,236.6z"/>
		<path class="st0" d="M970,83.6c-2.3-3.8-3.8-7.9-3.8-12.5C967.9,75.2,969.6,79.2,970,83.6z"/>
		<path class="st0" d="M1436.9,432c-1.7,2.6-4.1,4.1-7,5c-0.1-0.1-0.3-0.3-0.4-0.4c1.9-2.3,4.3-3.8,7-5
			C1436.6,431.7,1436.7,431.8,1436.9,432z"/>
		<path class="st0" d="M1258.9,560c-1.1,3.4-3.8,4.6-7,5c0,0-0.1-0.1-0.1-0.1C1253.8,562.6,1256.1,561,1258.9,560L1258.9,560z"/>
		<path class="st0" d="M1232.9,962.8c3.3,0.4,5.7,2,7.1,5C1237.1,967,1234.7,965.4,1232.9,962.8z"/>
		<path class="st0" d="M1400.9,458c-1.7,2.6-4.1,4.1-7,5c-0.1-0.1-0.3-0.3-0.4-0.4c1.9-2.3,4.3-3.8,7-5
			C1400.6,457.7,1400.7,457.8,1400.9,458z"/>
		<path class="st0" d="M1418.9,445c-1.7,2.6-4.1,4.1-7,5c-0.1-0.1-0.3-0.3-0.4-0.4c1.9-2.3,4.3-3.8,7-5
			C1418.6,444.7,1418.7,444.8,1418.9,445z"/>
		<path class="st0" d="M1182,924.9c2.4,1.2,5.1,2,6.1,5C1185.4,928.9,1182.7,928,1182,924.9z"/>
		<path class="st0" d="M1248.9,973.8c2.4,1.2,5.2,2,6.1,5C1252.4,977.9,1249.7,977,1248.9,973.8z"/>
		<path class="st0" d="M1207.9,943.8c2.4,1.2,5.1,2,6.1,5C1211.4,947.9,1208.7,947,1207.9,943.8z"/>
		<path class="st0" d="M1167,913.9c2.4,1.2,5.1,2,6.1,5C1170.4,917.9,1167.7,917.1,1167,913.9z"/>
		<path class="st0" d="M1141,894.9c2.4,1.2,5.1,2,6.1,5C1144.4,898.9,1141.7,898.1,1141,894.9z"/>
		<path class="st0" d="M1259.9,981.8c2.4,1.2,5.1,2,6.1,5C1263.4,985.9,1260.7,985,1259.9,981.8z"/>
		<path class="st0" d="M1100,864.9c2.4,1.2,5.1,2,6.1,5C1103.4,868.9,1100.7,868.1,1100,864.9z"/>
		<path class="st0" d="M1044,823.9c2.4,1.2,5.1,2,6.1,5C1047.4,828,1044.7,827.1,1044,823.9z"/>
		<path class="st0" d="M1059,834.9c2.4,1.2,5.1,2,6.1,5C1062.4,838.9,1059.7,838.1,1059,834.9z"/>
		<path class="st0" d="M1203,940.8c2.4-0.2,3.8,1.4,5,3.1C1205.6,944.1,1204,942.8,1203,940.8z"/>
		<path class="st0" d="M1177,921.8c2.5-0.3,3.8,1.4,5,3.1C1179.6,925.1,1178.1,923.8,1177,921.8z"/>
		<path class="st0" d="M1162,910.8c2.4-0.2,3.8,1.4,5,3.1C1164.6,914.1,1163.1,912.8,1162,910.8z"/>
		<path class="st0" d="M1188,929.8c2.4-0.2,3.8,1.4,5,3.1C1190.6,933.1,1189,931.8,1188,929.8z"/>
		<path class="st0" d="M1121,880.8c2.4-0.2,3.8,1.4,5,3.1C1123.6,884.1,1122.1,882.8,1121,880.8z"/>
		<path class="st0" d="M1039,820.9c2.4-0.2,3.8,1.4,5,3.1C1041.6,824.2,1040.1,822.9,1039,820.9z"/>
		<path class="st0" d="M1095,861.9c2.4-0.2,3.8,1.3,5,3.1C1097.6,865.1,1096.1,863.8,1095,861.9z"/>
		<path class="st0" d="M1254.9,978.8c2.4-0.2,3.8,1.4,5,3.1C1257.5,982.1,1256,980.8,1254.9,978.8z"/>
		<path class="st0" d="M1080,850.9c2.4-0.2,3.8,1.4,5,3.1C1082.6,854.1,1081.1,852.8,1080,850.9z"/>
		<path class="st0" d="M1243.9,970.8c2.5-0.3,3.8,1.3,5,3.1C1246.5,974.1,1245,972.8,1243.9,970.8z"/>
		<path class="st0" d="M1054,831.9c2.5-0.3,3.8,1.4,5,3.1C1056.6,835.1,1055.1,833.8,1054,831.9z"/>
		<path class="st0" d="M1065,839.9c2.4-0.2,3.8,1.4,5,3.1C1067.6,843.1,1066.1,841.9,1065,839.9z"/>
		<path class="st0" d="M763,925.9c0.4-2.2,1.9-3.1,4.1-3C766.1,924.5,765,925.7,763,925.9z"/>
		<path class="st0" d="M872.9,841.9c0.4-2.3,1.9-3.1,4.1-3C876.1,840.5,874.9,841.7,872.9,841.9z"/>
		<path class="st0" d="M876.9,838.9c0.4-2.3,1.8-3.2,4.1-3C880.1,837.5,878.9,838.7,876.9,838.9z"/>
		<path class="st0" d="M1050,828.9c2.1,0,3.7,0.8,4.1,3C1052.1,831.7,1050.8,830.5,1050,828.9z"/>
		<path class="st0" d="M695,977.9c0.4-2.3,1.8-3.2,4.1-3C698.1,976.4,697,977.7,695,977.9z"/>
		<path class="st0" d="M691,980.9c0.4-2.2,1.9-3.1,4.1-3C694.2,979.5,693,980.7,691,980.9z"/>
		<path class="st0" d="M859.9,851.9c0.4-2.3,1.8-3.2,4.1-3C863.1,850.5,861.9,851.7,859.9,851.9z"/>
		<path class="st0" d="M889.9,828.9c0.4-2.2,1.9-3.1,4.1-3C893.1,827.5,891.9,828.7,889.9,828.9z"/>
		<path class="st0" d="M855.9,854.9c0.4-2.3,1.9-3.1,4.1-3C859.1,853.5,857.9,854.7,855.9,854.9z"/>
		<path class="st0" d="M1239.9,967.8c2.1,0,3.7,0.7,4.1,3C1242,970.7,1240.8,969.5,1239.9,967.8z"/>
		<path class="st0" d="M547.1,473c-2-0.2-3.2-1.3-4-3c0.1-0.1,0.3-0.3,0.4-0.4c1.6,0.6,3,1.5,4,3C547.4,472.7,547.2,472.8,547.1,473
			z"/>
		<path class="st0" d="M842.9,864.9c0.4-2.3,1.8-3.2,4.1-3C846.1,863.4,844.9,864.7,842.9,864.9z"/>
		<path class="st0" d="M893.9,825.9c0.4-2.3,1.9-3.2,4.1-3C897.1,824.5,895.9,825.7,893.9,825.9z"/>
		<path class="st0" d="M839,867.9c0.4-2.3,1.9-3.2,4.1-3C842.1,866.5,840.9,867.7,839,867.9z"/>
		<path class="st0" d="M708,967.9c0.4-2.2,1.9-3.1,4.1-3C711.1,966.5,710,967.7,708,967.9z"/>
		<path class="st0" d="M835,870.9c0.4-2.2,1.9-3.1,4.1-3C838.1,869.5,836.9,870.7,835,870.9z"/>
		<path class="st0" d="M1106,869.9c2.1-0.1,3.7,0.7,4.1,3C1108,872.7,1106.8,871.5,1106,869.9z"/>
		<path class="st0" d="M551.1,476c-2-0.2-3.2-1.3-4-3c0.1-0.1,0.3-0.3,0.4-0.4c1.6,0.6,3,1.5,4,3C551.4,475.7,551.2,475.8,551.1,476
			z"/>
		<path class="st0" d="M822,880.9c0.4-2.3,1.9-3.2,4.1-3C825.1,879.5,823.9,880.7,822,880.9z"/>
		<path class="st0" d="M818,883.9c0.4-2.2,1.9-3.1,4.1-3C821.1,882.5,819.9,883.7,818,883.9z"/>
		<path class="st0" d="M712,964.9c0.4-2.3,1.9-3.2,4.1-3C715.1,963.4,714,964.7,712,964.9z"/>
		<path class="st0" d="M678,990.9c0.4-2.3,1.8-3.2,4.1-3C681.1,989.4,680,990.7,678,990.9z"/>
		<path class="st0" d="M805,893.9c0.4-2.3,1.8-3.2,4.1-3C808.1,892.5,806.9,893.7,805,893.9z"/>
		<path class="st0" d="M750,935.9c0.4-2.3,1.8-3.2,4.1-3C753.1,934.4,752,935.7,750,935.9z"/>
		<path class="st0" d="M801,896.9c0.4-2.3,1.9-3.1,4.1-3C804.1,895.5,802.9,896.7,801,896.9z"/>
		<path class="st0" d="M1024,809.9c2.1,0,3.7,0.7,4.1,3C1026.1,812.7,1024.8,811.5,1024,809.9z"/>
		<path class="st0" d="M1228.9,959.8c2.2-0.1,3.7,0.7,4.1,3C1231,962.7,1229.8,961.5,1228.9,959.8z"/>
		<path class="st0" d="M1270.9,990.4c-0.8,0-1-0.7-1-1.3c0-0.7-0.1-1.8,1.1-1.6c0.3,0.1,0.7,0.9,0.8,1.5
			C1271.9,989.6,1271.8,990.3,1270.9,990.4z"/>
		<path class="st0" d="M1147,899.8c2.1,0,3.7,0.7,4.1,3C1149,902.7,1147.8,901.5,1147,899.8z"/>
		<path class="st0" d="M674,993.9c0.4-2.3,1.9-3.1,4.1-3C677.2,992.5,676,993.7,674,993.9z"/>
		<path class="st0" d="M746,938.9c0.4-2.2,1.9-3.1,4.1-3C749.1,937.5,748,938.7,746,938.9z"/>
		<path class="st0" d="M784,909.9c0.4-2.3,1.9-3.1,4.1-3C787.1,908.5,785.9,909.7,784,909.9z"/>
		<path class="st0" d="M780,912.9c0.4-2.2,1.9-3.1,4.1-3C783.1,911.5,782,912.7,780,912.9z"/>
		<path class="st0" d="M725,954.9c0.4-2.2,1.9-3.1,4.1-3C728.2,953.5,727,954.7,725,954.9z"/>
		<path class="st0" d="M1213.9,948.8c2.1,0,3.7,0.7,4.1,3C1216,951.7,1214.8,950.5,1213.9,948.8z"/>
		<path class="st0" d="M729,951.9c0.4-2.3,1.9-3.2,4.1-3C732.1,950.5,731,951.7,729,951.9z"/>
		<path class="st0" d="M1173,918.8c2.1,0,3.7,0.8,4.1,3C1175,921.7,1173.8,920.5,1173,918.8z"/>
		<path class="st0" d="M767,922.9c0.4-2.3,1.8-3.2,4.1-3C770.1,921.5,768.9,922.7,767,922.9z"/>
		<path class="st0" d="M1125.3,416.2c-0.7,0.6-1.5,1.2-2.2,1.8c-1-0.6-1.6-1.5-0.6-2.4C1123.4,414.7,1124.5,415.1,1125.3,416.2z"/>
		<path class="st0" d="M733,948.9c0-2,1.5-2.6,3.1-3C736,947.8,734.8,948.7,733,948.9z"/>
		<path class="st0" d="M788,906.9c0-2.1,1.5-2.6,3.1-3C791,905.8,789.8,906.7,788,906.9z"/>
		<path class="st0" d="M698.8,586.8c0.4-0.3,0.8-0.6,1.2-0.9c0.6,0,1.2,0.1,1.8,0.1c-0.7,0.8-0.7,1.6-0.3,2.6
			c-0.1,0.1-0.3,0.3-0.4,0.4C699.6,589,698.9,588.2,698.8,586.8z"/>
		<path class="st0" d="M1265.9,986.8c0.7-0.1,1.4-0.1,2.1-0.2c0.5,0.6,1.3,1.4,0.2,1.8C1267.1,988.9,1266.4,987.8,1265.9,986.8z"/>
		<path class="st0" d="M1137,891.9c1.3,0.1,1.8,0.9,2.1,2.1C1137.7,893.9,1136.9,893.3,1137,891.9z"/>
		<path class="st0" d="M1004,191.6c-0.9-0.8-1.1-1.8-1.1-2.9C1003.8,189.5,1003.9,190.5,1004,191.6z"/>
		<path class="st0" d="M998,172.6c-0.9-0.8-1.1-1.8-1.1-2.9C997.8,170.5,997.9,171.5,998,172.6z"/>
		<path class="st0" d="M993,156.6c-0.9-0.8-1.1-1.8-1.1-2.9C992.8,154.5,992.9,155.5,993,156.6z"/>
		<path class="st0" d="M1009,207.6c-0.9-0.8-1.1-1.8-1.1-2.9C1008.8,205.5,1008.9,206.5,1009,207.6z"/>
		<path class="st0" d="M1014,223.6c-0.9-0.8-1.1-1.8-1.1-2.9C1013.8,221.5,1013.9,222.5,1014,223.6z"/>
		<path class="st0" d="M1019,239.6c-0.9-0.8-1.1-1.8-1.1-2.9C1018.8,237.5,1018.9,238.5,1019,239.6z"/>
		<path class="st0" d="M988,140.6c-0.9-0.8-1.2-1.8-1.1-2.9C987.8,138.5,987.9,139.5,988,140.6z"/>
		<path class="st0" d="M1020,242.6c-0.9-0.8-1.1-1.8-1.1-2.9C1019.8,240.4,1019.9,241.5,1020,242.6z"/>
		<path class="st0" d="M982,121.6c-0.9-0.8-1.1-1.8-1.1-2.9C981.8,119.5,981.9,120.5,982,121.6z"/>
		<path class="st0" d="M1025,258.6c-0.9-0.8-1.2-1.8-1.1-2.9C1024.8,256.4,1024.9,257.5,1025,258.6z"/>
		<path class="st0" d="M977,105.6c-0.9-0.8-1.1-1.8-1.1-2.9C976.8,103.5,976.9,104.5,977,105.6z"/>
		<path class="st0" d="M1030,274.6c-0.9-0.8-1.1-1.8-1.1-2.9C1029.8,272.4,1029.9,273.5,1030,274.6z"/>
		<path class="st0" d="M971,86.6c-0.9-0.8-1.1-1.8-1.1-2.9C970.8,84.5,970.9,85.5,971,86.6z"/>
		<path class="st0" d="M1138.9,893.9c0.8,0.1,1.7,0,2.1,1.1C1140.1,895,1139.3,894.8,1138.9,893.9z"/>
		<path class="st2" d="M1418.5,444.5c-2.7,1.2-5.1,2.7-7,5c-4.1,2.1-7.7,4.8-11,8c-2.7,1.2-5.1,2.7-7,5c-0.3,0.1-0.6,0.2-0.9,0.4
			c-5.9,3.5-6.1,3.5-6.7-3.5c-0.3-3.1-2-3.4-4.4-3.4c-15,0.1-30,0.1-44.9,0.2c-2.4,0-4.9,0-7.3,0.1c-9.6,0-19.2,0-29.4,0
			c2.8-3.9,6.7-6.2,9.8-9.2c2.8-2.8,5.9-5.3,9-7.9c3.3-2.8,3.3-6,1-9.1c-3.2-4.2-6.7-8.2-10.1-12.3c0.1-0.5,0.2-1,0.3-1.5
			c46.5,0.2,93.1,0.4,139.6,0.6c1.2,0,3-0.7,3.4,1c0.3,1.2-1.2,1.8-2.1,2.6c-1.1,1-2.2,1.9-3.4,2.9c-4.1,2.1-7.7,4.8-11,8
			c-2.6,1.2-5.1,2.7-7,5C1425.4,438.7,1421.8,441.4,1418.5,444.5z"/>
		<path class="st2" d="M1258.8,559.9c-2.7,1.2-5.1,2.8-7,5c-4.1,2.1-7.7,4.8-11,8c-5,2.5-4.9,2.5-4.9-3.2
			c-0.1-13.6-0.2-27.3-0.3-40.9c0.8-5.9-0.3-11.8-0.8-17.6c5.7-1.7,8.8-6.8,13.2-10.2c4.6-3.5,8.8-7.6,13.1-11.4
			c1.2,1.8,0.8,3.9,0.8,5.8c0.1,20.1,0.1,40.2,0.2,60.4C1261.1,557.2,1260,558.5,1258.8,559.9z"/>
		<path class="st2" d="M1129.2,490.7c-4,1.5-5.7,0.7-5.4-4.1c0.4-5.3,0-10.6,0.1-15.9c0-1.7-0.8-3.7,1.4-4.9
			c2.3-2.1,4.5-4.4,6.8-6.4c10.9-9.7,21.8-19.3,32.7-28.9c7.6,7.2,13.5,15.7,20.3,23.6c-3.5,2.5-6.8,2.1-10,2
			c-15.2-0.1-26.8,6.9-36.3,18.2C1133.9,478.7,1131.4,484.7,1129.2,490.7z"/>
		<path class="st4" d="M1164.8,430.5c-10.9,9.6-21.8,19.3-32.7,28.9c-2.3,2.1-4.6,4.3-6.8,6.4c-0.1-0.9-0.3-1.9-0.4-2.8
			c10.3-8.6,19.1-18.9,29.7-27.2c3-2.4,7.1-3.7,8.6-7.8C1164.9,428,1164.7,429.4,1164.8,430.5z"/>
		<path class="st4" d="M1262.2,555.8c-0.1-20.1-0.1-40.2-0.2-60.4c0-2,0.5-4-0.8-5.8c0.7-0.8,1.7-0.6,2.6-0.6
			c0.1,12.7,0.2,25.5,0.2,38.2c0,9.6-0.2,19.2-0.3,28.8C1263.3,556,1262.8,555.9,1262.2,555.8z"/>
		<path class="st4" d="M1129.2,490.7c2.3-6.1,4.7-12,9.7-16.5c0.1,0.9,0.1,1.7,0.2,2.6c-2.6,4.8-5.1,9.5-7.7,14.3
			C1130.7,491,1129.9,490.9,1129.2,490.7z"/>
		<path class="st4" d="M1234.9,511.2c0.5,5.9,1.5,11.7,0.8,17.6c-0.5,0-1.1,0.1-1.6,0.1c-0.3-6-2-11.9-1-18
			C1233.7,511,1234.3,511.1,1234.9,511.2z"/>
		<path class="st4" d="M1163,427.8c-3.4-1.5-4.9-4.4-6.1-7.7C1160.4,421.5,1162.2,424.3,1163,427.8z"/>
		<path class="st4" d="M1329.3,456.4c2.4,0,4.9,0,7.3-0.1C1334.1,457.3,1331.7,457.2,1329.3,456.4z"/>
		<path class="st4" d="M1150.9,413c-1.6-0.8-2.9-1.8-3-3.8C1150.2,409.3,1151.1,410.7,1150.9,413z"/>
		<path class="st4" d="M1154.9,418c-1.3-0.5-2.1-1.3-2-2.8C1154.7,415.3,1155.2,416.4,1154.9,418z"/>
		<path class="st4" d="M1309.8,416.4c-0.1,0.5-0.2,1-0.3,1.5c-0.7,0-1.3-0.2-1.1-1C1308.5,416.2,1309.2,416.2,1309.8,416.4z"/>
		<path class="st4" d="M1152.8,415.1c-1.6,0.2-2.2-0.4-1.8-2C1152.3,413.1,1152.9,413.8,1152.8,415.1z"/>
		<path class="st4" d="M635.1,671.3c0-18.6,0-37.3,0-55.9c0-6.2,0.3-6.2,6.5-6.6c9.8-0.6,17.6,2.7,23.3,10.7
			c3.5,5,3.6,10.9,4.1,16.6c1.4,13.5,2.5,27,3.2,40.5c0.8,16.3-0.8,32.3-6.5,47.7c-2.8,7.6-13.9,13.3-21.7,11.4
			c-7.5-1.9-7.6-1.9-7.6-10c-0.1-18.1,0-36.3,0-54.4C635.9,671.3,635.5,671.3,635.1,671.3z"/>
		<path class="st4" d="M638.1,586.9c-2.2-0.3-2.7-2-2.6-3.6c0.2-3.8-0.8-7.6,0.6-11.3c1.4-1.3,0.9-3.1,0.9-4.7c0-6.5,0-12.9,0-19.4
			c0-1.5-0.9-3.7,0.9-4.5c1.6-0.7,2.9,1.2,4.2,2.1c6.4,4.7,12.5,9.7,19,14.2c4.2,2.9,6.2,5.6,2.6,10.2c-1.1,1.4-1.9,3.1-1.7,5.1
			c0,0,0.1-0.1,0.1-0.1c-6,7.2-13.7,10.6-22.9,11.1C638.8,586.1,638.4,586.6,638.1,586.9z"/>
		<path class="st4" d="M701.8,586c-0.6,0-1.2-0.1-1.8-0.1c9.7-11.8,13.1-25.4,14.4-40.5c1.5-16.7,0.5-33.1-1.5-49.4
			c-1.2-9.6-5.2-18.5-11.9-25.9c0.4-0.3,0.8-0.5,1.2-0.8c4.4,2.9,6.5,7.4,8.6,11.9c4.7,10.2,5.5,21.1,6.1,32
			c0.9,15.9,0.7,31.9-2.2,47.6C713,570.4,709.4,579.3,701.8,586z"/>
		<path class="st0" d="M702.2,469.4c-0.4,0.3-0.8,0.5-1.2,0.8c-6.7-5.2-14.7-6.8-22.8-7.1c-29.3-1.1-58.6-0.4-87.9,0.1
			c-4.4,0.1-8.8,0.9-13.3,0.9c-0.1-0.6-0.2-1.2-0.2-1.8c5.2-0.4,10.3-1.2,15.6-0.9c1.5,0.8,2.9,0.9,4.3-0.1c27.3,0,54.6-0.4,81.9,0
			C687,461.5,695.6,463,702.2,469.4z"/>
		<path class="st4" d="M635.5,533.1c-0.9-11.3-0.5-22.5-0.4-33.8c0-3.8,2.2-6.6,5.8-7.9c10.3-3.9,23.6-1.5,26.4,13.5
			c2,11,4.1,22,3.6,33.3c-0.1,1.3,0.3,2.7-0.7,3.8c-0.4-0.1-0.8-0.2-1.2-0.3c0.1-12.6-1-25.2-3.8-37.5c-1.1-5-3.9-8.8-8.5-11.1
			c-10.2-5.2-19.7,0.5-19.7,11.7c0,9.3,0,18.6-0.1,27.9C636.5,532.9,636,533,635.5,533.1z"/>
		<path class="st0" d="M635.5,533.1c0.5-0.1,1-0.3,1.5-0.4c-0.7,5.2,1.6,8.5,5.9,11.4c6.6,4.4,12.8,9.6,19.2,14.3
			c1.4,1,2.9,3.3,4.5,2.2c1.1-0.8,1.3-3.3,1.5-5.1c0.5-4.6-0.6-9.3,1-13.8c0.4,0.1,0.8,0.2,1.2,0.3c-0.3,7.5-0.2,15.2-2.4,22.5
			c-1.2,3.9-2,8.1-5.7,10.6c-0.2-1.9,0.7-3.7,1.7-5.1c3.5-4.7,1.5-7.4-2.6-10.2c-6.5-4.5-12.7-9.5-19-14.2c-1.3-0.9-2.6-2.8-4.2-2.1
			c-1.9,0.8-0.9,2.9-0.9,4.5c-0.1,6.5,0,12.9,0,19.4c0,1.6,0.5,3.4-0.9,4.7C635.9,559,635.7,546.1,635.5,533.1z"/>
		<path class="st4" d="M576.8,462.3c0.1,0.6,0.2,1.2,0.2,1.8c0.5,1.6,2.4,2.8,1.1,4.9c-2.2,3.4-1.1,5.4,2.3,7.5
			c4.8,3,8.9,7.1,8.5,13.6c-0.5,0-0.9,0-1.4,0c-1.2-5.2-4.1-9.2-8.5-12.2C574.3,474.7,573.3,467.3,576.8,462.3z"/>
		<path class="st0" d="M638.1,586.9c0.4-0.3,0.7-0.8,1.1-0.8c9.2-0.5,17-3.9,22.9-11.1c-2.5,8.3-9.5,10.3-16.7,11.8
			C643.1,587.3,640.5,586.9,638.1,586.9z"/>
		<path class="st4" d="M589.6,501c-1-1.7-1-3.3-0.1-5C590.3,497.7,590.3,499.3,589.6,501z"/>
		<path class="st4" d="M589.4,494.1c-0.1-0.3-0.2-0.7-0.3-1c0.2,0.2,0.4,0.4,0.6,0.6C589.7,493.7,589.5,493.9,589.4,494.1z"/>
		<path class="st4" d="M762.9,794.9c-0.1-3.8,3.3-5.6,5.4-7.3c11.9-9.8,22.9-20.6,34.4-30.9c22.2-20,44.3-40.3,66.4-60.4
			c0.7-0.7,1.6-1.1,2.4-1.7c0.1,0.6,0.2,1.1,0.2,1.7c-13.5,12.5-27,25.1-40.6,37.6c-13,11.9-26.1,23.7-39.2,35.5
			c-8.7,7.9-17.4,15.9-26.1,23.9C765,794.1,764.3,795,762.9,794.9z"/>
		<path class="st0" d="M1159.8,660.1c-9.2,0.1-18.4-0.9-27.5,0.8c-0.7,0.1-1.2,0.3-1.5,1c-2.3,0.3-1.5-3.3-3.8-3
			c-0.6-1.4-2-0.7-3-1.1c-0.1-0.6-0.2-1.1-0.3-1.7c1,0.1,2.3-0.2,2.9,0.3c5.5,4.2,11.8,2.4,17.8,2.4c7.1,0,7.3-0.7,4.7-7.4
			c-0.7-1.7-1.1-3.5-2-5.1c-1.9-3.3-0.7-5.5,2.1-7.6c4.9-3.5,9.6-7.2,14.5-10.7c2.6-1.8,3.7-3.8,3.5-7c-0.4-6.5-0.4-12.9-0.6-19.4
			l0.2-0.3l-0.2-0.3c0-1.4-0.1-2.8-0.1-4.3c1-5.6,1.3-11.1-0.1-16.7c0.6-3.8,3.7-2.2,5.5-2.1c14.6,0.6,23.1-8.2,23.6-20.9
			c0.4-8.1,0.3-16.2,0.1-24.3c0.4,0.1,0.8,0.1,1.1,0.2c0.9,9.1,1.2,18.4-0.1,27.4c-1.7,12.2-9.2,19-22.4,19.5
			c-6.5,0.3-6.6,0.1-6.4,6.8c0.2,12.4,0.6,24.9,0.9,37.3c-1,0.7-0.8,1.3,0,2c0.1,0.7,0.3,1.3,0.4,2c-1,0.1-2.2,0-2.9,0.5
			c-5.7,4.2-11.4,8.4-17,12.7c-0.6,0.4-1.2,1.5-1.1,2c1.6,4.5,3.1,9.1,5.1,13.4c1.3,2.8,4.5,1.2,6.8,1.6c0.7,0.1,1.4,0.3,1.2,1.1
			C1161.2,659.7,1160.3,659.9,1159.8,660.1z"/>
		<path class="st4" d="M1123.7,656.2c0.1,0.6,0.2,1.1,0.3,1.7c-5.1,1.1-10.1-1-15.2-1c-3.8,0-3.4-4.5-3.8-7.4
			c-0.9-5.8-1.9-11.5-2.8-17.3c-0.5-2.8-1.8-3.5-3.9-4c-5.5-1.3-11.1-2.8-16.6-4c-2.1-0.5-3.3-1.8-3.5-3.5
			c-0.8-7.8-1.4-15.7-2.1-23.5c0.3-1,1-1,1.8-0.9c0.8,6.6,1.6,13.1,2.3,19.7c0.4,3.8,1.3,6.5,5.8,7.1c4.7,0.7,9.3,2.2,14,3.1
			c3.1,0.6,4.5,2.3,4.8,5.3c0.6,4.9,1.5,9.8,2.2,14.7c1.2,8.3,1.1,8.3,9.4,8.9C1118.8,655.3,1121.2,655.8,1123.7,656.2z"/>
		<path class="st4" d="M1147.9,678.2c6.9-0.9,6.9-0.9,8.8,5.7c1.7,6,3.5,11.9,5.3,17.9c-0.4,0.4-0.7,0.8-1.1,1.2
			c-3.4-5-4.3-10.9-5.9-16.6c-1.1-3.8-2-7.3-7.1-6.6C1147.9,679.3,1147.9,678.8,1147.9,678.2z"/>
		<path class="st4" d="M1095,768.9c-0.8,0.4-1.7,0.2-2.3-0.3c-8.3-6.8-16.6-13.7-24.9-20.5c-0.7-0.5-1.1-1.3-0.7-2.2
			c4.9,1.8,8.3,5.8,12.2,9.1C1084.6,759.5,1090.8,763,1095,768.9z"/>
		<path class="st4" d="M1190.8,732c-0.5,0-1,0.1-1.5,0.1c-2.2-2.9-1.1-6.4-1.6-9.6c-1.1-5.8-1.9-11.6-2.9-17.5
			c0.3-0.3,0.7-0.6,1-0.9c2.5,3.4,1.9,7.6,2.8,11.5C1189.8,721,1190.1,726.5,1190.8,732z"/>
		<path class="st4" d="M1150,813.8c-8.8-4.2-16-10.4-22-17.9C1136.1,800.9,1143.5,806.9,1150,813.8z"/>
		<path class="st4" d="M1127.1,658.9c2.3-0.3,1.5,3.3,3.8,3c0.1,5.6,2,10.8,3.1,16.1c-0.3,0.7-0.8,1-1.6,1
			C1130.6,672.3,1128.8,665.6,1127.1,658.9z"/>
		<path class="st0" d="M1185.9,704.1c-0.3,0.3-0.7,0.6-1,0.9c-7.3-0.4-14.6-0.8-21.9-1.1c-0.8,0-1.7,0.1-2-0.9
			c0.4-0.4,0.7-0.8,1.1-1.2C1170,702.1,1178,703,1185.9,704.1z"/>
		<path class="st4" d="M1067,745.9c-4.3,0.2-5.7-4-8.9-5.7c-1.6-0.8-2.7-2.5-4.8-2.3c-0.1-0.9,0.2-1.7,1.1-2.1
			C1059.6,738,1063.7,741.5,1067,745.9z"/>
		<path class="st0" d="M1132.3,679c0.8,0.1,1.3-0.3,1.6-1c4.6,2.1,9.3,0.6,14,0.2c0,0.5,0,1.1,0,1.6c-4.1,0.1-8,1.6-12.2,1.1
			C1134.2,680.8,1132.6,681.1,1132.3,679z"/>
		<path class="st4" d="M1106,777.9c-4.9-1.4-8.6-4.5-11-9C1099.5,770.9,1103.2,773.8,1106,777.9z"/>
		<path class="st4" d="M1117,786.9c-5-1.4-8.6-4.5-11-9C1110.5,779.9,1114.2,782.9,1117,786.9z"/>
		<path class="st4" d="M1128,795.9c-5-1.4-8.6-4.5-11-9C1121.5,788.9,1125.2,791.9,1128,795.9z"/>
		<path class="st4" d="M1161,822.8c-5-1.4-8.8-4.2-11-9C1154.4,815.9,1158.1,818.9,1161,822.8z"/>
		<path class="st4" d="M1172,831.8c-5-1.4-8.8-4.2-11-9C1165.4,825,1169.1,827.9,1172,831.8z"/>
		<path class="st4" d="M1189,845.9c-3.4,0-5.3-1.8-6-5C1185.8,841.6,1187.8,843.3,1189,845.9z"/>
		<path class="st4" d="M1178,836.9c-3.4-0.1-5.3-1.8-6-5C1174.8,832.6,1176.8,834.3,1178,836.9z"/>
		<path class="st4" d="M1183,840.8c-3,0.3-4.5-1.1-5-4C1180.4,837.2,1182.1,838.6,1183,840.8z"/>
		<path class="st5" d="M869.2,411.1c-0.1-4.7-0.1-9.4-0.2-14.1c1.4-1.3,0.8-1.8-0.8-2c-0.2-1-0.7-2.4,0.2-2.8c1.6-0.8,2.2,1,3.1,1.8
			c12.3,11.8,25.5,22.6,40.4,30.9c20.1,11.2,41.6,14.9,64.6,11.4c16.3-2.5,30.5-9.3,44.7-16.9c14.1-7.5,25.7-18.1,37-29.1
			c1.5-1.5,3.1-3,4.6-4.6c0.9-1,2-2.2,3.3-1.5c1.5,0.8,0.3,2.1,0.1,3.4c-1.1,6.4-2.6,12.9-2.4,19.5c0.6,19.9,8.2,36.3,23.5,49.2
			c9.5,8,19.9,14.2,31.8,17.5c1.8,0.5,2,1.3,2,2.7c-0.1,4.5-0.2,9-0.1,13.5c0,2.6-1,3.7-3.6,4.3c-14,3.4-27.9,7.1-41.9,10.8
			c-17.4,4.6-34.8,9.1-52.1,14c-13.6,3.8-27.2,7.6-40,13.8c-3.9,1.9-3.6,3.5-0.4,5.8c19.6,14.2,39.2,28.6,58.9,42.8
			c7.2,5.2,10.3,5,16.5-1.3c5.6-5.7,10.9-11.6,16.3-17.5c7.2-7.8,14.4-15.5,21.5-23.5c5-5.7,9.8-11.6,14.7-17.4
			c0.2-0.2,0.3-0.7,0.5-0.8c1.4-1,3.2-3,4.2-2.7c2.4,0.8,0.5,3.2,0.2,4.6c-2.9,13.5-7.5,26.5-14.6,38.4
			c-6.3,10.6-13.5,20.6-22.9,28.9c-16.4,14.3-33.3,27.2-54.5,34c-24.1,7.7-48.6,10.7-73.6,8.6c-20.4-1.8-40.9-5.2-59.1-15
			c-24.6-13.2-44.5-31.6-57-57.2c-6.4-13-12-26.2-14.6-40.5c-0.1-0.7-0.6-1.5-0.4-2.3c0.3-1.2-0.9-2.9,0.6-3.6
			c1.5-0.7,2.3,0.9,3.2,1.8c8.9,10,17.9,19.9,26.6,30.2c11.4,13.4,22.7,26.8,36.4,37.9c3.5,2.8,7.3,2.8,10.9,0.6
			c13.6-8.5,26.2-18.3,38.6-28.3c6.7-5.5,13.5-10.9,20.4-16.1c1.5-1.2,3.1-2.4,3.1-4.1c0-2.1-2.4-2.5-4-3
			c-21.7-6.6-43.1-13.8-64.9-20.2c-21.3-6.3-42.4-13.3-63.6-20c-2.3-0.7-4.6-1.7-7-2c-5-0.6-5.4-3.5-5.6-7.8
			c-0.2-4.5,1.2-5.9,5.5-6.8c26.3-5.4,41-22.5,46.7-48.1c1-4.3,2.1-8.6,2.2-13.1C870.8,414.3,870.4,412.8,869.2,411.1z M948,596.7
			c0,11.4,8.2,20.6,18.6,20.2c10.2-0.4,20.8-6.7,20.4-18.3c-0.5-13.2-6.8-20.3-18.9-20.7C956.9,577.6,946.6,585.9,948,596.7z"/>
		<path class="st3" d="M1067.1,401.3c0.8-7.9,1.7-15.7,4.5-23.2c0.5-1.3,1-3,0-3.7c-1.5-1.1-2.2,0.9-3,1.8
			c-8.7,9.6-18.1,18.6-28.1,26.9c-16,13.3-33.9,23.2-54,28.6c-26.3,7.1-51.6,3.5-75.1-10.6c-17.3-10.4-33.5-22.3-45.4-39
			c-1-1.4-1.8-2.7-2.4-4.2c-0.6-1.3-1.6-2.6-3-1.9c-1.5,0.8-0.6,2.2,0.1,3.4c5.7,10.4,7,21.6,5.5,33.2c-2.9,21.9-8.8,42.3-29.6,54.7
			c-5.8,3.5-12,5.3-18.5,6.6c-2.6,0.5-3.8,0.1-3.8-3.1C814,444.4,821,420,835.8,398c9.2-13.5,20.9-24.8,33.8-34.9
			c14-11,29.1-19.8,46.1-25.5c19.2-6.4,38.7-8.7,58.6-6.4c23.8,2.7,46.6,9.4,68.2,19.7c24.8,11.8,43.2,30.4,57.2,53.6
			c7.2,11.9,14.7,23.6,17.5,37.5c1.7,8,3,16.1,3.6,24.3c0.3,3.7-0.5,5.7-5,3.8c-21.1-8.7-37.8-21.7-46.2-43.8
			c-2-5.4-1.7-11-2.7-16.5C1068.5,407,1068.4,404.2,1067.1,401.3z"/>
		<path class="st5" d="M1020,706.1c2.4,0.1,4.7-0.5,6.9-1.3c8.8-1.5,17.2-4.7,25.6-7.7c4.1-1.5,6.3-1.1,5.6,3.9
			c-2.1,22.7-9.4,43.7-19.5,64c-7.2,14.5-17.3,27.2-25.6,41c-2.4,3.9-3.8,0.9-4.9-0.7c-5-7.2-10.1-14.4-14.7-21.8
			c-2.4-3.8-3.5-2.8-5.3,0.1c-6,9.5-12.1,18.9-18.3,28.4c-1.7,2.6-2.9,4.3-5.5,0.1c-6.3-10.2-13.5-19.9-20.2-29.9
			c-1.8-2.7-2.6-3.2-4.8-0.2c-6,8.4-12.3,16.5-18.6,24.6c-1.7,2.2-3.2,3.8-5.2-0.2c-1-2-2-4.5-4.6-5.5c0,0,0.1,0.1,0.1,0.1
			c-2.1-5.9-6.2-10.7-9.2-16c-12.1-21.1-21.1-43.2-23.9-67.5c-0.7-6-1.9-11.9-2-18c0-2.4-0.3-4.1,3.5-2.7c13.3,5.1,27,9.4,41.2,11.6
			c5.8,0.9,11.5,2.1,17.4,2.7c14,1.4,28.1,1.5,42.2,1.1c4.9-0.1,9.9-0.7,14.8-1.1c2.3,1,4.5-0.5,6.7-0.9
			C1007.8,709,1014.2,708.9,1020,706.1z"/>
		<path class="st2" d="M1123.7,656.2c-2.5-0.4-4.9-0.8-7.4-1c-8.2-0.6-8.2-0.6-9.4-8.9c-0.7-4.9-1.6-9.8-2.2-14.7
			c-0.4-3-1.8-4.7-4.8-5.3c-4.7-0.9-9.3-2.5-14-3.1c-4.5-0.6-5.5-3.3-5.8-7.1c-0.6-6.6-1.5-13.1-2.3-19.7c0.1-2.3,1.9-3.4,3.3-4.7
			c20.9-20.4,33.6-45.1,38.9-73.7c0.8-4.5,0.8-9.6,5.1-12.8c1.8,1.4,1,3.3,1,5.1c0.1,12.9-0.5,25.8,0.3,38.7
			c0.2,5.1,0.4,10.3,0.4,15.4c0,2.9,1.1,4.4,4.1,3.8c8.5-1.6,17.2-0.3,25.7-0.8c1.9-0.1,4,0.4,5.7-1.2c1.5-7.2,0.2-14.5,0.7-21.8
			c0.4-7.3,0.4-14.7,3.1-21.5c1.8-4.5,4.6-8.4,10.3-8.8c7-0.4,13.2,0.6,16.6,7.9c1.7,3.6,1.4,7.4,2.5,11c0.2,8.1,0.3,16.2-0.1,24.3
			c-0.6,12.8-9,21.5-23.6,20.9c-1.9-0.1-4.9-1.7-5.5,2.1c-0.5,5.6-0.5,11.1,0.1,16.7c0,1.4,0.1,2.8,0.1,4.3c-0.2,0.2-0.2,0.4,0,0.6
			c0.2,6.5,0.2,13,0.6,19.4c0.2,3.2-0.9,5.2-3.5,7c-4.9,3.4-9.6,7.2-14.5,10.7c-2.9,2-4,4.2-2.1,7.6c0.9,1.6,1.3,3.4,2,5.1
			c2.6,6.6,2.4,7.4-4.7,7.4c-6,0-12.3,1.8-17.8-2.4C1126,656,1124.7,656.2,1123.7,656.2z"/>
		<path class="st2" d="M831.1,564.3c2.5-1.2,2.8,1,3.5,2.3c10,18.8,24.9,33,42.1,45.1c3.4,2.4,4.9,4.1,3,8.5
			c-1.9,4.4-2.4,9.5-3.3,14.3c-0.3,1.7-0.7,3.2-1.9,4.4c-1.2,0.9-2.4,1.7-3.5,2.7c-20.8,19.1-41.6,38.3-62.5,57.3
			c-2.6,2.4-5.7,7.2-8.2,6.2c-2.9-1.2-2.7-6.8-2.8-10.4c-0.3-24-0.1-47.9-0.2-71.9c0-2.6,1-3.2,3.4-2.4c6.1,1.9,8.9,6.5,10.5,12.2
			c2.7,9.6,3.6,19.6,4.7,29.5c0.9,7.9,1.2,7.6,9.5,7.9c4.6,0.1,5.8-1.9,5.8-5.9C831,630.9,831.1,597.6,831.1,564.3z"/>
		<path class="st5" d="M967.3,654.9c0,5.2-0.2,10.3,0.1,15.5c0.1,2.8-0.7,3.6-3.6,3.6c-14.8,0.4-29.3-2.4-43.7-5.4
			c-5.6-1.2-7-4.2-4.9-12c1.7-6.4,1.8-12.9,2.6-19.3c0.9-7,0.6-6.6,7.7-5.6c12.4,1.9,24.8,4.9,37.5,4.2c3.1-0.2,4.4,0.6,4.2,4
			c-0.3,5-0.1,10-0.1,15C967.3,654.9,967.3,654.9,967.3,654.9z"/>
		<path class="st5" d="M967.6,693.9c0,4.5-0.1,9,0,13.5c0.1,2.4-0.8,3.2-3.2,3.1c-17.6-0.3-35-1.8-52.2-5.6
			c-1.9-0.4-3.1-0.6-2.5-3.7c1.6-9.3,2.4-18.8,3.3-28.2c0.2-2.6,0.7-3.5,3.6-2.9c11.8,2.9,23.7,5.5,36,5.9c4.1,0.2,8.2,1.2,12.3,0.9
			c2.5-0.2,2.6,1.1,2.6,3c-0.1,4.7,0,9.3,0,14C967.5,693.9,967.5,693.9,967.6,693.9z"/>
		<path class="st5" d="M969.8,654.7c0-3.5,0-7,0-10.5c0-9,0-9,9.1-9.3c9.3-0.2,18.5-1.2,27.6-3.8c5.7-1.6,7.1-0.2,7.5,5.8
			c0.6,8.6,1.4,17.2,2.9,25.8c0.5,2.8,0.9,5.7-4.2,6.5c-8.5,1.4-16.9,3.2-25.5,3.8c-4.2,0.3-8.5,0.8-12.7,1
			c-3.4,0.1-4.8-0.7-4.5-4.4c0.3-5,0.1-10,0.1-15C969.9,654.7,969.9,654.7,969.8,654.7z"/>
		<path class="st5" d="M993.9,709.1c-7.3,1.9-14.8,0.5-22.2,0.8c-1.7,0.1-1.5-1.4-1.5-2.5c0-9.3-0.1-18.6-0.1-27.9
			c0-1.6,0.3-2.4,2.1-2.5c11.7-0.7,23.4-2.2,35-4c3.4-0.5,7.6-2.5,10-0.6c2.4,2,0.4,6.5,1,9.9c1.2,7.5,2.4,14.9,1.8,22.5
			C1011.3,706.5,1002.7,708.5,993.9,709.1z"/>
		<path class="st5" d="M1016.2,632.6c-0.9-2.7,0.3-3.8,2.3-4.3c9.1-2.4,17.7-6,26.2-9.8c2-0.9,3.4-0.7,4.3,1.6
			c4.1,10.1,7.8,20.3,9.1,31.3c0.2,2.1-0.5,3-1.9,3.5c-10.8,4.1-21.5,8.8-32.7,11.8c-1.5,0.4-4.2,1.7-4.5-1.7
			C1018.1,654.1,1017.1,643.1,1016.2,632.6z"/>
		<path class="st5" d="M1060,664c0.5,6.7,0.5,13.3,0,20c-1.7,0.7-0.9,2-0.8,3.1c-0.4,2.4,0.8,5.4-2.3,6.8c-10,3.2-20,6.3-30,9.5
			c-2.4,0.6-3.7,0.3-4-2.8c-0.9-8.3-0.7-16.7-2.8-24.7c-1.6-5.9,2.8-6.6,6.2-7.4c9.6-2.2,18.4-6.4,27.6-9.7c2.3-0.8,5.3-2.5,5.4,2.3
			C1059.1,662,1058.2,663.3,1060,664z"/>
		<path class="st5" d="M916.1,631.9c-1.5,11.4-2.8,21.6-4.2,31.7c-0.3,1.9-1.1,2.5-3.4,1.7c-9.9-3.3-19.7-6.8-29.2-11.1
			c-2.5-1.2-2.8-1.9-2.5-4.8c0.9-9.6,2.8-18.9,5.1-28.1c0.9-3.6,2.7-4.1,5.2-2.7c8.2,4.7,17,7.8,26.3,9.7
			C916.4,628.9,916.2,631,916.1,631.9z"/>
		<path class="st5" d="M876.1,693.3c-1.6-8.4-0.9-16.9-0.7-25.4c0.1-2.9-0.7-5.7,0.4-8.7c0.9-2.8,2.2-2.6,3.8-1.9
			c9.4,4.1,18.9,7.8,28.7,10.8c2.4,0.7,3.2,2.4,2.8,4.8c-1.4,9.3-2.8,18.6-4,28c-0.4,3.6-2.5,2.3-4.2,1.8
			c-8.7-2.8-17.4-5.8-26.2-8.7C876.5,693.6,876.3,693.5,876.1,693.3z"/>
		<path class="st2" d="M816.7,540.4c0.7,0.7,2.1,0.3,2.4,1.6c-0.1,1-0.2,2.1-0.4,3.1c-3.2,0.8-2.6,3.4-2.6,5.7
			c-0.1,10-0.9,19.9-4,29.5c-1.8,5.6-4.3,10.9-10.2,13.5c-4.3,1.9-5.1,1.5-5.2-3.3c-0.1-11.5-0.1-23-0.1-34.5c0-9.5,0-19,0-29.3
			c6.3,5,11.6,9.1,16.8,13.3C814.5,540.7,815.4,542.1,816.7,540.4z"/>
		<path class="st4" d="M831.1,564.3c0,33.3,0,66.6,0,99.9c0,4-1.2,6-5.8,5.9c-8.3-0.2-8.6,0-9.5-7.9c-1.1-9.9-2-19.8-4.7-29.5
			c-1.6-5.7-4.4-10.3-10.5-12.2c-2.4-0.8-3.4-0.1-3.4,2.4c0,24-0.1,47.9,0.2,71.9c0,3.6-0.2,9.2,2.8,10.4c2.6,1.1,5.6-3.8,8.2-6.2
			c20.9-19,41.7-38.2,62.5-57.3c1.1-1,2.4-1.8,3.5-2.7c0.2,1,0.3,2,0.5,3c-6.2,3.3-10.6,8.9-15.7,13.5c-25,22.6-49.7,45.5-74.6,68.2
			c-1,0.9-1.7,2.6-3.6,2.2c0.5-4.3,4.1-6.5,6.8-8.6c5.7-4.4,9.6-8.1,8.4-16.7c-2.7-19.7-0.7-39.6-1-59.4c-0.1-6.2,0-12.3,0-18.5
			c0-3.6,1.1-4.8,5.1-4.1c7.3,1.2,10.7,6.6,12.8,14c2.9,10.3,3.9,21,4.8,31.7c0.6,6.6,5.1,2.9,7.8,3.5c3.7,0.9,3.3-2.1,3.3-4.5
			c0.1-29.2,0.2-58.3,0.2-87.5c0-6.7,0-13.3,0.1-20C832,558.3,830.7,561.5,831.1,564.3z"/>
		<path class="st5" d="M851.2,506c6.6,0,9.1,2.1,8.8,8.1c-0.3,6-3.4,9.3-9.5,9c-5.5-0.2-8.4-3.1-8.5-9
			C841.9,508.7,844.9,506,851.2,506z"/>
		<path class="st4" d="M796.7,556c0,11.5,0,23,0.1,34.5c0,4.8,0.8,5.2,5.2,3.3c5.9-2.6,8.4-7.9,10.2-13.5c3.1-9.6,3.9-19.5,4-29.5
			c0-2.3-0.6-4.9,2.6-5.7c0.1,0.6,0.2,1.2,0.3,1.7c-0.6,5.4-1.7,10.7-1.8,16.1c-0.2,8.5-2.4,16.5-5.7,24.2c-2.2,5.3-6.6,8.1-12,9.6
			c-3,0.8-4.9-0.1-4.9-3.5c0-18.1-0.2-36.2,0.8-54.3c1.2,1.6,0.5,3.5,0.6,5.3C796.5,548.2,795.4,552.1,796.7,556z"/>
		<path class="st5" d="M1014,526c5,0,7,2.5,7.2,7.9c0.1,4.4-3.1,7.6-9,8.1c-4.1,0.3-7.3-3.6-7.2-8.6C1005,528.8,1008.5,526,1014,526
			z"/>
		<path class="st4" d="M1126.5,548.7c-0.9-12.9-0.2-25.8-0.3-38.7c0-1.7,0.8-3.7-1-5.1c1.8-3,2.2,0.4,3.3,0.7
			c-0.1,13.8-0.3,27.6-0.4,41.4C1127.5,547.5,1127,548.1,1126.5,548.7z"/>
		<path class="st4" d="M1026.9,703.3c10-3.2,20-6.3,30-9.5c3.1,1.9,5.1,4,1.3,7.2c0.7-5-1.5-5.4-5.6-3.9c-8.4,3-16.8,6.2-25.6,7.7
			C1026.9,704.3,1026.9,703.8,1026.9,703.3z"/>
		<path class="st4" d="M993.9,709.1c8.8-0.6,17.4-2.6,26-4.3c0,0.4,0.1,0.8,0.1,1.3c-5.8,2.8-12.2,2.9-18.4,3.8
			c-2.2,0.3-4.3,1.8-6.7,0.9C994.6,710.2,994.3,709.7,993.9,709.1z"/>
		<path class="st1" d="M1067.1,401.3c1.3,2.8,1.4,5.6-0.1,8.4C1065.5,406.9,1065.3,404.1,1067.1,401.3z"/>
		<path class="st3" d="M869.2,411.1c1.2,1.7,1.6,3.2-1,4C868.3,413.7,867,412,869.2,411.1z"/>
		<path class="st4" d="M873.1,655c-0.5-1.3-0.1-2.3,1-3.1C875.5,653.5,874.9,654.5,873.1,655z"/>
		<path class="st4" d="M1059.2,687c-0.1-1.1-1-2.4,0.8-3.1C1061.6,685.5,1061.4,686.5,1059.2,687z"/>
		<path class="st4" d="M1060,664c-1.8-0.6-0.9-2-0.8-3.1C1061.3,661.4,1061.6,662.5,1060,664z"/>
		<path class="st4" d="M874.7,646.1c-0.6-0.8-0.4-1.6,0.3-2.2C876.2,644.8,875.8,645.5,874.7,646.1z"/>
		<path class="st3" d="M868.2,395c1.5,0.2,2.2,0.7,0.8,2C867.7,396.8,868.1,395.8,868.2,395z"/>
		<path class="st1" d="M876.1,693.3c0.2,0.2,0.5,0.4,0.7,0.6C876.2,694.1,876,693.8,876.1,693.3z"/>
		<path class="st4" d="M740.2,293.9c3.6-0.6,6,1.4,8.2,3.4c6.3,5.9,12.8,11.6,18.1,18.6c3.5,4.7,4.1,8.9,0.4,13.6
			c-4.8,6.2-9.8,12.2-15.1,17.9c-16,17-32.4,33.5-47.8,50.9c-1.1,1.2-2.3,2.4-3.5,3.6c-4.5,4.3-6.1,4.3-11,0.3
			c-8.1-6.7-16.4-13.1-23.3-21.1c-4.9-5.6-5.2-9.3,0-14.8c16.6-17.5,33.5-34.8,50.2-52.2c5.3-5.5,10.5-11.2,15.8-16.7
			C734.4,295.2,736.9,293.1,740.2,293.9z"/>
		<path class="st0" d="M716,424c5.5,0,9.2,3.6,9.1,8.7c-0.1,5-4.7,9.5-9.4,9.3c-4.2-0.2-8.8-4.9-8.8-9.1
			C706.9,427.9,710.9,423.9,716,424z"/>
		<path class="st0" d="M801.1,343.6c0,5.2-3.9,9.6-8.5,9.6c-4.8,0-9.7-4.7-9.7-9.2c0-4.3,5-9.1,9.4-9.1
			C797,334.9,801.1,339,801.1,343.6z"/>
		<path class="st4" d="M1159.8,660.1c0.5-0.3,1.4-0.5,1.5-0.9c0.2-0.7-0.6-0.9-1.2-1.1c-2.3-0.4-5.4,1.2-6.8-1.6
			c-2-4.3-3.5-8.9-5.1-13.4c-0.2-0.5,0.5-1.6,1.1-2c5.6-4.3,11.3-8.6,17-12.7c0.7-0.5,1.9-0.3,2.9-0.5c3.9,0.4,7.9,0.4,11.7,1.3
			c8,2.1,13.2,6.8,14.6,15.5c2.3,14,3,28,0.6,41.9c-1.4,8.7-7.6,13.9-15.3,14.3c-9,0.5-15.1-3.5-17.9-12.6
			C1160.1,679.3,1159.9,669.7,1159.8,660.1z"/>
		<path class="st4" d="M1195.6,532.8c-1-3.6-0.8-7.4-2.5-11c-3.4-7.4-9.6-8.4-16.6-7.9c-5.7,0.4-8.5,4.3-10.3,8.8
			c-2.7,6.9-2.7,14.3-3.1,21.5c-0.4,7.2,0.8,14.5-0.7,21.8c-0.6-0.2-1.2-0.3-1.8-0.5c1.3-6.4,0.1-12.9,0.5-19.4
			c0.5-7.6-0.5-15.3,2.3-22.6c4-10.2,10.1-13.5,20.8-11.4c7.3,1.4,12.4,8.4,12.7,17.5c0,1.2-0.1,2.3-0.2,3.5
			C1196.4,533,1196,532.9,1195.6,532.8z"/>
		<path class="st0" d="M1160.7,565.5c0.6,0.2,1.2,0.3,1.8,0.5c-1.6,1.6-3.7,1.1-5.7,1.2c-8.6,0.5-17.2-0.8-25.7,0.8
			c-3,0.6-4.1-0.9-4.1-3.8c0-5.1-0.3-10.3-0.4-15.4c0.5-0.6,1-1.2,1.5-1.8c0.1,5.3,0.3,10.6,0.4,16c0,2.2,0.9,3.2,3.3,3.2
			C1141.4,565.8,1151,565.6,1160.7,565.5z"/>
		<path class="st4" d="M1234.4,570c0.9,1.7,1.1,3.4-0.2,5C1233.8,573.3,1233.8,571.6,1234.4,570z"/>
		<path class="st4" d="M1168.7,626c-0.8-0.7-1-1.3,0-2C1168.7,624.7,1168.7,625.3,1168.7,626z"/>
		<path class="st4" d="M752.4,611c-1.1-1.7-0.5-3.6-0.6-5.3c0-16.8,0-33.5,0-50.3c0-1.8,0.4-3.7-0.5-5.4
			c-0.4-15.6-0.5-31.2,0.1-46.9c1.4,2.1-0.6,5,1.5,7c0.1,1.6,0.3,3.3,0.3,4.9c-0.1,30.2-0.2,60.4-0.4,90.6
			C753,607.4,753.4,609.3,752.4,611z"/>
		<path class="st4" d="M755.2,489.8c13.7,10.5,27.4,21.1,39.9,33c-0.1,0.4-0.1,0.8-0.2,1.3c-12-6.3-20.1-17.3-31-25
			c-3.2-2.3-6.5-4.6-8.9-7.8C755.1,490.9,755.1,490.3,755.2,489.8z"/>
		<path class="st0" d="M794.9,524.1c0.1-0.4,0.1-0.8,0.2-1.3c7.3,4.8,13.8,10.4,20.1,16.5c0.4,0.4,1,0.7,1.5,1.1
			c-1.3,1.7-2.2,0.3-3.1-0.4c-5.3-4.1-10.5-8.3-16.8-13.3c0,10.3,0,19.8,0,29.3c-1.3-3.8-0.3-7.8-0.6-11.7c-0.2-1.8,0.5-3.6-0.6-5.3
			C794.9,534,796.5,529,794.9,524.1z"/>
		<path class="st0" d="M755.2,489.8c-0.1,0.5-0.1,1.1-0.2,1.6c-2.8-0.4-1.7,1.8-1.8,2.9c-0.2,5.3-0.2,10.5-0.2,15.8
			c-2.1-2-0.1-4.9-1.5-7c-0.2-5.3-0.3-10.7-0.5-16l0.1-0.1C753.2,486.8,754,488.6,755.2,489.8z"/>
		<path class="st0" d="M740.1,478c4.3,2.2,8,5.2,11,9c0,0-0.1,0.1-0.1,0.1C746.3,485.3,742.6,482.4,740.1,478L740.1,478z"/>
		<path class="st0" d="M729.1,469c4.3,2.2,8,5.2,11,9c0,0-0.1,0.1-0.1,0.1C735.3,476.3,731.6,473.4,729.1,469L729.1,469z"/>
		<path class="st2" d="M729,469c2.6,4.3,6.3,7.3,11,9c2.6,4.3,6.3,7.3,11,9c0.2,5.3,0.3,10.7,0.5,16c-0.6,15.6-0.6,31.2-0.1,46.9
			c-0.1,23.1-0.3,46.3-0.4,69.4c0,2,0.8,4.5-1.9,5.6c-0.1-1.1-0.8-1.8-1.6-2.4c-14.7-11.1-29.4-22.1-44.2-33.2
			c-0.5-0.4-1.2-0.6-1.8-0.9c-0.4-0.9-0.4-1.8,0.3-2.6c7.7-6.7,11.2-15.6,13-25.1c2.9-15.7,3.1-31.7,2.2-47.6
			c-0.6-10.9-1.4-21.8-6.1-32c-2.1-4.5-4.2-9-8.6-11.9c-6.6-6.3-15.2-7.9-23.6-8c-27.3-0.4-54.6-0.1-81.9,0c-1.4,0-2.9,0.1-4.3,0.1
			c-5.2-0.3-10.4,0.5-15.6,0.9c-3.5,5-2.6,12.4,2.1,15.6c4.5,3,7.4,7,8.5,12.2c-1.3,3.9,1.1,8.3-1.5,12c-1.4-3.1-4.5-4.3-7-6.1
			c-9.2-6.8-17.9-14.2-27.6-20.3c-0.9-1.5-2.3-2.4-4-3c-1-1.5-2.4-2.4-4-3c-10-8.8-21.1-16.2-31.6-24.4
			c-8.8-6.8-17.8-13.4-26.7-20.2c-0.9-0.7-1.7-1.4-2.6-2.2c1.4-1.2,2.8-0.7,4-0.7c55.1-0.1,110.3-0.2,165.4-0.4
			c2.6,0,3.9,1.4,5.5,2.9c14.5,13.7,29.4,27,45.2,39.4c4.3,3.4,9.1,6.2,13.7,9.2c2.6,1.7,4.3,1.8,6.1-1
			C723.9,469.8,725.8,468,729,469z"/>
		<path class="st4" d="M592.4,461.4c1.4,0,2.9-0.1,4.3-0.1C595.3,462.3,593.9,462.2,592.4,461.4z"/>
		<path class="st2" d="M669.1,541.7c-1.6,4.5-0.5,9.2-1,13.8c-0.2,1.8-0.3,4.3-1.5,5.1c-1.7,1.2-3.2-1.2-4.5-2.2
			c-6.4-4.7-12.6-9.9-19.2-14.3c-4.3-2.9-6.6-6.2-5.9-11.4c0-9.3,0.1-18.6,0.1-27.9c0-11.2,9.5-16.9,19.7-11.7
			c4.6,2.3,7.3,6.1,8.5,11.1C668.1,516.5,669.2,529,669.1,541.7z"/>
		<path class="st4" d="M1166.4,596.8c-0.6-5.6-0.6-11.1-0.1-16.7C1167.7,585.7,1167.4,591.3,1166.4,596.8z"/>
		<path class="st4" d="M1166.5,601.7c-0.2-0.2-0.3-0.4,0-0.6c0,0,0.2,0.3,0.2,0.3L1166.5,601.7z"/>
		<path class="st0" d="M948,596.7c-1.4-10.8,8.9-19.1,20.1-18.8c12,0.4,18.4,7.5,18.9,20.7c0.5,11.6-10.2,17.9-20.4,18.3
			C956.1,617.3,948,608.1,948,596.7z"/>
	</g>
</g>
</svg>
