<?xml version="1.0" encoding="utf-8"?>
<!-- Generator: Adobe Illustrator 27.3.1, SVG Export Plug-In . SVG Version: 6.00 Build 0)  -->
<svg version="1.1" id="Layer_1" xmlns="http://www.w3.org/2000/svg" xmlns:xlink="http://www.w3.org/1999/xlink" x="0px" y="0px"
	 viewBox="0 0 1920 1080" style="enable-background:new 0 0 1920 1080;" xml:space="preserve">
<style type="text/css">
	.st0{fill:#FFFFFF;}
	.st1{fill:#232323;}
	.st2{fill:#404040;}
	.st3{fill:#EDBE15;}
	.st4{fill:#CC203F;}
</style>
<g>
	<g>
		<path class="st0" d="M655.3,768c0.3-0.3,0.6-0.6,0.8-0.8c4.3-2.7,8-6.2,11.2-10.2c0.3-0.3,0.6-0.6,0.8-0.8c4-2.3,7.3-5.6,10.2-9.2
			c0.3-0.3,0.6-0.6,0.8-0.8c4.3-2.7,8-6.2,11.2-10.2c0.3-0.3,0.6-0.6,0.8-0.8c4-2.3,7.2-5.6,10.2-9.2c0.6-0.6,1.2-1.2,1.8-1.8
			c4-2.3,7.3-5.5,10.2-9.2c0.3-0.3,0.6-0.6,0.8-0.8c4.3-2.7,8-6.2,11.2-10.2c0.3-0.3,0.6-0.6,0.8-0.8c4-2.3,7.3-5.6,10.2-9.2
			c0.3-0.3,0.6-0.6,0.8-0.8c4.3-2.7,8-6.2,11.2-10.2c0.3-0.3,0.6-0.6,0.8-0.8c4.3-2.7,8-6.1,11.1-10.1c0,0-0.1,0.1-0.1,0.1
			c4.3-2.7,7.9-6.2,11.1-10.1c0.3-0.3,0.6-0.6,0.8-0.8c3.4-1.7,5.7-4.6,8.3-7.1c2.1-1.1,3.2-3.1,4.7-4.8c3-1.3,5-3.8,7.2-6
			c0,0-0.1,0.1-0.1,0.1c1-0.4,1.6-1.2,2-2.2c0.3-0.3,0.6-0.6,0.8-0.8c1.3-0.4,2.4-1,2.9-2.3c1-0.3,1.9-0.3,2.8,0.5
			c6.1,5.2,13,9.2,19.8,13.3c2.5,1.5,2.8,3.1,2.5,5.1c-0.7,4.8-1.9,9.5-2.6,14.3c-1.5,10.3-2.7,20.6-4.4,30.9
			c-1.4,8.3-1.2,16.9-3.8,25c-1.4,0-1.2,1.1-1.4,1.9c-1.1,1-2.2,2-3.3,3c-0.4-0.1-0.6,0.1-0.6,0.5c-3.1,2.1-5.9,4.6-8.3,7.5
			c-0.2,0.2-0.5,0.4-0.7,0.6c-3.9,2.5-7.1,5.9-10.2,9.2c0,0,0.1-0.1,0.1-0.1c-3.8,2-6.6,5-9.2,8.2c-0.4,0-0.6,0.1-0.6,0.5
			c-6.3,5.6-12.6,11.1-18.9,16.7c-11.8,10.6-23.6,21.2-35.4,31.7c-0.2,0.2-0.5,0.4-0.7,0.6c-3.4,1.8-5.8,4.6-8.3,7.4
			c-0.2,0.2-0.5,0.4-0.7,0.6c-2.6,1.9-5.3,3.7-7.2,6.4c-0.6,0.5-1.2,1-1.7,1.5c-3,1.5-5.1,4-7.3,6.5c-0.2,0.2-0.5,0.4-0.7,0.6
			c-3.4,1.8-5.8,4.7-8.4,7.4c-0.4-0.1-0.6,0.1-0.6,0.5c-2.4,2.2-4.8,4.3-7.3,6.5c-0.2,0.2-0.5,0.4-0.7,0.6c-3.4,1.8-5.8,4.6-8.3,7.4
			c-0.2,0.2-0.4,0.4-0.7,0.5c-3.1,2.1-5.9,4.6-8.3,7.5c-0.2,0.2-0.4,0.4-0.7,0.6c-3.1,2.1-5.9,4.6-8.3,7.4c-0.2,0.2-0.5,0.4-0.7,0.6
			c-3.4,1.8-5.8,4.7-8.3,7.4c-0.2,0.2-0.5,0.4-0.7,0.6c-3.4,1.7-5.4,4.9-8.2,7.3c0,0,0.1-0.1,0.1-0.1c-2.8,0.8-4,3.4-6,5.1
			c0,0,0.1-0.1,0.1-0.1c-2.7,0.9-4.1,3.3-6.1,5l0.3,0.1c0,0-0.2-0.2-0.2-0.2c-3.6,2.3-7.1,4.9-10,8.1c0,0,0.1-0.1,0.1-0.1
			c-3.8,1.2-4.2,4.3-3.8,7.6c2,14.1,4.3,28.2,3.9,42.5c-0.5,17.4-9.1,30.4-24.4,37.9c-11.5,5.6-24.2,4.3-36.4,1.4
			c-0.6-0.1-1.3-0.1-1.9-0.2c-3.7-2-7.3-4-11-6.1c-1.5-2.4-3.5-4.3-5.8-5.8c-3.4-5.8-6.7-11.5-8.2-18.2c-1.7-7.7-0.6-15.4-0.9-23.2
			c-0.1-2.6-0.5-3.8-3.5-3.6c-10.5,0.6-20.9-0.5-30.6-4.9l-0.4-0.1l-0.4,0c-1.3-1.7-3.1-2.5-5.1-3.1c0,0,0.1,0.1,0.1,0.1
			c-0.9-1.6-2.4-2.6-4.1-3.1c-0.6-0.6-1.2-1.2-1.8-1.8c-0.6-1.7-1.5-3.2-3.1-4.1c0,0,0.1,0.1,0.1,0.1c-0.5-2.1-1.4-3.9-3.1-5.2
			c0.1-0.3,0.1-0.5-0.1-0.7c-2.6-6.5-4.6-13.1-4.9-20.2c-0.5-10.3,2.7-19.6,7.2-28.7c0,0-0.1,0.1-0.1,0.1c1.6-0.9,2.6-2.4,3.1-4.1
			c0.9-0.9,1.9-1.9,2.8-2.8c2.2-0.8,3.8-2.6,5.5-4.2c0.2-0.3,0.3-0.6,0.5-0.9c1.3-0.3,2.6-0.7,3.1-2.1c0,0-0.1,0.1-0.1,0.1
			c13.1-5.6,26.5-3.6,40-1.6c8.6,1.2,16.2,5.2,24.6,7c2.7,0.6,5.5,1.6,7.5-1.5c0.3-0.3,0.6-0.6,0.8-0.8c3.7-2,6.4-5.3,9.4-8.1
			c1.3-0.5,1.8-1.8,2.6-2.9c3.4-1.7,5.7-4.6,8.3-7.1c1.2-0.6,2.4-1.4,2.7-2.9c3.7-2.1,6.4-5.2,9.4-8.1c1.4-0.5,1.9-1.8,2.6-2.9
			c3.4-1.7,5.7-4.6,8.3-7.1c1.8-0.8,2.7-2.4,3.7-3.9c4-2.3,7.3-5.6,10.2-9.2c0.3-0.3,0.6-0.6,0.8-0.8c4.3-2.7,8-6.2,11.2-10.2
			c0.3-0.3,0.6-0.6,0.8-0.8c4.3-2.7,7.9-6.2,11.1-10.1c0,0-0.1,0.1-0.1,0.1C648.5,775.4,652.1,771.9,655.3,768z"/>
		<path class="st0" d="M1261.8,771.5c0.2,0.2,0.4,0.4,0.6,0.6c3.1,3.6,6.4,6.9,10.4,9.5c0.6,0.5,1.1,1,1.7,1.5
			c2.8,3.8,6.3,6.9,10.3,9.4c0.2,0.2,0.4,0.4,0.7,0.6c3.1,3.5,6.2,7,10.3,9.5c0.6,0.5,1.1,1,1.7,1.5c2.8,3.8,6.1,7.1,10.3,9.4
			c0.2,0.2,0.4,0.4,0.6,0.6c2.8,3.9,6.6,6.7,10.4,9.5c0.6,0.5,1.1,1,1.7,1.5c2.5,3.5,5.8,6.1,9.3,8.5c0.6,0.5,1.1,1,1.7,1.5
			c2.7,3.8,6.1,6.9,10.2,9.2c0,0-0.1-0.1-0.1-0.1c3.8,3.4,7.5,6.9,11.3,10.3c2,1.7,4.7,2.4,7,1.3c2.5-1.3,5.2-1.9,7.8-2.6
			c16.8-4.4,33.7-9.5,51.3-4.1c11.7,3.6,20,11.2,24.6,22.3c2.3,5.5,2.8,11.6,3.4,17.6c0,2.7,0,5.4,0,8c-0.8,7-2.8,13.6-6.5,19.7
			c0,0,0.1,0,0.1,0c-1.2,1.3-2.7,2.4-3.2,4.2c-1.2,1.2-2.4,2.4-3.6,3.6c-10.7,8-22.7,12-36.1,11.4c-4.7-0.2-7.5,0.8-6.7,6.4
			c0.7,5.2-2.5,10.5-0.2,15.8c0,0.2,0,0.5,0.1,0.7c-0.5,0.2-0.9,0.5-0.8,1.1c-0.1,0.7-0.2,1.3-0.3,2c-2.7,6.3-3.8,13.3-8.2,18.8
			c0,0,0.1,0,0.1,0c-6.1,6.5-13.5,10.5-22.2,12.6c-4.2,1-8.7,0.6-12.6,2.7c-1.3,0-2.5-0.1-3.8-0.1c-3.2-1.7-6.8-0.5-10.1-1.8
			c-0.6-0.1-1.3-0.1-1.9-0.2c-2.7-1.9-5.9-2.9-9-4c0,0,0.1,0.1,0.1,0.1c-0.9-1.6-2.4-2.5-4.1-3.1c-1.8-2.7-4.2-4.9-6.8-6.8
			c-5.8-8.8-9.9-18.1-9.4-28.9c-1.2-2.7-1.2-5.4,0-8.1c0.4-6.7,1.4-13.3,2.1-19.9c0.5-5.3,3-10.8,0.3-16.3c0,0,0.1,0.1,0.1,0.1
			c-2.3-2.2-4.2-4.7-7.2-6c-0.2-1-0.7-1.6-1.7-1.9c-1.9-1.9-3.7-4.1-6.3-5.1c-0.5-0.6-1-1.2-1.6-1.9c-2.3-2.3-4.4-4.8-7.4-6.1
			c-0.1-0.9-0.6-1.6-1.6-1.9c-2.3-2.2-4.4-4.8-7.4-6.1c-0.1-1-0.6-1.6-1.6-1.9c-2.3-2.2-4.4-4.7-7.4-6.1c-0.2-1-0.7-1.6-1.6-1.9
			c-1.9-1.9-3.7-4.1-6.4-5.1c-0.7-1.1-1.3-2.4-2.7-2.9c-1.9-1.9-3.7-4.1-6.3-5.1c-0.5-0.6-1-1.2-1.6-1.9c-2.3-2.3-4.4-4.8-7.4-6.1
			c-0.3-1.5-1.5-2.3-2.7-2.9c-1.9-1.9-3.7-4.1-6.3-5.1c-0.2-1-0.7-1.6-1.7-1.9c-2.3-2.3-4.4-4.7-7.3-6.1c-0.2-1-0.7-1.6-1.7-1.9
			c-1.9-1.9-3.7-4.1-6.3-5.1c-0.5-0.6-1.1-1.2-1.6-1.9c-2.3-2.3-4.4-4.8-7.4-6.1c-0.3-1.5-1.5-2.3-2.7-2.9c-1.5-1.7-3-3.5-5.3-4.1
			c-0.5-0.6-1-1.2-1.5-1.9c-2.6-2.6-5.1-5.4-8.5-7.1c-0.2-1-0.7-1.6-1.7-1.9c-1.9-2-3.6-4.1-6.3-5.1c-0.5-0.6-1-1.2-1.6-1.9
			c-2.3-2.2-4.4-4.8-7.4-6.1c-0.1-1-0.6-1.6-1.6-1.9c-2.3-2.3-4.4-4.8-7.4-6.1c-0.2-0.3-0.3-0.6-0.5-0.9c-2.6-2.6-5.1-5.4-8.5-7.1
			c-0.2-0.3-0.3-0.6-0.5-0.9c-2.3-2.2-4.4-4.8-7.5-6.1c-0.8-1.1-1.3-2.4-2.7-2.9c-1.9-1.9-3.6-4.1-6.3-5.1c0,0,0.1,0.1,0.1,0.1
			c-2.4-3.3-5.5-6-9.1-8.1c0,0,0.1,0.1,0.1,0.1c-2.5-3.3-5.5-6-9.1-8.1c0,0,0.1,0.1,0.1,0.1c-2.2-2.9-4.8-5.4-8.1-7.1
			c0,0,0.1,0.1,0.1,0.1c-0.6-1.5-1.7-2.5-3.1-3.1c-0.3-0.4-0.9-0.8-0.9-1.2c-0.9-10.1-2.6-20-4.1-30c-1.8-12.1-3.3-24.2-5.9-36.1
			c-0.6-2.9-0.3-5.5,2.8-7c7.1-3.6,13.5-8.5,20-13c1.2-0.9,2.5-1.6,4-0.6c2.4,3.5,6,5.8,9.1,8.6c0,0,0.4,0.3,0.4,0.3
			c3.2,3.4,6.5,6.7,10.4,9.4c0.3,0.3,0.6,0.5,0.9,0.8c1.8,2.8,4.6,4.6,7.1,6.5c0.6,0.5,1.1,1,1.7,1.5c2.8,3.8,6.3,6.9,10.3,9.5
			c0.2,0.2,0.4,0.4,0.6,0.5c3.4,3.9,7.1,7.4,11.4,10.4c0.2,0.2,0.4,0.4,0.7,0.6c2.8,3.8,6.3,6.9,10.3,9.5c0.6,0.5,1.1,1,1.7,1.5
			c2.9,3.7,6.5,6.7,10.3,9.4c0.2,0.2,0.5,0.4,0.7,0.6c2.8,3.8,6.3,6.9,10.3,9.5c0.6,0.5,1.1,1,1.7,1.5c2.9,3.7,6.5,6.7,10.3,9.4
			c0.2,0.2,0.4,0.4,0.6,0.6c2.8,3.9,6.4,6.9,10.4,9.5c0.6,0.5,1.1,1,1.7,1.5c2.8,3.8,6.3,6.9,10.3,9.4c0.2,0.2,0.4,0.4,0.7,0.6
			c3.1,3.5,6.2,7,10.3,9.5c0.6,0.5,1.1,1,1.7,1.5C1254.5,765.8,1258,768.7,1261.8,771.5z"/>
		<path class="st0" d="M706.9,260.6c0.2,0.2,0.4,0.4,0.7,0.5c2.9,3.1,5.9,6.1,9.3,8.5c0,0.4,0.2,0.6,0.6,0.5
			c1.2,1.1,2.5,2.3,3.7,3.4c0,0,0.3,0.3,0.3,0.3c3.2,2.9,6.5,5.8,9.7,8.7c0,0,0.3,0.3,0.3,0.3c3.2,2.9,6.5,5.8,9.7,8.7
			c0,0,0.3,0.3,0.3,0.3c2.5,2.4,5.1,4.8,7.6,7.2c-12.3,19-22.6,38.9-29.8,60.4c-1.2,3.7-2.6,5.2-6.3,4.6c-0.7-1.1-1.7-1.8-3-2.1
			c0,0,0.1,0.1,0.1,0.1c-2.5-3.3-5.4-6.2-9.1-8.1c-0.3-0.3-0.6-0.6-0.8-0.8c-2.5-3.3-5.5-6.1-9.2-8.2c-0.3-0.3-0.6-0.6-0.8-0.8
			c-2.6-3.3-5.5-6.1-9.2-8.2c-0.3-0.3-0.6-0.6-0.8-0.8c-2.6-3.3-5.5-6.2-9.2-8.2c-0.3-0.3-0.6-0.6-0.8-0.8
			c-2.9-3.6-6.2-6.8-10.2-9.2c-0.3-0.3-0.6-0.6-0.8-0.8c-2.9-3.6-6.1-6.8-10.1-9.1c0,0,0.1,0.1,0.1,0.1c-2.8-3.6-6.1-6.8-10.1-9.1
			c-0.6-0.6-1.2-1.2-1.8-1.8c-2.9-3.6-6.1-6.8-10.2-9.2c-0.3-0.3-0.6-0.6-0.8-0.8c-3.2-3.9-6.8-7.4-11.2-10.2
			c-0.3-1.5-1.4-2.2-2.6-2.9c-3.3-3.2-6.3-6.8-10.4-9.1c-1-1.5-1.9-3.1-3.7-3.9c-3.7-3.4-6.9-7.5-11.3-10.1c-1.2-2-2.6-3.7-4.7-4.9
			c-4-3.8-7.5-8.3-12.3-11.1c-1.4-1.7-2.6-3.7-4.7-4.9c-2-2.5-4.3-4.8-7.9-3.8c-3.9,1.1-8.1,1.5-11.6,3.8c-0.7,0.1-1.3,0.2-2,0.3
			c-0.7-0.2-0.9,0.3-1,0.8c-0.7,0.1-1.3,0.1-2,0.2c-0.7-0.2-0.9,0.3-1.2,0.8c-0.6,0.1-1.2,0.1-1.8,0.2c-2-0.3-3.9,0-5.9,0.2
			c-9.2,1.3-18.4,2.4-27.9,0.8c-7-1.2-12.7-5-19.1-7.3c0,0,0.1,0.1,0.1,0.1c-0.9-1.7-2.3-2.6-4.1-3.1c-1.3-1.3-2.5-2.6-3.8-3.8
			c-0.6-1.7-1.5-3.2-3.1-4.1c0,0,0.1,0.1,0.1,0.1c-3.7-8.2-6.7-16.6-6.3-25.8c0-0.7,0-1.4,0-2c1.1-12.8,4.2-24.7,15.4-32.7
			c0,0,0,0.1,0,0.1c6.6-5.6,15.1-6.5,22.8-9.2c0.6-0.1,1.3-0.1,1.9-0.2c4.1,0.7,8.1-1.2,12.2-1c1.2,0.1,1.9-0.5,1.8-1.7
			c-0.5-7.5,0.6-15.1-1-22.5c0-0.2,0.1-0.5,0.1-0.7c2.3-8.6,5.5-16.9,11.1-24c0.9-0.9,1.9-1.9,2.8-2.8c1.8-0.5,3-1.7,4.1-3.1
			c0,0-0.1,0.1-0.1,0.1c6.4-3.2,13-5.5,20-7c0.6-0.1,1.3-0.1,1.9-0.2c7,0.7,14-0.5,21.1,1.8c6.6,2.1,11.4,6.2,16.8,9.8
			c0.9,0.8,1.7,1.7,2.6,2.5c1.5,2.2,3,4.3,4.4,6.5c3.8,6.5,4.3,13.8,5.3,21.1c1.9,13.9,0,27.4-2.2,41c-0.9,5.5-1.1,10.3,5,12.9
			c0.6,0.5,1.1,1,1.7,1.5c2.8,3.2,5.7,6.2,9.3,8.5c0.6,0.5,1.2,1,1.7,1.5c2.4,2.9,5.2,5.3,8.3,7.5c0.6,0.5,1.1,1,1.7,1.5
			c2.8,3.2,5.8,6.1,9.3,8.4c0.6,0.5,1.2,1,1.8,1.5c2.4,2.9,5.2,5.3,8.2,7.5c0.6,0.5,1.2,1,1.7,1.5c2.4,2.9,5.2,5.3,8.3,7.5
			c0.6,0.5,1.1,1,1.7,1.5c2.8,3.1,5.7,6.2,9.3,8.4c0.2,0.2,0.5,0.4,0.7,0.6c2.6,3.4,5.6,6.2,9.3,8.4c0.2,0.2,0.4,0.4,0.7,0.6
			c2.6,3.4,5.7,6.2,9.3,8.5c0.2,0.2,0.4,0.4,0.7,0.6C700.2,255.5,703.3,258.4,706.9,260.6z"/>
		<path class="st0" d="M1221.4,237.2c1.3-0.5,1.9-1.8,2.6-2.9c2.7-1,4.4-3.2,6.3-5.1c1.4-0.5,1.9-1.8,2.7-2.9
			c3.1-1.3,5.1-3.9,7.4-6.1c1-0.2,1.5-0.9,1.6-1.9c3-1.3,5.1-3.9,7.4-6.1c1.4-0.5,1.9-1.8,2.6-2.9c2.7-1,4.4-3.2,6.3-5.1
			c1.3-0.6,2.4-1.4,2.7-2.9c3-1.4,5-3.9,7.3-6.1c1.8-0.7,2.7-2.4,3.7-3.9c3.8-1.9,6.3-5.3,9.3-8.1c1.8-0.8,2.7-2.4,3.7-3.9
			c2.9-1.1,4.5-3.8,6.7-5.7c2.8-2.5,3.7-5,2.6-9.1c-1.6-6.3-1.7-12.9-2.3-19.4c-1.1-12-0.7-24,0.8-36c0.1-0.6,0.1-1.3,0.2-1.9
			c1.3-0.8,0.9-1.9,0.8-3.1c0.4-1,1.6-1.6,1.3-2.9c1-0.4,0.8-1.3,1-2c0,0-0.1,0.1-0.1,0.1c1.3-0.6,1.8-1.8,2-3.1
			c0,0-0.1,0.1-0.1,0.1c1.6-0.9,2.6-2.3,3.1-4.1c0.6-0.6,1.2-1.2,1.8-1.8c2.1-0.9,3.9-2.1,5.1-4.1c0,0-0.1,0.1-0.1,0.1
			c1.4-0.2,2.5-0.7,3.1-2.1c0,0-0.1,0.1-0.1,0.1c0.8-0.2,1.6-0.3,2.4-0.7c10.5-5.4,21.6-6.7,33.2-4.6c14.3,2.6,24.9,9.9,31.5,23.2
			c2.4,4.9,2,10.4,4.8,15c0,1.9-0.1,3.9-0.1,5.8c-2,5.1-1.9,10.5-1.9,15.8c0,3,2.1,3.3,4.5,3.3c7.1-0.3,14.1,0,21,1.9
			c14.6,3.9,24.4,12.9,27.4,27.6c3,15,2.7,30.1-7.1,43.2c0,0,0.1-0.1,0.1-0.1c-0.6,0.7-1.3,1.4-1.9,2.1c-1.4,0-2.1,0.7-2.1,2.1
			c-0.7,0.6-1.4,1.2-2.1,1.9c0,0,0.1-0.1,0.1-0.1c-7.4,4.9-15.4,8.6-24.3,9.2c-7.5,0.4-15,0.2-22.4,0.2c-0.7-0.1-1.3-0.1-2-0.2
			c-6-1.3-12-2.5-18-3.8c-0.7-0.1-1.3-0.1-2-0.2c-2.4-1.4-5.3-1.2-7.7-2.2c-2-0.8-3.3-0.2-4.3,0.9c-2.5,2.5-5.6,4.2-7.4,7.4
			c-0.6,0.5-1.1,1-1.7,1.5c-4,2.6-7.5,5.6-10.3,9.5c-0.6,0.5-1.1,1-1.7,1.5c-3.5,2.4-6.8,5-9.3,8.5c-0.6,0.5-1.2,1-1.7,1.5
			c-3.8,2.8-7.4,5.7-10.3,9.5c-0.6,0.5-1.1,1-1.7,1.5c-2.5,1.5-4.7,3.4-6.4,5.8c0,0-0.3,0.3-0.3,0.3c-7.6,6.9-15.1,13.8-22.7,20.7
			c0,0-0.3,0.2-0.3,0.2c-4,3.5-8.2,6.7-11.7,10.7c0,0-0.3,0.3-0.3,0.3c-7.6,6.9-15.1,13.8-22.7,20.7c0,0-0.3,0.2-0.3,0.2
			c-4,3.5-8.2,6.7-11.7,10.7c0,0-0.3,0.3-0.3,0.3c-3.9,3.6-7.8,7.1-11.7,10.7c0,0-0.3,0.3-0.3,0.3c-3.7,3.1-7.5,6-10.7,9.8
			c0,0-0.3,0.2-0.3,0.3c-1.7,1.5-3.5,3.1-5.2,4.6c-2.3-0.8-5.7,1.6-6.9-2.1c-2.5-7.6-4.4-15.4-7.1-23c-3.9-10.9-7.3-22-13.4-32.1
			c-2-3.4-4.9-6.6-5.5-10.7c0.7-0.6,1.3-1.3,2-1.9c3.1-1.2,5.2-3.5,7.1-6.1c0,0-0.1,0.1-0.1,0.1c3.6-2.1,6.6-4.8,9.1-8.1
			c0.3-0.3,0.6-0.6,0.8-0.8c3.1-1.3,5.1-3.9,7.4-6.1c1-0.2,1.5-0.9,1.6-1.9c2.6-1,4.3-3.2,6.3-5.1c1.3-0.6,2.4-1.4,2.7-2.9
			c3-1.4,5.1-3.9,7.3-6.1c1.4-0.5,1.9-1.8,2.7-2.9c3-1.3,5.1-3.9,7.4-6.1c1-0.2,1.5-0.9,1.6-1.9
			C1217.1,241.9,1219.1,239.4,1221.4,237.2z"/>
		<path d="M1158.1,293.2c0.7,4.2,3.5,7.3,5.5,10.7c6.1,10.1,9.5,21.2,13.4,32.1c2.7,7.6,4.7,15.3,7.1,23c1.2,3.7,4.6,1.4,6.9,2.1
			c1.1,1.3,2.6,0.9,4,0.8c13,0.5,25.9-0.6,38.9,1c29.1,3.6,56.8,10.8,80.4,29.3c7.9,6.2,13.6,14.2,17.7,23.2
			c2.6,5.6,0.5,8.4-5.7,8.6c-41,1.2-81.9,0.9-122.9,1c-4.3,0-5.7,1-5.6,5.5c0,14.8-0.2,29.6-1,44.3c-1.2,21.5-5.3,42.5-11.2,63.3
			c-8.2,28.7-23.6,52.9-42,75.7c-6.5,8-14,15.1-22.3,21.3c-1.4,1-3.3,1.8-3.5,3.9c-0.1,0.3,0,0.6,0.1,0.9c-1.5-1-2.8-0.3-4,0.6
			c-6.6,4.5-12.9,9.3-20,13c-3.1,1.6-3.4,4.1-2.8,7c2.6,11.9,4.1,24,5.9,36.1c1.5,10,3.2,19.9,4.1,30c0,0.4,0.6,0.8,0.9,1.2
			c-0.1,0.7-0.1,1.4-0.2,2.1c0.4,10,0.8,20,0.6,29.9c-0.4,15.8,0.6,32-4.4,47.4c-10.4,32.1-27.4,59.2-58.8,74.3
			c-19.8,9.5-40.9,15.1-63.2,16.7c-27.8,2.1-55-0.7-81.8-7.9c-14.3-3.9-26.6-12-37.8-21.6c-23.3-20-37.7-45.3-42.9-75.5
			c-2.9-17-1.7-34.2-0.9-51.3c0.2-4,0.3-8,0.4-12c-0.1-0.4-0.1-0.7-0.2-1.1c0-0.7,0.4-1.5-0.6-1.8c2.6-8.1,2.5-16.7,3.8-25
			c1.7-10.3,2.8-20.6,4.4-30.9c0.7-4.8,1.9-9.5,2.6-14.3c0.3-2,0-3.6-2.5-5.1c-6.8-4.1-13.8-8.1-19.8-13.3c-0.9-0.7-1.8-0.8-2.8-0.5
			c-0.3-0.3-0.6-0.6-0.9-0.9c0.1-1.8-1.4-2.4-2.5-3.4c-24.7-19.8-45.3-43.1-59.2-71.6c-12.5-25.6-20.6-52.8-23.5-81.4
			c-1.7-16.5-3-33.1-2.8-49.7c0-3-0.9-3.9-3.9-4.1c-15.8-1.2-31.6-0.6-47.4-0.8c-25.5-0.4-50.9-0.7-76.4-0.9c-4,0-5.3-1.7-5.4-5.3
			c-0.2-4.6,1.8-8.3,4.6-11.8c10.2-12.4,23.3-20.6,37.8-26.9c17.9-7.8,36.5-13.6,55.9-15.6c9.6-1,19.4-2.7,29.3-0.6
			c2.1,0.5,4.6,0.9,6.7-0.7c1-0.1,2-0.1,2.9-0.2c3.7,0.6,5.1-0.9,6.3-4.6c7.2-21.5,17.4-41.5,29.8-60.4c0.9-0.4,1.5-1.1,1.8-2
			c13.4-21.3,30.7-39.3,49-56.2c26.8-24.7,58.6-40.2,94-48.8c25.5-6.2,51.3-6.8,77.2-5.7c23.4,1,46.5,4.8,68.9,11.9
			c34.8,11,63.7,31,88.4,57.6c9.3,10,17.4,20.9,25.3,32C1155.1,289.6,1156.6,291.4,1158.1,293.2z M926.3,427.5
			c-51.3,0.8-130.1,0.1-208.9-0.7c-5.4-0.1-6.7,1.6-5.9,6.3c1,6.6-0.3,13.3,0.4,20c1.1,11.3,1.8,22.5,3.1,33.8
			c2.4,20.3,8.4,39.7,15.5,58.6c10,26.5,26.8,48.7,46.1,68.9c8,8.4,17.2,15.6,26.5,22.4c18.7,13.8,39.3,24,61,32.1
			c16.9,6.2,34.3,10.4,51.9,13.8c13.3,2.6,26.9,4.4,40.4,4.8c10.7,0.3,21.4,0.5,32.2-0.5c14.2-1.4,28-3.9,41.6-7.9
			c20.9-6,40.4-15.2,59.2-26.1c19-11,37.1-23.1,51.5-39.9c18.1-21,32.1-44.6,41.1-70.9c8.2-23.9,11.7-48.7,12.9-73.9
			c0.6-12.5,0.4-25,0.9-37.4c0.2-4.4-1-5.5-5.5-5.5C1111.4,426.4,1032.6,426.8,926.3,427.5z M984.5,424.3c12,0,24,0.1,36,0
			c101.5-0.8,202.9-1.6,304.4-2.4c6.7-0.1,7.1-0.9,4.2-6.8c-7.9-16.3-21.4-26.5-37.3-33.9c-24.3-11.4-50.2-16.4-76.8-16.7
			c-35.3-0.5-70.6,0.2-106,0.4c-106.1,0.6-212.3,1.1-318.4,1.7c-33.8,0.2-67.6,0.3-101.5,0.6c-11.2,0.1-22.4,1.5-33.3,4.1
			c-20.1,4.8-39.4,11.7-56.8,23.1c-7.9,5.3-15.3,11.5-19.8,20.1c-3.5,6.7-1.6,8.6,4.9,8.6c20.1,0,40.2,0.4,60.3,0.7
			c31.8,0.4,63.6,0.8,95.5,1.1C821.5,425.4,903,425.1,984.5,424.3z M745.5,310.1c139.5-0.8,277.9-1.7,416.6-2.5
			c-3.8-6.6-7-12.8-10.7-18.8c-10-16.5-23.4-30.1-36.9-43.5c-25.8-25.4-57-41.2-92-49.3c-18.1-4.2-36.6-6.1-55.2-7.2
			c-21-1.2-41.8-0.3-62.3,3.4c-32,5.8-61.6,17.9-87.9,37.6c-14.7,11-27.3,24.2-39.9,37.5C765.2,280.1,755.4,294.4,745.5,310.1z
			 M1100,763.7c-13.4,6.9-25.7,13.7-38.8,19.1c-13,5.4-26.3,9.5-40.5,11.4c-14.9,2-29.8,3.8-44.8,4.6c-21.6,1.1-43.3,0.5-64.8-2.8
			c-14.4-2.2-28.8-4.4-42.7-9c-17.4-5.7-33.9-13.6-50.6-20.8c-3.3-1.4-3.7-0.4-3.9,2.6c-0.8,16.2,2.1,32.1,7.8,47
			c8.4,22,22.3,40.5,41,55c9.2,7.1,19.1,13.7,30.4,16.8c18.8,5.2,37.9,8.6,57.6,8.8c16.9,0.2,33.6-0.6,50-4.7
			c25.5-6.3,50.4-14.3,67.8-36c9-11.2,17.1-22.9,22.5-36.3c3.7-9.3,6.5-18.8,7.1-29C1098.7,781.8,1100,773.1,1100,763.7z
			 M721.1,364.1c2.5,0,4.4,0,6.4,0c46.8-0.3,93.6-0.6,140.4-0.8c61.6-0.4,123.2-0.7,184.9-1c41.8-0.2,83.6-0.3,125.4-0.5
			c2.1,0,5,1,3.7-3.3c-4.7-14.6-9.2-29.2-15.2-43.3c-1.6-3.7-3.5-5.2-7.8-5.1c-22,0.5-44,0.6-65.9,0.7
			c-62.6,0.4-125.2,0.8-187.9,1.1c-50.1,0.3-100.3,0.8-150.4,0.7c-8.1,0-12.9,1.8-16.4,9.6C732.2,335.8,725.5,349.1,721.1,364.1z
			 M1034.2,691.1c2.2,0.6,1.8,1.6,1.8,2.3c0.8,10.4,1.3,20.8,1,31.2c-0.1,2.9,0.7,3.9,3.6,3c17.7-5,34.2-13,50.5-21.3
			c4.4-2.3,4.4-5.6,3.8-9.4c-1.9-11.7-4-23.3-5.7-35c-0.5-3.6-1.3-4.6-4.9-2.7c-13.2,7-26.5,14-40.9,18.4c-5.2,1.6-8.5,3.3-7.6,9.3
			c0,0.2-0.6,0.5-1,0.8c-1.5-5.9-2.8-7.1-6.8-5.3c-5.6,2.5-11.6,3.2-17.5,4.3c-15.7,3-31.7,4.2-47.7,3.3c-3.3-0.2-3.8,0.9-3.8,3.8
			c0,12.2,0.8,24.4,0.1,36.7c-0.4,6.6,0.5,7.1,7,6.4c14-1.4,28-2.6,41.9-4c7.6-0.8,15.2-2,22.8-3c4-0.5,4.6-2.9,4-6.5
			C1033,712.8,1034.3,702.1,1034.2,691.1z M959.9,767.8c0.2,0,0.3,0,0.5,0c0,8.5,0.1,17-0.1,25.5c-0.1,2.9,0.9,3.7,3.7,3.5
			c4.8-0.4,9.6-0.4,14.4-0.8c11.8-0.9,23.5-2,35.3-3c6.2-0.5,12.3-1.9,18.4-3.2c2.6-0.5,3.9-1.9,4-5.3c0.2-14.9-1.9-29.8-1.2-44.7
			c0.1-1.5-0.2-3,0-4.5c0.7-3.7-1.9-3.9-4.1-3.3c-7.5,2.2-15.4,3-23.1,3.6c-14.9,1.2-29.8,3.3-44.7,3.2c-2.7,0-3.3,0.8-3.3,3.4
			C960,750.8,959.9,759.3,959.9,767.8z M882.3,733.4c0,15.2,0,30.3,0,45.5c0,9.8,0.1,9.8,9.3,11.9c0.8,0.2,1.7,0,2.5,0.2
			c11.1,1.7,22.2,3.3,33.5,4.3c9.2,0.8,18.3,1.5,27.5,1.6c2.2,0,2.9-0.7,2.8-2.9c-0.3-17.2-0.6-34.3-0.8-51.5c0-1.8-0.4-2.6-2.5-2.7
			c-15.2-0.2-30.2-1.5-45.3-2.9C900.4,736.2,891.6,734.5,882.3,733.4z M881.9,704c0,0,0.1,0,0.1,0c0,7.8,0,15.6,0,23.5
			c0,2.2,0.2,3.3,3,3.7c7.3,1,14.6,2,21.9,2.9c15.4,2,30.8,3.1,46.3,3c2.4,0,4,0.1,3.9-3.3c-0.3-13.6-0.4-27.3-0.4-40.9
			c0-2.1-0.4-3-2.7-2.9c-6.7,0.2-13.4-1.3-20-1.9c-16.4-1.5-32.3-5.1-48.1-9.4c-4.8-1.3-4,0.6-4,3.3
			C881.9,689.3,881.9,696.7,881.9,704z M817,708.4c0,3.6,0.3,6.3-0.1,8.9c-1.8,13.7-2.9,27.5-2.9,41.3c0,2.1,0.5,3.1,2.5,4
			c13.2,6.2,26.6,12,40.2,17.2c6.1,2.4,12.3,4.7,18.6,6.7c1.8,0.6,4.8,1.9,4.7-2.4c-0.2-16.3-0.2-32.6-0.3-48.9c0-2-0.5-3-2.7-3.4
			c-8.1-1.3-15.9-4.1-23.5-7.1C841.4,720,829.5,714.8,817,708.4z M1095.5,706.5c-8.5,5.1-17.1,9.2-25.8,13
			c-9.4,4.1-18.6,8.9-29,10.6c-2.4,0.4-4,1.6-3.9,4.9c0.1,4.2,1.2,8.1,1.2,12.2c0,10.5,0,21,0,31.4c0,10.1,0,10.1,9.5,6.4
			c0.4-0.2,1,0,1.5-0.2c16.5-5.9,32-13.9,47.4-22.2c2.5-1.3,4-3.1,3.7-6.5c-1-11-1.5-22-2.1-33
			C1097.7,717.7,1097.1,712.3,1095.5,706.5z M879.6,703.2c-0.1,0-0.3,0-0.4,0c0-7.8,0-15.6,0-23.5c0-1.5,0.4-3.1-2-3.8
			c-16.8-4.7-32.8-11.5-48.3-19.7c-2.5-1.3-3.4-0.3-3.7,1.9c-2.4,15.1-4.7,30.2-7,45.3c-0.3,1.9,0.3,3,2.4,4
			c8.3,3.5,16.2,7.7,24.5,11.1c9.9,4.1,19.8,8.4,30.5,10.6c4.2,0.9,4.2-0.8,4.2-3.9C879.4,717.8,879.6,710.5,879.6,703.2z"/>
		<path class="st1" d="M1426.6,214.9c9.8-13.2,10.1-28.2,7.1-43.2c-3-14.7-12.8-23.8-27.4-27.6c-6.9-1.8-13.9-2.1-21-1.9
			c-2.4,0.1-4.5-0.2-4.5-3.3c0-5.4,0-10.7,1.9-15.8c2.1,2.2,0.9,4.6,0.4,7c-1.4,7.2-0.4,8.3,6.5,9.2c8,1.1,16,1.9,23.7,5
			c12.9,5.2,19.8,15.4,23,28.1c3.3,12.9,2,25.6-4.4,37.5C1430.8,211.9,1430.3,215.2,1426.6,214.9z"/>
		<path class="st1" d="M553.1,991.9c12.3,2.9,24.9,4.2,36.4-1.4c15.3-7.5,23.9-20.4,24.4-37.9c0.4-14.3-1.9-28.4-3.9-42.5
			c-0.5-3.3-0.1-6.4,3.8-7.6c-3.8,8.2,0.3,16.1,0.7,24.2c0.4,11.6,3.8,23.1,0.6,34.8c-5.3,19.3-20.4,35-43.1,34.3
			c-5-0.1-10,0.4-14.8-1.2C555.7,994.2,553.3,994.6,553.1,991.9z"/>
		<path class="st1" d="M1447.1,888.9c-0.6-6-1.1-12.1-3.4-17.6c-4.6-11.2-12.9-18.8-24.6-22.3c-17.6-5.4-34.5-0.3-51.3,4.1
			c-2.6,0.7-5.3,1.3-7.8,2.6c-2.3,1.1-5,0.4-7-1.3c-3.8-3.3-7.6-6.8-11.3-10.3c5-0.6,7.2,3.9,10,6.4c3.9,3.5,7.2,3.7,11.7,2.2
			c14.8-5,29.8-8.4,45.7-7.9c18.6,0.5,36.4,15.9,38.9,34.3c0.2,1.8,0.8,3.6,0.9,5.4C1448.8,886.1,1449.9,888.3,1447.1,888.9z"/>
		<path class="st1" d="M1382.9,117.2c-2.8-4.6-2.4-10.1-4.8-15c-6.6-13.3-17.2-20.6-31.5-23.2c-11.6-2.1-22.6-0.8-33.2,4.6
			c-0.7,0.4-1.6,0.5-2.4,0.7c-0.2-1.5,0.7-2.1,1.8-2.6c19.7-8.8,38.8-8.2,56.2,5.4c8.3,6.5,12.7,16,14.8,26.4
			C1384.1,114.8,1383.4,116,1382.9,117.2z"/>
		<path class="st1" d="M614,176.7c-6.1-2.6-5.9-7.4-5-12.9c2.3-13.6,4.1-27.1,2.2-41c-1-7.3-1.5-14.6-5.3-21.1
			c-1.3-2.2-2.9-4.3-4.4-6.5c2.7-0.4,3.6,1.7,4.8,3.5c5.8,8.6,6.9,18.5,7.6,28.4c0.9,13.3-0.8,26.4-3.1,39.5
			c-0.5,2.8-0.6,4.8,1.7,6.5C613.7,174,614.2,175.2,614,176.7z"/>
		<path class="st1" d="M723.6,806.8c11.8-10.6,23.6-21.2,35.4-31.7c6.3-5.6,12.6-11.1,18.9-16.7c0.4,1.9-0.8,3.1-2.1,4.2
			c-10.8,9.6-21.6,19.1-32.3,28.6c-4.8,4.3-9.6,8.7-14.3,13.1C727.6,805.8,726.2,807.5,723.6,806.8z"/>
		<path class="st1" d="M491.1,930c9.8,4.4,20.1,5.5,30.6,4.9c3-0.2,3.4,1,3.5,3.6c0.3,7.7-0.9,15.4,0.9,23.2
			c1.5,6.7,4.9,12.4,8.2,18.2c-3.6-0.1-4.3-3.4-5.5-5.7c-5.3-10.4-6.7-21.5-5.5-32.9c0.4-3.7-0.4-4.5-3.9-4.4
			c-7.8,0.4-15.5-0.8-23-3.1C494.3,933.1,491.7,932.9,491.1,930z"/>
		<path class="st1" d="M562.3,853c-2,3.1-4.8,2-7.5,1.5c-8.3-1.8-16-5.7-24.6-7c-13.5-2-26.9-4-40,1.6c2.3-5.1,7.4-4.7,11.4-5
			c16.1-1.1,32,0.3,47.2,6.5C553.1,852.3,557.6,853.3,562.3,853z"/>
		<path class="st1" d="M1292.9,109.1c-1.5,12-1.9,23.9-0.8,36c0.6,6.5,0.7,13.1,2.3,19.4c1,4.1,0.2,6.7-2.6,9.1
			c-2.2,2-3.8,4.6-6.7,5.7c0.2-3.7,3.5-5.1,5.6-7.3c1.9-2,2.7-4.1,2.2-6.7c-2.7-15-3.8-30.2-2.7-45.5
			C1290.3,116.3,1289.3,112,1292.9,109.1z"/>
		<path class="st1" d="M1390.8,958c-2.3-5.3,0.9-10.5,0.2-15.8c-0.8-5.6,2-6.6,6.7-6.4c13.4,0.6,25.4-3.4,36.1-11.4
			c0.4,2.5-1.4,3.5-3.1,4.5c-10.1,5.8-20.7,9.7-32.5,8.9c-4.1-0.3-5.6,1-5.3,5.2C1393.2,948.1,1392.8,953.2,1390.8,958z"/>
		<path class="st1" d="M485.2,224.9c6.4,2.4,12.1,6.2,19.1,7.3c9.5,1.6,18.6,0.5,27.9-0.8c2-0.3,3.9-0.5,5.9-0.2
			c-8.3,4-17.2,4.3-26.1,3.8c-8.3-0.5-16.4-2.2-23.6-6.8C487,227.4,485,227.2,485.2,224.9z"/>
		<path class="st1" d="M1373.9,230.1c7.5,0,15,0.2,22.4-0.2c9-0.5,16.9-4.2,24.3-9.2c0.5,2.2-1.2,2.8-2.5,3.8
			c-6.8,4.9-14.7,6.8-22.9,7.4c-5.8,0.5-11.6,0.1-17.5,0.1C1376.3,232,1374.3,232.7,1373.9,230.1z"/>
		<path class="st1" d="M599,92.7c-5.4-3.6-10.2-7.7-16.8-9.8c-7.1-2.3-14.1-1.1-21.1-1.8c0.1-1.1,0.7-1.8,1.9-1.9
			c12.5-1.2,24,1.3,33.9,9.3C598.2,89.5,599.4,90.7,599,92.7z"/>
		<path class="st1" d="M475.3,863c-4.5,9-7.7,18.4-7.2,28.7c0.4,7,2.4,13.7,4.9,20.2c-5-2.5-4.6-7.8-5.3-12
			c-1.7-11.5-1.7-23.1,4.2-33.8C472.7,864.8,473,862.8,475.3,863z"/>
		<path class="st1" d="M1346.8,995.9c3.9-2,8.4-1.6,12.6-2.7c8.8-2.1,16.1-6.1,22.2-12.6c0.5,1.6,0.1,2.9-1.1,4
			c-8.8,8-19.5,11.1-31,12.2C1348.7,996.9,1347.8,996.2,1346.8,995.9z"/>
		<path class="st1" d="M521.1,118.9c1.6,7.4,0.5,15,1,22.5c0.1,1.2-0.6,1.8-1.8,1.7c-4.1-0.3-8,1.7-12.2,1c0.4-2.8,2.7-1.8,4.3-2
			c7.4-1.2,7.6-1.5,7.7-9C520.3,128.3,519,123.5,521.1,118.9z"/>
		<path class="st1" d="M483.4,153.3c-11.2,8-14.3,19.9-15.4,32.7c-2.5-11.4,1.6-20.8,8.9-29.2C478.5,155,480,152.3,483.4,153.3z"/>
		<path class="st1" d="M1231.5,324.3c7.6-6.9,15.1-13.8,22.7-20.7c0.6,0.7,0.9,1.6,0.2,2.2c-6.8,6.3-13.7,12.5-20.6,18.7
			C1233,325.1,1232.2,324.8,1231.5,324.3z"/>
		<path class="st1" d="M1266.5,292.3c7.6-6.9,15.1-13.8,22.7-20.7c0.6,0.7,0.9,1.6,0.2,2.2c-6.8,6.3-13.7,12.5-20.6,18.7
			C1268,293.1,1267.2,292.8,1266.5,292.3z"/>
		<path class="st1" d="M1304.1,906.7c2.7,5.5,0.2,10.9-0.3,16.3c-0.7,6.6-1.6,13.3-2.1,19.9c-3.1-1-1.8-3.6-1.6-5.4
			C1301.3,927.2,1302.8,916.9,1304.1,906.7z"/>
		<path class="st1" d="M1301.8,950.9c-0.5,10.8,3.6,20.1,9.4,28.9c-0.8-0.2-1.8-0.2-2.2-0.7c-6.3-7.6-8.1-16.7-9-26.2
			C1299.9,951.7,1300.6,951.1,1301.8,950.9z"/>
		<path class="st1" d="M532.3,94.2c-5.5,7.1-8.7,15.4-11.1,24c-0.2-0.2-0.7-0.4-0.7-0.6c0.9-8.7,3.9-16.5,9.9-23
			C530.8,94.2,531.7,94.3,532.3,94.2z"/>
		<path class="st1" d="M468,188.1c-0.4,9.2,2.6,17.6,6.3,25.8c-2.8,0.1-2.9-2.4-3.7-4c-2.9-6.2-3.4-12.9-4.4-19.5
			C466,189.2,466.5,188.2,468,188.1z"/>
		<path class="st1" d="M506.1,144.2c-7.7,2.7-16.2,3.7-22.8,9.2c-0.5-3.7,2.9-4.2,4.9-5.2c5.1-2.7,10.8-3.6,16.3-4.9
			C505,143.2,505.6,143.9,506.1,144.2z"/>
		<path class="st1" d="M1381.6,980.6c4.4-5.5,5.5-12.5,8.2-18.8C1391.8,967.4,1386.8,979.1,1381.6,980.6z"/>
		<path class="st1" d="M1332.5,232c1.8-3.1,5-4.9,7.4-7.4c1.1-1.1,2.4-1.7,4.3-0.9c2.4,1,5.3,0.9,7.7,2.2c-0.4,0.3-0.9,1-1,0.9
			c-6.6-3.1-11.4-0.2-15.6,4.7C1334.8,232.1,1333.5,231.8,1332.5,232z"/>
		<path class="st1" d="M1440.6,916.6c3.7-6,5.7-12.7,6.5-19.7c0.9,0.1,1.8,0.4,1.7,1.4c-0.8,6.6-2,13.1-6.8,18.3
			C1441.8,916.9,1441.1,916.6,1440.6,916.6z"/>
		<path class="st1" d="M546,228.9c3.5-2.3,7.7-2.7,11.6-3.8c3.6-1,5.8,1.4,7.9,3.8c-6.1-2.8-12-1.1-17.9,0.7
			C546.9,229.9,546.4,229.5,546,228.9z"/>
		<path class="st1" d="M559.2,81.3c-6.9,1.5-13.6,3.9-20,7c-0.3-1.7,1-2.3,2.2-2.8C547.1,83.2,552.5,79.5,559.2,81.3z"/>
		<path class="st1" d="M1207.5,346.2c3.9-3.6,7.8-7.1,11.7-10.7c0.6,0.7,0.9,1.6,0.2,2.2c-3.2,3-6.4,5.9-9.7,8.8
			C1209,347.1,1208.1,346.8,1207.5,346.2z"/>
		<path class="st1" d="M1353.9,226.1c6,1.3,12,2.5,18,3.8c-2.6,2.8-5.5,0.5-7.9-0.1C1360.6,229.1,1356.4,229.7,1353.9,226.1z"/>
		<path class="st1" d="M570.1,233.8c4.9,2.9,8.3,7.3,12.3,11.1C576,243.8,572.9,239,570.1,233.8z"/>
		<path class="st1" d="M1219.5,335.2c3.5-4,7.7-7.2,11.7-10.7c0.5,0.7,0.8,1.6,0.1,2.3c-3.1,2.9-6.4,5.8-9.6,8.7
			C1221,336.1,1220.2,335.8,1219.5,335.2z"/>
		<path class="st1" d="M1254.5,303.2c3.5-4,7.7-7.2,11.7-10.7c0.5,0.7,0.8,1.6,0.1,2.3c-3.1,3-6.4,5.8-9.6,8.7
			C1256,304.1,1255.2,303.8,1254.5,303.2z"/>
		<path class="st1" d="M748.3,683c-3.2,4-6.8,7.4-11.2,10.2C739.1,687.9,743.1,684.8,748.3,683z"/>
		<path class="st1" d="M615.1,275.8c4.3,2.7,7.9,6.2,11.2,10.2C621.1,284.2,617.1,281.1,615.1,275.8z"/>
		<path class="st1" d="M771.3,662c-3.2,3.9-6.8,7.4-11.1,10.1C762.1,666.9,766.1,663.8,771.3,662z"/>
		<path class="st1" d="M632.3,789c-3.2,4-6.8,7.4-11.2,10.2C623.1,793.9,627.1,790.8,632.3,789z"/>
		<path class="st1" d="M760.2,672.1c-3.1,4-6.8,7.5-11.1,10.1C750.9,676.8,755.4,674.2,760.2,672.1z"/>
		<path class="st1" d="M655.3,768c-3.2,3.9-6.8,7.4-11.1,10.1C646.1,772.8,650.1,769.8,655.3,768z"/>
		<path class="st1" d="M1169.9,687.5c-4.2-3-8-6.5-11.4-10.4C1162.6,677.5,1168.7,683.2,1169.9,687.5z"/>
		<path class="st1" d="M1196.5,356.3c3.1-3.7,7-6.6,10.7-9.8c0.6,0.7,0.9,1.6,0.2,2.2c-2.8,2.7-5.7,5.2-8.7,7.8
			C1198,357.1,1197.2,356.8,1196.5,356.3z"/>
		<path class="st1" d="M667.3,757c-3.2,4-6.8,7.5-11.2,10.2C658,761.7,662.5,759.2,667.3,757z"/>
		<path class="st1" d="M644.2,778.1c-3.2,4-6.8,7.4-11.1,10.1C635,782.8,639.4,780.2,644.2,778.1z"/>
		<path class="st1" d="M1238.8,750.5c-4-2.5-7.5-5.6-10.3-9.4C1232.9,741.5,1237.7,745.9,1238.8,750.5z"/>
		<path class="st1" d="M1180.9,697.5c-4-2.6-7.5-5.6-10.3-9.5C1174.9,688.5,1179.7,692.9,1180.9,697.5z"/>
		<path class="st1" d="M620.3,800c-2.9,3.6-6.1,6.8-10.2,9.2C611.9,804.3,615,800.9,620.3,800z"/>
		<path class="st1" d="M587.1,249.8c4.4,2.6,7.6,6.7,11.3,10.1C592.4,259.1,589.6,254.7,587.1,249.8z"/>
		<path class="st1" d="M690.3,736c-3.2,4-6.8,7.5-11.2,10.2C681,740.7,685.5,738.2,690.3,736z"/>
		<path class="st1" d="M725.3,704c-3.2,4-6.8,7.5-11.2,10.2C715.9,708.7,720.5,706.2,725.3,704z"/>
		<path class="st1" d="M1318.8,823.5c-3.8-2.8-7.6-5.6-10.4-9.5C1312.7,814.5,1317.7,819.1,1318.8,823.5z"/>
		<path class="st1" d="M1284.8,792.5c-4-2.5-7.5-5.6-10.3-9.4C1278.7,783.6,1283.7,788.2,1284.8,792.5z"/>
		<path class="st1" d="M701.3,726c-2.9,3.6-6.1,6.8-10.2,9.2C692.9,730.3,696,727,701.3,726z"/>
		<path class="st1" d="M1157.9,676.5c-4-2.5-7.5-5.6-10.3-9.5C1151.7,667.6,1156.8,672.2,1157.9,676.5z"/>
		<path class="st1" d="M1203.9,718.5c-4-2.6-7.5-5.6-10.3-9.5C1197.7,709.6,1202.8,714.2,1203.9,718.5z"/>
		<path class="st1" d="M1320.5,243c2.8-3.8,6.3-6.9,10.3-9.5C1329.7,237.8,1324.7,242.5,1320.5,243z"/>
		<path class="st1" d="M1226.8,739.5c-4-2.6-7.6-5.6-10.4-9.5C1220.7,730.6,1225.7,735.2,1226.8,739.5z"/>
		<path class="st1" d="M1307.8,813.5c-4.2-2.3-7.5-5.6-10.3-9.4C1302.7,805.3,1306.4,808.2,1307.8,813.5z"/>
		<path class="st1" d="M1341.7,844.2c-4.1-2.3-7.4-5.4-10.2-9.2C1335.6,835.5,1340.6,840.1,1341.7,844.2z"/>
		<path class="st1" d="M1137.9,658.2c-3.9-2.7-7.2-6-10.4-9.4C1131,648.7,1136.4,653.6,1137.9,658.2z"/>
		<path class="st1" d="M713.3,715c-2.9,3.6-6.1,6.8-10.2,9.2C704.7,719.1,708.6,716.7,713.3,715z"/>
		<path class="st1" d="M678.3,747c-2.9,3.6-6.1,6.8-10.2,9.2C669.7,751.1,673.6,748.7,678.3,747z"/>
		<path class="st1" d="M1215.8,729.5c-3.8-2.8-7.4-5.7-10.3-9.4C1210.7,721.4,1214.4,724.2,1215.8,729.5z"/>
		<path class="st1" d="M660.1,316.8c4,2.4,7.3,5.5,10.2,9.2C665.6,324.4,661.8,321.8,660.1,316.8z"/>
		<path class="st1" d="M1249.8,760.5c-4.1-2.4-7.2-6-10.3-9.5C1243.7,751.6,1248.8,756.2,1249.8,760.5z"/>
		<path class="st1" d="M731.2,282.6c-3.2-2.9-6.5-5.8-9.7-8.7C725.2,273.9,731.1,279.2,731.2,282.6z"/>
		<path class="st1" d="M1295.8,802.5c-4.1-2.4-7.2-6-10.3-9.5C1289.7,793.6,1294.8,798.2,1295.8,802.5z"/>
		<path class="st1" d="M1297.5,264c2.9-3.7,6.5-6.7,10.3-9.5C1306.4,259.8,1302.7,262.7,1297.5,264z"/>
		<path class="st1" d="M736.3,694c-2.9,3.6-6.1,6.8-10.2,9.2C727.6,698.1,731.6,695.7,736.3,694z"/>
		<path class="st1" d="M741.2,291.6c-3.2-2.9-6.5-5.8-9.7-8.7C735.2,282.9,741.1,288.2,741.2,291.6z"/>
		<path class="st1" d="M1272.8,781.5c-4-2.6-7.3-5.9-10.4-9.5C1266.7,772.5,1271.7,777.2,1272.8,781.5z"/>
		<path class="st1" d="M1261.8,771.5c-3.8-2.7-7.4-5.7-10.3-9.4C1256.7,763.3,1260.4,766.2,1261.8,771.5z"/>
		<path class="st1" d="M1118,639.9c-0.1-0.3-0.2-0.6-0.1-0.9c4.2,2,8,4.5,9.2,9.4C1124,645.7,1120.4,643.4,1118,639.9z"/>
		<path class="st1" d="M787.7,749.7c3.1-3.4,6.3-6.7,10.2-9.2C796.7,745.1,791.9,749.4,787.7,749.7z"/>
		<path class="st1" d="M602.1,263.8c4.1,2.3,7,5.9,10.4,9.1C606.9,272.3,604.1,268.5,602.1,263.8z"/>
		<path class="st1" d="M627.1,286.8c4,2.4,7.3,5.6,10.2,9.2C632.6,294.4,628.8,291.8,627.1,286.8z"/>
		<path class="st1" d="M649.2,306.9c4,2.4,7.2,5.5,10.1,9.1C654.6,314.4,650.8,311.8,649.2,306.9z"/>
		<path class="st1" d="M1192.8,708.5c-3.8-2.7-7.4-5.7-10.3-9.4C1187.4,700.6,1191.4,703.2,1192.8,708.5z"/>
		<path class="st1" d="M639.1,297.8c4,2.3,7.3,5.5,10.1,9.1C644.7,305.1,640.7,302.8,639.1,297.8z"/>
		<path class="st1" d="M696.9,251.6c-3.7-2.2-6.7-5.1-9.3-8.5C692.9,243.6,695.5,247,696.9,251.6z"/>
		<path class="st1" d="M686.9,242.6c-3.7-2.2-6.7-5.1-9.3-8.4C682.9,234.6,685.5,238,686.9,242.6z"/>
		<path class="st1" d="M706.9,260.6c-3.7-2.2-6.7-5.1-9.3-8.5C702.9,252.6,705.5,256,706.9,260.6z"/>
		<path class="st1" d="M778.5,757.8c2.6-3.3,5.5-6.2,9.2-8.2C786.3,754.2,783.8,757.5,778.5,757.8z"/>
		<path class="st1" d="M613.8,902.7c2.9-3.2,6.3-5.8,10-8.1C622.8,898.4,618,902.3,613.8,902.7z"/>
		<path class="st1" d="M1122.1,745.8c3.6,2,6.6,4.7,9.1,8.1C1126.9,752.5,1123.4,750.4,1122.1,745.8z"/>
		<path class="st1" d="M1329.8,833.5c-3.4-2.5-6.8-5-9.3-8.5C1325.4,825.9,1328.6,828.7,1329.8,833.5z"/>
		<path class="st1" d="M1176.2,277.1c-2.5,3.3-5.5,6-9.1,8.1C1168.5,280.7,1171.5,278,1176.2,277.1z"/>
		<path class="st1" d="M1309.6,253c2.5-3.5,5.8-6.1,9.3-8.5C1317.6,249.3,1314.4,252.1,1309.6,253z"/>
		<path class="st1" d="M701.1,353.8c3.7,2,6.6,4.8,9.1,8.1C705.9,360.6,702.4,358.4,701.1,353.8z"/>
		<path class="st1" d="M676.9,233.6c-3.6-2.2-6.5-5.3-9.3-8.4C672.5,226,675.6,228.8,676.9,233.6z"/>
		<path class="st1" d="M646,205.6c-3.6-2.3-6.5-5.3-9.3-8.4C641.7,197.9,644.6,200.9,646,205.6z"/>
		<path class="st1" d="M751,297c-0.3,0.9-0.9,1.6-1.8,2c-2.5-2.4-5.1-4.8-7.6-7.2c2.2-1.5,3.1,0.7,4.4,1.7
			C747.6,294.7,748.5,297,751,297z"/>
		<path class="st1" d="M595.5,823c-3,2.9-5.7,6.1-9.4,8.1C587.8,826.8,590.3,823.3,595.5,823z"/>
		<path class="st1" d="M716.9,269.6c-3.5-2.4-6.5-5.4-9.3-8.5C712.6,261.9,715.6,264.9,716.9,269.6z"/>
		<path class="st1" d="M1113.1,737.8c3.6,2.1,6.6,4.7,9.1,8.1C1117.9,744.5,1114.4,742.4,1113.1,737.8z"/>
		<path class="st1" d="M671.1,326.8c3.7,2,6.6,4.9,9.2,8.2C676,333.7,672.4,331.5,671.1,326.8z"/>
		<path class="st1" d="M681.1,335.8c3.7,2,6.6,4.9,9.2,8.2C686,342.6,682.4,340.5,681.1,335.8z"/>
		<path class="st1" d="M540.1,985.7c3.7,2,7.3,4,11,6.1C547.2,992.5,541.7,989.4,540.1,985.7z"/>
		<path class="st1" d="M572.6,844c-3,2.8-5.7,6.1-9.4,8.1C564.9,847.8,567.3,844.3,572.6,844z"/>
		<path class="st1" d="M691.1,344.8c3.7,2,6.6,4.9,9.2,8.2C696,351.6,692.4,349.5,691.1,344.8z"/>
		<path class="st1" d="M1281.4,183.2c-3,2.8-5.6,6.2-9.3,8.1C1273.7,187,1276.1,183.5,1281.4,183.2z"/>
		<path class="st1" d="M625,186.6c-3.6-2.3-6.5-5.3-9.3-8.5C620.1,179.6,623.9,181.6,625,186.6z"/>
		<path class="st1" d="M688.6,837.8c2.5-2.8,5-5.6,8.4-7.4C695.8,834.8,693.4,837.7,688.6,837.8z"/>
		<path class="st1" d="M1105.1,730.8c3.3,1.7,5.9,4.1,8.1,7.1C1109,737.1,1106.1,735,1105.1,730.8z"/>
		<path class="st1" d="M656,214.7c-3.1-2.1-5.8-4.6-8.2-7.5C652.5,207.4,654.9,210.3,656,214.7z"/>
		<path class="st1" d="M671.6,852.8c2.5-2.8,5-5.6,8.3-7.4C678.8,849.8,676.4,852.7,671.6,852.8z"/>
		<path class="st1" d="M662.6,860.8c2.5-2.8,5.3-5.3,8.3-7.5C669.9,857.8,667.5,860.7,662.6,860.8z"/>
		<path class="st1" d="M798.6,739.9c2.4-2.9,5.2-5.3,8.3-7.5C805.9,736.8,803.5,739.7,798.6,739.9z"/>
		<path class="st1" d="M644.7,876.8c2.5-2.7,4.9-5.6,8.3-7.4C651.9,873.7,649.5,876.7,644.7,876.8z"/>
		<path class="st1" d="M1183,799.7c3.3,1.8,5.8,4.5,8.5,7.1C1186.7,806.8,1184.4,803.8,1183,799.7z"/>
		<path class="st1" d="M714.6,814.8c2.5-2.8,4.9-5.6,8.3-7.4C722.1,812,718.9,814.1,714.6,814.8z"/>
		<path class="st1" d="M1148,768.7c3.3,1.8,5.8,4.5,8.5,7.1C1151.7,775.8,1149.4,772.8,1148,768.7z"/>
		<path class="st1" d="M780.4,654.1c-2.6,2.6-4.9,5.5-8.3,7.1C773.5,657.2,775.6,654,780.4,654.1z"/>
		<path class="st1" d="M635.8,884.7c2.8-2.4,4.8-5.6,8.2-7.3C642.8,881.7,640.6,884.7,635.8,884.7z"/>
		<path class="st1" d="M665.9,223.7c-3.1-2.2-5.9-4.6-8.3-7.5C661.9,217,665.2,219,665.9,223.7z"/>
		<path class="st1" d="M583.5,834c-2.6,2.5-5,5.4-8.3,7.1C576.5,837.2,578.7,834.1,583.5,834z"/>
		<path class="st1" d="M606.4,813c-2.6,2.6-4.9,5.4-8.3,7.1C599.5,816.2,601.7,813.1,606.4,813z"/>
		<path class="st1" d="M653.7,868.8c2.4-2.9,5.2-5.3,8.3-7.4C661.1,866,657.9,868,653.7,868.8z"/>
		<path class="st1" d="M635,195.7c-3.1-2.2-5.9-4.6-8.3-7.5C630.9,189.1,634.2,191,635,195.7z"/>
		<path class="st1" d="M1332.9,993.9c3.2,1.3,6.9,0.1,10.1,1.8C1339.2,997.9,1335.9,996.6,1332.9,993.9z"/>
		<path class="st1" d="M1145.9,665.6c-2.6-2-5.3-3.7-7.1-6.5C1143,659.2,1145.3,661.5,1145.9,665.6z"/>
		<path class="st1" d="M1184.4,270.2c-2.3,2.2-4.3,4.8-7.4,6.1C1177.6,272,1180.2,270.1,1184.4,270.2z"/>
		<path class="st1" d="M706.7,821.8c1.9-2.7,4.6-4.5,7.2-6.4C713.3,819.5,711,821.8,706.7,821.8z"/>
		<path class="st1" d="M792.3,643.2c-2.2,2.2-4.2,4.7-7.2,6C785.6,644.9,788.3,643.2,792.3,643.2z"/>
		<path class="st1" d="M697.7,829.8c2.2-2.5,4.3-5,7.3-6.5C704.3,827.5,702,829.8,697.7,829.8z"/>
		<path class="st1" d="M1322,989.7c3.1,1.1,6.2,2.1,9,4C1327,994.8,1323.9,993.6,1322,989.7z"/>
		<path class="st1" d="M1140,761.7c3.1,1.3,5.2,3.9,7.5,6.1C1143.2,768,1141.1,765.5,1140,761.7z"/>
		<path class="st1" d="M1271,877.7c3.1,1.3,5.1,3.9,7.4,6.1C1274.2,884,1272,881.5,1271,877.7z"/>
		<path class="st1" d="M1262,869.7c3,1.4,5.1,3.9,7.4,6.1C1265.2,875.9,1263,873.5,1262,869.7z"/>
		<path class="st1" d="M1240.4,220.2c-2.3,2.3-4.3,4.8-7.4,6.1C1234,222.5,1236.2,220.1,1240.4,220.2z"/>
		<path class="st1" d="M1236,846.7c3.1,1.3,5.1,3.9,7.4,6.1C1239.2,852.9,1237,850.5,1236,846.7z"/>
		<path class="st1" d="M1221.4,237.2c-2.3,2.2-4.3,4.8-7.4,6.1C1215,239.5,1217.2,237.1,1221.4,237.2z"/>
		<path class="st1" d="M680.7,844.8c2.4-2.2,4.8-4.3,7.3-6.5C687.3,842.5,685,844.8,680.7,844.8z"/>
		<path class="st1" d="M1212.4,245.2c-2.3,2.3-4.3,4.8-7.4,6.1C1206,247.5,1208.2,245.1,1212.4,245.2z"/>
		<path class="st1" d="M1202.3,254.2c-2.3,2.3-4.3,4.7-7.3,6.1C1196,256.5,1198.1,254.1,1202.3,254.2z"/>
		<path class="st1" d="M1218,830.7c3,1.4,5.1,3.9,7.3,6.1C1221.1,836.9,1219,834.5,1218,830.7z"/>
		<path class="st1" d="M1289.4,271.3c1.7-2.4,3.8-4.3,6.4-5.8C1295.2,269,1293.8,271.8,1289.4,271.3z"/>
		<path class="st1" d="M1280,885.7c3,1.4,5.1,3.9,7.4,6.1C1283.2,891.9,1281,889.5,1280,885.7z"/>
		<path class="st1" d="M1249.4,212.2c-2.3,2.2-4.3,4.8-7.4,6.1C1243,214.5,1245.2,212.1,1249.4,212.2z"/>
		<path class="st1" d="M1201,815.7c3,1.4,5.1,3.9,7.4,6.1C1204.2,822,1202,819.5,1201,815.7z"/>
		<path class="st1" d="M1297,900.7c3,1.3,4.9,3.9,7.2,6C1299.9,906.9,1298,904.4,1297,900.7z"/>
		<path class="st1" d="M1268.3,195.2c-2.3,2.3-4.3,4.8-7.3,6.1C1262,197.6,1264.1,195,1268.3,195.2z"/>
		<path class="st1" d="M1167.1,285.2c-1.9,2.6-4,4.9-7.1,6.1C1160.7,287.3,1163.8,286,1167.1,285.2z"/>
		<path class="st1" d="M1166,784.7c3.1,1.3,5.1,3.9,7.4,6.1C1169.2,791,1167.1,788.5,1166,784.7z"/>
		<path class="st1" d="M1157,776.7c3,1.4,5.1,3.9,7.4,6.1C1160.2,782.9,1158,780.5,1157,776.7z"/>
		<path class="st1" d="M1195,362c-1.4,0-2.9,0.5-4-0.8c1.7-1.5,3.5-3.1,5.2-4.6C1198.4,358.9,1192.8,359.6,1195,362z"/>
		<path class="st1" d="M1210,823.7c2.7,1,4.4,3.2,6.3,5.1C1212.7,829.1,1210.7,827.2,1210,823.7z"/>
		<path class="st1" d="M1258.3,204.2c-1.9,1.9-3.6,4.1-6.3,5.1C1252.6,205.8,1254.6,203.9,1258.3,204.2z"/>
		<path class="st1" d="M1245,854.7c2.7,1,4.4,3.2,6.3,5.1C1247.7,860.1,1245.6,858.2,1245,854.7z"/>
		<path class="st1" d="M629.8,889.7c2-1.7,3.2-4.3,6-5.1C635.5,888.3,633.5,890,629.8,889.7z"/>
		<path class="st1" d="M1175,792.7c2.7,1,4.4,3.2,6.3,5.1C1177.7,798.1,1175.7,796.2,1175,792.7z"/>
		<path class="st1" d="M1230.3,229.2c-1.9,1.9-3.6,4.2-6.3,5.1C1224.7,230.8,1226.6,228.9,1230.3,229.2z"/>
		<path class="st1" d="M1227,838.7c2.6,1.1,4.3,3.2,6.3,5.1C1229.6,844,1227.6,842.2,1227,838.7z"/>
		<path class="st1" d="M623.7,894.6c2.1-1.6,3.5-4.1,6.1-5C629.4,893.3,627.5,895.1,623.7,894.6z"/>
		<path class="st1" d="M1131.1,753.8c2.6,1,4.4,3.1,6.3,5.1C1133.7,759.1,1131.7,757.3,1131.1,753.8z"/>
		<path class="st1" d="M1289,893.7c2.7,1,4.4,3.2,6.3,5.1C1291.7,899.1,1289.6,897.2,1289,893.7z"/>
		<path class="st1" d="M1192.3,263.1c-1.9,1.9-3.6,4.1-6.3,5.1C1186.6,264.8,1188.6,263,1192.3,263.1z"/>
		<path class="st1" d="M1254,862.7c2.7,1,4.4,3.2,6.4,5.1C1256.7,868.1,1254.7,866.2,1254,862.7z"/>
		<path class="st1" d="M1308.1,86.2c-1.2,2-3,3.2-5.1,4.1C1303.2,87.1,1305.1,86,1308.1,86.2z"/>
		<path class="st1" d="M486.6,852c-1.7,1.6-3.2,3.3-5.5,4.2C481.4,852.7,483.5,851.7,486.6,852z"/>
		<path class="st1" d="M1193,808.7c2.3,0.7,3.7,2.5,5.3,4.1C1195.2,813.1,1193.3,812,1193,808.7z"/>
		<path class="st1" d="M812.9,728.8c0.1,0.4,0.1,0.7,0.2,1.1c-1.7,1-3.2,2.6-5.5,1.9c1.1-1,2.2-2,3.3-3
			C811.5,728.9,812.2,728.9,812.9,728.8z"/>
		<path class="st1" d="M485.2,926.7c2,0.6,3.9,1.4,5.1,3.1C488,929.9,485.6,929.9,485.2,926.7z"/>
		<path class="st1" d="M473.2,912.6c1.7,1.3,2.6,3.1,3.1,5.2C473,917.4,473.1,915,473.2,912.6z"/>
		<path class="st1" d="M721.3,273.6c-1.2-1.1-2.5-2.3-3.7-3.4C719.9,270.1,722.4,269.9,721.3,273.6z"/>
		<path class="st1" d="M474.2,213.9c1.6,0.9,2.6,2.4,3.1,4.1C474.4,218,473.9,216.3,474.2,213.9z"/>
		<path class="st1" d="M1437.4,920.8c0.5-1.8,2-2.9,3.2-4.2C1441.2,919.3,1440.5,920.9,1437.4,920.8z"/>
		<path class="st1" d="M476.2,917.7c1.6,0.9,2.5,2.4,3.1,4.1C476.4,921.9,475.9,920.1,476.2,917.7z"/>
		<path class="st1" d="M481.2,923.7c1.7,0.6,3.2,1.5,4.1,3.1C482.9,927.1,481.1,926.6,481.2,923.7z"/>
		<path class="st1" d="M481.2,221.8c1.8,0.5,3.2,1.4,4.1,3.1C482.9,225.2,481.1,224.7,481.2,221.8z"/>
		<path class="st1" d="M1301.2,92.2c-0.5,1.8-1.5,3.2-3.1,4.1C1297.7,93.9,1298.3,92.1,1301.2,92.2z"/>
		<path class="st1" d="M539.2,88.2c-1.1,1.4-2.3,2.6-4.1,3.1C535.1,88.5,536.9,87.9,539.2,88.2z"/>
		<path class="st1" d="M1318,986.7c1.7,0.6,3.2,1.5,4.1,3.1C1319.7,990.1,1318,989.6,1318,986.7z"/>
		<path class="st1" d="M478.3,859c-0.6,1.7-1.5,3.2-3.1,4.1C474.9,860.7,475.4,859,478.3,859z"/>
		<path class="st1" d="M1101.9,729.8c0.1-0.7,0.1-1.4,0.2-2.1c1.5,0.6,2.5,1.6,3.1,3.1C1103.8,731.2,1102.9,730.4,1101.9,729.8z"/>
		<path class="st1" d="M797.1,637c0.3,0.3,0.6,0.6,0.9,0.9c-0.5,1.3-1.6,1.9-2.9,2.3C794.9,638.5,795.7,637.6,797.1,637z"/>
		<path class="st1" d="M1293.9,104.1c0.1,1.1,0.5,2.3-0.8,3.1C1291.3,105.6,1291.7,104.6,1293.9,104.1z"/>
		<path class="st1" d="M490.3,849c-0.5,1.4-1.8,1.8-3.1,2.1C487.1,848.8,488.6,848.8,490.3,849z"/>
		<path class="st1" d="M1298.1,96.2c-0.3,1.3-0.8,2.5-2,3.1C1295.9,97.7,1295.7,96.1,1298.1,96.2z"/>
		<path class="st1" d="M1420.6,220.9c0.7-0.6,1.4-1.2,2.1-1.9c0.4,0,0.8,0,1.1,0l0.1,0.1C1423.7,221.2,1422.2,221.2,1420.6,220.9z"
			/>
		<path class="st1" d="M1424.8,216.9c0.6-0.7,1.3-1.4,1.9-2.1c0.4,1.6,0.4,3-1.7,3.3l-0.1-0.1
			C1424.9,217.7,1424.8,217.3,1424.8,216.9z"/>
		<path class="st1" d="M1311.1,84.2c-0.6,1.3-1.7,1.9-3.1,2.1C1307.9,83.9,1309.5,84,1311.1,84.2z"/>
		<path class="st1" d="M713.2,364c-1,0.1-2,0.1-2.9,0.2c0-0.8,0-1.6-0.1-2.3C711.4,362.2,712.4,362.9,713.2,364z"/>
		<path class="st1" d="M794.3,641c-0.4,1-1,1.8-2,2.2C791.9,641.6,792.6,640.9,794.3,641z"/>
		<path class="st1" d="M1296.1,99.2c-0.2,0.7,0,1.6-1,2C1293.2,99.4,1294.7,99.3,1296.1,99.2z"/>
		<path class="st1" d="M1425,218.1c-0.3,0.3-0.7,0.7-1,1c0,0-0.1-0.1-0.1-0.1C1424.2,218.7,1424.5,218.4,1425,218.1
			C1424.9,218,1425,218.1,1425,218.1z"/>
		<path class="st1" d="M1390.1,959.9c-0.2-0.7,0.2-0.9,0.8-1.1C1390.6,959.1,1390.4,959.5,1390.1,959.9z"/>
		<path class="st1" d="M539.9,231c0.2-0.5,0.5-0.9,1.2-0.8C540.6,230.5,540.2,230.8,539.9,231z"/>
		<path class="st1" d="M543,230c0.1-0.5,0.3-1,1-0.8C543.7,229.5,543.3,229.8,543,230z"/>
		<path class="st2" d="M812.9,728.8c-0.7,0-1.3,0-2,0c0.2-0.8,0-1.9,1.4-1.9C813.3,727.3,812.8,728.2,812.9,728.8z"/>
		<path class="st2" d="M1424.9,218c-0.3,0.3-0.7,0.7-1,1c-0.4,0-0.8,0-1.1-0.1c0-1.4,0.7-2.1,2.1-2.1
			C1424.8,217.3,1424.9,217.7,1424.9,218z"/>
		<path class="st0" d="M926.3,427.5c106.3-0.7,185.1-1.1,263.9-1.8c4.5,0,5.7,1.1,5.5,5.5c-0.5,12.5-0.3,25-0.9,37.4
			c-1.2,25.1-4.7,49.9-12.9,73.9c-9,26.3-23.1,49.9-41.1,70.9c-14.4,16.7-32.5,28.9-51.5,39.9c-18.8,10.9-38.3,20.1-59.2,26.1
			c-13.6,3.9-27.5,6.5-41.6,7.9c-10.8,1-21.5,0.8-32.2,0.5c-13.5-0.4-27-2.2-40.4-4.8c-17.6-3.4-35-7.6-51.9-13.8
			c-21.8-8-42.3-18.3-61-32.1c-9.3-6.9-18.5-14-26.5-22.4c-19.3-20.3-36.1-42.5-46.1-68.9c-7.1-19-13.1-38.3-15.5-58.6
			c-1.3-11.3-2-22.5-3.1-33.8c-0.6-6.8,0.6-13.4-0.4-20c-0.7-4.7,0.6-6.4,5.9-6.3C796.2,427.6,875,428.3,926.3,427.5z M945.9,591.8
			c-13,4.2-18.8,14.2-19.6,26.8c-0.7,10.4,3.6,19.3,12.6,25.4c0.1,0.7,0.4,1,1.1,0.8c2,0.8,3.9,1.6,5.9,2.4c0.8,1.4,2,0.6,3.1,0.5
			c0.6,0.1,1.3,0.3,1.9,0.4c3.2,1.8,6.7,0.5,10,0.8c3.1,0.3,6.3,0.2,8.3-2.9c3.8-3.3,8.6-5.5,11.7-9.6c5.7-7.7,5.6-16.5,4.6-25.4
			c-0.6-5.2-3.1-10-7.1-12.8c-8.1-5.6-16.9-10-27.4-8.1C949.3,590.6,947.4,590.6,945.9,591.8z M826,453.2c-0.7-0.3-1,0.1-1.2,0.7
			c-0.6,0.1-1.2,0.2-1.8,0.2c-0.7-0.3-1,0.2-1.1,0.8c-4.3,0.9-8.1,3.1-11.9,5.2c-0.7-0.2-1,0.2-1.1,0.8c-0.6,0.4-1.3,0.8-1.9,1.2
			c-0.7-0.2-1,0.2-1,0.9c-7,4.8-13,10.5-17,18.1c-0.8-0.3-1,0.3-1.1,0.9c-2.2,3.5-4.7,6.8-6,10.7c-4,6.2-6.9,12.8-6.5,20.3
			c-0.2,1.3-0.3,2.6-0.5,3.9c-1.3,0.7-1.3,1.4,0.1,2.1c-0.9,5.6-0.6,11.3,0,16.9c-1.5,1-1.4,2-0.1,3.1c0.2,1.6,0.2,3.3,0.7,4.9
			c5.8,18,17.2,32,32.3,43c7.7,5.6,16.4,9.7,26.2,10.3c1.5,1.7,3.4,0.5,5.1,0.5c13.6,0.7,27.2,0.9,40-4.4
			c17.7-7.2,30.7-19.5,38-37.5c3-7.4,6.4-14.6,6-22.8c1.1-0.4,1-1.2,0.8-2c0-2.6,0-5.3,0-7.9c0.3-0.9,0.4-1.7-0.7-2
			c0.3-10.6-2.6-20.7-6.9-30c-5.2-11.3-14.2-20-23.9-27.7c-4.4-3.5-9.8-5.6-15-7.8c-5.6-2.4-11.1-4.5-17.2-4.5c-0.4-1-1.2-1-2-0.7
			c-5.3-0.5-10.6-0.5-15.9,0c-1.1-0.1-2.3-0.6-3,0.7c-1.7,0.1-3.3,0.2-5,0.2c-0.8-0.3-1.7-0.6-2.1,0.6c-0.6,0.1-1.3,0.3-1.9,0.4
			c-0.8-0.1-1.7-0.7-2.1,0.6C827.3,453,826.7,453.1,826,453.2z M1052.9,598.3c1.6,1.4,3.4,0.4,5.1,0.4c11.3,0.8,21.9-2.2,32.2-5.9
			c11.1-3.9,21.5-9.9,29.5-18.5c9-9.6,14.3-21.7,18.2-34.3c0.9-1.2,3.6-1.9,1.1-4c-0.1-7-0.2-14-0.3-20.9c0.2-0.9,0.2-1.7-0.8-2
			c0-1.2,0.2-2.4-0.1-3.5c-5.9-28.9-30.4-55.5-61.9-58.5c-0.4-1-1.2-1-2-0.8c-2.3-0.1-4.6-0.1-7-0.2c-1.1-1.6-2.6-0.9-4-0.7
			c-2,0-3.9,0-5.9,0c-1.1-0.1-2.3-0.7-3,0.7c-1.7,0.1-3.3,0.2-5,0.3c-0.8-0.2-1.7-0.6-2.1,0.6c-0.6,0.1-1.3,0.3-1.9,0.4
			c-2.9,0.3-5.5,1.4-8,2.8c-13,5.5-24.6,12.9-33.2,24.4c-4,5.3-8.2,10.5-8.9,17.4c-2,1.1-3,2.8-2.7,5.2c-0.2,0.6-0.3,1.3-0.5,1.9
			c-1.1,0.5-0.7,1.3-0.5,2.1c-0.1,0.6-0.3,1.3-0.4,1.9c-1.7,1.2-0.5,2.7-0.5,4.1c-0.2,1-0.3,1.9-0.5,2.9c-1.3,0.7-1.3,1.4,0.1,2.1
			c-1.1,5.6-0.5,11.3-0.5,16.9c-0.6,0.8-0.7,1.6,0.4,2.1c0.1,0.6,0.3,1.3,0.4,1.9c-0.2,5.4,2,10.2,3.6,15.1c2.2,7.8,7,14,12.2,20
			c-0.1,0.7,0.3,1,0.9,1c0.4,0.3,0.7,0.6,1.1,1c1.7,4.3,4.8,7.2,8.9,9.1c6.6,6.1,14.8,9.1,23,12.1c3.2,1.6,6.5,2.7,10.1,2.6
			C1051,597.9,1051.9,598.1,1052.9,598.3z"/>
		<path class="st3" d="M984.5,424.3c-81.5,0.8-163,1.1-244.4,0.3c-31.8-0.3-63.6-0.7-95.5-1.1c-20.1-0.2-40.2-0.7-60.3-0.7
			c-6.5,0-8.4-1.9-4.9-8.6c4.5-8.6,11.8-14.9,19.8-20.1c17.3-11.5,36.7-18.3,56.8-23.1c10.9-2.6,22-4,33.3-4.1
			c33.8-0.3,67.6-0.4,101.5-0.6c106.1-0.6,212.3-1.1,318.4-1.7c35.3-0.2,70.6-0.8,106-0.4c26.6,0.4,52.5,5.3,76.8,16.7
			c15.9,7.5,29.4,17.6,37.3,33.9c2.9,6,2.5,6.8-4.2,6.8c-101.5,0.8-202.9,1.6-304.4,2.4C1008.5,424.3,996.5,424.3,984.5,424.3z"/>
		<path class="st3" d="M745.5,310.1c9.9-15.7,19.7-30.1,31.7-42.8c12.6-13.3,25.2-26.4,39.9-37.5c26.2-19.7,55.8-31.8,87.9-37.6
			c20.5-3.7,41.4-4.6,62.3-3.4c18.6,1.1,37.1,3,55.2,7.2c35.1,8,66.3,23.9,92,49.3c13.6,13.4,27,27,36.9,43.5
			c3.6,6,6.9,12.2,10.7,18.8C1023.4,308.5,885,309.3,745.5,310.1z"/>
		<path class="st0" d="M1100,763.7c0,9.4-1.3,18.1-1.9,26.9c-0.6,10.2-3.4,19.7-7.1,29c-5.3,13.4-13.5,25.1-22.5,36.3
			c-17.5,21.7-42.3,29.6-67.8,36c-16.4,4-33.1,4.8-50,4.7c-19.7-0.2-38.8-3.6-57.6-8.8c-11.3-3.1-21.2-9.7-30.4-16.8
			c-18.7-14.5-32.6-33.1-41-55c-5.7-14.9-8.5-30.7-7.8-47c0.1-3.1,0.6-4.1,3.9-2.6c16.7,7.3,33.2,15.1,50.6,20.8
			c13.9,4.6,28.3,6.8,42.7,9c21.5,3.2,43.2,3.8,64.8,2.8c15-0.7,29.9-2.5,44.8-4.6c14.2-1.9,27.5-6,40.5-11.4
			C1074.3,777.4,1086.6,770.6,1100,763.7z"/>
		<path class="st4" d="M721.1,364.1c4.4-15,11.1-28.3,17.2-42c3.5-7.8,8.3-9.6,16.4-9.6c50.1,0.1,100.3-0.4,150.4-0.7
			c62.6-0.4,125.2-0.7,187.9-1.1c22-0.1,44-0.3,65.9-0.7c4.3-0.1,6.2,1.5,7.8,5.1c6,14.1,10.5,28.7,15.2,43.3
			c1.4,4.3-1.5,3.3-3.7,3.3c-41.8,0.2-83.6,0.3-125.4,0.5c-61.6,0.3-123.2,0.7-184.9,1c-46.8,0.3-93.6,0.6-140.4,0.8
			C725.5,364.2,723.6,364.1,721.1,364.1z"/>
		<path class="st0" d="M1034.2,691.1c0.1,11-1.2,21.7,0.7,32.3c0.6,3.6,0,6-4,6.5c-7.6,1-15.2,2.2-22.8,3c-14,1.5-28,2.6-41.9,4
			c-6.5,0.6-7.5,0.1-7-6.4c0.8-12.2,0-24.4-0.1-36.7c0-3,0.5-4,3.8-3.8c16,0.9,32-0.3,47.7-3.3c5.8-1.1,11.9-1.8,17.5-4.3
			c4-1.8,5.3-0.6,6.8,5.3c0.4-0.3,1-0.6,1-0.8c-0.9-6,2.3-7.7,7.6-9.3c14.3-4.4,27.6-11.4,40.9-18.4c3.6-1.9,4.4-0.9,4.9,2.7
			c1.7,11.7,3.8,23.4,5.7,35c0.6,3.8,0.6,7.1-3.8,9.4c-16.3,8.3-32.8,16.3-50.5,21.3c-3,0.8-3.7-0.1-3.6-3c0.4-10.4-0.2-20.8-1-31.2
			C1035.9,692.7,1036.3,691.7,1034.2,691.1z"/>
		<path class="st0" d="M959.9,767.8c0-8.5,0.1-17-0.1-25.5c0-2.6,0.6-3.4,3.3-3.4c15,0.1,29.8-2,44.7-3.2c7.7-0.6,15.5-1.4,23.1-3.6
			c2.3-0.7,4.8-0.5,4.1,3.3c-0.3,1.5,0,3,0,4.5c-0.7,14.9,1.4,29.8,1.2,44.7c0,3.4-1.3,4.7-4,5.3c-6.1,1.2-12.2,2.7-18.4,3.2
			c-11.8,0.9-23.5,2-35.3,3c-4.8,0.4-9.6,0.3-14.4,0.8c-2.8,0.2-3.8-0.5-3.7-3.5c0.2-8.5,0.1-17,0.1-25.5
			C960.2,767.8,960,767.8,959.9,767.8z"/>
		<path class="st0" d="M882.3,733.4c9.3,1.1,18.1,2.8,27,3.6c15.1,1.3,30.2,2.7,45.3,2.9c2.1,0,2.4,0.8,2.5,2.7
			c0.2,17.2,0.5,34.3,0.8,51.5c0,2.2-0.7,2.9-2.8,2.9c-9.2-0.1-18.4-0.8-27.5-1.6c-11.2-1-22.4-2.7-33.5-4.3c-0.8-0.1-1.7,0-2.5-0.2
			c-9.2-2.1-9.2-2.1-9.3-11.9C882.3,763.8,882.3,748.6,882.3,733.4z"/>
		<path class="st0" d="M881.9,704c0-7.3,0-14.6,0-22c0-2.7-0.9-4.6,4-3.3c15.8,4.3,31.7,7.8,48.1,9.4c6.7,0.6,13.3,2.1,20,1.9
			c2.3-0.1,2.7,0.8,2.7,2.9c0.1,13.6,0.1,27.3,0.4,40.9c0.1,3.4-1.6,3.2-3.9,3.3c-15.5,0.1-30.9-1-46.3-3c-7.3-1-14.6-1.9-21.9-2.9
			c-2.9-0.4-3.1-1.5-3-3.7c0.1-7.8,0-15.6,0-23.5C882,704,882,704,881.9,704z"/>
		<path class="st0" d="M817,708.4c12.6,6.4,24.5,11.6,36.5,16.3c7.6,3,15.4,5.8,23.5,7.1c2.1,0.3,2.7,1.4,2.7,3.4
			c0.1,16.3,0.1,32.6,0.3,48.9c0,4.3-2.9,3-4.7,2.4c-6.3-2-12.4-4.3-18.6-6.7c-13.6-5.2-27-11-40.2-17.2c-2-0.9-2.5-2-2.5-4
			c0.1-13.8,1.1-27.6,2.9-41.3C817.3,714.8,817,712.1,817,708.4z"/>
		<path class="st0" d="M1095.5,706.5c1.6,5.8,2.1,11.2,2.5,16.7c0.7,11,1.2,22,2.1,33c0.3,3.4-1.2,5.2-3.7,6.5
			c-15.4,8.2-30.9,16.3-47.4,22.2c-0.5,0.2-1,0-1.5,0.2c-9.5,3.6-9.5,3.6-9.5-6.4c0-10.5,0-21,0-31.4c0-4.1-1.1-8.1-1.2-12.2
			c-0.1-3.3,1.6-4.5,3.9-4.9c10.3-1.8,19.5-6.5,29-10.6C1078.4,715.6,1087,711.6,1095.5,706.5z"/>
		<path class="st0" d="M879.6,703.2c0,7.3-0.1,14.6,0.1,22c0.1,3.2,0,4.8-4.2,3.9c-10.6-2.2-20.5-6.5-30.5-10.6
			c-8.3-3.4-16.3-7.6-24.5-11.1c-2.2-0.9-2.7-2-2.4-4c2.3-15.1,4.7-30.2,7-45.3c0.3-2.2,1.2-3.2,3.7-1.9c15.4,8.1,31.5,15,48.3,19.7
			c2.5,0.7,2,2.2,2,3.8c0,7.8,0,15.6,0,23.5C879.3,703.2,879.4,703.2,879.6,703.2z"/>
		<path d="M990.8,507c0.1-0.6,0.3-1.3,0.4-1.9c1.6-0.4,2.2-0.9,0.5-2.1c0.2-0.6,0.3-1.3,0.5-1.9c2.6-0.8,2.6-3,2.7-5.2
			c0.7-7,4.9-12.1,8.9-17.4c8.6-11.5,20.2-18.9,33.2-24.4c3.2,0.6,6-0.1,8-2.8c0.6-0.1,1.3-0.3,1.9-0.4c1.2,1.6,1.8,1,2.1-0.6
			c1.7-0.1,3.3-0.2,5-0.3c1.4,1.4,2.5,1.6,3-0.7c2,0,3.9,0,5.9,0c0.9,2.7,2.4,2,4,0.7c2.3,0.1,4.6,0.1,7,0.2c0.2,1.5,0.7,2.3,2,0.8
			c31.5,3,56,29.6,61.9,58.5c0.2,1.1,0.1,2.3,0.1,3.5c-1.5,1.4-0.7,1.8,0.8,2c0.1,7,0.2,14,0.3,20.9c-1.6,1-1.2,2.6-1.1,4
			c-3.9,12.6-9.3,24.7-18.2,34.3c-8,8.6-18.4,14.5-29.5,18.5c-10.4,3.7-21,6.7-32.2,5.9c-1.5-3-3.3-2-5.1-0.4
			c-1-0.2-1.9-0.4-2.9-0.6c-2.9-2.7-6.3-3.4-10.1-2.6c-8.2-3-16.4-6-23-12.1c-1.7-4.3-4.8-7.2-8.9-9.1c-0.4-0.3-0.7-0.6-1.1-1
			c-0.3-0.3-0.6-0.7-0.9-1c-5.1-6-10-12.2-12.2-20c0.8-5.5-1-10.4-3.6-15.1c-0.1-0.6-0.3-1.3-0.4-1.9c1.5-1,1.2-1.7-0.4-2.1
			c0-5.6-0.6-11.3,0.5-16.9c1.1-0.7,1.1-1.4-0.1-2.1c0.2-1,0.3-1.9,0.5-2.9C993,510,992.3,508.5,990.8,507z"/>
		<path d="M923,533c0.4,8.2-3,15.5-6,22.8c-7.2,18-20.2,30.2-38,37.5c-12.8,5.2-26.4,5.1-40,4.4c-1.4-2.8-3.2-2.1-5.1-0.5
			c-9.8-0.6-18.5-4.7-26.2-10.3c-15.1-10.9-26.5-24.9-32.3-43c-0.5-1.5-0.5-3.2-0.7-4.9c1.4-1,1.5-2,0.1-3.1
			c-0.6-5.6-0.8-11.3,0-16.9c1.1-0.7,1.1-1.4-0.1-2.1c0.2-1.3,0.3-2.6,0.5-3.9c3.1-1,1.5-3.7,1.8-5.5c0.9-5.2,4.4-9.5,4.7-14.8
			c1.3-4,3.9-7.3,6-10.7c0.4-0.3,0.7-0.6,1.1-0.9c4-7.6,10-13.3,17-18.1c0.3-0.3,0.7-0.6,1-0.9c0.6-0.4,1.3-0.8,1.9-1.2
			c0.4-0.3,0.7-0.5,1.1-0.8c3.8-2.1,7.6-4.3,11.9-5.2c0.4-0.3,0.8-0.5,1.1-0.8c0.6-0.1,1.2-0.2,1.8-0.2c0.4-0.2,0.8-0.5,1.2-0.7
			c0.6-0.1,1.3-0.2,1.9-0.3c1.2,1.5,1.8,1,2.1-0.6c0.6-0.1,1.3-0.3,1.9-0.4c1.2,1.6,1.8,0.9,2.1-0.6c1.7-0.1,3.3-0.2,5-0.2
			c1.4,1.4,2.5,1.5,3-0.7c5.3-0.4,10.6-0.5,15.9,0c0.2,1.5,0.8,2.1,2,0.7c6.1,0,11.6,2.1,17.2,4.5c5.2,2.2,10.5,4.3,15,7.8
			c9.7,7.7,18.8,16.4,23.9,27.7c4.3,9.3,7.2,19.4,6.9,30c-1.5,1.3-0.8,1.8,0.7,2c0,2.6,0,5.3,0,7.9C922.2,531.2,921.5,531.7,923,533
			z"/>
		<path d="M945.9,647.2c-2-0.8-3.9-1.6-5.9-2.4c-0.4-0.3-0.7-0.6-1.1-0.8c-9-6.1-13.3-15-12.6-25.4c0.8-12.6,6.7-22.6,19.6-26.8
			c2.3,1.5,3.9,0.5,5.1-1.6c10.5-1.9,19.3,2.5,27.4,8.1c4,2.8,6.5,7.6,7.1,12.8c1.1,8.9,1.2,17.7-4.6,25.4
			c-3.1,4.1-7.9,6.3-11.7,9.6c-4.8,0.3-9.4,1.4-14.2,0.9c-1.4-0.1-3-0.4-4.1,1.1c-0.6-0.1-1.3-0.3-1.9-0.4
			C948.4,645.4,947.3,645.5,945.9,647.2z"/>
		<path class="st1" d="M781.9,492.7c-0.3,5.3-3.8,9.6-4.7,14.8c-0.3,1.8,1.2,4.5-1.8,5.5C775,505.5,777.8,498.9,781.9,492.7z"/>
		<path class="st1" d="M950.9,648.2c1-1.5,2.7-1.2,4.1-1.1c4.8,0.4,9.5-0.7,14.2-0.9c-2,3.1-5.2,3.1-8.3,2.9
			C957.6,648.7,954.1,649.9,950.9,648.2z"/>
		<path class="st1" d="M990.2,537c2.7,4.7,4.4,9.6,3.6,15.1C992.2,547.1,990,542.3,990.2,537z"/>
		<path class="st1" d="M1008,574c4.1,1.9,7.2,4.8,8.9,9.1C1012.8,581.2,1009.8,578.2,1008,574z"/>
		<path class="st1" d="M1039.9,595.2c3.8-0.8,7.2-0.1,10.1,2.6C1046.4,597.9,1043.1,596.8,1039.9,595.2z"/>
		<path class="st1" d="M1045,451.2c-2,2.8-4.8,3.4-8,2.8C1039.5,452.6,1042.1,451.6,1045,451.2z"/>
		<path class="st1" d="M834,597.2c1.9-1.6,3.7-2.2,5.1,0.5C837.4,597.7,835.5,598.9,834,597.2z"/>
		<path class="st1" d="M1052.9,598.3c1.9-1.6,3.7-2.5,5.1,0.4C1056.3,598.7,1054.5,599.7,1052.9,598.3z"/>
		<path class="st1" d="M951,590.2c-1.2,2.1-2.8,3-5.1,1.6C947.4,590.6,949.3,590.6,951,590.2z"/>
		<path class="st1" d="M994.9,495.9c-0.1,2.1-0.1,4.3-2.7,5.2C991.9,498.7,992.9,497,994.9,495.9z"/>
		<path class="st1" d="M990.8,507c1.5,1.6,2.2,3.1-0.5,4.1C990.3,509.7,989.1,508.1,990.8,507z"/>
		<path class="st1" d="M1138,540c-0.2-1.5-0.6-3,1.1-4C1141.6,538.1,1138.9,538.8,1138,540z"/>
		<path class="st1" d="M1067,450c-1.6,1.3-3.1,1.9-4-0.7C1064.4,449.2,1065.9,448.4,1067,450z"/>
		<path class="st1" d="M945.9,647.2c1.4-1.7,2.4-1.8,3.1,0.5C948,647.9,946.8,648.6,945.9,647.2z"/>
		<path class="st1" d="M774.9,536c1.4,1.1,1.3,2.1-0.1,3.1C773.5,538,773.4,537,774.9,536z"/>
		<path class="st1" d="M1057,449.3c-0.5,2.3-1.6,2.1-3,0.7C1054.7,448.6,1055.9,449.2,1057,449.3z"/>
		<path class="st1" d="M842.1,450.3c-0.5,2.2-1.6,2.1-3,0.7C839.8,449.6,841,450.2,842.1,450.3z"/>
		<path class="st1" d="M830.1,452.3c-0.3,1.6-0.9,2.2-2.1,0.6C828.4,451.6,829.3,452.1,830.1,452.3z"/>
		<path class="st1" d="M834.1,451.2c-0.3,1.5-0.9,2.2-2.1,0.6C832.4,450.7,833.2,451,834.1,451.2z"/>
		<path class="st1" d="M989.4,532.9c1.6,0.4,1.9,1.1,0.4,2.1C988.7,534.5,988.8,533.8,989.4,532.9z"/>
		<path class="st1" d="M923,533c-1.5-1.3-0.8-1.8,0.8-2C924,531.8,924.1,532.6,923,533z"/>
		<path class="st1" d="M923.7,523c-1.5-0.2-2.2-0.7-0.7-2C924.1,521.4,924,522.2,923.7,523z"/>
		<path class="st1" d="M774.9,517c1.2,0.7,1.2,1.4,0.1,2.1C773.6,518.4,773.6,517.7,774.9,517z"/>
		<path class="st1" d="M1076,451c-1.4,1.5-1.8,0.7-2-0.8C1074.8,450,1075.6,450,1076,451z"/>
		<path class="st1" d="M989.8,514c1.2,0.7,1.2,1.3,0.1,2.1C988.5,515.4,988.5,514.7,989.8,514z"/>
		<path class="st1" d="M1138.8,515c-1.5-0.2-2.3-0.7-0.8-2C1139,513.4,1139,514.2,1138.8,515z"/>
		<path class="st1" d="M991.8,502.9c1.6,1.2,1,1.8-0.5,2.1C991,504.2,990.6,503.4,991.8,502.9z"/>
		<path class="st1" d="M1049,450.3c-0.3,1.6-0.9,2.2-2.1,0.6C1047.3,449.6,1048.2,450.1,1049,450.3z"/>
		<path class="st1" d="M860,451c-1.3,1.4-1.8,0.8-2-0.7C858.8,450,859.6,450,860,451z"/>
		<path class="st1" d="M807,462.1c-0.3,0.3-0.7,0.6-1,0.9C806,462.3,806.3,462,807,462.1z"/>
		<path class="st1" d="M789,481.1c-0.4,0.3-0.7,0.6-1.1,0.9C788.1,481.4,788.2,480.8,789,481.1z"/>
		<path class="st1" d="M938.9,644c0.4,0.3,0.7,0.6,1.1,0.8C939.3,645,939,644.7,938.9,644z"/>
		<path class="st1" d="M810,460.2c-0.4,0.3-0.7,0.5-1.1,0.8C809,460.3,809.3,459.9,810,460.2z"/>
		<path class="st1" d="M1006,572c0.3,0.3,0.6,0.7,0.9,1C1006.3,573,1006,572.7,1006,572z"/>
		<path class="st1" d="M826,453.2c-0.4,0.2-0.8,0.5-1.2,0.7C825,453.4,825.3,452.9,826,453.2z"/>
		<path class="st1" d="M823,454.2c-0.4,0.3-0.8,0.5-1.1,0.8C822,454.4,822.3,453.9,823,454.2z"/>
	</g>
</g>
</svg>
