<?xml version="1.0" encoding="utf-8"?>
<!-- Generator: Adobe Illustrator 27.3.1, SVG Export Plug-In . SVG Version: 6.00 Build 0)  -->
<svg version="1.1" id="Layer_1" xmlns="http://www.w3.org/2000/svg" xmlns:xlink="http://www.w3.org/1999/xlink" x="0px" y="0px"
	 viewBox="0 0 1920 1080" style="enable-background:new 0 0 1920 1080;" xml:space="preserve">
<style type="text/css">
	.st0{fill:#020101;}
	.st1{fill:#026BBE;}
	.st2{fill:#F385B4;}
	.st3{fill:#FFFFFF;}
	.st4{fill:#FEA81F;}
	.st5{fill:#FDF73F;}
</style>
<g>
	<g>
		<path class="st0" d="M808.1,97c6.1,0,12.2,0,18.2,0c3.4,0.3,6.7,0.6,10.1,0.9c2,0,4,0,5.9,0c4.1,0.4,8.2,0.6,12.3,1.2
			c4.4,0.6,8.9,0.4,13.1,2c0.2,1,0.8,0.7,1.5,0.6c4.5,0.3,9,0.9,13.5,1.9c4.1,0.9,8.1,1.8,12.1,2.7c7.1,1.6,14.3,3.1,21.2,5.3
			c13.8,4.5,27.5,9.5,40.2,16.6c4.5,2.5,9.3,4.4,13.7,7c17.4,10.1,33.5,21.7,47.6,36.1c6,6.1,12.2,12,18,18.3
			c7.3,8,13.4,16.8,19.6,25.7c5.7,8.1,10.8,16.5,15.5,25.2c4.6,8.5,8.7,17.3,12.7,26.1c2.9,6.5,5.5,13.2,7.7,19.9
			c4.1,12.2,7.8,24.4,10.9,36.9c2.9,12,5.2,24.1,6.9,36.2c3.1,21.1,3.7,42.3,1.6,63.6c-0.2,1.8-0.2,3.6-0.3,6.1
			c21.2-14.2,44.3-21.9,68.6-28.5c-5.9-2.5-10.6-5.5-14.8-9.3c-5.2-4.6-8.9-10.5-12.7-16.2c-6.5-9.7-11.7-20.2-16-31.1
			c-2.7-6.8-5.2-13.8-7-20.8c-3.2-12.3-5.2-24.8-5.8-37.6c-0.6-12.8-0.1-25.5,2.4-38c2.5-12.6,6.2-24.7,12.9-35.9
			c4-6.6,8.4-12.8,13.5-18.5c4.6-5.2,10-9.8,15.6-13.8c13.4-9.8,27.5-18.5,43.8-22.9c2.7-0.7,5-2.3,7.7-2.9
			c9.4-2.3,18.8-4.2,28.4-5.3c17.8-2,35.3-0.8,52.3,5.1c12.3,4.3,24,9.6,32.6,20c3.9,4.7,6.1,9.9,6.3,15.9c0.1,1.7,0,3.5,0,5.1
			c2.9,1,4.8-1.5,7.2-1.7c6.9-0.6,13.8-0.9,20.5,0.8c8.4,2.1,16.7,4.7,24.6,8.6c13.3,6.5,23.9,15.7,31.8,27.9
			c6.7,10.3,10.6,21.6,12.9,33.8c2.5,13.1,2.2,25.9,0.9,39c-1.1,0.4-1.7,0.9-0.6,2c0.4,0.6,0.3,1.2,0.2,1.8
			c-2.4,13-5.4,25.8-9.7,38.4c-0.9,2.7-1.6,5.6-2.8,8.3c-0.9,2-0.3,2.8,1.4,3.6c2.9,1.4,5.7,3.2,8.6,4.7
			c11.6,5.8,23.4,11.1,34.3,18.3c12.7,8.5,25.5,16.7,36.4,27.6c5.3,5.3,11,10.4,15.7,16.3c5.2,6.4,9.4,13.5,12.4,21.3
			c1.5,3.8,1.2,8.1,3.7,11.6c0,6.1,0,12.2,0,18.2c-1,0.5-2,1-1.9,2.4c0.2,2.9-1,5.5-2.1,8c-4.8,11.9-12.3,20.9-25.9,22.8
			c-2.1,0.3-4.3,0.3-6.6,0.5c-0.1,5.6,0.1,10.8-0.8,16c-1,0.3-1.4,0.8-1,1.9c0.1,7.4-2.3,14.2-5.5,20.6c-3.9,7.8-10,13.6-18.7,16.2
			c-8.7,2.6-17.3,1.9-26-0.1c-3.4-0.7-3.3-0.8-4.7,2.4c-1.7,4.1-3.8,8.1-6,12c-2,3.5-4.9,6-7.6,8.8c-8.1,8.6-18.2,10.6-29.1,9.1
			c-8.4-1.2-15.6-5.9-22-11.3c-10.5-8.8-19.4-19.3-27.9-29.9c-9.5-11.8-19.1-23.5-30-34.1c-4.4-4.2-8.5-8.7-13.4-12.4
			c-6.9-5.4-14.4-9.7-22.1-13.9c-9-4.9-18.7-7.5-28.3-10.1c-8.9-2.4-18.2-2.7-27.5-2.6c-7.2,0.1-14.5-0.4-21.5,0.9
			c-10.6,2-20.7,5.8-29.8,12c-10.4,7-20.3,14.5-29.3,23.3c-5.1,4.9-10.6,9.4-15.6,14.5c-5.5,5.7-10.2,12-16.3,17.1
			c-1.1,0.9-3.2,2-2.5,3.7c0.6,1.4,2.7,1.6,4.4,1.9c7.3,1.3,14.5,3.3,21.6,5.4c10.7,3.2,20.7,8,30.8,12.6
			c7.7,3.5,14.3,8.7,21.5,12.9c3.1,1.8,5.4,4.7,8.3,6.7c4.5,3.1,7.4,7.8,11.7,11c3.9,3,6.6,7.1,9.7,10.7c6.4,7.5,11.4,16,15.5,25
			c2.2,4.8,5.1,9.3,6.7,14.3c4.3,12.8,7.8,25.9,9.2,39.5c0.9,8.8,1,17.6,0.2,26.3c-0.3,4.1,0,8.3-1.8,12.2c-1,0.2-0.7,0.8-0.6,1.5
			c-0.1,6.3-1.9,12.3-3.6,18.2c-1.8,6.3-4.4,12.4-6.8,18.6c-3,7.7-7.1,14.8-11.2,21.9c-4.5,7.6-10,14.4-16.2,20.7
			c-6.5,6.6-12.9,13-20.5,18.5c-9.1,6.5-18.3,12.5-28.7,16.7c-4,1.6-7.9,3.6-12,4.7c-8.7,2.3-17.3,4.7-26.3,6.1
			c-13.5,2.1-27,2.6-40.6,1.5c-6.8-0.6-13.5-1.7-20.2-2.7c-6.5-1-12.5-3.9-18.8-5.4c-2.1-0.5-4.5-0.6-6.2-1.7
			c-5.4-3.6-11.9-4.8-17.2-8.9c-5-3.9-10.8-6.8-15.6-11.2c-2.2-2-4.1-4.4-7.6-5.6c0.6,3.5-1.2,6-2,8.8c-5.3,16.8-12.9,32.6-21.2,48
			c-8.8,16.4-19.9,31.4-32.3,45.2c-7,7.7-14.7,14.8-23,21.2c-12.9,10-26.9,18.1-42.2,24c-5.6,2.2-11.1,5.1-16.9,6.3
			c-9.5,2-19.1,4.3-28.8,5.1c-2.8-0.1-5.7-0.4-8.3,0.9c-6.7,0-13.4,0-20.2,0c-2.2-1-4.5-2-6.7,0c-0.3,0-0.6,0-1,0
			c-0.1-0.3-0.2-0.8-0.3-0.8c-4,0.2-7.6-1.4-11.4-2c-7.1-1-14-2.9-20.6-5.2c-12.5-4.4-24.6-10.1-36-17
			c-13.9-8.4-26.5-18.5-38.5-29.5c-8.7-8-16.2-17-23.3-26.4c-9.8-12.9-18.1-26.9-24-42.1c-2.2-5.6-4.3-11.2-5.5-17.3
			c-1-5.3-2.5-10.5-2.8-16c-1.8-0.1-3.1,0.2-4.6,1.1c-6.4,3.4-12.8,6.7-19.5,9.3c-8.3,3.2-16.5,6.6-25.1,9.1
			c-6.4,1.9-12.7,4-19.2,5.2c-9.9,1.9-20,3.4-30.1,3.5c-13,0.1-26-0.4-38.7-3.3c-10.8-2.5-21.1-6.1-31.1-11
			c-11.3-5.6-21.7-12.6-31-21c-6.9-6.3-13.3-13.1-18.9-20.7c-9.8-13.1-17.4-27.3-23.2-42.6c-3-7.9-5.1-16-6.2-24.4
			c-0.5-3.7-0.9-7.4-1.3-11c0.1-1.7,0.4-3.5-1.5-4.6c0-7.4,0-14.7,0-22.1c0.9-0.5,1-1.2,1-2.1c0.1-1.3,0.8-2.6,0.4-4
			c1.2-3.6,0.9-7.5,1.5-11.2c1.6-9.9,4.3-19.4,8.2-28.5c8.8-20.3,20.9-38.3,37.9-52.9c10.5-9.1,22-16.6,34.2-23
			c9.5-5,19.7-8.5,30-11.7c16.7-5.1,33.8-8.1,51.2-9.8c4.7-0.5,9.4-0.8,14.4-1.2c-7.3-14.2-14-28.1-19.7-42.6
			c-2.6-6.6-5.5-13.1-7.2-19.9c-2.1-8.6-5.1-17-6.7-25.7c-1.4-7.3-3.5-14.5-4.2-21.9c-0.7-7.3-1.7-14.6-2.2-22
			c-1.1-18.4-1.2-36.7,0.8-55c0.4-3.6,0.5-7.3,0.9-10.9c0.6-4.8,1.7-9.5,2.7-14.2c1.6-7.6,3-15.2,5.2-22.6
			c3.2-10.6,6.6-21.2,10.9-31.5c3-7.1,5.7-14.5,9.5-21.2c2.6-4.8,5.4-9.5,8.1-14.2c10.3-18.3,22.7-35.1,36.5-50.8
			c5.2-5.9,11.4-11,16.7-16.9c5.4-6,11.5-11.3,17.7-16.3c7.9-6.4,16.1-12.4,24.5-18.1c10.7-7.3,22.1-13.5,33.4-19.6
			c5-2.7,10.5-4.6,15.6-7.1c8.2-4,17.1-6.1,25.5-9.5c5.1-2,10.7-3.1,16.1-4.4c7.4-1.8,14.8-3.9,22.3-5.2c8.3-1.4,16.7-2.1,25.1-3.1
			c2.3,0.4,4.5-0.1,6.8-0.2C803.3,97.9,805.7,97.4,808.1,97z M798.7,965.6c0.1,0.2,0.2,0.4,0.3,0.6c0.1-0.2,0.3-0.4,0.4-0.6
			c1.2-0.6,2.5-0.3,3.8-0.1c9.1,1,18.2,0.6,27.3-0.2c5.9-0.5,11.9-0.9,17.4-2.4c6.7-1.8,13.5-3.6,20-6.2c11.6-4.8,23-9.9,33.5-16.9
			c7.6-5.1,14.8-10.6,21.7-16.6c8.6-7.4,16.1-15.7,23.2-24.5c9.8-12.3,17.7-25.7,24.2-40c5.4-11.8,10.5-23.8,13-36.6
			c1.6-8,4.1-15.8,4.9-23.9c1.3-12.6,2.3-25.1,1.6-37.8c-0.5-8.7-1.7-17.3-3-25.9c-1.4-9-3.4-17.7-5.8-26.4
			c-3.4-12.1-7.8-23.9-13.2-35.3c-3.5-7.4-7.2-14.7-11.3-21.8c-2.3-3.9-2.3-3.6-6.6-2.4c-5.9,1.6-10.8,5.4-16.9,6.4
			c-4,0.7-7.9,2.4-11.8,3.6c-11.3,3.5-22.8,6-34.3,8.9c-0.1,1.4,0.8,1.8,1.9,2.4c7.1,4.1,12.7,9.8,17.3,16.5
			c2.9,4.3,5.5,8.6,7.7,13.3c1.7,3.6,3.4,7.3,4.9,11c3.7,9.1,4.8,18.8,7.3,28.1c0.7,2.7,1.9,5.8,0.9,8.9c-0.2,0.1-0.4,0.2-0.6,0.3
			c0.2,0.1,0.4,0.2,0.6,0.3c1,2.4,1.1,5,1.1,7.5c0.1,8.9,0.1,17.8-0.5,26.7c-0.6,9.9-2.5,19.4-4.8,28.9c-2.8,11.8-7.3,23-13,33.6
			c-7.4,13.5-17,25.2-29.4,34.6c-12.6,9.5-26.7,15.3-41.8,18.5c-10.2,2.1-20.6,2.6-31,1.9c-5.1-0.3-10.4,0.1-15.2-1.2
			c-4.9-1.3-9.9-2.6-14.7-4.1c-12.4-4-23.3-10.3-33-18.7c-9.6-8.3-17.5-18.2-23.5-29.4c-8.1-15.3-13.4-31.6-15.7-48.8
			c-1.9-14.6-2.4-29.3-0.9-44c0.1-1.1,0.9-2.5-0.5-3.5c0-0.2,0-0.4,0-0.6c1.6-1.4,1.3-3.4,1.6-5.3c0.1-1.3-0.1-2.6,0.2-3.8
			c1.8-7.1,3.2-14.2,5.5-21.2c2.7-8.1,5.6-15.9,9.9-23.3c5.3-9.3,11.7-17.6,19.8-24.6c0.9-0.8,2.5-1.6,1.9-3.4
			c-9.7-2.1-19.3-4.7-28.8-7.6c-8.2-2.5-16.2-5.8-24.2-9c-2.6-1-5.1-2.3-7.6-3.5c-4.2-1.9-4-1.8-6.3,2.2c-1.2,2.1-1.7,4.3-2.7,6.5
			c-4.1,9.5-8.3,19-12.1,28.6c-2.4,6-4.4,12.2-6.1,18.4c-1.8,6.3-3.2,12.6-4.6,19c-1.2,5.2-2.6,10.3-3.1,15.6
			c-0.5,4.8-1,9.5-1.5,14.2c-2,18-1.7,36.1,0.6,54c1.5,11.4,3.7,22.7,7.3,33.8c3.1,9.4,7.2,18.4,10.6,27.7c1.2,3.1,3.6,5.4,5,8.4
			c2.1,4.6,5.1,8.6,7.8,12.9c3.8,6,8.6,11.3,12.7,17c7,9.8,16.2,17.3,25.4,24.7c6.6,5.2,13.7,9.7,21,14
			c15.7,9.1,32.2,15.7,50.1,18.7C790.2,964.1,794.5,964.9,798.7,965.6z M1239.2,469.5c0.3,1.1,0.9,0.9,1.6,0.3
			c0.8-0.7,1.9-0.5,2.8-0.3c6.5,1.6,13.2,2.3,19.6,4.1c4.3,1.2,8.8,2.2,12.9,3.8c5.3,2.1,10.6,4.1,15.6,7c3.4,2,7.3,3.4,10.8,5.5
			c4.9,3,9.5,6.4,14.2,9.7c3.9,2.7,7.9,5.7,11,9.2c4.7,5.3,10,10.1,15,15.1c3.8,3.8,6.6,8.3,10.5,11.9c4,3.7,6.8,8.3,10.3,12.4
			c3.9,4.7,8,9.3,11.6,14.2c4.1,5.6,9,10.1,14.6,14.1c5,3.6,10.6,4.5,16,2.8c5.6-1.8,11.2-4,16.1-7.4c6.6-4.7,11.9-14.4,6.9-23.9
			c-5.2-9.9-12.1-18.5-19.4-26.7c-7.4-8.4-15.4-16.3-23.2-24.3c-5.4-5.4-11-10.6-16.5-16c-4.1-4-8.1-8-12.1-12
			c-1.1-1.1-1.9-2.2-2.4-3.9c-1.1-4.3,1.4-6.6,4.1-8.9c3.3-2.9,7.4-2.6,10.5,0.6c4,3.9,7.3,8.4,11.6,12c3.7,3.2,7.4,6.5,11,9.8
			c10,8.9,18.4,19.3,27.7,28.9c5.6,5.7,10.5,12.2,15.5,18.5c5.1,6.4,9.5,13.2,13.6,20.3c1.5,2.6,3.3,5.3,6.5,5.8
			c3.4,0.5,6.7,0.2,10.1-1.5c5.5-2.9,10.7-6,14-11.4c3.7-6.2,6.5-12.5,4.1-20.1c-0.6-1.9-1.7-3.5-2.2-5.5c-1-4-3.1-7.9-5.3-11.5
			c-6.3-10.3-13.5-20-22.1-28.7c-5-5.1-10.1-10-15.1-15c-6.6-6.5-14.1-12.1-21.6-17.5c-9.2-6.7-18.8-12.9-28.6-18.7
			c-4.7-2.7-5.8-9.3-2.7-13.7c2.2-3.1,5.2-3.8,8.5-1.5c8.2,5.7,16.4,11.4,24.4,17.4c7.5,5.6,15,11.3,22.3,17.3
			c7.4,6.1,15,12,22.2,18.5c2.8,2.5,5.4,5.3,8.2,7.7c8.9,7.5,16.5,16.1,24,24.8c2.3,2.6,5.6,3.8,8.8,2.6c7.9-3.1,11.5-9.8,14-17.3
			c0.3-0.9,2.1-2.8,0.1-4.1l0-0.1c1.9-1.8,1.2-4.2,1.2-6.3c0.2-8.7-3.7-16.3-6.5-24.2c-2.2-6.3-7.4-10.6-11.5-15.5
			c-3.8-4.5-8.5-8.2-12.7-12.2c-6.2-5.9-12.9-11.2-19.7-16.3c-8.9-6.6-18.2-12.6-27.8-18.1c-10.4-5.9-21.1-10.8-32.4-14.7
			c-1.9-0.7-4-0.7-5.7-1.8c-2.2-1.3-2.7-2.3-1.5-4.4c1.8-3,4.5-5.4,4.6-9.3c4.9-7.7,7.3-16.3,10.1-24.8c1.7-5,2.2-10.3,3.4-15.4
			c2.6-10.3,3.5-20.6,2.7-31.1c-0.3-3.9-1.5-7.7-2-11.5c-0.7-5.3-2.3-10.3-4.4-15.2c-3.1-7.3-7.5-13.7-12.6-19.8
			c-7.5-9-16.6-15.8-27-20.6c-5.5-2.6-11.5-4.6-17.6-5.8c-4.7-0.9-9.5-1.8-14.2-0.3c-4.3,1.4-8.4,2.9-10.7,7.6
			c-2.4,4.9-1.9,9.8-2,14.8c0,1.9,0.4,3.7,1.4,5.4c3.7,6.2,7.3,12.5,11,18.7c8,13.1,15,26.7,18.3,41.8c4.3,19.7-2.7,35-17.3,46.2
			c-6.5,5-13.4,9.4-21.4,11.8c-8,2.3-15.6,5.7-23.7,7.7c-10.9,2.6-21.8,3.7-33,2c-0.9-0.1-1.9-0.4-2.6,0.6c-0.1-0.2-0.3-0.2-0.5-0.2
			c-0.3-0.4-0.5-0.7-1-0.8c-12.5-2.1-23-8.5-32.9-15.9c-5.1-3.8-8.5-9.2-12.2-14.3c-5.8-8-9.6-17.1-12.3-26.4
			c-2.6-9.2-4.1-18.6-4.6-28.2c-0.5-9.5,0.2-18.6,4.4-27.5c4.7-10,11.8-17.9,20.4-24.4c8-6,16.7-10.6,26.5-12.9
			c7.7-1.7,15.5-1.8,23.3-1.4c9.2,0.5,18.5,1.4,27.8,0.3c5.5-0.6,10.6-2.9,14.1-7.5c3.4-4.5,4.5-9.3,3.4-15.4
			c-1.2-6.8-4.7-10.4-10.2-13.5c-12.1-6.8-25.4-9.9-38.9-11.6c-19.3-2.5-38,0.2-56.3,6.7c-6.1,2.2-11.9,5-17.6,8.2
			c-10.6,5.9-19.9,13.5-29,21.4c-4.3,3.8-7.4,8.6-11.1,12.9c-5.2,5.9-9.6,12.3-13.2,19.2c-2.7,5.3-4.6,11.1-6.2,16.9
			c-0.6,2.4-2,4.8-1.9,7.1c0.1,4.6-0.5,9-1.5,13.4c-0.2,0.1-0.4,0.2-0.6,0.3c0.2,0.1,0.4,0.2,0.6,0.3c0.5,10.9-0.1,21.8,2.2,32.6
			c0.9,4.3,1.4,8.6,2.6,12.8c2.1,7,4.3,14.1,7.1,20.9c3.2,7.9,6.8,15.6,10.9,23c3.1,5.6,6.9,10.7,10.7,15.7c1.9,2.6,3.5,5.7,6.2,7.6
			c5.9,4.3,10.1,10.3,15.9,14.7c5.3,4,11,6.8,17,9.2c-0.1,0.5-0.2,0.9-0.3,1.4c-5.1,0.2-10,1.6-14.8,2.7c-9.7,2.1-19.3,5.1-28.7,8.1
			c-10.9,3.5-21.3,8.1-31.4,13.6c-8,4.4-15.4,9.5-22.4,15.3c-1.7,1.4-2.4,2.8-2.7,5c-0.6,4.8-1.8,9.6-2.9,14.3
			c-2.3,9.2-5.1,18.2-8.2,27.2c-4.4,12.9-10,25.2-15.9,37.4c-2.7,5.4-5.2,11.1-8.8,16.1c-1.5,2.1-2.3,4.7-3.4,7
			c0.3,0.3,0.4,0.5,0.5,0.5c7-0.1,13.9-1.6,20.9-0.9c1.5,0.2,1.8-1,2.5-1.8c6.3-7.7,12.7-15.4,19.9-22.4
			c6.5-6.4,12.6-13.2,19.8-18.8c6.4-5,12.5-10.3,19.1-14.9c8.1-5.7,16.8-10.6,25.6-15.1c1.6-0.8,3.7-0.4,4.8-1.4
			c2.8-2.4,6.3-3.3,9.6-4.3c11.1-3.4,22.5-6.1,34.2-6.5C1229.7,468.4,1234.5,468.2,1239.2,469.5z M1094,403.7c0.2-0.5,0-0.7-0.5-0.6
			c-1.1-0.1-2.2-0.2-3.3-0.2c-25.9-0.2-51.8-0.5-77.7-0.6c-55.3-0.3-110.6-0.7-165.9-1c-33.6-0.2-67.1-0.3-100.7-0.4
			c-1,0-2.2-0.6-3,0.9c3.3,2.4,6.7,4.7,9.8,7.3c10.1,8.2,18.2,17.9,24.2,29.5c3.8,7.2,6.4,14.9,8.1,22.8c0.5,2.2,2,4.5,0.1,6.9
			l-0.1,0.3l0.2,0.3c1.6,1.3,1.3,3.2,1.4,4.9c0.7,10.4-1,20.5-4.3,30.3c-4.9,14.7-13.5,27.1-25.3,36.9
			c-10.9,9.1-23.3,15.4-37.3,18.8c-17.7,4.4-34.6,2.7-50.7-5.5c-11.9-6.1-22.4-13.9-30.7-24.8c-10.7-14.2-17.7-29.6-18.3-47.5
			c-0.4-12,0.8-23.7,5.6-35c5.7-13.5,13.5-25.5,24.2-35.6c3.6-3.4,7.4-6.3,11.9-8.2c1.2,0.1,2-0.6,2.7-1.5c-1,0-1.9-0.4-2.8,0.1
			c-1.1-0.1-2.2-0.2-3.3-0.2c-28.8-0.3-57.5-0.7-86.3-1c-9.6-0.1-19.2-0.1-28.8-0.2c-2.1,0-2.9,0.6-2.7,2.7
			c0.3,4.5,0.2,8.9,0.5,13.4c1,13.7,2.4,27.4,5.4,40.9c1.9,8.5,3.5,17.2,6.2,25.4c2.5,7.3,4.9,14.7,7.7,21.9
			c6.6,16.4,14.5,32,24.2,46.6c8.2,12.3,17.4,23.9,28,34.3c5.6,5.5,11.1,11.2,17.4,15.9c7.9,6,16,12,24.6,17.1
			c6,3.6,11.9,7.6,18.3,10.3c5.4,2.3,10.7,4.8,16.1,7.1c9.4,3.8,19,7.4,28.8,9.8c8.5,2.1,17,4.9,25.8,5.8c3.3,0.4,6.3,1.8,9.5,2.1
			c8.4,0.7,16.8,1.5,25.1,2.3c20.4,1.9,40.8,2.2,61.3,1.1c13.2-0.7,26.3-2.1,39.3-4.1c9.5-1.4,18.9-3.4,28.3-5.4
			c7-1.4,14-3.9,20.9-6.3c11.2-3.9,22.2-8.1,32.8-13.4c12.2-6.1,24.2-12.6,35-21.1c6.4-5,12.8-9.9,18.8-15.6
			c9.1-8.6,17.9-17.3,25.5-27.2c11.9-15.4,21.5-32.1,29.3-50c5.9-13.5,10.5-27.3,14.5-41.4c2.7-9.7,4.4-19.7,6.6-29.5
			c0.3-1.4,1-2.8-0.2-4.1c0.7-0.1,1.3-0.3,0.6-1.1c0.3-0.7,0.7-1.5,0.8-2.2C1093,425,1094.3,414.4,1094,403.7z M970.1,641.8
			c2.6,2.8,4.4,5.8,6,8.8c2.6,5,5.4,10,7.6,15.2c3.1,7.7,6,15.5,8.6,23.4c4.1,12.5,6.3,25.5,8.4,38.4c2.2,13.6,3.2,27.3,3.3,41.1
			c0.1,11.5,0.1,23-0.6,34.5c-0.2,2.5,0.5,4.7,1.7,6.8c2.1,3.8,5.6,6,9.1,8.1c10.1,6.1,20.7,11,32.3,14c11.9,3.1,23.8,6.3,36.1,8.1
			c14.6,2,29.2,2.4,43.8-0.8c21.3-4.6,41.2-12.9,59.2-25.3c26.2-18,44-41.9,51.8-73.1c5.3-21.4,5.1-42.7,1.2-64.1
			c-1.9-10.5-5.7-20.5-10.6-30.1c-3-6-6-11.9-10-17.2c-16.4-21.7-38.3-35.3-64-43.4c-7.8-2.4-15.7-4-23.7-5.2
			c-6.1-0.9-12.1,0.6-17.9,1.9c-15.2,3.4-29.3,9.7-42.1,18.6c-4.9,3.5-9.6,7.3-13.8,11.6c-7.8,8.1-13.8,17.4-18.4,27.7
			c-2.4,5.3-4.3,11-4.9,16.5c-1.2,11.2-1.6,22.6-0.3,33.9c1.3,11.2,3.5,22.1,8.3,32.4c5.6,12,13,22.5,23.6,30.6
			c8.8,6.7,18.5,11.5,29.2,14.3c2.9,0.7,5.8,1.6,8.7,1.8c13.4,1.1,26.1-1.5,38.1-7.6c10.5-5.3,18.3-12.8,22.5-24
			c1.2-3.3,2.6-6.4,2.9-9.9c1.2-12.2,0.1-24.2-4.4-35.7c-2.5-6.6-6.6-12.1-11.7-16.8c-3.7-3.4-8.4-4.8-12.9-6.7
			c-11.3-4.6-22.5-2.5-33.9-0.6c-4.2,2.9-9.6,3.6-13.5,7c-1.6,1.4-3.9,0.8-4.3-1c-0.8-3.9-0.9-7.8,2.1-10.8c2.2-2.2,4.4-4.3,7.4-5.7
			c5.2-2.4,10.4-4.9,16.1-6c4.1-0.8,8-2.9,12.4-2.6c14.9,1,28.5,4.8,39,16.2c3.8,4.2,7.6,8.2,9.9,13.7c4.5,10.5,8.2,21.1,9.5,32.5
			c1,9,0.1,17.8-1.8,26.4c-1,4.6-3.4,8.9-5.5,13.2c-1.5,3.2-3,6.3-5.5,8.8c-3.6,3.7-7.4,7.3-11.7,10.3
			c-11.3,7.9-23.8,12.6-37.2,14.7c-12.9,2.1-25.7,1.5-38.4-1.8c-6.4-1.7-12.7-3.9-18.4-7.2c-19.1-10.9-32.9-26.6-41.2-47.1
			c-0.9-2.2-1.4-4.5-2.2-6.7c-3.5-9.2-5.3-18.8-5.7-28.6c-0.5-12.1-0.2-24.1,2.6-36c3.2-13.4,6.8-26.5,14.6-38.1
			c6.3-9.4,13.1-18.3,21.6-26c9.7-8.9,20.4-16,32.3-21.4c1.4-0.7,3.4-0.8,4.4-2.8c-6.6,0-13,0.1-19.4,0c-9.5-0.2-17.4,3.1-24.1,9.7
			c-6.6,6.4-13.3,12.7-20.1,18.9C1009,614.5,990,628.4,970.1,641.8z M631.6,725.2c-1.2-0.1-1.5,1-1.9,1.7
			c-6.4,11.2-15.1,20.4-25.3,27.7c-16.4,11.8-34.5,20.4-54.9,22.9c-13.4,1.7-26.4,0.7-38.7-5.1c-15.7-7.4-27.1-19.2-33.5-35.3
			c-6.9-17.2-3.9-33.6,1.8-49c4.2-11.3,10.5-21.2,19.4-29.5c5.8-5.4,12.4-9.5,19.9-12c13.6-4.4,27.3-3.6,41-0.1
			c4.1,1.1,7.8,3,10.5,6.4c3.1,4,2.9,8.7-0.5,12.2c-3,3.1-8.9,3.5-12.5,0.9c-2.6-1.9-5.2-3.7-8.4-4.5c-6.9-1.6-13.9-2-20.9-0.7
			c-3.2,0.6-6.4,1.6-9.3,3.1c-7.9,4.2-13.8,10.4-18.5,18c-5.3,8.6-8,18-8.9,27.8c-0.6,7.2-1,14.6,2.1,21.9
			c5.2,12,14.3,19.7,25.3,25.6c5.5,2.9,11.9,3.5,17.8,4.3c8.5,1.1,17.2,0.4,25.7-1.7c12.4-3.1,23.5-8.5,33.2-16.9
			c13.2-11.5,20.7-26.3,25.2-42.9c3.2-11.7,4.3-23.8,4.1-36c-0.3-16.1-4.7-31-13.3-44.5c-13.3-21-32.4-34.4-55.8-41.8
			c-15.2-4.8-30.5-3.9-45.8-0.6c-17.9,3.9-34.7,10.7-50.3,20.4c-7.7,4.8-14.8,10.5-21.8,16.3c-4.3,3.5-7.6,8.3-11.2,12.7
			c-8.7,10.6-15.5,22.5-20.1,35.4c-2.8,7.7-4.5,15.8-5.8,23.9c-2.7,17.1-2.1,34.2,0.7,51.1c1.4,8.7,3.9,17.5,7.5,25.8
			c7.6,17.4,18.1,32.5,32.5,44.9c8.1,7,17,13,26.4,17.9c8.5,4.4,17.5,8.3,27.1,10.1c7.7,1.4,15,4,22.9,4.7c16,1.4,31.7,1.1,47.4-2.3
			c22.1-4.9,42.8-13.3,62.4-24.4c4.1-2.3,4.1-2.4,3.4-7.2c-2.7-18-2.8-36-1.4-54c0.2-2.8-0.4-5.8,0.3-8.3c1.6-5.7,0.9-11.7,2.9-17.3
			C632.4,726.2,632.3,725.6,631.6,725.2z M818.2,384.4c0,0.1,0,0.2,0,0.3c9.8,0,19.5,0,29.3,0c29.4,0,58.8,0,88.3,0.1
			c17.1,0,34.2,0,51.3,0.1c34.4,0.1,68.8,0.2,103.1,0.3c3.8,0,4,0,4-3.9c0.1-4.8-0.1-9.6-0.1-14.4c0-4.6-1.1-9.2-1.3-13.8
			c-0.4-6.6-3.2-12.7-3.6-19.3c-0.1-1.5-1.1-2.1-2.6-2.1c-3.4,0-6.7-0.2-10.1-0.2c-28.9-0.1-57.9-0.1-86.8-0.1
			c-17.9,0-35.8-0.1-53.7-0.2c-79.9-0.2-159.9-0.5-239.8-0.7c-28.8-0.1-57.6-0.1-86.3-0.1c-18.2,0-36.5-0.1-54.7-0.2
			c-2.1,0-4.2,0-6.2,0c-1.6,0.1-2.5,0.8-2.7,2.6c-0.8,7.3-2.9,14.4-3.4,21.8c-0.6,8.5-1.4,16.9-1.2,25.4c0.1,3.7,0.1,3.7,3.7,3.8
			c4.3,0.1,8.6,0.1,13,0.1c63.6,0.2,127.3,0.3,190.9,0.5C772.2,384.4,795.2,384.4,818.2,384.4z M553.6,310.8c2,0.1,3.3,0.2,4.5,0.3
			c20,0.4,40,0.1,59.9,0.4c33.9,0.5,67.8,0.3,101.7,0.3c48.6,0.1,97.2,0.1,145.8,0.1c54.4,0.1,108.7,0.2,163.1,0.3
			c16.5,0,32.9,0.1,49.4,0.1c3.7,0,4.1-0.5,3.4-4.2c-0.1-0.3-0.1-0.6-0.2-0.9c-2.9-13.4-7.7-26-13.5-38.3c-1.1-2.4-2.5-3.2-5.1-3.2
			c-15.2-0.1-30.4-0.4-45.5-0.5c-57.5-0.4-115.1-0.2-172.6-1c-38.2-0.6-76.4-0.2-114.6-0.7c-47.8-0.6-95.6-0.3-143.4-0.9
			c-7.6-0.1-11.9,2.1-15.6,8.6C563.8,283.6,557.6,296.3,553.6,310.8z M1050.7,244.7c-0.6-1.9-1.6-3.6-2.7-5.4
			c-5.3-8.3-10.6-16.6-16.3-24.6c-5.4-7.4-10.9-14.7-17.7-21c-2.1-2-4.3-2.8-7.3-2.8c-71.8-0.1-143.5-0.2-215.3-0.3
			c-36.9-0.1-73.9-0.1-110.8-0.2c-1.4,0-2.9-0.1-4.3-0.1c-15.5,0-31,0-46.5,0c-1.6,0-3.1,0.1-4.3,1.4c-3.5,3.7-7.4,7.1-10.6,11
			c-4.9,5.8-9.5,11.8-14,17.9c-5.6,7.5-10.4,15.5-15.7,24.2C740.8,244.7,895.7,244.7,1050.7,244.7z M808.6,779.3
			c0-29.1,0-58.2,0-87.3c0-4.6-0.1-9.3,0-13.9c0.1-2.4-0.7-3.4-3.3-3.4c-11.5,0-23-0.8-34.4-1.9c-1.2-0.1-2.4-0.1-3.6,0.7
			c-8.6,5.2-16.5,11.2-23.1,18.9c-7.3,8.4-12.7,18-17.3,28c-3.1,6.8-4.7,14.3-6.3,21.7c-4.1,18.7-4.1,37.5-0.4,56.1
			c2.7,13.9,7.3,27.4,15.3,39.5c5.7,8.7,11.8,17.2,19.8,23.6c7.4,6,15.1,11.8,24.4,15.1c7.8,2.8,15.7,5.2,23.9,6.5
			c5.1,0.8,5.1,0.7,5.1-4.7C808.6,845.2,808.6,812.2,808.6,779.3z M825.9,778.8C825.9,778.8,825.9,778.8,825.9,778.8
			c0.1,17.7,0.1,35.5,0.1,53.2c0,15.8,0,31.7,0,47.5c0,4.5,0.1,4.7,4.6,4c5.7-0.9,11.3-1.5,16.9-3.5c10.3-3.7,19.8-8.7,28-15.8
			c13.7-11.9,22.9-26.7,29-43.6c3.7-10.3,6.4-20.9,8-31.7c2.5-17,1.6-34-2-50.8c-2.6-12.1-6.9-23.7-13.3-34.4
			c-7.9-13.3-18.4-24-32.7-30.6c-1.5-0.7-2.9-0.9-4.6-0.7c-9.5,1.1-19.1,1.9-28.7,2.3c-5.8,0.2-5.4-1.2-5.4,5.4
			C825.9,712.9,825.9,745.9,825.9,778.8z M986.9,174.3c0.1-0.4,0.2-0.7,0.3-1.1c-2.8-2.4-5.5-4.8-8.3-7.1
			C965,155,949.8,146,933.8,138.2c-25.5-12.4-52.4-20.1-80.6-22.9c-26-2.6-52-1.6-77.9,2.6c-31.6,5.1-61.6,14.7-89.7,30.2
			c-11.2,6.2-21.9,13.2-31.8,21.3c-1.7,1.4-3.9,2.6-4.6,4.8C762,174.3,874.5,174.3,986.9,174.3z M632.6,723.5
			c-0.1-0.2-0.3-0.5-0.4-0.7c-0.2,0.3-0.5,0.6-0.6,0.9c-0.1,0.2,0.3,0.6,0.4,0.6C632.4,724.4,632.7,724,632.6,723.5z"/>
		<path class="st1" d="M836.4,97.9c-3.4-0.3-6.7-0.6-10.1-0.9c3.5,0,7,0,10.6,0C836.8,97.3,836.6,97.6,836.4,97.9z"/>
		<path class="st2" d="M832.8,982.7c0.1,0.3,0.2,0.6,0.3,0.9c-2.9,0-5.8,0-8.6,0C827.1,982.2,830,982.6,832.8,982.7z"/>
		<path class="st2" d="M385.5,721.4c-0.5,0.1-1,0.1-1.5,0.2c0-1.6,0-3.2,0-4.8C385.9,717.9,385.6,719.7,385.5,721.4z"/>
		<path class="st1" d="M808.1,97c-2.4,0.4-4.8,0.9-7.3,0.7c-0.1-0.3-0.2-0.5-0.4-0.7C803,97,805.6,97,808.1,97z"/>
		<path class="st2" d="M797.6,983.6c2.2-2,4.5-1,6.7,0C802.1,983.6,799.8,983.6,797.6,983.6z"/>
		<path class="st2" d="M800.5,97c0.2,0.2,0.3,0.5,0.4,0.7c-2.3,0.1-4.5,0.6-6.8,0.2c-0.1-0.3-0.2-0.6-0.3-0.9
			C796,97,798.2,97,800.5,97z"/>
		<path class="st2" d="M836.4,97.9c0.2-0.3,0.3-0.6,0.5-0.9c1.9,0,3.8,0,5.8,0c-0.1,0.3-0.2,0.6-0.3,0.9
			C840.4,97.9,838.4,97.9,836.4,97.9z"/>
		<path class="st2" d="M384,688c0.4,0.2,0.9,0.4,1.3,0.6c0.4,1.4-0.3,2.6-0.4,4c-0.3-0.3-0.6-0.5-1-0.7C384,690.6,384,689.3,384,688
			z"/>
		<path class="st1" d="M384,691.9c0.3,0.2,0.6,0.5,1,0.7c0.1,0.9-0.1,1.7-1,2.1C384,693.8,384,692.8,384,691.9z"/>
		<path class="st3" d="M785.2,468.1c1.9-2.3,0.3-4.7-0.1-6.9c-1.8-7.9-4.4-15.5-8.1-22.8c-6-11.5-14.1-21.3-24.2-29.5
			c-3.1-2.6-6.5-4.8-9.8-7.3c0.8-1.5,2-0.9,3-0.9c33.6,0.1,67.1,0.2,100.7,0.4c55.3,0.3,110.6,0.6,165.9,1
			c25.9,0.2,51.8,0.4,77.7,0.6c1.1,0,2.2,0.1,3.3,0.2c0,0.4,0.1,0.6,0.5,0.6c0.3,10.7-1,21.2-2.2,31.8c-0.1,0.8-0.5,1.5-0.8,2.2
			c-0.9,0-0.8,0.5-0.6,1.1c1.2,1.3,0.5,2.7,0.2,4.1c-2.3,9.8-3.9,19.7-6.6,29.5c-4,14.1-8.6,27.9-14.5,41.4
			c-7.8,17.9-17.5,34.6-29.3,50c-7.6,9.9-16.4,18.6-25.5,27.2c-6,5.6-12.4,10.6-18.8,15.6c-10.8,8.5-22.8,15-35,21.1
			c-10.6,5.3-21.7,9.5-32.8,13.4c-6.9,2.4-13.9,4.9-20.9,6.3c-9.4,1.9-18.8,3.9-28.3,5.4c-13.1,1.9-26.2,3.4-39.3,4.1
			c-20.5,1.1-40.9,0.9-61.3-1.1c-8.4-0.8-16.8-1.5-25.1-2.3c-3.3-0.3-6.2-1.8-9.5-2.1c-8.8-0.9-17.2-3.7-25.8-5.8
			c-9.8-2.4-19.4-6-28.8-9.8c-5.4-2.2-10.7-4.8-16.1-7.1c-6.4-2.7-12.3-6.7-18.3-10.3c-8.6-5.1-16.7-11.1-24.6-17.1
			c-6.3-4.8-11.7-10.4-17.4-15.9c-10.6-10.4-19.8-21.9-28-34.3c-9.7-14.7-17.7-30.3-24.2-46.6c-2.9-7.2-5.3-14.5-7.7-21.9
			c-2.8-8.2-4.3-16.9-6.2-25.4c-3-13.5-4.4-27.1-5.4-40.9c-0.3-4.5-0.3-8.9-0.5-13.4c-0.1-2.1,0.7-2.7,2.7-2.7
			c9.6,0.1,19.2,0.1,28.8,0.2c28.8,0.3,57.5,0.6,86.3,1c1.1,0,2.2,0.1,3.3,0.2c0,0.5,0.1,1,0.1,1.4c-4.6,1.9-8.4,4.8-11.9,8.2
			c-10.7,10.1-18.5,22-24.2,35.6c-4.8,11.3-6,23-5.6,35c0.6,18,7.6,33.4,18.3,47.5c8.2,10.9,18.8,18.7,30.7,24.8
			c16.1,8.3,33,9.9,50.7,5.5c14-3.5,26.4-9.7,37.3-18.8c11.8-9.9,20.4-22.2,25.3-36.9c3.3-9.9,4.9-19.9,4.3-30.3
			c-0.1-1.7,0.2-3.6-1.4-4.9c0.2-0.1,0.4-0.2,0.6-0.3C785.6,468.3,785.4,468.2,785.2,468.1z M946.4,449.2c-3-0.5-6.4,0.4-9.8,1
			c-8.7,1.4-17,4.2-24.7,8.7c-6.4,3.7-12.3,8.2-18.1,12.7c-4.3,3.4-8.5,7.1-11.8,11.6c-1.9,2.6-2.9,5.3-2.4,8.4
			c0.3,2.3,2.2,4.2,4.6,4.5c3.4,0.4,6.2-0.6,8.5-3.1c5.7-6.4,11.9-12.3,18.9-17.2c10.3-7.3,21.4-11.9,34.3-12.5
			c6.3-0.3,12.2,1.5,18.1,2.7c3.7,0.7,7.1,3.1,10.6,4.7c10.3,4.8,18.7,11.7,25.8,20.4c2.1,2.6,7.3,3.2,9.9,1.1
			c3.4-2.7,4-6.9,1.3-10.1c-1.6-1.9-3.2-3.9-5-5.7c-8.5-8.5-18-15.7-29.2-20.4C967.6,451.9,957.6,449,946.4,449.2z M796.5,590.6
			c-1.5,9.9,10.1,20.9,19.7,20c12.3-1.2,20.4-9.2,19.9-20.1c-0.5-12.4-7.4-18.9-20.1-19.7C805.1,569.9,795.6,580.4,796.5,590.6z"/>
		<path class="st3" d="M1207.7,406.1c-6-2.4-11.6-5.1-17-9.2c-5.9-4.4-10.1-10.4-15.9-14.7c-2.6-1.9-4.3-5-6.2-7.6
			c-3.8-5.1-7.6-10.1-10.7-15.7c-4.1-7.5-7.7-15.2-10.9-23c-2.8-6.8-5-13.9-7.1-20.9c-1.2-4.2-1.7-8.5-2.6-12.8
			c-2.3-10.8-1.7-21.7-2.2-32.6c0.2-0.2,0.2-0.4,0-0.6c1-4.4,1.6-8.9,1.5-13.4c0-2.3,1.3-4.7,1.9-7.1c1.5-5.8,3.4-11.6,6.2-16.9
			c3.6-6.9,8-13.3,13.2-19.2c3.7-4.3,6.8-9.1,11.1-12.9c9-8,18.4-15.6,29-21.4c5.7-3.1,11.5-6,17.6-8.2c18.3-6.4,37-9.1,56.3-6.7
			c13.6,1.7,26.8,4.8,38.9,11.6c5.4,3.1,9,6.7,10.2,13.5c1.1,6.1,0,10.8-3.4,15.4c-3.5,4.6-8.6,6.9-14.1,7.5
			c-9.2,1.1-18.5,0.2-27.8-0.3c-7.8-0.5-15.6-0.4-23.3,1.4c-9.9,2.2-18.6,6.9-26.5,12.9c-8.6,6.5-15.7,14.4-20.4,24.4
			c-4.2,8.9-4.9,18-4.4,27.5c0.5,9.6,2,19,4.6,28.2c2.7,9.4,6.6,18.4,12.3,26.4c3.7,5.1,7.1,10.5,12.2,14.3
			c9.9,7.4,20.4,13.8,32.9,15.9c0.6,0.1,0.8,0.4,1,0.8c0,0.4,0.2,0.5,0.5,0.2c0.7-0.9,1.7-0.7,2.6-0.6c11.1,1.6,22,0.6,33-2
			c8.1-2,15.8-5.3,23.7-7.7c8.1-2.4,14.9-6.8,21.4-11.8c14.7-11.2,21.7-26.4,17.3-46.2c-3.3-15.1-10.3-28.7-18.3-41.8
			c-3.8-6.2-7.3-12.4-11-18.7c-1-1.7-1.4-3.5-1.4-5.4c0.1-5-0.4-9.9,2-14.8c2.4-4.7,6.4-6.2,10.7-7.6c4.7-1.5,9.5-0.7,14.2,0.3
			c6.1,1.2,12.1,3.2,17.6,5.8c10.4,4.9,19.5,11.6,27,20.6c5.1,6.1,9.5,12.6,12.6,19.8c2.1,4.8,3.7,9.9,4.4,15.2
			c0.5,3.8,1.8,7.6,2,11.5c0.8,10.5-0.1,20.8-2.7,31.1c-1.3,5.1-1.8,10.4-3.4,15.4c-2.8,8.5-5.2,17.2-10.1,24.8
			c0,3.8-2.8,6.3-4.6,9.3c-1.3,2.1-0.7,3.1,1.5,4.4c1.8,1.1,3.8,1.2,5.7,1.8c11.3,3.9,22,8.8,32.4,14.7c9.7,5.5,19,11.5,27.8,18.1
			c6.8,5.1,13.5,10.4,19.7,16.3c4.3,4.1,8.9,7.7,12.7,12.2c4.2,4.9,9.3,9.2,11.5,15.5c2.8,7.9,6.8,15.5,6.5,24.2
			c-0.1,2.2,0.6,4.5-1.2,6.3c0,0-0.2,0-0.2,0l0.2,0.1c2,1.3,0.2,3.2-0.1,4.1c-2.5,7.4-6.1,14.1-14,17.3c-3.2,1.3-6.5,0.1-8.8-2.6
			c-7.5-8.7-15.1-17.4-24-24.8c-2.9-2.4-5.4-5.2-8.2-7.7c-7.1-6.5-14.7-12.4-22.2-18.5c-7.3-6-14.7-11.7-22.3-17.3
			c-8-6-16.2-11.7-24.4-17.4c-3.3-2.3-6.4-1.6-8.5,1.5c-3.1,4.4-1.9,11,2.7,13.7c9.9,5.7,19.4,11.9,28.6,18.7
			c7.5,5.5,15.1,11,21.6,17.5c5,5,10.1,10,15.1,15c8.6,8.7,15.8,18.3,22.1,28.7c2.2,3.6,4.3,7.5,5.3,11.5c0.5,2,1.6,3.6,2.2,5.5
			c2.4,7.6-0.4,13.9-4.1,20.1c-3.3,5.4-8.5,8.5-14,11.4c-3.3,1.7-6.6,2-10.1,1.5c-3.2-0.5-5-3.2-6.5-5.8c-4.1-7-8.5-13.9-13.6-20.3
			c-5-6.3-9.9-12.8-15.5-18.5c-9.4-9.5-17.7-20-27.7-28.9c-3.7-3.3-7.3-6.6-11-9.8c-4.3-3.6-7.6-8.1-11.6-12
			c-3.2-3.1-7.2-3.4-10.5-0.6c-2.6,2.3-5.2,4.6-4.1,8.9c0.4,1.7,1.3,2.8,2.4,3.9c4,4,8,8.1,12.1,12c5.5,5.3,11.1,10.5,16.5,16
			c7.9,8,15.8,15.9,23.2,24.3c7.3,8.2,14.2,16.8,19.4,26.7c5,9.6-0.3,19.3-6.9,23.9c-4.8,3.4-10.5,5.6-16.1,7.4
			c-5.4,1.7-11,0.8-16-2.8c-5.6-4-10.5-8.6-14.6-14.1c-3.6-4.9-7.6-9.5-11.6-14.2c-3.5-4.1-6.4-8.7-10.3-12.4
			c-3.9-3.6-6.7-8.1-10.5-11.9c-5-5-10.3-9.8-15-15.1c-3.2-3.5-7.1-6.5-11-9.2c-4.7-3.3-9.3-6.7-14.2-9.7c-3.5-2.1-7.3-3.5-10.8-5.5
			c-5-3-10.4-4.9-15.6-7c-4.1-1.6-8.6-2.6-12.9-3.8c-6.5-1.8-13.1-2.5-19.6-4.1c-0.9-0.2-1.9-0.4-2.7,0.3c-0.3-1.3-0.8-1.7-1.6-0.3
			c-4.7-1.3-9.5-1.1-14.2-0.9c-11.7,0.4-23,3.1-34.2,6.5c-3.3,1-6.8,1.9-9.6,4.3c-1.2,1-3.3,0.6-4.8,1.4
			c-8.9,4.5-17.5,9.4-25.6,15.1c-6.6,4.6-12.8,9.9-19.1,14.9c-7.2,5.7-13.3,12.5-19.8,18.8c-7.2,7-13.6,14.7-19.9,22.4
			c-0.7,0.8-0.9,1.9-2.5,1.8c-7-0.7-13.9,0.8-20.9,0.9c-0.1,0-0.2-0.2-0.5-0.5c1.1-2.3,1.9-4.9,3.4-7c3.7-5,6.2-10.7,8.8-16.1
			c5.9-12.2,11.5-24.6,15.9-37.4c3.1-9,5.9-18,8.2-27.2c1.2-4.7,2.3-9.5,2.9-14.3c0.3-2.2,1-3.6,2.7-5c7-5.8,14.4-10.9,22.4-15.3
			c10.1-5.5,20.5-10.2,31.4-13.6c9.5-3,19-5.9,28.7-8.1c4.9-1.1,9.8-2.5,14.8-2.7c0.6,0.4,1.3,0.3,1.4-0.5
			C1208.9,406.3,1208.4,405.9,1207.7,406.1z"/>
		<path class="st4" d="M970.1,641.8c19.9-13.4,38.9-27.2,56.3-43.1c6.8-6.2,13.5-12.5,20.1-18.9c6.7-6.6,14.6-10,24.1-9.7
			c6.4,0.2,12.8,0,19.4,0c-1.1,1.9-3,2.1-4.4,2.8c-11.9,5.4-22.5,12.5-32.3,21.4c-8.5,7.7-15.3,16.6-21.6,26
			c-7.8,11.6-11.4,24.7-14.6,38.1c-2.9,12-3.2,23.9-2.6,36c0.4,9.8,2.3,19.4,5.7,28.6c0.8,2.2,1.3,4.5,2.2,6.7
			c8.3,20.5,22,36.2,41.2,47.1c5.7,3.3,12,5.5,18.4,7.2c12.7,3.3,25.5,3.8,38.4,1.8c13.4-2.2,26-6.8,37.2-14.7
			c4.3-3,8.1-6.6,11.7-10.3c2.5-2.5,4-5.6,5.5-8.8c2.1-4.3,4.5-8.6,5.5-13.2c1.9-8.6,2.8-17.5,1.8-26.4c-1.3-11.4-5.1-22-9.5-32.5
			c-2.3-5.5-6.1-9.5-9.9-13.7c-10.5-11.5-24.1-15.3-39-16.2c-4.4-0.3-8.3,1.8-12.4,2.6c-5.7,1.1-10.9,3.6-16.1,6
			c-2.9,1.4-5.2,3.5-7.4,5.7c-3,3-2.9,6.9-2.1,10.8c0.4,1.8,2.6,2.5,4.3,1c4-3.4,9.3-4.1,13.5-7c11.3-1.9,22.6-4,33.9,0.6
			c4.6,1.8,9.3,3.3,12.9,6.7c5.1,4.7,9.1,10.2,11.7,16.8c4.5,11.6,5.6,23.5,4.4,35.7c-0.3,3.5-1.7,6.6-2.9,9.9
			c-4.2,11.2-12,18.7-22.5,24c-12,6.1-24.7,8.6-38.1,7.6c-2.9-0.2-5.8-1-8.7-1.8c-10.7-2.8-20.4-7.6-29.2-14.3
			c-10.6-8.1-18-18.7-23.6-30.6c-4.8-10.3-7-21.2-8.3-32.4c-1.3-11.3-1-22.7,0.3-33.9c0.6-5.5,2.5-11.2,4.9-16.5
			c4.6-10.3,10.5-19.6,18.4-27.7c4.2-4.3,8.8-8.2,13.8-11.6c12.8-9,26.8-15.2,42.1-18.6c5.9-1.3,11.8-2.8,17.9-1.9
			c8,1.2,15.9,2.7,23.7,5.2c25.7,8.1,47.6,21.7,64,43.4c4,5.3,7,11.2,10,17.2c4.9,9.6,8.7,19.6,10.6,30.1
			c3.9,21.4,4.1,42.8-1.2,64.1c-7.7,31.2-25.6,55.1-51.8,73.1c-18,12.3-37.8,20.6-59.2,25.3c-14.5,3.2-29.1,2.8-43.8,0.8
			c-12.3-1.7-24.1-5-36.1-8.1c-11.6-3-22.2-7.9-32.3-14c-3.5-2.1-6.9-4.4-9.1-8.1c-1.2-2.2-1.9-4.3-1.7-6.8
			c0.7-11.5,0.8-23,0.6-34.5c-0.2-13.8-1.1-27.5-3.3-41.1c-2.1-12.9-4.4-25.9-8.4-38.4c-2.6-7.9-5.4-15.7-8.6-23.4
			c-2.1-5.2-4.9-10.2-7.6-15.2C974.5,647.6,972.7,644.6,970.1,641.8z"/>
		<path class="st4" d="M631.6,725.2c0.7,0.4,0.9,1,0.7,1.6c-2,5.6-1.3,11.6-2.9,17.3c-0.7,2.4-0.1,5.5-0.3,8.3
			c-1.4,18.1-1.3,36.1,1.4,54c0.7,4.8,0.7,4.8-3.4,7.2c-19.6,11.1-40.3,19.5-62.4,24.4c-15.7,3.5-31.5,3.8-47.4,2.3
			c-7.9-0.7-15.3-3.2-22.9-4.7c-9.6-1.8-18.6-5.7-27.1-10.1c-9.4-4.9-18.3-10.9-26.4-17.9c-14.4-12.5-24.9-27.5-32.5-44.9
			c-3.7-8.3-6.1-17.1-7.5-25.8c-2.8-16.9-3.4-34-0.7-51.1c1.3-8.2,3-16.2,5.8-23.9c4.6-12.9,11.4-24.8,20.1-35.4
			c3.6-4.4,6.9-9.1,11.2-12.7c7-5.8,14.1-11.5,21.8-16.3c15.6-9.7,32.4-16.5,50.3-20.4c15.3-3.3,30.6-4.2,45.8,0.6
			c23.5,7.5,42.6,20.9,55.8,41.8c8.5,13.5,13,28.4,13.3,44.5c0.2,12.2-0.9,24.2-4.1,36c-4.5,16.5-12,31.4-25.2,42.9
			c-9.7,8.4-20.8,13.8-33.2,16.9c-8.5,2.1-17.2,2.9-25.7,1.7c-6-0.8-12.3-1.4-17.8-4.3c-11-5.9-20.1-13.6-25.3-25.6
			c-3.1-7.2-2.7-14.6-2.1-21.9c0.8-9.8,3.5-19.3,8.9-27.8c4.7-7.6,10.6-13.7,18.5-18c2.9-1.6,6-2.5,9.3-3.1c7-1.3,14-0.9,20.9,0.7
			c3.2,0.7,5.8,2.6,8.4,4.5c3.6,2.6,9.5,2.2,12.5-0.9c3.4-3.5,3.6-8.2,0.5-12.2c-2.7-3.4-6.4-5.3-10.5-6.4
			c-13.6-3.6-27.3-4.3-41,0.1c-7.5,2.4-14.1,6.5-19.9,12c-8.9,8.3-15.2,18.2-19.4,29.5c-5.7,15.4-8.7,31.8-1.8,49
			c6.5,16.1,17.8,28,33.5,35.3c12.3,5.8,25.3,6.7,38.7,5.1c20.4-2.5,38.5-11.1,54.9-22.9c10.2-7.3,19-16.6,25.3-27.7
			C630.1,726.2,630.3,725.1,631.6,725.2z"/>
		<path class="st3" d="M703.8,750.2c1.4,1,0.6,2.4,0.5,3.5c-1.5,14.7-1,29.3,0.9,44c2.3,17.3,7.5,33.5,15.7,48.8
			c6,11.2,13.9,21.2,23.5,29.4c9.7,8.3,20.6,14.7,33,18.7c4.9,1.6,9.9,2.9,14.7,4.1c4.8,1.3,10.1,0.9,15.2,1.2
			c10.4,0.7,20.8,0.2,31-1.9c15.2-3.2,29.3-9,41.8-18.5c12.5-9.4,22.1-21.1,29.4-34.6c5.8-10.6,10.2-21.8,13-33.6
			c2.3-9.5,4.2-19,4.8-28.9c0.6-8.9,0.6-17.8,0.5-26.7c0-2.5-0.1-5.1-1.1-7.5c0.2-0.2,0.2-0.4,0-0.6c0.9-3.1-0.2-6.2-0.9-8.9
			c-2.5-9.3-3.7-19.1-7.3-28.1c-1.5-3.7-3.2-7.4-4.9-11c-2.2-4.7-4.7-9.1-7.7-13.3c-4.6-6.7-10.2-12.5-17.3-16.5
			c-1-0.6-1.9-1-1.9-2.4c11.5-2.8,23-5.4,34.3-8.9c3.9-1.2,7.8-2.9,11.8-3.6c6.2-1,11.1-4.8,16.9-6.4c4.3-1.2,4.4-1.5,6.6,2.4
			c4.1,7.1,7.8,14.4,11.3,21.8c5.4,11.4,9.8,23.1,13.2,35.3c2.4,8.7,4.4,17.5,5.8,26.4c1.3,8.6,2.5,17.2,3,25.9
			c0.7,12.7-0.3,25.2-1.6,37.8c-0.8,8.1-3.3,15.9-4.9,23.9c-2.6,12.8-7.7,24.8-13,36.6c-6.5,14.3-14.4,27.7-24.2,40
			c-7,8.8-14.6,17.1-23.2,24.5c-6.9,6-14.1,11.5-21.7,16.6c-10.5,7-21.9,12.1-33.5,16.9c-6.5,2.7-13.3,4.5-20,6.2
			c-5.5,1.5-11.5,1.9-17.4,2.4c-9.1,0.7-18.2,1.2-27.3,0.2c-1.2-0.1-2.5-0.4-3.8,0.1c-0.2-0.2-0.4-0.3-0.7-0.1
			c-4.2-0.7-8.5-1.4-12.7-2.2c-17.9-3-34.4-9.6-50.1-18.7c-7.3-4.2-14.4-8.7-21-14c-9.2-7.4-18.4-14.9-25.4-24.7
			c-4.1-5.7-8.9-11-12.7-17c-2.7-4.2-5.6-8.3-7.8-12.9c-1.4-2.9-3.8-5.2-5-8.4c-3.4-9.3-7.5-18.3-10.6-27.7
			c-3.7-11.1-5.8-22.4-7.3-33.8c-2.4-17.9-2.7-36-0.6-54c0.5-4.7,1.1-9.5,1.5-14.2c0.5-5.2,1.9-10.4,3.1-15.6
			c1.4-6.4,2.9-12.7,4.6-19c1.8-6.2,3.8-12.4,6.1-18.4c3.8-9.6,8-19.1,12.1-28.6c0.9-2.1,1.5-4.4,2.7-6.5c2.3-4,2.1-4.1,6.3-2.2
			c2.5,1.2,5,2.5,7.6,3.5c8,3.2,15.9,6.5,24.2,9c9.5,2.9,19.1,5.5,28.8,7.6c0.6,1.8-0.9,2.6-1.9,3.4c-8.1,7-14.4,15.3-19.8,24.6
			c-4.3,7.4-7.2,15.2-9.9,23.3c-2.3,7-3.8,14.1-5.5,21.2c-0.3,1.2-0.1,2.5-0.2,3.8c-0.2,1.8,0,3.8-1.6,5.3c-0.1,0-0.2,0.1-0.3,0.1
			C703.6,749.9,703.7,750,703.8,750.2z"/>
		<path class="st3" d="M818.2,384.4c-23,0-46,0-69.1,0c-63.6-0.1-127.3-0.3-190.9-0.5c-4.3,0-8.6,0-13-0.1c-3.6,0-3.6-0.1-3.7-3.8
			c-0.2-8.5,0.6-16.9,1.2-25.4c0.5-7.4,2.5-14.5,3.4-21.8c0.2-1.8,1.1-2.6,2.7-2.6c2.1-0.1,4.2,0,6.2,0c18.2,0,36.5,0.1,54.7,0.2
			c28.8,0.1,57.6,0.1,86.3,0.1c79.9,0.2,159.9,0.4,239.8,0.7c17.9,0.1,35.8,0.1,53.7,0.2c28.9,0.1,57.9,0.1,86.8,0.1
			c3.4,0,6.7,0.2,10.1,0.2c1.6,0,2.6,0.7,2.6,2.1c0.4,6.6,3.2,12.8,3.6,19.3c0.3,4.6,1.3,9.2,1.3,13.8c0,4.8,0.2,9.6,0.1,14.4
			c-0.1,3.8-0.2,3.9-4,3.9c-34.4-0.1-68.8-0.2-103.1-0.3c-17.1,0-34.2-0.1-51.3-0.1c-29.4,0-58.8-0.1-88.3-0.1c-9.8,0-19.5,0-29.3,0
			C818.2,384.6,818.2,384.5,818.2,384.4z"/>
		<path class="st1" d="M553.6,310.8c4-14.5,10.2-27.3,17.3-39.7c3.7-6.4,8-8.7,15.6-8.6c47.8,0.6,95.6,0.3,143.4,0.9
			c38.2,0.5,76.4,0.1,114.6,0.7c57.5,0.9,115.1,0.6,172.6,1c15.2,0.1,30.4,0.4,45.5,0.5c2.6,0,4,0.8,5.1,3.2
			c5.8,12.3,10.6,25,13.5,38.3c0.1,0.3,0.2,0.6,0.2,0.9c0.6,3.8,0.3,4.3-3.4,4.2c-16.5,0-32.9-0.1-49.4-0.1
			c-54.4-0.1-108.7-0.3-163.1-0.3c-48.6-0.1-97.2-0.1-145.8-0.1c-33.9,0-67.8,0.2-101.7-0.3c-20-0.3-40,0-59.9-0.4
			C556.9,311.1,555.7,310.9,553.6,310.8z"/>
		<path class="st3" d="M1050.7,244.7c-155,0-309.9,0-465.6,0c5.3-8.7,10.1-16.7,15.7-24.2c4.5-6.1,9.1-12.1,14-17.9
			c3.3-3.9,7.1-7.3,10.6-11c1.3-1.3,2.7-1.4,4.3-1.4c15.5,0,31,0,46.5,0c1.4,0,2.9,0.1,4.3,0.1c36.9,0.1,73.9,0.1,110.8,0.2
			c71.8,0.1,143.5,0.3,215.3,0.3c3,0,5.2,0.9,7.3,2.8c6.7,6.3,12.3,13.6,17.7,21c5.8,8,11,16.3,16.3,24.6
			C1049.1,241.1,1050.1,242.8,1050.7,244.7z"/>
		<path class="st2" d="M808.6,779.3c0,32.9,0,65.8,0,98.8c0,5.3,0,5.5-5.1,4.7c-8.2-1.3-16-3.6-23.9-6.5
			c-9.3-3.3-17.1-9.1-24.4-15.1c-7.9-6.5-14-15-19.8-23.6c-8-12.1-12.6-25.6-15.3-39.5c-3.6-18.6-3.7-37.4,0.4-56.1
			c1.6-7.4,3.2-14.9,6.3-21.7c4.6-10,10.1-19.5,17.3-28c6.6-7.7,14.5-13.6,23.1-18.9c1.2-0.8,2.4-0.8,3.6-0.7
			c11.5,1.1,22.9,1.9,34.4,1.9c2.6,0,3.3,1,3.3,3.4c-0.1,4.6,0,9.3,0,13.9C808.6,721.1,808.6,750.2,808.6,779.3z"/>
		<path class="st2" d="M825.9,778.8c0-32.9,0-65.9,0-98.8c0-6.5-0.3-5.2,5.4-5.4c9.6-0.3,19.1-1.1,28.7-2.3c1.7-0.2,3.1,0,4.6,0.7
			c14.3,6.6,24.8,17.3,32.7,30.6c6.4,10.7,10.7,22.3,13.3,34.4c3.6,16.8,4.5,33.8,2,50.8c-1.6,10.8-4.3,21.4-8,31.7
			c-6.1,17-15.4,31.8-29,43.6c-8.3,7.2-17.7,12.1-28,15.8c-5.6,2-11.2,2.6-16.9,3.5c-4.5,0.7-4.6,0.5-4.6-4c0-15.8,0-31.7,0-47.5
			C825.9,814.3,825.9,796.6,825.9,778.8C825.9,778.8,825.9,778.8,825.9,778.8z"/>
		<path class="st1" d="M986.9,174.3c-112.5,0-224.9,0-337.7,0c0.8-2.2,2.9-3.4,4.6-4.8c9.9-8.2,20.6-15.2,31.8-21.3
			c28.1-15.5,58.1-25.1,89.7-30.2c25.9-4.2,51.8-5.2,77.9-2.6c28.2,2.8,55,10.5,80.6,22.9c16,7.8,31.2,16.8,45.1,27.9
			c2.9,2.3,5.6,4.7,8.3,7.1C987.1,173.6,987,174,986.9,174.3z"/>
		<path class="st2" d="M661.6,402.9c0-0.5-0.1-1-0.1-1.4c0.9-0.5,1.9-0.1,2.8-0.1C663.7,402.4,662.8,403,661.6,402.9z"/>
		<path class="st2" d="M1498.3,524.7c0.8,1.2,0.2,1.8-1,1.9C1496.9,525.5,1497.3,524.9,1498.3,524.7z"/>
		<path class="st2" d="M1435.9,303c0.6,0.9,0.4,1.6-0.6,2C1434.2,304,1434.8,303.4,1435.9,303z"/>
		<path class="st2" d="M867.8,101.1c0-0.5,0.3-0.8,0.7-0.7c0.7,0.1,0.7,0.7,0.7,1.3C868.6,101.8,868,102.1,867.8,101.1z"/>
		<path class="st2" d="M1251.2,731.4c0.5,0,0.8,0.3,0.7,0.7c-0.1,0.7-0.7,0.7-1.3,0.7C1250.5,732.2,1250.3,731.6,1251.2,731.4z"/>
		<path class="st2" d="M1207.7,406.1c0.8-0.1,1.2,0.2,1.1,0.9c-0.2,0.7-0.8,0.8-1.4,0.5C1207.5,407,1207.6,406.6,1207.7,406.1z"/>
		<path class="st1" d="M1090.4,438.9c-0.2-0.6-0.3-1.1,0.6-1.1C1091.7,438.6,1091.1,438.8,1090.4,438.9z"/>
		<path class="st1" d="M785.2,468.1c0.2,0.1,0.4,0.2,0.6,0.3c-0.2,0.1-0.4,0.2-0.6,0.3c0,0-0.2-0.3-0.2-0.3L785.2,468.1z"/>
		<path class="st2" d="M1239.2,469.5c0.8-1.4,1.3-1,1.6,0.3C1240.1,470.5,1239.5,470.6,1239.2,469.5z"/>
		<path class="st4" d="M632.6,723.5c0.1,0.5-0.2,0.8-0.7,0.9c-0.1,0-0.4-0.5-0.4-0.6c0.1-0.3,0.4-0.6,0.6-0.9
			C632.3,723.1,632.5,723.3,632.6,723.5z"/>
		<path class="st2" d="M1135.1,268.9c0.2,0.2,0.2,0.4,0,0.6c-0.2-0.1-0.4-0.2-0.6-0.3C1134.7,269.1,1134.9,269,1135.1,268.9z"/>
		<path class="st2" d="M926.9,747.7c0.2,0.2,0.2,0.4,0,0.6c-0.2-0.1-0.4-0.2-0.6-0.3C926.5,747.9,926.7,747.8,926.9,747.7z"/>
		<path class="st2" d="M703.8,750.2c-0.1-0.2-0.2-0.3-0.3-0.5c0.1,0,0.2-0.1,0.3-0.1C703.8,749.8,703.8,750,703.8,750.2z"/>
		<path class="st2" d="M1264.6,362.7c-0.3,0.3-0.5,0.2-0.5-0.2C1264.3,362.5,1264.5,362.5,1264.6,362.7z"/>
		<path class="st2" d="M1094,403.7c-0.4,0-0.5-0.2-0.5-0.6C1094,403,1094.2,403.2,1094,403.7z"/>
		<path class="st2" d="M798.7,965.6c0.2-0.2,0.5-0.2,0.7,0.1c-0.1,0.2-0.3,0.4-0.4,0.6C798.9,966,798.8,965.8,798.7,965.6z"/>
		<polygon class="st1" points="1518.4,473.6 1518.3,473.5 1518.5,473.5 		"/>
		<path class="st0" d="M1376.2,966.9c-1.1-12.4-2.2-24.8-3.3-37.2c-0.6-6.8-1.1-13.6-2.4-20.3c-2.7-13.8-6.5-27.2-12-40.2
			c-4.3-10.2-10-19.5-16.4-28.4c-3.9-5.4-8.8-9.8-13.4-14.6c-5.3-5.6-11.5-10.1-18.1-13.8c-7-4-14.6-6.6-22.6-8.4
			c-15-3.3-30.2-4-45.3-5.7c0.3-0.5,0.6-1.1,0.9-1.6c13.3-1.3,26.7-2.5,40-3.9c10.9-1.2,21-5.3,30.6-10.3c5.8-3,11.1-7,16.2-11.3
			c7.6-6.5,14.1-13.8,19.8-22c6.1-8.9,10.9-18.5,14.6-28.6c2.2-6,3.7-12.2,4.9-18.4c2-9.6,2.9-19.4,3.6-29.2
			c1-13.5,2.1-27.1,3.1-40.6c0,0,0.4,0.1,0.4,0.1l0.4-0.1c0.6,8.8,1.8,17.5,1.7,26.4c0,3.9,1.4,8,0.9,12.1c-0.2,0.1-0.4,0.2-0.6,0.3
			c0.2,0.1,0.4,0.2,0.6,0.3c0.1,0.3,0.4,0.6,0.4,0.9c0.2,4.1,0.4,8.2,0.6,12.2c0.2,4,1,8.1,1.3,12.2c0.3,4.1,1.2,8.3,2.5,12.2
			c1.5,4.5,3.1,9,4.2,13.7c1,4.2,3.6,7.9,5.4,11.7c3.2,6.6,7.6,12.7,11.6,19c3.7,5.8,9,10.1,13.9,14.8c9.8,9.3,21.1,16.2,33.9,20.9
			c7,2.6,14.3,3.5,21.6,4.3c10.1,1.1,20.3,2.1,30.5,3.1c2,0.2,4,0.7,6,1.1c0,0-0.2,0.2-0.2,0.2l0.2,0.2c-13.2,1.4-26.3,2.7-39.5,4.2
			c-7.3,0.8-14.5,2.4-21.2,5.5c-8.9,4.1-17.1,9.3-24.6,15.7c-13.8,11.9-23.6,26.7-31.7,42.8c-4,8-7.2,16.5-9.4,25.1
			c-1.9,7.6-3.7,15.3-4.1,23.3c-1,17.5-2.5,35-3.7,52.5C1376.9,967,1376.6,966.9,1376.2,966.9z M1375.5,888.7
			c-0.1,0.6-0.2,1.3,0.6,1.5c0.2,0,0.6-0.6,0.8-1c0.2-0.4,0.1-0.9,0.1-1.4c2.3-6.5,3.9-13.1,6.8-19.4c5.7-12.3,12.1-24.1,20.5-34.8
			c7.8-9.9,16.8-18.6,27.3-25.7c5.9-4,12.4-7.1,19.1-9.9c-5.2-2.5-10.1-4.9-15.1-7.3c-1.6-0.8-3.2-1.4-4.7-2.4
			c-15.1-9.7-27.5-22.1-37.2-37.1c-6.6-10.2-12-21-15.2-32.7c-0.5-1.8-1-3.8-2.5-5.4c-11.7,39.7-34.2,69.6-73.8,84.7
			c0.7,0.6,1,1.1,1.4,1.2c9.5,3.1,17.6,8.7,25.3,14.9c11.4,9.1,20.4,20.4,28.2,32.7C1365.5,859.7,1370.5,874.2,1375.5,888.7z"/>
		<path class="st2" d="M1243.5,796.6c-0.3,0.5-0.6,1.1-0.9,1.6c-1.7,0.4-3.3,0.2-5.6-0.8C1239.6,796.4,1241.5,796.2,1243.5,796.6z"
			/>
		<path class="st2" d="M1511.6,798l-0.2-0.2c0,0,0.2-0.2,0.2-0.2c0.2-0.7,0.7-0.9,1.4-0.9c0.6,0,1.2,0,1.8,0.8
			C1513.9,798.7,1512.7,798.1,1511.6,798z"/>
		<path class="st1" d="M1377.1,632.4l-0.4,0.1c0,0-0.4-0.1-0.4-0.1c-0.3-1.6,0-3.1,0.4-4.8C1377.1,629.2,1377.4,630.8,1377.1,632.4z
			"/>
		<path class="st2" d="M1376.2,966.9c0.4,0.1,0.8,0.1,1.1,0.2c0.3,1.4,0.2,2.8-0.6,4.5C1375.9,969.8,1375.9,968.4,1376.2,966.9z"/>
		<path class="st2" d="M1379.8,671.6c-0.2-0.1-0.4-0.2-0.6-0.3c0.2-0.1,0.4-0.2,0.6-0.3C1380,671.1,1380,671.4,1379.8,671.6z"/>
		<path class="st0" d="M946.4,449.2c11.2-0.2,21.2,2.7,30.9,6.8c11.1,4.7,20.6,11.9,29.2,20.4c1.8,1.8,3.4,3.7,5,5.7
			c2.7,3.2,2.1,7.4-1.3,10.1c-2.6,2-7.8,1.5-9.9-1.1c-7.1-8.7-15.5-15.6-25.8-20.4c-3.5-1.6-6.9-4-10.6-4.7c-6-1.2-11.8-3-18.1-2.7
			c-12.8,0.6-24,5.2-34.3,12.5c-7,5-13.2,10.9-18.9,17.2c-2.3,2.6-5.1,3.6-8.5,3.1c-2.4-0.3-4.3-2.2-4.6-4.5
			c-0.5-3.2,0.5-5.9,2.4-8.4c3.3-4.5,7.4-8.2,11.8-11.6c5.8-4.5,11.7-9,18.1-12.7c7.7-4.5,16-7.3,24.7-8.7
			C940,449.6,943.4,448.7,946.4,449.2z"/>
		<path class="st0" d="M796.5,590.6c-0.9-10.1,8.5-20.6,19.5-19.9c12.7,0.8,19.6,7.3,20.1,19.7c0.5,10.9-7.6,19-19.9,20.1
			C806.6,611.4,795.1,600.4,796.5,590.6z"/>
		<path class="st5" d="M1375.5,888.7c-5-14.5-10-29-18.4-42.1c-7.9-12.2-16.8-23.5-28.2-32.7c-7.7-6.1-15.8-11.8-25.3-14.9
			c-0.4-0.1-0.7-0.6-1.4-1.2c39.7-15.1,62.1-45,73.8-84.7c1.5,1.6,2,3.5,2.5,5.4c3.3,11.8,8.6,22.6,15.2,32.7
			c9.7,15,22.2,27.4,37.2,37.1c1.5,0.9,3.1,1.6,4.7,2.4c5,2.4,9.9,4.8,15.1,7.3c-6.7,2.8-13.2,5.9-19.1,9.9
			c-10.5,7.1-19.5,15.8-27.3,25.7c-8.4,10.7-14.8,22.5-20.5,34.8c-2.9,6.3-4.5,13-6.8,19.4C1376.5,888.1,1376,888.4,1375.5,888.7z"
			/>
		<path class="st4" d="M1375.5,888.7c0.5-0.3,1-0.6,1.5-0.9c0,0.5,0.1,1-0.1,1.4c-0.1,0.4-0.6,1-0.8,1
			C1375.4,890,1375.4,889.3,1375.5,888.7z"/>
	</g>
</g>
</svg>
