<svg id="Layer_1" data-name="Layer 1" xmlns="http://www.w3.org/2000/svg" xmlns:xlink="http://www.w3.org/1999/xlink" viewBox="0 0 641.82 233.89"><defs><style>.cls-1,.cls-10,.cls-11,.cls-12,.cls-13,.cls-14,.cls-15,.cls-16,.cls-17,.cls-18,.cls-19,.cls-2,.cls-20,.cls-21,.cls-3,.cls-4,.cls-5,.cls-6,.cls-7,.cls-8,.cls-9{stroke:#000;}.cls-1,.cls-11,.cls-12,.cls-13,.cls-14,.cls-15,.cls-18,.cls-6,.cls-7{stroke-linejoin:round;}.cls-1,.cls-10,.cls-11,.cls-15,.cls-16,.cls-18,.cls-19,.cls-2,.cls-20,.cls-4,.cls-5,.cls-6,.cls-7,.cls-8{stroke-width:3.82px;}.cls-1{fill:url(#linear-gradient);}.cls-2,.cls-21{fill:#fff;}.cls-3{fill:#000d82;stroke-width:1.91px;}.cls-15,.cls-4{fill:#c04d00;fill-opacity:1;}.cls-11,.cls-12,.cls-13,.cls-14,.cls-5{fill:none;}.cls-6{stroke-linecap:round;fill:url(#linear-gradient-2);}.cls-7{fill:#e30c0c;}.cls-8,.cls-9{fill:#803300;}.cls-9{stroke-width:3.96px;}.cls-10,.cls-16,.cls-17{fill:#9d3f00;}.cls-12{stroke-width:4.1px;}.cls-13{stroke-width:3.51px;}.cls-14{stroke-width:4.27px;}.cls-16,.cls-17{fill-opacity:1;}.cls-17{stroke-width:3.89px;}.cls-18,.cls-20{fill:#ffe01f;}.cls-19{fill:#eb0000;}.cls-21{stroke-width:3.06px;}.cls-22{fill-opacity:0.99;}</style><linearGradient id="linear-gradient" x1="584.07" y1="491.88" x2="584.07" y2="281.4" gradientTransform="matrix(0.84, 0, 0, -0.84, 17.4, 843.33)" gradientUnits="userSpaceOnUse"><stop offset="0" stop-color="#4abfff"/><stop offset="1" stop-color="#0000cb"/></linearGradient><linearGradient id="linear-gradient-2" x1="579.11" y1="489.59" x2="579.11" y2="277.03" xlink:href="#linear-gradient"/></defs><title>One Piece Logo Vector</title><g id="g2273"><g id="g2275"><g id="g2732"><path id="rect2178" class="cls-1" d="M627.66,398.15a5,5,0,0,0-5.06,5.05v.39a5,5,0,0,0,5.06,5.05H813a5,5,0,0,0,5.06-5.05v-.39a5,5,0,0,0-5.06-5.05Zm-416.3.18a5,5,0,0,0-5.06,5.05v0a5,5,0,0,0,5.06,5H448.87a5,5,0,0,0,5.05-5v0a5,5,0,0,0-5.05-5.05Zm-3.25,184.52c-2.8,0-5.06,1.91-5.06,4.29s2.26,4.29,5.06,4.29H813.06c2.8,0,5.06-1.92,5.06-4.29s-2.26-4.29-5.06-4.29Z" transform="translate(-179.09 -383.53)"/><path id="path3892" class="cls-2" d="M356.63,399.36c-6.75.35-13.43,7-6.08,18l-27.49,26.78,10.18,12.32,27.31-28c18,10.24,24.93-18,5.38-17.47C367.17,402.66,361.87,399.1,356.63,399.36Zm-155,1.79c-4.85.26-9.31,3.89-8.15,11.62-19.55-.49-12.63,27.71,5.35,17.48l27.32,28L236.33,446l-27.5-26.78C216.59,407.56,208.71,400.76,201.63,401.15Zm23.79,140.64-27.29,28c-18-10.23-24.92,18-5.37,17.5-2.85,19,28.45,13.15,15.37-6.44l27.47-26.77Zm107.82,1.42-10.18,12.33,27.49,26.77c-13.07,19.58,18.23,25.44,15.38,6.41,19.55.49,12.6-27.73-5.38-17.5Z" transform="translate(-179.09 -383.53)"/><path id="path3219" class="cls-3" d="M515.45,389.47H523c0,1.13,0,2.49,0,3.55.2,16.12-8.66,25.91-29.28,25.48v-7.32c13.07-.28,21.66-4.07,21.71-18.16C515.48,391.9,515.5,390.72,515.45,389.47Z" transform="translate(-179.09 -383.53)"/><path id="path3221" class="cls-3" d="M524.92,385.68v26.39a7.1,7.1,0,0,0,6.68,6.69h21.81v-7H534.65c-1.25,0-1.61-.77-1.54-2.73V398.94H554v-8.11h-2.89a2.81,2.81,0,0,1-5,0h-13v-5.15Z" transform="translate(-179.09 -383.53)"/><path id="rect3232" class="cls-3" d="M554.38,395.62v8.58h29.88v-8.58Z" transform="translate(-179.09 -383.53)"/><path id="path3223" class="cls-3" d="M548.64,384.49a5,5,0,1,0,5,5.05A5,5,0,0,0,548.64,384.49Zm0,2.16a2.89,2.89,0,1,1-2.84,2.89A2.88,2.88,0,0,1,548.64,386.65Z" transform="translate(-179.09 -383.53)"/><path id="path2240" class="cls-3" d="M461.56,385.44v14.89h7.57v-7.07h13.5c.06,17.13-11,18.17-19.68,18.17V419c5.72,0,27.51.54,27.38-25.75,0-2.64,0-5.18,0-7.82Z" transform="translate(-179.09 -383.53)"/><path id="path3217" class="cls-3" d="M492.23,385.44v7.32h17.66v-7.32Z" transform="translate(-179.09 -383.53)"/><path id="path3237" class="cls-3" d="M586.77,387.78H609.7v7.14a19.18,19.18,0,0,1-2.14,9c2.05,3.83,4.52,6.38,7.05,7.59v7.67c-3.77-1.51-7.58-3.08-10.62-9.46-5.38,7.08-12.18,9.53-19.45,9v-7.32c1.26,0,1.15,0,2.83,0,4,0,15.08-8.32,14.39-16.51h-15Z" transform="translate(-179.09 -383.53)"/><path id="path3567" class="cls-4" d="M382.55,582.06c3.55-2.7,45.58-24.59,74.21,0,19.65,16.87,35.09,9.85,35.09,9.85l21.7-.51c-14.21,9-31.11,21.68-65.37-3.53-12.55-9.24-29.29-12.52-46.44-5.81Z" transform="translate(-179.09 -383.53)"/><path id="path3569" class="cls-5" d="M397.7,575.5" transform="translate(-179.09 -383.53)"/><path id="path3571" class="cls-5" d="M398,575.25c-.32.24.18-.92-.25,1.26" transform="translate(-179.09 -383.53)"/><path id="path3573" class="cls-5" d="M397.7,582.06l.5-6.31" transform="translate(-179.09 -383.53)"/><path id="path3575" class="cls-5" d="M406.53,572l.76,9.08" transform="translate(-179.09 -383.53)"/><path id="path3577" class="cls-5" d="M416.38,579.29l.5-8.33" transform="translate(-179.09 -383.53)"/><path id="path3579" class="cls-5" d="M425.21,570.7l-.76,8.08" transform="translate(-179.09 -383.53)"/><path id="path3581" class="cls-5" d="M431.77,580.55" transform="translate(-179.09 -383.53)"/><path id="path3583" class="cls-5" d="M437.33,571.71l-5.3,8.08" transform="translate(-179.09 -383.53)"/><path id="path3585" class="cls-5" d="M439.35,582.06l7.06-5.8" transform="translate(-179.09 -383.53)"/><path id="path3587" class="cls-5" d="M454.49,580.8l-7.57,5.05" transform="translate(-179.09 -383.53)"/><path id="path3589" class="cls-5" d="M457,593.42l8.08-6.31" transform="translate(-179.09 -383.53)"/><path id="path3591" class="cls-5" d="M480.24,592.66" transform="translate(-179.09 -383.53)"/><path id="path3593" class="cls-5" d="M473.42,600l6.06-6.81" transform="translate(-179.09 -383.53)"/><path id="path3595" class="cls-5" d="M486.29,592.66V603" transform="translate(-179.09 -383.53)"/><path id="path3597" class="cls-5" d="M496.64,599.73" transform="translate(-179.09 -383.53)"/><path id="path3599" class="cls-5" d="M496.14,591.4l-.51,8.08" transform="translate(-179.09 -383.53)"/><path id="path3430" class="cls-6" d="M793.51,418.34l4.56,5.3c-76.19,17.77-81.26,125.86-.52,147.42L794,577.35,814,571.82l-13.88-13.38-.77,6.81c-35.58-15.4-43.16-53.81-43.16-65.62h18.44v9.84c0,4,6.3,4.15,6.3,0v-9.34h5.8c1.83,10.13,14.51,14.43,20.77,7.16,2.1-2.44,3.48-6.18,3.48-11.45,0-5.72-1.58-9.75-3.93-12.3-6.37-6.88-18.39-2.86-20,8h-6.07v-8.83c0-4.71-6.3-4.21-6.3,0v8.58H756.15c3.53-29.83,21-48,44.69-61.09v7.07l12.35-13.64ZM279.1,420.62a80.27,80.27,0,1,0,80.28,80.27A80.31,80.31,0,0,0,279.1,420.62Zm81.2,4.11c2.36,2.59,5.11,4.81,5.35,10.7,1.79,42.85,3.59,85-3.2,129.94-.56,3.67-3.88,7-6.8,7.49h31.07c-2.48-13.21-1.55-26.41.72-39.62a210.42,210.42,0,0,0,12.12,39.62h20c-5.53-60.74-1.63-142,2.15-148.13H394.93c2.3,17.93-.25,24-1.44,33.18-2.73-9.13-5.06-15.47-5.35-33.18Zm63.19,0c7.09,5.5,7.13,33.2,7.13,71.38,0,37,2.08,72.33-10.72,76.75h64.27V546c-10.71,14.57-37.32,8.34-37.32-9.57,0-18.52.18-36.78.18-36.78,14-3.5,21.91,6.94,24.63,12.15l-.36-31.76c-5.8,11.21-18.9,13.76-24.63,13.54,0,0,.23-29.28.36-35.33.51-23.37,34.79-23.55,37.5-4.29V424.73Zm79.6,0c1.58.69,2.93,5.27,3.48,10.37,1.42,13.42,1.51,36.22,1.51,63.51,0,26.22-1.71,50.68-3.49,64.26-.78,6-3.11,8-5.07,10h33.21c-8.13-2.27-7.22-36.2-7-41.22,12.24,0,33.75-5.35,33.75-21.45,0-19.3.32-34.46.32-56.21,0-16.56-8.34-29.25-24.76-29.25Zm110.21,0c7.08,5.5,7.13,33.2,7.13,71.38,0,37,2.09,72.33-10.7,76.75H674V546c-10.71,14.57-37.32,8.34-37.32-9.57V499.67c13.09,0,22.11,8,24.83,13.22V480.06c-5.81,11.21-13.2,13.54-24.83,13.54V458.27c0-23.38,35-23.55,37.68-4.29V424.73Zm94,.36c-14.73.21-29.44,9.67-29.44,30.11v82.29c0,53.29,59.08,40.06,59.08,5.8V512H711.47c3.31,6.07,3.55,18.9,3.55,24.22,0,11-16.17,13.67-16.17-2.28V462.27c-.25-16.78,15.92-13.79,15.92-7.59s2.38,21-2.78,25.26h25V450.39C736.85,433.88,722.08,424.87,707.34,425.09ZM525.77,440.3c3.72,0,16.6,1.88,16.6,11.88v47.45c0,16.85-12.83,15.64-16.6,15.64Zm272.3,49.24c2.63,0,4.76,2.72,4.76,6s-2.13,6-4.76,6-4.79-2.7-4.79-6S795.43,489.54,798.07,489.54Z" transform="translate(-179.09 -383.53)"/><path id="path3256" class="cls-7" d="M589.28,423.29a12.65,12.65,0,0,0-11.65,8.18l-13.43,3.59,12.55,3.07a13.14,13.14,0,0,0,7.61,10.6v3.41a27.06,27.06,0,0,0-22.12,26.48A26.78,26.78,0,0,0,572,499.26l-5.41,7.24,4.65.45-4.47,7.14h8.6l-5.6,19.68,8.06,0,1.76,29.68c-14.72-.33-25.81,21.27,9.8,2.31,14.29,14.38,27.36,8,8.94-1.79l1.87-30.29,7,0-4-19.5h7.57l-4.47-7.16,4.47-.43L606,500.14a26.83,26.83,0,0,0-11.26-48v-3.71a13.19,13.19,0,0,0,7-10l13.48-3.88L601,431.62A12.65,12.65,0,0,0,589.28,423.29Zm9.53,47a14.92,14.92,0,0,1,0,23.48Zm-19.26.59v22.3a14.91,14.91,0,0,1,0-22.3Z" transform="translate(-179.09 -383.53)"/><path id="path3901" class="cls-2" d="M298.25,559.35,306.58,572c-20.45,27.15-40.63,22.49-59.06-.76l8.32-14.39Z" transform="translate(-179.09 -383.53)"/><path id="path3903" class="cls-2" d="M303.3,567.59a49.93,49.93,0,0,1-53-2.36" transform="translate(-179.09 -383.53)"/><path id="path3905" class="cls-2" d="M272.76,563.13l-2.53,10.35" transform="translate(-179.09 -383.53)"/><path id="path3907" class="cls-2" d="M285.26,573.54l-2.15-9.71" transform="translate(-179.09 -383.53)"/><path id="path3535" class="cls-4" d="M267.46,562.88C253.36,573,239,584,222.27,602.76l1,11.86-3-4.54-1.77,2.27L217,606l-4.29,1v-5.3l-6.81-.5,1-2.53h-4.29l13.12-2.27a252.73,252.73,0,0,1,38.87-37.1Z" transform="translate(-179.09 -383.53)"/><path id="path3538" class="cls-8" d="M235.65,576.26l2.53,9.34" transform="translate(-179.09 -383.53)"/><path id="path3540" class="cls-9" d="M246.82,566.48l2.65,10.22" transform="translate(-179.09 -383.53)"/><path id="path3542" class="cls-8" d="M260.64,567.17l-2.52-6.81" transform="translate(-179.09 -383.53)"/><path id="path3544" class="cls-8" d="M228.84,594.94l-3.54-8.33" transform="translate(-179.09 -383.53)"/><path id="path3546" class="cls-8" d="M222.53,603c-1.26-1.26-6.57-6.81-6.57-6.81" transform="translate(-179.09 -383.53)"/><path id="path3548" class="cls-4" d="M287.4,561.87c50.48,55.28,72.39,45.08,95.41,31l-18.43-.76c-27.58,10.1-51.45-21.09-64.87-32.81Z" transform="translate(-179.09 -383.53)"/><path id="path3550" class="cls-10" d="M294,568.68c10.35-4.54,10.85-4.54,10.85-4.54" transform="translate(-179.09 -383.53)"/><path id="path3552" class="cls-10" d="M314.15,573.48l-11.1,4.29" transform="translate(-179.09 -383.53)"/><path id="path3554" class="cls-10" d="M323,581.05l-9.34,6.06" transform="translate(-179.09 -383.53)"/><path id="path3556" class="cls-10" d="M332.83,588.88l-7.83,5.3" transform="translate(-179.09 -383.53)"/><path id="path3558" class="cls-10" d="M343.94,593.17l-7.07,7.32" transform="translate(-179.09 -383.53)"/><path id="path3560" class="cls-10" d="M354.5,594.46,350,603.74" transform="translate(-179.09 -383.53)"/><path id="path3562" class="cls-10" d="M364.89,600.74l-.76-7.82" transform="translate(-179.09 -383.53)"/><path id="path3601" class="cls-4" d="M513.81,582.06c3.39-3.16,29.55-26.31,55.78,4,7.88,9.12,20.89,8.7,28.52,5.55h19.94c-18.53,11-34.81,21.18-62.34-3.53-15.48-13.89-22.67-5.4-22.67-5.4Z" transform="translate(-179.09 -383.53)"/><path id="path3625" class="cls-4" d="M616.28,582.21s4.1-.62,23.65,0c4.5-2.75,10.36-4,24.57,6.16,11.81,8.45,30.36,27.47,55,27.14,16.12-.22,37.59-9.91,53.65-26,6.94-7,22.49-33.58,24.23-50.8l-7.66-9.65c-2.29,31.55-38.57,82.17-76.48,75.21C696,601.11,666.48,576.41,656.16,573l-18.42-.26C630.11,573,622.11,578.9,616.28,582.21Z" transform="translate(-179.09 -383.53)"/><path id="path3603" class="cls-10" d="M530.47,583.07" transform="translate(-179.09 -383.53)"/><path id="path3605" class="cls-10" d="M530,573.23l.51,8.83" transform="translate(-179.09 -383.53)"/><path id="path3607" class="cls-10" d="M538.54,580.3,540.06,570" transform="translate(-179.09 -383.53)"/><path id="path3609" class="cls-10" d="M554.44,574" transform="translate(-179.09 -383.53)"/><path id="path3611" class="cls-10" d="M546.87,582.32l7.07-8.08" transform="translate(-179.09 -383.53)"/><path id="path3613" class="cls-10" d="M556,588.37l9.59-6.81" transform="translate(-179.09 -383.53)"/><path id="path3615" class="cls-10" d="M575.14,589.38l-7.82,6.31" transform="translate(-179.09 -383.53)"/><path id="path3617" class="cls-10" d="M580.44,602.51l5.81-9.34" transform="translate(-179.09 -383.53)"/><path id="path3619" class="cls-10" d="M594.83,592.66l.25,10.61" transform="translate(-179.09 -383.53)"/><path id="path3621" class="cls-10" d="M605.18,598.47" transform="translate(-179.09 -383.53)"/><path id="path3623" class="cls-10" d="M604.42,591.4l.51,6.56" transform="translate(-179.09 -383.53)"/><path id="path3629" class="cls-11" d="M634.46,573.73c.3-.07.25,3.59.25,4.55v4" transform="translate(-179.09 -383.53)"/><path id="path3631" class="cls-11" d="M644.37,572.22l-2.52,8.33" transform="translate(-179.09 -383.53)"/><path id="path3635" class="cls-12" d="M656.29,573.87l-5.65,6.86" transform="translate(-179.09 -383.53)"/><path id="path3637" class="cls-11" d="M667.27,579.29l-7.57,5.3" transform="translate(-179.09 -383.53)"/><path id="path3639" class="cls-11" d="M676.11,584.59l-7.32,6.56" transform="translate(-179.09 -383.53)"/><path id="path3641" class="cls-11" d="M686,591.65l-8.58,5.81" transform="translate(-179.09 -383.53)"/><path id="path3645" class="cls-13" d="M688.07,604.93l7.71-7.08" transform="translate(-179.09 -383.53)"/><path id="path3647" class="cls-11" d="M706.65,601.75l-6.82,9.59" transform="translate(-179.09 -383.53)"/><path id="path3649" class="cls-11" d="M717.5,605.28" transform="translate(-179.09 -383.53)"/><path id="path3651" class="cls-11" d="M712,614.12l6.31-9.09" transform="translate(-179.09 -383.53)"/><path id="path3653" class="cls-11" d="M729.62,603.77" transform="translate(-179.09 -383.53)"/><path id="path3655" class="cls-11" d="M726.34,614.37" transform="translate(-179.09 -383.53)"/><path id="path3657" class="cls-11" d="M730.12,603l-3.28,11.36" transform="translate(-179.09 -383.53)"/><path id="path3659" class="cls-11" d="M743.75,598.72,743,609.58" transform="translate(-179.09 -383.53)"/><path id="path3661" class="cls-11" d="M758.64,599.73" transform="translate(-179.09 -383.53)"/><path id="path3663" class="cls-11" d="M755.36,590.64l3.43,10" transform="translate(-179.09 -383.53)"/><path id="path3665" class="cls-14" d="M766.17,581.52l4.94,8.81" transform="translate(-179.09 -383.53)"/><path id="path3667" class="cls-11" d="M780.35,578.53l-5.8-9.09" transform="translate(-179.09 -383.53)"/><path id="path3669" class="cls-11" d="M787.42,564.65l-6.06-7.07" transform="translate(-179.09 -383.53)"/><path id="path3673" class="cls-11" d="M787.16,546.22l6.73,4.75" transform="translate(-179.09 -383.53)"/><path id="path3853" class="cls-15" d="M796.87,506.27c6.06,9.05,9.12,13.24,22.13,25.17a23.56,23.56,0,0,1-6-2c-1.74-.87-3.25-3.14-4.68-4.21a31.65,31.65,0,0,1,3.93,10.53c-2.74-2.56-5-4.65-8.21-7.67,2.28,5.4,1.55,7.05,2.14,10.35-7-6.63-13.32-13.49-17.49-21.06Z" transform="translate(-179.09 -383.53)"/><path id="path3855" class="cls-16" d="M805.94,517.19l-14.4,1" transform="translate(-179.09 -383.53)"/><path id="path3861" class="cls-16" d="M812,524.55l-13.72,4.5" transform="translate(-179.09 -383.53)"/><path id="path3865" class="cls-4" d="M795.32,489.51c3.77-1.85,9,5.53,5.18,10-4.28,5-10.22,20.79-.9,35.87,3.06,4.94-4,9.64-10.17,1.79C779.74,524.88,784.86,494.66,795.32,489.51Z" transform="translate(-179.09 -383.53)"/><path id="path3867" class="cls-16" d="M790.5,494l7.68,8.21" transform="translate(-179.09 -383.53)"/><path id="path3869" class="cls-16" d="M794.61,512.54l-8-4.82" transform="translate(-179.09 -383.53)"/><path id="path3871" class="cls-17" d="M795.11,525.17l-9.75-2.25" transform="translate(-179.09 -383.53)"/><path id="path3873" class="cls-16" d="M798,533.42l-10.53-.54" transform="translate(-179.09 -383.53)"/><path id="path3485" class="cls-18" d="M278.32,445.53c-26.76,0-48.95,19-53,43.91h106.1C327.26,464.56,305.07,445.53,278.32,445.53Z" transform="translate(-179.09 -383.53)"/><path id="path3510" class="cls-19" d="M229.09,477.06c32.69-5.53,67.68-5.5,98.73,1.34,1.79,2.73,2.34,6.09,3.24,9.26l-105-.5C226.39,483.79,226.78,480.43,229.09,477.06Z" transform="translate(-179.09 -383.53)"/><path id="path3502" class="cls-20" d="M191.86,497c74,15.39,138.52,12.24,171-1.51C312.81,472.85,225.32,476.58,191.86,497Z" transform="translate(-179.09 -383.53)"/><path id="path3514" class="cls-21" d="M260.14,550l-6.31,9.08c15.73,4.89,32.21,5.49,47.95.26L296.23,549Z" transform="translate(-179.09 -383.53)"/><path id="path3516" class="cls-21" d="M273.77,563.13l.5-11.36" transform="translate(-179.09 -383.53)"/><path id="path3518" class="cls-21" d="M282.35,563.13l.25-10.85" transform="translate(-179.09 -383.53)"/><path id="path3520" class="cls-21" d="M291.18,552.78l2.27,9.34" transform="translate(-179.09 -383.53)"/><path id="path3522" class="cls-21" d="M262.66,561.62l3.28-10.86" transform="translate(-179.09 -383.53)"/><path id="path3483" class="cls-2" d="M224.8,499.27c2.58-8,14.28-10.68,53.51-11s52.51,1.85,54,9.78c2.15,11.32-7.89,56.79-54,56.79C231.93,554.8,221.54,509.41,224.8,499.27Z" transform="translate(-179.09 -383.53)"/><path id="path3504" class="cls-22" d="M271.24,517.45a16.91,16.91,0,1,1-16.91-16.92A16.91,16.91,0,0,1,271.24,517.45Z" transform="translate(-179.09 -383.53)"/><path id="path3506" class="cls-22" d="M319.2,517.45a16.91,16.91,0,1,1-16.91-16.92A16.91,16.91,0,0,1,319.2,517.45Z" transform="translate(-179.09 -383.53)"/><path id="path3508" class="cls-22" d="M285.12,538.65a6.82,6.82,0,1,1-6.81-6.82,6.81,6.81,0,0,1,6.81,6.82Z" transform="translate(-179.09 -383.53)"/></g></g></g></svg>