<?xml version="1.0" encoding="utf-8"?>
<!-- Generator: Adobe Illustrator 27.3.1, SVG Export Plug-In . SVG Version: 6.00 Build 0)  -->
<svg version="1.1" id="Layer_1" xmlns="http://www.w3.org/2000/svg" xmlns:xlink="http://www.w3.org/1999/xlink" x="0px" y="0px"
	 viewBox="0 0 1920 1080" style="enable-background:new 0 0 1920 1080;" xml:space="preserve">
<style type="text/css">
	.st0{fill:#FFFFFF;}
	.st1{fill:#C3EEEF;}
	.st2{fill:#010101;}
	.st3{fill:#404040;}
	.st4{fill:#634A9D;}
	.st5{fill:#572720;}
</style>
<g>
	<g>
		<path class="st0" d="M469.8,880.9c-1.6-10.9-0.8-21.8,0.3-32.7c1.1-10.6,1.7-21.3,3.1-31.8c1.6-11.9,3.1-23.9,4.7-35.8
			c1.8-13.6,4.2-27.1,7.2-40.5c4.2-18.2,9-36.2,15.7-53.7c7.8-20.1,19.2-38,33-54.3c15-17.7,31.7-34,49.7-48.7
			c19.3-15.7,40.1-29.5,62.6-40.2c1.5-0.7,3.7-0.9,3.9-3.3c0,0-0.1,0.1-0.1,0.1c1.5,0,2.8,0.1,4.3-0.6c13.4-6.2,27.4-11,41.5-15.4
			c18.4-5.7,37.4-8.1,56.3-11.3c6.8-0.3,12.4,3.5,18.5,5.2c0.7,0.2,1,0.6,1.3,1.2c1.2,2.5,1.2,2.4,3.4,1c1.1-0.7,2.1,0.2,3.2,0.6
			c6.1,2.4,12.3,4.6,18.4,7.1c8.1,3.3,16.6,5.1,25,7.5c-0.9,2.6-1.7,4.8-2.5,7c-1.1,2.8-3.3,5.3-2,8.7c-0.1,1-0.2,1.9-0.4,2.9
			c-1.9,3.3-1.8,6.6-0.1,10c0.2,1,0.3,1.9,0.5,2.9c-0.1,1.1-1.3,2.3,0.4,3.1c0.2,0.6,0.4,1.2,0.6,1.9c-0.1,1.9,0.5,3.6,1.5,5.1
			c1,2,1.9,4,2.9,6c8,17.1,21.8,26.3,40,29.3c1.9,1.7,4.1,0.5,6.1,0.5c3,0,5.9,0,8.9,0c1.7,0,3.5,1,5.1-0.5c0.6-0.1,1.3-0.3,1.9-0.4
			c0.8,0.2,1.6,0.5,2.1-0.6c0.6-0.1,1.3-0.3,1.9-0.4c3.4-0.4,6.6-1.4,9.2-3.8c20.8-9,32.5-36.4,29-55.3c0.5-0.9,0.5-1.7-0.8-1.8
			c-0.2-1.3-0.5-2.5-0.7-3.8c19.2-1,38.2,0.1,57.3-0.4c1.4,0,3.1,1.1,4-0.9c1.5,0.2,3.5-1.6,4.3,1.1c-2.6,0.9-0.6,2.7-0.7,4.1
			c-0.6,3.6-0.5,7.1,0,10.7c-0.1,1.7-1.5,3.6,0.4,5.1c2.4,14.2,8.8,25.9,21,34c0,0.7,0.3,1.1,1.1,0.8c0.3,0.1,0.5,0.2,0.8,0.3
			c3.3,2.8,7.3,4.1,11.1,6c2.3,2.3,5.4,1.7,8.1,2.5c7.7,2.1,16,2.7,23.5,0.9c11.2-2.6,21.3-8.2,29-17.5c8.2-9.8,13.2-20.9,14.3-33.5
			c0.9-10.1-0.2-20-5.9-29.1c1.8-0.2,3.2,0,4.4-0.4c13-4.4,26.6-6.5,39.3-11.8c2.2-0.9,6.3-0.1,6.6-0.5c2.9-4,7.6-4.2,11.5-5.8
			c7.9-3.2,15.5-7.3,24.2-8c8-0.5,15.9-1.7,23.7-3.7c32.1-8.6,61-23.5,85.8-45.8c11.9-10.7,17.4-24.4,17.5-40.1
			c0.1-7.4-3-14.1-8.3-19.4c-3-3.1-6-6.3-9.3-9c-6.5-5.4-9.3-12.8-10-20.7c-1-10.4,0-20.9,1.2-31.3c1.9-17,0.4-33.6-6.5-49.4
			c-2.4-5.5-6.1-10.2-10.9-13.9c-4.5-3.5-6.5-8.6-8.6-13.5c-1.8-4.4,1.3-8.4,6.2-8.9c14.6-1.4,23.5,7.6,31.3,17.8
			c8.2,10.7,12.7,23.1,14.1,36.6c0.5,4.6,4.8,9,9.8,9.6c4.8,0.7,7.4-1.2,9.3-6.8c2.3-7,2.9-14.3,4-21.5c1.8-12.5,3.4-25,4.9-37.4
			c1.4-11.9,2.9-23.8,4.2-35.7c1.2-10.7,2.4-21.5,4.2-32.1c1.3-7.8,9.2-12,17.2-9.9c7.8,2,11.2,8.1,9,16.2
			c-1.2,4.5-0.9,9.1-1.5,13.7c-1.9,14.1-2.7,28.4-4.2,42.5c-1.1,10.9-2.8,21.7-3.9,32.6c-0.2,2-1.3,4.7,1.8,6.3
			c1.8-17.4,3.4-34.6,5.3-51.8c1.8-16.4,3.7-32.8,5.1-49.2c0.5-5.7,1.8-11.2,3-16.8c0.8-4,5.6-7.8,9.9-7.8c5.3,0,10.5-0.8,14,5.6
			c3.6,6.7,0.8,12.9,0.6,19.3c-0.1,7.6-1.7,15.2-2.6,22.8c-0.9,7.1-1.9,14.2-2.8,21.4c-0.8,5.8-1.6,11.6-2.2,17.5
			c-1.1,10.3-2.1,20.5-3.2,30.8c-0.1,0.8-0.2,1.7,1,2.4c2-3,1.4-6.6,1.8-9.7c2.1-15.2,3.4-30.5,5.3-45.7c1.8-14.7,2.5-29.6,5.4-44
			c2.4-12.1,5.5-15.5,17.5-12.3c4.4,1.2,6.2,4.7,6,9.3c-0.3,7.1,0,14.2-1,21.3c-1.2,8.2-2,16.5-2.9,24.8c-0.8,7.5-1.4,15-2.2,22.5
			c-0.8,7.8-2.3,15.6-2.6,23.4c-0.3,6.1-2.6,12.2-0.7,19.4c2.5-4,1.6-7.9,2.1-11.3c1.9-13.5,2.9-27.2,4.3-40.8
			c1.3-12.9,2.6-25.9,4-38.8c0.6-5.7,5.8-9.5,11.6-8.8c6.5,0.8,11.2,5.8,10,11.7c-0.9,4.2-0.5,8.2-0.8,12.3
			c-0.7,12.7-0.9,25.4-2.1,38.1c-1.1,10.6-1.6,21.3-2.9,31.9c-2,15.9-4.2,31.7-7.1,47.4c-4.5,24.3-13.3,47.3-22.3,70.1
			c-6.2,15.7-15.8,29.5-26.2,42.6c-25.2,31.8-57.2,55.6-91.6,76.4c-18,10.9-37.5,18.4-57,26.2c-14.8,5.9-30.1,10.7-45.8,13.6
			c-13.5,2.4-27,5-40.7,6.6c-3.7,0.4-7.8,0-11.3,1.9c-5.8,0.2-5.5,0.2-4.3-5.3c1.2-5.6,4-10.7,4.2-16.6c2.5-5.3,2.8-11.1,4.2-16.7
			c0.2-0.8,0.4-2.3-1.1-2.2c-1.4,0.1-1.7,1.5-1.9,2.5c-1.4,5.4-2.6,10.9-3.9,16.3c-2,7-3.8,14-6.2,20.9
			c-7.4,20.9-15.1,41.5-29.8,58.8c-14,16.4-30.4,29.5-50.1,38.2c-19.6,8.7-39.7,15.5-61.2,18.5c-15,2.1-30,2.5-44.9,2.2
			c-13.1-0.3-26.3-2-39.3-4.5c-13.9-2.7-27.2-6.6-39.2-14.3c-15-9.6-28.9-20.4-41.2-33.3c-10.7-11.3-19.8-23.5-26.2-37.8
			c-7.4-16.5-12.8-33.7-18.9-50.7c0.2-2.3-0.5-4.2-1.9-6c-0.1-0.3-0.1-0.7-0.2-1c-0.4-2,0.6-5.7-2.8-4.9c-2.8,0.6,1.1,3.2,0.1,5
			c-0.6,1.1,0.3,1.1,1,1.4l0.1,0.1c-1.1,2.7,0.7,4.5,1.8,6.5c0.7,6.5,4.8,12.2,4.9,19c-1,0-2,0-3,0c-7.1,1.3-14.1,3.1-21.2,3.7
			c-16.6,1.6-32.7,5.6-48.6,10.2c-19.4,5.6-38.3,12.7-55.8,23.1c-17.4,10.5-31.8,23.9-41.1,42c-6.7,13-6.3,29.4,6.3,39.8
			c1.9,1.6,3.4,3.7,5.4,5.2c10.4,7.7,12.9,18.8,12.6,30.7c-0.3,13.8-0.9,27.5-1.7,41.3c-0.8,14.7,4.1,27.5,12.6,39
			c2.8,3.8,6.4,7.2,9.9,10.5c3.5,3.3,5.4,7.1,3.8,11.7c-1.7,5-5.7,6.9-11.9,6.5c-6.1-0.4-11.5-3-15.9-6.7
			c-10.2-8.5-17.2-19.5-20.5-32.4c-1.5-5.8-2.5-11.7-4.3-17.5c-1.8-5.6-5.9-5.4-10.3-5.4c-4.5,0-7.6,1.8-9.1,5.9
			c-2.4,6.6-3.1,13.7-3.9,20.6c-1.5,13.2-1.9,26.5-3.9,39.7c-1.6,10.7-1.8,21.6-3.3,32.4c-1.6,12.3-1.3,24.9-5,36.9
			c-2.9,9.6-15.1,11.9-22.1,4.8c-4.7-4.7-5.2-10.2-4.6-16c1.1-11,2.1-21.9,3-32.9c1.2-15.4,3.2-30.7,4.7-46.1
			c0.5-4.8-0.1-9.6,1.4-15.4c-2.6,1.8-3.2,3.3-3.2,4.6c0.2,9.2-1.4,18.4-2.1,27.5c-0.8,9.3-1.2,18.6-2.7,27.9
			c-0.7,4.2-0.8,8.5-1.1,12.7c-0.9,13.8-2.3,27.4-4.4,41.1c-0.4,2.7-1.6,5.3-2.9,7.8c-2.2,4.3-8.4,6-15.1,4.5
			c-4.6-1-7.6-4.7-7.7-9.8c-0.2-10.4,1.5-20.7,2.7-31c0.9-7.9,1.5-15.8,2.2-23.7c1.2-13.8,2.1-27.6,4-41.3c0.9-6.9,1-13.9,1.5-21.2
			c-1.9,0.9-2.3,2.2-2.4,3.7c-0.7,8.4-0.9,16.8-2,25.1c-1.2,8.4-1.7,16.9-2.6,25.3c-0.9,8-1.7,16-2.3,24c-1,11.7-1.7,23.5-4.1,35.1
			c-1.1,5.5-6,6.1-10.3,6.8c-4.3,0.7-8.3,0.4-10.3-4.6c-1.1-2.9-1.7-5.7-1.7-8.7c-0.1-17.7,2.3-35.3,4.2-52.9
			c0.8-7.2,1.3-14.5,2.1-21.7c1.1-9.5,1.5-19.1,2.2-28.7c0.1-1.3,0.6-2.9-1.4-4.6c-0.6,5.4-1.2,10.2-1.6,15.1
			c-0.8,9.6-1.6,19.2-2.8,28.8c-0.5,4.4-0.8,8.8-1.2,13.2c-0.9,12.2-2.6,24.4-4.1,36.5c-0.4,3.5-3.2,5.6-6.4,6.2
			c-4.7,1-8.9-0.1-11.7-4.5C471.1,882,470.9,881.2,469.8,880.9z M967.9,620.2c-7-1.5-14.1-2.7-20.9,0.9c-0.7-0.2-1.1,0.1-1.1,0.8
			c-7.6,5.4-10.8,12.7-9.4,21.9c-0.1,1.1-1.2,2.3,0.4,3.1c2.7,11.3,10.5,16.5,22.5,15.9c10.5-0.5,17.6-6.9,20.3-16.1
			c3.1-10.3-1.1-19.9-9.8-24.8C970,620.6,969.3,620.1,967.9,620.2z M775.3,524.5c-0.1-0.6-0.2-1.3-1-1.2c-0.4,0-0.9,0.4-1,0.7
			c-0.2,0.7,0.3,1.1,1,1.3C775,525.4,775.1,525,775.3,524.5z"/>
		<path class="st0" d="M999.9,806c10.6,19.7,26.5,35,42.8,49.7c14.2,12.8,30.6,20.9,50.5,20.5c8.6-0.2,16.6-1.3,24.1-5.5
			c3.1-1.8,5.1-4.6,7.8-6.8c10.8-8.8,23.7-10.7,37.1-10.9c20-0.2,40-0.2,59.9-1c16-0.7,31.8-3,45.8-11.8c4.8-3,8.5-7.4,13.6-9.9
			c8.2-4,17,0.8,16.4,9.2c-0.4,5-1.9,9.6-5.3,13.6c-7.2,8.4-15.8,14.6-26.1,18.4c-13.9,5.1-28.2,8.5-43.1,8.4
			c-5.3,0-10.5,4.3-11.4,9.1c-0.8,4,2.8,9.3,7.7,10.9c2.2,0.7,4.6,1.2,6.8,1.1c11.5-0.5,22.9,0.5,34.3,1.2
			c35.7,2.1,71.4,1.3,107.1,2.6c5.2,0.2,9.9,1.9,14.6,3.7c3.8,1.5,6.1,7,5.4,11.9c-0.7,5.1-4.7,8.8-10.4,9.6c-2.6,0.3-5.3,0.3-8,0.3
			c-9.5-0.1-19-0.3-28.5-0.3c-17.8,0-35.5-0.8-53.3-1.4c-12.1-0.4-24.1-0.1-36.2,0.1c6.7,0.5,13.5,1.2,20.2,1.3
			c18.8,0.5,37.6,0.2,56.3,1.3c15.8,0.9,31.6-0.1,47.3,1.1c5.3,0.4,10.8,0.9,16,2c6.5,1.4,10.1,9.4,8.3,16.3
			c-2.2,8.2-4.8,10.1-13.5,10.2c-12.1,0.2-24.2-0.8-36.3-1.3c-13.7-0.5-27.4-1.3-41.1-1.9c-13.7-0.6-27.4-1.6-41.1-2
			c-5.4-0.2-10.8-1-16.3-0.6c0.1,1.3,0.9,1.9,2,1.9c5.4,0.4,10.8,1,16.3,1c11.8-0.1,23.5,0.9,35.3,1.3c12.4,0.4,24.7,1.3,37.1,1.9
			c12.4,0.6,24.7,1,37.1,2c4.5,0.3,9.3,1.1,10.2,7.3c0.5,3.7-1.7,12.2-4.5,14.2c-1.7,1.3-3.8,1.2-5.7,1.2
			c-13.8-0.3-27.6-0.1-41.3-1.2c-13-1-26-1.4-39.1-2c-12-0.6-24-1.7-36.1-1.9c-3.7-0.1-7.4-1.4-11.2-0.7c0,1.4,0.8,2,1.8,1.9
			c6-0.5,11.9,1,17.8,1.1c17.8,0.1,35.6,2.6,53.4,2.8c11.1,0.2,22.1,1.3,33.1,2.2c0.8,0.1,1.6,0.3,2.3,0.8c3,1.9,4.5,8.1,3,12.8
			c-1.2,3.6-4.2,4.3-7.6,4.3c-12.7,0-25.3,0.5-38-0.1c-15-0.7-30-1.5-45.1-2c-13.1-0.4-26.4-1.2-39.4-3c-23.7-3.3-47.5-6-70.7-12
			c-25-6.4-48.5-16.6-71.3-28.8c-31.1-16.6-59.3-37.3-85.8-60.3c-25-21.7-46.1-47.1-64.4-74.7c-3.7-5.5-6.3-11.6-9.6-17.3
			c2.4,0.6,4.8,0.3,7.3,0.8c17,3.8,34,4.2,51,0.1C992.8,807.8,996.1,805.9,999.9,806z"/>
		<path class="st0" d="M850,212c-4.7-0.2-8.1-3.3-12.2-4.9c-15.7-6.3-31.3-8.3-47.2-0.3c-2,1-3.6,2.4-5,4
			c-8.9,10.5-20.8,13.5-34,14.5c-9.7,0.7-19.3-0.1-28.9,0c-20.6,0.3-41.3,0.4-61.4,5c-11.9,2.7-21.9,10.3-32,17.2
			c-2.2,1.5-4.1,3.4-6.9,3.8c-8.6,1.2-13.9-6.7-10.8-16.2c2.5-7.7,7.8-13.1,14.1-17.7c14.2-10.3,30.4-14.9,47.5-17.2
			c4.5-0.6,9.1-0.2,13.5-1.8c4.2-1.6,6.9-3.9,6.6-9.1c-0.3-4.5-1.8-6.8-6.5-8.4c-8.6-2.8-17.3-1.9-26-2.7
			c-8.1-0.7-16.4,0.5-24.4-0.3c-11.8-1.2-23.6,0.2-35.3-1c-10.3-1.1-20.6,0.3-30.8-0.9c-12.2-1.4-24.5,0.3-36.6-2
			c-6.4-1.2-11.9-4.2-15.1-9.9c-3.4-6.2,1.4-14.8,9.9-14.8c8.1,0,16.2,0.9,24.3,1c11,0.2,22-0.5,33,0.4c12.8,1,25.5,0.4,38.3,0.4
			c10.1,0,20.1,0,30.2,0c0-0.5,0-1,0-1.5c-10.1,0-20.1,0-30.2,0c-21.1-0.5-42.3-1.2-63.4-1.3c-13.1,0-26.3-0.6-39.3-1.5
			c-11.6-0.8-18.5-8.9-14-22c1.9-5.6,7-6,11.8-6.2c8.9-0.4,17.8,0.5,26.6,1.7c3.9,0.5,7.9,0.6,11.8,0.9c9.9,0.8,19.9,0.5,29.7,1.3
			c15.2,1.2,30.5,0.5,45.6,2.1c5.5,0.6,10.9,0.6,16.3,0.8c1.5,0,3.4,0.8,4.3-1.3c0.2-0.9-0.6-0.8-0.9-0.8c-10,0.7-19.9-0.8-29.8-1.3
			c-15.3-0.8-30.7-0.6-45.9-2.6c-7.5-1-15.2-0.5-22.8-0.9c-8.1-0.5-16.1-1.6-24.3-1.4c-6.4,0.2-14.9-6.4-14-13.7
			c0.6-4.6,4.5-9.8,10.6-11c7.2-1.4,14.5-2.1,21.9,0.5c4.6,1.6,9.8,0.5,14.8,1.2c9.9,1.4,20.1,1.1,30,2.4
			c12.1,1.5,24.3,0.5,36.4,2.5c8.4,1.4,17.2,0.3,25.9-0.5c-4.2-0.4-8.3-1.3-12.5-1.2c-13.4,0.1-26.7-1.9-40.1-2.3
			c-9.7-0.3-19.4-1-29.1-1.9c-7.7-0.7-15.4-1.5-23.1-2c-3.6-0.2-7.7-4.7-7.9-8.2c-0.3-6.1,1.6-9.3,6.8-10.2
			c9.4-1.7,18.9-0.6,28.4-0.7c14.8-0.2,29.4,2,44.1,2.6c11,0.4,22.2,1.8,33.2,3.4c9.4,1.3,18.9,2.1,28.4,3.3
			c29.1,3.5,58,8.2,85.7,18.4c29.2,10.7,57.2,24.1,82.9,41.7c9.5,6.5,18.9,13.2,28.3,19.8c0.2,2-1.1,3.3-2,4.8
			C869.2,181.3,859.6,196.6,850,212z"/>
		<path class="st1" d="M1145.9,302.8c12.9,2.2,25.9,4.4,38.8,6.4c4.1,0.6,6.1,2.1,7.5,6.6c4.3,14.6,8.7,29.2,11.1,44.2
			c0.9,5.5,2.1,11,2.5,16.5c0.7,10.5,2.4,21,2.3,31.6c-10.3,6.5-22,8.7-33.5,11.6c-8.6,2.2-8.7,2.1-11.5-6.3c-0.2-0.5-0.1-1-0.2-1.5
			c-0.2-1-1.1-1.5-1.8-1.4c-1.3,0.3-0.8,1.6-0.9,2.5c-0.6,1.1,0.6,1.2,1,1.6c0,0.5,0,0.9-0.1,1.4c-0.5,0.7-0.2,1,0.6,1
			c0.1,1.3,0,2.7,0.3,4c4.3,21.5,0.2,40.5-15.8,56.3c-7.5,7.4-16,12.8-26.3,15.9c-8,2.4-16.2,2.7-24.2,4.7
			c-15.1,3.8-29.9-0.4-44.5-3.4c-11.9-2.4-22.8-8.2-33.4-13.9c-17.7-9.5-32.2-22.6-38.9-42.5c-0.7-2.2-1.6-4.7-4.3-4.9
			c-3.1-0.3-6.1-1.2-9.3-1.3c-6.6-0.1-13.2,0.7-19.8-0.5c-4.3-0.7-11.7,4.4-13.5,8.4c-2.3,5.1-4.5,10.3-7.4,15
			c-4.8,7.7-12.1,13.1-19.4,18.3c-8.1,5.8-15.8,12.6-25.6,15.6c-3.8,1.2-7.9,1.4-11.5,3.6c-6.2,3.6-12.8,5.8-20.1,4.9
			c-1.2-0.4-2-0.1-2,1.3c-15,1.2-30,0.5-44.7-1.9c-14.8-2.4-27.7-9.9-38.3-20.9c-6-6.3-10.4-13.4-12.5-21.9c-2-8-2-16.2-3.3-24.3
			c-0.8-5.1,1.9-9.7,2-14.6c1-0.4,1.2-1.1,0.8-2.1c0.4-1.2,2.8-1,1.9-2.9c1.7-3.6,3.5-7.2,5.7-10.7c4.7-7.5,11.5-13.1,17.8-19
			c4-2.8,7.8-6.2,12.1-8.3c14.9-7.2,30.8-9.4,47.2-8.7c5.6,0.2,11.1,1.4,16.7,1.6c9.2,0.3,18.2,2.2,27.1,4.4
			c9.9,2.5,18.9,7.1,27.5,12.6c10.7,6.9,20.1,15.1,26.6,26.1c2.3,3.9,4.3,4.5,8.3,2.9c10-3.8,20.5-4.7,30.2-0.5
			c5,2.2,6.6,0.1,8.5-2.8c2.7-4.2,5.2-8.5,8.9-11.7c21.7-18.8,46.5-29.6,75.4-31.2c14.6-0.8,29.1-1.2,43.3,2.2
			c11.8,2.8,24.1,5.3,32.6,15.5c0.7,0.9,1.8,2.8,3.1,1.7c1.8-1.6-0.5-2.7-1.4-3.4c-7-5.2-10.3-12-10.9-20.6
			c-0.2-2.6-0.7-5.5-1.2-8.2c-3.1-15.2-7.4-30-14.4-43.9c-1.8-3.7-1.2-5.2,3.3-5.2C1127.6,302.8,1136.7,302.1,1145.9,302.8z
			 M1002.7,434.8c-0.5,2.4-1.1,5.3,0.9,7c4.6,4.1,7.1,9.9,11.7,14c12.6,10.8,26.6,18.8,42.8,23.1c17,4.5,34.2,4.8,51.2,0.9
			c15.8-3.6,27.6-12.5,32.3-29c2.5-8.8,3.5-17.8,1.1-26.7c-1.9-7.1-4-14.2-8.9-20c-11-13.1-26.5-16-42.1-18.1
			c-9-1.2-18.1-0.7-27.3-0.2c-19.4,1-36.8,6.7-52.1,19c-6,4.9-9.7,10.5-10.3,18.1C1000.4,427,999.6,431,1002.7,434.8z M774.8,411.9
			c-2.9,0.3-2.9,3-3.5,4.7c-6.7,19.8-4.1,37.7,11.1,53c4,4,8.4,7.8,13.7,9.2c21.7,5.7,43.5,6.1,65-1.4c14.2-5,26-13.8,36.8-23.9
			c4.9-4.6,9.3-10.2,11.6-16.1c3.8-9.7,2.1-19.7-5.2-27.9c-9.2-10.3-20.6-16.7-34.1-19.5c-3.9-0.8-7.6-3.5-11.4-3.6
			c-5.8-0.1-11.6-0.5-17.3-1c-10.4-0.9-20.8,0-31.2,1.1c-7.4,0.8-13.2,5.4-19.9,8c-6.5,2.5-10.3,8-14.5,13.2c-0.8,1.1-1,2-0.8,3.2
			C775,411.3,774.9,411.6,774.8,411.9z M1159.7,409.2c2.3-0.8,1.6-2.4,1.1-3.7c-3.1-7.6-8.3-13.8-14-19.6c-0.9-1-2-3-3.6-1.6
			c-1.7,1.5,0.4,2.6,1.3,3.5c5.4,5.9,10.9,11.7,13.8,19.3C1158.6,407.9,1159.2,408.5,1159.7,409.2z M1159.6,410.8
			c0.1-0.1,0.2-0.2,0.3-0.3c-0.2-0.1-0.4-0.2-0.6-0.3c-0.1,0-0.2,0.2-0.3,0.3C1159.3,410.6,1159.5,410.7,1159.6,410.8z"/>
		<path class="st2" d="M749.2,415.1c-0.1,4.9-2.9,9.5-2,14.6c1.3,8.1,1.3,16.3,3.3,24.3c2.1,8.5,6.5,15.6,12.5,21.9
			c10.6,11,23.6,18.5,38.3,20.9c14.7,2.4,29.7,3,44.7,1.9c1.3,0.6,2.1,0.3,2-1.3c7.3,0.9,14-1.3,20.1-4.9c3.6-2.1,7.7-2.4,11.5-3.6
			c9.9-3,17.5-9.8,25.6-15.6c7.3-5.2,14.6-10.6,19.4-18.3c2.9-4.7,5.1-9.9,7.4-15c1.8-4,9.2-9.1,13.5-8.4c6.6,1.1,13.2,0.4,19.8,0.5
			c3.2,0,6.2,1,9.3,1.3c2.7,0.3,3.6,2.8,4.3,4.9c6.8,19.9,21.2,32.9,38.9,42.5c10.6,5.7,21.5,11.5,33.4,13.9
			c14.6,2.9,29.4,7.2,44.5,3.4c8-2,16.2-2.3,24.2-4.7c10.3-3.1,18.7-8.5,26.3-15.9c16-15.8,20.1-34.8,15.8-56.3
			c-0.3-1.3-0.2-2.6-0.3-4c0.1-0.2,0.3-0.4,0.4-0.6c-0.3-0.1-0.7-0.3-1-0.4c0-0.5,0-0.9,0.1-1.4c0.3-1-0.2-1.4-1-1.6
			c0.1-0.9-0.5-2.2,0.9-2.5c0.7-0.1,1.6,0.4,1.8,1.4c0.1,0.5,0.1,1,0.2,1.5c2.8,8.4,2.8,8.5,11.5,6.3c11.5-2.9,23.2-5.2,33.5-11.6
			c9.8-4.8,18.1-11.6,26.1-18.8c6-5.4,11.9-11.1,17-17.6c3-3.9,6.9-3.2,9,1.2c1.8,3.8,3,7.9,3.3,12c2,23.3,0.8,46-14.8,65.4
			c-3.4,4.3-7.2,8.2-10.9,12.3c-1.2,1.3-2.9,2.3-2.8,4.5c-1.6-0.5-2.4,0.8-3.4,1.6c-14.7,12.9-31.1,22.9-48.7,31.3
			c-2.6,0-3,1.8-3,3.8c-8.7,0.7-16.3,4.7-24.2,8c-3.9,1.6-8.5,1.8-11.5,5.8c-0.3,0.4-4.4-0.5-6.6,0.5c-12.7,5.4-26.3,7.4-39.3,11.8
			c-1.2,0.4-2.6,0.3-4.4,0.4c5.7,9.1,6.8,19,5.9,29.1c-1.1,12.6-6.1,23.7-14.3,33.5c-7.7,9.2-17.8,14.9-29,17.5
			c-7.5,1.8-15.8,1.3-23.5-0.9c-2.7-0.8-5.9-0.2-8.1-2.5c-2.6-4.1-6.8-5-11.1-6c-0.3-0.1-0.5-0.2-0.8-0.3c-0.4-0.3-0.7-0.5-1.1-0.8
			c-12.2-8.2-18.6-19.9-21-34c1.5-1.9,1.8-3.6-0.4-5.1c-0.4-3.6-0.6-7.1,0-10.7c1.9-1.1,1.9-2.5,0.7-4.1c-0.8-2.7-2.8-0.9-4.3-1.1
			c-1.7-1.4-3.1-1.5-4,0.9c-19.1,0.5-38.2-0.6-57.3,0.4c0.2,1.2,0.5,2.5,0.7,3.8c0.3,0.6,0.5,1.2,0.8,1.8c3.5,18.9-8.2,46.3-29,55.3
			c-3.2,0.9-6.9,0.8-9.2,3.8c-0.6,0.1-1.3,0.3-1.9,0.4c-1.2-1.7-1.7-0.7-2.1,0.6c-0.6,0.1-1.3,0.3-1.9,0.4c-1.9-1.5-3.7-2.3-5.1,0.5
			c-3,0-5.9,0-8.9,0c-1.8-3-4-1.7-6.1-0.5c-18.3-3.1-32.1-12.2-40-29.3c-0.9-2-1.9-4-2.9-6c1.1-2.2,0.4-3.8-1.5-5.1
			c-0.2-0.6-0.4-1.2-0.6-1.9c1.6-1.3,1.4-2.3-0.4-3.1c-0.2-1-0.3-1.9-0.5-2.9c1.5-3.3,1.5-6.6,0.1-10c0.1-1,0.2-1.9,0.4-2.9
			c2.3-2.5,2.3-5.6,2-8.7c0.8-2.2,1.5-4.3,2.5-7c-8.3-2.4-16.9-4.3-25-7.5c-6.1-2.5-12.3-4.6-18.4-7.1c-1.1-0.4-2.1-1.3-3.2-0.6
			c-2.2,1.3-2.2,1.4-3.4-1c-0.3-0.6-0.6-1-1.3-1.2c-6.2-1.7-11.8-5.5-18.5-5.2c0-0.9-0.3-1.5-1.2-1.8c-5.8-4.8-13-7.3-19.5-10.8
			c-16.2-8.9-31.7-18.6-45.9-30.5c-1.4-1.2-2.6-2-4.3-0.6c0.1-2.3-0.8-3.8-2.6-5.5c-14.5-13.9-26.6-29.4-29.1-50.2
			c-2-16.8-0.4-33.5,6.5-49.2c1.8-4,3.3-4.1,6.6-0.8c14.1,14,29.6,26.1,46.8,36.1c1.5,0.9,2.8,1.8,4.6,1.6c7.2,6.9,17,8.9,25.6,13.1
			c2.3,1.1,4.7,1.2,7.2,0.8C747.6,415,748.4,415,749.2,415.1z M828.2,501.1c-13,0.3-29-0.4-43.9-7.3c-16.9-7.9-30.6-19-35.7-38
			c-2.6-9.7-4.1-19.7-3.2-29.6c0.6-6.2-1.6-8.1-7-10.2c-28.4-10.7-53.3-27.2-75.1-48.4c-4-3.9-5.2-3.6-7,1.7
			c-2.8,8.5-4.2,17.2-4.8,26.2c-1.3,19.3,3.4,36.3,15.5,51.5c13.3,16.8,30,29.2,47.7,40.6c24,15.5,50.5,25.7,77.2,35.4
			c13.9,5,27.9,9.3,42.4,12.3c5,1,9.9,0.7,14.8,1.3c10.7,1.2,21.4,2.9,32.2,3.6c5.9,0.3,12.2-0.4,17.6,0.7c6.4,1.3,12.8,1.7,19,1.9
			c30,1.1,60,0.5,89.9-1.8c8.1-0.6,16.1-1.8,24.1-3c20.3-3.1,40.7-5,60.7-9.7c16.7-3.9,33.3-8.1,49.4-13.7
			c17.1-6,33.8-13.2,49.7-21.9c16.7-9.1,32.4-19.5,45.6-33.5c11.8-12.6,20.8-26.3,22.9-44.2c1.6-13.1,1.9-25.8-1.7-38.5
			c-0.5-1.7-0.8-3.9-2.9-4.3c-2-0.4-2.6,1.7-3.7,2.9c-15.5,17-32.3,32.3-54.2,40.8c-8.5,3.4-17.5,5.5-26.5,7
			c-4.2,0.7-5.7,2.3-5.4,6.8c0.4,5.7,0.1,11.5-0.8,17.3c-4.1,24.6-19.4,39.7-41.7,47.9c-19.3,7.1-39.8,8.4-60,4.7
			c-20.4-3.7-40-10.6-56.9-23.1c-3.9-2.8-7.1-3.3-11.8-2.2c-26.6,6.7-53.4,9.3-80.2,0.5c-3.4-1.1-5.8-0.7-8.6,1.5
			C883.9,493.2,859.3,502.4,828.2,501.1z M998.7,470.9c-10.8-9.4-18-20-22.4-32.5c-0.7-2.1-2.6-2.9-4.7-3.3
			c-10.3-1.7-20.5-1.6-30.8,0.7c-3.5,0.8-5.5,2.6-6.4,6.1c-2.1,8.3-7,15-12.9,21c-2.8,2.8-5.4,5.7-8.4,8.8
			C941.6,481.9,969.5,477.9,998.7,470.9z"/>
		<path class="st1" d="M1141.1,562c1.9,1.7,3.9,0.5,6,0.3c13-1,25.8-3.5,38.6-5.7c2.5-0.4,3.4,0.8,4.3,2.3
			c14.8,22.2,29.6,44.4,36.9,70.4c1.4,4.9,3.1,9.6,4.6,14.5c0.8,2.7,1,5-2.2,6.7c-23.1,12.5-45.5,26.4-69.8,36.7
			c-14.4,6.1-29.4,9.8-44.9,11.7c-3.4,0.4-6.8,1.1-10.9,0.8c5.4-2.4,10.2-4.6,15.1-6.8c2.2-1,3.3-2.4,3.2-5
			c-1-22.8-4.8-45-14.1-66.1c-0.2-0.4-0.7-0.6-1-0.9c0-1.7-0.7-3.3,0.7-5.2c10.5-14.4,17.5-30.5,23.2-47.1c1.1-3.2,2.3-5.4,6.1-4.8
			C1138.7,564.2,1140.3,563.8,1141.1,562z"/>
		<path class="st1" d="M823.4,777.6c-12.6,2-24.7,3.1-36.8,4.4c-21.2,2.2-41.6-1.9-62.1-6.1c-2.2-0.5-2.2-1.8-2.6-4
			c-2.7-14.8-3.8-29.7-4-44.7c-0.2-16-0.9-32.1,3.3-47.8c1.8-6.8,5.3-13,7.7-19.6c1.6-4.4,3.9-4.5,7.5-2.5
			c9,5.1,18.1,10.1,28.2,12.9c9.6,2.7,19.1,6.1,28.9,7.9c2.4,0.5,5.4,0.8,4.5,4.8c-0.4,1.7,0.8,3,2.4,3.3c3.8,0.9,4,3.5,4.1,6.8
			c0.2,16.7,0.9,33.4,5.7,49.5c3.1,10.5,6.5,20.9,11.4,30.7C822.1,774.5,822.6,775.7,823.4,777.6z"/>
		<path class="st1" d="M1139.1,782.2c-8.7-0.7-17.5-0.2-26.3-1.3c-11.8-1.5-23.6-3.3-35.4-5.3c-3-0.5-0.9-2.2-0.4-3.2
			c3-6.2,6.4-12.3,9-18.6c5.4-13.4,8.8-27.5,12.3-41.5c2.3-9.4,2.3-9.9,13.7-11c27.1-2.6,51.8-12.1,75.4-25.2c5.3-3,5.5-2.9,6.5,3
			c2.7,16.4,5.5,32.9,4,49.6c-1.1,13-2.8,26-5.7,38.8c-0.8,3.4,0.4,8-2.6,10c-2.6,1.7-6.7,1.1-10.1,1.5c-6.2,0.7-12.4,1.5-18.6,2.2
			C1153.6,781.5,1146.3,781.9,1139.1,782.2z"/>
		<path class="st1" d="M780,558c1,0,2,0,3,0c3.4,2.7,3.4,7.1,5.1,10.7c5.8,12.6,9.5,26.1,17.6,37.6c1.4,2,4.1,3.6,3.6,6.8
			c-3.3,3.9-3,8.9-4,13.4c-2.5,11.4-4.6,22.9-6.1,34.5c-0.5,4.2-1.1,8.5-1.2,12.8c0,2.8-1,3.5-3.6,2.9
			c-29.9-6.7-57.3-18.8-82.2-36.7c-1.7-1.2-2.5-2.3-1.9-4.4c6.9-24.2,17.4-46.5,32.7-66.6c1.8-2.4,3.7-3.8,6.9-4.2
			c8.5-1,17-2.3,25.4-3.9C776.8,560.6,780.2,561.7,780,558z"/>
		<path class="st1" d="M746.9,414.9c-2.5,0.4-4.8,0.3-7.2-0.8c-8.6-4.2-18.4-6.2-25.6-13.1c1-7.6-0.7-15.1-0.9-22.7
			c-0.6-23.3,1.4-46.3,6-69.1c0.8-4,3-5,6.9-5.2c14.7-0.8,29.3-1.8,44-2.1c9.5,0.7,19,1.4,28.5,2.1c3.5,0.3,5.2,1.1,3.5,5.4
			c-5.8,15.3-10.4,31-14.2,46.9c-1.8,7.4-2.4,15.7-10.7,19.9c-1.2,0.6-2.9,0.9-3.5,2.5c-11.5,7.8-20,18.1-24.8,31.3
			c-1,0.4-0.8,1.2-0.8,2C747.5,412.8,746.9,413.7,746.9,414.9z"/>
		<path class="st1" d="M1065.9,706.8c10.9,1,21.2-1.4,31.9-5c0.6,6-1.7,11.2-3.1,16.3c-4.8,18-9.5,36.2-19.2,52.4
			c-3,5.1-6.2,10.1-9.1,15.3c-1.7,3.2-3.8,3.4-6.9,2.2c-7.6-3-15.1-6-21.5-11.1c2.6-6.4,6.9-11.7,10.2-17.6
			c8.5-15.6,14.3-31.8,12.9-50c-0.1-1.3,0.5-3.4-2.2-2.4l0,0.2c2.1,0.5,2.5,0,2.4-2.5c-0.4-13.4-3.7-26.2-6.2-39.2
			c-0.8-4.2-0.1-6.7,4.4-9c16.1-8,29.9-19.2,41.5-32.9c1.3-1.5,2.5-3.1,4.9-2.7c2.5,7.7,5.1,15.4,7.6,23.1
			c2.5,7.6,3.2,15.6,4.6,23.5c1.1,5.9-0.2,11.8,1.7,17.6c1,3,0,5.2-3.3,6.6c-12.4,5.4-24.8,10.8-38.3,12.8
			c-4.1,0.6-8.3,0.4-12.4,0.6c-1.5,0-3,0-4.4,0C1062.9,707.3,1064.4,706.9,1065.9,706.8z"/>
		<path class="st1" d="M900.3,792c-8.6,5.5-16.6,12.1-26.8,15c-7.3,2.1-14.7,3.4-22.1,4.9c-2.8,0.6-4.4-1-5.8-2.8
			c-14.4-19.2-25.8-40.1-32.4-63.2c-3.4-11.8-6.3-23.8-6.3-36.3c0-5.7-0.3-11.4-0.6-17.1c-0.1-2.9,0.2-3.5,3.5-2.3
			c14.6,5.2,29.3,10.7,45.2,10.5c5.8,0.1,6.1,3.7,6,8.4c-0.1,6.1,0,12.3,1.1,18.2c4.1,21.9,13.5,41.1,29.5,56.8
			C894.5,786.9,898.6,788.2,900.3,792z"/>
		<path class="st1" d="M1226.7,616.8c-2,0-2.3-1.2-2.8-2.5c-7.7-20.1-19.7-37.7-31.5-55.4c-1.7-2.5-1.7-3.2,1.2-3.8
			c31.1-6,59.8-18.7,88.2-32.1c2.6-1.2,3.8-0.1,5,1.3c6.3,7.2,11.4,15.4,16.5,23.5c1.5,2.5-0.2,4-1.7,5.6
			c-21,24.4-45.5,44.7-72.6,62C1228.2,615.9,1227.3,616.4,1226.7,616.8z"/>
		<path class="st1" d="M681.3,469c1.7-1.4,2.9-0.6,4.3,0.6c14.1,11.9,29.7,21.6,45.9,30.5c6.5,3.6,13.7,6,19.5,10.8
			c-4.8,0.7-9.7,1.3-14.5,2.1c-22.8,3.6-45.1,9.2-66.6,17.7c-6.8,2.7-14,4.5-19.8,9.2c0,0,0.1-0.1,0.1-0.1
			c-8.6,1.4-15.4,6.9-22.9,10.5c-2.1,1-4.2,2.3-6.3,3.4c-3-5.8-6-11.4-9.8-16.4c-1.7-2.3-2-3.6,0.3-6.1
			c19.8-21.7,42.7-40.1,65.5-58.4C678.4,471.8,680.3,470.9,681.3,469z"/>
		<path class="st1" d="M1095.2,168.7c1-19.3,4.3-38,13.1-55.5c4.1-8.2,10.4-14.3,19.3-17.1c10.7-3.3,26.5,1.5,30.6,14.6
			c5.4,17.5-3,30.4-12.5,43c-6.3,8.3-14.4,15.1-22.4,21.8c-5,4.2-10.4,7.8-16.8,9.6c-4.8,1.4-9.1-1-10.5-6
			C1094.9,175.7,1095.5,172.2,1095.2,168.7z"/>
		<path class="st1" d="M509.5,573.1c-10.4-0.7-18.9-3.7-24.4-12.6c-9.1-14.6-3.1-33.7,12.7-39.4c8.5-3.1,17.6-3.1,26.5-1.9
			c16.5,2.3,32.4,6.8,47.2,14.8c1.8,0.9,3.6,1.9,5.2,3c4.4,3.3,4.7,7.6,0.6,11.3c-8.1,7.3-17.9,11.2-27.9,14.9
			C536.2,568.1,522.8,571.6,509.5,573.1z"/>
		<path class="st1" d="M1355.6,681.9c12.9-0.3,25.7,0.4,38.1,4.3c12.7,4,18.7,12.4,16.5,27.4c-0.4,2.9-1,5.7-1.8,8.5
			c-4.1,14.2-19.9,18.5-34.7,14.1c-23.1-6.9-41.8-20.8-57.4-38.9c-3.6-4.1-0.7-10.4,5.4-12c8.9-2.5,18.1-3.1,27.4-3.3
			C1351.2,681.8,1353.4,681.9,1355.6,681.9z"/>
		<path class="st1" d="M551.9,399.7c-11.3,1-22.9-1.1-34.1-4.1c-14.4-3.9-23.2-14.6-18.2-32.6c3.6-12.9,12.7-20.8,23.5-19.8
			c8.7,0.8,17.1,3.1,25,6.7c15,6.9,27.9,16.7,39.8,28.1c1.9,1.8,3.7,3.9,5.1,6.1c2.6,4,1.4,8.4-2.8,10.3c-5.9,2.7-12,4-18.5,4.5
			C565.2,399.5,558.8,399.9,551.9,399.7z"/>
		<path class="st1" d="M932.2,90.5c-0.8-9.6,0.3-17.4,6.2-24.5c11.4-13.7,35.7-10.5,42.6,6c3.9,9.3,3.6,18.8,2.3,28.6
			c-1.3,10.5-4,20.5-7.2,30.5c-2.3,7.2-6.1,13.6-10.2,19.8c-5.1,7.7-11.5,5.7-15.6-0.8C938.7,131.5,931.2,111.8,932.2,90.5z"/>
		<path class="st1" d="M1400.6,510c3.3,0.2,6.8-0.2,9.9,0.6c11.4,3,15.8,8.5,16.3,21.5c0.2,4.9,0.3,9.8-1.8,14.6
			c-3.2,7.6-8.5,12.3-16.5,14.4c-18,4.6-35-0.5-51.8-5.8c-7.6-2.4-15.3-4.7-22.3-9.1c-7.1-4.5-7.7-8.9-0.7-13.4
			c16.7-10.8,34.6-18.8,54.5-21.7C1392.4,510.4,1396.5,510.2,1400.6,510z"/>
		<path class="st1" d="M958.2,1014.9c-14.5,1.7-24.7-11.6-24.9-24c-0.4-17.8,3.7-34.4,10.8-50.6c2.7-6.1,5-12.3,9-17.6
			c5.6-7.4,9.8-7.4,14.5,0.7c7.9,13.7,13.5,28.2,16.4,43.9c1.5,8,2.3,16,1.2,24.2C983.1,1007.9,974.8,1015.2,958.2,1014.9z"/>
		<path class="st1" d="M929,807c-1,1.5,0.4,2.2,0.9,3.3c11.6,23.4,28.2,43.2,45.2,62.6c3,3.5,3.4,5.5-0.6,8.1
			c-5.4,3.6-10.6,7.5-15.9,11.3c-2.8,2.1-4.9,2.2-7.9-0.4c-21.1-17.5-38.6-38.1-53.5-61c-4.8-7.3-7.5-15.9-10-24.4
			c-0.6-2.2,0.2-3.5,2.3-4.8c4.1-2.5,8.3-4.9,11.6-8.5c1.6-0.8,2.8,0.1,4.1,1C912.6,799.3,920.8,803.2,929,807z"/>
		<path class="st1" d="M758,949.5c-0.5-11.1,5.8-20,13.1-28.2c10.2-11.5,21.9-21.4,34.9-29.7c1.3-0.8,2.6-1.5,4-2.1
			c7.6-3.2,10.3-1.2,11.2,7.1c2.1,18.8-2.7,36.5-8.5,53.9c-2.3,6.9-5.5,13.8-11.1,19.1c-16.3,15.5-36.7,6-42.8-10.3
			C757.6,956.2,758.5,953.2,758,949.5z"/>
		<path class="st1" d="M589.2,209.1c11.1-0.4,17.6,7.3,24.4,14.3c1.6,1.7,0,3.1-0.8,4.5c-2.2,4.1-4.1,8.3-4.1,13.2
			c0,5.2,2.3,9.4,6.5,11.4c3.8,1.8,8.6,1.7,12.2-1.4c3.6-3.2,5-1.5,6.9,1.8c4.2,7.3,6.2,15.4,9.3,23.1c2.5,6.1-2.8,10.7-9.4,9.7
			c-9.1-1.4-18.1-3.5-26.7-6.8c-16.2-6-30.6-14.8-41-28.9c-6-8.1-6.2-17.4-2.2-26.2C568.4,214.8,579,209.2,589.2,209.1z"/>
		<path class="st1" d="M687,813.7c0.9,3.6-0.7,7.5-2.4,10.8c-8.6,16.6-15.6,34.3-30.3,46.9c-6,5.1-12.2,9.7-20.8,9.4
			c-13-0.4-22.7-10-24.6-22.8c-1.4-9.8,1.8-17.1,8.7-23.5c4.5-4.2,9.1-8.3,14.3-11.7c3.1-2.1,6.1-2.6,9.3-0.8
			c4.6,2.6,9.6,2.2,14.5,1.9c6.2-0.4,10.9-6.7,8.9-12.9c-1.3-4.2,0.5-5.4,3.6-5.7c4.1-0.4,8-1.6,12.2-1.4c5.7,0.3,6.4,0.8,6.5,6.7
			C687,811.5,687,812.3,687,813.7z"/>
		<path class="st1" d="M1273.7,796c7.4-0.1,14,3,20.9,5.1c17.1,5.2,32.9,12.6,45.6,25.8c8.3,8.7,10.3,23.4,3.8,32.2
			c-9,12.2-19.3,16.4-34.4,9.4c-5.4-2.5-9.5-6.6-13.5-10.9c-1.9-2-1.8-3.4-0.2-5.5c3-4,4.2-8.7,4-13.5c-0.4-9.3-9.6-14.9-18.2-10.4
			c-4.3,2.2-6.4,1.1-8.1-2.4c-3-6.3-6.3-12.6-8.4-19.3C1263,799.2,1265.9,796.2,1273.7,796z"/>
		<path class="st1" d="M1307.9,220.1c1.7,9.4-4.9,15.9-11.6,22.3c-1.7,1.6-3.6,2.9-5.4,4.4c-5.2,4.4-10.3,6.6-16.6,1.4
			c-2.3-1.9-5.7-2.6-8.8-3.1c-4.4-0.7-8.8-0.2-11.7,3.9c-3,4.3-3,8.9,0,13c2.8,3.8,1.1,4.8-2.4,5.8c-5.2,1.6-10.5,2.5-16,2
			c-3.7-0.3-5.5-1.8-5.6-5.8c-0.2-7.8,2.5-14.9,5.6-21.6c7.2-15.6,16.9-29.7,28.6-42.4c7.4-8,16.9-9.2,26.6-7.7
			c9.8,1.5,16.6,11.5,17.1,22.1C1308,216,1307.9,217.5,1307.9,220.1z"/>
		<path class="st1" d="M856.1,699.9c-6.9-1.3-13.7-2.6-20.5-4c-11.2-2.3-21.7-6.5-32.3-10.6c-2.7-1-3.3-2.5-3.3-5.2
			c0.8-22.1,4.7-43.7,10.1-65.1c2.7-0.7,3.3,1.8,4.5,3.1c5,5.5,9.6,11.5,15,16.5c10.5,9.7,21.7,18.7,34,26.2
			c2.4,1.5,2.9,3.5,2.4,5.8c-2,8.9-3.9,17.8-4.2,27C861.7,696.5,861.7,701.4,856.1,699.9z"/>
		<path class="st2" d="M773.8,378.7c0.6-1.5,2.3-1.9,3.5-2.5c8.3-4.1,9-12.4,10.7-19.9c3.8-15.9,8.4-31.6,14.2-46.9
			c1.6-4.3,0-5.2-3.5-5.4c-9.5-0.7-19-1.4-28.5-2.1c5.7-2,11.5-1.1,17.2-0.5c4.7,0.5,9.6,0,14.3,1.5c2,0.6,3.4-0.3,4.3-2.4
			c8.2-19.6,18-38.5,27.2-57.7c5-10.6,11.3-20.6,17-30.9c9.6-15.4,19.3-30.7,28.9-46.1c0.9-1.5,2.2-2.8,2-4.8
			c0.8-0.6,1.7-1.1,2.3-1.8c5.1-5.9,8-5.8,12.8,0.6c11.6,15.4,23,30.9,34.6,46.3c1,1.3,1.7,3,3.7,3c-0.4,1-0.6,2,0.2,2.8
			c8,9.4,15.2,19.4,22.6,29.3c1.6,2.2,3,2.5,5,0c6.8-8.9,13.6-17.8,20.8-26.4c1.5-1.8,0-2.6,0.1-3.8c2.1,0.3,3.3-0.7,4.5-2.3
			c12.1-15.8,24.7-31.3,35.4-48.1c0.8-1.3,1.7-2.5,2.7-3.6c3.6-4.3,6.6-4.1,9.8,0.7c9.2,14.1,18.3,28.2,26.4,42.9
			c13.9,25.4,26.8,51.3,39.6,77.3c3.5,7,6.8,14.1,10.1,21.2c0.9,1.9,1.6,2.4,3.9,2.3c9.3-0.4,18.6-0.3,28-0.4c1.3,0,2.3,0.2,2.6,1.7
			c-9.2-0.6-18.3,0.1-27.5,0.2c-4.5,0-5.2,1.6-3.3,5.2c7,13.9,11.3,28.7,14.4,43.9c0.6,2.7,1,5.6,1.2,8.2
			c0.6,8.7,3.9,15.5,10.9,20.6c0.9,0.7,3.2,1.8,1.4,3.4c-1.3,1.1-2.3-0.8-3.1-1.7c-8.4-10.2-20.8-12.7-32.6-15.5
			c-14.2-3.4-28.7-3.1-43.3-2.2c-28.9,1.6-53.8,12.4-75.4,31.2c-3.7,3.2-6.2,7.6-8.9,11.7c-1.9,2.9-3.5,5-8.5,2.8
			c-9.8-4.3-20.3-3.4-30.2,0.5c-4,1.5-6.1,0.9-8.3-2.9c-6.5-11-15.9-19.2-26.6-26.1c-8.6-5.5-17.6-10.1-27.5-12.6
			c-8.9-2.3-17.9-4.1-27.1-4.4c-5.6-0.2-11.1-1.4-16.7-1.6c-16.3-0.6-32.3,1.5-47.2,8.7c-4.4,2.1-8.1,5.5-12.1,8.3
			C774.9,379.8,774.3,379.3,773.8,378.7z M1130,370.8c0.3-4.2-1.4-7.7-2-11.4c-2.7-17.4-7.1-34.3-14.8-50.3
			c-24.2-50.1-47.6-100.6-78.1-147.3c-4.3-6.6-5.5-6.7-9.9-0.1c-18.8,29-41.4,55.1-62.1,82.6c-2.5,3.3-4.3,3.3-6.8-0.1
			c-20.8-27.7-41.7-55.3-62.5-83c-3.9-5.1-5.3-5.2-8.9,0.5c-8.1,12.6-15.9,25.4-24.1,38c-21.2,32.3-37,67.4-52.9,102.4
			c-9,19.8-14.4,41.1-19.5,62.3c-0.3,1.1-0.7,2.4,0.3,3.3c1,0.9,2.2,0.1,3.3-0.4c6.4-2.5,13-4.2,19.7-5.2
			c16.8-2.5,33.6-1.1,50.3,1.1c30.1,4,55,17.4,72.5,42.8c2.2,3.2,4,3.3,7.4,2.2c10-3.3,20.3-3.4,30.3-0.2c3.2,1,4.4,0.6,5.9-2
			c4.1-7.4,10.1-13.2,16.8-18.2c18.8-13.9,39.6-23,63.2-24.8c23.4-1.9,46.5-2.1,68.7,7.1C1127.7,370.3,1128.6,370.5,1130,370.8z"/>
		<path class="st2" d="M856.1,699.9c5.6,1.5,5.7-3.4,5.8-6.2c0.3-9.2,2.1-18.1,4.2-27c0.5-2.3,0-4.3-2.4-5.8
			c-12.3-7.5-23.5-16.5-34-26.2c-5.5-5-10-11-15-16.5c-1.2-1.4-1.8-3.8-4.5-3.1c0.1-0.8,0.1-1.6-0.8-2c0.6-3.2-2.2-4.7-3.6-6.8
			c-8.1-11.5-11.8-25.1-17.6-37.6c-1.6-3.6-1.7-7.9-5.1-10.7c0-6.7-4.1-12.4-4.9-19c0.7-0.4,1.3-0.7,2-1.1
			c6.1,17,11.5,34.2,18.9,50.7c6.4,14.3,15.5,26.5,26.2,37.8c12.3,12.9,26.2,23.7,41.2,33.3c12.1,7.7,25.3,11.6,39.2,14.3
			c13,2.5,26.3,4.2,39.3,4.5c14.9,0.3,29.9-0.1,44.9-2.2c21.5-3,41.6-9.8,61.2-18.5c19.7-8.7,36.1-21.8,50.1-38.2
			c14.7-17.3,22.4-37.9,29.8-58.8c2.4-6.8,4.2-13.9,6.2-20.9c0.9,0,1.8,0,2.7,0c-0.2,5.8-3,11-4.2,16.6c-1.2,5.6-1.5,5.5,4.3,5.3
			c0.4,0,0.8,0,1.2,0.1c-0.8,1.8-2.4,2.2-4.1,1.9c-3.8-0.6-5,1.6-6.1,4.8c-5.8,16.7-12.8,32.8-23.2,47.1c-1.3,1.8-0.7,3.4-0.7,5.2
			c-0.4,0-0.7,0-1.1,0c-2.4-0.5-3.6,1.1-4.9,2.7c-11.6,13.7-25.4,24.9-41.5,32.9c-4.5,2.2-5.2,4.8-4.4,9c2.5,13,5.8,25.9,6.2,39.2
			c0.1,2.5-0.3,2.9-2.4,2.5c0-3.3-0.2-6.5-1.9-9.4c0-0.6-0.1-1.3-0.1-1.9c0.2-0.3,0.5-0.6,0.5-0.9c-0.7-11.6-3.8-22.7-5.8-34.2
			c-2.1,0.8-3.8,1.4-5.4,2.1c-10.3,4.5-21.1,7.9-31.9,11.1c-1.9,0.6-3.8,0.9-3.3,3.7c1.7,10,3.3,20,5.1,29.9
			c0.2,1.3,0.1,3.9,2.8,3.7c0,0.5,0,1-0.1,1.4c-2.8,3.8-0.3,7.6,0.2,11.2c0.7,5.8,0.6,12,3.8,17.3c0,0.5,0,1,0.1,1.5
			c-0.6,0.1-1.2,0.2-1.8,0.2c-0.7-0.4-1.3-0.7-2-1.1c-1.4-8.5-2.8-17.1-4.1-25.6c-0.3-2.2-2-1.1-3-1.6c0-0.5,0-1.1,0-1.6
			c2.1-0.9,2.4-2.8,1.9-4.6c-2.4-9.7-3.3-19.6-5.1-29.3c-0.3-1.6-0.4-3.2-3.7-2.5c-13.2,2.6-26.6,4.6-40.1,4.3
			c-3.3-0.1-3.9,1.2-3.7,4.1c0.4,4,0.4,8,0.6,12c-1.5,3-1.6,6,0.1,8.9c0.6,3.7-0.7,7.5,0.9,11.1c0,0.6,0,1.3,0,1.9
			c-1.2,5.7,0.1,11.4,0,17.1c-1.5,3.3-1.7,6.6,0.2,9.9c-0.3,3.3,0.2,5.8,4.5,5c1.4-0.3,2.9,0,4.3,0.1c-0.1,0.3-0.1,0.6,0,0.9
			c-3.9,0.2-7.9,0.4-11.8,0.6c0-0.8-0.1-1.6-0.1-2.3c0.3-0.3,0.9-0.8,0.9-1c-1.9-6-0.1-12.1-0.8-18.2c1.1-3.1,2.3-6.3-0.9-9.1
			c-0.1-1-0.2-1.9-0.2-2.9c0-0.7,0-1.4-0.1-2.2c0-10.6-0.1-21.2,0.1-31.9c0.1-3.5-1.3-4-4.4-4.1c-6.7-0.2-13.5,0.4-20.3-0.8
			c-6.1-1.1-12.5-0.9-18.7-1.2c-1.3-0.1-2.6-0.4-2.8,1.7c-0.9,10.7-1.8,21.4-2.8,32.2c0,1.1-0.1,2.2-0.1,3.2c-1.9,9.8-2,19.9-3,29.8
			c-0.1,0.6-0.1,1.2-0.2,1.8c-1.5,0.6-2.7,0.1-3.8-0.9c0-0.5-0.1-1-0.1-1.5c1.3-0.3,2.1-1.2,2-2.4c-0.6-9.7,2.5-19.1,2-28.7
			c0.1-0.9,0.1-1.7,0.2-2.6c0.3-0.6,0.8-1.1,0.8-1.7c-0.2-8.4,1.1-16.6,1.9-25c0.4-3.8,1.8-7.6-5.5-8.5c-10.7-1.2-21.5-4-31.1-9.7
			c-3-1.8-5-1.1-5.5,3.2c-0.8,7.1-2.7,14.1-3.6,21.2c-0.3,2.2-2.3,5.6,1.7,7c0,0.4,0,0.7,0,1.1c-3.3,1.9-4.1,7-2,12.8
			c0.3,5.1,0.7,10.2,1,15.2c0.1,2.2,0.5,4.2,2.9,5c-0.5,0.8-1.6,1.4-1,2.7c0.1,1.5,0.2,2.9,0.7,4.4c6.8,21.7,18.8,39.6,37.7,52.5
			c12.5,8.5,26.4,13.4,41.1,16.2c10.3,1.9,20.6,1.5,31,0.1c11.1-1.4,21.6-4.6,31.2-10.3c13.7-8.2,25-19,33.2-32.9
			c6.1-10.4,11.9-20.8,14.3-32.8c3.9-1.2,0.6-3.5,0.7-5.2c2.8-6.4,2.1-13.1,2-19.8c2.7-1,2.1,1.1,2.2,2.4c1.5,18.1-4.3,34.4-12.9,50
			c-3.3,6-7.6,11.3-10.2,17.6c-0.4,0.4-0.8,0.7-1.1,1.1c-0.3,0-0.8-0.1-1,0.1c-9.2,10.9-20.3,19.5-33.1,25.8c-1,0.5-0.8,1.3-0.9,2
			c-0.7,0-1.4,0-2.1,0.1c-3.8-0.1-7.1,1.7-10.6,2.6c-17,4.1-34.1,3.7-51-0.1c-2.5-0.6-4.9-0.2-7.3-0.8c-0.3-1.1-1.2-0.9-2-0.7
			c-8.2-3.8-16.4-7.6-23.9-12.7c-1.2-0.8-2.4-1.8-4.1-1c-0.3-0.4-0.5-0.8-0.8-1.2c-1.7-3.8-5.8-5.1-8.5-7.8
			c-16-15.8-25.4-35-29.5-56.8c-1.1-5.9-1.2-12.1-1.1-18.2c0.1-4.7-0.2-8.3-6-8.4C855.4,700.5,855.7,700.2,856.1,699.9z"/>
		<path class="st1" d="M740.6,567.3c-0.2,1.8-1.3,3.1-2.2,4.5c-11.9,17.3-22.3,35.3-27.3,56c-1,4.1-2.4,4.4-5.8,2.1
			c-15-9.9-30.8-18.5-45.3-29.1c-4.9-3.6-4.8-3.8,0.4-6.6c23.6-12.8,48.9-20.9,75.2-26C737.1,567.8,738.5,566.2,740.6,567.3z"/>
		<path class="st1" d="M982.9,211.1c-0.1,1.2,1.4,2.1-0.1,3.8c-7.1,8.6-14,17.5-20.8,26.4c-1.9,2.6-3.4,2.2-5,0
			c-7.3-9.9-14.5-19.9-22.6-29.3c-0.7-0.9-0.5-1.9-0.2-2.8c2,0.1,2.7-1.7,3.8-2.9c5.5-6,11.6-11.4,18-16.4c2.6-2,4-1.5,6.4,0.2
			C970.5,196,976.1,204.1,982.9,211.1z"/>
		<path class="st1" d="M1002,806c0-0.8-0.2-1.5,0.9-2c12.8-6.3,23.9-14.9,33.1-25.8c0.1-0.2,0.6,0,1-0.1c3.9,4,8.6,6.7,13.8,8.6
			c2.7,1,3.6,1.9,2.2,4.9c-6.9,14.9-15.8,28.4-27.3,40.1c-2,2.1-3.2,1.4-4.7-0.4C1014.2,823.2,1007.2,815.2,1002,806z"/>
		<path class="st1" d="M1182.9,500c17.5-8.4,34-18.5,48.7-31.3c1-0.8,1.7-2.1,3.4-1.6c3.2,4.1,7.4,7,11.2,10.5
			c1.9,1.8,2.4,2.7-0.4,4.2c-18.2,9.4-37,16.7-57.5,19.1C1186.7,501,1184,504.4,1182.9,500z"/>
		<path class="st2" d="M1065.9,706.8c-1.5,0.1-3.1,0.4-4.5-1.5c1.5,0,3,0,4.4,0C1065.9,705.8,1065.9,706.3,1065.9,706.8z"/>
		<path class="st1" d="M469.8,880.9c1.1,0.3,1.3,1.1,1.2,2.1C469.7,882.8,468.9,882.3,469.8,880.9z"/>
		<path class="st2" d="M947,621.1c6.8-3.6,13.9-2.3,20.9-0.9c0.1,1.2,1.1,1.5,2,1.8c8.7,4.9,12.9,14.5,9.8,24.8
			c-2.7,9.2-9.9,15.6-20.3,16.1c-12,0.5-19.8-4.6-22.5-15.9c1.6-1.3,1.4-2.3-0.4-3.1c-1.4-9.2,1.9-16.5,9.4-21.9
			C946.3,621.6,946.7,621.4,947,621.1z"/>
		<path class="st3" d="M1139.8,540c-0.9,0-1.8,0-2.7,0c1.3-5.4,2.5-10.9,3.9-16.3c0.3-1,0.6-2.5,1.9-2.5c1.5-0.1,1.3,1.4,1.1,2.2
			C1142.6,528.9,1142.3,534.8,1139.8,540z"/>
		<path class="st3" d="M1013.8,601.1c4.3,1,8.5,1.9,11.1,6C1021.2,605.2,1017.1,603.9,1013.8,601.1z"/>
		<path class="st3" d="M817.1,554c1.4,3.3,1.4,6.7-0.1,10C815.4,560.7,815.3,557.3,817.1,554z"/>
		<path class="st3" d="M780.1,537.9c-0.7,0.4-1.3,0.7-2,1.1c-1.1-2-2.9-3.9-1.8-6.5c0.6-0.2,1.2-0.4,1.8-0.5
			C779.6,533.7,780.4,535.7,780.1,537.9z"/>
		<path class="st3" d="M889,610.9c2.3-3.1,5.9-2.9,9.2-3.8C895.6,609.5,892.4,610.5,889,610.9z"/>
		<path class="st3" d="M819.5,542.4c0.3,3.1,0.3,6.2-2,8.7C816.3,547.8,818.4,545.2,819.5,542.4z"/>
		<path class="st3" d="M863,612.3c2.2-1.2,4.3-2.5,6.1,0.5C867,612.8,864.9,614,863,612.3z"/>
		<path class="st2" d="M778.2,532c-0.6,0.2-1.2,0.4-1.8,0.5c0,0-0.1-0.1-0.1-0.1c0.3-0.9-0.2-1.3-1-1.4c1-1.8-2.9-4.3-0.1-5
			c3.4-0.8,2.4,2.9,2.8,4.9C778.1,531.3,778.1,531.6,778.2,532z"/>
		<path class="st3" d="M990.5,560.9c2.3,1.5,2,3.3,0.4,5.1C989,564.4,990.4,562.6,990.5,560.9z"/>
		<path class="st3" d="M878,612.8c1.5-2.8,3.3-2,5.1-0.5C881.5,613.8,879.7,612.8,878,612.8z"/>
		<path class="st3" d="M818.5,571.9c1.9,1.3,2.7,2.9,1.5,5.1C819,575.4,818.4,573.8,818.5,571.9z"/>
		<path class="st3" d="M982.9,545.8c0.9-2.4,2.3-2.3,4-0.9C986,547,984.4,545.8,982.9,545.8z"/>
		<path class="st3" d="M991.3,546.1c1.1,1.6,1.2,3-0.7,4.1C990.7,548.8,988.7,547,991.3,546.1z"/>
		<path class="st3" d="M936.5,643.9c1.9,0.8,2,1.9,0.4,3.1C935.3,646.2,936.4,644.9,936.5,643.9z"/>
		<path class="st3" d="M817.5,566.9c1.8,0.8,2,1.9,0.4,3.1C816.3,569.2,817.5,567.9,817.5,566.9z"/>
		<path class="st4" d="M927.1,551.8c-0.3-0.6-0.5-1.2-0.8-1.8C927.7,550.1,927.6,550.9,927.1,551.8z"/>
		<path class="st3" d="M969.9,622c-1-0.3-1.9-0.6-2-1.8C969.3,620.1,970,620.6,969.9,622z"/>
		<path class="st3" d="M885,611.9c0.4-1.3,0.9-2.3,2.1-0.6C886.6,612.4,885.8,612.1,885,611.9z"/>
		<path class="st3" d="M775.3,531c0.8,0.1,1.3,0.5,1,1.4C775.7,532.2,774.7,532.1,775.3,531z"/>
		<path class="st3" d="M775.3,524.5c-0.2,0.5-0.3,0.9-1,0.8c-0.8-0.2-1.2-0.6-1-1.3c0.1-0.3,0.6-0.7,1-0.7
			C775.1,523.2,775.3,523.9,775.3,524.5z"/>
		<path class="st3" d="M947,621.1c-0.4,0.3-0.8,0.6-1.1,0.8C945.9,621.2,946.3,620.9,947,621.1z"/>
		<path class="st3" d="M1011.9,600c0.4,0.3,0.7,0.5,1.1,0.8C1012.3,601.1,1012,600.7,1011.9,600z"/>
		<path class="st5" d="M774.8,411.9c0.1-0.3,0.2-0.7,0.3-1c1.7,0.4,2.8-0.4,3.8-1.8c7.5-10.7,18.5-16,30.7-19
			c16.8-4.1,33.7-2.6,50.4,0.3c13.6,2.4,26.5,6.4,37.2,15.6c10.8,9.2,14.7,22.3,6.6,35c-4.2,6.6-9.2,12.1-15.2,16.9
			c-10.3,8.3-21.2,15.2-34.3,18.6c-14.1,3.5-28.1,4.4-42.5,2.5c-11.2-1.5-21.4-4.4-29.4-13.7c-11.8-13.8-15.2-32.4-7.7-49.2
			C775.4,414.9,777.1,413.4,774.8,411.9z"/>
		<path class="st2" d="M774.8,411.9c2.2,1.4,0.6,3,0,4.3c-7.5,16.8-4.1,35.4,7.7,49.2c8,9.3,18.2,12.2,29.4,13.7
			c14.3,1.9,28.4,1,42.5-2.5c13.1-3.3,24-10.2,34.3-18.6c6-4.8,11-10.4,15.2-16.9c8.1-12.7,4.2-25.8-6.6-35
			c-10.8-9.2-23.7-13.2-37.2-15.6c-16.8-2.9-33.7-4.4-50.4-0.3c-12.2,3-23.2,8.3-30.7,19c-1,1.4-2.1,2.1-3.8,1.8
			c-0.2-1.2-0.1-2.2,0.8-3.2c4.1-5.2,8-10.7,14.5-13.2c6.7-2.6,12.4-7.2,19.9-8c10.4-1.1,20.7-2,31.2-1.1c5.8,0.5,11.5,0.9,17.3,1
			c3.8,0.1,7.5,2.8,11.4,3.6c13.5,2.9,25,9.2,34.1,19.5c7.3,8.2,9.1,18.2,5.2,27.9c-2.3,5.9-6.7,11.5-11.6,16.1
			c-10.8,10.2-22.6,18.9-36.8,23.9c-21.5,7.5-43.3,7.2-65,1.4c-5.3-1.4-9.7-5.2-13.7-9.2c-15.2-15.3-17.8-33.2-11.1-53
			C771.9,415,772,412.2,774.8,411.9z"/>
		<path class="st2" d="M1002.1,423c0.6-7.7,4.3-13.3,10.3-18.1c15.3-12.3,32.6-18,52.1-19c9.1-0.5,18.3-1,27.3,0.2
			c15.6,2.1,31.1,5.1,42.1,18.1c4.9,5.8,7,12.9,8.9,20c2.4,8.9,1.4,17.8-1.1,26.7c-4.7,16.5-16.5,25.4-32.3,29
			c-17,3.9-34.2,3.5-51.2-0.9c-16.1-4.2-30.1-12.3-42.8-23.1c-4.7-4-7.2-9.8-11.7-14c-1.9-1.8-1.3-4.6-0.9-7
			C1002.9,430.9,1003.7,426.9,1002.1,423z M1084.5,479c2.7,0,5.3,0.2,8,0c8.4-0.7,16.9-1,24.8-4.6c19.6-9,25.5-25.6,23.4-45.7
			c-1.8-16.9-10.6-29.2-26.9-35.2c-7.8-2.9-16.1-4-24.4-4.7c-24.6-2.3-48.1,0-69.3,14.2c-6.8,4.6-13.5,9.5-15.1,18.3
			c-2.1,12.2,2.1,22.8,10.7,30.8C1034.9,470.1,1058.1,479,1084.5,479z"/>
		<path class="st3" d="M773.8,378.7c0.6,0.6,1.1,1.1,1.7,1.7c-6.4,5.9-13.1,11.5-17.8,19c-2.2,3.4-4,7-5.7,10.7c-1-1.1-2-0.4-3-0.1
			C753.8,396.8,762.2,386.5,773.8,378.7z"/>
		<path class="st3" d="M1159.7,409.2c-0.5-0.7-1.1-1.3-1.4-2c-2.9-7.7-8.4-13.4-13.8-19.3c-0.9-0.9-3-2-1.3-3.5
			c1.6-1.4,2.6,0.6,3.6,1.6c5.6,5.8,10.9,12,14,19.6C1161.3,406.7,1162,408.3,1159.7,409.2z"/>
		<path class="st3" d="M1002.1,423c1.6,3.9,0.9,7.8,0.6,11.8C999.6,431,1000.4,427,1002.1,423z"/>
		<path class="st2" d="M749,410c1-0.4,2-1,3,0.1c0.8,1.9-1.5,1.8-1.9,2.9c-0.6-0.3-1.2-0.7-1.8-1C748.2,411.2,748,410.4,749,410z"/>
		<path class="st3" d="M748.2,412c0.6,0.3,1.2,0.7,1.8,1c0.3,0.9,0.2,1.7-0.8,2.1c-0.8,0-1.5-0.1-2.3-0.1
			C746.9,413.7,747.5,412.8,748.2,412z"/>
		<path class="st4" d="M848,497.2c0.1,1.6-0.7,1.9-2,1.3C846,497.1,846.7,496.8,848,497.2z"/>
		<path class="st3" d="M1160.2,413c0.9,0.2,1.4,0.6,1,1.6C1160.8,414.2,1159.6,414.2,1160.2,413z"/>
		<path class="st3" d="M1161.2,416c0.3,0.1,0.7,0.3,1,0.4c-0.1,0.2-0.3,0.4-0.4,0.6C1161,417,1160.7,416.8,1161.2,416z"/>
		<path class="st3" d="M1159.6,410.8c-0.2-0.1-0.4-0.2-0.6-0.3c0.1-0.1,0.2-0.3,0.3-0.3c0.2,0,0.4,0.2,0.6,0.3
			C1159.9,410.6,1159.8,410.7,1159.6,410.8z"/>
		<path class="st4" d="M828.2,501.1c31.1,1.3,55.7-7.9,77.7-24.7c2.8-2.2,5.2-2.6,8.6-1.5c26.7,8.8,53.5,6.2,80.2-0.5
			c4.7-1.2,7.9-0.7,11.8,2.2c17,12.5,36.5,19.4,56.9,23.1c20.2,3.6,40.7,2.4,60-4.7c22.3-8.2,37.6-23.3,41.7-47.9
			c1-5.8,1.3-11.6,0.8-17.3c-0.4-4.5,1.2-6,5.4-6.8c9-1.5,18-3.6,26.5-7c21.8-8.6,38.7-23.8,54.2-40.8c1.1-1.2,1.7-3.3,3.7-2.9
			c2.1,0.4,2.5,2.6,2.9,4.3c3.6,12.7,3.3,25.4,1.7,38.5c-2.1,17.9-11.1,31.7-22.9,44.2c-13.1,14-28.8,24.4-45.6,33.5
			c-16,8.7-32.7,16-49.7,21.9c-16.1,5.6-32.7,9.8-49.4,13.7c-20,4.7-40.5,6.5-60.7,9.7c-8,1.2-16.1,2.4-24.1,3
			c-29.9,2.2-59.9,2.9-89.9,1.8c-6.2-0.2-12.6-0.6-19-1.9c-5.4-1.1-11.7-0.3-17.6-0.7c-10.8-0.6-21.4-2.3-32.2-3.6
			c-4.9-0.6-9.9-0.3-14.8-1.3c-14.5-2.9-28.5-7.2-42.4-12.3c-26.7-9.7-53.1-20-77.2-35.4c-17.7-11.4-34.5-23.8-47.7-40.6
			c-12.1-15.3-16.8-32.3-15.5-51.5c0.6-9,2-17.7,4.8-26.2c1.8-5.3,2.9-5.6,7-1.7c21.8,21.2,46.6,37.6,75.1,48.4
			c5.4,2,7.6,3.9,7,10.2c-1,9.9,0.6,20,3.2,29.6c5.1,19,18.9,30.1,35.7,38C799.2,500.7,815.2,501.4,828.2,501.1z"/>
		<path class="st4" d="M998.7,470.9c-29.2,7-57.1,11-85.5,0.7c2.9-3.1,5.6-6,8.4-8.8c5.9-6,10.8-12.7,12.9-21c0.9-3.4,3-5.3,6.4-6.1
			c10.2-2.2,20.5-2.3,30.8-0.7c2.1,0.3,3.9,1.1,4.7,3.3C980.7,450.8,987.9,461.5,998.7,470.9z"/>
		<path class="st0" d="M1058.9,707c0.1,6.7,0.9,13.4-2,19.8c-10.2,7.4-22.2,10.7-34,14.5c-3.1-5.4-3-11.5-3.8-17.3
			c-0.5-3.6-3-7.5-0.2-11.2c13.4-3.3,25.9-8.6,38.1-14.9c1.7,2.9,1.9,6.2,1.9,9.4C1058.9,707.2,1058.9,707,1058.9,707z"/>
		<path class="st4" d="M1130,370.8c-1.3-0.3-2.3-0.5-3.2-0.8c-22.2-9.2-45.3-8.9-68.7-7.1c-23.7,1.9-44.4,10.9-63.2,24.8
			c-6.7,5-12.7,10.8-16.8,18.2c-1.4,2.6-2.7,3-5.9,2c-10-3.3-20.3-3.1-30.3,0.2c-3.4,1.1-5.2,1-7.4-2.2
			c-17.6-25.4-42.4-38.7-72.5-42.8c-16.7-2.2-33.4-3.6-50.3-1.1c-6.8,1-13.4,2.7-19.7,5.2c-1.1,0.4-2.2,1.2-3.3,0.4
			c-1-0.9-0.5-2.1-0.3-3.3c5.1-21.2,10.5-42.5,19.5-62.3c15.9-35,31.7-70.1,52.9-102.4c8.2-12.5,16-25.3,24.1-38
			c3.6-5.6,5-5.6,8.9-0.5c20.8,27.7,41.7,55.3,62.5,83c2.5,3.4,4.3,3.4,6.8,0.1c20.7-27.6,43.3-53.7,62.1-82.6
			c4.3-6.6,5.6-6.5,9.9,0.1c30.5,46.7,54,97.2,78.1,147.3c7.7,16,12.2,32.8,14.8,50.3C1128.5,363.1,1130.2,366.6,1130,370.8z"/>
		<path class="st0" d="M903.1,746.8c1.1,1,2.3,1.5,3.8,0.9c7.9,2.2,16.1,2.4,24.1,3.7c9.7,1.7,19.4,1.5,29.2,1.1
			c3.9-0.2,7.9-0.4,11.8-0.6c9,0.2,17.8-1.3,26.5-3.2c7.6-1.6,15.5-2.1,22.6-5.6c0.6-0.1,1.2-0.2,1.8-0.2
			c10.1-1.9,19.5-5.7,28.7-10.3c1.4-0.7,2.8-2.8,4.6-0.5c-2.4,12-8.2,22.4-14.3,32.8c-8.2,13.9-19.5,24.7-33.2,32.9
			c-9.6,5.7-20.1,8.9-31.2,10.3c-10.4,1.3-20.7,1.8-31-0.1c-14.7-2.8-28.7-7.7-41.1-16.2c-18.9-12.9-30.9-30.8-37.7-52.5
			c-0.5-1.5-0.6-2.9-0.7-4.4c1.3,0.3,2.8,0.2,3.8,0.8c7.7,4.6,16.2,7.2,24.8,9.7C898,746.1,900.3,747.5,903.1,746.8z"/>
		<path class="st0" d="M961.9,697c-0.2-4-0.2-8-0.6-12c-0.3-2.9,0.4-4.2,3.7-4.1c13.5,0.3,26.9-1.7,40.1-4.3c3.3-0.7,3.5,1,3.7,2.5
			c1.8,9.8,2.7,19.7,5.1,29.3c0.5,1.8,0.1,3.7-1.9,4.6c-6.3,0.9-12.5,2.2-18.9,2.7c-10,0.7-20.1,0.8-30.2,1.2
			c-1.7-3.6-0.4-7.4-0.9-11.1C963.6,702.9,963.7,700,961.9,697z"/>
		<path class="st0" d="M910.1,712.8c0.9-10.7,1.9-21.4,2.8-32.2c0.2-2.1,1.5-1.8,2.8-1.7c6.2,0.3,12.6,0.2,18.7,1.2
			c6.8,1.2,13.5,0.6,20.3,0.8c3.1,0.1,4.4,0.6,4.4,4.1c-0.2,10.6-0.1,21.2-0.1,31.9C942.5,717.3,926.2,716.3,910.1,712.8z"/>
		<path class="st0" d="M972,750.9c-1.4,0-2.9-0.3-4.3-0.1c-4.4,0.8-4.8-1.7-4.5-5c1.4-3.3,1.5-6.6-0.2-9.9c0.1-5.7-1.2-11.4,0-17.1
			c8.4,1,16.7-0.7,25-1c8.1-0.3,16.2-0.9,24.1-3.1c1,0.5,2.7-0.6,3,1.6c1.3,8.5,2.7,17.1,4.1,25.6c-11.5,3.1-23.1,5.1-34.8,7
			C980.2,749.7,975.9,748.9,972,750.9z"/>
		<path class="st0" d="M907.1,745.8c1-9.9,1.1-20,3-29.8c2.6,0,5.3-0.3,7.9,0.1c13.6,2.4,27.3,3.2,41,2.8c0.1,1,0.2,1.9,0.2,2.9
			c0,3-1.3,6.2,0.9,9.1c0.8,6-1,12.2,0.8,18.2c0.1,0.2-0.6,0.7-0.9,1c-3-1-5.7,0.8-8.7,0.9c-5.8,0.3-11.5-0.9-17.2-1.4
			C925.1,748.9,916,748.1,907.1,745.8z"/>
		<path class="st0" d="M1019,711.3c-2.7,0.2-2.6-2.3-2.8-3.7c-1.9-9.9-3.4-19.9-5.1-29.9c-0.5-2.8,1.4-3.1,3.3-3.7
			c10.8-3.2,21.5-6.6,31.9-11.1c1.6-0.7,3.3-1.3,5.4-2.1c2,11.5,5.1,22.6,5.8,34.2c0,0.3-0.3,0.6-0.5,0.9
			C1044.7,702,1031.9,706.8,1019,711.3z"/>
		<path class="st0" d="M866,698.1c-3.9-1.5-2-4.9-1.7-7c0.9-7.1,2.8-14.1,3.6-21.2c0.5-4.3,2.5-5,5.5-3.2c9.6,5.7,20.4,8.5,31.1,9.7
			c7.2,0.8,5.8,4.7,5.5,8.5c-0.8,8.3-2.1,16.6-1.9,25c0,0.6-0.5,1.1-0.8,1.7c-3.7-0.1-7.3-1.1-10.8-2.4
			C886.3,705.3,876.1,701.8,866,698.1z"/>
		<path class="st0" d="M867.9,732.2c-2.5-0.8-2.8-2.8-2.9-5c-0.3-5.1-0.7-10.2-1-15.2c1.8-1.4,0.8-3.3,1-5c0.3-2.3-0.8-4.9,0.9-7
			c2.3,0.9,4.6,1.7,6.9,2.7c11.1,4.5,22.1,9.3,34.1,11.4c0.5,9.7-2.5,19.1-2,28.7c0.1,1.3-0.7,2.1-2,2.4c-5.5-1.8-11.2-2.9-16.8-4.9
			C879.9,738.1,874.1,734.7,867.9,732.2z"/>
		<path class="st3" d="M907.1,745.8c8.9,2.2,18,3.1,27,3.8c5.7,0.5,11.4,1.7,17.2,1.4c2.9-0.1,5.7-1.9,8.7-0.9
			c0,0.8,0.1,1.6,0.1,2.3c-9.7,0.4-19.4,0.6-29.2-1.1c-8-1.4-16.2-1.5-24.1-3.7C907,747,907,746.4,907.1,745.8z"/>
		<path class="st3" d="M972,750.9c3.9-2,8.2-1.2,12.4-1.9c11.7-1.9,23.3-4,34.8-7c0.7,0.4,1.3,0.7,2,1.1c-7.1,3.5-15,4-22.6,5.6
			c-8.7,1.9-17.5,3.4-26.5,3.2C971.9,751.5,971.9,751.2,972,750.9z"/>
		<path class="st3" d="M906.9,714.1c-11.9-2.1-22.9-7-34.1-11.4c-2.3-0.9-4.6-1.8-6.9-2.7c-0.1-0.3-0.1-0.5,0-0.8c0-0.4,0-0.7,0-1.1
			c10.1,3.6,20.3,7.2,30.4,11c3.5,1.3,7,2.3,10.8,2.4C907.1,712.4,907,713.2,906.9,714.1z"/>
		<path class="st3" d="M959,719c-13.8,0.4-27.4-0.5-41-2.8c-2.6-0.4-5.3-0.1-7.9-0.1c0-1.1,0.1-2.2,0.1-3.2
			c16.1,3.5,32.4,4.5,48.8,4.1C958.9,717.6,959,718.3,959,719z"/>
		<path class="st3" d="M1019,711.3c12.9-4.5,25.7-9.3,38-15.4c0,0.6,0.1,1.3,0.1,1.9c-12.2,6.3-24.8,11.6-38.1,14.9
			C1018.9,712.3,1019,711.8,1019,711.3z"/>
		<path class="st3" d="M1056.2,732c-1.8-2.3-3.2-0.2-4.6,0.5c-9.2,4.6-18.6,8.4-28.7,10.3c0-0.5,0-1-0.1-1.5
			c11.8-3.8,23.8-7.1,34-14.5C1056.8,728.6,1060.1,730.8,1056.2,732z"/>
		<path class="st3" d="M867.9,732.2c6.2,2.6,12,5.9,18.3,8.2c5.5,2,11.2,3,16.8,4.9c0,0.5,0.1,1,0.1,1.5c-2.7,0.7-5.1-0.7-7.5-1.4
			c-8.5-2.5-17.1-5-24.8-9.7c-1.1-0.6-2.5-0.6-3.8-0.8C866.3,733.6,867.4,733,867.9,732.2z"/>
		<path class="st3" d="M1012.1,714.8c-7.9,2.2-16,2.9-24.1,3.1c-8.3,0.3-16.6,2-25,1c0-0.6,0-1.3,0-1.9c10.1-0.4,20.2-0.5,30.2-1.2
			c6.3-0.4,12.6-1.8,18.9-2.7C1012,713.7,1012.1,714.2,1012.1,714.8z"/>
		<path class="st1" d="M866,699.2c-0.1,0.3-0.1,0.5,0,0.8c-1.7,2.1-0.6,4.7-0.9,7c-0.2,1.7,0.8,3.6-1,5
			C861.9,706.2,862.6,701.1,866,699.2z"/>
		<path class="st1" d="M963,736c1.7,3.3,1.5,6.6,0.2,9.9C961.3,742.6,961.5,739.3,963,736z"/>
		<path class="st1" d="M961.9,697c1.7,2.9,1.7,5.9,0.1,8.9C960.4,703,960.5,700,961.9,697z"/>
		<path class="st3" d="M960.1,731c-2.1-2.8-0.8-6-0.9-9.1C962.4,724.6,961.2,727.8,960.1,731z"/>
		<path class="st5" d="M1084.5,479c-26.4,0-49.6-8.9-68.8-27c-8.6-8.1-12.8-18.7-10.7-30.8c1.5-8.9,8.2-13.7,15.1-18.3
			c21.2-14.1,44.8-16.5,69.3-14.2c8.3,0.8,16.6,1.8,24.4,4.7c16.2,6.1,25.1,18.3,26.9,35.2c2.1,20-3.7,36.7-23.4,45.7
			c-7.9,3.6-16.4,3.9-24.8,4.6C1089.8,479.2,1087.2,479,1084.5,479z"/>
	</g>
</g>
</svg>
