<?xml version="1.0" encoding="utf-8"?>
<!-- Generator: Adobe Illustrator 27.3.1, SVG Export Plug-In . SVG Version: 6.00 Build 0)  -->
<svg version="1.1" id="Layer_1" xmlns="http://www.w3.org/2000/svg" xmlns:xlink="http://www.w3.org/1999/xlink" x="0px" y="0px"
	 viewBox="0 0 1920 1080" style="enable-background:new 0 0 1920 1080;" xml:space="preserve">
<style type="text/css">
	.st0{fill:#BEE3E7;}
	.st1{fill:#D2D4D7;}
	.st2{fill:#010101;}
	.st3{fill:#272728;}
	.st4{fill:#FFFFFF;}
	.st5{fill:#404040;}
</style>
<g>
	<g>
		<path class="st0" d="M1015.7,353.8c-1,0.4-1.6,1.1-1.9,2.2c-0.9,1.9-4.6,2.3-3.1,5.6c-2-2.3-2.8-0.2-3.8,1.1
			c-1.7,1.5-3.5-2.4-4.6-0.4c-1.1,2.1,1.9,2.9,2.9,4.4c0.6,0.9,1.3,1.9,2.6,2c-0.7,0.9,0.1,1.2,0.7,1.5c1,1,1.4,3.1,3.5,2.1
			c0.2-0.2,0.4-0.5,0.7-0.7c-0.8,0.1-1.2,0.6-1.1,1.4c-0.1,0.8,0.3,1.2,1.1,1.4c0.4,0.4,0.7,0.7,1.1,1.1c3,3.3,5.8,6.7,9,9.8
			c1,1,2.5,3.8,4.7,1c0.6,3.8,4.6,4.9,6.2,7.8c0.8,4.4,5,6,7.6,8.9c1.9,2.1,2,3.3-0.2,5.2c-10.7,9.3-21.4,18.7-32.1,28.1
			c-18.2,16.1-36.4,32.3-54.5,48.6c-19.1,17.2-38,34.6-57,51.9c-16.3,14.8-32.7,29.5-49,44.4c-2,1.9-3,1-4.3-0.6
			c-7.6-8.9-15.2-17.8-23.1-26.5c-2.7-3-1.3-4.5,0.8-6.4c6.8-6.2,13.6-12.3,20.5-18.3c1.1-0.9,2.4-1.8,1.2-3.1c-1-1.1-2,0.5-2.8,1.1
			c-7,6-14.1,11.9-20.8,18.3c-2.6,2.5-4.1,2.4-6.3-0.2c-5.9-6.9-11.6-14.1-18-20.5c-3.7-3.8-1.9-5.3,1.1-7.6
			c5.4-4.2,10.8-8.3,14.8-14c-1.9-0.9-2.8,0-3.8,0.9c-5,4.4-10,8.7-14.9,13.1c-1.5,1.4-2.4,1.7-3.9-0.2
			c-5.8-7.3-11.5-14.6-17.9-21.3c-4.9-5.2-4.8-5.3,0.9-10.4c13.7-12.1,27.5-24.1,41.2-36.1c9.5-8.4,18.9-17,28.4-25.4
			c10.8-9.5,21.5-19.1,32.4-28.4c6.9-5.9,13.5-12.3,20.3-18.2c12.8-11,25.1-22.5,37.7-33.8c7.2-6.5,14.6-12.8,22-19.1
			c2-1.7,4.1-2,6.5,0.3c10.6,10.3,21.4,20.3,32.2,30.4c2.2,2,4.5,3.9,6.8,5.9c0.9,0.8,2.1,1.7,3,0.6c1.3-1.6-0.8-1.6-1.4-2.4
			c-6.1-7.3-13.8-12.9-20.4-19.6c-6-6-12.4-11.5-18.6-17.3c-2.9-2.7-5.3-3.3-9-0.4c-8.7,6.8-16.9,14.3-25.2,21.6
			c-6.9,6-13.5,12.2-20.3,18.2c-11.5,10.2-22.8,20.7-34.3,31c-9.6,8.6-19.5,16.9-29.2,25.4c-12.7,11.1-25.2,22.4-37.9,33.6
			c-11.5,10.1-23.4,19.9-34.8,30.2c-13.5,12.2-27.2,24.1-40.9,36c-2.3,2-5,3.7-6.3,7.1c2.6,0.7,3.8-0.8,5.3-2.1
			c10.7-9.5,21.6-18.8,32.3-28.4c2.2-2,3.4-1.6,5.1,0.5c6.5,7.7,13.2,15.3,19.8,22.9c1.9,2.2,1.9,3.7-0.5,5.8
			c-5,4.1-9.6,8.6-14.3,13c-0.8,0.7-2.3,1.7-1.4,2.8c1.2,1.5,2.2-0.2,3.3-0.8c4.5-2.7,7.6-6.8,11.3-10.3c4.9-4.6,6.3-4.4,10.7,0.7
			c4.9,5.8,9.9,11.5,15.1,17c4.2,4.5,4.2,4.7-0.6,8.8c-7.2,6.2-14.2,12.7-21.8,19.5c3.4,1.3,4.8-0.4,6.4-1.9
			c5.9-5.5,11.8-11.1,17.8-16.4c1.5-1.3,3.2-4.4,6-1.1c8,9.5,16.1,18.9,24.3,28.2c1.3,1.5,0.9,2.1-0.3,3.2c-3,2.6-5.9,5.3-8.8,8
			c-13.5,12.2-27,24.4-40.5,36.6c0,0,0.1-0.2,0.1-0.2c-0.8,0.6-1.6,1.1-2.4,1.8c-7.8,7.1-15.6,14.3-23.4,21.5
			c-1.8,1.6-3.7,3.3-5.6,0c-10.8-18.8-22.3-37.1-33.7-55.5c-9.5-15.3-18.2-31.1-27.9-46.4c-2.6-4.1,0.7-4.7,2.1-6
			c2.9-2.5,6.3-4.5,8.3-9c-5.2,1.4-7.1,5.8-10.7,7.8c-4.2,2.5-3.9,5.3-1.7,9c8.9,14.7,17.5,29.6,26.8,44.1c2.5,3.9,1.4,6.2-1,8.7
			c-2.4,2.5-5.1,4.7-7.8,6.9c-8.9,7-19.3,11.2-29.8,15.3c-22.2,8.8-45,13.8-69,11c-13.1-1.5-25.6-5.6-37.7-10.6
			c-13.7-5.7-26-13.8-36.7-23.9c-5.2-4.8-11-8.9-15.4-14.7c-8.4-10.8-15.3-22.4-19.8-35.4c-3.5-9.9-7.3-19.9-7.6-30.4
			c-0.3-13.8-0.8-27.6,0.6-41.4c1.2-11.9,4.5-23,9.3-33.6c8-17.3,19.9-31.7,34.9-43.5c22.8-18,47.6-31.3,77.6-32.5
			c4.1-0.2,6.9-1.6,6.5-6.9c-0.8-10,1.1-19.9,2.9-29.8c1.3-7.2,4.3-13.9,5-21.3c0-0.6,0-1.2,0-1.8c1.2-0.7,1.6-1.8,2.2-3.1
			c2.7-6.4,4.3-13.2,8.1-19.2c9.1-14.3,21.8-25.3,33.6-37.1c5-5,10.8-9.6,17-13.3c13.1-7.8,27.6-10.6,42.5-12.9
			c16.9-2.7,33.2-0.5,49.6,1.9c3.1,0.5,5-0.2,6.1-3.7c2.6-7.8,5-15.7,8.6-23.2c11.8-24.7,28-45.5,50.5-61.5
			c27-19.2,56-28.2,89.3-21.3c24.2,5,45.9,14.9,64.5,30.8c18.1,15.5,31,35.1,39.7,57.5c7.9,20.3,10.4,40.7,5.6,62.4
			c-3.2,14.3-8.3,27.9-12.7,41.8c-0.7,0.3-1.7,0.4-1.4,1.6c-1.7,3.5-3.3,7.1-5,10.6c-0.2,1.2,0.1,2,1.5,2c-1.8,0.3-1.8,1.8-2.1,3.1
			c-3.5-2.5-3,1.3-4.1,2.6c-0.5,0.3-1.3,0.4-1,1.4c-0.3,0.5-0.1,0.9,0.4,1.1c-2,0.1-2.3,1.3-2.2,3c0,0,0.1,0,0.1,0
			c-2.6,1.3-3.8,3.7-5.1,6.1c-0.6,0.1-0.8,0.5-0.8,1c-1.1,0.7-2.2,1.5-2.2,3c-0.6,0.1-0.8,0.4-0.8,1
			C1017.5,351,1016,351.9,1015.7,353.8z M725.3,526.2c-0.3-0.5-0.4-1.1-0.8-1.3c-1-0.6-2-0.1-2.5,0.7c-1.4,2.1-4.3,2.9-4.8,5.8
			c0,0.2,0.8,0.7,1,0.7C721.3,530.9,723,528.3,725.3,526.2z M714.6,535.7c0.7-0.7,2.2-1.2,2.3-2.9c0-1.1-0.7-1.3-1.7-0.9
			c-1.5,0.5-2.6,1.6-2.6,3.2C712.7,535.7,713.4,536.1,714.6,535.7z"/>
		<path class="st1" d="M1399.6,343c-0.3,0.2-0.5,0.5-0.8,0.7c-1.5,1.4-3,2.8-4.5,4.3c0,0-0.4,0.1-0.4,0.1s-0.1,0.4-0.1,0.4
			c-5,3.6-8.9,8.3-13.2,12.5c-0.6,0.6-1.2,1.1-1.8,1.7c-1.5,1.4-3,2.9-4.5,4.3c-0.5,0.5-1,1-1.5,1.4c-4.4,4.2-8.8,8.4-13.2,12.5
			c-0.6,0.6-1.2,1.1-1.8,1.7c-1.7,1.7-3.5,3.4-5.2,5.1c0,0,0-0.1,0-0.1c-4.9,3.7-9.1,8.1-13.2,12.7c0,0,0.1,0.2,0.1,0.2
			c-1-0.1-1.4,0.6-1.8,1.3c0,0,0.1-0.1,0.1-0.1c-1.5,1.4-3,2.8-4.4,4.1c-0.5,0.5-1,1-1.5,1.4c-4.1,3.1-7.6,6.8-11.1,10.5
			c0,0,0.1-0.1,0.1-0.1c-1.6,1.1-3.1,2.3-4.1,4c0,0,0-0.1,0-0.1c-4,3-7.5,6.5-11,10.1c0,0,0.1-0.1,0.1-0.1c-1.6,1.1-3.1,2.3-4.1,4
			c0,0,0-0.1,0-0.1c-3.5,2.4-6.5,5.4-9.2,8.7c0,0-0.2,0.2-0.2,0.2c-1.7,0.6-2.8,2.1-3.9,3.4l-0.4,0.1c0,0-0.1,0.4-0.1,0.4
			c-3.4,2.7-6.6,5.6-9.4,9c0,0,0.2,0.2,0.2,0.2c-1.1-0.2-1.6,0.6-2.1,1.3c-0.2,0.2-0.5,0.5-0.7,0.7c-1.5,1.4-3,2.9-4.5,4.3
			c-0.5,0.5-1,1-1.5,1.4c-6,4.7-11.1,10.5-16.3,16c0,0-0.2,0.2-0.2,0.2c-1.6,0.7-2.7,1.9-3.6,3.2c0,0,0-0.1,0-0.1
			c-0.6,0.3-1.3,0.4-1.7,0.8c-9.2,9.8-20.5,16.2-32.9,20.8c-7,2.6-14.1,2.5-21.3,0.1c-7.2-2.4-12.7-7.1-17.9-12.1
			c-12-11.7-23.9-23.6-35.8-35.4c0,0,0.1,0.1,0.1,0.1c-5.4-4.9-14.5-1.1-17.2,7.1c-1.6,1.6-3.3,3.2-4.9,4.9c-4.2,0-4.8-3.9-6.7-6.3
			c-10.1-12.6-21.6-23.7-34.3-33.5c-2.5-1.9-1.7-2.9,0.2-4.4c3.7-2.8,7.3-5.8,10.5-9.2c2.6-2.7,3.6-5.7,3.4-9.5
			c-0.2-3.4-2.4-5.4-4.4-7.5c-11.5-12.3-23-24.4-33.5-37.6c-8-10.1-11.5-21.3-8.1-34.1c1.2-4.4,4.3-8.1,4.8-12.7
			c0.2-0.2,0.3-0.4,0.1-0.7c4.1-2,5.9-6.1,8.8-9.2c12.7-13.1,26.2-25.4,39.4-38c10.4-9.9,21.5-19.1,30.9-30c0,0-0.1,0.1-0.1,0.1
			c9.3-7.7,18-16.1,26.1-25.1c0,0-0.1,0.1-0.1,0.1c8-6.4,15.3-13.4,22.1-21.1c0,0-0.1,0.1-0.1,0.1c3.7-1.8,6.1-5.1,8.9-7.8
			c8.7-8.5,18.2-16,26.1-25.2c0,0-0.1,0.1-0.1,0.1c9.9-8.1,19.2-16.8,28.1-26.1c0,0-0.1,0.1-0.1,0.1c2.9-1.1,4.6-3.7,7-5.5
			c5.7-4.2,10.4-9.7,17.6-11.9c8.8-2.7,15.3,1.9,15.3,11c0,7.5-4.7,12.6-9,17.7c-5.3,6.1-11.4,11.6-17.2,17.3c0,0,0-0.1,0-0.1
			c-10.5,8.2-19.7,17.8-29.1,27.2c-1.9,1.2-3.5,2.8-4.8,4.7c-1.8,1.8-3.7,3.6-5.5,5.3c-1.5,0.9-2.6,2-3.5,3.5
			c-8.1,7.4-16,14.9-23.4,23c0,0,0.2,0.2,0.2,0.2c-1.1-0.2-1.5,0.6-2,1.3c-1.9,1.2-3.5,2.8-4.8,4.7c-2.5,2.4-5,4.9-7.5,7.3
			c-1.1,0.5-2,1.3-2.5,2.5c-10.2,9.2-19.9,18.9-29.4,29c0,0,0.2,0.2,0.2,0.2c-1.1-0.2-1.5,0.7-2,1.3c-1.6,1-2.8,2.2-3.8,3.8
			c-0.7,0.5-1.6,0.9-1.3,2c0,0,0.2,0,0.2,0c-0.9-0.2-1.3,0.2-1,1.1c0,0,0-0.1,0-0.1c-0.9-0.2-1.3,0.2-1,1.1l-0.1-0.3
			c0,0-0.3,0-0.3,0c-3.6,2.5-6.2,5.9-8.8,9.3c-3.1,4.1-3.8,8.5-1.5,12.8c4,7.6,8.6,14.4,17.4,17.7c6.7,2.5,12.1,1.9,17.3-2.7
			c6.1-5.4,12.3-10.7,18.2-16.2c5.1-4.7,10.8-8.8,15.1-14.3c0,0-0.1,0.1-0.1,0.1c7.6-5.7,14.6-12,21.1-19.1c0,0-0.1,0.1-0.1,0.1
			c4.2-2.7,8-6,11.1-10.1c0,0-0.1,0.1-0.1,0.1c4.2-2.7,8-6,11.1-10.1c0,0-0.1,0.1-0.1,0.1c4.3-2.7,8-6.1,11.1-10.1
			c0,0-0.1,0.1-0.1,0.1c4.3-2.7,8-6.1,11.1-10.1c0,0-0.1,0.1-0.1,0.1c4.2-2.8,8-6,11.1-10.1c0,0-0.1,0.1-0.1,0.1
			c4.2-2.8,8-6,11.1-10.1c0,0-0.1,0.1-0.1,0.1c4.2-2.8,8-6.1,11.1-10.1c0,0-0.1,0.1-0.1,0.1c4.2-2.8,8-6.1,11.1-10.1
			c0,0-0.1,0.1-0.1,0.1c6.2-3.7,10.5-9.9,17.2-13.2c6-3,11.6-4.7,17.6-0.4l0.1,0.4c0,0,0.4,0.1,0.4,0.1c1.1,1.9,1.3,3.9,1.7,6.1
			c1.2,7.3-2.4,12.6-6.7,17.7c-4.8,4.8-9.6,9.6-14.5,14.4c-5.4,5.2-10.8,10.4-16.2,15.6c-0.6,0.6-1.2,1.1-1.8,1.7
			c-1.8,1.8-3.7,3.5-5.5,5.3c0,0-0.4,0.1-0.4,0.1s-0.1,0.4-0.1,0.4c-5.1,4.8-10.2,9.7-15.2,14.5c-0.3,0.2-0.5,0.5-0.8,0.7
			c-1.8,1.8-3.7,3.5-5.5,5.3l-0.4,0.1c0,0-0.1,0.4-0.1,0.4c-5.1,4.1-9.6,8.8-14.1,13.5c0,0,0.1-0.1,0.1-0.1
			c-1.8,1.7-3.6,3.4-5.4,5.1l-0.4,0.1c0,0-0.1,0.4-0.1,0.4c-4.4,3.6-8.6,7.5-12.4,11.9c0,0-0.2,0.2-0.2,0.2
			c-1.6,0.6-2.7,1.8-3.6,3.2c0,0,0-0.1,0-0.1c-4,3-7.6,6.4-11,10c0,0,0-0.1,0-0.1c-3.4,2.2-6.2,5.1-9,8.1c0,0,0-0.1,0-0.1
			c-3.5,2.2-6.2,5.1-9,8.1c0,0,0-0.1,0-0.1c-3.4,2.3-6.2,5.2-9,8.2c0,0,0.1-0.1,0.1-0.1c-1.8,1.7-3.6,3.4-5.4,5.2
			c-1.1,0.6-2,1.3-2.5,2.5c-3.5,2.7-6.8,5.6-9.2,9.4c0,0,0.1,0,0.1,0c-4.4,4.3-6.7,10.6-4.3,13.8c2.3,3,4,6.5,7.3,8.7
			c0,0-0.1,0-0.1,0c3.1,4.3,6.6,8.1,11.2,10.7c5,2.9,10.4,4.9,15.8,1c4.7-3.4,9.1-7.1,12.6-11.8c0,0-0.1,0.1-0.1,0.1
			c1.7-0.4,2.7-1.9,3.9-3c7.1-6.8,14.3-13.4,21.2-20.3c10.3-10.3,21.3-19.8,31-30.7c0,0-0.1,0.1-0.1,0.1c0.9-0.6,2-1.2,2.8-1.9
			c8.4-7.8,16.8-15.7,25.2-23.5c13.7-12.8,27.4-25.5,41.2-38.2c6.7-6.1,13-12.7,20.8-17.5c6.4-4,12.9-4.4,19.6-0.7
			c0,0-0.1-0.1-0.1-0.1c3.9,7,1.9,13.3-2,19.5c0,0,0.1,0,0.1,0c-2.1,2.4-4.3,4.8-6.4,7.2c-3.1,2.5-5.9,5.3-8.5,8.5
			c-6.1,4.4-10.7,10.5-16.2,15.6c-1.2,0.6-2.1,1.5-2.8,2.7c-2.2,2.1-4.3,4.2-6.5,6.3c-1.1,0.5-2,1.3-2.5,2.4
			c-9.4,7.8-17.5,17-26.2,25.5c-2.9,2.2-5.5,4.8-7.8,7.6c-1.8,1.8-3.6,3.6-5.5,5.4c-3.1,2.5-6,5.3-8.5,8.4c-4.6,2.6-7.3,7-11,10.5
			c-11.6,11.4-22.9,23-34.4,34.5c0,0,0.2,0.2,0.2,0.2c-1.1-0.2-1.5,0.7-2,1.3c-2.9,2.3-5.5,4.8-7.8,7.8c-2.6,2.1-4.8,4.6-6.7,7.4
			c-4.5,6.5-4.5,14.3,0,20.6c3.1,4.3,6.9,8,11.6,10.7c4.6,2.6,9.4,4,14.3,1c5.9-3.7,11.5-7.8,16.1-13.2c0,0-0.1,0.1-0.1,0.1
			c8.3-6,16.1-12.6,23.1-20.1c0,0-0.1,0.1-0.1,0.1c7.3-5.3,14-11.4,20.1-18.1c0,0-0.1,0.1-0.1,0.1c4.2-2.8,8-6.1,11.1-10.1
			c0,0-0.1,0.1-0.1,0.1c4.5-3.1,8.7-6.7,12.1-11.1c0,0-0.1,0.1-0.1,0.1c5-3.4,9.3-7.4,13.1-12.1c0,0-0.1,0.1-0.1,0.1
			c6-4.4,11.3-9.4,16.1-15.1c0,0-0.1,0.1-0.1,0.1c7.3-5.7,14-12,20.1-19.1c0,0-0.1,0.1-0.1,0.1c5.6-4.1,10.7-8.7,15.1-14.1
			c0,0-0.1,0.1-0.1,0.1c4.1-3,8.2-6.2,12.4-9.1c4.1-2.8,8.3-5.8,13.6-5c3.9,0.6,9,0.7,9.7,5.8c1.2,8-0.9,15.3-7.1,21.1
			c-5.5,5.1-10.7,10.6-16.1,15.9c-0.3,0.2-0.5,0.5-0.8,0.7c-1.2,1.1-2.3,2.2-3.5,3.3l-0.4,0.1c0,0-0.1,0.4-0.1,0.4
			C1407.1,336,1403.4,339.5,1399.6,343z"/>
		<path class="st1" d="M637.1,314.3c0,0.6,0,1.2,0,1.8c-2.6-0.1-2.5,2-3.1,3.7c-5.1,15.4-7.4,31.2-7.9,47.3c-0.1,2.2,0.4,4.2-3.1,4
			c-10.5-0.5-20.3,3-30.2,5.9c-3.8,1.1-7.3,3.9-11.7,2.9c0,0,0.2,0,0.2,0c-11.9-18.2-23.9-36.4-35.8-54.7
			c-16-24.6-30.2-50.1-41.7-77.1c-8.3-19.5-13.4-39.7-15.4-60.7c-1.1-11.4-0.6-23,0-34.4c0.2-4,1.5-8.3,3.5-12.2
			c1.7-3.2,2.8-2.7,5-0.6c4.6,4.5,9.4,8.8,14.2,13.2c0.6,0.6,1.2,1.2,1.8,1.7c0.5,0.7,0.9,1.6,2,1.3c0,0,0-0.2,0-0.2
			c-0.2,0.9,0.2,1.3,1.1,1c0,0-0.1,0-0.1,0c-0.2,0.9,0.2,1.3,1.1,1c0,0-0.2,0-0.2,0c-0.2,1.1,0.7,1.5,1.3,2c0.6,1.2,1.6,2.1,2.8,2.8
			c0.5,0.7,0.9,1.6,2,1.3c0,0-0.2,0.2-0.2,0.2c13.6,14.4,28,28.1,42.4,41.7c0.6,0.6,1.2,1.2,1.8,1.7c0.5,0.7,0.9,1.6,2,1.3
			c0,0-0.2,0.2-0.2,0.2c13.6,14.4,27.9,28,42.3,41.5c0,0-0.1-0.1-0.1-0.1c0.4,0.7,0.8,1.5,1.9,1.3c0,0,0.1-0.2,0.1-0.2
			c-0.2,0.9,0.2,1.3,1.1,1l-0.3,0.1c0,0,0,0.3,0,0.3c9.8,10.3,19.8,20.4,30.4,29.9c0.6,1.1,1.4,2.1,2.6,2.5c0.5,0.7,1,1.4,0.3,2.2
			c-3.6,4.3-5.4,9.5-7.6,14.5C637.9,306.3,634.6,309.8,637.1,314.3z"/>
		<path class="st1" d="M817.7,747.9c-1.9,1.2-3.4,2.7-4.7,4.5c-4.1,2.5-6.9,6.5-10.5,9.6c-11.4,9.7-21.8,20.5-32.6,30.9
			c0,0,0.1-0.1,0.1-0.1c-5.4,4.3-10.3,9.2-15.2,14.1c-0.3,0.2-0.5,0.5-0.8,0.7c-5,4.3-10,8.6-14.3,13.7c0,0,0.1,0.2,0.1,0.2
			c-1-0.1-1.4,0.6-1.8,1.3c0,0,0.1-0.1,0.1-0.1c-5.4,4.3-10.3,9.1-15,14.1c0,0,0.1-0.1,0.1-0.1c-5.4,4.5-10.7,9.2-15.3,14.6
			c0,0,0,0.2,0,0.2c-6.2,4.4-11.4,10-16.8,15.3c0,0,0.1-0.1,0.1-0.1c-5.8,4.5-11,9.7-16.1,15.1c0,0,0.1-0.1,0.1-0.1
			c-10.4,9.7-20.8,19.4-31.2,29.1c-0.3,0.2-0.5,0.5-0.8,0.7c-6.4,5.8-12.9,11.5-19.1,17.4c-2.4,2.2-4,2.1-6.2-0.2
			c-6.8-7.1-13.8-13.9-20.7-21c-4.8-5-9.5-10.1-14.3-15.2c-1.8-1.9-1.9-3.3,0.6-5.1c3.4-2.4,6.7-4.9,9-8.5c0,0-0.1,0.1-0.1,0.1
			c1.1-0.7,2.3-1.3,3.3-2.2c34.4-31.2,68.9-62.5,103.2-93.8c4.6-4.2,9.9-7.8,13.6-13c0,0-0.1,0.1-0.1,0.1c4.3-2.7,7.9-6.1,11.1-10.1
			c0,0-0.1,0.1-0.1,0.1c4.1-2.3,7.1-5.9,10.5-9.1c0.2-0.3,0.3-0.6,0.5-0.8c4.3-2.8,8-6.1,11.1-10.1c0,0-0.1,0.1-0.1,0.1
			c4.3-2.7,8-6.1,11.1-10.1c0,0-0.1,0.1-0.1,0.1c4.1-2.3,7.2-5.9,10.5-9.1c0.2-0.3,0.3-0.6,0.5-0.8c4.3-2.8,8-6.1,11.1-10.1
			c0,0-0.1,0.1-0.1,0.1c1.8-0.7,3.4-1.7,4.6-3.3c1-1.3,2.3-2.5,4-0.9c8.4,11.6,17.2,22.9,28.5,31.9c2.4,1.9,5.5,3.1,6.8,6.2
			C820.2,744.8,819,746.4,817.7,747.9z"/>
		<path class="st1" d="M1267,924.7c-0.3-0.3-0.6-0.5-0.8-0.8c-3-4.4-7.3-7.6-11.2-11.2c-7-6.3-13.1-13.5-20.9-18.9
			c0,0,0.1,0.1,0.1,0.1c-5.5-6.9-12.4-12.3-18.7-18.3c-4.6-4.4-8.8-9.3-14.3-12.8c0,0,0.1,0.1,0.1,0.1c-5.1-6-10.7-11.4-17.1-16.1
			c0,0,0.1,0.1,0.1,0.1c-2.5-4-6.3-6.7-9.7-9.8c-8.2-7.3-15.4-15.7-24.3-22.3l0,0c-1.1-1.3-2-2.6-3.2-3.8
			c-15.6-14.9-31.3-29.8-47-44.7c-0.9-0.8-1.7-1.6-2.9-1.7c-0.3-0.3-0.6-0.5-0.8-0.8c-6.8-7.7-14.4-14.4-22-21.2l0,0
			c-2.5-2.4,0.1-3.3,1.4-4.5c11-9.7,22.2-19.2,31.5-30.7c2.4-3,4.7-4.2,7.7-0.4c1.6,2,4,3.5,6,5.2c0,0,0-0.1,0-0.1
			c0.6,1.1,1.3,2,2.6,2.3c0,0,0.2,0.2,0.2,0.2c2.7,3.3,5.6,6.3,9.2,8.6c0,0,0-0.1,0-0.1c0.6,1.1,1.4,2,2.6,2.3c0,0,0.2,0.2,0.2,0.2
			c2.3,3,5.2,5.4,8.2,7.6c0,0,0-0.1,0-0.1c0.9,1.4,2,2.6,3.6,3.2c0,0,0.2,0.2,0.2,0.2c2.3,3,5.2,5.4,8.2,7.6c0,0,0-0.1,0-0.1
			c0.7,1.3,1.9,2.2,3.1,3c0,0-0.1-0.1-0.1-0.1c2.4,2.6,4.9,5.2,7.9,7.2c0,0,0-0.1,0-0.1c0.7,1.3,1.8,2.2,3.1,3c0,0-0.1-0.1-0.1-0.1
			c0.4,0.5,0.8,1.1,1.3,1.5c13.4,12.4,26.8,24.9,40.4,37.3c9.5,8.6,19.2,17,28.9,25.5c0,0,0.2,0.2,0.2,0.2
			c11.1,11.1,22.7,21.7,34.8,31.8c0,0,0.2,0.2,0.2,0.2c11.1,11.3,23.1,21.6,34.9,32.2c3.3,3,3.9,4.9,0.3,8.1c-4,3.6-7.4,7.9-11.1,12
			c-0.2,0.2-0.5,0.5-0.7,0.7c-0.7,0.5-1.6,0.9-1.3,2.1c0,0,0.2,0,0.2,0c-0.9-0.2-1.3,0.2-1,1.1l-0.1-0.3c0,0-0.3,0-0.3,0
			c-4.6,4.5-9.2,9-13.9,13.4c-2.4,2.3-3.4,6.1-6.8,6.9C1271.4,930.8,1270.5,925.5,1267,924.7z"/>
		<path class="st2" d="M822,744c-1.3-3.1-4.4-4.3-6.8-6.2c-11.3-9-20.1-20.3-28.5-31.9c1,0,2,0.1,3,0.1c0.8,3,3.5,4.8,5.4,7
			c6.9,8.5,14,16.8,22.7,23.4c18.9,14.3,39.6,24.6,62.6,30.6c14.3,3.7,28.8,6.9,43.4,7.7c16.4,0.9,33,0.8,49.5-1.6
			c16-2.3,31.4-6.4,47.1-10c6-1.4,11-4.8,16.8-6.4c1-0.3,2-1.5,2.9,0.1c0.8,1.5-0.6,2.4-1.4,2.7c-4.7,1.2-8.9,3.5-13.6,4.6
			c-3.9,0.9-8.4,1.2-11.4,4.7c-0.6,0-1.2,0.1-1.9,0.1c-1.8,0.1-3.7-0.2-5.4,0.2c-18.3,4.3-36.6,8.1-55.4,7.9
			c-0.3-0.2-0.6-0.2-0.9-0.1c-0.8,0-1.7,0-2.1,1c-0.8-0.1-1.6-0.2-2.5-0.2c-15.2,0.3-30.2-0.8-45.2-3.6c-4.7-0.9-9.3-3-14.3-2.1
			c-0.4-0.9-1-1.5-2.1-1.1c-15-4.8-30.5-8.4-44.1-16.8c-1.5-0.9-3-0.5-3.7,1.2c-5.8,14.2-9.2,28.9-9,44.4c0,0.7-0.1,1.4-0.1,2
			c-1.6,1.8-1.9,4-2,6.2c-0.1,10.2-0.2,20.4-0.2,30.7c0,1.5-0.7,3.4,1.2,4.5c0,0.6,0,1.1,0,1.7c-0.8,0.3-2.5,0.3-1.7,1.6
			c1.1,1.8,0.7,3.5,0.7,5.3c0,15.6,5.3,29.6,12.3,43.1c5.4,10.5,12.9,19.3,22.4,26c9.4,6.6,19.1,13.6,32.2,10.3
			c18.7-4.6,35.2-12.4,44.3-30.3c4-8,5.5-17.2-0.2-25.7c-0.3-0.7-0.6-1.4-0.9-2.1c4.6,0,9.3-0.1,13.9-0.1c0.8,0,1.6-0.1,2.4-0.1
			c4.6,0.1,9.1,0.2,13.7,0.3c0,0.3,0,0.7,0.1,1c-5.8,6.7-5.5,22.8,0.2,30.7c8.5,11.9,20.5,19,33.3,24.8c7.8,3.5,16.3,3.7,24.8,0.7
			c11.4-4,19.9-11.7,28-20.1c9.8-10.1,15.5-22.4,19.6-35.5c3-9.2,3.2-19,3.2-28.7c1.1-0.2,1.4-0.7,1.4-2c0.1-2.8-0.4-5.9,1.8-8.3
			c0.3,0,0.5,0,0.6,0.3c-0.3,0.7-0.5,1.4-0.8,2.1c-0.5,10.6,0.4,21.3-2.2,31.7c-7.8,31-25.5,53.6-56,65.2
			c-20.1,7.6-40.8,11.7-62.3,11c-12.8-0.4-25.6,0.5-38.4-0.9c-15.1-1.6-28.9-7-42.7-12.9c-32.5-13.8-47.7-40.2-52.2-73.4
			c-2.8-20.7-1.9-41.7,1.2-62.6c2.2-14.5,3.9-28.9,9.7-42.5c0.7-1.6,0.7-3-0.9-3.9c-3.5-1.8-6.4-4.7-10.3-5.8
			C822.7,744,822.4,744,822,744z"/>
		<path class="st3" d="M1049.9,316.1c-0.5,4.6-3.7,8.3-4.8,12.7c-3.4,12.9,0.1,24,8.1,34.1c10.4,13.2,22,25.3,33.5,37.6
			c2,2.1,4.2,4.1,4.4,7.5c0.2,3.8-0.8,6.7-3.4,9.5c-3.2,3.4-6.8,6.4-10.5,9.2c-1.9,1.5-2.7,2.5-0.2,4.4c12.7,9.8,24.2,21,34.3,33.5
			c1.9,2.4,2.5,6.3,6.7,6.3c-1.1,2,0.2,3.3,1.2,4.9c3.3,5.3,7.5,10.1,9.8,16c-0.8,0.1-1.6,0.2-2.3,0.3c-5.1-7.4-10.2-14.7-15.3-22.1
			c-11.2-16.3-26-28.8-41.4-40.9c-7.9-6.1-16.1-11.6-24.6-16.8c-1.5-0.9-2.9-2-5.1,0c-7.1,6.6-14.8,12.7-22.1,19.1
			c-14.4,12.6-28.7,25.2-43,38c-14.5,13-29,26-43.3,39.3c-14.5,13.4-29.3,26.5-43.7,39.9c-12.4,11.6-25.4,22.5-37.6,34.2
			c-9.7,9.2-19.8,18-29.8,26.9c-8,7.2-15.9,14.4-23.9,21.5c-0.9,0.8-2.7,3.4-3.7-0.3c13.5-12.2,27-24.4,40.5-36.6
			c2.9-2.7,5.9-5.4,8.8-8c1.2-1,1.6-1.7,0.3-3.2c-8.2-9.3-16.3-18.7-24.3-28.2c-2.8-3.3-4.5-0.2-6,1.1c-6.1,5.3-11.9,10.9-17.8,16.4
			c-1.6,1.5-3.1,3.2-6.4,1.9c7.5-6.8,14.5-13.3,21.8-19.5c4.8-4.1,4.8-4.2,0.6-8.8c-5.1-5.6-10.2-11.3-15.1-17
			c-4.4-5.1-5.8-5.3-10.7-0.7c-3.7,3.5-6.9,7.6-11.3,10.3c-1.1,0.7-2.1,2.3-3.3,0.8c-0.9-1.1,0.6-2,1.4-2.8c4.7-4.4,9.4-8.9,14.3-13
			c2.4-2,2.4-3.6,0.5-5.8c-6.6-7.6-13.3-15.2-19.8-22.9c-1.8-2.1-2.9-2.4-5.1-0.5c-10.7,9.6-21.5,18.9-32.3,28.4
			c-1.5,1.3-2.7,2.8-5.3,2.1c1.4-3.4,4.1-5.2,6.3-7.1c13.7-11.9,27.4-23.9,40.9-36c11.4-10.3,23.2-20.1,34.8-30.2
			c12.7-11.1,25.2-22.4,37.9-33.6c9.7-8.5,19.5-16.8,29.2-25.4c11.5-10.2,22.7-20.8,34.3-31c6.8-6,13.5-12.2,20.3-18.2
			c8.3-7.3,16.5-14.8,25.2-21.6c3.7-2.9,6.1-2.3,9,0.4c6.2,5.8,12.6,11.3,18.6,17.3c6.7,6.7,14.3,12.4,20.4,19.6
			c0.6,0.7,2.7,0.8,1.4,2.4c-1,1.2-2.1,0.2-3-0.6c-2.3-1.9-4.6-3.8-6.8-5.9c-10.8-10.1-21.6-20.2-32.2-30.4c-2.4-2.3-4.5-2-6.5-0.3
			c-7.4,6.3-14.8,12.6-22,19.1c-12.5,11.3-24.9,22.7-37.7,33.8c-6.9,5.9-13.4,12.3-20.3,18.2c-10.9,9.4-21.6,18.9-32.4,28.4
			c-9.5,8.4-18.9,17-28.4,25.4c-13.7,12.1-27.4,24.1-41.2,36.1c-5.7,5-5.9,5.2-0.9,10.4c6.4,6.7,12.2,14,17.9,21.3
			c1.5,1.9,2.3,1.6,3.9,0.2c4.9-4.5,9.9-8.8,14.9-13.1c1-0.9,2-1.9,3.8-0.9c-4,5.7-9.4,9.8-14.8,14c-3,2.3-4.8,3.8-1.1,7.6
			c6.4,6.4,12.1,13.5,18,20.5c2.2,2.6,3.6,2.7,6.3,0.2c6.7-6.3,13.8-12.2,20.8-18.3c0.8-0.7,1.8-2.2,2.8-1.1
			c1.2,1.3-0.1,2.1-1.2,3.1c-6.9,6.1-13.7,12.2-20.5,18.3c-2,1.9-3.5,3.4-0.8,6.4c7.9,8.6,15.4,17.6,23.1,26.5
			c1.3,1.6,2.3,2.4,4.3,0.6c16.3-14.9,32.6-29.6,49-44.4c19-17.3,37.9-34.7,57-51.9c18.1-16.3,36.3-32.4,54.5-48.6
			c10.6-9.4,21.3-18.8,32.1-28.1c2.2-1.9,2.1-3.1,0.2-5.2c-2.6-2.9-6.8-4.5-7.6-8.9c5.1,3.6,11.7,5.9,12,13.8c0,1.7,1.6,2.1,2.6,2.7
			c7.4,4.7,14.9,9.3,21.7,14.9c1.7,1.4,3.3,1.7,5.3,0.1c4.2-3.5,8.8-6.4,12-11.1c2.3-3.4,2.7-6.5,0.1-9.5
			c-5.4-6.3-10.8-12.6-16.6-18.4c-7.6-7.7-14.8-15.8-21-24.5c-9.8-13.9-10.6-27.2-2.9-43.6C1047.5,317,1048.4,316.1,1049.9,316.1z"
			/>
		<path class="st2" d="M581.1,379.9c4.4,1,7.8-1.8,11.7-2.9c9.9-2.9,19.7-6.4,30.2-5.9c3.5,0.2,3-1.9,3.1-4
			c0.5-16.1,2.9-32,7.9-47.3c0.5-1.6,0.5-3.7,3.1-3.7c-0.7,7.3-3.7,14.1-5,21.3c-1.8,9.9-3.7,19.8-2.9,29.8c0.4,5.3-2.3,6.7-6.5,6.9
			c-29.9,1.2-54.7,14.4-77.6,32.5c-15,11.8-26.9,26.3-34.9,43.5c-4.9,10.5-8.2,21.7-9.3,33.6c-1.4,13.8-0.9,27.7-0.6,41.4
			c0.3,10.4,4.1,20.5,7.6,30.4c4.6,13,11.5,24.5,19.8,35.4c4.4,5.7,10.3,9.8,15.4,14.7c10.8,10.1,23,18.2,36.7,23.9
			c12.1,5,24.6,9.1,37.7,10.6c24.1,2.8,46.8-2.2,69-11c10.4-4.1,20.8-8.3,29.8-15.3c2.7-2.1,5.4-4.4,7.8-6.9c2.4-2.5,3.5-4.8,1-8.7
			c-9.2-14.5-17.8-29.4-26.8-44.1c-2.2-3.7-2.6-6.5,1.7-9c3.6-2.1,5.5-6.5,10.7-7.8c-2,4.5-5.4,6.4-8.3,9c-1.5,1.3-4.7,1.9-2.1,6
			c9.6,15.2,18.3,31,27.9,46.4c11.4,18.4,22.9,36.8,33.7,55.5c1.9,3.3,3.8,1.6,5.6,0c7.8-7.1,15.6-14.3,23.4-21.5
			c0.7-0.7,1.6-1.2,2.4-1.8c2.2,1.2,1,2.2-0.1,3.4c-5.8,5.8-11.8,11.2-18.2,16.3c-7.3,5.8-7.3,5.8-4.3,15c0.2,0.8,0.2,1.6,0.2,2.4
			c-0.6,0-1.2,0-1.8,0c-1.3-5-4.6-8.2-8.1-11.9c-4.8-5.1-7.7-12-11.4-18.1c-5.9-9.7-11.7-19.3-17.6-29c-1.5-2.5-2.9-4-5.5-0.9
			c-9.3,10.8-21.7,16.9-34.6,22c-20.7,8.2-41.8,14.4-64.5,13c-28.8-1.7-55-10.8-77.6-28.9c-10.4-8.3-20.7-16.9-28.5-27.8
			c-11.4-16-18.7-33.9-21.7-53.1c-3.8-24.7-3.4-49.3,4.5-73.4c7.5-22.7,21.7-40.6,39.9-55.6c10.2-8.4,21.4-15.2,33.4-20.8
			C579,382.6,581,382.3,581.1,379.9z"/>
		<path class="st2" d="M637.1,314.3c-2.5-4.4,0.8-8,2.3-11.5c2.1-5,4-10.2,7.6-14.5c0.6-0.8,0.1-1.5-0.3-2.2c1.6,0.2,2.3-0.9,3.2-2
			c8.6-10.1,18-19.6,27.4-28.9c16.7-16.6,36.4-25.8,59.9-28.4c16.3-1.8,32.4-2.2,48.5,1c7.3,1.5,7.6,0.9,9.9-6.2
			c7.9-24.2,20-46.1,38.1-64.2c17.8-17.7,38.4-31.2,62.9-38c19.9-5.5,39.9-4.4,59.5,1.4c25.3,7.5,47.9,19.9,65.8,39.7
			c18.7,20.7,31.3,44.7,36.7,72c3.7,18.9,0.2,37.7-5.4,55.9c-2.2,7.3-4.8,14.5-7.5,21.7c-0.7,1.8-0.9,4.4-3.6,4.9c0,0,0,0,0,0
			c-0.1-0.5-0.3-1.1-0.4-1.6c4.3-13.9,9.5-27.5,12.7-41.8c4.8-21.6,2.3-42-5.6-62.4c-8.7-22.4-21.5-42-39.7-57.5
			c-18.6-15.9-40.3-25.8-64.5-30.8c-33.3-6.8-62.3,2.1-89.3,21.3c-22.4,16-38.6,36.8-50.5,61.5c-3.6,7.5-6,15.4-8.6,23.2
			c-1.2,3.5-3,4.2-6.1,3.7c-16.5-2.4-32.8-4.6-49.6-1.9c-14.9,2.4-29.3,5.1-42.5,12.9c-6.3,3.7-12,8.3-17,13.3
			c-11.8,11.8-24.4,22.8-33.6,37.1c-3.8,6-5.4,12.8-8.1,19.2C638.7,312.5,638.3,313.6,637.1,314.3z"/>
		<path class="st3" d="M511,153.4c-4.7-4.4-9.6-8.7-14.2-13.2c-2.2-2.1-3.3-2.6-5,0.6c-2,3.9-3.3,8.2-3.5,12.2
			c-0.7,11.4-1.1,23,0,34.4c2,20.9,7.2,41.1,15.4,60.7c11.5,27.1,25.7,52.6,41.7,77.1c11.9,18.2,23.9,36.5,35.8,54.7
			c-2.2,0.4-2.8-1.3-3.7-2.6c-10.9-16.7-22.5-32.9-33.1-49.8c-8.9-14.2-17.9-28.4-25.8-43.2c-7.7-14.4-14.6-29.3-20.4-44.7
			c-7.7-20.5-11.3-41.6-12.6-63.5c-0.6-10.7,0.7-20.9,2.3-31.2c0.1-0.5,0-1,0.2-1.5c2.3-8.2,5.6-9.1,11.6-3.2c3.1,3,6.2,6.1,9.5,8.9
			C510.7,150.4,511.3,151.6,511,153.4z"/>
		<path class="st2" d="M1126.7,492.1c0.8-0.1,1.6-0.2,2.3-0.3c8.1,13.8,12.8,28.8,16.3,44.5c4.1,18.8,6.1,37.6,5.4,56.6
			c-1,24.5-5.7,48.4-15.8,70.9c-0.7-0.3-1.5-0.6-2.2-1c0.6-2,1.1-4,1.8-6c2.6-7.9,5.8-15.6,7.7-23.8c2-8.6,2.9-17.3,4.2-26
			c1.5-9.9,2.2-19.6,1.7-29.5c-0.5-9.4-2.1-18.6-3-27.8c-0.9-8.7-2.9-17.2-5.4-25.5c-2.2-7.2-4.8-14.2-7.2-21.3
			c1.1-1.6-0.2-1.7-1.2-1.9C1129.7,498,1128.2,495,1126.7,492.1z"/>
		<path class="st3" d="M1077.2,838.1c0.3-0.7,0.5-1.4,0.8-2.1c3,0.2,5.5,2,8.3,2.9c21.9,7.4,43.9,14.8,65.8,22.1
			c7.6,2.6,10.7,1.6,15.7-4.6c2.7-3.3,4.4-6.9,4.3-11.4c-0.1-2.3,2-4.9-1-6.5c-3.1-1.6-5.5-4.1-8.9-5c-6.8-1.9-13.4-4.5-20-7
			c-14.2-5.4-28.8-9.5-43.1-14.5c-7.3-2.6-14.7-4.8-22.1-7.2c0-0.6-0.1-1.1-0.1-1.7c17.9,5,35.4,10.8,53,16.8
			c12.1,4.2,24.2,8.6,36.6,13c-0.5-1.8-1.7-2.2-2.5-3c-4.8-4.8-11-8.4-13.8-15.1c8.9,6.6,16.2,14.9,24.3,22.3
			c3.4,3.1,7.2,5.8,9.7,9.8c-4.3,0.8-5.3-4.1-8.9-5.3c-0.3,6-2.1,11.4-5.7,16.1c-4.3,5.7-10,7.6-16.7,5.4
			c-23.3-7.9-46.6-15.8-69.9-23.6C1081.1,838.8,1079.3,837.7,1077.2,838.1z"/>
		<path class="st3" d="M1120.7,712.3c-2-1.7-4.4-3.1-6-5.2c-3-3.8-5.3-2.6-7.7,0.4c-9.3,11.5-20.4,21-31.5,30.7
			c-1.3,1.1-3.9,2-1.4,4.5c-4.1-0.7-7,1.5-10.2,3.6c-2.3,1.5-2.7,2.6-1.4,5c2.2,4.4,4.6,8.7,5.4,13.6c-0.9,0-1.9,0.1-2.8,0.1
			c-0.8-1.1-1-2.4-1.5-3.5c-1.6-3.5-2.7-8-5.5-10c-2.4-1.7-5.8,2.2-8.9,3.4c-0.7,0.3-1.6,0.3-2.3,0.6c-1,0.3-2.2,1.5-2.9-0.2
			c-0.5-1.4,0.8-1.9,1.8-2.4c12.8-6,24.6-13.4,35.1-23c8.7-8,17.2-16.1,24.9-25.1c8.7-10.1,15.5-21.5,22.3-32.8c0.9,0,1.9,0,2.8,0.1
			c-3.9,8.7-9,16.8-14.9,24.3c-3.1,4-3.6,6.9,0.7,10.2C1118.6,707.8,1121.3,709.1,1120.7,712.3z"/>
		<path class="st3" d="M712.2,770.1c-3.7,5.2-9,8.8-13.6,13c-34.3,31.4-68.8,62.6-103.2,93.8c-1,0.9-2.2,1.5-3.3,2.2
			c0.8-4.6,4.9-6.6,7.8-9.3c8.7-8.2,17.8-15.9,26.6-23.9c17.7-16,35.4-32,53.1-48.1c9.1-8.3,18.1-16.6,27.1-25
			C708.3,771.3,709.6,769.4,712.2,770.1z"/>
		<path class="st3" d="M1385.7,228.4c-6.7-3.8-13.2-3.3-19.6,0.7c-7.8,4.8-14.1,11.4-20.8,17.5c-13.8,12.7-27.5,25.4-41.2,38.2
			c-8.4,7.8-16.8,15.7-25.2,23.5c-0.8,0.8-1.9,1.3-2.8,1.9c-0.4-2.2,1.4-3.3,2.7-4.5c22.1-20.8,44.2-41.7,66.5-62.3
			c6.4-5.9,12.6-12.3,20.4-16.6c5-2.8,10.2-4.9,16.1-2.7C1383.7,224.9,1386.2,225.3,1385.7,228.4z"/>
		<path class="st3" d="M1140.1,458.9c11.9,11.8,23.8,23.7,35.8,35.4c5.2,5.1,10.7,9.7,17.9,12.1c7.2,2.4,14.3,2.4,21.3-0.1
			c12.4-4.5,23.7-11,32.9-20.8c0.4-0.4,1.2-0.6,1.7-0.8c0.6,1.8-0.6,2.8-1.7,3.8c-10.2,9.6-21.8,16.8-35.3,20.5
			c-11.7,3.3-22.4,0-31.6-7.5c-14.1-11.6-26.2-25.5-39.3-38.2C1140.5,462,1139.6,460.7,1140.1,458.9z"/>
		<path class="st3" d="M592.2,879c-2.3,3.6-5.6,6.1-9,8.5c-2.5,1.8-2.4,3.1-0.6,5.1c4.8,5.1,9.4,10.2,14.3,15.2
			c6.8,7,13.9,13.9,20.7,21c2.2,2.3,3.8,2.4,6.2,0.2c6.3-5.9,12.7-11.6,19.1-17.4c0.1,1.2,0.3,2.4-0.6,3.3
			c-6.4,5.8-12.7,11.6-19.2,17.3c-2.2,1.9-4.7,0.5-6.3-1.1c-8.4-8.5-17.5-16.3-25.1-25.6c-3.5-4.3-7.9-7.5-11.1-12
			c-2.2-3.1-2.2-5.6,1.3-7.3C585.7,884.2,587,878.7,592.2,879z"/>
		<path class="st3" d="M1129.1,238.2c-9.4,10.9-20.5,20.1-30.9,30c-13.2,12.6-26.7,24.9-39.4,38c-2.9,3-4.7,7.2-8.8,9.2
			c-0.2-1.6,0.4-3.2,1.5-4.1c6.9-6.4,12.2-14.4,19.6-20.3c1.3-1,2.5-2.2,3.7-3.3c16.5-15.8,33-31.6,49.5-47.5
			C1125.7,238.9,1127,237.6,1129.1,238.2z"/>
		<path class="st3" d="M1190.1,286.2c-4.3,5.5-10,9.6-15.1,14.3c-6,5.5-12.1,10.9-18.2,16.2c-5.2,4.5-10.6,5.2-17.3,2.7
			c-8.8-3.3-13.5-10.1-17.4-17.7c-2.3-4.3-1.6-8.7,1.5-12.8c2.6-3.4,5.2-6.8,8.8-9.3c1.4,2.6-1,3.7-2.3,4.8
			c-12.8,10.2-5.7,22.3,4.3,29.6c13.5,9.7,16.6,4.8,27.1-4.1c8.4-7,16.2-14.7,24.2-22.1C1187,286.6,1188.3,285.7,1190.1,286.2z"/>
		<path class="st3" d="M1253.7,161.8c5.8-5.7,11.8-11.2,17.2-17.3c4.4-5,9.1-10.2,9-17.7c0-9.1-6.5-13.7-15.3-11
			c-7.1,2.2-11.9,7.7-17.6,11.9c-2.4,1.8-4.1,4.4-7,5.5c2.9-8,21.8-20.7,30.1-20.2c8.4,0.5,14.6,9.7,11.8,17.6
			c-2,5.7-5.2,10.8-9.3,15.2c-4.4,4.8-9.2,9.2-13.7,13.8C1257.4,161.1,1256,162.7,1253.7,161.8z"/>
		<path class="st3" d="M1240.3,821.4c-9.6-8.5-19.4-16.9-28.9-25.5c-13.6-12.3-26.9-24.8-40.4-37.3c-0.5-0.4-0.8-1-1.3-1.5
			c1.8-0.5,3.1,0.3,4.4,1.5c8.7,8.1,17.5,16.2,26.3,24.3c12.8,11.7,25.6,23.3,38.4,35C1240,818.9,1241.4,819.6,1240.3,821.4z"/>
		<path class="st3" d="M1415.6,328c5.3-5.3,10.6-10.8,16.1-15.9c6.2-5.8,8.3-13.1,7.1-21.1c-0.8-5.1-5.9-5.2-9.7-5.8
			c-5.3-0.8-9.5,2.2-13.6,5c-4.2,2.9-8.3,6.1-12.4,9.1c0-3,2.6-3.9,4.4-5.5c4-3.5,8.2-6.7,13.1-8.9c6.5-3,14.6-2.2,18.3,1.7
			c3.9,4,4.2,11.4,0.8,18.2c-1.6,3.3-3.8,6.2-6.5,8.7c-4.2,4-8.3,8.2-12.3,12.3C1419.3,327.2,1417.9,328.5,1415.6,328z"/>
		<path class="st3" d="M1299.6,905.8c3.7-4,7.1-8.3,11.1-12c3.6-3.2,2.9-5.1-0.3-8.1c-11.7-10.6-23.8-20.9-34.9-32.2
			c1.5-1.1,2.4,0,3.4,0.9c7.5,6.8,14.9,13.6,22.4,20.4c4.2,3.8,8.3,7.5,12.6,11.1c2.1,1.7,2.8,4,1.4,5.6c-4.1,4.8-8.6,9.2-13,13.6
			C1301.8,905.7,1300.5,905.6,1299.6,905.8z"/>
		<path class="st3" d="M1273.1,418.1c-4.6,5.4-10.2,9.5-16.1,13.2c-4.9,3-9.7,1.6-14.3-1c-4.7-2.6-8.5-6.3-11.6-10.7
			c-4.5-6.3-4.5-14.2,0-20.6c1.9-2.7,4.1-5.3,6.7-7.4c0.3,1.8-0.3,3.2-1.5,4.5c-10.5,10.8-6.6,20,1.5,28.1
			c8.7,8.6,15.5,8.3,24.8,0.7C1265.9,422.4,1268.1,418.1,1273.1,418.1z"/>
		<path class="st3" d="M1276.1,310.2c-9.6,10.9-20.7,20.4-31,30.7c-6.9,6.9-14.1,13.6-21.2,20.3c-1.2,1.1-2.1,2.6-3.9,3
			c-0.4-2.2,1.4-3.2,2.7-4.5c7.5-7.3,14.8-14.7,22.5-21.7c8.8-8,17-16.8,25.4-25.2C1272.2,311.4,1273.5,309.5,1276.1,310.2z"/>
		<path class="st3" d="M1247.5,382.4c11.4-11.5,22.8-23.1,34.4-34.5c3.6-3.5,6.4-8,11-10.5c0.5,2.4-1.3,3.6-2.7,5
			c-12.6,12.6-25.2,25.2-37.8,37.7C1251.1,381.3,1250.1,383.8,1247.5,382.4z"/>
		<path class="st3" d="M769.8,792.8c10.8-10.4,21.2-21.2,32.6-30.9c3.6-3.1,6.4-7,10.5-9.6c0.4,2.4-1.3,3.6-2.7,5
			c-12,11.3-24,22.6-35.9,34C773,792.5,771.7,793.3,769.8,792.8z"/>
		<path class="st3" d="M610.9,251.3c-14.4-13.5-28.7-27.2-42.3-41.5c2.6-1.4,3.6,1.1,4.8,2.3c8.5,8.4,17,16.9,25.4,25.3
			c3.3,3.2,7.1,5.9,9.8,9.8C609.6,248.4,611.3,249.3,610.9,251.3z"/>
		<path class="st3" d="M769.1,667.9c0.6,0,1.2,0,1.8,0c4.8,13.4,11.1,26.1,18.9,38.1c-1,0-2-0.1-3-0.1c-1.8-1.6-3.1-0.4-4,0.9
			c-1.2,1.6-2.7,2.7-4.6,3.3c-0.3-2.5,1.6-3.6,3.1-4.8c3.1-2.5,3.1-4.9,0.8-8c-5.8-8-9.2-17.2-12.5-26.5
			C769.2,670,769.2,668.9,769.1,667.9z"/>
		<path class="st3" d="M565,206.4c-14.4-13.6-28.7-27.3-42.4-41.7c1.8-1.2,2.8,0.2,3.8,1.2c12.4,12.3,24.7,24.6,37,37
			C564.4,203.9,565.2,204.9,565,206.4z"/>
		<path class="st3" d="M1201.1,862.8c5.5,3.5,9.7,8.4,14.3,12.8c6.3,6,13.3,11.4,18.7,18.3c-1.8,0.4-3.1-0.4-4.4-1.6
			c-8.8-8.5-17.6-16.9-26.4-25.4C1202.2,865.7,1200.7,864.8,1201.1,862.8z"/>
		<path class="st3" d="M1275.3,853.4c-12-10.1-23.7-20.7-34.8-31.8c1.8-1.2,2.7,0.2,3.8,1.2c10.1,9.2,20.3,18.4,30.4,27.6
			C1275.6,851.3,1276.1,852.2,1275.3,853.4z"/>
		<path class="st3" d="M1212.1,159.2c-8,9.2-17.5,16.8-26.1,25.2c-2.8,2.8-5.2,6.1-8.9,7.8c-0.4-2.2,1.4-3.2,2.7-4.5
			c9.2-8.9,18.4-17.7,27.6-26.6C1208.7,159.9,1210,158.7,1212.1,159.2z"/>
		<path class="st3" d="M1234.1,893.7c7.7,5.4,13.9,12.7,20.9,18.9c3.9,3.5,8.2,6.7,11.2,11.2c-1.8,0.4-3.2-0.4-4.4-1.6
			c-8.6-8.3-17.1-16.5-25.7-24.7C1235,896.5,1233.7,895.5,1234.1,893.7z"/>
		<path class="st3" d="M1220.1,364.1c-3.4,4.7-7.9,8.4-12.6,11.8c-5.4,4-10.7,2-15.8-1c-4.5-2.7-8.1-6.5-11.2-10.7
			c2.3-0.7,3.2,1.2,4.5,2.4c2.3,2.1,4.4,4.5,7.1,6.2c7.2,4.6,11.8,4.1,18.2-1.8C1213.4,368.5,1215.1,364,1220.1,364.1z"/>
		<path class="st3" d="M643.7,910.8c10.4-9.7,20.8-19.4,31.2-29.1c0.3,1.6-0.1,2.8-1.4,4c-8.3,7.6-16.5,15.2-24.6,22.9
			C647.4,910,646,911.4,643.7,910.8z"/>
		<path class="st3" d="M644,283.6c-10.6-9.5-20.6-19.6-30.4-29.9c1.8-1.2,2.7,0.2,3.8,1.2c8.3,8.3,16.6,16.6,24.9,24.8
			C643.4,280.8,644.3,282,644,283.6z"/>
		<path class="st3" d="M1267,924.7c3.5,0.8,4.4,6.2,8.5,5.2c3.4-0.8,4.4-4.7,6.8-6.9c4.7-4.4,9.3-8.9,13.9-13.4
			c1.4,2.3-0.8,3.2-1.9,4.5c-5,5.5-10.7,10.3-15.4,16.2C1275.6,934.4,1269.4,931.4,1267,924.7z"/>
		<path class="st3" d="M1141.5,270.4c9.4-10,19.2-19.7,29.4-29c0.4,1.9-0.8,3.1-2,4.3c-7.7,7.7-15.5,15.4-23.2,23.1
			C1144.5,269.9,1143.6,271.7,1141.5,270.4z"/>
		<path class="st3" d="M1333.8,173.6c-6-4.3-11.6-2.5-17.6,0.4c-6.7,3.3-11,9.4-17.2,13.2c4-8.5,11.9-12.5,19.7-16.5
			c4-2,8.2-2.4,12.6-0.8C1333.1,170.7,1334.1,171.6,1333.8,173.6z"/>
		<path class="st3" d="M1224.6,189c9.4-9.4,18.6-19,29.1-27.2c0.6,2.7-1.7,3.8-3.2,5.1c-7.4,6.4-14.2,13.3-21.1,20.2
			C1228.1,188.5,1226.7,189.4,1224.6,189z"/>
		<path class="st3" d="M1240.1,133.2c-8.9,9.2-18.2,17.9-28.1,26.1c2.2-6.1,7.7-9.3,12-13.5c3.7-3.6,7.6-6.9,11.3-10.5
			C1236.7,133.9,1238,132.7,1240.1,133.2z"/>
		<path class="st3" d="M1314.6,316c8.7-8.5,16.8-17.7,26.2-25.5c0.4,2.2-1.1,3.3-2.4,4.6c-6.2,6.2-12.5,12.4-18.7,18.7
			C1318.3,315.2,1316.9,316.5,1314.6,316z"/>
		<path class="st3" d="M1155.1,213.2c-8.1,9-16.8,17.3-26.1,25.1c-0.4-2,1.2-3,2.3-4.1c6.2-6.2,12.4-12.4,18.6-18.6
			C1151.5,214.1,1152.8,212.6,1155.1,213.2z"/>
		<path class="st3" d="M1187.5,225.4c7.4-8.1,15.3-15.6,23.4-23c0.3,1.7-0.6,2.8-1.7,3.9c-6,5.9-11.9,11.9-17.9,17.8
			C1190.3,225.2,1189.3,226.6,1187.5,225.4z"/>
		<path class="st3" d="M1177.1,192.2c-6.7,7.7-14.1,14.7-22.1,21.1c-0.4-2,1.2-3,2.3-4.1c4.9-4.9,9.8-9.8,14.7-14.7
			C1173.5,193.1,1174.8,191.6,1177.1,192.2z"/>
		<path class="st3" d="M1296.1,398.1c-7,7.5-14.8,14-23.1,20.1c0.8-4.4,4.8-5.9,7.7-8.5c3.6-3.2,7.1-6.4,10.6-9.6
			C1292.7,398.8,1294,397.6,1296.1,398.1z"/>
		<path class="st3" d="M1329.3,198c4.3-5.1,7.9-10.4,6.7-17.7c-0.4-2.1-0.6-4.2-1.7-6.1c4.4,1,4.5,4.5,4.6,7.9
			C1339.1,189.1,1334.4,196.7,1329.3,198z"/>
		<path class="st3" d="M1211.1,267.2c-6.4,7-13.4,13.4-21.1,19.1c-0.1-3.2,2.7-4.4,4.4-6.1c4.1-4,8.4-7.8,12.6-11.7
			C1208.3,267.3,1209.5,266.8,1211.1,267.2z"/>
		<path class="st3" d="M1388.1,313.2c-6,7.1-12.7,13.4-20.1,19.1c-0.4-2,1.2-3,2.3-4.1c4.2-4.2,8.4-8.4,12.6-12.6
			C1384.4,314.1,1385.8,312.6,1388.1,313.2z"/>
		<path class="st3" d="M1316.1,380.1c-6.1,6.7-12.7,12.7-20.1,18.1c-0.3-2.4,1.7-3.5,3-4.7c4.3-4.1,8.7-8,13-12
			C1313.3,380.3,1314.5,379.8,1316.1,380.1z"/>
		<path class="st3" d="M1180.7,364.3c-3.3-2.2-5-5.7-7.3-8.7c-2.4-3.2-0.1-9.5,4.3-13.8c0.3,1.2,0.2,2.2-0.4,3.3
			c-3.2,6.1-2.9,9.2,1.7,14.5C1180.2,361,1181.4,362.3,1180.7,364.3z"/>
		<path class="st3" d="M1184.1,846.8c6.3,4.7,12,10.1,17.1,16.1c-1.4,0.3-2.6,0.1-3.6-0.9c-4.3-4.3-8.6-8.5-12.8-12.9
			C1184.2,848.5,1184.3,847.5,1184.1,846.8z"/>
		<path class="st3" d="M1383.6,247.8c3.9-6.2,5.9-12.5,2-19.5c4.7,0.2,4.2,3.8,4.3,6.8C1390.2,241.9,1387.7,246.6,1383.6,247.8z"/>
		<path class="st3" d="M690.8,866.8c5.4-5.3,10.5-10.9,16.8-15.3c0.2,2.1-1.1,3.2-2.5,4.5c-3.1,2.7-6.1,5.7-9.1,8.5
			C694.5,865.9,693.2,867.4,690.8,866.8z"/>
		<path class="st3" d="M1253.5,481.3c5.3-5.5,10.3-11.3,16.3-16c0.4,1.9-0.8,3.1-2,4.3c-3.4,3.4-6.8,6.8-10.2,10.1
			C1256.5,480.9,1255.6,482.7,1253.5,481.3z"/>
		<path class="st3" d="M1352.6,279c5.5-5.1,10.1-11.1,16.2-15.6c-0.7,5.4-5.7,7.3-8.7,10.8C1358.2,276.4,1356.5,279.7,1352.6,279z"
			/>
		<path class="st3" d="M707.6,851.3c4.6-5.4,9.9-10,15.3-14.6c0.2,1.4,0.3,2.8-1,3.6c-4.2,2.8-7.2,6.8-10.9,10.1
			C710,851.3,709.1,852.3,707.6,851.3z"/>
		<path class="st3" d="M674.8,881.8c5.1-5.3,10.3-10.5,16.1-15.1c0.3,1.3,0.3,2.7-1,3.6c-4.1,2.7-7.1,6.7-10.7,10
			C677.9,881.5,676.6,882.2,674.8,881.8z"/>
		<path class="st3" d="M1368.1,332.2c-4.7,5.7-10.1,10.7-16.1,15.1C1356,340.7,1360.6,334.9,1368.1,332.2z"/>
		<path class="st2" d="M1011.7,372.9c-0.1-0.8,0.3-1.3,1.1-1.4c4.9,4.9,9.8,9.8,14.8,14.7c-2.2,2.7-3.6-0.1-4.7-1
			c-3.2-3.1-6.1-6.5-9-9.8c0-0.7-0.4-1-1.1-1.1C1012.4,373.8,1012,373.4,1011.7,372.9z"/>
		<path class="st3" d="M1298.6,228c5.4-5.2,10.8-10.4,16.2-15.6c-0.7,5.4-5.7,7.3-8.7,10.8C1304.2,225.4,1302.5,228.7,1298.6,228z"
			/>
		<path class="st3" d="M754.7,806.9c4.8-4.9,9.7-9.8,15.2-14.1c0.3,1.4,0.3,2.8-1,3.6c-3.8,2.5-6.5,6-9.7,9
			C757.9,806.6,756.5,807.2,754.7,806.9z"/>
		<path class="st3" d="M722.9,836.8c4.7-5,9.7-9.8,15-14.1c0.3,1.4,0.3,2.8-0.9,3.6c-3.9,2.5-6.7,6.2-10.1,9.3
			C725.7,836.7,724.4,837.2,722.9,836.8z"/>
		<path class="st3" d="M1403.1,299.2c-4.4,5.4-9.5,10-15.1,14.1C1391.7,307,1395.9,301.5,1403.1,299.2z"/>
		<path class="st3" d="M739.6,821.3c4.3-5.1,9.3-9.4,14.3-13.7c0.2,1.3,0.3,2.8-0.9,3.6c-4,2.7-6.9,6.5-10.4,9.6
			C741.7,821.6,740.8,822.2,739.6,821.3z"/>
		<path class="st3" d="M1275.6,250c5.1-4.8,10.2-9.7,15.2-14.5C1289.6,240.2,1280,249.4,1275.6,250z"/>
		<path class="st3" d="M1254.8,269.9c4.5-4.7,9-9.4,14.1-13.5C1267.7,261.2,1259,269.4,1254.8,269.9z"/>
		<path class="st3" d="M1122.9,466c2.7-8.3,11.8-12,17.2-7.1c-5.5-1.7-9.7,0.1-13.2,4.5C1126,464.6,1124.3,465.2,1122.9,466z"/>
		<path class="st3" d="M1339.5,400.4c4.1-4.6,8.3-8.9,13.2-12.7C1351.5,392.1,1343.3,400.1,1339.5,400.4z"/>
		<path class="st3" d="M1352.1,347.1c-3.8,4.7-8.1,8.7-13.1,12.1C1342,353.7,1345.6,348.8,1352.1,347.1z"/>
		<path class="st3" d="M1380.6,361c4.4-4.2,8.3-8.9,13.2-12.5C1392.6,353.2,1385,360.4,1380.6,361z"/>
		<path class="st3" d="M1359.6,381c4.4-4.2,8.8-8.4,13.2-12.5C1371.7,373.1,1364,380.4,1359.6,381z"/>
		<path class="st3" d="M1236.5,287.4c3.7-4.4,7.9-8.3,12.4-11.9C1247.7,280,1240.3,287.1,1236.5,287.4z"/>
		<path class="st3" d="M1339.1,359.1c-3.4,4.4-7.5,7.9-12.1,11.1C1329.7,365.1,1333,360.6,1339.1,359.1z"/>
		<path class="st3" d="M1244.1,237.2c-3.1,4-6.8,7.4-11.1,10.1C1235.4,242.4,1238.3,238.2,1244.1,237.2z"/>
		<path class="st3" d="M1266.1,217.2c-3.1,4-6.8,7.3-11.1,10.1C1257.4,222.4,1260.3,218.2,1266.1,217.2z"/>
		<path class="st3" d="M745.2,740.1c-3.1,4-6.9,7.4-11.1,10.1C736.4,745.3,739.4,741.1,745.2,740.1z"/>
		<path class="st3" d="M1233.1,247.2c-3.1,4-6.8,7.3-11.1,10.1C1224.4,252.4,1227.3,248.2,1233.1,247.2z"/>
		<path class="st3" d="M1255.1,227.2c-3.1,4-6.7,7.4-11.1,10.1C1246.4,232.4,1249.3,228.2,1255.1,227.2z"/>
		<path class="st3" d="M1288.1,197.2c-3.1,4-6.8,7.3-11.1,10.1C1279.4,202.4,1282.3,198.2,1288.1,197.2z"/>
		<path class="st3" d="M1277.1,207.2c-3.1,4-6.8,7.3-11.1,10.1C1268.4,212.4,1271.3,208.2,1277.1,207.2z"/>
		<path class="st3" d="M1320.7,417.9c3.5-3.7,7-7.4,11.1-10.5C1330.8,412,1325,417.4,1320.7,417.9z"/>
		<path class="st3" d="M1299.1,187.2c-3.1,4-6.8,7.3-11.1,10.1C1290.4,192.4,1293.3,188.2,1299.1,187.2z"/>
		<path class="st3" d="M723.2,760.1c-3.1,4-6.8,7.4-11.1,10.1C714.5,765.3,717.4,761.1,723.2,760.1z"/>
		<path class="st3" d="M1399.6,343c3.7-3.5,7.5-7,11.2-10.5C1409.7,337.1,1404,342.4,1399.6,343z"/>
		<path class="st3" d="M756.2,730.1c-3.1,4-6.8,7.3-11.1,10.1C747.5,735.3,750.4,731.1,756.2,730.1z"/>
		<path class="st3" d="M778.2,710.1c-3.1,4-6.8,7.4-11.1,10.1C769.4,715.3,772.4,711.1,778.2,710.1z"/>
		<path class="st3" d="M1221.7,300.8c3.4-3.6,7-7.1,11-10C1231.5,295.3,1225.8,300.5,1221.7,300.8z"/>
		<path class="st3" d="M1222.1,257.2c-3.1,4-6.8,7.3-11.1,10.1C1213.4,262.4,1216.3,258.2,1222.1,257.2z"/>
		<path class="st3" d="M1327.1,370.1c-3.1,4-6.8,7.3-11.1,10.1C1318.4,375.3,1321.3,371.2,1327.1,370.1z"/>
		<path class="st3" d="M1305.7,431.9c3.4-3.6,6.9-7.2,11-10.1C1315.5,426.2,1309.9,431.4,1305.7,431.9z"/>
		<path class="st3" d="M733.6,751c-3.3,3.2-6.4,6.8-10.5,9.1C725.2,755.5,727.9,751.5,733.6,751z"/>
		<path class="st3" d="M766.6,721c-3.3,3.2-6.4,6.8-10.5,9.1C758.2,725.5,760.9,721.5,766.6,721z"/>
		<path class="st3" d="M1177.7,341.8c2.4-3.7,5.7-6.7,9.2-9.4C1185.6,337.3,1182.4,340.3,1177.7,341.8z"/>
		<path class="st3" d="M1292.5,444.3c2.7-3.3,5.6-6.3,9.2-8.7C1300.6,440,1296.3,444.1,1292.5,444.3z"/>
		<path class="st3" d="M1278.5,457.4c2.7-3.4,5.9-6.3,9.4-9C1286.7,452.8,1282.3,457.1,1278.5,457.4z"/>
		<path class="st3" d="M1132.7,723.3c-3.6-2.3-6.6-5.3-9.2-8.6C1127.2,714.8,1131.6,718.9,1132.7,723.3z"/>
		<path class="st3" d="M1194.7,324.9c2.7-3,5.6-5.9,9-8.2C1202.6,321.3,1198.7,324.8,1194.7,324.9z"/>
		<path class="st2" d="M1035.1,325.7c1.7-3.5,3.3-7.1,5-10.6c0.6,0,1.2,0,1.8,0c0,0,0,0,0,0c0.1,3.9-2.7,6.7-4,10
			C1037.1,325.3,1036.1,325.5,1035.1,325.7z"/>
		<path class="st3" d="M1212.7,308.8c2.8-3,5.6-5.9,9-8.1C1220.3,305.2,1217.9,308.6,1212.7,308.8z"/>
		<path class="st3" d="M1203.7,316.8c2.8-2.9,5.6-5.9,9-8.1C1211.3,313.2,1208.9,316.6,1203.7,316.8z"/>
		<path class="st3" d="M1143.7,733.3c-3-2.2-5.9-4.6-8.2-7.6C1140.4,725.9,1142.5,729,1143.7,733.3z"/>
		<path class="st3" d="M1155.7,744.3c-3-2.3-5.9-4.6-8.2-7.6C1152.4,736.9,1154.5,740.1,1155.7,744.3z"/>
		<path class="st2" d="M1007.9,368.6c-1.3-0.1-2-1.1-2.6-2c-1-1.5-4-2.3-2.9-4.4c1.1-2.1,2.9,1.8,4.6,0.4
			C1008,364.5,1008.4,366.5,1007.9,368.6z"/>
		<path class="st3" d="M1166.7,754.3c-3-2-5.5-4.6-7.9-7.2C1163.4,747.3,1165.7,750,1166.7,754.3z"/>
		<path class="st2" d="M1131,672c-0.9,0-1.9,0-2.8-0.1c-0.2-2,1.3-3.3,2-4.9c1-0.1,2-0.2,3-0.3C1132.9,668.7,1132.3,670.5,1131,672z
			"/>
		<path class="st3" d="M1173.4,239c2.5-2.4,5-4.9,7.5-7.3C1180.7,236.5,1178.1,238.8,1173.4,239z"/>
		<path class="st3" d="M1377.3,255c2.1-2.4,4.3-4.8,6.4-7.2C1383.9,252.3,1381.4,254.3,1377.3,255z"/>
		<path class="st3" d="M1343.3,288c2.2-2.1,4.3-4.2,6.5-6.3C1349.9,286.1,1347.6,288.1,1343.3,288z"/>
		<path class="st2" d="M1022.7,345c1.2-2.4,2.5-4.8,5.1-6.1c0.9,3.5-2.3,4.9-3.8,7.3c0,0,0-0.1,0-0.1
			C1023.6,345.7,1023.2,345.3,1022.7,345z"/>
		<path class="st2" d="M1010.7,361.5c-1.5-3.3,2.2-3.6,3.1-5.6C1015.8,359.5,1012.9,360.3,1010.7,361.5z"/>
		<path class="st3" d="M1269.4,256c1.8-1.8,3.7-3.5,5.5-5.3C1275.1,254.7,1273.1,256.3,1269.4,256z"/>
		<path class="st3" d="M1301.4,329c1.8-1.8,3.6-3.6,5.5-5.4C1307.2,327.6,1305.2,329.2,1301.4,329z"/>
		<path class="st3" d="M1249.4,275c1.8-1.7,3.6-3.4,5.4-5.1C1255.1,273.8,1253,275.2,1249.4,275z"/>
		<path class="st2" d="M1015.7,353.8c0.3-1.9,1.8-2.8,3.2-3.8c0.9,0.4,1.1,1.2,1.1,2.1C1018.6,352.5,1018.5,356.5,1015.7,353.8z"/>
		<path class="st3" d="M1189.4,330c1.8-1.7,3.6-3.4,5.4-5.2C1195.2,328.8,1193.1,330.2,1189.4,330z"/>
		<path class="st3" d="M1214.4,199c1.8-1.8,3.7-3.6,5.5-5.3C1220.2,197.6,1218.2,199.3,1214.4,199z"/>
		<path class="st3" d="M1291.4,235c1.8-1.8,3.7-3.5,5.5-5.3C1297.1,233.7,1295.2,235.3,1291.4,235z"/>
		<path class="st3" d="M1352.6,387.8c1.7-1.7,3.5-3.4,5.2-5.1C1358.1,386.4,1356.6,388.3,1352.6,387.8z"/>
		<path class="st3" d="M822,744c0.3,0,0.7,0,1,0.1c-0.6,3-2.4,4.2-5.4,3.9C819,746.4,820.2,744.8,822,744z"/>
		<path class="st3" d="M1133.2,666.7c-1,0.1-2,0.2-3,0.3c0.8-1.4,1.6-2.7,2.4-4.1c0.7,0.3,1.5,0.6,2.2,1
			C1134.3,664.8,1133.8,665.8,1133.2,666.7z"/>
		<path class="st3" d="M1271.3,463.9c1.5-1.4,3-2.9,4.5-4.3C1276.3,463.1,1274.6,464.3,1271.3,463.9z"/>
		<path class="st3" d="M1301.7,435.8c1-1.7,2.5-2.9,4.1-4C1306.2,435,1304.9,436.4,1301.7,435.8z"/>
		<path class="st3" d="M1374.3,367c1.5-1.4,3-2.9,4.5-4.3C1379.3,366.1,1377.6,367.3,1374.3,367z"/>
		<path class="st3" d="M1316.7,421.8c1.1-1.7,2.5-2.9,4.1-4C1321.2,421,1319.9,422.4,1316.7,421.8z"/>
		<path class="st3" d="M1333.3,406c1.5-1.4,3-2.8,4.4-4.1C1338.3,405.4,1336.4,406.3,1333.3,406z"/>
		<path class="st3" d="M1394.3,348c1.5-1.4,3-2.8,4.5-4.3C1399.3,347.2,1397.5,348.3,1394.3,348z"/>
		<path class="st2" d="M1030.4,333.4c1.1-1.3,0.6-5.1,4.1-2.6c-0.8,1.9-1.9,3.6-3.7,4.8C1030.7,334.9,1030.5,334.1,1030.4,333.4z"/>
		<path class="st3" d="M1249.7,484.8c0.9-1.4,2-2.6,3.6-3.2C1254.2,485,1252.2,485.1,1249.7,484.8z"/>
		<path class="st3" d="M1147.3,736.5c-1.6-0.6-2.7-1.8-3.6-3.2C1146.2,732.9,1148.2,733,1147.3,736.5z"/>
		<path class="st3" d="M1288.4,447.9c1.2-1.3,2.2-2.8,3.9-3.4C1293.2,448.2,1290.7,448,1288.4,447.9z"/>
		<path class="st2" d="M1019.7,349c0.1-1.5,1.1-2.2,2.2-3c0.7,0,1.4,0,2.1,0c0,0,0,0.1,0,0.1c-0.6,1.4-1.3,2.8-2.8,3.5
			C1020.7,349.4,1020.2,349.2,1019.7,349z"/>
		<path class="st3" d="M1232.7,290.8c0.9-1.4,2-2.6,3.6-3.2C1237.2,291,1235.2,291.1,1232.7,290.8z"/>
		<path class="st3" d="M1158.8,747.2c-1.3-0.7-2.4-1.6-3.1-3C1158.3,743.6,1159.2,744.6,1158.8,747.2z"/>
		<path class="st3" d="M1411.3,332c1.2-1.1,2.3-2.2,3.5-3.3C1415.3,331.5,1413.9,332.3,1411.3,332z"/>
		<path class="st3" d="M1169.8,757.2c-1.3-0.7-2.4-1.6-3.1-3C1169.3,753.6,1170.2,754.6,1169.8,757.2z"/>
		<path class="st2" d="M1027.7,338.8c-0.2-1.7,0.2-2.9,2.2-3C1030.2,337.6,1030.3,339.2,1027.7,338.8z"/>
		<path class="st3" d="M1012.1,372.2c-2.2,1-2.5-1.1-3.5-2.1C1010.3,369.9,1012,369.7,1012.1,372.2z"/>
		<path class="st3" d="M1123.3,714.5c-1.3-0.3-2-1.2-2.6-2.3C1122.4,712,1124.3,711.5,1123.3,714.5z"/>
		<path class="st3" d="M1135.3,725.5c-1.3-0.3-2-1.2-2.6-2.3C1134.4,723,1136.3,722.5,1135.3,725.5z"/>
		<path class="st3" d="M1019.7,349c0.5,0.2,1,0.4,1.5,0.6c-0.2,0.9-0.2,1.9-1.2,2.5c0-0.9-0.2-1.7-1.1-2.1
			C1018.9,349.4,1019.1,349,1019.7,349z"/>
		<path class="st3" d="M1035.1,325.7c1-0.2,1.9-0.4,2.9-0.6c-0.5,0.9-0.9,1.8-1.4,2.6C1035.2,327.7,1034.9,326.9,1035.1,325.7z"/>
		<path class="st3" d="M1185.6,227c0.5-0.7,0.9-1.5,2-1.3C1187.6,227.1,1186.6,227,1185.6,227z"/>
		<path class="st3" d="M1139.7,272c0.5-0.7,0.9-1.5,2-1.3C1141.6,272,1140.6,272,1139.7,272z"/>
		<path class="st3" d="M1297.5,908.7c-0.3-1.2,0.6-1.6,1.3-2.1C1298.9,907.6,1298.9,908.6,1297.5,908.7z"/>
		<path class="st3" d="M737.8,822.8c0.4-0.7,0.8-1.5,1.8-1.3C739.8,822.9,738.8,822.9,737.8,822.8z"/>
		<path class="st3" d="M514.8,156.5c-1.1,0.3-1.5-0.6-2-1.3C513.8,155.1,514.8,155.1,514.8,156.5z"/>
		<path class="st3" d="M1245.6,383.9c0.5-0.7,0.9-1.6,2-1.3C1247.6,384,1246.6,384,1245.6,383.9z"/>
		<path class="st3" d="M1337.7,401.9c0.4-0.7,0.8-1.5,1.8-1.3C1339.7,402,1338.7,402,1337.7,401.9z"/>
		<path class="st3" d="M1030.4,333.4c0.1,0.7,0.3,1.5,0.4,2.2c-0.8,0.3-1.1-0.2-1.4-0.8C1029.1,333.8,1029.9,333.8,1030.4,333.4z"/>
		<path class="st3" d="M612.7,252.5c-1.1,0.2-1.4-0.6-1.9-1.3C611.9,251.1,612.8,251.1,612.7,252.5z"/>
		<path class="st3" d="M1134.6,277.8c-0.2-1.1,0.6-1.5,1.3-2C1135.9,276.7,1136,277.7,1134.6,277.8z"/>
		<path class="st3" d="M522.8,164.5c-1.1,0.2-1.5-0.6-2-1.3C521.8,163.1,522.8,163.1,522.8,164.5z"/>
		<path class="st3" d="M1276.6,458.9c0.5-0.7,1-1.6,2.1-1.3C1278.6,459,1277.6,458.9,1276.6,458.9z"/>
		<path class="st3" d="M518,160.4c-0.7-0.5-1.6-0.9-1.3-2C518.1,158.4,518,159.4,518,160.4z"/>
		<path class="st3" d="M568.8,209.5c-1.1,0.2-1.5-0.6-2-1.3C567.7,208.1,568.7,208.1,568.8,209.5z"/>
		<path class="st3" d="M516.9,158.4c-0.9,0.2-1.3-0.1-1.1-1C516.5,157.3,516.9,157.6,516.9,158.4z"/>
		<path class="st3" d="M515.9,157.3c-0.9,0.2-1.3-0.1-1.1-1C515.5,156.3,515.9,156.6,515.9,157.3z"/>
		<path class="st3" d="M1133.7,278.9c-0.2-0.9,0.1-1.3,1-1.1C1134.8,278.5,1134.4,278.8,1133.7,278.9z"/>
		<path class="st3" d="M613.9,253.3c-0.9,0.2-1.3-0.1-1.1-1C613.5,252.3,613.8,252.6,613.9,253.3z"/>
		<path class="st3" d="M1296.7,909.7c-0.2-0.9,0.1-1.3,1-1.1C1297.7,909.3,1297.4,909.7,1296.7,909.7z"/>
		<path class="st3" d="M1132.7,279.9c-0.2-0.9,0.1-1.3,1-1.1C1133.8,279.5,1133.4,279.8,1132.7,279.9z"/>
		<path class="st4" d="M1132.7,662.9c-0.8,1.4-1.6,2.7-2.4,4.1c-0.7,1.6-2.2,2.9-2,4.9c-6.8,11.3-13.6,22.7-22.3,32.8
			c-7.7,8.9-16.2,17.1-24.9,25.1c-10.4,9.6-22.3,17-35.1,23c-1.1,0.5-2.4,1.1-1.8,2.4c0.6,1.6,1.9,0.5,2.9,0.2
			c0.8-0.3,1.6-0.3,2.3-0.6c3-1.2,6.5-5.1,8.9-3.4c2.8,2,3.9,6.5,5.5,10c0.5,1.2,0.7,2.5,1.5,3.5c2.9,8.9,4.2,18.1,6.2,27.2
			c1,4.6,0.2,6.2-4.1,7.9c-13.6,5.3-28,8.5-41.3,14.7c-8.8,1.6-8.8,1.6-9-4.8c-0.3-5-0.7-10-1-15c-1.6-8.6-0.1-17.4-2.1-26
			c3-3.5,7.5-3.8,11.4-4.7c4.8-1.1,9-3.4,13.6-4.6c0.8-0.2,2.2-1.2,1.4-2.7c-0.8-1.6-1.8-0.4-2.9-0.1c-5.8,1.6-10.9,5-16.8,6.4
			c-15.6,3.6-31.1,7.7-47.1,10c-16.5,2.3-33,2.5-49.5,1.6c-14.7-0.8-29.1-3.9-43.4-7.7c-23-6-43.8-16.3-62.6-30.6
			c-8.7-6.6-15.9-14.9-22.7-23.4c-1.8-2.3-4.5-4-5.4-7c-7.7-12-14-24.7-18.9-38.1c-0.1-0.8,0-1.7-0.2-2.4c-3-9.2-3-9.2,4.3-15
			c6.4-5.1,12.5-10.5,18.2-16.3c1.1-1.1,2.4-2.1,0.1-3.4c0,0-0.1,0.2-0.1,0.2c1,3.6,2.8,1,3.7,0.2c8-7.1,16-14.3,23.9-21.5
			c9.9-9,20.1-17.7,29.8-26.9c12.3-11.7,25.2-22.7,37.6-34.2c14.4-13.4,29.2-26.5,43.7-39.9c14.3-13.3,28.8-26.3,43.3-39.3
			c14.2-12.8,28.6-25.4,43-38c7.3-6.4,14.9-12.5,22.1-19.1c2.2-2,3.7-0.9,5.1,0c8.5,5.2,16.8,10.7,24.6,16.8
			c15.4,12,30.2,24.6,41.4,40.9c5.1,7.4,10.2,14.7,15.3,22.1c1.5,3,2.9,5.9,4.4,8.9c-0.2,1-0.1,1.9,1.2,1.9c2.4,7.1,5,14.1,7.2,21.3
			c2.5,8.3,4.6,16.8,5.4,25.5c0.9,9.3,2.5,18.5,3,27.8c0.5,9.9-0.2,19.7-1.7,29.5c-1.3,8.7-2.2,17.4-4.2,26
			c-1.9,8.2-5,15.9-7.7,23.8C1133.8,658.9,1133.3,660.9,1132.7,662.9z M1041,755.1c-0.3,0.3-1,0.6-0.9,0.8c0.1,1,0.8,0.7,1.4,0.4
			c1.1,0.7,2,0.3,1.9-0.8C1043,754.2,1041.8,755,1041,755.1z M1001.9,574.9c-29.3,19.8-37.9,45.3-29.6,74.3
			c8.7,30.4,32.8,50.1,67.9,46.7c28-2.6,57.1-19.4,59.2-58.1c2.5-46.5-24.1-69.1-68.8-73c9.9-5.6,19.5-11.2,28.5-17.9
			c14.1-10.4,26.4-22.6,37.1-36.5c0.9-1.2,1.1-1.9,0-2.9c-1-0.9-1.7-0.6-2.5,0.2c-0.9,0.9-2,1.8-2.8,2.8
			c-9.4,11.6-19.7,22.1-31.8,31.2c-15.8,11.9-32.7,21.2-51.6,26.9c-16.7,5-31.3,2.1-43.6-11.4c-13.6-14.8-7.6-39.8,5.9-48.6
			c11.3-7.3,25.1-7.8,34.5,0c8.5,7.2,9.8,14.5,6.5,24.4c-3.1,9.6-11.3,14-21.7,12.8c-3.3-0.4-8.5-5.1-8.9-8.2c-1-7.4-0.1-9.6,5-11.8
			c1-0.4,1.9-0.9,1.9-2c0-1.5-1.4-0.9-2.3-1.1c-3.8-0.6-6.6,0.9-7.7,4.5c-2.4,7.4-1,16.8,6.3,20.7c6.7,3.6,18.1,2.2,24.6-3.4
			c7-5.9,10.1-18.7,7.5-27c-4.5-14-23.8-20.9-33.1-18.4c-18.6,5-27.5,14.7-30.1,34.4c-2.6,19.2,12.5,33.6,26.4,39.3
			C985.9,576.1,993.6,574.5,1001.9,574.9z M975,716.5c0.8-16.2-11.9-24-25.4-24.5c-13.4-0.5-25.3,12.3-25.3,25.8
			c0,12.2,9.9,26.8,25.4,26C963.8,743.2,975.1,733.8,975,716.5z"/>
		<path class="st2" d="M725.3,526.2c-2.3,2.1-4,4.7-7,5.8c-0.2,0.1-1.1-0.5-1-0.7c0.5-2.8,3.4-3.7,4.8-5.8c0.5-0.8,1.5-1.3,2.5-0.7
			C724.9,525.1,725,525.7,725.3,526.2z"/>
		<path class="st2" d="M714.6,535.7c-1.2,0.4-2-0.1-2-0.6c0-1.6,1.1-2.7,2.6-3.2c0.9-0.3,1.7-0.2,1.7,0.9
			C716.9,534.5,715.3,535.1,714.6,535.7z"/>
		<path class="st3" d="M1024,346.1c-0.7,0-1.4,0-2.1,0c0-0.6,0.2-1,0.8-1C1023.2,345.3,1023.6,345.7,1024,346.1z"/>
		<path class="st3" d="M1042,315.1c-0.6,0-1.2,0-1.8,0c-0.2-1.2,0.7-1.3,1.4-1.6C1041.7,314,1041.9,314.5,1042,315.1z"/>
		<path class="st3" d="M1011.7,372.9c0.4,0.5,0.7,0.9,1.1,1.4C1012,374.1,1011.6,373.7,1011.7,372.9z"/>
		<path class="st3" d="M1012.7,374.3c0.7,0.1,1,0.4,1.1,1.1C1013.4,375,1013.1,374.6,1012.7,374.3z"/>
		<path class="st3" d="M1150.1,814.8c-2.1,0.5-3.4-0.6-4.8-1.9c-15.1-14.5-30.2-28.9-45.3-43.4c-1.4-1.3-3.3-2.4-3-4.8
			c1.2,0.1,2.1,0.8,2.9,1.7c15.6,14.9,31.3,29.8,47,44.7C1148.1,812.2,1149.1,813.6,1150.1,814.8z"/>
		<path class="st3" d="M1096.2,763.9c-2.3,0.5-3.7-0.8-5.1-2.3c-5.1-4.9-9.5-10.5-15.4-14.6c-1.5-1-2-2.6-1.5-4.4
			C1081.8,749.5,1089.5,756.2,1096.2,763.9z"/>
		<path class="st4" d="M951,777.1c18.9,0.2,37.2-3.6,55.4-7.9c1.7-0.4,3.6-0.1,5.4-0.2c0.8,8.6,0.7,17.3,2.2,25.9
			c-0.8,5.1,0.2,10.1,1,15c-0.4,7.9-0.4,7.9-8.2,9.9c-3.6,0.9-7.3,1.7-10.9,2.6c0.3,1.8,1.2,1.7,2,1.5c4.4-1.1,8.7-2.3,13.1-3.5
			c3.2-0.9,5.5-0.8,5,3.6c-0.3,2.6,0.1,5.3,0.1,7.9c1,4.3,0.7,8.6,0.8,13c0.1,2.1-0.3,4.3,1.2,6c-0.1,2.8-0.2,5.6-0.2,8.4
			c0,1.6-0.2,3.1-2.1,3.4c-8.8,1.6-17.2,4.5-25.9,6.3c-8.3,1.7-16.8,2-25.1,4c-4.6-0.1-9.1-0.2-13.7-0.3
			c-0.2-14.3-0.3-28.5-0.5-42.8c1.6-1.8,3.7-1,5.6-0.9c12,0.5,23.6-2.3,36-4.4c-2.7-1.3-4.8-0.8-6.9-0.3
			c-10.3,2.2-20.8,2.6-31.2,3.6c-3.3,0.3-4.5-1-4.3-4.3c0.3-4.4,0.6-8.8,0.5-13.3c0-10.8-0.2-21.6-0.3-32.4
			C950.5,777.7,950.7,777.4,951,777.1z"/>
		<path class="st4" d="M1074.1,846c0,9.7-0.2,19.5-3.2,28.7c-4.2,13-9.9,25.4-19.6,35.5c-8.2,8.4-16.7,16.1-28,20.1
			c-8.5,3-17,2.8-24.8-0.7c-12.8-5.8-24.8-12.9-33.3-24.8c-5.6-7.9-6-24-0.2-30.7c2.8-0.1,5.6-0.8,8.3-0.9
			c16.2-0.6,31.4-5.6,46.7-9.9c16.4-4.6,32.5-10.5,48.3-16.9C1069.9,845.7,1072.1,843.4,1074.1,846z"/>
		<path class="st4" d="M935.9,875.1c5.7,8.5,4.3,17.7,0.2,25.7c-9,17.9-25.6,25.7-44.3,30.3c-13.2,3.2-22.8-3.7-32.2-10.3
			c-9.5-6.7-17-15.5-22.4-26c-7-13.6-12.3-27.6-12.3-43.1c0-1.7,0.4-3.5-0.7-5.3c-0.8-1.4,0.8-1.3,1.7-1.6
			c9.3,4.4,18.4,9.2,27.9,13.1C880.1,868.6,907.8,872.8,935.9,875.1z"/>
		<path class="st1" d="M1076.9,804.8c7.4,2.4,14.8,4.6,22.1,7.2c14.3,5,28.9,9.1,43.1,14.5c6.6,2.5,13.2,5.2,20,7
			c3.4,0.9,5.9,3.5,8.9,5c3,1.5,0.9,4.2,1,6.5c0.2,4.5-1.6,8.1-4.3,11.4c-5,6.2-8.1,7.2-15.7,4.6c-21.9-7.3-43.9-14.7-65.8-22.1
			c-2.8-0.9-5.3-2.7-8.3-2.9c-0.2-0.2-0.4-0.3-0.6-0.3c-1-0.5-2.1-1-3.1-1.3c-14.7-4.8-29.4-9.7-43.8-15.5c-1.3-0.5-3.7-0.1-3.3-2.8
			c10-3.4,20-6.8,30-10.1C1063.6,803.8,1070.1,801.8,1076.9,804.8z"/>
		<path class="st4" d="M886,772c5-0.9,9.6,1.2,14.3,2.1c15,2.8,30,4,45.2,3.6c0.8,0,1.6,0.2,2.5,0.2c-0.6,14.9,0.9,29.8,0.8,44.8
			c0,1.7,1.1,4.2-2.4,4.1c-6-0.1-12,0.7-17.9-0.2c-14.7-2.1-29.4-3.7-43.9-6.8c-2.8-0.6-3.8-1.4-3.4-4c0.7-0.3,0.9-0.9,0.9-1.6
			C883.4,800.3,884.7,786.2,886,772z"/>
		<path class="st4" d="M948.9,872.9c-4.6,0-9.3,0.1-13.9,0.1c-7-0.7-14-1.6-21-2.2c-11.4-1-22.5-3.6-33.6-6.1
			c-2.5-0.6-4-1.7-3.5-4.7c0.8-4.7,1.2-9.4,1.8-14.1c0.8-8,1.6-16,2.5-23.9c1.5,0,3-0.3,4.5,0c17.8,3.5,35.7,6.2,53.9,7.3
			c3,0.2,7.3-1.4,9.5,2.6c-0.1,2.5-0.2,4.9-0.2,7.4C948.9,850.5,948.9,861.7,948.9,872.9z"/>
		<path class="st4" d="M827.1,799.7c-0.2-15.4,3.2-30.1,9-44.4c0.7-1.7,2.2-2.1,3.7-1.2c13.7,8.4,29.1,11.9,44.1,16.8
			c-0.3,1.1-0.8,2.1-0.9,3.2c-1.3,13.9-2.6,27.8-3.9,41.8c-0.2,3.1-2.6,2-4.1,1.8c-1.9-0.2-3.7-1.1-5.5-1.7
			C854.9,811.9,841.1,805.6,827.1,799.7z"/>
		<path class="st4" d="M826,843.1c-1.9-1.1-1.1-3-1.2-4.5c0-10.2,0.1-20.4,0.2-30.7c0-2.2,0.4-4.4,2-6.2c0.8,0.2,1.6,0.4,2.4,0.7
			c9.7,4.3,19.4,8.2,29.3,12c6.9,2.6,14.3,3.7,20.8,7.3c-1.9,1.6-1.4,3.8-1.6,5.9c-0.5,6.1-1.2,12.1-1.7,18.2
			c-0.5,5.6-0.9,11.1-1.4,16.9c-6.2-1.3-11.9-3.5-17.4-5.9C846.9,852.4,836.4,847.7,826,843.1z"/>
		<path class="st3" d="M1027.2,816.1c-0.4,2.7,2,2.3,3.3,2.8c14.4,5.8,29.1,10.7,43.8,15.5c1.1,0.4,2.1,0.9,3.1,1.3
			c-2.2,2.4-1.6,5.5-1.8,8.3c-0.1,1.3-0.3,1.8-1.4,2c-2-2.5-4.2-0.2-5.7,0.4c-15.8,6.4-31.9,12.3-48.3,16.9
			c-15.3,4.3-30.6,9.3-46.7,9.9c-2.7,0.1-5.5,0.8-8.3,0.9c-0.1-0.3-0.1-0.7-0.1-1c8.2-2,16.8-2.3,25.1-4c8.7-1.8,17.2-4.7,25.9-6.3
			c1.8-0.3,2.1-1.8,2.1-3.4c0-2.8,0.1-5.6,0.2-8.4c0.5-0.3,1.1-0.7,1.6-1c0.1,2.7,0.1,5.3,0.2,8c0.1,1.8,0.3,3.2,2.9,2.5
			c16.8-4.6,32.7-11.5,49-17.4c1.5-0.6,2.3-1.7,2.1-3.5c-0.1-1.7-0.2-3.2-2.3-3.7c-1.3-0.3-2.3-1.3-3.6-1.6
			c-14.8-4.4-29.3-9.3-43.3-15.9c-4.3-2-6.5-0.1-6.8,4.8c-0.2,3,0.6,5.9,0.7,8.8c-0.9,0-1.7,0-2.6,0c-0.1-2.6-0.4-5.3-0.1-7.9
			c0.5-4.4-1.8-4.5-5-3.6c-4.3,1.2-8.7,2.4-13.1,3.5c-0.7,0.2-1.7,0.2-2-1.5c3.6-0.8,7.3-1.7,10.9-2.6c7.8-1.9,7.8-1.9,8.2-9.9
			c0.6,0,1.2,0,1.7,0c0.3,6.4,0.3,6.4,9,4.8C1026.3,815.2,1026.7,815.6,1027.2,816.1z"/>
		<path class="st3" d="M879.5,821.9c-6.5-3.6-13.9-4.7-20.8-7.3c-9.9-3.8-19.7-7.8-29.3-12c-0.7-0.3-1.6-0.5-2.4-0.7
			c0-0.7,0.1-1.4,0.1-2c14,5.9,27.8,12.2,42.4,16.4c1.9,0.5,3.7,1.5,5.5,1.7c1.5,0.2,3.9,1.2,4.1-1.8c0.6,0,1.3,0,1.9,0
			c-0.4,2.7,0.6,3.4,3.4,4c14.5,3.1,29.3,4.7,43.9,6.8c5.9,0.8,11.9,0.1,17.9,0.2c3.5,0.1,2.4-2.4,2.4-4.1c0-14.9-1.4-29.8-0.8-44.8
			c0.4-1,1.3-1,2.1-1c-0.1,0.3-0.1,0.7,0.1,1c0.1,10.8,0.3,21.6,0.3,32.4c0,4.4-0.2,8.8-0.5,13.3c-0.2,3.3,1,4.6,4.3,4.3
			c10.4-1,20.9-1.5,31.2-3.6c2.1-0.4,4.1-1,6.9,0.3c-12.3,2.2-23.9,4.9-36,4.4c-1.8-0.1-4-0.9-5.6,0.9c-0.6,0.7-1.1,1.3-1.7,2
			c-2.2-4-6.6-2.5-9.5-2.6c-18.2-1.1-36.1-3.8-53.9-7.3c-1.4-0.3-3,0-4.5,0C880.6,822,880.1,821.9,879.5,821.9z"/>
		<path class="st3" d="M826,843.1c10.4,4.6,20.9,9.3,31.3,13.9c5.6,2.4,11.3,4.6,17.4,5.9c0.5-5.8,1-11.4,1.4-16.9
			c0.8,0,1.7,0,2.5,0c-0.6,4.7-1,9.4-1.8,14.1c-0.5,3,1,4.2,3.5,4.7c11.1,2.5,22.2,5.1,33.6,6.1c7,0.6,14,1.5,21,2.2
			c0.3,0.7,0.6,1.4,0.9,2.1c-28.1-2.3-55.8-6.5-82.1-17.3c-9.5-3.9-18.6-8.7-27.9-13.1C826,844.2,826,843.6,826,843.1z"/>
		<path class="st5" d="M881.1,816c-0.6,0-1.3,0-1.9,0c1.3-13.9,2.5-27.8,3.9-41.8c0.1-1.1,0.6-2.2,0.9-3.2c1.1-0.4,1.7,0.2,2.1,1.1
			c-1.3,14.1-2.7,28.2-4,42.4C882,815.1,881.8,815.7,881.1,816z"/>
		<path class="st5" d="M949.1,831.9c0.6-0.7,1.1-1.3,1.7-2c0.2,14.3,0.3,28.5,0.5,42.8c-0.8,0-1.6,0.1-2.4,0.1
			c0-11.2-0.1-22.4,0-33.6C948.9,836.8,949,834.4,949.1,831.9z"/>
		<path class="st3" d="M1014.1,794.9c-1.6-8.6-1.5-17.3-2.2-25.9c0.6,0,1.2-0.1,1.9-0.1c2,8.6,0.5,17.4,2.1,26
			C1015.3,794.9,1014.7,794.9,1014.1,794.9z"/>
		<path class="st1" d="M950.2,778c-0.2-0.3-0.2-0.6-0.1-1c0.3-0.1,0.6-0.1,0.9,0.1C950.7,777.4,950.5,777.7,950.2,778z"/>
		<path class="st3" d="M1132.3,502.9c-1.3-0.1-1.4-0.9-1.2-1.9C1132.2,501.2,1133.4,501.3,1132.3,502.9z"/>
		<path class="st2" d="M1027.2,816.1c-0.4-0.4-0.8-0.8-1.3-1.3c13.3-6.2,27.7-9.4,41.3-14.7c4.3-1.7,5.1-3.2,4.1-7.9
			c-1.9-9.1-3.3-18.3-6.2-27.2c0.9,0,1.9-0.1,2.8-0.1c3.7,10.9,6.1,22,6.9,33.5c0.1,1.8-0.2,3.7,2,4.6c0,0.6,0.1,1.1,0.1,1.7
			c-6.8-2.9-13.3-0.9-19.8,1.2C1047.1,809.3,1037.2,812.7,1027.2,816.1z"/>
		<path class="st2" d="M1001.9,574.9c-8.3-0.4-16.1,1.1-23.5-1.9c-13.9-5.7-29-20.1-26.4-39.3c2.6-19.8,11.5-29.5,30.1-34.4
			c9.3-2.5,28.6,4.5,33.1,18.4c2.7,8.3-0.5,21.1-7.5,27c-6.5,5.5-17.8,7-24.6,3.4c-7.3-3.9-8.7-13.3-6.3-20.7
			c1.1-3.6,3.9-5.1,7.7-4.5c0.9,0.1,2.2-0.5,2.3,1.1c0,1.1-0.9,1.5-1.9,2c-5.1,2.2-6,4.4-5,11.8c0.4,3.1,5.6,7.8,8.9,8.2
			c10.4,1.2,18.6-3.2,21.7-12.8c3.2-9.9,2-17.2-6.5-24.4c-9.4-7.9-23.2-7.4-34.5,0c-13.6,8.8-19.5,33.8-5.9,48.6
			c12.4,13.5,26.9,16.4,43.6,11.4c18.9-5.7,35.8-15.1,51.6-26.9c12.1-9.1,22.4-19.6,31.8-31.2c0.8-1,1.9-1.9,2.8-2.8
			c0.8-0.8,1.5-1.2,2.5-0.2c1.1,1,0.9,1.7,0,2.9c-10.7,13.9-22.9,26.1-37.1,36.5c-9,6.6-18.6,12.3-28.5,17.9
			c44.7,3.9,71.3,26.4,68.8,73c-2.1,38.7-31.2,55.5-59.2,58.1c-35.1,3.3-59.2-16.4-67.9-46.7C964,620.3,972.7,594.7,1001.9,574.9z
			 M1004.3,574.5c-0.1-0.1-0.1-0.3-0.2-0.3c-0.1,0-0.3,0-0.4,0.1c0.1,0.2,0.2,0.3,0.3,0.5C1004.1,574.7,1004.2,574.6,1004.3,574.5z"
			/>
		<path class="st2" d="M975,716.5c0.2,17.3-11.2,26.6-25.4,27.4c-15.5,0.8-25.3-13.8-25.4-26c0-13.5,11.9-26.3,25.3-25.8
			C963,692.5,975.8,700.4,975,716.5z"/>
		<path class="st5" d="M1014.1,794.9c0.6,0,1.1,0,1.7,0c0.3,5,0.7,10,1,15c-0.6,0-1.2,0-1.7,0C1014.3,805,1013.3,800,1014.1,794.9z"
			/>
		<path class="st3" d="M1041,755.1c0.8-0.1,2.1-0.9,2.3,0.4c0.2,1.1-0.8,1.5-1.9,0.8C1041.2,755.9,1041.1,755.5,1041,755.1z"/>
		<path class="st2" d="M1041,755.1c0.1,0.4,0.3,0.8,0.4,1.2c-0.6,0.3-1.2,0.6-1.4-0.4C1040,755.7,1040.6,755.4,1041,755.1z"/>
		<path class="st5" d="M1019.8,850c-0.5,0.3-1.1,0.7-1.6,1c-1.6-1.8-1.2-4-1.2-6c-0.1-4.3,0.2-8.7-0.8-13c0.9,0,1.7,0,2.6,0
			C1019.1,837.9,1019.5,843.9,1019.8,850z"/>
		<path class="st5" d="M878.8,846c-0.8,0-1.7,0-2.5,0c0.6-6.1,1.2-12.1,1.7-18.2c0.2-2.1-0.4-4.3,1.6-5.9c0.6,0.1,1.1,0.1,1.7,0.2
			C880.4,830,879.6,838,878.8,846z"/>
		<path class="st4" d="M1019.8,850c-0.4-6-0.7-12-1.1-18c-0.1-2.9-0.9-5.8-0.7-8.8c0.3-4.9,2.5-6.8,6.8-4.8
			c14,6.6,28.5,11.5,43.3,15.9c1.2,0.4,2.3,1.4,3.6,1.6c2.2,0.5,2.2,2,2.3,3.7c0.1,1.8-0.6,2.9-2.1,3.5c-16.3,5.9-32.2,12.8-49,17.4
			c-2.5,0.7-2.8-0.7-2.9-2.5C1019.9,855.3,1019.9,852.6,1019.8,850z"/>
		<path class="st3" d="M1004.3,574.5c-0.1,0.1-0.2,0.1-0.3,0.2c-0.1-0.2-0.2-0.3-0.3-0.5c0.1,0,0.3-0.1,0.4-0.1
			C1004.2,574.3,1004.2,574.4,1004.3,574.5z"/>
	</g>
</g>
</svg>
