<?xml version="1.0" encoding="utf-8"?>
<!-- Generator: Adobe Illustrator 27.3.1, SVG Export Plug-In . SVG Version: 6.00 Build 0)  -->
<svg version="1.1" id="Layer_1" xmlns="http://www.w3.org/2000/svg" xmlns:xlink="http://www.w3.org/1999/xlink" x="0px" y="0px"
	 viewBox="0 0 1920 1080" style="enable-background:new 0 0 1920 1080;" xml:space="preserve">
<style type="text/css">
	.st0{fill:#936B63;}
	.st1{fill:#FFFFFF;}
	.st2{fill:#577900;}
	.st3{fill:#7A6601;}
</style>
<g>
	<g>
		<path d="M1475.9,375.3c-0.9,4.1-1.3,8.4-2.8,12.4c-1.5,4.1-3.3,7.9-5.6,11.6c-0.8,1.3-1.1,2.6-0.6,4.2c1.4,4.5,1.7,9.2,2.3,13.8
			c0.8,5.6,0.7,11.2,0.7,16.8c0.1,7.7,0.1,15.4-0.7,23c-0.3,3.1-0.1,6.3-0.5,9.5c-0.6,5.2-0.5,10.4-1.1,15.6
			c-0.8,6.7-1.4,13.4-2.2,20c-0.8,6.7-1.6,13.5-2.6,20.2c-1.1,7.5-2.4,15-3.7,22.5c-1.4,8.1-2.8,16.2-4.5,24.3
			c-1.4,6.8-3.1,13.6-4.6,20.3c-2.7,11.9-5.9,23.6-9.3,35.3c-4.6,16-10.1,31.6-16.4,47c-4.8,11.5-10.3,22.7-16.5,33.6
			c-5,8.7-10.4,17.1-16.8,24.7c-8.4,10.1-17.9,19-29.9,24.7c-7.8,3.7-16,6.2-24.8,5.5c-5-0.4-9.1-3-12-6.9c-1.6-2.1-3.3-1.8-5.1-1.6
			c-6.7,0.7-13.3,1.1-20,0.5c-10.7-1-18.9-6.7-26.8-13.3c-10.4-8.6-17.5-19.6-23-31.6c-4.6-10-7.6-20.5-9.6-31.3
			c-1.3-7.2-2.4-14.4-2.4-21.7c0-0.5,0.5-1.4-0.6-1.5c-1.1-0.1-0.6,0.8-0.8,1.3c-2.7,8.4-6.2,16.2-12.9,22.3
			c-5.4,4.9-11.6,8.1-18.8,9.4c-5.8,1.1-11.6,1.5-17.5,2c-16.4,1.3-32.8,0.5-49.2,0.3c-6.7-0.1-13.4-0.8-20-1.4
			c-4.7-0.4-9.4-1-14-1.4c-0.7-0.1-1.2-1-2.1-0.3c2.3,2.9,5.4,5.1,8.1,7.6c1.9,1.7,3.8,3.5,5.8,5.1c7.7,6.6,15.1,13.4,22.6,20.1
			c3.8,3.4,7.6,7,11.4,10.4c6.7,6,13.5,11.9,20.2,17.8c3.2,2.8,6.4,5.7,9.5,8.5c6.8,6.2,13.7,12.4,20.7,18.3c3.4,2.9,6.6,6.1,10,9
			c6.8,5.9,13.4,12.1,20.5,17.7c0.8,0.6,1.2,0.6,2,0.2c8.8-4,18.1-6.4,27.6-8.3c9.7-1.9,19.3-2.7,29.1-2.5
			c14.7,0.3,28.4,4.3,40.1,13.4c9.7,7.6,15.7,17.6,18.3,29.7c2.9,13.3-0.1,25.7-4.8,37.9c-2.2,5.7-4.9,11.1-8.5,16.1
			c-4.8,6.7-10.9,11.8-18,15.8c-8.2,4.6-17.1,7-26.2,8.6c-3.3,0.6-6.7,1-10.1,1c-0.7,0-1-0.1-1.3,1c-0.7,3-0.2,5.9-0.6,8.9
			c-1.3,10-4,19.5-8.7,28.4c-5,9.4-11.9,16.8-21.3,22.1c-5.9,3.3-12.1,5.3-18.6,6.7c-8,1.7-16.3,1.5-24.4,0.9
			c-8.8-0.6-17.3-3.1-24.9-8c-8.2-5.4-13.8-12.9-17.3-22c-3.9-10.2-4.1-20.8-3.9-31.5c0.3-13.9,3.1-27.3,7-40.6
			c1.1-3.6,2.3-7.2,3.7-10.7c0.4-0.9,0.1-1.3-0.4-1.8c-3.3-3.2-6.5-6.6-10.1-9.5c-2.8-2.2-5.2-4.8-7.9-7.2
			c-5.5-4.8-10.7-9.9-16-14.9c-6.2-5.8-12.4-11.5-18.7-17.2c-6-5.4-11.9-10.9-17.8-16.4c-6-5.6-12.1-11.1-18.2-16.7
			c-5.6-5.2-11.3-10.3-17-15.5c-7.2-6.7-14.5-13.4-21.9-20c-1.2-1-2.5-2-3.5-3.1c-1.4-1.5-1.9-0.8-2.4,0.7
			c-4.3,14.5-10.4,28.3-17.5,41.7c-5,9.4-10.7,18.4-17.2,27c-4.4,5.8-9,11.5-13.9,16.9c-2.5,2.7-5,5.5-7.7,8.1
			c-11.1,10.4-22.9,20-36.1,27.7c-7.7,4.5-15.7,8.4-23.9,12.1c-11.8,5.2-24,8.7-36.4,11.8c-6.8,1.7-13.8,2.4-20.7,3.5
			c-16,2.6-32,2.4-48.1,2.5c-6,0-12.1-0.1-18.1-0.8c-10.1-1.1-20.1-2.7-30.1-5c-14.6-3.4-28.5-8.5-41.6-15.6
			c-7.1-3.9-13.7-8.5-19.8-13.8c-3.1-2.7-6-5.7-8.9-8.6c-1.5-1.4-2.7-3.1-4.1-4.6c-2.5-2.6-5.2-3.1-8.6-1c-3.6,2.2-7,4.9-10.4,7.5
			c-10.3,7.7-20.5,15.4-30.8,23.1c-9.9,7.4-19.7,14.9-29.6,22.3c-8.9,6.6-17.9,13.2-26.8,19.8c-8.2,6.1-16.4,12.3-24.7,18.3
			c-6.9,5-13.8,10-20.7,15c-7.6,5.4-15.2,10.8-22.8,16.1c-2.3,1.6-4.7,3-7.1,4.3c-3.5,1.9-7.2,1.2-10.6-0.2
			c-6.3-2.4-11.6-6.4-16.9-10.5c-5.9-4.6-11.1-10-16.2-15.4c-6-6.3-11-13.3-15.3-20.8c-2.9-5.2-5.2-10.6-6.7-16.4
			c-1-3.7-0.8-7.5-0.7-11.3c0-1.4,1.1-2.4,1.9-3.4c5.6-7.3,11.7-14.1,18.5-20.3c7.4-6.9,14.8-13.7,22.5-20.3
			c7.3-6.3,14.7-12.5,22.2-18.6c9.7-7.9,19.6-15.7,29.5-23.4c17-13.3,34.2-26.2,51.4-39.3c11.5-8.7,23.2-17.2,34.8-25.8
			c9.5-6.9,19-13.6,28.5-20.5c10.2-7.4,20.3-14.8,30.5-22.2c6.8-5,13.8-9.8,20.6-14.7c2.6-1.9,3.9-4.8,6-7.1
			c2.4-2.6,4.4-5.5,6.8-8.1c5.4-6.1,11.1-11.9,17-17.4c6.2-5.9,12.6-11.5,19-17.1c3.9-3.4,8-6.5,12-9.7c0.7-0.6,0.8-1.1,0.4-2
			c-4-9.7-6.4-19.9-8.4-30.3c-1.5-7.7-2.6-15.5-3.4-23.4c-0.6-5.9-1.1-11.7-1.5-17.6c-0.6-10-0.5-20-0.4-30.1c0-1.6-0.6-2.4-2-2.9
			c-9.3-3.9-18.5-8-27.8-11.7c-9.3-3.7-18.5-7.7-27.7-11.4c-10-4.1-20-8-29.9-12c-10.8-4.4-21.6-9-32.4-13.4
			c-9.2-3.7-18.4-7.3-27.6-11.1c-10.2-4.2-20.4-8.6-30.6-12.9c-11.6-4.9-23.2-9.9-34.7-15c-10.4-4.6-20.5-9.9-28.1-18.9
			c-4.9-5.8-8.6-12.1-9.7-19.9c-1.2-9,2.2-16.1,7.4-22.9c4.3-5.7,10-9.3,16.7-11.2c4.7-1.3,9.7-1.6,14.6-0.7
			c11.9,2.3,22.9,7.6,34.2,11.6c8.7,3.1,17.3,6.4,25.9,9.6c9.9,3.7,19.9,7.3,30.1,10.4c4.9,1.6,9.9,3.1,14.9,4.1
			c1.8,0.4,3.7,0.1,5.5,0.1c1.3,0,1-1,0.8-1.5c-0.5-1-0.9-2.1-1.7-3c-5.8-6-12.1-11.2-18.6-16.3c-6.8-5.3-13.7-10.6-20.6-15.7
			c-7.5-5.6-15.1-11.1-22.7-16.7c-5.7-4.2-11.6-8.1-16.9-12.8c-1.1-1-2.1-1.3-3.5-0.5c-6.6,3.6-13.6,6.2-20.8,8.2
			c-5.3,1.5-10.6,2.8-16.3,2.9c-3,0-6,0.3-9,0.3c-7.4,0-14.4-1.7-20.9-5.4c-12.7-7.3-22.1-17.5-28.2-30.6
			c-3.5-7.5-4.7-15.4-4.5-23.7c0.4-12.5,5.6-22.7,13.4-31.9c6-7.2,13-13,21.6-16.9c4.7-2.1,9.7-3.2,14.7-4.1
			c6.4-1.1,12.9-0.7,19.3,0.4c2.8,0.5,3,0.2,3.2-2.6c0.7-10.9,4-20.9,11.1-29.5c7.6-9.1,17.6-14.3,28.8-17.3
			c6.1-1.6,12.3-3,18.6-2.9c5.7,0.1,11.5-0.5,17.1,0.4c8.5,1.3,16.4,4.1,23.3,9.6c9.4,7.5,14.2,17.7,17,28.9
			c1.7,6.7,2.7,13.6,2.3,20.5c-0.6,13-2.8,25.8-9.2,37.4c-0.7,1.2-1.6,2.3-2.4,3.4c-0.8,1.1-1.8,2-2.7,3.1
			c7.9,7.6,15.7,15.3,23.8,22.7c3.7,3.4,7.2,6.9,10.9,10.2c7.4,6.5,14.4,13.4,21.6,20c4.6,4.3,9.3,8.5,14.1,12.6
			c6.8,5.8,13.5,11.8,20.3,17.6c6.7,5.7,13.5,11.4,20.6,16.6c3.2,2.4,6.4,4.9,10.2,6.4c2.3,1,5,0.2,5.9-1.5c1.2-2.1,0.6-4.5-1.5-6.2
			c-3.1-2.4-6.3-4.8-9.5-7.1c-0.9-0.6-1.8-1.2-2.7-1.8c-1.1-0.7-1.1-1.7-0.9-2.7c2.9-12.6,7-24.8,12.1-36.8
			c6.5-15.2,14.5-29.6,23.9-43.3c4.2-6.2,8.8-12.1,13.7-17.8c4.6-5.3,9.2-10.7,14.2-15.5c11.9-11.3,24.7-21.5,38.8-30
			c11.3-6.8,23.1-12.6,35.4-17.3c10-3.9,20.5-6.6,31-9.1c7.7-1.8,15.6-2.9,23.4-4.1c4.2-0.6,8.6-0.8,12.9-1.2c8.6-0.8,17.1-1,25.7-1
			c7.4,0,14.7,0.4,22.1,1.1c15.4,1.5,30.5,4.4,45.3,8.8c14.7,4.4,28.9,10.2,42.5,17.2c5.3,2.8,10.5,5.9,15.5,9.2
			c0.6,0.4,1.3,0.8,2,1.1c2.6-10.6,6.1-20.8,10.4-30.8c6.1-14.2,13.8-27.4,23-39.7c12.6-16.8,27.8-30.9,46-41.6
			c9.1-5.3,18.6-9.8,28.7-12.9c9.6-3,19.3-5.3,29.3-6.5c2.9-0.3,5.9-0.4,8.7-1.4c4.5,0,9,0,13.4,0c1.1,1,2.4,0.7,3.6,1
			c12.1,2.7,22,8.7,29,19.1c4,5.9,6.2,12.2,5.8,19.5c-0.2,4.3-0.3,8.7-1.1,12.9c-0.7,3.6-1.3,7.3-3.4,10.5c-0.8,1.1-0.6,1.8-0.1,2.8
			c1.4,2.7,2.8,5.5,4,8.3c4.8,12.2,9.1,24.5,12.4,37.2c2.2,8.5,4.3,17.1,6,25.7c1.3,6.8,2.7,13.5,3.9,20.3
			c1.2,6.4,2.1,12.9,3.2,19.3c0.9,5.3,1.1,10.7,2,16c1,6,1.6,12.1,2.2,18.1c0.6,5.7,1.1,11.4,1.6,17.1c0.6,6.6,1,13.1,1.8,19.7
			c0.5,4.7,0.7,9.4,0.9,14.1c0.3,6,0.6,12,1,18c0.3,4.4-0.5,8.9,0.8,13.4c5.7-3.5,10.2-8.1,14.7-12.7c10.8-10.9,20.9-22.6,31.9-33.2
			c8-7.7,16.3-15,26.8-19.5c8.6-3.7,17.2-3.4,25.8-0.3c7,2.5,13.1,6.5,18.2,12.2c3.8,4.3,6.9,8.9,8.8,14.4c0.8,2.3,1,4.8,2.2,6.9
			c0,2.7,0,5.4,0,8.2C1475.2,370.5,1476.1,372.9,1475.9,375.3z M528.4,946.6c0.2-0.1,0.4-0.3,0.5-0.4c7.1-4.7,13.8-10,20.7-15.1
			c1.1-0.8,0.5-1.2,0-1.9c-5.2-6-10.4-11.9-15.5-17.9c-7.6-8.8-15.1-17.5-22.6-26.3c-5-5.9-10.1-11.7-15-17.7
			c-1.1-1.3-1.8-1.4-3-0.2c-1.7,1.7-3.6,3.1-5.4,4.7c-9.7,8.6-19.7,17-27.8,27.2c-2.6,3.2-4.4,6.7-3.6,11c0.8,4.3,2.3,8.3,4.8,12
			c4.8,7.2,10.2,13.8,16.7,19.5c7.2,6.3,14.6,12,23.6,15.6c4.5,1.8,8.6,1.8,12.7-1c2-1.3,4.1-2.4,5.9-4c2.6-1.5,5.1-3.1,7.3-5.1l0,0
			C527.9,947.2,528.2,947,528.4,946.6C528.4,946.6,528.4,946.6,528.4,946.6z M839.8,299.1c0.2-0.2,0.3-0.3,0.5-0.5l0,0
			c1.7-1.2,2.7-3,4.1-4.5c3.3-3.5,3.3-3.5-0.3-6.6c-4.9-4.4-9.8-8.8-14.7-13.2c-1.5-1.4-2.6-1-3.9,0.4
			c-11.9,12.6-22.3,26.4-31.2,41.3c-6.4,10.8-12.1,21.9-16,33.8c-1.6,4.9-3.4,9.9-3.2,15.2c0.1,1.7,0.5,2.6,2.4,2
			c0.4-0.2,0.9-0.2,1.4-0.2c7.2-0.5,14.4-1,21.7-1.4c1.2-0.1,1.8-0.4,2.2-1.6c5-16.2,13.3-30.7,22.6-44.7c4.4-6.6,9.4-12.6,14-19
			C839.7,299.8,839.9,299.5,839.8,299.1C839.9,299.1,839.8,299.1,839.8,299.1z M629.7,760.1c-0.5-0.1-0.8,0.1-1,0.5
			c-6.2,3.2-10.9,8.3-16.5,12.4c-2.5,1.2-0.7,2.3,0.1,3.4c0.8,1.4,1.6,2.9,2.6,4.3c6.7,8.8,13.3,17.7,20.1,26.3
			c9.2,11.6,18.4,23.2,28.3,34.2c0.8,0.9,1.2,0.8,2,0.2c3.7-3,7.4-5.9,11.1-8.9c2.6-2.1,3-3.4,2.1-6.7c-0.8-3-1.3-6.1-1.9-9.2
			c-0.6-3.2-1-6.3-1.5-9.5c0-2,0.3-4.1-0.4-6.1c-0.3-5.7-0.6-11.3,0-17c0.6-1.7,0.4-3.5,0.4-5.2c0.3-2.4,0.7-4.8,0.9-7.2
			c0.1-1.2,0.5-2.5-0.5-3.6c-7.1-7.7-13.7-15.8-20.4-23.9c-0.7-0.8-1.6-1.9-3.4-0.7c-2.1,1.4-4.4,2.6-6.4,4.3
			c-3.4,2.8-7.3,5-10.4,8.2C633.1,757,631,758.1,629.7,760.1L629.7,760.1z M830.9,375c-9.2-0.2-18.5,0.2-27.7,0.9
			c-0.6,0-1.4-0.4-1.7,0.3c-0.3,0.7,0.4,1.3,0.9,1.8c3.5,4.1,7,8.2,10.4,12.4c7.7,9.5,13.9,19.9,17.9,31.6c3.5,10.3,4.3,20.9,4,31.6
			c-0.2,5.2-1,10.3-3.1,15.2c-2.2,5.2-6.1,7.8-11.8,7.9c-3.8,0-7.3-1.3-10.8-2.4c-9.9-3.2-19.9-6.5-29.7-10
			c-12.7-4.5-25.3-9.2-37.9-13.9c-8.2-3-16.4-6.1-24.6-9.2c-11.5-4.3-23-8.7-34.5-13.1c-9.9-3.8-19.8-7.7-29.7-11.5
			c-9-3.5-18-7-27.1-10.5c-11.5-4.4-22.9-8.9-34.4-13.3c-10.7-4.1-21.4-8.2-32-12.4c-6.6-2.6-13.3-4.6-20.3-5.4
			c-8.1-1-15.1,1.6-20.2,8.1c-3.8,4.8-5.5,10.2-3.8,16.5c2.5,9.2,8.4,15.7,16.5,19.8c13.8,7.1,28.2,13,42.6,19
			c10.2,4.3,20.3,8.8,30.5,13.1c10.1,4.2,20.2,8.3,30.2,12.5c11.1,4.6,22.1,9.3,33.2,13.9c10.7,4.4,21.4,8.7,32,13.1
			c9.5,3.9,19,8,28.5,11.9c11.4,4.7,22.9,9.3,34.4,14c7.8,3.2,15.7,6.4,23.5,9.6c6.1,2.5,12.2,5.1,18.3,7.7c1,0.4,2.2,0.9,2.2,2.4
			c0.1,2.5-1.3,4.1-3.9,4.2c-5.5,0.2-10.3-2.5-15.3-4.3c-7.1-2.6-13.8-6-21.1-7.9c-1-0.3-1.2-0.2-1.6,0.9c-0.8,2.1-0.7,4.4-0.7,6.5
			c-0.3,10.3-0.7,20.5,0.3,30.8c0.6,6.5,1.6,12.9,3,19.3c2.5,11.3,6.3,22.2,11.8,32.4c6,11,13.8,20.6,23.4,28.5
			c9.1,7.5,19.3,13,30.4,16.8c7,2.4,14.2,4.1,21.6,5.3c7.5,1.3,15.1,2.3,22.7,2.2c14.6-0.2,29.3,0,43.9-1.2
			c8.5-0.7,17.1-1.2,25.7-2.1c6.4-0.7,12.8-1.3,19-2.5c8.1-1.5,16.2-2.7,24.2-4.6c8-2,16.1-3.8,23.9-6.2c9.3-2.9,18.5-6.2,27.5-10.1
			c9.7-4.1,18.9-9,27.8-14.6c6.3-4,12.3-8.5,17.9-13.5c6.2-5.5,12.1-11.2,17.1-17.8c5.7-7.4,10.4-15.3,14.2-23.8
			c3.3-7.6,5.3-15.4,5.3-23.7c0-2.1-0.5-4.1-0.5-6.1c-0.1-5.5-0.9-11-1.9-16.4c-1.2-6.4-2.5-12.7-4.3-18.9
			c-1.6-5.8-3.1-11.6-4.9-17.3c-2.2-6.9-4.7-13.6-7-20.4c-1.9-5.7-4.2-11.4-6.5-17c-2.6-6.5-5.4-12.9-8-19.4
			c-2.6-6.3-5.6-11.8-12.7-14.4c-7.4-2.8-14.7-5.9-22.4-8.1c-7.1-2-14.2-4.1-21.3-6.1c-6.1-1.7-12.2-3.3-18.4-4.6
			c-6.8-1.5-13.6-2.8-20.5-4c-3.6-0.6-7.1-0.8-10.6,1.2c-11.5,6.3-22.5,13.4-33.4,20.7c-4.3,2.9-4.3,3.1-0.6,6.8
			c1.9,1.9,3.7,3.7,5.6,5.6c5.8,5.6,11.1,11.6,15.5,18.4c10,15.3,13.7,31.8,9.3,49.9c-2.5,10.3-7.4,19.5-12.9,28.5
			c-5.9,9.4-14.1,15.2-24.6,18.6c-7.3,2.3-14.6,3.8-22.1,4.1c-9.3,0.4-18.5,0.1-27.5-2.8c-7-2.3-13.3-5.8-18.2-11.3
			c-7-8-9.3-17.9-9.7-28.3c-0.2-3.8,0.5-7.5,0.9-11.3c0.8-6.7,2.4-13.1,4.4-19.5c3.2-10.6,7.7-20.7,12.9-30.5
			c0.5-0.9,0.6-1.4-0.1-2.4c-1.5-2.2-2.9-4.5-4.2-6.9c-0.7-1.3-0.1-1.6,0.8-2c7-3,14.2-5.9,21.1-9.1c13-6,26.1-11.8,38.8-18.3
			c8.9-4.5,18-8.8,26-14.8c1.9-1.4,2.1-2.3,0.3-3.8c-1-0.8-2.1-1.5-3.3-2c-8.1-3.4-16.7-4.9-25.3-6.4c-8.1-1.4-16.3-2.3-24.4-3.3
			c-6.6-0.8-13.2-1.4-19.9-1.9c-6.9-0.5-13.8-1-20.8-1.4c-6.8-0.3-13.6-0.7-20.4-1C845.7,375.1,838.3,374.8,830.9,375z
			 M1174.6,919.6c0,4.1,0.1,8.2,0.9,12.2c2.4,11.5,8.4,20.3,18.8,25.9c12.1,6.4,24.8,6.6,37.6,2.4c10.8-3.5,18.2-11,23-21.1
			c5.1-10.6,6.5-22.1,7-33.8c0.1-2.1-0.2-4.2-0.4-6.4c-0.2-1.6-0.5-3.5,0.3-4.7c0.8-1.2,2.6,0.2,4,0.2c10.1,0.1,20.1-1,30-2.8
			c8.4-1.6,14.5-6,19.5-12.7c4.8-6.3,8-13.3,10.2-20.9c2.5-8.8,3.4-17.7,1.2-26.7c-2.1-8.4-6.6-15.3-14.8-18.9
			c-9.7-4.3-20.1-5.6-30.6-6.2c-2.6-0.2-5.2,0.3-7.8,0.4c-6.6,0.2-13,1.5-19.3,3.3c-8.4,2.4-16.3,5.9-24.2,9.7
			c-2.1,1-4.1,1.9-6.1-0.4c-1.4-1.5-3-2.8-4.5-4.1c-4.4-3.7-8.6-7.6-12.9-11.4c-6-5.3-12.1-10.5-18.2-15.8c-2.8-2.4-5.5-4.9-8.3-7.4
			c-5.6-4.8-11.2-9.6-16.8-14.4c-4.2-3.6-8.2-7.3-12.4-10.9c-6-5.2-12-10.4-18-15.6c-3.8-3.3-7.6-6.6-11.4-9.9
			c-5.6-4.8-11.2-9.6-16.8-14.4c-4-3.5-8-7.1-12.1-10.6c-5.3-4.6-10.6-9-15.9-13.6c-3.8-3.3-7.6-6.6-11.4-9.9
			c-5.1-4.4-10.3-8.7-15.4-13.1c-4.4-3.7-8.7-7.4-13.1-11.2c-0.4-0.4-0.9-0.5-1.3-0.3c-0.5,0.2-0.4,0.9-0.3,1.3c1,2.2,0.5,4.7,0.8,7
			c0.7,5.9,0.6,11.8,1,17.7c0.6,10.3-0.2,20.5-0.4,30.8c0,0.4-0.1,0.8-0.2,1.1c-0.5,3.2-1.1,6.4,2.7,8.1c0.3,0.2,0.6,0.5,0.9,0.8
			c4.6,4.3,8.8,9,13.5,13.1c4.8,4.2,9,9,13.7,13.3c6.9,6.2,13.1,13.3,20.1,19.5c4.8,4.2,9,9.1,13.9,13.4c4.7,4.1,9,8.7,13.5,13.1
			c7,6.7,13.8,13.5,21,20c4.6,4.2,8.8,9,13.6,13.1c4.8,4.2,9,8.9,13.7,13.3c8,7.4,15.6,15.3,23.5,22.8c1.2,1.2,1.1,2.2,0.6,3.4
			c-3.1,7.1-5.6,14.3-7.7,21.7C1176.4,899.7,1174.3,909.4,1174.6,919.6z M690.5,790.3c0.2,3.6,0.1,7,0.4,10.4
			c0.6,5.7,1.6,11.2,3.3,16.6c4.9,15.6,14.4,28.1,27.1,38c9.5,7.4,20.2,12.7,31.6,16.6c8.9,3,17.9,5.1,27.2,6.8
			c9.4,1.7,18.9,2.8,28.4,3.2c11.5,0.5,23,0.4,34.4-0.5c1.9-0.1,3.8-0.1,5.6-0.5c5.6-1.1,11.2-1.6,16.8-2.7
			c5.8-1.2,11.7-2.3,17.4-3.9c7.8-2.2,15.4-4.7,23-7.7c10.2-4,20.1-8.7,29.5-14.3c9.3-5.5,18.1-11.6,26.4-18.6
			c7.2-6,14-12.3,20.2-19.3c6.1-6.7,11.7-13.8,16.2-21.6c2.1-3.6,4.3-7.3,4.8-11.7c0.1-0.5,0.6-1.2-0.4-0.9
			c-5.3,1.3-10.6,2.1-15.9,3.1c-3.9,0.7-7.8,1.8-11.8,2.6c-7.2,1.4-14.3,2.7-21.5,4c-7.5,1.4-15,2.5-22.5,3.6
			c-5.7,0.9-11.5,1.4-17.2,2.1c-6.9,0.8-13.8,1.6-20.6,1.7c-13.1,0.2-26.2,0.7-39.3-0.7c-6.4-0.7-12.9-1.4-19.3-2.4
			c-8.9-1.5-17.7-3.6-26.4-6.2c-13.4-4-26-9.8-38.1-16.8c-10.7-6.2-20.4-13.7-29.4-22.1c-10.1-9.4-19.1-19.9-26.9-31.4
			c-1-1.5-1.5-1.2-2.2,0.3c-4.9,9.4-9.2,19.1-12.6,29.2C693.7,761.1,690.4,775.5,690.5,790.3z M552.4,243.4c-0.5,0-1.3,0.1-2,0
			c-0.8-0.1-1.5-0.4-2.3-0.4c-10.8-0.8-21.4-0.4-31.9,2.9c-10,3.2-18.9,8.1-24.8,17.1c-5.4,8.3-7.9,17.3-7.3,27.3
			c0.3,5.6,1.5,10.8,3.9,15.9c4.2,8.9,11,15,19.9,19c3.7,1.6,7.5,2.9,11.5,3.5c4.7,0.8,9.4,1.6,14.2,0.7c8.1-1.5,15.5-4.5,22.5-8.7
			c3.7-2.2,7.4-4.4,11.1-6.6c1-0.6,2.1-1.3,3.2-0.1c1.8,2,4,3.4,6.1,5.1c7.1,5.9,14.1,12,21.2,17.9c8.1,6.6,16.3,13.1,24.4,19.7
			c6.3,5,12.5,10.1,18.9,15c6.3,4.8,12.7,9.5,19,14.3c9.6,7.3,19.3,14.3,29.2,21.1c8.3,5.7,16.6,11.3,25.2,16.6
			c10.4,6.4,20.9,12.5,32.1,17.2c2.5,1,5,1.9,7.6,2.6c1.2,0.3,2.2,0.4,2.6-1.8c0.7-4.6,0.3-9.3,0.6-13.9c0.4-5.3,0.6-10.6,0.7-15.9
			c0-2.1-0.6-3.8-1.9-5.3c-1.5-1.8-3.1-3.6-4.8-5.3c-7.7-7.8-15.5-15.5-23.7-22.8c-4-3.5-7.8-7.2-11.7-10.7
			c-7.5-6.7-14.9-13.6-22.4-20.4c-3.1-2.8-6.2-5.6-9.3-8.4c-7.6-6.6-15.2-13.2-22.7-19.9c-3.5-3.1-7-6.3-10.5-9.4
			c-8.9-7.7-17.8-15.4-26.7-23c-1.1-0.9-1.2-1.5-0.1-2.6c3.4-3.1,6.3-6.5,8.9-10.3c8.9-12.9,11.9-27,9.1-42.4
			c-1.5-8.2-4.9-15.7-9.9-22.4c-6.8-9.3-15.8-15-27.5-16.3c-7.4-0.8-14.6,0.3-21.7,2.1c-13.9,3.6-23.4,12.2-28.3,25.7
			c-1.5,4.1-2.2,8.4-2.6,12.6C552.2,236.4,552.4,239.8,552.4,243.4z M1282.5,410.8c4.5,0,9,0.1,13.4-0.1c1.1,0,2.9,0.4,2.9-1.7
			c0.1-4.3,0.2-8.6,0.4-12.8c0.5-12.9,0.2-25.7-0.2-38.6c-0.2-6.8-0.4-13.7-0.9-20.5c-0.2-2.9-0.2-5.7-0.4-8.6
			c-0.6-6.4-1.2-12.8-1.8-19.2c-0.4-4-0.4-8-1-12c-1.1-6.8-1.6-13.6-2.8-20.4c-1.2-6.5-1.8-13.1-3-19.6c-1.6-8.5-3.3-17-5.3-25.4
			c-3.5-14.7-7.9-29.1-12.8-43.4c-0.6-1.7-1.4-1.2-2.2-0.6c-1.7,1.1-3.2,2.5-4.8,3.7c-10,7-19.4,14.9-28.3,23.2
			c-9.4,8.7-18.2,18.1-26,28.3c-5.8,7.6-11.1,15.6-15.6,24.1c-4.3,8.2-7.8,16.7-10.2,25.7c-1.8,6.8-3.2,13.7-3.5,20.6
			c-0.2,6.3-0.2,12.5,0.4,18.8c0.5,5.3,1.5,10.5,2.7,15.6c1.7,7,4.2,13.8,7.1,20.4c3.9,9,9.2,17,17,23.1
			c9.4,7.3,20.1,11.7,31.5,14.6c4.9,1.2,9.9,2.2,15,3c5.1,0.8,10.2,1.3,15.4,1.8C1273.9,411.1,1278.2,410.8,1282.5,410.8z
			 M1190.6,386.8c0,6.4,0,12.4,0,18.3c0.1,13.7,0,27.4-1.1,41.1c-0.3,3.6,0.8,5.9,3.5,8.3c11.4,10.3,23.9,18.7,38.2,24.4
			c7.4,2.9,15,5.2,22.8,6.7c6.5,1.3,13.1,2.3,19.8,2.5c15,0.4,29.8-0.4,44.5-3.8c12.2-2.9,24.1-6.6,35.6-11.7
			c29-12.8,54.2-30.9,75.9-54.1c10.2-10.9,19.1-22.6,27.4-35c3.2-4.8,3.9-9.9,2.7-15.3c-2.8-12.3-10.2-20.7-21.8-25.8
			c-5.7-2.5-10.6-1.5-15.1,2.3c-6,5.1-12,10.3-17.7,15.7c-5.4,5.1-10.7,10.3-16.1,15.3c-6.3,5.8-12.4,11.7-19,17.1
			c-5.4,4.5-11,8.8-16.8,12.9c-10.7,7.7-22,14.3-34.9,17.3c-10.3,2.4-20.9,2.1-31.4,2.5c-10.4,0.4-20.9,0-31.3-1.2
			c-10.3-1.2-20.2-3.6-29.5-8c-8.8-4.2-16.4-10.1-23.4-16.9C1198.7,395.4,1194.8,391.2,1190.6,386.8z M1169.9,294.5
			c4.5-13.6,10.5-26.1,17.3-38.2c10.1-18.1,22.5-34.6,36.6-49.7c3.5-3.7,7.2-7.2,11-10.7c9.7-8.9,19.9-16.9,30.9-24.1
			c8.6-5.6,17.5-10.5,26.8-14.9c7.2-3.4,10.8-10.4,8.5-18.3c-1.8-6.3-5.5-11.2-10.3-15.4c-10-8.8-21.8-12.3-34.8-10.5
			c-14.1,2-27.4,7.1-40.2,13.2c-9.1,4.3-17.6,9.6-25.7,15.4c-8.9,6.3-17.3,13.4-24.5,21.6c-7.8,8.8-14.9,18.2-20.2,28.8
			c-2.5,5-5,10.1-6.9,15.4c-3.4,9.4-6.1,19-7.5,29c-0.3,1.9-1.7,4.2,0.3,6.3c4.6,4.9,9.1,9.8,13.5,14.8
			C1154.3,268.5,1163.7,280.1,1169.9,294.5z M1368.7,673.4c0.8-1.3,1.3-1.9,1.7-2.6c5.4-9.6,10-19.6,14.2-29.8
			c6.6-16,12-32.5,16.4-49.2c5-18.8,8.8-38,12.1-57.2c2.3-13.5,3.8-27.2,5.2-40.8c0.7-7,1.3-14,1.6-21.1c0.1-2.4,0.2-4.7,0.4-7.1
			c0.6-6.1,0.9-12.2,0.9-18.3c0-0.4,0.2-1.1-0.4-1.2c-0.3-0.1-0.7,0.3-1,0.5c-2.5,2.4-5.2,4.4-7.9,6.4c-5.1,4-10.4,7.6-15.9,11
			c-9.1,5.6-18.4,10.9-28.2,15.4c-7.9,3.6-15.7,7.3-23.9,10.2c-1.5,0.5-2.2,1.4-2.5,3c-0.6,3.6-1.1,7.2-1.9,10.7
			c-1.5,6.7-2.6,13.5-3.7,20.2c-1.2,7.2-2.6,14.5-3.6,21.8c-1,7.4-2.5,14.7-3.8,22c-1.1,6.7-2.4,13.3-3.2,20
			c-0.2,1.5-1.8,3.5,0.8,4.9c6.5,3.4,11.6,8.5,16.3,14c7.8,9.3,13.1,20,17.3,31.3C1364,648.9,1367.1,660.6,1368.7,673.4z
			 M1458.6,442.9c0.2-8.5,0-16.3-1.4-24c-0.3-1.8-0.7-3.6-1.9-5c-1-1.2-1.8-1.4-3,0.1c-4.2,4.9-8.3,9.8-12.9,14.3
			c-3,2.9-4.3,6.2-4.8,10.2c-0.9,7.6-1.9,15.2-2.9,22.9c-1.3,9.7-2.1,19.4-3.2,29.1c-0.8,7.2-1.2,14.4-2,21.6
			c-0.8,7.9-1.8,15.7-2.8,23.6c-0.9,7.5-1.7,15-3,22.5c-1.7,10-3.5,20-5.8,29.8c-4.2,18.4-9.8,36.5-17,54
			c-4.2,10.1-8.7,20-13.8,29.6c-4.1,7.6-8.3,15.2-12.8,22.6c-5.2,8.5-10.7,16.8-16.4,24.8c-6.6,9.2-13.4,18.1-20.5,26.8
			c-0.2,0.3-0.7,0.5-0.5,1c0.2,0.6,0.8,0.4,1.2,0.4c3.2,0.2,6.4-0.1,9.5-0.7c12.8-2.3,23.3-8.9,32.5-17.7c7.3-7,13.3-15,18.8-23.4
			c11.6-18.1,19.8-37.7,26.9-57.9c6.2-17.9,11.4-36,15.8-54.4c1.7-7.2,3.3-14.5,4.8-21.8c1.9-8.8,3.3-17.7,5-26.6
			c1.8-9.5,3.3-19,4.5-28.5c1.2-8.9,2.2-17.7,3.1-26.7c0.9-8.8,1.7-17.7,2.2-26.6C1458.4,456,1459.1,449.1,1458.6,442.9z
			 M1238.8,629c0.2-0.1,0.4-0.1,0.5-0.2c2.4-8.9,8.1-15.8,14.4-22.2c5.6-5.8,11.9-10.8,18.6-15.3c1.6-1.1,2.3-2.5,2.7-4.2
			c1.5-7.1,3.4-14.1,5-21.2c1.6-7.2,3-14.3,4.5-21.5c1.1-5.3,2-10.7,2.9-16.1c0.7-4.5,1.2-9.1,2-13.6c0.6-3.7,1-7.4,1.7-11.1
			c0.3-1.9,0.1-2.1-1.7-2.1c-9.7,0-19.3,0.2-28.9-1.3c-5.7-0.9-11.5-1.9-17.1-3.2c-7.5-1.8-14.8-4.1-22-7
			c-6.9-2.8-13.6-5.8-20.1-9.4c-5.5-3.1-10.8-6.6-16.1-10.1c-0.5-0.4-1-1-1.6-0.5c-0.8,0.5,0.1,1.2,0.3,1.6
			c2.1,5.9,4.4,11.8,6.6,17.7c6.4,17.7,12.7,35.4,19.4,53c3.3,8.8,6.3,17.7,9.5,26.6c3.4,9.5,7.1,19,10.1,28.6
			C1232.6,608,1237.2,618,1238.8,629z M1300.3,601.3c-2.6,0.1-5.1,0.1-7.6,0.5c-10.9,1.5-20.4,5.6-27.8,14.1
			c-5.2,6-8.3,13.1-9.9,20.7c-1.6,7.6-2.5,15.4-1.8,23.4c0.5,5.9,0.9,11.8,2,17.7c1.7,8.5,4,16.7,7.8,24.5
			c7.2,14.5,17,26.8,31.4,34.8c3.6,2,7.5,3.4,11.8,3.5c4.8,0.1,9.5-0.7,14.1-2c12.3-3.5,21.5-10.9,27.5-22.2
			c6.9-13,8.5-27.2,9.1-41.6c0.2-4.7-0.6-9.2-1.8-13.7c-4.9-18.2-12.5-34.9-26.6-48.1C1320.5,605.4,1311.3,601.1,1300.3,601.3z
			 M1135.7,450.5c-0.1,0.2-0.2,0.3-0.3,0.5c0.6,1.2,1.2,2.3,1.7,3.5c2.9,6.7,5.7,13.4,8.6,20.1c3.2,7.2,6.5,14.4,9.7,21.6
			c3,6.8,5.8,13.7,8.8,20.5c2.5,5.8,5.2,11.6,7.7,17.5c3.2,7.3,6.3,14.7,9.5,22c3.7,8.2,7.6,16.4,10.4,24.9
			c5.2,15.2,10.1,30.5,11.3,46.7c0.4,5,0.2,9.9-0.2,14.9c-0.2,2.5-0.9,5.1-2.4,7.4c-2.9,4.6-7.5,6.6-12.3,8.3
			c-5,1.7-10.4,2.2-15.7,2.4c-7.2,0.2-14.5,0.3-21.7-0.3c-5.9-0.5-11.8-0.9-17.6-1.5c-6.8-0.6-13.5-1.7-20.1-3.1
			c-12.8-2.7-25.5-6-38.1-9.8c-3.8-1.1-7.6-2.4-11.7-2.1c-3.7,0.3-7.4,3.7-7.3,7.1c0.1,2.4,2,3.5,3.7,4.5c3.2,1.8,6.6,3.4,10,4.9
			c7.1,3.1,14.4,5.5,21.8,7.5c10.2,2.7,20.5,4.7,31.1,5.9c6.6,0.8,13.3,1.5,19.9,1.7c10.8,0.3,21.7-0.1,32.5-0.4
			c2.4-0.1,4.9-0.2,7.3-0.4c5.1-0.5,10.2-1.4,15.4-1.8c8.2-0.6,14.7-4,19.6-10.6c4.4-6,6-13.2,6.8-20.4c0.9-7.9-0.9-15.5-2.6-23
			c-4.1-18.2-10.4-35.7-16.9-53.2c-3.8-10.2-8.1-20.1-12.1-30.2c-7.2-18.1-15.3-35.9-23.6-53.5c-2.4-5.2-5.3-10-9.6-13.9
			c-5.4-4.9-11.2-9.3-17.2-13.4C1140,453.1,1137.8,451.8,1135.7,450.5z M1014.1,388.3c1,0.1,1.4-0.7,1.9-1.2
			c2.4-2.5,4.6-5.3,7.2-7.7c7-6.3,13.8-12.8,21.1-18.7c1.6-1.3,1.3-2.1,0.2-3.4c-10.3-12.7-20.8-25.2-32-37.1
			c-7.6-8.1-15.2-16.2-22.9-24.1c-1.5-1.5-2.5-1.7-4.3-0.4c-10.4,7.6-20.4,15.5-29.5,24.6c-9.7,9.7-19,19.6-27.4,30.4
			c-0.9,1.2-1.2,2,0,3.3c4.5,5,8.9,10,13.3,15.1c1.2,1.4,2.5,2.5,4.6,2.6c1.9,0.1,3.8,0.6,5.6,1c19.6,3.7,38.9,8.7,58,14.5
			C1011.3,387.6,1012.7,387.9,1014.1,388.3z M1310.5,409.3c8.2-1.9,15.9-5,23.3-8.7c1.5-0.7,2-1.5,2-3.2c-0.1-8.7-0.3-17.4-0.4-26.1
			c-0.1-7.1-0.5-14.2-0.7-21.3c-0.1-3.3-0.2-6.5-0.4-9.8c-0.6-7.4-1.2-14.7-1.8-22.1c-0.6-7.2-1.2-14.4-2-21.6
			c-0.9-7.9-2.2-15.8-3.2-23.7c-1.2-9.2-2.8-18.3-4.5-27.3c-2.6-13.8-5.8-27.5-9.4-41c-3.3-12.2-7.2-24.2-11.6-36.1
			c-0.6-1.6-1-2.2-3-1.1c-5.4,3.2-10.5,7-15.9,10.4c-3.7,2.4-3.6,2.4-2.2,6.7c3.7,11.3,7.1,22.6,10.1,34.1
			c4.4,16.9,8.2,34,11.2,51.2c2,11.6,3.7,23.3,5.1,35c1.2,10.9,2.2,21.8,2.9,32.7c0.6,9.6,0.9,19.3,0.9,28.9
			c0.1,11.4,0.4,22.8-0.3,34.2C1310.4,403.5,1310.2,406.3,1310.5,409.3z M977.8,284.4c-0.2-0.2-0.4-0.5-0.6-0.7
			c-5.7-5.3-11.5-10.6-17.2-15.9c-10.3-9.7-21-18.8-31.7-28c-2-1.7-3.3-1.6-5.3-0.3c-8.9,6.1-17.7,12.5-26.1,19.3
			c-10.6,8.6-20,18.2-29.6,27.8c-1.2,1.2-1.2,2,0,3.2c3,2.9,5.9,5.8,8.8,8.8c8,8.1,16,16.1,23.8,24.2c5,5.2,9.9,10.6,14.8,16
			c1.1,1.2,1.7,1.8,3.2,0c6.7-8,13.5-16,21.2-23c5.5-5,10.9-10,16.6-14.7c6.7-5.5,13.7-10.6,20.8-15.5
			C977.1,285.4,977.7,285.2,977.8,284.4z M1064.5,259.2c-0.5,0.1-0.9,0.2-1.4,0.4c-8.3,2.2-16.5,4.8-24.6,7.9
			c-13.2,4.9-25.7,11.1-37.8,18.2c-1.3,0.8-1.5,1.4-0.4,2.5c4.8,5.1,9.5,10.3,14.2,15.5c5.1,5.6,10.1,11.2,15.1,16.9
			c8.6,9.8,16.8,19.9,24.8,30.1c0.8,1,1.3,1,2.3,0.3c2.9-2.2,5.8-4.3,8.7-6.3c13.8-9.5,28.2-17.9,43.6-24.4c1-0.4,2.8-0.5,1.4-2.5
			c-4.5-6.2-8.9-12.6-13.5-18.8c-9.7-13.2-19.9-26.1-30.5-38.5C1066,259.8,1065.5,259.1,1064.5,259.2z M656.5,847.5
			c-0.2-0.3-0.5-0.7-0.8-1c-5.6-6.8-11.3-13.5-16.8-20.3c-7.8-9.6-15.5-19.2-23.2-28.9c-4.2-5.3-8.5-10.5-12.7-15.7
			c-0.8-1-1.4-1-2.3-0.4c-3,2.3-5.9,4.8-9,7c-4.4,3.1-8.1,7.1-12.5,10.1c-8,5.3-15.2,11.7-23,17.3c-0.8,0.6-1.1,1.2-0.2,2.3
			c2.6,3.2,4.9,6.7,7.5,9.9c6.6,8.4,13.2,16.8,19.8,25.2c8.3,10.5,16.7,21,25.1,31.5c0.6,0.8,1.1,0.8,1.8,0.3
			c5.8-4.5,11.7-9,17.5-13.6c5.2-4.1,10.3-8.3,15.5-12.4c4-3.2,8.1-6.3,12.1-9.5C655.8,848.9,656.5,848.5,656.5,847.5z
			 M1047.1,251.9c2.6-1.3,5.4-2,8.1-2.9c0.8-0.3,0-0.9-0.3-1.3c-1.6-1.8-3.2-3.6-4.9-5.3c-6.9-7-13.9-13.9-21.3-20.4
			c-7-6.1-14.3-11.9-22-17.1c-1-0.7-1.9-0.8-3.1-0.5c-6.1,1.6-12.2,3.3-18.2,5.3c-10.2,3.3-20.2,7.3-29.9,11.9
			c-4.4,2.1-8.8,4.4-13.1,6.6c-1.6,0.8-2.5,1.4-0.4,3c3.6,2.8,6.9,5.9,10.1,9.1c7.9,7.5,15.8,15.1,23.7,22.7
			c4.4,4.2,8.6,8.5,12.9,12.9c1.1,1.1,2,1.1,3.1,0.4c7.3-4.4,14.8-8.3,22.6-11.8c9.5-4.3,19-8.5,28.9-11.8
			C1044.5,252.3,1045.7,251.7,1047.1,251.9z M559.6,923.1c1,0,1.5-0.6,2-1c3.4-2.6,6.8-5.2,10.2-7.9c8.7-6.7,17.4-13.5,26.2-20.1
			c1.1-0.9,1.4-1.4,0.3-2.5c-2.9-3.2-5.7-6.5-8.5-9.8c-8.9-10.4-17.8-20.9-26.7-31.3c-6.3-7.4-12.6-14.9-18.8-22.3
			c-1-1.2-1.7-1.6-3-0.4c-2.4,2.2-5.1,4.1-7.6,6.2c-9,7.3-17.9,14.6-26.9,21.9c-1.4,1.1-1.4,1.9-0.4,3.3c4.2,5.6,8.1,11.4,12.4,16.9
			c6.3,8.2,12.8,16.3,19.4,24.3c5.3,6.5,10.7,12.9,16.7,18.8C556.4,920.5,558.1,921.8,559.6,923.1z M1154.4,388.1
			c-0.5-0.8-0.9-1.6-1.4-2.4c-10.8-18.7-22-37.2-33.9-55.2c-0.9-1.4-1.6-1.6-3.2-1c-18.7,7.7-35.8,18.2-52,30.3
			c-1.5,1.1-0.7,2,0.1,3c12.4,16.2,24.3,32.7,35.4,49.7c2.1,3.2,2,3.1,5.1,1.1c11-7.3,23-12.7,35-18.1c4.5-2,9-3.9,13.5-5.9
			C1153.5,389.2,1154.3,389.1,1154.4,388.1z M896.7,365.8c1.6,0.5,2.6-0.6,3.6-2.3c2.4-4,5-8,7.8-11.7c1.2-1.6,1.1-2.4-0.3-3.7
			c-7.8-7.7-15.6-15.3-23.4-23c-6.5-6.3-13.1-12.4-19.5-18.7c-2.2-2.1-4.5-4.1-6.6-6.2c-1.2-1.2-1.9-1.2-2.9,0.3
			c-1.1,1.6-2.6,3-3.8,4.6c-9.3,11.9-17.6,24.4-25.4,37.3c-4,6.6-7.6,13.5-11,20.4c-0.9,1.8-0.5,2.2,1.4,2.1c2-0.1,4-0.3,6-0.3
			c12.5-0.2,25.1-0.6,37.6-0.3C872.1,364.3,884.2,364.6,896.7,365.8z M855.9,784.1c1.1-0.5,2.8,1,3.1-1.1c0.7-5.2,1.1-10.4,2-15.6
			c0.8-4.7,1.3-9.4,2.3-14.1c0.7-3.2,1.2-6.4,1.9-9.6c0.3-1.1,0.4-2.2-1.6-2.5c-8.3-1.6-16.4-3.7-24.3-6.4
			c-10.7-3.5-21.1-7.5-31-12.9c-2.1-1.1-3-0.8-4,1.4c-3,6.7-6.3,13.4-9.5,20.1c-2.9,6.1-5.7,12.3-8.8,18.3c-1,2-0.4,2.8,1.3,3.5
			c3.4,1.5,6.8,3.1,10.3,4.5c7.2,2.9,14.6,5.4,22.2,7.4c6.7,1.8,13.4,3.4,20.2,4.5C845.2,782.6,850.6,783.4,855.9,784.1z
			 M1018.6,666.1c-5.2,1.5-10.1,3-15.1,4.4c-7.9,2.2-15.9,4-23.9,5.7c-7.4,1.5-14.9,2.9-22.4,3.8c-2.6,0.3-3.2,1-3.3,3.7
			c-0.1,6.9-0.3,13.9-0.4,20.8c0,3.3-0.6,6.5-0.5,9.7c0.2,4.6,0.2,9.1-0.5,13.6c-0.2,1,0,1.7,1.3,1.6c2.4-0.1,4.7-0.6,6.9-1.1
			c11.7-2.7,23.4-5.6,34.7-10c7.8-3.1,15.6-6.2,23.2-9.8c1.3-0.6,2.1-1.2,2-2.9c-0.2-4.4-0.2-8.7-0.4-13.1
			C1020,683.7,1019.6,675,1018.6,666.1z M742.6,675.2c-0.6,0-0.9,0.4-1.1,0.8c-1.1,2.3-3.1,3.8-4.7,5.5c-5.5,6.1-10.3,12.7-15,19.4
			c-0.9,1.3-1.1,2.4-0.3,3.9c7.2,13.6,16.7,25.4,28.3,35.5c5.9,5.1,12,9.8,18.4,14.2c1.8,1.2,2.3,0.7,3.1-0.9
			c1.7-3.1,3.5-6.1,5.2-9.2c5.6-9.7,11.2-19.3,16.8-29c0.5-0.9,0.5-1.2-0.5-1.7c-1.8-0.9-3.4-2.1-5.1-3.2
			c-6.6-4.4-13.2-8.8-19.5-13.7c-8.5-6.5-16.6-13.6-24.3-21C743.5,675.5,743.2,675.1,742.6,675.2z M936.7,731.6
			c0.6-0.1,1.9,0.4,3.2-0.2c0.7-0.4,1.1-0.5,1.2-1.3c0.7-7,0.4-13.9,0.8-20.9c0.4-6.7,0.8-13.3,0.7-20c0-2,0.4-4.1,0.4-6.1
			c0-0.8-0.2-1.1-1.1-1c-4.6,0.5-9.1,1.2-13.7,1.3c-8.6,0.1-17.2,0.7-25.8,0.5c-2.4-0.1-4.9,0.4-7.2-0.1c-1.7-0.4-1.8,0.3-2.1,1.4
			c-1.2,4.9-2.5,9.7-3.7,14.6c-2,8.5-4,17-5.9,25.5c-0.3,1.4-1.1,3.3-0.5,4.3c0.6,1.1,2.7,0.7,4.1,1c6.2,1.1,12.4,1.7,18.7,1.9
			C916,732.5,926.1,732.7,936.7,731.6z M909.9,784.9c2-0.5,5.2-0.2,8.3-0.5c6.1-0.6,12.2-1.6,18.3-2.3c1.8-0.2,2.5-0.9,2.5-2.7
			c0.1-3.9,0-7.7,0.4-11.6c0.6-5.4,0.4-11,0.6-16.4c0.1-2-0.4-3.9,0.4-5.9c0.4-1-0.3-1.5-1.3-1.2c-4.9,1.2-9.9,1-14.8,1.2
			c-11.5,0.5-23.1,0.5-34.6-0.5c-2.1-0.2-4.3-0.1-6.5-0.8c-3.2-0.9-3.4-0.7-4,2.6c-1.1,6.2-2,12.4-3,18.5
			c-0.8,5.2-1.5,10.5-2.4,15.7c-0.7,4.2-0.7,4.4,3.4,4.4C887.8,785.5,898.3,785.9,909.9,784.9z M1112.1,252.6
			c-2.8,0-5.6,0.2-8.3,0.4c-7.8,0.5-15.5,1.5-23.2,2.9c-0.7,0.1-1.7-0.1-2,0.6c-0.3,0.8,0.6,1.5,1.1,2.2c7,8.1,13.6,16.6,20.1,25.1
			c7.3,9.7,14.3,19.6,21.1,29.6c0.9,1.4,1.8,1.6,3.3,1.1c7-2.1,14-4.2,21.2-5.5c2.8-0.5,5.8-0.4,8.5-1.9c1.3-0.7,1.5-1.2,0.9-2.5
			c-8.2-17.3-18.7-33-31.4-47.3c-2.9-3.3-6-5.6-10.6-4.6C1112.6,252.6,1112.3,252.6,1112.1,252.6z M1019.8,722.9
			c-11.3,4.9-22.5,8.9-33.9,12.3c-10.2,3-20.5,5.1-30.9,7c-1.6,0.3-2.5,0.7-2.6,2.7c-0.2,6.4-0.4,12.8-0.7,19.3
			c-0.2,4.6,0,9.3-0.2,14c-0.1,1.8,1,1.6,1.9,1.4c1.9-0.3,3.8-0.7,5.7-1.1c7-1.6,14.1-3,21.1-4.5c8.7-2,17.3-4.4,26-6.5
			c2.9-0.7,4.6-2.5,5.6-5.1c1.6-3.9,3-7.9,3.9-12.1c1-4.6,2-9.2,2.5-14C1018.9,732,1019.5,727.7,1019.8,722.9z M881.2,682.5
			c-4.6-0.6-9.1-0.8-13.5-1.7c-11.1-2.1-22.2-4.4-33-8.2c-1.5-0.5-2.4-0.4-3.3,1c-6.4,10-12.2,20.3-17.6,30.8
			c-0.7,1.3-0.4,1.9,0.9,2.5c5.5,2.9,11.3,5.5,17,7.9c10.3,4.4,21,7.9,31.8,10.8c5.6,1.5,5.7,1.3,6.9-4.5c1.8-8.4,4.3-16.7,6.7-25
			C878.5,691.6,879.9,687.1,881.2,682.5z M1305.8,587.8c1.1,0,2.2-0.1,3.4,0c1.6,0.1,2.4-0.3,2.9-2.1c2.4-8.6,4.6-17.2,6.5-25.9
			c1.8-8,3.5-16,4.8-24.1c1.2-7.2,2.6-14.3,3.7-21.5c0.9-5.7,1.6-11.4,2.4-17.2c0.2-1.1-0.3-1.5-1.3-1.3c-5.5,1.2-11,2.8-16.7,3.3
			c-1.9,0.2-3.8,0.8-5.8,0.7c-3.1-0.2-3.7,0.5-4,3.7c-0.1,1.7-0.3,3.3-0.6,5c-1.2,8.1-2.5,16.1-3.7,24.2c-1.2,7.6-2.4,15.3-3.7,22.9
			c-1.8,10.4-3.5,20.8-5.5,31.1c-0.4,2.3,0.4,2.4,2.1,2.1C1295.4,588.1,1300.6,588.2,1305.8,587.8z M754,663c2,2,4.2,3.9,6.3,6
			c4.6,4.4,9.4,8.4,14.4,12.2c8.2,6.2,16.5,12.4,25.5,17.6c2,1.2,2.7,0.8,3.6-0.8c5.7-9.4,11.4-18.8,17.3-28.1
			c1.1-1.8,0.5-2.2-0.9-2.8c-2.2-0.9-4.5-1.9-6.7-3c-12.5-6.1-24.2-13.5-34.7-22.8c-0.7-0.7-1.3-1.1-2.2-0.2c-1,1-2.2,1.8-3.2,2.8
			C767.1,650.4,760.1,656.2,754,663z M1178.9,408.1c-0.2-4-0.2-8-0.6-11.9c-1-11.4-2.4-22.7-4.7-33.9c-2.6-12.8-6-25.3-10.5-37.5
			c-2.1-5.6-2.2-5.7-8.2-5.5c-8.5,0.4-16.6,2.5-24.6,5.2c-1.2,0.4-1.3,0.9-0.7,1.9c1,1.7,2,3.5,3,5.1c4.6,7.3,9.1,14.7,13.5,22.1
			c7.2,12.1,13.9,24.3,20.4,36.8c3.8,7.3,7.3,14.6,11,22c0.2,0.4,0.3,1,0.9,0.8c0.5-0.1,0.5-0.6,0.5-1
			C1178.9,410.8,1178.9,409.4,1178.9,408.1z M857.3,280.2c0.3-0.2,0.6-0.4,0.8-0.7c1.7-1.6,3.4-3.1,5.1-4.7
			c7.7-7.6,15.9-14.4,24.3-21.1c9.3-7.4,19-14.3,29.1-20.8c1.1-0.7,1.7-1.3,0.3-2.4c-4-3.1-8-6.3-12-9.4c-0.6-0.5-1.2-0.7-2.2-0.3
			c-9,3.7-17.7,8.1-26.2,13c-12.8,7.5-24.8,16.1-35.7,26.1c-2.3,2.1-2.5,4.3-0.1,6.2c5,4.1,9.9,8.2,14.6,12.6
			C855.8,279.3,856.5,279.7,857.3,280.2z M1178,433.1c0.2-1.1-0.2-2-0.7-3c-4.6-8.6-9.2-17.1-13.8-25.7c-1.6-3-1.5-2.9-4.9-1.9
			c-14.8,4.6-28.2,12.1-41.7,19.6c-1,0.6-1.3,1.2-0.1,1.8c1.7,0.8,3.4,1.7,5.1,2.5c4.4,2.3,8.6,5,12.8,7.6
			c11.6,7.2,23.2,14.5,34.2,22.6c2.3,1.7,2.6,1.7,3.8-1C1176,448.5,1176.9,440.8,1178,433.1z M813.6,412.5c-0.8-1.7-1.4-3.5-2.2-5.1
			c-3.4-6.3-8.3-11.2-13.9-15.5c-3-2.3-6.2-4.2-9.6-5.7c-3.4-1.5-5.5-0.6-7,2.8c-2.3,5.1-3.9,10.4-5.4,15.8
			c-2,7.3-3.4,14.8-4.6,22.2c-0.9,5.5-1.2,11.1-1.4,16.7c-0.1,6.5-0.4,6.5,5.6,9.2c0.3,0.1,0.5,0.3,0.8,0.5c5.2,2.3,4,2.5,6.3-2.6
			c5.3-11.8,10.5-23.5,20.2-32.5C805.6,415.4,809.1,413.3,813.6,412.5z M1030.9,207.3c0.7,1.5,1.7,2.3,2.5,3.1
			c4.1,3.8,8.2,7.5,12.3,11.4c7.3,7.1,14.4,14.5,21.2,22.1c1.4,1.6,2.8,1.8,4.7,1.3c7-1.9,14.2-3,21.4-4.2c3.4-0.6,6.8-0.6,10.6-1.9
			C1081.8,222.2,1057.7,212.2,1030.9,207.3z M1079.6,408c0-1.2-0.5-1.7-0.9-2.3c-7.4-12-15.3-23.6-23.7-34.8c-1.9-2.5-1.9-2.5-4-0.6
			c-7.4,6.4-14.4,13.1-21.2,20.1c-1.8,1.9-1.8,1.9,0.8,2.7c10.9,3.2,21.9,6.4,32.8,9.7C1068.6,404.4,1074,406.2,1079.6,408z
			 M678.5,757.3c0.9-3.9,1.6-7.6,2.7-11.2c3.3-11.3,7.2-22.3,12.7-32.8c0.3-0.5,0.9-1.2,0.3-1.7c-0.5-0.4-1.1,0.1-1.6,0.5
			c-4.9,3.7-9.8,7.3-14.8,11c-4.8,3.5-9.6,7.1-14.4,10.6c-1.5,1.1-2,2-0.6,3.7c1.1,1.3,1.9,3,2.9,4.5
			C669.3,747.5,673,753,678.5,757.3z M964.5,205.5c-5.7,0.2-10.7,1.2-15.7,2c-8.3,1.4-16.5,3.3-24.5,5.8c-1.4,0.4-1.9,0.9-0.6,2.1
			c2.3,2.2,4.8,4.1,7.1,6.3c1.3,1.2,2.2,1.1,3.5,0.3c7.6-4.3,15.1-8.7,23-12.5C959.7,208.4,962,207.4,964.5,205.5z M926.4,368.6
			c0.1-0.2,0.1-0.4,0.2-0.5c-1.7-1.9-3.4-3.8-5-5.6c-0.6-0.6-1.2-0.8-1.8,0c-0.9,1.3-1.8,2.6-2.7,3.9c-0.4,0.6-0.6,1.2,0.5,1.3
			C920.5,367.9,923.4,368.3,926.4,368.6z"/>
		<path class="st0" d="M1475.9,375.3c0.1-2.4-0.7-4.8,0.5-7.2c0,2.4,0,4.8,0,7.2C1476.2,375.3,1476.1,375.3,1475.9,375.3z"/>
		<path class="st1" d="M830.9,375c7.4-0.2,14.9,0.1,22.3,0.4c6.8,0.3,13.6,0.6,20.4,1c6.9,0.4,13.8,0.9,20.8,1.4
			c6.6,0.5,13.3,1.1,19.9,1.9c8.2,1,16.3,1.9,24.4,3.3c8.6,1.5,17.2,2.9,25.3,6.4c1.2,0.5,2.3,1.2,3.3,2c1.8,1.5,1.6,2.4-0.3,3.8
			c-8.1,6-17.1,10.3-26,14.8c-12.8,6.5-25.9,12.3-38.8,18.3c-7,3.2-14.1,6.1-21.1,9.1c-0.8,0.4-1.4,0.6-0.8,2
			c1.3,2.4,2.7,4.7,4.2,6.9c0.7,1,0.5,1.5,0.1,2.4c-5.2,9.8-9.7,19.8-12.9,30.5c-1.9,6.4-3.5,12.9-4.4,19.5
			c-0.5,3.8-1.1,7.5-0.9,11.3c0.5,10.4,2.7,20.2,9.7,28.3c4.8,5.5,11.1,9,18.2,11.3c9,2.9,18.3,3.2,27.5,2.8
			c7.5-0.4,14.9-1.8,22.1-4.1c10.5-3.4,18.8-9.2,24.6-18.6c5.6-9,10.4-18.1,12.9-28.5c4.4-18,0.7-34.5-9.3-49.9
			c-4.4-6.8-9.7-12.8-15.5-18.4c-1.9-1.8-3.7-3.7-5.6-5.6c-3.8-3.8-3.7-3.9,0.6-6.8c10.9-7.3,21.9-14.4,33.4-20.7
			c3.6-2,7-1.8,10.6-1.2c6.9,1.2,13.7,2.5,20.5,4c6.2,1.4,12.3,3,18.4,4.6c7.1,1.9,14.2,4,21.3,6.1c7.6,2.2,15,5.3,22.4,8.1
			c7,2.6,10.1,8.1,12.7,14.4c2.6,6.5,5.3,12.9,8,19.4c2.3,5.6,4.5,11.2,6.5,17c2.3,6.8,4.8,13.6,7,20.4c1.8,5.7,3.3,11.6,4.9,17.3
			c1.8,6.2,3.1,12.6,4.3,18.9c1,5.4,1.8,10.9,1.9,16.4c0,2,0.5,4,0.5,6.1c0,8.3-2,16.1-5.3,23.7c-3.7,8.5-8.5,16.5-14.2,23.8
			c-5,6.5-10.9,12.3-17.1,17.8c-5.6,5-11.6,9.5-17.9,13.5c-8.9,5.6-18.1,10.5-27.8,14.6c-9,3.8-18.2,7.2-27.5,10.1
			c-7.9,2.4-15.9,4.2-23.9,6.2c-8,2-16.1,3.1-24.2,4.6c-6.3,1.2-12.7,1.8-19,2.5c-8.5,0.9-17.1,1.3-25.7,2.1
			c-14.6,1.3-29.2,1-43.9,1.2c-7.6,0.1-15.1-0.9-22.7-2.2c-7.3-1.3-14.5-3-21.6-5.3c-11.2-3.8-21.4-9.3-30.4-16.8
			c-9.6-7.9-17.4-17.5-23.4-28.5c-5.6-10.2-9.3-21.1-11.8-32.4c-1.4-6.4-2.4-12.8-3-19.3c-1-10.3-0.6-20.5-0.3-30.8
			c0.1-2.1-0.1-4.3,0.7-6.5c0.4-1,0.5-1.1,1.6-0.9c7.3,2,14.1,5.4,21.1,7.9c5,1.8,9.7,4.5,15.3,4.3c2.6-0.1,4-1.7,3.9-4.2
			c-0.1-1.6-1.2-2-2.2-2.4c-6.1-2.6-12.2-5.2-18.3-7.7c-7.8-3.2-15.6-6.4-23.5-9.6c-11.5-4.7-22.9-9.3-34.4-14
			c-9.5-3.9-19-8-28.5-11.9c-10.7-4.4-21.4-8.7-32-13.1c-11.1-4.6-22.1-9.3-33.2-13.9c-10.1-4.2-20.2-8.3-30.2-12.5
			c-10.2-4.3-20.3-8.8-30.5-13.1c-14.3-6-28.8-11.8-42.6-19c-8.1-4.2-13.9-10.7-16.5-19.8c-1.7-6.3,0-11.7,3.8-16.5
			c5.1-6.5,12.1-9.1,20.2-8.1c7,0.8,13.7,2.8,20.3,5.4c10.6,4.2,21.3,8.3,32,12.4c11.5,4.4,22.9,8.8,34.4,13.3c9,3.5,18,7,27.1,10.5
			c9.9,3.8,19.8,7.7,29.7,11.5c11.5,4.4,23,8.7,34.5,13.1c8.2,3.1,16.4,6.2,24.6,9.2c12.6,4.7,25.2,9.4,37.9,13.9
			c9.8,3.5,19.8,6.8,29.7,10c3.5,1.1,7,2.4,10.8,2.4c5.7-0.1,9.6-2.6,11.8-7.9c2.1-4.9,2.9-10,3.1-15.2c0.3-10.7-0.5-21.3-4-31.6
			c-4-11.7-10.2-22-17.9-31.6c-3.4-4.2-7-8.3-10.4-12.4c-0.5-0.5-1.1-1.1-0.9-1.8c0.3-0.7,1.1-0.3,1.7-0.3
			C812.4,375.2,821.6,374.8,830.9,375z"/>
		<path class="st1" d="M1174.6,919.6c-0.3-10.1,1.8-19.8,4.5-29.5c2.1-7.4,4.7-14.7,7.7-21.7c0.5-1.2,0.6-2.2-0.6-3.4
			c-7.9-7.6-15.5-15.4-23.5-22.8c-4.7-4.3-8.9-9.1-13.7-13.3c-4.7-4.2-8.9-8.9-13.6-13.1c-7.1-6.5-14-13.3-21-20
			c-4.5-4.4-8.8-8.9-13.5-13.1c-4.8-4.3-9-9.2-13.9-13.4c-7-6.2-13.2-13.2-20.1-19.5c-4.7-4.3-9-9.1-13.7-13.3
			c-4.7-4.2-9-8.8-13.5-13.1c-0.3-0.3-0.5-0.7-0.9-0.8c-3.8-1.7-3.2-4.9-2.7-8.1c0.1-0.4,0.2-0.8,0.2-1.1
			c0.2-10.3,1.1-20.5,0.4-30.8c-0.4-5.9-0.3-11.9-1-17.7c-0.3-2.3,0.2-4.7-0.8-7c-0.2-0.3-0.3-1,0.3-1.3c0.4-0.2,0.9,0,1.3,0.3
			c4.3,3.7,8.7,7.4,13.1,11.2c5.1,4.4,10.3,8.7,15.4,13.1c3.8,3.3,7.6,6.6,11.4,9.9c5.3,4.5,10.7,9,15.9,13.6
			c4.1,3.5,8,7.1,12.1,10.6c5.6,4.8,11.2,9.6,16.8,14.4c3.8,3.3,7.6,6.6,11.4,9.9c6,5.2,12,10.4,18,15.6c4.2,3.6,8.2,7.3,12.4,10.9
			c5.6,4.8,11.2,9.6,16.8,14.4c2.8,2.4,5.5,4.9,8.3,7.4c6,5.3,12.1,10.5,18.2,15.8c4.3,3.8,8.6,7.7,12.9,11.4
			c1.6,1.3,3.2,2.6,4.5,4.1c2,2.2,4,1.4,6.1,0.4c7.8-3.8,15.8-7.3,24.2-9.7c6.3-1.8,12.7-3.2,19.3-3.3c2.6-0.1,5.2-0.5,7.8-0.4
			c10.5,0.7,20.9,1.9,30.6,6.2c8.2,3.7,12.7,10.5,14.8,18.9c2.2,9,1.3,17.9-1.2,26.7c-2.2,7.5-5.4,14.5-10.2,20.9
			c-5,6.7-11.1,11.2-19.5,12.7c-9.9,1.8-19.9,2.9-30,2.8c-1.4,0-3.2-1.4-4-0.2c-0.7,1.1-0.4,3.1-0.3,4.7c0.3,2.1,0.5,4.2,0.4,6.4
			c-0.5,11.6-1.9,23.1-7,33.8c-4.8,10.1-12.1,17.6-23,21.1c-12.8,4.1-25.5,4-37.6-2.4c-10.4-5.5-16.4-14.3-18.8-25.9
			C1174.7,927.7,1174.6,923.7,1174.6,919.6z"/>
		<path class="st1" d="M690.5,790.3c-0.1-14.8,3.2-29.2,8.1-43.3c3.5-10,7.8-19.7,12.6-29.2c0.8-1.5,1.2-1.8,2.2-0.3
			c7.7,11.5,16.7,22,26.9,31.4c9,8.4,18.7,15.8,29.4,22.1c12.1,7.1,24.7,12.8,38.1,16.8c8.7,2.6,17.4,4.7,26.4,6.2
			c6.4,1.1,12.8,1.7,19.3,2.4c13.1,1.5,26.2,1,39.3,0.7c6.9-0.1,13.8-0.9,20.6-1.7c5.8-0.6,11.5-1.2,17.2-2.1
			c7.5-1.1,15.1-2.2,22.5-3.6c7.2-1.3,14.3-2.7,21.5-4c3.9-0.7,7.8-1.8,11.8-2.6c5.3-1,10.7-1.9,15.9-3.1c1.1-0.3,0.5,0.4,0.4,0.9
			c-0.5,4.3-2.7,8-4.8,11.7c-4.6,7.8-10.2,14.9-16.2,21.6c-6.3,7-13.1,13.3-20.2,19.3c-8.3,7-17.2,13.1-26.4,18.6
			c-9.4,5.6-19.3,10.3-29.5,14.3c-7.5,3-15.2,5.5-23,7.7c-5.7,1.6-11.6,2.7-17.4,3.9c-5.6,1.2-11.2,1.6-16.8,2.7
			c-1.8,0.4-3.8,0.4-5.6,0.5c-11.5,0.8-23,0.9-34.4,0.5c-9.5-0.4-19-1.4-28.4-3.2c-9.2-1.7-18.3-3.8-27.2-6.8
			c-11.4-3.8-22.1-9.2-31.6-16.6c-12.8-9.9-22.2-22.4-27.1-38c-1.7-5.4-2.7-11-3.3-16.6C690.6,797.3,690.8,793.9,690.5,790.3z"/>
		<path class="st1" d="M552.4,243.4c0-3.6-0.3-7,0.1-10.4c0.4-4.3,1.1-8.6,2.6-12.6c4.9-13.6,14.4-22.1,28.3-25.7
			c7.1-1.8,14.2-3,21.7-2.1c11.7,1.3,20.6,7,27.5,16.3c5,6.7,8.4,14.2,9.9,22.4c2.8,15.4-0.2,29.5-9.1,42.4
			c-2.6,3.7-5.5,7.2-8.9,10.3c-1.2,1.1-1,1.6,0.1,2.6c8.9,7.6,17.8,15.3,26.7,23c3.5,3.1,7,6.3,10.5,9.4
			c7.6,6.6,15.2,13.2,22.7,19.9c3.1,2.8,6.2,5.6,9.3,8.4c7.5,6.8,14.9,13.7,22.4,20.4c3.9,3.5,7.8,7.2,11.7,10.7
			c8.2,7.3,16,15.1,23.7,22.8c1.7,1.7,3.2,3.5,4.8,5.3c1.3,1.5,1.9,3.2,1.9,5.3c-0.1,5.3-0.3,10.7-0.7,15.9
			c-0.3,4.6,0.1,9.3-0.6,13.9c-0.3,2.2-1.3,2.1-2.6,1.8c-2.6-0.7-5.2-1.6-7.6-2.6c-11.3-4.7-21.8-10.8-32.1-17.2
			c-8.6-5.3-16.9-10.9-25.2-16.6c-9.9-6.8-19.7-13.8-29.2-21.1c-6.3-4.8-12.7-9.4-19-14.3c-6.4-4.9-12.6-10-18.9-15
			c-8.2-6.5-16.4-13-24.4-19.7c-7.1-5.9-14.1-12-21.2-17.9c-2-1.7-4.3-3.1-6.1-5.1c-1.1-1.2-2.2-0.5-3.2,0.1
			c-3.7,2.1-7.4,4.4-11.1,6.6c-7,4.2-14.5,7.2-22.5,8.7c-4.9,0.9-9.5,0.1-14.2-0.7c-3.9-0.6-7.7-1.9-11.5-3.5
			c-9-4-15.7-10.1-19.9-19c-2.4-5-3.6-10.3-3.9-15.9c-0.6-10,1.9-19.1,7.3-27.3c5.9-9,14.7-14,24.8-17.1c10.4-3.3,21.1-3.7,31.9-2.9
			c0.8,0.1,1.5,0.3,2.3,0.4C551.2,243.5,551.9,243.4,552.4,243.4z"/>
		<path class="st2" d="M1190.6,386.8c4.3,4.4,8.2,8.6,12.3,12.6c7,6.8,14.5,12.7,23.4,16.9c9.4,4.4,19.3,6.8,29.5,8
			c10.4,1.3,20.8,1.7,31.3,1.2c10.5-0.4,21.1-0.1,31.4-2.5c12.9-3,24.2-9.6,34.9-17.3c5.8-4.1,11.3-8.4,16.8-12.9
			c6.6-5.4,12.7-11.3,19-17.1c5.5-5,10.7-10.3,16.1-15.3c5.8-5.4,11.7-10.6,17.7-15.7c4.4-3.7,9.4-4.8,15.1-2.3
			c11.6,5.1,19,13.5,21.8,25.8c1.2,5.3,0.4,10.5-2.7,15.3c-8.2,12.4-17.2,24.1-27.4,35c-21.7,23.2-46.9,41.3-75.9,54.1
			c-11.5,5.1-23.4,8.8-35.6,11.7c-14.7,3.4-29.5,4.3-44.5,3.8c-6.7-0.2-13.2-1.2-19.8-2.5c-7.8-1.5-15.4-3.8-22.8-6.7
			c-14.3-5.7-26.8-14.1-38.2-24.4c-2.7-2.5-3.8-4.7-3.5-8.3c1.1-13.7,1.2-27.4,1.1-41.1C1190.5,399.2,1190.6,393.2,1190.6,386.8z"/>
		<path class="st2" d="M1169.9,294.5c-6.2-14.4-15.7-26-25.4-37.4c-4.4-5-8.9-10-13.5-14.8c-2-2.1-0.6-4.3-0.3-6.3
			c1.4-9.9,4.1-19.5,7.5-29c1.9-5.3,4.4-10.4,6.9-15.4c5.3-10.6,12.4-20,20.2-28.8c7.3-8.2,15.6-15.3,24.5-21.6
			c8.2-5.8,16.6-11.2,25.7-15.4c12.9-6,26.1-11.2,40.2-13.2c13-1.8,24.8,1.7,34.8,10.5c4.8,4.2,8.5,9.1,10.3,15.4
			c2.3,7.9-1.4,15-8.5,18.3c-9.3,4.4-18.2,9.3-26.8,14.9c-11,7.2-21.3,15.2-30.9,24.1c-3.8,3.5-7.5,7-11,10.7
			c-14.1,15.2-26.5,31.6-36.6,49.7C1180.4,268.4,1174.5,280.9,1169.9,294.5z"/>
		<path class="st0" d="M1458.6,442.9c0.5,6.2-0.2,13-0.6,19.9c-0.5,8.9-1.3,17.7-2.2,26.6c-0.9,8.9-1.9,17.8-3.1,26.7
			c-1.3,9.5-2.8,19-4.5,28.5c-1.6,8.9-3.1,17.8-5,26.6c-1.5,7.3-3.1,14.6-4.8,21.8c-4.4,18.4-9.5,36.6-15.8,54.4
			c-7,20.2-15.3,39.8-26.9,57.9c-5.4,8.5-11.5,16.4-18.8,23.4c-9.2,8.9-19.8,15.4-32.5,17.7c-3.1,0.6-6.3,0.8-9.5,0.7
			c-0.4,0-1,0.2-1.2-0.4c-0.2-0.4,0.3-0.7,0.5-1c7.1-8.7,14-17.7,20.5-26.8c5.8-8.1,11.3-16.4,16.4-24.8c4.5-7.4,8.7-15,12.8-22.6
			c5.2-9.6,9.6-19.5,13.8-29.6c7.3-17.5,12.8-35.6,17-54c2.3-9.9,4.1-19.8,5.8-29.8c1.3-7.5,2-15,3-22.5c1-7.9,2-15.7,2.8-23.6
			c0.8-7.2,1.2-14.4,2-21.6c1.1-9.7,1.9-19.4,3.2-29.1c1-7.6,2-15.2,2.9-22.9c0.5-4,1.7-7.2,4.8-10.2c4.6-4.4,8.7-9.4,12.9-14.3
			c1.2-1.4,2-1.2,3-0.1c1.2,1.4,1.6,3.2,1.9,5C1458.6,426.6,1458.8,434.4,1458.6,442.9z"/>
		<path class="st2" d="M1300.3,601.3c11.1-0.2,20.3,4.1,28.2,11.6c14,13.2,21.6,29.9,26.6,48.1c1.2,4.5,2,9,1.8,13.7
			c-0.6,14.4-2.2,28.5-9.1,41.6c-6,11.3-15.2,18.7-27.5,22.2c-4.6,1.3-9.3,2.1-14.1,2c-4.2-0.1-8.2-1.5-11.8-3.5
			c-14.4-8-24.2-20.3-31.4-34.8c-3.8-7.7-6.1-16-7.8-24.5c-1.2-5.8-1.5-11.7-2-17.7c-0.7-8,0.2-15.7,1.8-23.4
			c1.5-7.6,4.6-14.7,9.9-20.7c7.4-8.5,16.8-12.6,27.8-14.1C1295.2,601.4,1297.7,601.3,1300.3,601.3z M1338.7,675.4
			c0.2-7.2-1.3-14.1-3.9-20.8c-4.2-10.5-10.4-19.6-20-26c-9.2-6.2-20.2-6.2-28.1,0.1c-4.7,3.7-7.1,9-8.5,14.7
			c-2.3,9.1-2.3,18.5-2.5,27.8c-0.2,9.7,2,18.7,6.8,27c5,8.7,11.6,15.8,20.9,20c6.4,2.9,12.9,3.7,19.2-0.3c4.6-2.9,7.5-7.1,9.7-11.9
			C1337,696.3,1338.5,686,1338.7,675.4z"/>
		<path class="st1" d="M1135.7,450.5c2.2,1.3,4.4,2.6,6.5,4.1c6,4.1,11.8,8.5,17.2,13.4c4.2,3.9,7.1,8.8,9.6,13.9
			c8.3,17.6,16.4,35.4,23.6,53.5c4,10.1,8.3,20,12.1,30.2c6.5,17.4,12.8,35,16.9,53.2c1.7,7.5,3.6,15.2,2.6,23
			c-0.8,7.3-2.4,14.4-6.8,20.4c-4.8,6.5-11.4,10-19.6,10.6c-5.1,0.4-10.2,1.3-15.4,1.8c-2.4,0.2-4.9,0.4-7.3,0.4
			c-10.8,0.4-21.7,0.7-32.5,0.4c-6.6-0.2-13.3-0.9-19.9-1.7c-10.5-1.2-20.9-3.2-31.1-5.9c-7.4-2-14.7-4.4-21.8-7.5
			c-3.4-1.5-6.8-3-10-4.9c-1.7-1-3.6-2-3.7-4.5c-0.1-3.4,3.6-6.9,7.3-7.1c4.1-0.3,7.9,1,11.7,2.1c12.6,3.8,25.2,7.1,38.1,9.8
			c6.6,1.4,13.3,2.5,20.1,3.1c5.9,0.5,11.8,1,17.6,1.5c7.2,0.6,14.5,0.5,21.7,0.3c5.3-0.2,10.6-0.7,15.7-2.4
			c4.8-1.6,9.4-3.7,12.3-8.3c1.5-2.3,2.1-4.9,2.4-7.4c0.5-4.9,0.6-9.8,0.2-14.9c-1.2-16.2-6.1-31.5-11.3-46.7
			c-2.9-8.5-6.8-16.6-10.4-24.9c-3.2-7.3-6.3-14.6-9.5-22c-2.6-5.8-5.2-11.6-7.7-17.5c-3-6.8-5.8-13.7-8.8-20.5
			c-3.2-7.2-6.5-14.4-9.7-21.6c-2.9-6.7-5.7-13.4-8.6-20.1c-0.5-1.2-1.1-2.4-1.7-3.5C1135.4,450.8,1135.6,450.6,1135.7,450.5z"/>
		<path class="st3" d="M1014.1,388.3c-1.4-0.4-2.8-0.7-4.1-1.2c-19.1-5.8-38.4-10.8-58-14.5c-1.9-0.4-3.8-0.9-5.6-1
			c-2.1-0.1-3.3-1.2-4.6-2.6c-4.4-5.1-8.8-10.1-13.3-15.1c-1.2-1.3-0.9-2.1,0-3.3c8.5-10.8,17.8-20.7,27.4-30.4
			c9.1-9.1,19.1-17,29.5-24.6c1.8-1.3,2.7-1.1,4.3,0.4c7.8,7.9,15.3,16,22.9,24.1c11.2,11.9,21.7,24.4,32,37.1
			c1.1,1.3,1.4,2.2-0.2,3.4c-7.4,5.8-14.1,12.4-21.1,18.7c-2.6,2.3-4.8,5.1-7.2,7.7C1015.5,387.6,1015,388.4,1014.1,388.3z"/>
		<path class="st0" d="M1310.5,409.3c-0.4-3-0.2-5.8,0-8.7c0.7-11.4,0.3-22.8,0.3-34.2c-0.1-9.6-0.3-19.3-0.9-28.9
			c-0.7-10.9-1.6-21.9-2.9-32.7c-1.3-11.7-3-23.4-5.1-35c-3-17.2-6.7-34.3-11.2-51.2c-3-11.5-6.4-22.8-10.1-34.1
			c-1.4-4.3-1.4-4.3,2.2-6.7c5.3-3.4,10.4-7.1,15.9-10.4c2-1.2,2.4-0.5,3,1.1c4.4,11.9,8.3,23.9,11.6,36.1c3.7,13.5,6.9,27.2,9.4,41
			c1.7,9.1,3.3,18.2,4.5,27.3c1,7.9,2.3,15.8,3.2,23.7c0.8,7.2,1.4,14.4,2,21.6c0.6,7.4,1.2,14.7,1.8,22.1c0.3,3.3,0.3,6.5,0.4,9.8
			c0.2,7.1,0.6,14.2,0.7,21.3c0.1,8.7,0.4,17.4,0.4,26.1c0,1.7-0.6,2.5-2,3.2C1326.4,404.3,1318.8,407.4,1310.5,409.3z"/>
		<path class="st3" d="M977.8,284.4c0,0.8-0.7,0.9-1.1,1.2c-7.2,4.9-14.1,10-20.8,15.5c-5.7,4.7-11.2,9.7-16.6,14.7
			c-7.7,7.1-14.5,15.1-21.2,23c-1.5,1.7-2.1,1.2-3.2,0c-4.9-5.3-9.8-10.8-14.8-16c-7.9-8.1-15.9-16.2-23.8-24.2
			c-2.9-3-5.9-5.9-8.8-8.8c-1.2-1.2-1.2-2,0-3.2c9.6-9.6,19-19.2,29.6-27.8c8.4-6.8,17.2-13.2,26.1-19.3c1.9-1.3,3.3-1.5,5.3,0.3
			c10.7,9.2,21.4,18.3,31.7,28c5.7,5.3,11.5,10.6,17.2,15.9C977.4,284,977.6,284.2,977.8,284.4z"/>
		<path class="st3" d="M1064.5,259.2c1-0.1,1.4,0.6,2,1.2c10.6,12.5,20.9,25.3,30.5,38.5c4.5,6.2,9,12.6,13.5,18.8
			c1.4,2-0.4,2.1-1.4,2.5c-15.4,6.6-29.8,14.9-43.6,24.4c-3,2-5.9,4.1-8.7,6.3c-1,0.7-1.5,0.7-2.3-0.3c-8-10.2-16.3-20.3-24.8-30.1
			c-5-5.7-10-11.3-15.1-16.9c-4.7-5.2-9.4-10.4-14.2-15.5c-1.1-1.2-0.9-1.7,0.4-2.5c12.1-7.1,24.6-13.3,37.8-18.2
			c8.1-3,16.3-5.6,24.6-7.9C1063.6,259.5,1064.1,259.4,1064.5,259.2z"/>
		<path class="st1" d="M656.5,847.5c0,1-0.8,1.3-1.3,1.7c-4,3.2-8.1,6.3-12.1,9.5c-5.2,4.1-10.3,8.3-15.5,12.4
			c-5.8,4.6-11.7,9.1-17.5,13.6c-0.7,0.5-1.1,0.5-1.8-0.3c-8.3-10.5-16.7-21-25.1-31.5c-6.6-8.4-13.3-16.8-19.8-25.2
			c-2.6-3.3-4.9-6.7-7.5-9.9c-0.9-1.1-0.6-1.7,0.2-2.3c7.8-5.6,15-12,23-17.3c4.4-3,8.1-7,12.5-10.1c3.1-2.2,6-4.6,9-7
			c0.9-0.7,1.5-0.7,2.3,0.4c4.2,5.3,8.5,10.5,12.7,15.7c7.7,9.6,15.4,19.3,23.2,28.9c5.5,6.8,11.2,13.6,16.8,20.3
			C656,846.8,656.3,847.2,656.5,847.5z"/>
		<path class="st2" d="M520.2,952.3c-1.8,1.6-3.9,2.6-5.9,4c-4.1,2.7-8.2,2.8-12.7,1c-8.9-3.7-16.4-9.4-23.6-15.6
			c-6.5-5.7-11.9-12.3-16.7-19.5c-2.5-3.7-3.9-7.8-4.8-12c-0.8-4.3,1-7.8,3.6-11c8.2-10.2,18.1-18.5,27.8-27.2
			c1.8-1.6,3.7-3,5.4-4.7c1.2-1.2,2-1.1,3,0.2c5,5.9,10,11.8,15,17.7c7.5,8.8,15.1,17.5,22.6,26.3c5.2,6,10.3,11.9,15.5,17.9
			c0.5,0.6,1.1,1.1,0,1.9c-6.9,5-13.6,10.4-20.7,15.1c-0.2,0.1-0.4,0.3-0.5,0.4c0,0,0,0,0,0c-0.4,0-0.8,0.1-0.9,0.5c0,0,0,0,0,0
			C522.4,947.4,521.2,948.3,520.2,952.3z"/>
		<path class="st3" d="M1047.1,251.9c-1.4-0.2-2.6,0.4-3.9,0.9c-9.9,3.3-19.4,7.5-28.9,11.8c-7.8,3.5-15.3,7.4-22.6,11.8
			c-1.2,0.7-2,0.7-3.1-0.4c-4.2-4.4-8.5-8.7-12.9-12.9c-7.8-7.6-15.7-15.2-23.7-22.7c-3.3-3.1-6.6-6.3-10.1-9.1
			c-2.1-1.7-1.2-2.2,0.4-3c4.4-2.2,8.7-4.6,13.1-6.6c9.8-4.5,19.7-8.5,29.9-11.9c6-2,12.1-3.7,18.2-5.3c1.2-0.3,2.2-0.2,3.1,0.5
			c7.7,5.2,15,11,22,17.1c7.4,6.5,14.4,13.3,21.3,20.4c1.7,1.7,3.3,3.5,4.9,5.3c0.3,0.4,1.1,1,0.3,1.3
			C1052.5,249.9,1049.7,250.6,1047.1,251.9z"/>
		<path class="st2" d="M559.6,923.1c-1.5-1.3-3.3-2.6-4.8-4.1c-6-5.9-11.3-12.3-16.7-18.8c-6.6-8-13-16.1-19.4-24.3
			c-4.3-5.5-8.2-11.3-12.4-16.9c-1-1.4-1-2.2,0.4-3.3c9-7.3,18-14.6,26.9-21.9c2.5-2.1,5.2-4,7.6-6.2c1.4-1.2,2-0.8,3,0.4
			c6.2,7.5,12.5,14.9,18.8,22.3c8.9,10.5,17.8,20.9,26.7,31.3c2.8,3.3,5.6,6.6,8.5,9.8c1.1,1.2,0.8,1.7-0.3,2.5
			c-8.8,6.7-17.5,13.4-26.2,20.1c-3.4,2.6-6.8,5.3-10.2,7.9C561.1,922.5,560.6,923.1,559.6,923.1z"/>
		<path class="st3" d="M1154.4,388.1c0,1-0.9,1.1-1.5,1.4c-4.5,2-9,3.9-13.5,5.9c-12,5.4-24,10.8-35,18.1c-3,2-3,2.1-5.1-1.1
			c-11.1-17.1-23-33.6-35.4-49.7c-0.7-1-1.6-1.8-0.1-3c16.2-12.1,33.3-22.6,52-30.3c1.6-0.6,2.3-0.5,3.2,1
			c11.9,18,23.1,36.5,33.9,55.2C1153.4,386.5,1153.9,387.3,1154.4,388.1z"/>
		<path class="st1" d="M635.1,755.8c3.1-3.2,7-5.4,10.4-8.2c2-1.7,4.2-2.9,6.4-4.3c1.8-1.2,2.7-0.1,3.4,0.7
			c6.7,8.1,13.3,16.2,20.4,23.9c1,1.1,0.6,2.4,0.5,3.6c-0.2,2.4-0.6,4.8-0.9,7.2c-1.8,1.6-0.4,3.5-0.4,5.2c-0.6,5.7-0.3,11.3,0,17
			c0,2-1,4.1,0.4,6.1c0.5,3.2,0.9,6.4,1.5,9.5c0.6,3.1,1.1,6.2,1.9,9.2c0.8,3.3,0.5,4.6-2.1,6.7c-3.7,3-7.4,5.9-11.1,8.9
			c-0.8,0.7-1.2,0.8-2-0.2c-9.9-11-19.1-22.6-28.3-34.2c-6.8-8.7-13.5-17.5-20.1-26.3c-1-1.3-1.7-2.8-2.6-4.3c0-1.1-0.1-2.3-0.1-3.4
			c5.6-4,10.3-9.2,16.5-12.4c0.4-0.1,0.9,0.1,1-0.5c0,0,0,0,0,0c1.1,0.1,1.9-0.7,2.8-1C634.2,758.7,635.3,757.7,635.1,755.8z"/>
		<path class="st3" d="M896.7,365.8c-12.5-1.2-24.5-1.5-36.6-1.7c-12.5-0.2-25.1,0.1-37.6,0.3c-2,0-4,0.2-6,0.3
			c-1.8,0.1-2.2-0.3-1.4-2.1c3.4-6.9,7-13.8,11-20.4c7.8-12.9,16.1-25.4,25.4-37.3c1.2-1.6,2.7-2.9,3.8-4.6c1-1.5,1.7-1.5,2.9-0.3
			c2.1,2.1,4.5,4.1,6.6,6.2c6.4,6.3,13,12.4,19.5,18.7c7.8,7.6,15.6,15.3,23.4,23c1.3,1.3,1.5,2.1,0.3,3.7
			c-2.8,3.8-5.4,7.7-7.8,11.7C899.2,365.2,898.2,366.3,896.7,365.8z"/>
		<path class="st1" d="M855.9,784.1c-5.3-0.7-10.6-1.5-16-2.4c-6.8-1.2-13.5-2.7-20.2-4.5c-7.5-2-14.9-4.5-22.2-7.4
			c-3.5-1.4-6.8-3-10.3-4.5c-1.7-0.7-2.3-1.5-1.3-3.5c3-6.1,5.9-12.2,8.8-18.3c3.2-6.7,6.4-13.3,9.5-20.1c1-2.2,1.9-2.5,4-1.4
			c9.9,5.3,20.4,9.3,31,12.9c8,2.6,16.1,4.8,24.3,6.4c2,0.4,1.8,1.4,1.6,2.5c-0.7,3.2-1.2,6.4-1.9,9.6c-1,4.7-1.5,9.4-2.3,14.1
			c-0.8,5.2-1.3,10.4-2,15.6C858.7,785.1,857,783.6,855.9,784.1z"/>
		<path class="st1" d="M1018.6,666.1c0.9,8.9,1.4,17.7,1.6,26.5c0.1,4.4,0.2,8.7,0.4,13.1c0.1,1.7-0.7,2.3-2,2.9
			c-7.6,3.6-15.4,6.7-23.2,9.8c-11.2,4.4-22.9,7.2-34.7,10c-2.2,0.5-4.6,1-6.9,1.1c-1.3,0.1-1.5-0.6-1.3-1.6
			c0.8-4.5,0.7-9.1,0.5-13.6c-0.1-3.2,0.5-6.4,0.5-9.7c0-6.9,0.2-13.9,0.4-20.8c0.1-2.7,0.7-3.3,3.3-3.7c7.5-0.9,15-2.2,22.4-3.8
			c8-1.7,16-3.5,23.9-5.7C1008.5,669.1,1013.4,667.6,1018.6,666.1z"/>
		<path class="st1" d="M742.6,675.2c0.6-0.1,0.9,0.4,1.2,0.7c7.7,7.4,15.8,14.5,24.3,21c6.3,4.9,13,9.2,19.5,13.7
			c1.7,1.1,3.3,2.3,5.1,3.2c1,0.5,1,0.8,0.5,1.7c-5.6,9.6-11.2,19.3-16.8,29c-1.8,3.1-3.6,6.1-5.2,9.2c-0.8,1.5-1.3,2.1-3.1,0.9
			c-6.4-4.4-12.5-9.1-18.4-14.2c-11.6-10.1-21.1-21.9-28.3-35.5c-0.8-1.5-0.6-2.6,0.3-3.9c4.7-6.7,9.5-13.3,15-19.4
			c1.6-1.8,3.6-3.3,4.7-5.5C741.7,675.6,742.1,675.2,742.6,675.2z"/>
		<path class="st3" d="M839.3,300c-4.6,6.4-9.7,12.4-14,19c-9.3,14-17.6,28.5-22.6,44.7c-0.4,1.2-1,1.6-2.2,1.6
			c-7.2,0.4-14.4,0.9-21.7,1.4c-0.5,0-1,0.1-1.4,0.2c-1.9,0.7-2.4-0.2-2.4-2c-0.2-5.4,1.6-10.3,3.2-15.2c3.9-11.9,9.7-23,16-33.8
			c8.9-14.9,19.3-28.7,31.2-41.3c1.4-1.4,2.4-1.8,3.9-0.4c4.9,4.4,9.8,8.8,14.7,13.2c-1.3,3.7-2.6,7.4-3.9,11.1c0,0,0,0,0,0
			c-0.2,0.2-0.3,0.3-0.5,0.5c0,0,0,0,0,0C839.4,299.3,839.3,299.6,839.3,300z"/>
		<path class="st1" d="M936.7,731.6c-10.7,1.1-20.8,0.9-30.9,0.6c-6.3-0.2-12.5-0.8-18.7-1.9c-1.4-0.3-3.5,0.1-4.1-1
			c-0.6-1,0.2-2.8,0.5-4.3c1.9-8.5,3.9-17,5.9-25.5c1.2-4.9,2.5-9.8,3.7-14.6c0.3-1.1,0.4-1.8,2.1-1.4c2.3,0.5,4.8,0,7.2,0.1
			c8.6,0.3,17.2-0.3,25.8-0.5c4.6-0.1,9.1-0.8,13.7-1.3c0.9-0.1,1.1,0.2,1.1,1c0,2-0.4,4.1-0.4,6.1c0.1,6.7-0.3,13.4-0.7,20
			c-0.4,7-0.1,14-0.8,20.9c-0.1,0.9-0.4,1-1.2,1.3C938.6,732,937.4,731.5,936.7,731.6z"/>
		<path class="st1" d="M909.9,784.9c-11.6,0.9-22.1,0.5-32.6,0.5c-4.2,0-4.2-0.1-3.4-4.4c0.9-5.2,1.6-10.5,2.4-15.7
			c1-6.2,1.9-12.4,3-18.5c0.6-3.3,0.8-3.5,4-2.6c2.2,0.6,4.4,0.6,6.5,0.8c11.5,1,23.1,1,34.6,0.5c4.9-0.2,9.9-0.1,14.8-1.2
			c1-0.2,1.7,0.2,1.3,1.2c-0.8,1.9-0.3,3.9-0.4,5.9c-0.2,5.5,0,11-0.6,16.4c-0.4,3.9-0.3,7.8-0.4,11.6c0,1.8-0.7,2.5-2.5,2.7
			c-6.1,0.7-12.2,1.7-18.3,2.3C915.1,784.8,911.9,784.5,909.9,784.9z"/>
		<path class="st3" d="M1112.1,252.6c0.2,0,0.5,0,0.7,0c4.7-1,7.7,1.3,10.6,4.6c12.7,14.3,23.2,30.1,31.4,47.3
			c0.6,1.4,0.4,1.8-0.9,2.5c-2.7,1.5-5.7,1.4-8.5,1.9c-7.2,1.3-14.2,3.4-21.2,5.5c-1.6,0.5-2.4,0.3-3.3-1.1
			c-6.8-10.1-13.8-20-21.1-29.6c-6.5-8.5-13-17-20.1-25.1c-0.6-0.6-1.4-1.3-1.1-2.2c0.2-0.7,1.3-0.4,2-0.6
			c7.7-1.4,15.4-2.4,23.2-2.9C1106.5,252.8,1109.3,252.6,1112.1,252.6z"/>
		<path class="st1" d="M1019.8,722.9c-0.2,4.8-0.9,9.1-1.4,13.5c-0.6,4.7-1.5,9.3-2.5,14c-0.9,4.1-2.4,8.1-3.9,12.1
			c-1,2.6-2.7,4.4-5.6,5.1c-8.7,2.1-17.3,4.6-26,6.5c-7,1.6-14.1,2.9-21.1,4.5c-1.9,0.4-3.8,0.8-5.7,1.1c-0.9,0.1-2,0.3-1.9-1.4
			c0.2-4.7,0-9.4,0.2-14c0.3-6.4,0.5-12.8,0.7-19.3c0-2,0.9-2.4,2.6-2.7c10.4-1.9,20.7-4.1,30.9-7
			C997.3,731.9,1008.4,727.8,1019.8,722.9z"/>
		<path class="st1" d="M881.2,682.5c-1.3,4.6-2.7,9.1-4,13.7c-2.4,8.3-4.9,16.6-6.7,25c-1.2,5.8-1.4,5.9-6.9,4.5
			c-10.9-2.8-21.5-6.4-31.8-10.8c-5.8-2.4-11.5-5-17-7.9c-1.2-0.7-1.6-1.2-0.9-2.5c5.4-10.6,11.2-20.9,17.6-30.8
			c0.9-1.4,1.8-1.5,3.3-1c10.7,3.8,21.8,6.1,33,8.2C872.1,681.7,876.6,682,881.2,682.5z"/>
		<path class="st0" d="M1305.8,587.8c-5.2,0.3-10.3,0.2-15.5,1c-1.7,0.2-2.5,0.2-2.1-2.1c2-10.3,3.7-20.7,5.5-31.1
			c1.3-7.6,2.5-15.3,3.7-22.9c1.3-8.1,2.5-16.1,3.7-24.2c0.2-1.6,0.4-3.3,0.6-5c0.3-3.2,0.9-3.9,4-3.7c2,0.1,3.8-0.6,5.8-0.7
			c5.7-0.5,11.2-2.1,16.7-3.3c1-0.2,1.4,0.2,1.3,1.3c-0.8,5.7-1.5,11.5-2.4,17.2c-1.1,7.2-2.5,14.3-3.7,21.5
			c-1.3,8.1-3,16.1-4.8,24.1c-2,8.7-4.1,17.3-6.5,25.9c-0.5,1.9-1.3,2.3-2.9,2.1C1308,587.8,1306.9,587.8,1305.8,587.8z"/>
		<path class="st1" d="M754,663c6.1-6.8,13.2-12.6,19.5-19.1c1-1,2.2-1.8,3.2-2.8c0.9-0.9,1.5-0.4,2.2,0.2
			c10.5,9.3,22.1,16.7,34.7,22.8c2.2,1.1,4.4,2,6.7,3c1.4,0.6,2.1,1,0.9,2.8c-5.9,9.3-11.6,18.7-17.3,28.1c-1,1.6-1.6,2-3.6,0.8
			c-9-5.2-17.3-11.4-25.5-17.6c-5-3.8-9.8-7.9-14.4-12.2C758.2,666.9,756,665,754,663z"/>
		<path class="st3" d="M1178.9,408.1c0,1.4,0,2.7,0,4.1c0,0.4,0,0.8-0.5,1c-0.7,0.2-0.7-0.4-0.9-0.8c-3.6-7.3-7.2-14.7-11-22
			c-6.5-12.4-13.3-24.7-20.4-36.8c-4.4-7.4-8.9-14.8-13.5-22.1c-1-1.7-2-3.4-3-5.1c-0.6-1-0.5-1.5,0.7-1.9c8-2.7,16.1-4.8,24.6-5.2
			c5.9-0.2,6.1-0.2,8.2,5.5c4.5,12.2,8,24.8,10.5,37.5c2.3,11.2,3.7,22.5,4.7,33.9C1178.7,400.1,1178.7,404.1,1178.9,408.1z"/>
		<path class="st3" d="M857.3,280.2c-0.8-0.6-1.5-1-2-1.5c-4.7-4.5-9.6-8.5-14.6-12.6c-2.4-2-2.2-4.1,0.1-6.2
			c11-10,23-18.6,35.7-26.1c8.4-4.9,17.1-9.3,26.2-13c1-0.4,1.6-0.1,2.2,0.3c4,3.1,8,6.3,12,9.4c1.4,1.1,0.8,1.7-0.3,2.4
			c-10,6.5-19.7,13.4-29.1,20.8c-8.4,6.7-16.7,13.5-24.3,21.1c-1.6,1.6-3.4,3.1-5.1,4.7C857.8,279.8,857.5,280,857.3,280.2z"/>
		<path class="st3" d="M1178,433.1c-1,7.7-1.9,15.4-5.2,22.6c-1.2,2.6-1.5,2.7-3.8,1c-11-8.1-22.6-15.4-34.2-22.6
			c-4.2-2.6-8.4-5.4-12.8-7.6c-1.7-0.8-3.4-1.7-5.1-2.5c-1.3-0.6-1-1.3,0.1-1.8c13.5-7.5,26.9-15,41.7-19.6c3.4-1,3.3-1.1,4.9,1.9
			c4.6,8.6,9.2,17.1,13.8,25.7C1177.8,431,1178.2,432,1178,433.1z"/>
		<path class="st1" d="M813.6,412.5c-4.5,0.8-8,2.8-11.2,5.8c-9.7,9.1-14.9,20.8-20.2,32.5c-2.3,5.1-1.1,4.9-6.3,2.6
			c-0.3-0.1-0.5-0.3-0.8-0.5c-6-2.7-5.8-2.7-5.6-9.2c0.1-5.6,0.5-11.2,1.4-16.7c1.2-7.5,2.7-14.9,4.6-22.2c1.4-5.4,3-10.7,5.4-15.8
			c1.6-3.4,3.6-4.3,7-2.8c3.4,1.5,6.6,3.4,9.6,5.7c5.7,4.3,10.5,9.2,13.9,15.5C812.2,409.1,812.8,410.8,813.6,412.5z"/>
		<path class="st3" d="M1030.9,207.3c26.8,4.9,50.9,14.9,72.6,31.7c-3.8,1.3-7.2,1.4-10.6,1.9c-7.2,1.2-14.4,2.3-21.4,4.2
			c-1.8,0.5-3.3,0.3-4.7-1.3c-6.8-7.6-13.8-15-21.2-22.1c-4-3.9-8.2-7.5-12.3-11.4C1032.6,209.6,1031.6,208.8,1030.9,207.3z"/>
		<path class="st3" d="M1079.6,408c-5.6-1.8-10.9-3.6-16.3-5.2c-10.9-3.3-21.8-6.5-32.8-9.7c-2.6-0.8-2.6-0.8-0.8-2.7
			c6.8-7,13.8-13.7,21.2-20.1c2.2-1.9,2.2-1.9,4,0.6c8.4,11.2,16.4,22.8,23.7,34.8C1079,406.3,1079.5,406.9,1079.6,408z"/>
		<path class="st1" d="M678.5,757.3c-5.5-4.4-9.3-9.8-12.9-15.4c-1-1.5-1.7-3.2-2.9-4.5c-1.4-1.6-0.9-2.6,0.6-3.7
			c4.8-3.5,9.6-7,14.4-10.6c4.9-3.6,9.9-7.3,14.8-11c0.5-0.4,1.1-0.9,1.6-0.5c0.6,0.5,0,1.2-0.3,1.7c-5.5,10.4-9.4,21.5-12.7,32.8
			C680.1,749.8,679.4,753.5,678.5,757.3z"/>
		<path class="st3" d="M964.5,205.5c-2.5,2-4.9,2.9-7.1,4c-7.8,3.8-15.4,8.2-23,12.5c-1.4,0.8-2.2,0.8-3.5-0.3
			c-2.3-2.1-4.8-4.1-7.1-6.3c-1.3-1.3-0.9-1.7,0.6-2.1c8.1-2.5,16.3-4.3,24.5-5.8C953.9,206.6,958.8,205.7,964.5,205.5z"/>
		<path class="st3" d="M926.4,368.6c-3-0.3-5.9-0.6-8.9-1c-1.1-0.1-0.9-0.7-0.5-1.3c0.9-1.3,1.8-2.6,2.7-3.9c0.6-0.8,1.2-0.6,1.8,0
			c1.7,1.9,3.4,3.8,5,5.6C926.5,368.2,926.4,368.4,926.4,368.6z"/>
		<path class="st2" d="M840.3,298.6c1.3-3.7,2.6-7.4,3.9-11.1c3.6,3.1,3.6,3.2,0.3,6.6C843,295.6,842,297.5,840.3,298.6z"/>
		<path class="st3" d="M520.2,952.3c0.9-4,2.2-4.9,7.3-5.1C525.3,949.2,522.8,950.8,520.2,952.3z"/>
		<path class="st3" d="M635.1,755.8c0.3,2-0.9,2.9-2.6,3.3c-1,0.2-1.8,1.1-2.8,1C631,758.1,633.1,757,635.1,755.8z"/>
		<path class="st3" d="M675.2,807c-1.4-1.9-0.4-4.1-0.4-6.1C675.4,802.9,675.2,805,675.2,807z"/>
		<path class="st2" d="M612.2,772.9c0,1.1,0.1,2.3,0.1,3.4C611.4,775.3,609.7,774.2,612.2,772.9z"/>
		<path class="st3" d="M674.8,784c0-1.8-1.5-3.6,0.4-5.2C675.2,780.5,675.4,782.2,674.8,784z"/>
		<path class="st3" d="M629.7,760.1c-0.1,0.6-0.6,0.4-1,0.5C628.9,760.2,629.2,760,629.7,760.1z"/>
		<path class="st2" d="M839.3,300c0-0.4,0.1-0.8,0.6-0.9C839.9,299.5,839.7,299.8,839.3,300z"/>
		<path class="st3" d="M527.5,947.2c0.2-0.4,0.5-0.5,0.9-0.5C528.2,947,527.9,947.2,527.5,947.2z"/>
		<path class="st2" d="M839.8,299.1c0.2-0.2,0.3-0.3,0.5-0.5C840.1,298.8,840,299,839.8,299.1z"/>
		<path class="st3" d="M528.4,946.6c0.2-0.1,0.4-0.3,0.5-0.4C528.8,946.3,528.6,946.5,528.4,946.6z"/>
		<path d="M1338.7,675.4c-0.2,10.6-1.7,21-6.3,30.7c-2.2,4.8-5.2,9-9.7,11.9c-6.3,4-12.8,3.2-19.2,0.3c-9.3-4.2-15.9-11.3-20.9-20
			c-4.8-8.3-7-17.3-6.8-27c0.2-9.3,0.2-18.7,2.5-27.8c1.4-5.7,3.8-10.9,8.5-14.7c7.9-6.3,18.9-6.4,28.1-0.1c9.5,6.4,15.8,15.5,20,26
			C1337.5,661.3,1339,668.2,1338.7,675.4z M1319,704.9L1319,704.9c2.2-2.7,3.7-5.7,4.3-9.1l0,0c0.5-0.4,0.5-0.9,0.5-1.5
			c3.5-12.2,4.5-24.4-0.7-36.4c-3.3-7.6-7.8-14.5-14.9-19.2c-1.8-1.2-3.6-2.3-5.9-2.5c-6.6-0.5-10.3,2.2-12.1,9
			c-2.7,10.1-2.5,20.5-2.3,30.9c0,2.4,0.4,4.6,1.3,6.8c1.2,5.6,4.1,10.3,7.5,14.8c3.3,4.3,7.4,7.7,12.4,9.9c4.1,1.7,6.8,1.1,9.3-2.1
			C1318.7,705.3,1318.9,705.1,1319,704.9z"/>
		<path class="st2" d="M1318.6,705.5c-2.6,3.2-5.3,3.8-9.3,2.1c-5-2.1-9.1-5.6-12.4-9.9c-3.4-4.5-6.3-9.2-7.5-14.8c0-2,0-3.9,0-5.9
			c0-1.1-0.3-1.5-1.4-0.9c-0.2-10.4-0.3-20.7,2.3-30.9c1.8-6.7,5.5-9.5,12.1-9c2.2,0.2,4.1,1.3,5.9,2.5c7.1,4.7,11.5,11.6,14.9,19.2
			c5.2,12,4.2,24.2,0.7,36.4c-0.6,0.3-0.5,0.9-0.5,1.5c0,0,0,0,0,0c-2.1,2.7-3.7,5.7-4.3,9.1l0,0
			C1318.9,705.1,1318.7,705.3,1318.6,705.5z"/>
		<path class="st3" d="M1319,704.9c0.6-3.4,2.2-6.4,4.3-9.1C1322.7,699.2,1321.3,702.2,1319,704.9z"/>
		<path class="st3" d="M1288,676.1c1.1-0.6,1.4-0.1,1.4,0.9c0,2,0,3.9,0,5.9C1288.4,680.7,1287.9,678.4,1288,676.1z"/>
		<path class="st3" d="M1323.4,695.8c0-0.5-0.1-1.1,0.5-1.5C1323.8,694.9,1323.9,695.4,1323.4,695.8z"/>
		<path class="st3" d="M1318.6,705.5c0.2-0.2,0.3-0.4,0.5-0.6C1318.9,705.1,1318.7,705.3,1318.6,705.5z"/>
	</g>
</g>
</svg>
