<?xml version="1.0" encoding="utf-8"?>
<!-- Generator: Adobe Illustrator 27.3.1, SVG Export Plug-In . SVG Version: 6.00 Build 0)  -->
<svg version="1.1" id="Layer_1" xmlns="http://www.w3.org/2000/svg" xmlns:xlink="http://www.w3.org/1999/xlink" x="0px" y="0px"
	 viewBox="0 0 1920 1080" style="enable-background:new 0 0 1920 1080;" xml:space="preserve">
<style type="text/css">
	.st0{fill:#8FB2BF;}
	.st1{fill:#FFFFFF;}
	.st2{fill:#B0D6E4;}
	.st3{fill:#FFED7F;}
	.st4{fill:#010101;}
</style>
<g>
	<g>
		<path d="M864,74c1.8,1,4,0.8,5.9,0.9c8.4,0.3,16.6,1.4,24.9,2.6c7.7,1.1,15.3,2.8,22.9,4.6c16.5,3.9,32.3,9.7,47.3,17.6
			c11.2,5.9,21.6,13,31.2,21.3c19.4,16.6,33.6,36.9,44,60c6.1,13.5,10.3,27.7,13.4,42.2c1.6,7.4,2.8,14.8,3.8,22.3
			c0.7,5.1,1.1,10.3,1.5,15.5c0.4,4.4,0.3,8.7,0.3,13.1c0,1.7,0.7,1.9,2.2,2c8.1,0.2,15.7-1.2,23.3-4c11.3-4.2,20.1-11.5,27.7-20.6
			c0.6-0.7,0.6-1.1,0-1.7c-5-5.3-7.6-11.6-8.6-18.9c-2.4-17.8,9.2-33.6,26.2-38.1c11.4-3,21.8,0,31,7.3c6.6,5.2,10.4,12.3,11.9,20.4
			c1.9,10.5-0.7,20-7.4,28.4c-5.2,6.6-12,10.6-20.1,12c-3.1,0.6-3.7,2.1-4.5,4.3c-6.3,17.7-12.6,35.5-18.9,53.2
			c-3.7,10.3-7.3,20.6-11.1,30.8c-0.6,1.6-0.1,2.3,1.1,3.1c8.2,5,16.2,10.5,23.5,16.6c7,5.9,13.7,12.2,19.8,19.1
			c6.7,7.5,12.9,15.4,18.4,23.9c8,12.3,14.6,25.4,19.8,39.1c3.4,9,6.2,18.2,8.4,27.6c1.3,5.8,2.4,11.7,3.2,17.7
			c1.4,10.4,2.4,20.9,2.2,31.3c-0.1,7.5-0.8,15.1-1.7,22.6c-1.9,16-5.6,31.5-11.1,46.6c-4,11.1-8.9,21.8-14.8,32.1
			c-4.5,7.8-9.4,15.3-14.7,22.5c-3,4.2-6.4,8.1-9.8,12c-4.9,5.7-10.4,10.9-15.7,16.1c-7.1,6.9-15,12.9-23.2,18.7
			c-3.2,2.2-6.4,4.3-9.6,6.5c-0.6,0.4-1,0.4-0.6,1.5c4,10.8,7.4,21.9,10.2,33.1c2.3,9.2,4.2,18.4,5.6,27.7
			c0.9,6.2,1.7,12.4,2.1,18.7c0.3,4.8,0.8,9.6,0.8,14.4c0,8.1-1.2,16.2-2.9,24.2c-2.9,13.5-7.6,26.3-14.2,38.4
			c-4.2,7.7-9.2,14.9-15,21.6c-11,12.7-24.5,22.2-39.8,29.1c-8.3,3.7-16.8,6.6-25.7,8.6c-8.7,1.9-17.5,3.1-26.3,3.8
			c-9.3,0.7-18.6,0.6-27.9,0.3c-12.8-0.4-25.2-2.7-37.4-6.4c-12-3.6-23.1-8.9-33.2-16.2c-6.5-4.7-12.5-10-17.9-16.2
			c-6-6.8-11.1-14.2-15.4-22.1c-4.1-7.5-7.3-15.5-9.9-23.8c-2.1-6.7-3.8-13.5-5-20.3c-1.6-8.5-1.9-17.3-1.6-26c0.2-5,0.1-10,0.6-15
			c0.6-5.9,1.4-11.8,2.2-17.7c0.9-7.5,2.5-14.9,4.2-22.2c1.6-7.3,3.6-14.5,6.3-21.5c1.8-4.7,3.7-9.5,6-14c0.7-1.4,0.5-1.9-0.8-2.8
			c-12.6-8.4-24.2-18-34.8-28.8c-12.2-12.5-22.8-26.1-31.7-41.2c-8.4-14.3-14.9-29.3-19.9-45.1c-2.8-9-4.9-18.2-6.4-27.5
			c-1-6.3-1.7-12.7-2.1-19.2c-0.7-9.6-0.6-19.1-0.2-28.7c0.3-7.5,1.3-15.1,2.6-22.6c2.1-12,5-23.7,9.1-35.1
			c4.1-11.5,9.2-22.5,15.3-33.1c5.4-9.4,11.5-18.3,18.3-26.6c6.2-7.6,13.1-14.6,20.5-21.2c8.1-7.3,16.8-13.6,25.9-19.6
			c4.4-2.9,4.4-3,2.7-8c-5.6-16.4-11.2-32.7-16.7-49.1c-0.4-1.3-0.7-1.6-2.1-1.2c-10.9,3-20.7,8.3-29.8,15
			c-6.8,4.9-13.1,10.4-18.8,16.5c-7.4,7.8-14.2,16.3-20.3,25.2c-8,11.7-15,23.9-20.9,36.8c-6.6,14.3-12.1,29.1-16.1,44.4
			c-2.3,8.8-4,17.7-5.6,26.6c-0.8,4.6-0.9,9.4-1.6,14c-0.9,6.3-1.2,12.6-1.8,19c-0.6,6.6-0.6,13.3-0.6,20c-0.1,9-0.3,18.1,0.2,27.1
			c0.3,6.4,0.9,12.8,1.7,19.2c0.8,6.5,1.8,13,3,19.4c2.1,11.1,5.3,22,9.2,32.7c2.9,7.8,6.3,15.4,10.2,22.7
			c5.2,9.9,11.4,19.1,18,28.1c8.9,12,18.5,23.4,26.4,36.1c7.4,11.9,14.1,24.2,18.2,37.8c2.1,6.9,3.6,13.9,4.3,21
			c0.8,7.3,0.7,14.7,0.3,21.9c-0.5,9.4-1.3,18.8-4.6,27.8c-2.6,7.1-6.2,13.6-11,19.4c-8.4,10.4-19,18.1-30.7,24.5
			c-11.7,6.4-24.1,10.7-36.9,13.6c-8.8,2-17.9,2.6-27,2.2c-15.3-0.6-29.6-4.7-43.1-11.7c-5.7-3-11-6.6-16-10.8
			c-9.5-7.9-16.6-17.6-21.8-28.7c-3.1-6.7-5-13.9-6.5-21.1c-2.1-9.9-2.1-20-1.7-30c0.5-10.7,2.8-21.1,7.1-31.1
			c4.1-9.2,9.6-17.3,17-24.1c5.7-5.3,12.2-9.5,19.6-12.8c-2.5-2.1-4.9-4-7.2-5.9c-6.7-5.4-13-11.3-18.7-17.7
			c-3.3-3.7-6.6-7.4-9.7-11.2c-6.1-7.3-11.5-15-16.6-23c-6.8-10.7-13.1-21.8-18.6-33.3c-6-12.6-11.4-25.5-16.2-38.7
			c-5.6-15.4-10.2-31-14.1-46.8c-2.1-8.6-4-17.2-5.5-25.9c-1.2-7.2-2.7-14.3-3.8-21.6c-0.9-5.6-1.3-11.2-2-16.8
			c-0.6-5.7-1.4-11.3-1.9-17c-0.2-2.3-0.4-4.6-0.5-6.8c-0.3-5.3-0.4-10.6-0.6-15.9c0-2.4,0.3-4.8-0.4-7.2c0-9.1,0-18.2,0-27.3
			c0.4-0.1,0.5-0.4,0.5-0.7c0.1-7.7,1.3-15.3,2.4-22.9c1-7.2,2.4-14.3,4.1-21.3c2.6-10.9,5.7-21.6,9.4-32.2
			c3.9-11.3,8.4-22.5,13.5-33.3c4.1-8.8,8.5-17.5,13.3-25.9c6-10.6,12.3-20.9,19.3-30.8c6.2-8.9,12.7-17.7,19.7-26.1
			c5.4-6.5,10.6-13.1,16.5-19.1c6.5-6.5,12.8-13.3,19.7-19.4c5.3-4.7,10.5-9.4,16-13.8c0.2-0.1,0.3-0.2,0.5-0.3
			c2.1-1.6,4.1-3.3,6.2-4.9c0.2-0.1,0.3-0.2,0.5-0.3c1.7-1.3,3.5-2.6,5.2-4c0.2-0.1,0.4-0.2,0.5-0.3c0.9-0.7,1.9-1.4,2.8-2
			c0.2-0.1,0.4-0.2,0.5-0.3c1.4-1,2.8-2,4.3-3c0.2-0.1,0.4-0.2,0.5-0.3c0.3-0.2,0.6-0.4,0.9-0.6c0.2-0.1,0.4-0.2,0.5-0.3
			c0.3-0.2,0.6-0.4,0.9-0.6c0.2-0.1,0.4-0.2,0.5-0.3c0.3-0.2,0.6-0.4,0.9-0.6c0.2-0.1,0.4-0.2,0.5-0.3c0.3-0.2,0.6-0.4,0.9-0.6
			c0.2-0.1,0.4-0.2,0.5-0.3c1.6-1,3.2-2,4.7-3c0.2-0.1,0.4-0.2,0.5-0.3c0.6-0.4,1.2-0.7,1.9-1.1c0.2-0.1,0.4-0.2,0.5-0.3
			c1.4-0.8,2.8-1.7,4.3-2.5c0.2-0.1,0.4-0.2,0.5-0.3c0.9-0.5,1.9-1.1,2.8-1.6c0.2-0.1,0.4-0.2,0.5-0.3c7.8-4.4,15.7-8.3,23.9-11.9
			c10.5-4.6,21.2-8.4,32.3-11.4c12.7-3.5,25.6-5.9,38.7-7.2c2.1-0.2,4.4,0.4,6.3-0.8C844.2,74,854.1,74,864,74z M786.3,532.2
			c0,5.3,0.4,10,0.9,14.8c0.9,7.7,2.2,15.2,3.8,22.7c3.1,14.2,7.8,27.8,14,41c2.9,6.2,6.1,12.1,9.6,18c7.3,12.4,16.1,23.7,25.9,34.2
			c4.6,5,9.7,9.6,14.9,14c5.2,4.5,10.6,8.7,16.3,12.6c11.1,7.6,22.7,14.2,35.2,19.3c9.3,3.8,18.7,7.1,28.4,9.5
			c8.4,2.1,16.9,3.8,25.5,4.9c6.9,0.9,13.7,1.6,20.6,1.8c9.1,0.2,18.2-0.2,27.4-0.8c6.8-0.5,13.5-1.4,20.2-2.5
			c6.3-1,12.4-2.5,18.5-4.1c9-2.4,17.7-5.6,26.3-9.2c10.8-4.6,21.1-9.9,30.9-16.2c8.1-5.1,15.7-11,23-17.1
			c8.4-7.1,16.1-15,23.2-23.4c6.4-7.7,12.2-15.8,17.4-24.4c7.1-11.7,13-24,17.5-36.9c4.1-11.7,7.1-23.6,8.8-36
			c1-7.3,1.6-14.7,2.1-22c0.3-5.7-0.3-11.4-0.6-17.1c-0.3-5.5-0.9-11-1.6-16.4c-1.2-8.9-3.2-17.7-5.8-26.3
			c-4.9-16.1-11.6-31.5-20.3-45.9c-7-11.6-15.3-22.2-24.4-32.1c-6-6.5-12.5-12.4-19.4-17.9c-6.8-5.5-14-10.4-21.5-15
			c-12.3-7.6-25.3-13.7-39-18.5c-15-5.3-30.4-8.8-46.3-10.7c-8.4-1-16.8-1.1-25.2-1.8c-2.7-0.2-5.5,0.2-8.3,0.3
			c-5.9,0.2-11.8,0.5-17.8,1c-8,0.7-16,1.9-23.8,3.5c-11.4,2.4-22.8,5.5-33.6,9.8c-10.6,4.2-20.8,9.2-30.7,15
			c-12.6,7.4-24,16.2-34.7,26c-4.8,4.4-9.1,9.3-13.4,14.2c-5.8,6.7-11,13.8-15.8,21.2c-4.2,6.5-7.9,13.4-11.2,20.4
			c-3.7,7.9-6.8,16.2-9.3,24.6c-1.7,5.9-3.2,11.9-4.5,17.9c-1.6,7.4-2.8,14.9-3.1,22.4C786,515.5,785.3,524.2,786.3,532.2z
			 M851.8,192c-6.3-3.6-13-6.2-19.9-8.4c-13.4-4.3-27.2-5.8-41.2-6.7c-8.1-0.5-16.2,0.1-24.2,1.1c-7.9,1-15.7,2.5-23.3,4.8
			c-11.2,3.3-21.7,8-31.8,14c-11.1,6.6-21.3,14.4-30.6,23.3c-4.3,4.1-8.6,8.3-12.5,12.9c-3.1,3.7-6.5,7.1-9.4,11
			c-6.2,8.2-12.3,16.5-17.7,25.3c-5.6,9-10.8,18.3-15.5,27.8c-6.1,12.3-11.6,24.8-16.3,37.7c-3.7,9.8-7,19.8-9.6,29.9
			c-2.8,10.6-4.6,21.5-6.2,32.4c-1.4,9.9-2.5,19.8-3.4,29.7c-0.6,7.3-0.9,14.6-1,21.9c-0.2,10.3,0,20.6,0,30.9c0,0.8-0.1,1.6,0,2.4
			c0.9,8.2,0.9,16.5,1.9,24.8c0.6,5.1,0.9,10.2,1.5,15.3c0.8,6,1.9,11.9,2.8,17.8c1.2,7.9,2.8,15.7,4.6,23.4
			c3,13,6.6,25.9,11.3,38.4c3.1,8.1,6.4,16.1,11.2,23.4c6.6,10.2,13.7,19.9,21.2,29.5c6.9,8.8,13.9,17.2,22,24.9
			c8.5,8.1,18.2,13.7,29.5,16.5c0.7,0.2,1.3,0.1,2,0c6.5-1.7,13-2.5,19.8-1.3c11.5,1.9,21.3,7.1,29.8,14.7c10,8.9,17.6,19.6,22.7,32
			c4.7,11.3,7.5,22.8,4.9,35.3c-3.1,14.4-9.8,26.3-22.7,34.1c-7,4.3-14.6,5-22.5,3.7c-5.1-0.8-9.5-3.4-13.4-6.8
			c-4.2-3.6-7.6-7.9-9.6-13.2c-2.1-5.5-3.1-11-2.4-17c0.8-6.9,2.5-13.2,6.7-18.9c5.1-7,18.4-9.7,25.6-4.7c4.7,3.3,7.7,7.7,10.5,12.4
			c0.4,0.7,1.5,1.7-0.2,2.5c-1.3,0.6-2.2,1.3-3.4-0.5c-2.6-3.9-5.7-7.2-10.5-8.5c-3.6-1-6.3,0-8.4,3c-3.3,4.7-3.7,10.3-4.2,15.7
			c-0.7,7.4,0.4,14.8,3.3,21.7c4.4,10.2,9.3,12.5,17.9,10.5c7.5-1.7,13.7-5.7,18.7-11.7c7.1-8.5,10.8-18.4,11.7-29.3
			c0.7-8-1.1-15.7-3.9-23.1c-3.7-10.1-9.3-19.2-16.4-27.3c-9.4-10.6-20.4-18.3-34.6-20.7c-8.6-1.5-16.8-0.1-24.5,3.6
			c-6.4,3-11.3,8.1-15.4,13.7c-10.1,13.9-14.2,30-16.3,46.7c-0.8,6.2-0.4,12.6-0.5,18.8c-0.1,5.9,1,11.6,2.7,17.1
			c4.6,15.1,13.9,26.6,26.8,35.5c7.8,5.3,16.2,9.1,25.3,11.7c7.5,2.1,15.1,3.4,22.8,4c4.2,0.3,8.5-0.1,12.7,0
			c4.3,0.2,8.5-0.5,12.7-1c4-0.5,7.6-2.6,11.4-4.1c14.7-5.7,25.5-15.7,33-29.4c7.6-13.8,11.2-28.5,9.9-44.3
			c-0.6-7-1.7-13.8-3.8-20.4c-4.3-13.8-12.1-25.7-21.7-36.3c-5-5.4-10.5-10.3-16.3-15c-9.6-7.9-20.1-14.6-30.8-20.8
			c-11.9-6.9-22.9-15.1-32.8-24.6c-5.9-5.7-11.2-12-16.2-18.5c-10.5-13.8-18.4-28.9-24.1-45.2c-3.8-10.8-6.5-21.9-8.3-33.3
			c-1.2-7.4-2.3-14.9-2.7-22.4c-0.4-8.4-0.7-16.7-0.3-25.1c0.3-6.4,0.2-12.7,0.8-19.1c0.6-6.1,1.4-12.1,2.2-18.2
			c0.9-6.4,1.8-12.7,3.1-19c2.5-12.3,5.4-24.5,9.2-36.4c5.6-17.3,11.8-34.4,20.6-50.5c6.9-12.5,15.1-24.2,24.8-34.7
			c4.8-5.2,9.8-10.2,15.2-14.9c7.9-6.9,16.3-13.2,25.1-18.9c12.8-8.2,26.3-14.8,40.6-19.8c7.4-2.6,14.8-4.6,22.6-5.9
			c6.9-1.1,13.6-2,20.9-0.6c-1-3-2-5.7-2.8-8.5c-0.3-0.9-0.6-1.3-1.7-1.5c-8.7-1.5-16-5.6-21.9-12.4c-7.5-8.6-9.5-18.8-7.6-29.4
			c2.8-15.1,15.1-25.8,30.4-27.9C844.9,191.4,848.3,191.7,851.8,192z M597.1,572.8c0.9-1.8,0-3.4-0.3-5c-1.7-8.3-3.6-16.5-5-24.9
			c-1.1-6.8-2.3-13.7-3.1-20.6c-0.6-5.1-1-10.2-1.6-15.2c-0.9-7.8-1.6-15.6-1.7-23.3c-0.2-18.2-0.8-36.5,0.7-54.7
			c0.5-6.3,0.9-12.6,1.6-18.8c0.8-7.7,2-15.3,3.3-22.9c1.2-6.9,2.5-13.8,4.1-20.6c2.5-10.7,6-21.1,9.8-31.4
			c4.1-11.2,8.7-22.2,13.8-32.9c8.3-17.5,17.9-34.3,29-50.1c6.6-9.4,13.8-18.2,21.7-26.6c6.6-7,13.7-13.4,21.2-19.4
			c7-5.6,14.4-10.7,22.2-14.9c10-5.4,20.4-9.9,31.5-13c12.2-3.5,24.7-4.8,37.3-5.4c3.2-0.2,6.3,0.3,9.5,0.3
			c8.4,0.2,16.6,1.1,24.8,2.5c10,1.7,19.8,4.3,29.2,8.4c10.8,4.7,20.7,10.9,29.5,18.8c4.9,4.4,9.3,9.4,13.2,14.8
			c6,8.3,10.8,17.3,14.3,27c3.4,9.3,5.9,18.6,7,28.4c0.2,1.7,1.1,3,3.2,2.9c4.2-0.2,8.4,0.5,12.7,0.1c13.1-1.4,23.7-7.1,31.7-17.5
			c8.7-11.4,12.9-24.7,15.6-38.6c0.4-1.9,0.4-3.7-2-4.6c-1-0.4-1.9-1.2-2.7-1.9c-10-9.2-14.8-20.2-12-33.9
			c3-14.7,14.1-25.6,29.3-27.6c13.2-1.7,24.2,3,32.6,13.5c6.5,8.1,8.4,17.4,6.7,27.3c-1.8,10.3-7.4,18.3-16.4,23.8
			c-1.5,0.9-1.4,1.8-1.2,2.8c2.7,9.9,6.2,19.6,11.3,28.5c4.3,7.5,9.5,14.3,16.5,19.5c4,3,8.4,5.2,13.2,6.8c2.6,0.8,3,0.7,2.9-1.9
			c-0.2-5.1-0.6-10.1-0.9-15.2c-0.2-2.6-0.2-5.3-0.6-7.8c-1.3-7.9-2.4-15.8-4-23.7c-2.2-10.4-5-20.6-8.8-30.6
			c-15.5-40.8-42.3-71.5-81.9-90.5C937,96,918.8,90.7,900,87.5c-7.9-1.3-15.9-2.3-23.9-3c-7.2-0.6-14.4-0.9-21.5-1.2
			C843,82.7,831.5,83.3,820,85c-6.2,0.9-12.4,1.9-18.5,3.2c-14.2,3.3-28,8-41.4,13.9c-10.2,4.5-20,9.6-29.6,15.3
			c-9.5,5.6-18.6,12-27.4,18.7c-9.8,7.5-19.1,15.5-28,24c-10.3,9.9-19.9,20.3-29,31.3c-6.1,7.4-11.9,15-17.5,22.9
			c-9.4,13.2-17.9,27-25.5,41.4c-6.3,11.9-12,24.1-17,36.7c-5.7,14.4-10.5,29.1-14.1,44.2c-1.8,7.7-3.3,15.5-4.5,23.4
			c-1,6.8-2,13.7-2.2,20.6c-0.4,11.7-0.3,23.3,0,35c0.1,3.5,0.2,7,0.4,10.4c0.5,6.7,1.2,13.3,1.9,19.9c0.5,5.1,0.7,10.2,1.5,15.2
			c1.4,8.6,2.5,17.3,4.2,25.8c1.7,8.5,3.4,17.1,5.3,25.5c3.8,16.4,8.5,32.5,14.1,48.3C594,564.8,595.6,568.8,597.1,572.8z
			 M918.9,285c-4.8,0.5-9.7,0-14.5-1.1c-10.2-2.2-19.6-6.3-27.7-13.1c-6.9-5.8-12.9-12.4-17.4-20.3c-0.7-1.2-1-2,0.7-2.7
			c1.1-0.5,2.1-1.4,2.9-2.4c5.8-6.3,9.1-13.4,7.7-22.3c-1-6.4-3.6-11.7-8.5-16c-6.3-5.5-13.7-7.1-21.5-5.9
			c-13.1,2-23.4,15.2-21,29.3c1.4,7.7,5.2,13.5,11.6,17.8c4.4,3,9.3,4.4,14.6,4.1c1.6-0.1,2.5,0.2,3.1,2c1.2,3.9,2.6,7.7,4,11.6
			c4.6,13.6,9.3,27.2,13.9,40.8c4.2,12.2,8.4,24.4,12.4,36.6c0.7,2,1.2,2.3,3,1.3c8-4.2,16.3-7.8,24.9-10.8
			c11.9-4.2,24-7.5,36.5-9.7c9.6-1.7,19.3-3.1,29.1-3.6c13.5-0.8,27-0.7,40.5,0.8c7.6,0.8,15.2,1.7,22.8,2.9
			c9.6,1.6,19,3.9,28.2,6.7c12.5,3.7,24.4,8.7,36,14.6c1.7,0.9,2.2,0.4,2.6-1c1.3-4,2.9-7.8,4.2-11.8c3.1-9.1,6.4-18.1,9.7-27
			c6.3-17.2,12.4-34.4,18.5-51.7c0.5-1.5,1.2-1.9,2.7-1.8c4.5,0.2,8.7-0.8,12.6-3c9.8-5.4,15-15.4,13.6-26.2
			c-1.7-13.4-13.7-22.7-25.7-22.3c-8.6,0.3-15.5,3.1-20.7,9.9c-4.7,6.2-6.4,13.3-4.8,20.9c1.4,6.7,5,12.4,10.9,16.2
			c1.1,0.7,1.2,1.2,0.5,2.4c-2.2,3.6-4.9,6.9-7.7,10c-6.9,7.6-15.1,13.9-24.4,18.3c-5.7,2.7-11.7,4.4-17.9,5.4
			c-7.3,1.1-14.5,1.2-21.7,0.4c-10.2-1.1-18.8-5.7-26.4-12.2c-8-6.9-14.1-15.3-18.8-24.7c-3.1-6.2-5.6-12.7-7.7-19.4
			c-1.5-4.9-2.6-9.9-3.8-14.8c-0.3-1.1-0.3-2,1.5-2.4c2.3-0.5,4.6-1.5,6.5-3c8.4-6.4,12.8-14.7,11.1-25.6c-1-6.1-3.4-11.4-8.3-15.3
			c-9-7.2-18.8-8.6-29.2-3.4c-10.4,5.3-15.8,17.4-13,28.4c2.3,9.1,7.9,15.1,16.4,18.6c1.6,0.7,1.6,1.6,1.5,2.8
			c-0.1,0.5-0.4,1-0.5,1.6c-0.7,6.9-2.2,13.6-4.2,20.3c-3.2,10.8-7.6,20.9-14.9,29.7c-4.5,5.5-9.6,10.3-15.9,13.7
			C938.3,283.5,929,285.7,918.9,285z M863.6,803.1c-0.3,6.6,0.3,12.8,1.3,19.1c1.4,8.5,3.4,16.9,6.5,25
			c6.1,15.7,14.7,29.9,27.5,41.2c5.9,5.3,12.3,9.9,19.3,13.7c12.6,6.8,26.1,11.1,40.2,13.5c7.2,1.2,14.5,2,21.8,2.2
			c6.3,0.2,12.7,0.2,19.1-0.3c5.1-0.4,10.2-0.9,15.3-1.5c7.9-0.9,15.5-2.9,23-5.4c15.4-5.2,29.2-13,41-24.3
			c6.2-6,11.8-12.4,16.7-19.5c7.1-10.5,12.1-21.9,15.8-33.9c1.9-6.2,3.4-12.5,4.4-18.9c0.5-3.5,0.9-7,1.1-10.6c0-0.5,0.5-1,0.1-1.5
			c-0.6-0.5-1,0.2-1.4,0.4c-12.9,6.2-26.2,11.4-39.9,15.5c-9,2.7-18,5-27.2,6.8c-10.6,2-21.4,3.5-32.2,4.4c-6.6,0.5-13.3,0.7-20,0.7
			c-10.9,0-21.8,0.2-32.6-1.2c-3.8-0.5-7.7-0.5-11.5-1c-4.9-0.7-9.8-1.5-14.7-2.4c-6-1.1-12.1-2.3-18.1-3.6
			c-8.6-1.8-17-4.3-25.3-6.9c-4.5-1.4-8.9-2.8-13.3-4.5C874.8,808,869.3,805.5,863.6,803.1z M815.4,743.7c0-0.4,0.2-0.7,0.1-1
			c-2-8.1-5.2-15.9-8.9-23.4c-2.3-4.6-5.1-9.1-7.7-13.5c-4.7-8-10-15.6-15.7-22.9c-5.5-7-10.9-14.1-16.1-21.2
			c-6.7-9.1-11.7-19.2-18.2-28.4c-6.2-8.7-11.1-18.1-15.3-27.9c-4.1-9.5-7.4-19.2-10-29.1c-3.8-14.5-6.6-29.3-8.3-44.2
			c-0.8-7.4-1.7-14.8-2.2-22.2c-0.4-5.9-0.6-11.9-0.6-17.9c0-12.9-0.4-25.7,0.9-38.6c0.9-8.3,2.1-16.6,4-24.7
			c3.2-13.8,7.9-27.2,14.2-39.9c4.2-8.6,9-16.8,14.5-24.6c5.4-7.8,11.3-15.2,17.9-22.1c5.3-5.5,10.7-10.8,16.6-15.8
			c6-5.1,12.1-9.8,18.6-14.3c6.8-4.7,13.9-9,21.3-12.9c9-4.7,17.8-9.7,27.7-12.3c2-0.5,2.2-1.2,1.4-2.9c-0.8-1.8-1.4-3.7-1.8-5.6
			c-0.4-1.5-1.5-2.2-2.7-2.6c-5.4-1.5-11-1.3-16.4-0.2c-8.4,1.6-16.5,4.7-24.2,8.5c-8.5,4.2-16.5,9.1-24.3,14.5
			c-7,4.9-13.5,10.4-19.7,16.1c-6.8,6.2-13.2,12.8-19.2,19.9c-5.4,6.5-10.6,13.1-15.3,20.1c-9.1,13.3-16.6,27.5-22.6,42.4
			c-3.3,8.2-6.2,16.5-8.4,25c-2.8,10.5-5,21.2-6.4,32c-0.8,5.9-1.5,11.9-1.7,17.8c-0.2,5.9-0.5,11.8-0.2,17.8
			c0.4,8.6,0.2,17.1,1,25.7c0.6,6.6,1.3,13.1,1.9,19.7c0.7,6.9,1.8,13.8,3,20.6c2.1,11.5,4.8,22.9,8.3,34.1
			c4.6,14.9,10.4,29.3,18,43c6.8,12.2,14.9,23.3,24.6,33.2c6.1,6.4,12.6,12.4,19,18.6c0.2,0.2,0.3,0.4,0.5,0.5
			c6.2,4.5,12.4,9,18.3,13.9c7,5.8,13.3,12.2,19,19.2c5.5,6.7,9.8,14.1,13.5,22C814,741.2,814,742.7,815.4,743.7z M751.8,678.1
			c-0.2-1.4-1-1.8-1.6-2.4c-6.7-6.7-13.3-13.4-19.2-20.9c-8.8-11.2-15.8-23.5-21.6-36.5c-6.8-14.9-11.7-30.5-15.5-46.4
			c-3.1-13.1-5.4-26.4-6.9-39.9c-1-8.4-1.6-16.9-2.2-25.4c-0.5-7.1-0.1-14.3-0.5-21.5c-0.4-6.1,0.5-12.2,0.8-18.2
			c0.5-8,1.6-15.9,2.9-23.8c1.6-9.6,3.8-19,6.7-28.3c2.7-8.7,5.9-17.1,9.5-25.4c4.6-10.6,10-20.6,16.2-30.3
			c5.1-8.1,10.7-15.8,16.9-23.3c5-6,10.2-11.9,15.7-17.4c5-4.9,10.2-9.7,15.7-14c6.1-4.8,12.4-9.5,19-13.6c4.6-2.8,9.3-5.4,14.1-8.2
			c-1,0-1.7,0-2.5,0.3c-5,1.8-9.9,4-14.7,6.2c-9.4,4.4-18.3,9.7-27,15.5c-9.6,6.5-18.4,13.9-26.7,21.9c-5.1,5-9.8,10.4-14.3,16.1
			c-6.6,8.2-12.3,16.8-17.3,26c-6.2,11.2-11.1,23-15.3,35.1c-4.4,12.7-8.2,25.6-11.2,38.8c-2.4,10.5-4.4,21.2-6,31.8
			c-1.2,7.9-1.9,15.9-2.4,23.9c-0.4,6-0.3,12-0.3,18c0.1,11.2,0.3,22.4,2.1,33.6c0.8,5,1.4,10.1,2.5,15.1c2,8.9,4.4,17.8,7.6,26.4
			c3.8,10.2,8.4,20,14,29.3c5,8.3,10.7,16.2,17.4,23.3c6.4,6.6,13,13.1,20.4,18.7C735.4,668.2,743.3,673.2,751.8,678.1z
			 M808.3,308.9c-1-0.6-1.6,0.1-2.1,0.4c-7.7,4.9-15,10.2-22,16.1c-5.7,4.7-10.9,9.9-16.1,15.1c-6.3,6.3-11.9,13.2-17.3,20.2
			c-5,6.6-9.4,13.6-13.4,20.8c-3.8,6.9-7.2,13.9-9.9,21.3c-2.4,6.4-4.6,12.8-6.3,19.5c-1.9,7.1-3.3,14.2-4.5,21.5
			c-1.1,6.7-1.7,13.3-2.3,20c-0.3,3.9-0.1,7.8-0.1,11.7c0.1,13.8,0.2,27.6,1.4,41.4c0.5,5.5,1,11.1,1.7,16.6
			c0.9,7.5,2.1,15.1,3.6,22.5c2.2,11,4.9,21.9,8.4,32.6c3.3,10.1,7.4,19.9,12.4,29.2c0.5,0.9,0.6,2,2,2.6c-0.6-3.1-1.9-5.6-2.9-8.3
			c-3.8-10.3-6.6-20.8-8.8-31.5c-1.5-7.4-2.6-14.9-3.5-22.4c-0.8-6.7-1.6-13.5-1.7-20.2c-0.2-12.8-0.7-25.7,0.3-38.5
			c0.5-6.6,0.7-13.2,1.4-19.9c0.8-7.1,1.4-14.2,2.4-21.3c1.6-11.1,4-21.9,7.1-32.7c6.9-24.1,16.8-46.8,29.8-68.2
			c7.8-12.9,16.7-25,27.1-36C799.3,317.2,803.6,312.9,808.3,308.9z M745,853.7c-5.8,0.3-11.6-0.2-17.2-1.1
			c-9.2-1.5-18.2-3.8-26.8-7.6c-11.7-5.1-22-12.2-30-22.2c-9.6-11.8-14.7-25.4-15.2-40.7c-0.3-10.3,0.1-20.6,2.1-30.7
			c1.4-7.1,3.4-14.2,6.2-20.9c3.5-8.6,8-16.5,14.6-23.2c2.1-2.2,4.6-4,7.3-6.2c-1.1,0-1.7,0-2.2,0c-0.4,0-0.7,0.2-1.1,0.3
			c-5,1.1-9.6,3.3-14,6c-9.7,5.9-17.4,13.9-22.8,23.9c-5.3,9.8-7.9,20.5-8.5,31.4c-0.4,8.2-0.6,16.5,0.8,24.7
			c1.1,6.4,2.4,12.7,4.7,18.9c4.6,12.3,11.9,22.7,22,31c7.9,6.5,16.9,11.2,26.6,14.4c8.9,2.9,17.9,5,27.2,5.2
			C727.5,857.1,736.4,856.2,745,853.7z M985.9,801.6c0-5.6,0-11.2,0-16.8c0-0.8,0.4-1.8-1.2-1.8c-4.5,0-9,0.1-13.6-0.5
			c-3.7-0.5-7.5-0.3-11.2-1c-9.6-1.7-19.3-3.3-28.8-5.8c-1.6-0.4-1.8-0.3-2,1.3c-0.4,3.8-0.9,7.5-1.5,11.2c-1.1,6.7-2.2,13.3-2.7,20
			c-0.1,1.6-1.4,3.5-0.2,4.5c1,1,3.1,0.9,4.7,1.2c6.5,1.3,13.1,2.9,19.7,3.8c5,0.7,10.1,1.3,15.2,1.7c6.5,0.4,12.9,1.3,19.4,1.3
			c1.8,0,2.3-0.6,2.3-2.4C985.8,812.9,985.9,807.2,985.9,801.6z M1114.4,790.2c0-1.5,0.1-2.6,0-3.7c-0.6-6-1.2-12-1.9-18
			c-0.6-4.7-1.2-9.4-1.9-14.1c-0.1-0.7-0.5-1.4-1.5-0.8c-2.2,1.5-4.8,2.4-7.2,3.6c-9.2,4.5-18.7,8.1-28.3,11.5
			c-4.6,1.6-9.3,3.1-14.1,4.3c-1.9,0.5-2.5,1.4-2.1,3.1c0.4,1.5,0.3,3,0.6,4.4c0.9,5.9,1.9,11.9,2.8,17.8c0.6,4.1,1.3,8.2,1.8,12.3
			c0.2,1.6,1,1.6,2,1.3c9-2.5,17.9-5.1,26.6-8.4c6.1-2.3,12.1-4.7,18-7.5C1111.6,794.8,1115.7,794.5,1114.4,790.2z M912,809.8
			c1.2,0.2,1.8,0.2,1.9-1c0.4-3.5,1.1-7,1.4-10.5c0.8-8.3,2.6-16.4,3.5-24.6c0.2-1.7-0.5-1.8-1.5-2.2c-7.6-2.5-15-5.5-22.2-9
			c-8.5-4-16.7-8.7-24.6-13.8c-1.7-1.1-1.9-0.1-2.1,0.9c-0.6,3-1,6-1.5,9c-0.8,5.3-1.5,10.5-2,15.8c-0.4,5-1.2,10-1.3,15
			c0,1.2,0.3,1.8,1.4,2.3c11.1,5.2,22.4,10,34.1,13.8C903.5,807.1,907.9,808.5,912,809.8z M995.9,801.9c0,5.8,0,11.7,0,17.5
			c0,1.3,0.3,1.7,1.6,1.6c1.6-0.1,3.3-0.4,4.9-0.4c6.9-0.1,13.7-0.8,20.5-1.4c9.1-0.8,18.1-2.5,27.1-4c1.3-0.2,1.7-0.9,1.5-2.1
			c-0.5-4.4-0.9-8.7-1.5-13.1c-1-7.5-2.2-15-3.3-22.5c-0.1-1-0.5-1.1-1.4-0.9c-9.2,2.1-18.4,3.7-27.7,4.8c-6.7,0.7-13.3,1.4-20,1.8
			c-1.5,0.1-1.8,0.4-1.8,1.9C995.9,790.5,995.9,796.2,995.9,801.9z M985.9,755.4c0-5.8,0-11.7,0-17.5c0-1.3-0.1-2.1-1.7-1.9
			c-4,0.4-7.9-0.4-11.9-0.5c-3.1-0.1-6.3-0.5-9.3-1c-8.4-1.4-16.9-2.5-25.1-4.7c-0.9-0.2-1.6-0.1-1.4,1.1c0.1,0.5,0,1,0,1.4
			c-0.9,5.5-1.9,10.9-2.8,16.4c-0.9,5.5-1.5,11.1-2.6,16.6c-0.3,1.4,0.3,1.6,1,1.7c4.9,1.2,9.8,2.4,14.7,3.4
			c5.5,1.1,11,1.9,16.5,2.6c7,0.9,13.9,1.4,20.9,1.7c1.5,0.1,1.8-0.6,1.8-2C985.9,767.1,985.9,761.3,985.9,755.4z M1049.2,730
			c-0.1,0.6,0.1,1,0.2,1.4c1.1,5.1,2.1,10.2,3.1,15.4c1,5.6,2,11.3,2.8,16.9c0.2,1.5,1,1.2,1.7,1c5.9-2,11.7-4,17.5-6.2
			c9.9-3.7,19.5-8.2,29-13c1.4-0.7,3.2-1.2,4.2-2.4c1.1-1.4-0.3-3.1-0.6-4.6c-1.8-9.1-4.2-18-6.8-26.9c-0.5-1.7-1.1-1.7-2.6-1
			c-5.3,2.5-10.6,4.9-16,7.1c-10.2,4.1-20.7,7.7-31.3,10.5C1049.3,728.6,1049,729.1,1049.2,730z M871.1,737.6
			c-0.2,2.1,1.8,2.4,2.8,3.1c8.5,5.6,17.3,10.7,26.6,14.9c5.9,2.6,11.7,5.1,17.8,7.2c1.4,0.5,2.4,0.2,2.7-1.5c0.3-2.1,0.6-4.2,1-6.3
			c1.3-7.5,2.5-15.1,4-22.6c1.1-5.5,1.3-5.3-4-6.9c-13.2-3.9-25.8-9.2-37.8-15.9c-1.2-0.7-1.7-0.7-2.6,0.6c-3.5,5.8-6.1,12-8.1,18.5
			C872.7,731.6,872,734.6,871.1,737.6z M995.9,755c0,5.8,0.1,11.7,0,17.5c0,1.5,0.3,2,1.9,2c7.8-0.1,15.5-1,23.2-1.9
			c7.4-0.8,14.5-2.7,21.8-4c0.8-0.1,2.7-0.1,2.4-1.7c-1.2-5.1-1.6-10.3-2.6-15.5c-1.1-6.1-2.2-12.2-3-18.4c-0.2-1.8-0.8-1.9-2.2-1.7
			c-2.8,0.3-5.6,1-8.3,1.5c-10.5,2.1-21.2,2.5-31.8,3.2c-1.5,0.1-1.4,0.7-1.4,1.7C995.9,743.5,995.9,749.2,995.9,755z M876.8,211
			c3.6,10,3.8,11.5,3,19.8c-0.7,7.2-3.6,13.4-8.4,18.8c-0.8,0.9-0.8,1.6-0.2,2.5c3.5,4.9,7.6,9.2,12.4,12.9c6,4.6,12.7,7.4,19.9,9.5
			c1.2,0.4,1.7,0,1.7-1.3c0-2.5-0.6-4.9-1.1-7.3c-3.4-16.8-9.6-32.5-19.9-46.4C882,216.4,879.7,213.4,876.8,211z M727.6,755.3
			c-5.3-0.8-12.3,2.6-15.5,7.5c-3.7,5.8-4.5,12.2-4.6,18.9c-0.1,10.1,4.7,17.7,11.9,24c0.5,0.4,1,0.9,1.8,0.8c0.5-0.6-0.1-1-0.3-1.3
			c-2.8-5.4-4.6-11.2-5.1-17.2c-0.5-6.1-0.5-12.4,0.9-18.4c1-4.3,2.5-8.3,5.9-11.5C724.1,756.7,726.1,756.5,727.6,755.3z"/>
		<path class="st0" d="M556,407.4c0.7,2.4,0.4,4.8,0.4,7.2c0,0-0.2,0-0.2,0l-0.2,0C556,412.2,556,409.8,556,407.4z"/>
		<path class="st1" d="M786.3,532.2c-1-8-0.3-16.6,0.2-25.2c0.4-7.5,1.5-15,3.1-22.4c1.3-6,2.7-12,4.5-17.9
			c2.5-8.4,5.6-16.7,9.3-24.6c3.3-7,7-13.8,11.2-20.4c4.8-7.4,10-14.5,15.8-21.2c4.3-4.9,8.6-9.8,13.4-14.2
			c10.7-9.8,22.1-18.6,34.7-26c9.9-5.8,20.1-10.8,30.7-15c10.9-4.3,22.2-7.4,33.6-9.8c7.8-1.6,15.8-2.8,23.8-3.5
			c5.9-0.5,11.8-0.8,17.8-1c2.8-0.1,5.5-0.6,8.3-0.3c8.4,0.7,16.8,0.8,25.2,1.8c15.8,1.9,31.2,5.4,46.3,10.7
			c13.6,4.8,26.6,10.9,39,18.5c7.5,4.6,14.7,9.6,21.5,15c6.8,5.5,13.4,11.4,19.4,17.9c9.1,9.9,17.4,20.6,24.4,32.1
			c8.7,14.4,15.5,29.8,20.3,45.9c2.6,8.6,4.5,17.4,5.8,26.3c0.8,5.4,1.3,10.9,1.6,16.4c0.3,5.7,0.9,11.4,0.6,17.1
			c-0.4,7.4-1.1,14.7-2.1,22c-1.6,12.3-4.7,24.3-8.8,36c-4.5,12.9-10.4,25.2-17.5,36.9c-5.2,8.6-11,16.7-17.4,24.4
			c-7.1,8.4-14.7,16.3-23.2,23.4c-7.3,6.2-14.9,12-23,17.1c-9.8,6.3-20.2,11.6-30.9,16.2c-8.6,3.6-17.3,6.8-26.3,9.2
			c-6.1,1.7-12.3,3.1-18.5,4.1c-6.7,1.1-13.4,2-20.2,2.5c-9.1,0.7-18.2,1-27.4,0.8c-6.9-0.2-13.8-0.9-20.6-1.8
			c-8.6-1.1-17.1-2.8-25.5-4.9c-9.7-2.5-19.1-5.7-28.4-9.5c-12.5-5.1-24.1-11.7-35.2-19.3c-5.7-3.9-11.1-8.1-16.3-12.6
			c-5.2-4.5-10.2-9.1-14.9-14c-9.8-10.5-18.6-21.8-25.9-34.2c-3.5-5.8-6.7-11.8-9.6-18c-6.1-13.2-10.9-26.8-14-41
			c-1.6-7.5-2.9-15.1-3.8-22.7C786.6,542.2,786.2,537.5,786.3,532.2z M902.5,606c37.6-0.3,66.6-29.3,66.8-66.1
			c0.2-37.5-29.4-65.5-65.2-66.3c-21.4-0.5-39.4,7.4-53.2,23.9c-11.6,13.9-16.5,30.1-15.1,48C838.4,577.4,866.1,606.3,902.5,606z
			 M1013.1,537.7c-0.2,19.9,6.2,35.1,18.2,47.8c12,12.7,27,19.7,44.3,20.4c42.4,1.8,70-30.3,70.8-63.9c1-39.9-29.6-67.3-65.3-68.3
			C1043.5,472.6,1012.1,503.7,1013.1,537.7z M961.8,647c-0.6,17.1,13.7,29.9,28.8,29.9c16.7,0,30.2-12.5,30.2-29.8
			c0-16.4-12.7-29.3-29.5-29.5C974.8,617.5,961.5,630.7,961.8,647z"/>
		<path class="st0" d="M851.8,192c-3.5-0.3-6.9-0.6-10.4-0.1c-15.4,2-27.6,12.7-30.4,27.9c-2,10.6,0.1,20.8,7.6,29.4
			c5.9,6.8,13.2,10.8,21.9,12.4c1.1,0.2,1.4,0.6,1.7,1.5c0.9,2.8,1.8,5.5,2.8,8.5c-7.2-1.4-14-0.5-20.9,0.6
			c-7.7,1.2-15.2,3.3-22.6,5.9c-14.3,5-27.9,11.6-40.6,19.8c-8.8,5.7-17.2,11.9-25.1,18.9c-5.3,4.7-10.4,9.7-15.2,14.9
			c-9.7,10.5-17.9,22.1-24.8,34.7c-8.8,16-15,33.1-20.6,50.5c-3.8,11.9-6.7,24.1-9.2,36.4c-1.3,6.3-2.2,12.6-3.1,19
			c-0.8,6.1-1.6,12.1-2.2,18.2c-0.6,6.3-0.5,12.7-0.8,19.1c-0.3,8.4-0.1,16.8,0.3,25.1c0.4,7.5,1.5,15,2.7,22.4
			c1.8,11.3,4.5,22.4,8.3,33.3c5.7,16.3,13.6,31.4,24.1,45.2c5,6.5,10.3,12.8,16.2,18.5c9.9,9.5,20.9,17.8,32.8,24.6
			c10.8,6.2,21.2,12.9,30.8,20.8c5.7,4.7,11.3,9.5,16.3,15c9.7,10.6,17.4,22.4,21.7,36.3c2.1,6.7,3.3,13.5,3.8,20.4
			c1.3,15.8-2.4,30.5-9.9,44.3c-7.5,13.7-18.3,23.7-33,29.4c-3.8,1.4-7.4,3.6-11.4,4.1c-4.2,0.5-8.4,1.2-12.7,1
			c-4.2-0.1-8.5,0.3-12.7,0c-7.7-0.6-15.4-1.8-22.8-4c-9-2.6-17.5-6.4-25.3-11.7c-12.9-8.8-22.2-20.4-26.8-35.5
			c-1.7-5.6-2.8-11.2-2.7-17.1c0.1-6.3-0.3-12.6,0.5-18.8c2.1-16.7,6.3-32.8,16.3-46.7c4.1-5.6,9-10.7,15.4-13.7
			c7.8-3.7,15.9-5.1,24.5-3.6c14.3,2.4,25.3,10.1,34.6,20.7c7.2,8.1,12.7,17.2,16.4,27.3c2.7,7.4,4.5,15.1,3.9,23.1
			c-0.9,10.9-4.7,20.8-11.7,29.3c-5,6-11.2,10-18.7,11.7c-8.6,1.9-13.6-0.3-17.9-10.5c-3-6.9-4-14.2-3.3-21.7
			c0.5-5.4,0.9-11,4.2-15.7c2.1-3,4.8-4,8.4-3c4.7,1.3,7.9,4.7,10.5,8.5c1.2,1.9,2.1,1.1,3.4,0.5c1.7-0.8,0.6-1.8,0.2-2.5
			c-2.7-4.8-5.8-9.2-10.5-12.4c-7.1-5-20.4-2.3-25.6,4.7c-4.2,5.7-5.9,12-6.7,18.9c-0.7,5.9,0.3,11.5,2.4,17c2,5.3,5.4,9.6,9.6,13.2
			c3.9,3.3,8.3,5.9,13.4,6.8c7.9,1.3,15.5,0.6,22.5-3.7c12.9-7.8,19.6-19.7,22.7-34.1c2.7-12.4-0.2-23.9-4.9-35.3
			c-5.1-12.4-12.7-23.1-22.7-32c-8.5-7.6-18.3-12.8-29.8-14.7c-6.9-1.2-13.3-0.3-19.8,1.3c-0.7,0.2-1.3,0.2-2,0
			c-11.3-2.8-21-8.4-29.5-16.5c-8.1-7.7-15.2-16.2-22-24.9c-7.5-9.5-14.6-19.3-21.2-29.5c-4.7-7.3-8.1-15.3-11.2-23.4
			c-4.7-12.5-8.3-25.4-11.3-38.4c-1.8-7.7-3.3-15.6-4.6-23.4c-0.9-5.9-2-11.9-2.8-17.8c-0.7-5.1-0.9-10.2-1.5-15.3
			c-1-8.2-1-16.5-1.9-24.8c-0.1-0.8,0-1.6,0-2.4c0-10.3-0.1-20.6,0-30.9c0.1-7.3,0.3-14.6,1-21.9c0.9-9.9,1.9-19.9,3.4-29.7
			c1.6-10.9,3.4-21.7,6.2-32.4c2.6-10.2,6-20.1,9.6-29.9c4.8-12.9,10.2-25.4,16.3-37.7c4.7-9.5,9.9-18.8,15.5-27.8
			c5.5-8.8,11.5-17.1,17.7-25.3c2.9-3.8,6.3-7.3,9.4-11c3.8-4.6,8.2-8.7,12.5-12.9c9.3-8.9,19.5-16.7,30.6-23.3
			c10-5.9,20.6-10.6,31.8-14c7.6-2.3,15.4-3.8,23.3-4.8c8.1-1,16.1-1.7,24.2-1.1c13.9,0.9,27.8,2.4,41.2,6.7
			C838.8,185.8,845.4,188.5,851.8,192z"/>
		<path class="st2" d="M597.1,572.8c-1.5-4-3.1-8-4.5-12.1c-5.5-15.9-10.3-31.9-14.1-48.3c-2-8.5-3.6-17-5.3-25.5
			c-1.7-8.6-2.8-17.2-4.2-25.8c-0.8-5-1-10.2-1.5-15.2c-0.6-6.6-1.4-13.3-1.9-19.9c-0.3-3.5-0.4-7-0.4-10.4c-0.2-11.7-0.4-23.3,0-35
			c0.2-6.9,1.2-13.7,2.2-20.6c1.2-7.9,2.6-15.7,4.5-23.4c3.6-15.1,8.3-29.8,14.1-44.2c5-12.6,10.7-24.8,17-36.7
			c7.6-14.3,16.1-28.1,25.5-41.4c5.6-7.8,11.4-15.5,17.5-22.9c9.1-11,18.7-21.4,29-31.3c8.9-8.5,18.2-16.6,28-24
			c8.8-6.7,17.9-13,27.4-18.7c9.6-5.7,19.4-10.8,29.6-15.3c13.4-5.9,27.1-10.7,41.4-13.9c6.1-1.4,12.3-2.4,18.5-3.2
			c11.5-1.6,23-2.3,34.6-1.8c7.2,0.3,14.4,0.6,21.5,1.2c8,0.7,16,1.7,23.9,3c18.8,3.2,37,8.5,54.3,16.9
			c39.6,19.1,66.3,49.7,81.9,90.5c3.8,9.9,6.6,20.1,8.8,30.6c1.7,7.9,2.8,15.8,4,23.7c0.4,2.6,0.5,5.2,0.6,7.8
			c0.3,5.1,0.7,10.1,0.9,15.2c0.1,2.7-0.3,2.8-2.9,1.9c-4.8-1.5-9.2-3.8-13.2-6.8c-7-5.2-12.2-12-16.5-19.5
			c-5.1-9-8.5-18.6-11.3-28.5c-0.3-1-0.3-1.9,1.2-2.8c9-5.4,14.6-13.5,16.4-23.8c1.7-9.9-0.2-19.2-6.7-27.3
			c-8.4-10.5-19.4-15.2-32.6-13.5c-15.2,2-26.3,12.9-29.3,27.6c-2.8,13.7,2,24.8,12,33.9c0.8,0.7,1.7,1.5,2.7,1.9
			c2.3,0.9,2.3,2.7,2,4.6c-2.7,13.9-6.9,27.2-15.6,38.6c-8,10.5-18.6,16.1-31.7,17.5c-4.3,0.5-8.5-0.3-12.7-0.1
			c-2.1,0.1-3-1.2-3.2-2.9c-1.1-9.8-3.6-19.2-7-28.4c-3.6-9.7-8.3-18.6-14.3-27c-3.9-5.4-8.2-10.4-13.2-14.8
			c-8.8-7.8-18.7-14.1-29.5-18.8c-9.3-4.1-19.1-6.6-29.2-8.4c-8.2-1.4-16.5-2.4-24.8-2.5c-3.1-0.1-6.3-0.5-9.5-0.3
			c-12.6,0.6-25,1.9-37.3,5.4c-11,3.2-21.5,7.6-31.5,13c-7.9,4.3-15.2,9.3-22.2,14.9c-7.5,6-14.6,12.4-21.2,19.4
			c-7.9,8.3-15.1,17.2-21.7,26.6c-11.2,15.8-20.8,32.6-29,50.1c-5.1,10.8-9.7,21.7-13.8,32.9c-3.8,10.3-7.3,20.7-9.8,31.4
			c-1.6,6.8-2.9,13.7-4.1,20.6c-1.3,7.6-2.5,15.3-3.3,22.9c-0.7,6.3-1.1,12.6-1.6,18.8c-1.5,18.2-1,36.5-0.7,54.7
			c0.1,7.8,0.8,15.6,1.7,23.3c0.6,5.1,1,10.2,1.6,15.2c0.8,6.9,2,13.7,3.1,20.6c1.4,8.4,3.2,16.6,5,24.9
			C597.2,569.4,598.1,571,597.1,572.8z"/>
		<path class="st3" d="M918.9,285c10.1,0.7,19.4-1.5,28.1-6.2c6.3-3.4,11.3-8.2,15.9-13.7c7.2-8.8,11.6-18.9,14.9-29.7
			c2-6.6,3.5-13.4,4.2-20.3c0.1-0.6,0.4-1,0.5-1.6c0.1-1.2,0.2-2.1-1.5-2.8c-8.5-3.5-14.1-9.6-16.4-18.6c-2.8-11,2.6-23.2,13-28.4
			c10.4-5.3,20.2-3.9,29.2,3.4c4.9,3.9,7.4,9.3,8.3,15.3c1.7,10.9-2.7,19.2-11.1,25.6c-1.9,1.4-4.2,2.5-6.5,3
			c-1.8,0.4-1.8,1.3-1.5,2.4c1.2,5,2.2,10,3.8,14.8c2.1,6.6,4.6,13.1,7.7,19.4c4.7,9.4,10.8,17.9,18.8,24.7
			c7.6,6.5,16.3,11.1,26.4,12.2c7.3,0.8,14.5,0.7,21.7-0.4c6.3-1,12.3-2.7,17.9-5.4c9.4-4.4,17.5-10.7,24.4-18.3
			c2.8-3.1,5.5-6.4,7.7-10c0.7-1.2,0.6-1.7-0.5-2.4c-5.9-3.9-9.5-9.5-10.9-16.2c-1.6-7.6,0.1-14.7,4.8-20.9
			c5.2-6.8,12.1-9.6,20.7-9.9c11.9-0.4,23.9,8.9,25.7,22.3c1.4,10.8-3.8,20.8-13.6,26.2c-3.9,2.2-8.2,3.2-12.6,3
			c-1.5-0.1-2.2,0.3-2.7,1.8c-6.1,17.2-12.2,34.5-18.5,51.7c-3.3,9-6.6,18-9.7,27c-1.4,3.9-2.9,7.8-4.2,11.8c-0.4,1.4-0.9,1.8-2.6,1
			c-11.5-6-23.5-10.9-36-14.6c-9.3-2.8-18.7-5.1-28.2-6.7c-7.6-1.2-15.2-2.1-22.8-2.9c-13.5-1.4-27-1.5-40.5-0.8
			c-9.7,0.6-19.4,1.9-29.1,3.6c-12.5,2.2-24.6,5.5-36.5,9.7c-8.5,3-16.8,6.6-24.9,10.8c-1.8,0.9-2.3,0.7-3-1.3
			c-4-12.3-8.2-24.4-12.4-36.6c-4.6-13.6-9.3-27.2-13.9-40.8c-1.3-3.9-2.8-7.7-4-11.6c-0.5-1.8-1.5-2.1-3.1-2
			c-5.3,0.3-10.2-1.1-14.6-4.1c-6.3-4.3-10.2-10.1-11.6-17.8c-2.5-14.1,7.8-27.3,21-29.3c7.8-1.2,15.2,0.4,21.5,5.9
			c4.9,4.3,7.5,9.6,8.5,16c1.4,8.9-2,16-7.7,22.3c-0.8,0.9-1.8,1.9-2.9,2.4c-1.7,0.7-1.3,1.5-0.7,2.7c4.5,7.9,10.5,14.5,17.4,20.3
			c8.1,6.8,17.5,10.9,27.7,13.1C909.2,285,914.1,285.5,918.9,285z"/>
		<path class="st1" d="M863.6,803.1c5.8,2.4,11.2,4.9,16.8,7c4.4,1.7,8.8,3.1,13.3,4.5c8.4,2.6,16.8,5,25.3,6.9
			c6,1.3,12,2.5,18.1,3.6c4.9,0.9,9.8,1.8,14.7,2.4c3.8,0.5,7.7,0.5,11.5,1c10.8,1.4,21.7,1.2,32.6,1.2c6.7,0,13.4-0.2,20-0.7
			c10.8-0.8,21.6-2.3,32.2-4.4c9.2-1.8,18.2-4.1,27.2-6.8c13.7-4.1,27-9.3,39.9-15.5c0.4-0.2,0.8-1,1.4-0.4c0.5,0.5,0,1-0.1,1.5
			c-0.2,3.5-0.5,7-1.1,10.6c-1,6.4-2.5,12.7-4.4,18.9c-3.7,12-8.8,23.4-15.8,33.9c-4.8,7.1-10.4,13.6-16.7,19.5
			c-11.8,11.3-25.6,19.1-41,24.3c-7.5,2.5-15.1,4.4-23,5.4c-5.1,0.6-10.2,1.1-15.3,1.5c-6.4,0.5-12.7,0.4-19.1,0.3
			c-7.3-0.2-14.5-1-21.8-2.2c-14.2-2.3-27.6-6.6-40.2-13.5c-7-3.8-13.4-8.4-19.3-13.7c-12.7-11.4-21.4-25.5-27.5-41.2
			c-3.1-8-5.1-16.4-6.5-25C863.9,816,863.3,809.7,863.6,803.1z"/>
		<path class="st2" d="M815.4,743.7c-1.4-0.9-1.4-2.5-2-3.7c-3.7-7.8-8-15.3-13.5-22c-5.7-7-12-13.4-19-19.2
			c-5.9-4.9-12.1-9.4-18.3-13.9c-0.2-0.1-0.3-0.3-0.5-0.5c-6.3-6.2-12.8-12.2-19-18.6c-9.7-10-17.8-21.1-24.6-33.2
			c-7.6-13.7-13.4-28.1-18-43c-3.5-11.2-6.2-22.6-8.3-34.1c-1.2-6.8-2.3-13.7-3-20.6c-0.7-6.6-1.3-13.1-1.9-19.7
			c-0.8-8.6-0.6-17.1-1-25.7c-0.3-5.9,0-11.9,0.2-17.8c0.2-5.9,0.9-11.9,1.7-17.8c1.4-10.8,3.6-21.5,6.4-32c2.2-8.5,5.1-16.9,8.4-25
			c6-14.9,13.6-29.1,22.6-42.4c4.7-7,9.9-13.7,15.3-20.1c5.9-7.1,12.4-13.7,19.2-19.9c6.2-5.7,12.7-11.2,19.7-16.1
			c7.8-5.4,15.8-10.4,24.3-14.5c7.7-3.8,15.7-6.8,24.2-8.5c5.4-1.1,11-1.3,16.4,0.2c1.3,0.3,2.3,1,2.7,2.6c0.5,1.9,1,3.8,1.8,5.6
			c0.8,1.7,0.6,2.4-1.4,2.9c-9.9,2.6-18.7,7.6-27.7,12.3c-7.4,3.9-14.4,8.2-21.3,12.9c-6.4,4.4-12.6,9.2-18.6,14.3
			c-5.8,4.9-11.3,10.2-16.6,15.8c-6.5,6.9-12.4,14.3-17.9,22.1c-5.5,7.8-10.3,16.1-14.5,24.6c-6.3,12.8-11,26.1-14.2,39.9
			c-1.9,8.1-3.1,16.4-4,24.7c-1.4,12.9-0.9,25.7-0.9,38.6c0,6,0.2,11.9,0.6,17.9c0.5,7.4,1.4,14.8,2.2,22.2
			c1.7,15,4.5,29.7,8.3,44.2c2.6,9.9,6,19.7,10,29.1c4.2,9.8,9.1,19.2,15.3,27.9c6.5,9.2,11.6,19.3,18.2,28.4
			c5.3,7.2,10.7,14.2,16.1,21.2c5.7,7.3,11,14.9,15.7,22.9c2.6,4.5,5.4,8.9,7.7,13.5c3.7,7.5,6.9,15.2,8.9,23.4
			C815.6,742.9,815.5,743.2,815.4,743.7z"/>
		<path class="st2" d="M751.8,678.1c-8.5-4.9-16.4-10-23.9-15.6c-7.4-5.6-14-12-20.4-18.7c-6.7-7-12.4-14.9-17.4-23.3
			c-5.6-9.3-10.2-19.1-14-29.3c-3.2-8.6-5.6-17.5-7.6-26.4c-1.1-5-1.7-10.1-2.5-15.1c-1.8-11.1-2-22.4-2.1-33.6
			c-0.1-6-0.1-12,0.3-18c0.5-8,1.2-16,2.4-23.9c1.6-10.7,3.6-21.3,6-31.8c3-13.2,6.8-26.1,11.2-38.8c4.2-12.1,9.1-23.9,15.3-35.1
			c5-9.1,10.8-17.8,17.3-26c4.5-5.6,9.2-11,14.3-16.1c8.3-8.1,17.1-15.5,26.7-21.9c8.6-5.8,17.6-11.1,27-15.5
			c4.8-2.3,9.7-4.4,14.7-6.2c0.8-0.3,1.5-0.3,2.5-0.3c-4.8,2.8-9.5,5.4-14.1,8.2c-6.6,4.1-12.9,8.8-19,13.6
			c-5.5,4.3-10.7,9.1-15.7,14c-5.6,5.5-10.8,11.3-15.7,17.4c-6.1,7.4-11.7,15.2-16.9,23.3c-6.1,9.7-11.6,19.8-16.2,30.3
			c-3.6,8.3-6.8,16.8-9.5,25.4c-2.9,9.3-5.1,18.7-6.7,28.3c-1.3,7.9-2.4,15.8-2.9,23.8c-0.4,6.1-1.2,12.2-0.8,18.2
			c0.4,7.2,0,14.4,0.5,21.5c0.6,8.5,1.2,16.9,2.2,25.4c1.6,13.4,3.8,26.7,6.9,39.9c3.8,15.9,8.7,31.4,15.5,46.4
			c5.9,13,12.9,25.3,21.6,36.5c5.8,7.5,12.5,14.2,19.2,20.9C750.7,676.3,751.6,676.7,751.8,678.1z"/>
		<path class="st2" d="M808.3,308.9c-4.8,4-9,8.3-13.2,12.7c-10.4,11-19.2,23.1-27.1,36c-13,21.4-23,44.1-29.8,68.2
			c-3.1,10.7-5.5,21.6-7.1,32.7c-1,7.1-1.7,14.2-2.4,21.3c-0.7,6.6-0.9,13.2-1.4,19.9c-1,12.8-0.5,25.7-0.3,38.5
			c0.1,6.7,0.9,13.5,1.7,20.2c0.9,7.5,2,15,3.5,22.4c2.2,10.7,5,21.2,8.8,31.5c1,2.6,2.3,5.2,2.9,8.3c-1.4-0.7-1.5-1.8-2-2.6
			c-5-9.4-9.1-19.2-12.4-29.2c-3.5-10.7-6.2-21.6-8.4-32.6c-1.5-7.5-2.7-15-3.6-22.5c-0.7-5.5-1.2-11.1-1.7-16.6
			c-1.3-13.8-1.4-27.6-1.4-41.4c0-3.9-0.2-7.8,0.1-11.7c0.6-6.7,1.2-13.4,2.3-20c1.2-7.2,2.7-14.4,4.5-21.5
			c1.7-6.6,3.9-13.1,6.3-19.5c2.7-7.3,6.2-14.4,9.9-21.3c4-7.2,8.3-14.3,13.4-20.8c5.4-7.1,11-13.9,17.3-20.2
			c5.2-5.2,10.5-10.4,16.1-15.1c7-5.8,14.3-11.2,22-16.1C806.7,309,807.3,308.3,808.3,308.9z"/>
		<path class="st2" d="M745,853.7c-8.6,2.5-17.5,3.4-26.4,3.2c-9.4-0.2-18.4-2.3-27.2-5.2c-9.8-3.2-18.7-7.9-26.6-14.4
			c-10.1-8.3-17.4-18.7-22-31c-2.3-6.1-3.6-12.5-4.7-18.9c-1.4-8.2-1.2-16.5-0.8-24.7c0.6-11,3.3-21.6,8.5-31.4
			c5.4-10,13-18,22.8-23.9c4.4-2.7,9-4.9,14-6c0.4-0.1,0.7-0.2,1.1-0.3c0.5,0,1.1,0,2.2,0c-2.8,2.2-5.2,4-7.3,6.2
			c-6.5,6.7-11.1,14.6-14.6,23.2c-2.8,6.8-4.8,13.8-6.2,20.9c-2,10.1-2.4,20.4-2.1,30.7c0.5,15.3,5.6,28.9,15.2,40.7
			c8,9.9,18.3,17.1,30,22.2c8.6,3.8,17.6,6.1,26.8,7.6C733.4,853.4,739.2,854,745,853.7z"/>
		<path class="st1" d="M985.9,801.6c0,5.7-0.1,11.4,0,17c0,1.7-0.5,2.4-2.3,2.4c-6.5,0-12.9-0.9-19.4-1.3c-5.1-0.3-10.2-1-15.2-1.7
			c-6.6-0.9-13.1-2.5-19.7-3.8c-1.6-0.3-3.6-0.3-4.7-1.2c-1.1-1.1,0.1-3,0.2-4.5c0.6-6.7,1.7-13.4,2.7-20c0.6-3.7,1.1-7.5,1.5-11.2
			c0.2-1.5,0.4-1.7,2-1.3c9.5,2.5,19.1,4,28.8,5.8c3.7,0.7,7.5,0.5,11.2,1c4.5,0.6,9,0.6,13.6,0.5c1.5,0,1.2,1,1.2,1.8
			C985.9,790.4,985.9,796,985.9,801.6z"/>
		<path class="st1" d="M1114.4,790.2c1.4,4.3-2.8,4.6-5.3,5.7c-5.9,2.7-11.9,5.2-18,7.5c-8.7,3.3-17.6,5.9-26.6,8.4
			c-1,0.3-1.9,0.3-2-1.3c-0.4-4.1-1.1-8.2-1.8-12.3c-0.9-5.9-1.9-11.9-2.8-17.8c-0.2-1.5-0.2-3-0.6-4.4c-0.4-1.7,0.1-2.6,2.1-3.1
			c4.8-1.2,9.5-2.7,14.1-4.3c9.6-3.4,19.2-6.9,28.3-11.5c2.4-1.2,5-2,7.2-3.6c1-0.7,1.4,0.1,1.5,0.8c0.7,4.7,1.4,9.4,1.9,14.1
			c0.7,6,1.3,12,1.9,18C1114.5,787.6,1114.4,788.7,1114.4,790.2z"/>
		<path class="st1" d="M912,809.8c-4.1-1.3-8.5-2.8-12.9-4.2c-11.7-3.8-23-8.6-34.1-13.8c-1.1-0.5-1.5-1-1.4-2.3
			c0.1-5,0.9-10,1.3-15c0.5-5.3,1.2-10.6,2-15.8c0.5-3,0.9-6,1.5-9c0.2-1,0.4-2,2.1-0.9c7.9,5.1,16.1,9.7,24.6,13.8
			c7.2,3.4,14.6,6.5,22.2,9c0.9,0.3,1.7,0.4,1.5,2.2c-0.8,8.3-2.6,16.4-3.5,24.6c-0.4,3.5-1,7-1.4,10.5
			C913.8,810.1,913.1,810,912,809.8z"/>
		<path class="st1" d="M995.9,801.9c0-5.7,0.1-11.3,0-17c0-1.5,0.3-1.8,1.8-1.9c6.7-0.4,13.3-1,20-1.8c9.4-1,18.6-2.7,27.7-4.8
			c0.9-0.2,1.2-0.1,1.4,0.9c1.1,7.5,2.2,15,3.3,22.5c0.6,4.3,0.9,8.7,1.5,13.1c0.1,1.2-0.2,1.9-1.5,2.1c-9,1.6-18,3.2-27.1,4
			c-6.8,0.6-13.6,1.3-20.5,1.4c-1.6,0-3.3,0.3-4.9,0.4c-1.3,0.1-1.6-0.3-1.6-1.6C995.9,813.6,995.9,807.7,995.9,801.9z"/>
		<path class="st1" d="M985.9,755.4c0,5.8,0,11.7,0,17.5c0,1.4-0.3,2-1.8,2c-7-0.3-14-0.9-20.9-1.7c-5.6-0.7-11.1-1.5-16.5-2.6
			c-4.9-1-9.8-2.2-14.7-3.4c-0.6-0.2-1.2-0.3-1-1.7c1.1-5.5,1.7-11,2.6-16.6c0.9-5.5,1.9-11,2.8-16.4c0.1-0.5,0.1-1,0-1.4
			c-0.2-1.2,0.6-1.4,1.4-1.1c8.3,2.2,16.7,3.3,25.1,4.7c3.1,0.5,6.2,0.9,9.3,1c4,0.1,7.9,0.9,11.9,0.5c1.6-0.2,1.8,0.6,1.7,1.9
			C985.9,743.8,985.9,749.6,985.9,755.4z"/>
		<path class="st1" d="M1049.2,730c-0.2-0.9,0-1.4,1.2-1.7c10.7-2.8,21.1-6.4,31.3-10.5c5.4-2.2,10.7-4.7,16-7.1
			c1.4-0.7,2.1-0.7,2.6,1c2.6,8.9,5,17.8,6.8,26.9c0.3,1.5,1.7,3.2,0.6,4.6c-1,1.2-2.7,1.6-4.2,2.4c-9.5,4.8-19.1,9.2-29,13
			c-5.8,2.2-11.7,4.1-17.5,6.2c-0.7,0.3-1.5,0.6-1.7-1c-0.8-5.7-1.8-11.3-2.8-16.9c-0.9-5.1-2-10.3-3.1-15.4
			C1049.4,731,1049.1,730.6,1049.2,730z"/>
		<path class="st1" d="M871.1,737.6c0.8-2.9,1.6-5.9,2.5-8.8c2-6.4,4.6-12.7,8.1-18.5c0.8-1.4,1.4-1.3,2.6-0.6
			c12,6.7,24.6,12,37.8,15.9c5.3,1.6,5.1,1.4,4,6.9c-1.5,7.5-2.7,15.1-4,22.6c-0.4,2.1-0.7,4.2-1,6.3c-0.3,1.6-1.3,2-2.7,1.5
			c-6-2.1-11.9-4.6-17.8-7.2c-9.3-4.2-18.1-9.2-26.6-14.9C872.9,740,870.9,739.7,871.1,737.6z"/>
		<path class="st1" d="M995.9,755c0-5.8,0-11.5,0-17.3c0-1,0-1.7,1.4-1.7c10.6-0.7,21.3-1.1,31.8-3.2c2.7-0.5,5.5-1.2,8.3-1.5
			c1.4-0.2,2-0.1,2.2,1.7c0.8,6.2,1.9,12.3,3,18.4c1,5.1,1.4,10.4,2.6,15.5c0.4,1.6-1.6,1.5-2.4,1.7c-7.3,1.3-14.4,3.2-21.8,4
			c-7.7,0.9-15.4,1.9-23.2,1.9c-1.6,0-2-0.4-1.9-2C995.9,766.6,995.9,760.8,995.9,755z"/>
		<path class="st0" d="M876.8,211c2.9,2.4,5.2,5.4,7.5,8.4c10.3,13.9,16.5,29.6,19.9,46.4c0.5,2.4,1.1,4.8,1.1,7.3
			c0,1.4-0.5,1.7-1.7,1.3c-7.1-2.1-13.9-5-19.9-9.5c-4.8-3.7-8.9-8-12.4-12.9c-0.6-0.9-0.6-1.6,0.2-2.5c4.8-5.3,7.7-11.6,8.4-18.8
			C880.6,222.5,880.4,221,876.8,211z"/>
		<path class="st0" d="M727.6,755.3c-1.6,1.2-3.5,1.4-4.9,2.7c-3.4,3.1-4.9,7.2-5.9,11.5c-1.4,6.1-1.5,12.3-0.9,18.4
			c0.5,6,2.3,11.8,5.1,17.2c0.2,0.4,0.8,0.7,0.3,1.3c-0.7,0.2-1.3-0.3-1.8-0.8c-7.3-6.4-12.1-13.9-11.9-24c0.1-6.7,0.9-13,4.6-18.9
			C715.3,757.9,722.4,754.6,727.6,755.3z"/>
		<path class="st4" d="M729.1,107.6c0.1-0.2,0.2-0.5,0.5-0.3C729.5,107.4,729.3,107.5,729.1,107.6z"/>
		<path class="st4" d="M732.5,105.7c0.1-0.2,0.2-0.5,0.5-0.3C732.8,105.5,732.7,105.6,732.5,105.7z"/>
		<path class="st4" d="M724.3,110.5c0.1-0.2,0.2-0.5,0.5-0.3C724.7,110.3,724.5,110.4,724.3,110.5z"/>
		<path class="st4" d="M721.9,111.9c0.1-0.2,0.2-0.5,0.5-0.3C722.3,111.7,722.1,111.8,721.9,111.9z"/>
		<path class="st4" d="M716.7,115.3c0.1-0.2,0.2-0.5,0.5-0.3C717,115.1,716.8,115.2,716.7,115.3z"/>
		<path class="st4" d="M690.3,134.5c0.1-0.3,0.2-0.5,0.5-0.3C690.7,134.2,690.5,134.4,690.3,134.5z"/>
		<path class="st4" d="M697,129.2c0.1-0.2,0.2-0.5,0.5-0.3C697.4,129,697.2,129.1,697,129.2z"/>
		<path class="st4" d="M702.8,124.9c0.1-0.2,0.2-0.5,0.5-0.3C703.1,124.7,702.9,124.8,702.8,124.9z"/>
		<path class="st4" d="M706.1,122.5c0.1-0.2,0.2-0.5,0.5-0.3C706.5,122.3,706.3,122.4,706.1,122.5z"/>
		<path class="st4" d="M710.9,119.1c0.1-0.2,0.2-0.5,0.5-0.3C711.3,118.9,711.1,119,710.9,119.1z"/>
		<path class="st4" d="M712.3,118.2c0.1-0.2,0.2-0.5,0.5-0.3C712.7,118,712.5,118.1,712.3,118.2z"/>
		<path class="st4" d="M713.8,117.2c0.1-0.2,0.2-0.5,0.5-0.3C714.1,117,714,117.1,713.8,117.2z"/>
		<path class="st4" d="M715.2,116.3c0.1-0.2,0.2-0.5,0.5-0.3C715.6,116,715.4,116.1,715.2,116.3z"/>
		<path d="M902.5,606c-36.4,0.3-64.1-28.7-66.6-60.4c-1.4-17.8,3.5-34.1,15.1-48c13.8-16.5,31.8-24.4,53.2-23.9
			c35.8,0.8,65.4,28.7,65.2,66.3C969,576.7,940,605.7,902.5,606z"/>
		<path d="M1013.1,537.7c-1-34,30.4-65.1,68-64c35.7,1.1,66.3,28.4,65.3,68.3c-0.8,33.6-28.3,65.7-70.8,63.9
			c-17.3-0.7-32.3-7.7-44.3-20.4C1019.3,572.7,1012.9,557.6,1013.1,537.7z"/>
		<path class="st4" d="M961.8,647c-0.4-16.3,12.9-29.5,29.5-29.4c16.8,0.2,29.5,13.1,29.5,29.5c0,17.2-13.5,29.8-30.2,29.8
			C975.5,676.9,961.3,664.2,961.8,647z"/>
	</g>
</g>
</svg>
