<?xml version="1.0" encoding="utf-8"?>
<!-- Generator: Adobe Illustrator 27.3.1, SVG Export Plug-In . SVG Version: 6.00 Build 0)  -->
<svg version="1.1" id="Layer_1" xmlns="http://www.w3.org/2000/svg" xmlns:xlink="http://www.w3.org/1999/xlink" x="0px" y="0px"
	 viewBox="0 0 1920 1080" style="enable-background:new 0 0 1920 1080;" xml:space="preserve">
<style type="text/css">
	.st0{fill:#000800;}
	.st1{fill:#FEFEFE;}
	.st2{fill:#B8B9B4;}
	.st3{fill:#404040;}
	.st4{fill:#F1E129;}
	.st5{fill:#C00046;}
</style>
<g>
	<g>
		<path class="st0" d="M704.1,867.8c-2.4,0.8-3.7-1-5-2.4c-5.5-5.8-11.8-10.8-16.4-17.4c-2.8-4-5.6-3.1-8.6-0.5
			c-7.4,6.4-14.7,12.8-22.2,19.1c-11,9.2-22.1,18.3-33.1,27.5c-10.9,9.1-21.8,18.2-32.6,27.4c-9.3,7.8-18.7,15.5-28.8,22.3
			c-6.5,4.4-12.5,1.4-18.3-1.6c-8-4.1-14-10.5-19.6-17.4c-8.8-10.6-19-19.9-26.1-32c-5.8-9.9-5.6-17.2,1-26.8
			c7.5-10.9,18-18.6,27.6-27.2c10.2-9,20.7-17.6,31.1-26.3c17.7-15,35.4-30.1,53.3-44.8c3-2.5,2.7-4,0.5-6.3
			c-4.6-5-8.7-10.5-12.4-16.3c-3.8-6-3.3-10.7,1.6-15.7c3.4-3.4,6.5-7.1,10.6-9.8c7.2-4.8,13.7-4.3,19.5,2.3c3.8,4.4,8,8.5,11,13.5
			c1.8,2.9,3.5,3.1,6.4,0.7c23.9-19.5,47.9-38.9,71.8-58.3c1-0.8,2.7-1.4,2-3c-0.5-1.3-2.1-0.6-3.1-0.7c-17.1-1.3-34.2-0.4-51.3-0.7
			c-21.6-0.4-43.3-0.1-64.9-0.3c-8.3,0-16.6,0.6-24.9,0.9c-2.3,0.1-4.6-0.2-6.9-0.7c-13.7-3.1-18.3-8-18.9-22.1
			c-0.8-19.1,0.1-38.2,1.7-57.3c0.3-3.3-0.1-6.6,0.7-9.9c2.7-11.2,6.4-14.6,17.9-14.7c13.5-0.1,26.9,0.2,40.4,0.7
			c19.3,0.8,38.7,0.2,58,0.3c16.1,0.1,32.3-0.5,48.4,0.9c4,0.3,6.1-0.4,5.9-5.2c-0.1-3.6,0.4-7.3,0.8-10.9
			c1.4-12,8.5-16.3,23.2-14.3c10.3,1.4,11.6,4,11.7,14.4c0,5.1-0.3,10.3,0.8,15.4c0.4,1.8,1,2.5,2.8,2.7c11.7,1.1,23.5,0.9,35.8,0.8
			c-4.3-5-10.1-7-14.5-11c-19.2-17.2-36.3-36.2-48.6-58.9c-10.9-20-17.7-41.8-22.3-64.2c-1.5-7.3-2.7-14.6-3.8-22
			c-0.4-2.6-1.8-4.2-3.6-5.7c-23.3-19-46.6-37.9-69.8-57c-16.5-13.6-33.3-26.9-49.1-41.4c-16.6-15.3-32.9-30.9-47.7-48.1
			c-6.5-7.6-13-15.1-18.4-23.6c-8.6-13.7-12.2-28.9-14.6-44.6c-2.9-19.1,0.3-37.4,7.1-55.2c1.7-4.3,4.1-8.4,5.5-12.8
			c1.5-4.6,3.7-4.1,6.5-1.6c6,5.2,12,10.5,18,15.8c19.7,17.1,39.4,34.2,59.1,51.3c16.3,14.2,32.5,28.5,48.9,42.6
			c21.6,18.7,43.2,37.4,64.9,56.1c2,1.7,4.1,3.4,5.9,5.4c2.4,2.5,3.5,2.2,4.7-1c4-10.8,8.6-21.3,14.4-31.2
			c19.8-34.1,46-61.8,80.7-81.4c21.4-12.1,44.1-19.9,68.1-24c10.7-1.8,21.6-2.7,32.5-3.4c10.2-0.6,20.4-1.6,30.8-1.3
			c17.4,0.7,34.4,3.9,51.4,7.4c14,2.9,27.6,7,40.4,13.3c14.8,7.3,28.8,16,41.4,27.1c7.8,6.8,15.1,14.1,22.2,21.5
			c18.8,19.5,33.6,41.7,44,67c5.3-2.4,8.9-7.1,13.2-10.8c13.8-11.9,27.2-24.4,40.9-36.5c18.5-16.4,37.2-32.6,55.7-48.9
			c12.6-11.1,25-22.3,37.6-33.5c17.3-15.3,34.5-30.6,51.9-45.7c4.8-4.2,6.2-3.7,8.1,2.3c4.5,14.4,9.6,28.6,11.4,43.6
			c1,8.1,1.5,16.4,2.1,24.5c0.5,7.3,0.5,14.6-0.1,21.6c-0.9,12-3.4,24-10.2,34.4c-10.1,15.6-23.5,28.1-37.2,40.4
			c-4.6,4.1-8.9,8.4-13.4,12.5c-16.3,15.1-33.1,29.6-49.3,44.9c-16.4,15.4-33.5,30-50.6,44.7c-13.8,11.9-27.9,23.3-41.8,35
			c-1.3,1.1-2.7,2.3-2.8,4.5c-0.2,14.2-3.2,27.9-7.1,41.4c-1.1,3.7-0.3,5.2,3.4,6.3c12.2,3.7,19.1,14.1,17.8,28.5
			c-0.4,4.3,0.1,8.6-2.8,12.4c-1.1,1.4,0.1,3.2,1,4.6c9.5,15.7,19,31.3,28.5,47c1.5,2.5,3.5,3.5,6.5,3.6c20.1,0.4,40.3,0.5,60.4,1.1
			c15.8,0.5,31.7-0.1,47.4,0.9c15.3,1,30.7,0,45.9,1c16.8,1.1,33.7-0.1,50.4,1c16.8,1.1,33.6,0.4,50.4,0.9
			c9.4,0.2,10.6,1.9,7.4,10.8c-4.6,12.5-11.6,23.5-20.4,33.5c-12.9,14.6-26.5,28.5-42.9,39.3c-16.4,10.8-34.6,15.8-54.1,16.4
			c-30,0.8-59.9,1.7-89.9,0.9c-21.8-0.6-43.6-0.3-65.4-1.2c-12.3-0.5-24.5-0.3-38.3-0.9c8.4,7,15.6,12.9,22.9,18.9
			c16.9,14,33.9,27.8,50.6,42c3.7,3.2,5.5,1.8,8-1c5.5-6.3,11-12.5,16.7-18.6c5.3-5.6,7.6-5.9,14.3-2.2c6.9,3.9,11.5,9.7,14.2,17.2
			c1.2,3.4-0.2,5.9-1.9,8.3c-5.3,7.1-10.7,14.2-16.2,21.1c-1.4,1.7-1.2,2.2,0.3,3.8c7.8,8.4,17.3,14.8,25.8,22.5
			c9.3,8.5,19,16.6,28.5,25c12.7,11.2,25.5,22.3,38,33.8c9.3,8.6,19.4,16.8,25.4,28.4c2.1,4,2,9.1,0.1,13
			c-3.4,6.8-8.2,12.8-13.7,18.1c-11.1,10.4-19.1,23.4-30,34c-7.8,7.7-14,8.3-23.7,2.7c-15.1-8.6-27.8-20.4-41.2-31.4
			c-19.4-15.9-38.6-32-57.9-48.1c-6-5-11.9-10.1-17.8-15.2c-2.8-2.4-4.7-3-7.6,0.7c-4.4,5.8-9.9,10.8-14.8,16.2
			c-3.3,3.7-6.9,3.8-10.7,1.4c-6.3-3.9-11.8-8.7-16.4-14.5c-3.3-4.2-3.1-9.1,0.3-13.2c4.8-5.7,9.4-11.7,14.4-17.2
			c2.4-2.6,1.8-4.1-0.5-6c-10-8.2-20-16.5-30-24.7c-14.4-11.8-28.7-23.6-43.1-35.4c-9.7-8-19.5-16-29.2-24.2
			c-2.9-2.5-3.5-0.3-4.7,1.6c-7.4,12.1-15.9,23.3-26.3,33.1c-8,7.5-16.6,14-26.6,18.8c-10.1,4.9-19.7,10.7-30.4,14.2
			c-18.5,6-37.3,6.5-56.5,5.2c-16-1.1-30.9-5.7-45.6-11.3c-11.2-4.2-20.7-11.4-29.9-18.7c-14.3-11.4-26-25.1-34.7-41.3
			c-3.8-7.2-4.1-7.1-10.4-1.5c-15,13.3-30,26.7-45,40.1c-14,12.6-28,25.3-42,37.9c-0.1,0.1-0.2,0.2-0.4,0.3
			c-10.7,9.2-10.6,9-0.8,19.5c5.2,5.5,9.8,11.6,14.5,17.6c2.2,2.8,2.7,5.9,0.2,9.1c-4.7,6-9.9,11.7-16.4,15.7
			C710,871.7,706.4,871.9,704.1,867.8c6.3,2.5,10.4-1.1,14.4-5.1c2-2,4-4,6-6c5.9-6.2,6-6.7,0.6-13.2c-11-13.2-22.1-26.4-33.1-39.5
			c-14.7-17.5-29.4-35.1-44.2-52.6c-7.8-9.3-15.6-18.6-23.6-27.8c-4.3-5-11.1-6.6-17-1.5c-4.5,3.9-9.1,7.7-12.2,13
			c-1.1,2-1.1,3.4-0.1,5.4c2.7,5.6,6.7,10.3,10.6,15c13.9,16.7,27.7,33.4,42.1,49.6c17.8,20.1,34.9,40.8,54.2,59.5
			C702.7,865.7,704,866.3,704.1,867.8z M1176.3,494.9c0.1-0.1,0.2-0.1,0.3-0.2c-0.1-0.2-0.3-0.4-0.4-0.6
			c-2.4-7.3-5.2-13.8-13.4-16.9c-10-3.7-23.5,0.6-29,8.9c-6.3,9.6-5,19.3,0.3,28.8c5,8.8,13.1,11,22.3,9c7.6-1.7,14.9-4.7,18.6-12.4
			C1177.5,506.2,1176.1,500.5,1176.3,494.9z M799.1,630.1c0.2-0.3,0.5-0.6,0.7-0.9c-0.2-0.1-0.5-0.2-0.7-0.3
			c-13.6-0.3-27.3-0.5-40.9-0.9c-3.1-0.1-3,1.6-3,3.8c-0.2,10.2-1.2,20.4-0.8,30.7c0.3,7.9-0.1,7.9,7.8,7.9c0.8,0,1.7,0.1,2.5,0.1
			c9.3,0.1,18.6,0.3,28,0.4c1.4,0,3.5,0.9,3.5-2C795.7,655.8,798.4,643,799.1,630.1z M1210,573.1c0-0.4,0-1-0.6-0.4
			C1209.6,572.8,1209.9,572.9,1210,573.1c0.3,2.5,2.3,4.3,3.3,6.5c1,2.4,1.5,4.9-0.8,6.2c-10.3,5.8-19.6,13.1-30.1,18.4
			c-2.7,1.4-4.5,1.1-5.3-1.7c-1.2-4.6-3.6-3.8-6.3-1.7c-4.8,3.7-10,6.9-15.5,9.5c-1.5,0.7-3.5,1.2-4.2,0.6c-3.8-3.6-6.6-0.5-9.6,1.1
			c-4,2.1-7.8,4.4-11.9,6.3c-3.2,1.5-5.1,1.7-5.9-3.2c-2.1-12.7-5.1-25.3-7.9-37.9c-0.6-2.6-1.7-4.1-5-4c-8.7,0.1-17.3-0.2-26-0.4
			c-1.5,0-2.9,0-4.2,1.2c-3.6,3.3-7.1,6.5-10.9,9.6c-1.1,1-1.2,2.1-0.9,3.1c3.1,12.4,4.4,25.1,6.2,37.8c0.2,1.7,1,3.3,3.7,3.7
			c4,0.6,7.9,0.6,11.8,0.8c1.4,0.1,2.9,0.1,1.3,2.1c-4-0.1-8-0.1-12-0.4c-2.7-0.2-3.4,0.6-3.1,3.3c1,10.7,2.6,21.3,2,32
			c-0.1,2.5,1.5,2.9,3.6,3c6.4,0.1,12.8,0.2,19.3,0.8c11.4,1,22.8-0.1,34.3,1c11.5,1.1,23.2,0.7,34.8,0.8
			c26.3,0.4,52.5,1.5,78.8,1.3c24.1-0.1,48.3,1.2,72.4,0.1c16.1-0.7,32.2,0.1,48.2-2.1c21.5-3,39.5-13.3,55.7-27.3
			c10.4-9,19.7-19.1,28.6-29.6c8-9.5,14-20,17.5-32c1-3.5,0.2-3.9-2.8-3.9c-16.8-0.2-33.6-0.6-50.3-0.9c-0.8-0.2-1.1,0.1-0.9,0.9
			c-4.9,13.2-12,25-22.9,34.3c-7.6,6.4-15.4,12.5-24.9,15.5c-12.4,4-25.5,3.7-38.4,3.9c-57.4,0.9-114.9,0.7-172.4,0.4
			c-5.3,0-10.6,1.8-15.8,0.6c-6.1-1.4-12.2-0.8-18.3-0.9c-10.2-0.2-20.5,0.8-30.7-0.8c-0.9-0.9-1.1-1.7,0.4-2c1.5-0.2,3-0.2,4.5-0.1
			c58,0.7,115.9,1.2,173.9,0.9c25.2-0.2,50.5-0.5,75.7-0.9c4.6-0.1,9.4-0.2,13.7-1.5c24.3-7.1,41.2-22.7,51.1-46
			c1.5-3.4,1-4.5-3-4.6c-48.9-0.9-97.8-2-146.7-3c-5.3-0.1-10.7,0.3-16-0.1C1235.6,572.7,1222.8,572.8,1210,573.1z M935.1,430.9
			c-0.7-1.8-1.7-2.3-3.1-0.6c-8-0.1-16-0.1-24-0.4c-3.1-0.1-3.3,1.1-3.2,3.7c0.3,17.3-2,33.9-11.5,49c-7.7,12.1-16.2,23-29.4,29.4
			c-16.1,7.9-33.4,7.9-50.1,3.6c-24.2-6.2-40.3-22.6-49.8-45.5c-4.1-9.8-4.4-20.1-4.1-30.5c0.1-2.6,0.5-4.4-3.6-4.3
			c-6.8,0.1-13.5,1.8-20.3,1.6c-6.6-0.2-13.2,1-19.7,1.1c-2.9,0.1-3.6,0.8-2.6,3.9c2.9,9.4,4.9,19,8.2,28.3c3,8.6,6,17.3,10,25.4
			c12.9,26.3,31.6,47.9,54.4,66c21.3,16.8,44.2,30.7,69.2,41.3c25.2,10.6,51,17.6,78.5,17.4c14.1-0.1,28-0.9,41.8-3.6
			c15.7-3,31.6-6,46.6-11.4c15.4-5.5,30-12.8,43-23.2c12.5-10,23.4-21.6,34.4-33.1c8.3-8.7,15.7-18.4,23.8-27.4
			c3.6-4,5.4-7.5,3.1-13c-6.2-15.1,6.2-37.5,22.9-37c2.9,0.1,4.9-2,5.4-5c1.1-6.7,3.1-13.2,4.3-19.9c0.6-3.5-0.4-4.2-3-5.1
			c-5.9-2-12.1-1.2-18-1.7c-10.5-0.9-21-1.4-31.5-2.2c-14.7-1.1-29.4-1.4-44-2.1c-2.1-0.1-4.1-0.1-6.3-0.7c-3.1-0.8-7,0-7.2,4.2
			c-0.2,5.1-1.3,10.1-1.3,15.3c0,7.7-1,15.5-1,23.3c0,4.9,0.4,5.9,5.4,4.9c12.2-2.4,23.8-6,33.7-14.2c3.2-2.6,6.6-5.4,11.2-6.8
			c-2.8,5.9-21.6,20.7-27.8,22.1c-7.4,1.7-14.4,5.1-22,6.1c-1.5,0.2-2.4,1-2.3,2.7c0.4,6.1-1.4,12.1-1.1,18.2
			c0.2,4.6-0.8,9.2-1.3,13.9c-2.6-0.5-2.6-2.1-2.7-3.9c-0.6-9.5-1.3-19-1.9-28.5c-0.1-1.4-0.2-2.3-2-2.6
			c-17.5-2.9-31.8-12.3-45.8-22.7c2.6-0.8,4.5,0.1,6.4,1.1c9.7,5.2,19.4,10.2,30.1,13c8.5,2.3,10.4,1.1,9.3-7.1c-0.1-0.5,0-1,0-1.5
			c0.7-11.8-1.1-23.5-1-35.3c0-2.3-0.2-3.5-3.1-3.5c-12.7-0.2-25.4-1-38.1-1.8c-15.2-0.9-30.5-0.8-45.8-1.2
			C943.7,430.9,939.4,430.9,935.1,430.9z M951.4,799.9c11.2-2,22.3-3.7,33.2-7.7c24.6-9,44.9-23.8,61.8-43.4
			c7-8.1,13.2-17,17.6-26.9c5.5-12.3,8.6-25.4,9.9-38.8c0.2-2,2.7-4.4,0.4-5.8c-2-1.2-4.2,1.2-6.1,2.2
			c-25.3,13.4-51.4,24.6-79.7,30.5c-17,3.5-34.2,4.7-51.5,4.8c-9.5,0.1-18.9-0.3-28.4-1.6c-11.6-1.6-23.1-3.4-34.4-6.1
			c-13.8-3.3-27.5-6.8-40.5-12.5c-10.2-4.5-20.4-9.1-30.3-14.3c-0.7-0.4-1.8-1.9-2.9-0.6c-0.4,0.4-0.5,1.4-0.2,1.9
			c1.9,4.2,1.9,8.8,2.9,13.2c8.9,35.8,29.3,63.4,59.3,84.5c13.3,9.3,28.4,13.9,43.8,17.9C921,800.6,936.4,798.5,951.4,799.9z
			 M707.5,356.5c3.6-16.3,6.9-32.1,12.1-47.4c1.2-3.6,0.7-5.4-2-7.8c-23.9-20.5-47.6-41.2-71.4-61.9c-28.1-24.4-56.2-48.6-84.1-73.2
			c-3.8-3.3-5.1-1.4-5.9,1.6c-1.3,4.8-2.7,9.6-3.4,14.7c-2.2,15.5,1,29.5,10.4,42c8.2,10.8,18.1,20,27.6,29.6
			c21.6,22.1,46.1,41,68.9,61.8c8.7,7.9,17.8,15.3,26.8,22.9C693.3,344.7,700.2,350.4,707.5,356.5z M1081.6,672
			c-0.9-0.7-2.1-1.4-2.5,0c-0.4,1.3-0.3,2.3,1.2,3.3c6.8,4.4,12.7,10.1,18.8,15.4c14.5,12.4,29.1,24.6,43.8,36.9
			c19.3,16.2,39.3,31.8,58,48.8c2.9,2.6,4.9,2.4,7.5-0.7c8.8-10.5,17.6-20.9,26.8-31c3.3-3.6,3.1-5.6-0.7-8.7
			c-22-17.9-44-35.7-65.4-54.2c-7-6.1-14.6-8.5-23.2-8.8c-14.5-0.5-28.9-0.7-43.4-1C1095.5,671.9,1088.6,672,1081.6,672z M685,364.1
			c7.2,0,12.2,0,17.2,0c1.8,0,3.8,0.4,4.6-1.9c0.7-2.1-0.5-3.5-1.9-4.7c-4.2-3.6-8.4-7.1-12.5-10.7c-19.4-16.7-38.7-33.6-58.3-50
			c-23.9-20-46.8-41-67.7-64.2c-5.1-5.7-10-11.6-12.5-19.1c-5.4-15.9-5.4-31.7,0.9-47.3c1.6-3.9,0.5-6-2.4-8.4
			c-7.6-6.4-15.2-12.9-22.6-19.6c-10.8-9.7-10.6-9.7-16.3,3.4c-1.8,4.2-1.4,7.3,1.1,11c7.7,11.5,14.8,23.3,22.4,34.8
			c1.8,2.7,1.8,4.9,0.6,7.8c-4.8,11.3-9.2,22.8-13.8,34.2c-0.9,2.2-1.7,4,1.6,5c16.5,5,32.8,10.9,49.7,14.7c2.8,0.6,3.8,2.1,4,4.8
			c1,13.6,2.1,27.1,3,40.6c0.2,3.4,1.8,4.9,5.2,5.5c17.5,2.9,35,6,52.5,9c2.6,0.4,4,1.4,4.4,4.3c2.1,14.8,4.6,29.5,6.8,44.3
			c0.4,2.9,0.6,5.6,4.8,5.4C666.3,362.7,676.7,364.7,685,364.1z M1269.2,714c-2.6-1.2-4.1,1-5.8,2.8c-13.8,14.5-26.6,29.8-39.7,45
			c-13.6,15.7-26.9,31.5-40.3,47.4c-8.6,10.1-17.1,20.3-25.7,30.5c-2.5,3-2.5,5.6,0.3,8.6c4.3,4.5,8.5,8.9,13.6,12.5
			c4.9,3.5,7,3.4,11.1-1c14.4-15.4,27.9-31.5,41.7-47.4c20-23.1,39.4-46.6,58.2-70.6c2-2.6,4.9-5.1,5-8.3
			C1287.9,725.4,1276.6,712.9,1269.2,714z M509.8,150.2c-2.8,14-6.9,26-5,39.3c1.3,9.4,2.7,18.7,5,27.8c4.8,18.8,16.3,33.8,29,47.8
			c11.4,12.5,23.4,24.4,35.3,36.4c14.1,14.1,29.6,26.6,44.7,39.6c8,6.9,16.2,13.7,24.6,20.2c1.4,1,2.5,4.2,4.8,2.8
			c2.4-1.4-0.1-3.6-0.3-5.3c-1.8-14.2-3.9-28.4-6.1-42.6c-0.3-1.8-0.7-3.7-4-4.3c-17.5-2.9-34.9-6.5-52.5-8.8
			c-3.9-0.5-6.1-2.7-6.3-6.6c-0.3-5.3-0.5-10.5-0.9-15.8c-0.6-8.7-0.9-17.4-2.1-26.1c-0.2-1.1,0.5-2.5-1.4-2.5
			c-4-0.1-7.5-1.9-11.2-3c-13.5-4-26.9-8-40.4-12c-3.5-1-4.4-2.9-2.9-6.4c5.1-12.2,10-24.4,14.9-36.6c0.5-1.3,1.4-2.5,0.3-4.1
			C527.1,177.1,518.9,164.3,509.8,150.2z M753.4,571.5c0-5.8,0-11.6,0-17.5c0-5.4-2-8.7-7.8-10.4c-10.1-3-19.4,1.5-21.8,11.6
			c-1.9,7.8-1,15.8-1.5,23.6c-0.7,10.6-0.8,21.3-1.1,32c-0.7,26.6-0.2,53.3-0.1,79.9c0,6,3.7,9.7,9.4,11.6c3,1,5.9,0.3,8.8,0.7
			c5.4,0.8,8.3-2,9.6-7c2.3-8.8,2.3-17.9,2.7-26.9c1-18.6-0.1-37.2,0.9-55.8C753.6,599.4,754.2,585.4,753.4,571.5z M610.4,670.4
			c3.8,0.6,7.5,0.7,10.5-2.5c5.5-5.8,11.2-11.4,17-16.9c2.1-2,1.9-3.2,0-5.2c-7.1-7.1-13.9-14.4-21-21.4c-2.1-2.1-2.4-3.1,0.1-5.4
			c7.6-6.8,14.7-14,22.1-21c1.8-1.7,2.2-2.9,0.1-4.7c-2.6-2.3-5.3-4.7-7.4-7.4c-7.6-10.2-17.1-15.5-30.1-12.9
			c-0.9,0.2-2.1,0.2-3-0.2c-1.8-0.8-2.3-0.7-2.8,1.5c-1,4.6-1.2,9.2-0.8,13.8c0.5,5.1-1.6,8.3-5.4,11.4c-8.5,6.9-18.1,12.5-26,20.3
			c-1.6,1.6-2.2,2.1,0.1,4c7.6,6,14.6,12.7,22.2,18.7c5.7,4.4,8.2,9.7,7.4,16.8c-0.3,2.6,0.1,5.3,0,8c-0.1,2.2,0.6,3.4,3.1,3.3
			C601.2,670.3,605.8,670.4,610.4,670.4z M534.1,871.8c-0.3-3.1,0.7-6.3-1.3-9.2c-3.7-5.3-7.3-10.6-10.8-15.9
			c-1.7-2.5-3.8-2.3-5.3-0.5c-6.2,6.9-14,12.3-19.3,20.1c-8.3,12.1-7.7,14.8-0.9,26.5c5.8,10,14.3,17.8,21.7,26.4
			c7.2,8.5,14.2,17.1,24.7,22c5.2,2.5,10.1,2.9,14.8-0.7c8.7-6.7,17.3-13.5,26.1-20.1c1.3-1,2.1-1.3,0.4-2.8
			c-6.3-5.8-12-12.2-19.1-17.2c-3.1-2.2-6.3-2.4-10.1-1.9c-5.9,0.8-11.4,3.3-17.3,3.5c-4.2,0.2-6.5-1.9-6.4-6.2
			c0.1-2.6,0.2-5.2,0.7-7.8C532.9,882.6,534.6,877.3,534.1,871.8z M1333.7,941.9c4-0.3,8.2-2.6,11.6-6.4
			c8.6-9.6,16.2-20.1,25.3-29.4c5.1-5.2,10.2-10.5,14-16.8c4.2-6.8,4.6-13.6-0.4-20.3c-4.4-5.9-9.8-10.8-15-15.9
			c-2-2-2.8-0.3-3.9,0.9c-5.4,6.1-10.8,12.1-16.1,18.2c-14.4,16.2-28.8,32.5-43.2,48.8c-1.3,1.4-3.7,2.7-0.7,5.1
			c6,4.8,12.2,9.2,18.9,12.9C1326.8,940.3,1329.4,941.9,1333.7,941.9z M1079.1,678.1c-0.1,1.3-0.3,2.1-0.2,2.8
			c4.4,19.8,8.8,39.5,13.2,59.3c0.5,2.3,1.8,3.6,4.5,3.8c11.7,0.6,23.5,1.3,35.2,2.1c7.5,0.5,14.9,1.8,22.3,1.6
			c6.5-0.2,8.2,3.3,9.6,8.3c4.8,16,9.6,32,14.5,48c1.5,4.8,1.9,4.9,5.1,1.3c6.1-7,12.1-14.2,18.2-21.2c1.9-2.2,1.7-3.5-0.8-5.1
			c-9.6-6.6-18.6-13.9-27-21.9c-12.1-11.6-25.9-21-38.2-32.4c-12.9-11.9-26.9-22.8-40.5-33.9C1090,686.4,1085.3,681.7,1079.1,678.1z
			 M926.9,710.9c2.7,0,5.3-0.2,8,0.1c3.1,0.3,4.3-0.6,4.2-4c-0.3-8.7,0-17.5-1-26.2c-0.5-4.6,1.7-10.9-0.7-13.5
			c-2.7-3.1-9.1-0.8-13.8-1c-10.7-0.4-21.4-0.1-31.9-2.3c-7.3-1.5-14.6-3-21.8-4.6c-1.8-0.4-2.8-0.7-2.8,1.7
			c-0.1,12.2-2.2,24.3-2.1,36.5c0,3,1.2,4,3.8,4.5c7.1,1.4,14.1,3.4,21.3,4.6C902.3,708.5,914.4,711.5,926.9,710.9z M942,686
			c0.1,6.3-0.2,13.9,0.9,21.5c0.4,2.7,0.9,3.6,3.7,3.6c8.6,0,17-0.9,25.5-2c14.2-1.9,28-5.5,41.7-9.4c3.6-1,3.5-3.1,3.1-5.9
			c-1.3-9.7-2.7-19.3-3.7-29c-0.6-5.7-1.3-6.6-7-5.2c-17.3,4.2-34.7,6.6-52.5,6.6c-2.7,0-5.3,0.2-8,0c-2.8-0.2-3.8,0.6-3.7,3.6
			C942.2,674.7,942,679.7,942,686z M578.4,571.4c0,0.2,0,0.4,0,0.6c-4,0-8-0.2-12,0c-9,0.5-10.8,2.5-13.6,11.2
			c-2.6,8.1-2,16.3-2.5,24.4c-0.9,15.4-0.5,31-0.2,46.4c0.1,6.1,3.1,10.8,8.8,13.9c5.5,3.1,11.3,3.2,17.2,2.9
			c4.8-0.2,10.9,1.8,14-1.3c2.8-2.8,0.5-8.9,0.8-13.5c0.2-3.9-1.2-6.6-4.2-9.5c-7.9-7.4-16.4-14.1-24.5-21.2
			c-3.1-2.7-4.1-4.4-0.4-7.7c6.7-6,14-11.1,21.2-16.5c5-3.8,11.4-7.1,9.2-15.3c-0.1-0.4,0.4-0.9,0.5-1.4c2.6-10.9,1-13-9.8-13.2
			C581.4,571.4,579.9,571.4,578.4,571.4z M863.7,661.1c1.3-3.4-0.6-4-2.8-4.7c-10.1-3.4-19.8-7.7-29.5-12.2c-8-3.8-16.3-7.1-23.8-12
			c-3.7-2.4-5.4-0.5-5.4,2.6c-0.1,3.7-1,7.1-1.3,10.7c-0.7,6.2-0.4,12.4-1.8,18.5c-1.7,7.4-0.1,10.2,6.8,13.5
			c10.8,5.1,21.5,10.3,32.4,15.1c5.6,2.5,11.4,4.4,17.3,6c1.5,0.4,5,2.4,5.3-1.7C862,684.9,862.9,672.8,863.7,661.1z M941,642.9
			C941,642.9,941,642.9,941,642.9c0.1,5.3,0.2,10.7,0,16c-0.1,3.1,1.1,4.1,4.1,4c8.1-0.4,16.3-0.6,24.4-0.9
			c13.1-0.5,25.9-3.4,38.6-6.5c2.3-0.6,3.3-1.4,3-3.9c-1.4-12-2.7-24-4-35.9c-0.3-2.7-2.1-1.5-3.3-1.3c-6.1,0.9-12.1,2.4-18,3.9
			c-13.7,3.5-27.6,4.9-41.6,5.6c-2.7,0.1-3.3,1-3.2,3.5C941.1,632.5,941,637.7,941,642.9z M871.5,613.2c-2.6,4.7-0.8,9.7-1.6,14.6
			c-1.2,8-1.5,16-1.9,24c-0.1,2.3,0.3,3.4,3.3,4.2c20.6,5.5,41.5,7.3,62.7,6.9c2.8-0.1,4.2-0.4,4-3.7c-0.7-10.9-1.5-21.8-1-32.7
			c0.1-2-0.7-2.6-2.6-2.5c-8.9,0.3-17.7-0.6-26.5-2C895.6,620.2,883.6,617.4,871.5,613.2z M1322.4,811.4c-0.7-0.8-1.3-1.6-2-2.2
			c-4.2-3.8-8.6-7.3-12.7-11.3c-2.6-2.5-4.1-2.1-6.4,0.4c-9.8,11-20,21.7-29.9,32.6c-10.7,11.8-21.3,23.8-32,35.6
			c-1.9,2.1-2,3.2,0.3,5c5.1,4,10.2,8,14.8,12.5c3.6,3.5,5.3,3.7,8.7-0.6c18.9-23.4,38.2-46.4,57.3-69.6
			C1321.2,813.2,1321.8,812.4,1322.4,811.4z M867.1,616.7c0.3-3,0-5.4-3.6-6.7c-17.3-6.4-33.8-14.4-49.4-24.4
			c-2-1.3-3.6-1.5-4.5,1.8c-1,4.1-1.5,8.3-2.1,12.4c-1.2,7.5-2.4,15.1-3.5,22.7c-0.4,2.4,0.2,4.1,2.8,5.5
			c16.8,9.3,34.2,17.1,52,24.1c5,2,6-0.6,6-4C865,637.6,866.1,627.2,867.1,616.7z M1072.1,625.7c-0.1-0.8,0-1.7-0.2-2.5
			c-2.6-10.9-3.4-22-5.7-33c-0.7-3.5-1.4-2.9-3.4-1.5c-15.2,10.6-31.8,18.4-49.7,23.1c-3.4,0.9-3.3,2.4-2.9,4.9
			c0.7,4,1.3,8,1.8,12.1c1,7.4,2,14.9,3,22.3c0.2,1.8,1,2.2,2.6,1.6c17.7-6.6,35-14.4,52.1-22.6
			C1071.9,629.1,1072.1,627.7,1072.1,625.7z M779.3,576.8c0-0.2,0-0.5,0-0.7c-6,0-12,0.2-18-0.1c-3.6-0.2-5,0.7-5,4.5
			c-0.2,13.8-0.5,27.6-1,41.4c-0.1,3.4,1.4,3.7,4.1,3.7c11.5,0,22.9,0.2,34.4,0.3c6.7,0.1,6.6-0.2,7.4-7.1c1.3-10.1,2.5-20.4,5-30.2
			c2.3-8.8-2.9-11.6-9.6-11.8C790.9,576.7,785.1,576.8,779.3,576.8z M1076.3,665.5c-0.9-10.7-1.5-19.4-2.5-28.1
			c-0.3-3-1.3-5.8-5.4-2.9c-2.1,1.5-4.7,2.2-7,3.3c-13.4,6.4-26.8,12.8-41,17.1c-4.9,1.5-4.9,4.7-4.4,8.2
			c1.5,10.2,3.2,20.3,3.9,30.6c0.2,3.2,1.3,3.4,4,2.3c15.2-6.4,30.4-13,45-20.8C1074.2,672.3,1077.8,669.8,1076.3,665.5z
			 M1210.8,581.1c-0.2-0.3-0.4-0.7-0.6-1.1c-11.7-19.2-23.4-38.4-35-57.6c-1.3-2.2-3.9-1.8-4.5-1c-3.3,4.5-8.6,4.3-12.9,6.3
			c-2.2,1-3,1.8-2.2,4.4c7,22.7,16,44.7,23.6,67.2c0.9,2.5,1.7,2.2,3.2,1.3c9.3-5.2,18.4-10.7,27-17
			C1210.1,583,1211.1,582.5,1210.8,581.1z M1093.4,746.9c9.5,8,18,15.4,26.7,22.6c15.9,13.1,31.9,26,47.9,38.9
			c2.5,2,5.1,6.4,7.7,4.9c3.8-2.2,0-6.1-0.8-9.1c-4.6-16.4-9.3-32.8-14.1-49.2c-0.6-2.2-1.2-3.9-4.6-4.3c-5.6-0.6-11.2-0.3-16.8-0.8
			C1124.5,748.5,1109.6,746.9,1093.4,746.9z M1219.2,313.6c-2.7,2.1-4.3,3.5-6,4.8c-9.6,7.4-18.4,15.7-28.4,22.7
			c-7,4.9-13.2,10.9-19.7,16.5c-1,0.9-2.8,1.9-2,3.6c1.4,2.7,0.8,5.5,0.7,8.3c-0.1,3.8,1.5,5,5.1,4.7c13-0.9,26.1-1.6,39.1-2.2
			c2.8-0.1,3.7-1.3,3.9-3.9c0.6-6.9,1.4-13.8,2.3-20.7C1215.8,336.5,1217.4,325.8,1219.2,313.6z M1313,893.1c0.9-7.5-1.5-14.7-1-22
			c0.2-3.1-2.3-2.3-3.9-2.1c-10.3,1.2-20.7,2.6-31,3.8c-1.7,0.2-2.7,1.1-3.6,2.3c-3.5,4.2-6.9,8.5-10.6,12.6c-1.2,1.4-1.5,2,0.1,3.4
			c12,9.8,23.9,19.6,35.8,29.5c1.5,1.2,2.7,1.8,4.2,0c3.2-3.8,6.6-7.5,9.9-11.2c1.1-1.3,1.4-2.8,0.9-4.2
			C1312.3,901.1,1313.3,897,1313,893.1z M1129.2,523.9c-0.1-0.4,0.1,0.4,0.3,1.2c5.2,18.6,10.6,37.1,15.1,55.9
			c1.8,7.6,4.1,15.1,6.5,22.5c0.5,1.7,0.7,5.7,4.3,3.2c4.7-3.2,9.7-6,14.6-8.8c2.4-1.4,3.9-3,2.7-6.3c-7.4-20.2-14.6-40.3-21.7-60.6
			c-0.8-2.2-1.7-2.5-3.6-3.1c-5.3-1.6-11.2-2.5-14.6-7.7c-0.6-0.8-1.3-1.6-2.5-0.9C1129.1,520,1128.8,521.3,1129.2,523.9z
			 M1313.9,852c0,3.9,0.1,7.2,0,10.5c-0.1,3,1.7,3.9,4.2,3.3c7.7-2,15.7-1.9,23.6-2.8c8-0.9,15.8-1.5,21.1-9.5
			c2.5-3.8,2.2-5.3-0.9-7.9c-9.5-8.1-18.9-16.3-28.2-24.6c-8.9-7.9-8.7-7.8-16.6,1.3c-3.1,3.5-4.3,6.9-4.2,11.5
			C1313,840,1314.7,846.2,1313.9,852z M743.8,748.4c7.3,0,14.7,0,22,0c1.8,0,3.7,0.4,4.2-2.3c3-16.8,6.1-33.5,9.1-50.3
			c0.3-1.8,0.3-3.2-2.6-2c-4.5,1.8-7.4,5.6-10.9,8.5c-17.1,14-33.8,28.4-50.7,42.7c-0.9,0.8-2.6,1.4-2,3c0.6,1.5,2.4,1.2,3.6,1
			C725.6,747,734.7,748.6,743.8,748.4z M1125.8,525.1c-2.4,2.7-4,4.1-5.2,5.9c-3.8,5.5-11.6,9.4-7.6,18.2c0.8,1.8,1.3,3.7,1.7,5.6
			c4.1,19.2,8.3,38.5,12.2,57.8c0.5,2.7,1.2,2.6,3.1,1.5c4.8-2.7,9.5-5.4,14.4-7.8c2.7-1.3,2.8-2.8,2-5.5
			c-2.3-8.2-4.2-16.6-6.5-24.9C1135.4,559.3,1130.7,542.8,1125.8,525.1z M1253,827.8c0-1.2,0-2.3,0-3.5c-0.1-5.9-0.1-5.9-5.6-4.4
			c-8.3,2.3-16.6,5.2-25,6.6c-8.2,1.3-12.5,6.7-17.2,12.3c-1.4,1.7-1.3,2.8,0.4,4.1c9.1,7.5,18.1,15.1,27.1,22.7
			c1.7,1.5,2.9,1.6,4.5-0.2c4.4-5,8.9-9.9,13.4-14.8c0.8-0.9,1.5-1.8,1.4-3.1C1251.3,840.9,1253.3,834.4,1253,827.8z M1288.1,254.5
			c-20.9,17.9-40.9,35-61,52.2c3.4,2.6,6.6,0.5,9.7,0.3c14.2-1,28.4-2.2,42.5-3c3.5-0.2,4.5-1.6,4.6-4.9c0.2-5.3,0.6-10.5,1.3-15.8
			C1286.4,274.3,1287.7,265.2,1288.1,254.5z M1257,806.3c0,0.8,0,1.7,0,2.5c-0.1,5.8-0.1,5.8,5.6,4.3c6.6-1.7,13.1-4.1,19.8-5.1
			c8.2-1.3,13.2-6.4,18-12.2c0.9-1.1,2.2-2.2,0.4-3.7c-10.3-8.9-20.6-17.7-30.8-26.7c-2.1-1.9-3-0.3-3.8,0.9
			c-3.1,5-7.3,8.6-7.4,16.1C1258.7,790.1,1258.8,798.4,1257,806.3z M1319.4,186.2c-0.5,0.1-1,0.2-1.4,0.4c0,3.1-0.1,6.2,0,9.2
			c0.3,13.4-3.6,25.5-11.3,36.4c-2.8,3.9-5.8,7.6-8.7,11.4c-0.7,1-2.6,1.6-1.6,3.2c1.2,1.9,2.8,0.2,4-0.1c4.3-1.1,8.5-2.5,12.8-3.8
			c11.5-3.5,23-7,34.5-10.5c2.8-0.9,3.8-2.1,1.5-4.8c-2.2-2.5-3.8-5.4-5.7-8.1C1335.5,208.4,1327.4,197.3,1319.4,186.2z
			 M705.4,411.6c-2-15.6-1.9-29.9,0.4-44.6c-18.6,0.4-37.1-1.8-56.4-0.9C668,381.4,686.2,396.1,705.4,411.6z M666.9,621.5
			c-0.5-0.6-0.9-1.1-1.4-1.6c-6.8-6.9-13.6-13.7-20.3-20.6c-1.7-1.7-2.6-1.1-4,0.2c-7,6.7-13.9,13.3-21,19.8c-2,1.9-2.3,3-0.1,5
			c6.7,6.4,13.3,13,19.8,19.7c1.7,1.8,2.8,2.2,4.7,0.2c6.7-6.9,13.6-13.7,20.4-20.5C665.6,623.1,666.2,622.3,666.9,621.5z
			 M692,596.6c-0.6-0.6-1.2-1.1-1.6-1.8c-5.2-7.3-12.5-12.8-18.2-19.7c-1.5-1.8-3.9-1.8-5.3-0.3c-6.4,7-13.9,12.8-20.6,19.5
			c-1,0.9-1.7,1.3,0,2.9c6.9,6.3,13.4,13,19.8,19.7c2.1,2.1,3.4,2.4,5.6,0.1c6-6.3,12.2-12.3,18.3-18.4
			C690.7,598,691.3,597.4,692,596.6z M690.9,645.7c-0.2-0.3-0.5-0.8-0.8-1.1c-6.5-6.6-13.1-13.2-19.6-19.8c-1.8-1.8-2.6,0-3.6,0.9
			c-6.8,6.8-13.6,13.6-20.5,20.4c-1.7,1.7-2.1,2.8-0.2,4.7c5,5,10,10.1,14.6,15.5c2.5,2.9,4.3,2.5,6.7,0.4c7.3-6.3,14.7-12.6,22-19
			C690.2,647.3,691,646.9,690.9,645.7z M717.1,623.8c-0.5-0.8-0.8-1.4-1.3-1.8c-6.7-7.3-13.5-14.6-20.2-22c-1.7-1.8-2.5-0.5-3.6,0.6
			c-6.4,6.4-12.7,12.8-19.1,19.1c-1.5,1.5-1.7,2.3-0.1,3.9c6,6,11.9,12,17.6,18.4c2.1,2.4,3.7,2,5.6,0.3
			c6.6-5.7,13.2-11.5,19.7-17.3C716.2,624.5,716.7,624.1,717.1,623.8z M1317.2,182.1c13-10.5,25.1-20.4,37.3-30.2
			c-4.1-2.8-8.3-1.7-12.2-2.4c-6.9-1.3-14-2-21.1-2.3c-5-0.2-10.4,6.8-9,11.3C1314.6,165.7,1316.9,173,1317.2,182.1z M698.6,807.7
			c1.6-11,3.4-20.5,4.3-30.2c0.6-6.4,2.4-12.6,2.2-19.1c-0.1-2.9-1.3-3.3-3.3-1.6c-8.4,7.1-16.8,14.2-25.2,21.4
			c-0.9,0.7-1.7,1.8-0.4,3.3C683.5,789.9,690.6,798.4,698.6,807.7z M1351.1,864.9c-11-0.1-21.1,2.3-31.3,2.8c-3.8,0.2-4.9,1.3-5,5.2
			c-0.3,9,1.6,17.8,1.1,26.8c-0.1,1.2-0.7,3,0.6,3.7c1.8,0.9,2.5-1.1,3.4-2.1c9-10,17.9-20.1,26.7-30.2
			C1348.2,869.4,1350.1,868,1351.1,864.9z M1218.3,823.7c2.5,0.4,4.4,0.1,6.4-0.4c6.9-1.9,13.8-3.7,20.7-5.5
			c8.3-2.3,8.3-2.3,8.6-10.7c0-1.1,0.5-2.3,0.5-3.4c0.5-7.6,1-15.3,1.6-24.5C1242.9,794.7,1230.7,809,1218.3,823.7z M1309.2,831.9
			c-9.9,12-19.4,23.5-28.9,35c-0.6,0.7-1.6,1.6-0.8,2.6c0.4,0.5,1.6,0.5,2.3,0.4c8.5-1.3,16.9-2.5,25.5-3c3.5-0.2,5.6-1.8,4.7-5.7
			c-1.5-7-0.9-14.2-0.9-21.3C1311,837.3,1310.7,834.8,1309.2,831.9z M718.1,620.3c0.7-0.1,1.4-0.1,2.1-0.2c0-14.6,0-29.1,0-43.7
			c0-0.8,0.4-1.7-0.6-2.2c-1.2-0.6-1.8,0.5-2.5,1.2c-6.4,6.3-12.6,12.7-19.1,19c-1.8,1.7-1.5,2.8,0,4.4
			C704.8,605.9,711.4,613.1,718.1,620.3z M716.2,670.5c-7.5-7.4-14.5-14.2-21.3-21.1c-1.6-1.6-2.6-0.5-3.7,0.5
			c-5.2,4.4-10.4,8.7-15.5,13.3c-2.3,2.1-5.3,3.7-7.1,7.4C684.4,670.5,699.6,670.5,716.2,670.5z M1077.7,689.3
			c-0.5,0.7-1.1,1.2-1.2,1.8c-1.8,11-4.7,21.7-8.9,31.9c-0.6,1.6-0.3,2.7,0.7,3.5c6.1,5,12.2,9.9,18.4,14.8c0.6,0.5,1.2,1.8,2.4,1
			c1.5-1,0.3-2,0-3c-1.1-4.4-2.2-8.7-3.1-13.1C1083.6,713.9,1080.8,701.6,1077.7,689.3z M717.6,667.7c0.5,0,1,0,1.4,0
			c0-12.9,0-25.7,0-38.6c0-2.2-0.6-2.8-2.5-1.2c-6.4,5.6-12.8,11.1-19.2,16.6c-1.5,1.3-1.5,2.2-0.1,3.6
			C704,654.6,710.8,661.2,717.6,667.7z M612.2,815.2c0.4,6.4-1.6,12.5-1.2,18.8c0.2,2.6,1.4,3.9,3.3,3.8c5.3-0.3,10.5,1.2,15.7,1.2
			c2,0,2.9-0.5,3.1-2.6c0.5-5,1.2-10,1.8-15c0.2-2-0.8-2.3-2.6-2.5C625.8,817.8,619.1,816.4,612.2,815.2z M594,860.9
			c0.7-3.6,0.2-6.2-5.4-6.2c-4.7,0-9.5-1.8-14.2-2.7c-1.8-0.3-2.6,0.1-3.4,2.3c-1.9,5.3,0.5,10.9-1.8,16.1c-0.5,1.1,0.6,2.3,1.9,2.4
			c6.5,0.7,13,1.4,19.6,2.1c1.2,0.1,2.6,0.2,2.3-1.6C592.4,869.3,594.5,865.5,594,860.9z M1255.4,845.3
			c10.8-11.9,21.1-23.2,31.7-34.9c-1.1-0.3-1.6-0.5-2-0.4c-8.8,2.3-17.7,4.6-26.5,6.9c-1.5,0.4-2.3,1.3-2.3,2.8
			C1256.1,827.9,1254,836,1255.4,845.3z M664.9,573.4c-14.4,0-27.9,0-42.8,0c7,6.7,13,12.5,19,18.3c1.2,1.1,2.1,2.6,4,0.7
			C651.5,586.1,658,580,664.9,573.4z M674.6,573.5c6.3,6.8,12.2,13.1,18.1,19.5c0.9,1,1.7,1.4,2.9,0.3c6.2-6.3,12.5-12.5,19.7-19.8
			C701,573.5,688.2,573.5,674.6,573.5z M623.4,668.8c0.2,0.5,0.4,0.9,0.6,1.4c12-1.3,23.9,0.8,35.9,0.8c0-0.9,0.2-1.3,0-1.5
			c-4.5-6.8-11-11.9-16.5-17.9c-1.4-1.6-2.4,0-3.2,0.8C634.5,657.8,628.9,663.3,623.4,668.8z M1086.2,569.6
			c9.7,1.4,18.8,1.5,28.4,1.3c-2-8.6-3.9-16.9-5.9-25.6c-4.2,4.4-8,8.2-11.6,12.1C1093.6,561.3,1090.1,565.3,1086.2,569.6z"/>
		<path class="st1" d="M935.1,430.9c4.3,0,8.7,0,13,0.1c15.3,0.3,30.5,0.3,45.8,1.2c12.7,0.7,25.4,1.6,38.1,1.8
			c2.9,0,3.2,1.2,3.1,3.5c-0.1,11.8,1.7,23.5,1,35.3c0,0.5,0,1,0,1.5c1.1,8.2-0.8,9.3-9.3,7.1c-10.7-2.8-20.5-7.8-30.1-13
			c-1.9-1-3.8-1.9-6.4-1.1c14,10.4,28.3,19.8,45.8,22.7c1.9,0.3,2,1.2,2,2.6c0.6,9.5,1.3,19,1.9,28.5c0.1,1.7,0.1,3.3,2.7,3.9
			c0.5-4.7,1.5-9.3,1.3-13.9c-0.3-6.2,1.5-12.1,1.1-18.2c-0.1-1.7,0.8-2.5,2.3-2.7c7.6-1,14.6-4.3,22-6.1
			c6.2-1.5,25.1-16.2,27.8-22.1c-4.6,1.5-8,4.2-11.2,6.8c-9.8,8.2-21.5,11.8-33.7,14.2c-4.9,1-5.4,0-5.4-4.9c0-7.8,0.9-15.5,1-23.3
			c0-5.2,1.1-10.2,1.3-15.3c0.2-4.2,4.1-5,7.2-4.2c2.2,0.6,4.2,0.6,6.3,0.7c14.7,0.7,29.4,1.1,44,2.1c10.5,0.8,21.1,1.3,31.5,2.2
			c6,0.5,12.2-0.3,18,1.7c2.6,0.9,3.6,1.6,3,5.1c-1.2,6.7-3.2,13.2-4.3,19.9c-0.5,3-2.5,5.1-5.4,5c-16.7-0.5-29.1,21.9-22.9,37
			c2.3,5.6,0.5,9.1-3.1,13c-8.1,9-15.4,18.6-23.8,27.4c-11,11.5-21.8,23.1-34.4,33.1c-13,10.4-27.6,17.7-43,23.2
			c-15,5.4-30.9,8.4-46.6,11.4c-13.8,2.6-27.8,3.5-41.8,3.6c-27.5,0.2-53.4-6.8-78.5-17.4c-25-10.6-48-24.5-69.2-41.3
			c-22.9-18.1-41.6-39.7-54.4-66c-4-8.2-7-16.8-10-25.4c-3.2-9.4-5.3-19-8.2-28.3c-0.9-3.1-0.3-3.8,2.6-3.9
			c6.6-0.1,13.1-1.3,19.7-1.1c6.8,0.2,13.5-1.5,20.3-1.6c4.1-0.1,3.7,1.7,3.6,4.3c-0.3,10.4,0,20.7,4.1,30.5
			c9.6,22.9,25.6,39.3,49.8,45.5c16.7,4.3,33.9,4.3,50.1-3.6c13.1-6.4,21.7-17.4,29.4-29.4c9.6-15.1,11.9-31.7,11.5-49
			c0-2.6,0.1-3.8,3.2-3.7c8,0.3,16,0.3,24,0.4C932.7,431.7,934,431,935.1,430.9z M936.9,525c-17.6-1.1-30.9,11.4-30,30.3
			c0.7,14.9,17,27.4,28.5,26.7c20.6-1.2,28.9-13.6,29.6-34C965.3,536.6,950.5,524.9,936.9,525z"/>
		<path class="st1" d="M951.4,799.9c-15.1-1.4-30.4,0.7-45.3-3c-15.4-3.9-30.5-8.5-43.8-17.9c-30-21.1-50.3-48.6-59.3-84.5
			c-1.1-4.4-1.1-9-2.9-13.2c-0.2-0.5-0.1-1.5,0.2-1.9c1.2-1.3,2.2,0.3,2.9,0.6c9.9,5.2,20.1,9.8,30.3,14.3
			c13.1,5.7,26.8,9.2,40.5,12.5c11.3,2.7,22.8,4.6,34.4,6.1c9.5,1.3,18.9,1.7,28.4,1.6c17.3-0.1,34.5-1.3,51.5-4.8
			c28.3-5.8,54.4-17.1,79.7-30.5c1.9-1,4.1-3.4,6.1-2.2c2.4,1.4-0.2,3.8-0.4,5.8c-1.3,13.4-4.4,26.5-9.9,38.8
			c-4.4,9.9-10.6,18.8-17.6,26.9c-16.9,19.6-37.2,34.4-61.8,43.4C973.8,796.2,962.6,797.9,951.4,799.9z"/>
		<path class="st1" d="M1094.8,631.1c10.2,1.6,20.5,0.6,30.7,0.8c6.1,0.1,12.2-0.5,18.3,0.9c5.2,1.2,10.5-0.7,15.8-0.6
			c57.5,0.3,114.9,0.5,172.4-0.4c12.9-0.2,25.9,0.1,38.4-3.9c9.5-3,17.3-9.1,24.9-15.5c10.9-9.3,18-21.1,22.9-34.3
			c0.3-0.3,0.6-0.6,0.9-0.9c16.8,0.3,33.6,0.7,50.3,0.9c3,0,3.8,0.5,2.8,3.9c-3.5,12-9.6,22.5-17.5,32
			c-8.8,10.5-18.2,20.6-28.6,29.6c-16.1,14-34.1,24.4-55.7,27.3c-16,2.2-32.1,1.4-48.2,2.1c-24.2,1.1-48.3-0.2-72.4-0.1
			c-26.3,0.1-52.5-1-78.8-1.3c-11.6-0.2-23.2,0.3-34.8-0.8c-11.4-1.1-22.9,0-34.3-1c-6.5-0.6-12.9-0.6-19.3-0.8
			c-2.1,0-3.7-0.5-3.6-3c0.6-10.8-1.1-21.4-2-32c-0.2-2.7,0.4-3.5,3.1-3.3c4,0.3,8,0.3,12,0.4C1093,631.5,1093.9,631.5,1094.8,631.1
			z"/>
		<path class="st2" d="M1094.8,631.1c-0.9,0.4-1.8,0.4-2.7,0c1.6-2,0.1-2-1.3-2.1c-3.9-0.2-7.8-0.2-11.8-0.8c-2.8-0.4-3.5-2-3.7-3.7
			c-1.8-12.6-3.1-25.3-6.2-37.8c-0.3-1-0.2-2.2,0.9-3.1c3.7-3.1,7.3-6.3,10.9-9.6c1.3-1.1,2.7-1.2,4.2-1.2c8.7,0.2,17.3,0.5,26,0.4
			c3.2-0.1,4.4,1.4,5,4c2.7,12.6,5.7,25.2,7.9,37.9c0.8,4.9,2.7,4.7,5.9,3.2c4-2,7.9-4.3,11.9-6.3c3-1.6,5.8-4.7,9.6-1.1
			c0.7,0.7,2.7,0.1,4.2-0.6c5.5-2.7,10.6-5.8,15.5-9.5c2.7-2.1,5.1-2.9,6.3,1.7c0.7,2.8,2.5,3.1,5.3,1.7
			c10.5-5.3,19.9-12.6,30.1-18.4c2.3-1.3,1.9-3.8,0.8-6.2c-1-2.3-3-4-3.2-6.6l-0.1,0c12.8-0.3,25.6-0.4,38.4,0.7
			c5.3,0.4,10.6,0,16,0.1c48.9,1,97.8,2.1,146.7,3c4,0.1,4.5,1.2,3,4.6c-9.9,23.3-26.8,38.9-51.1,46c-4.3,1.3-9.1,1.4-13.7,1.5
			c-25.2,0.4-50.5,0.8-75.7,0.9c-58,0.4-115.9-0.2-173.9-0.9c-1.5,0-3-0.1-4.5,0.1C1093.7,629.3,1093.9,630.2,1094.8,631.1z"/>
		<path class="st2" d="M707.5,356.5c-7.3-6.1-14.2-11.8-21-17.6c-9-7.6-18.1-15-26.8-22.9c-22.8-20.8-47.2-39.7-68.9-61.8
			c-9.4-9.6-19.4-18.8-27.6-29.6c-9.4-12.5-12.6-26.5-10.4-42c0.7-5.1,2.1-9.8,3.4-14.7c0.8-3,2.1-4.9,5.9-1.6
			c27.9,24.5,56,48.8,84.1,73.2c23.8,20.6,47.5,41.3,71.4,61.9c2.8,2.4,3.2,4.2,2,7.8C714.4,324.4,711.1,340.1,707.5,356.5z"/>
		<path class="st2" d="M1081.6,672c6.9,0,13.9-0.1,20.8,0c14.5,0.3,28.9,0.5,43.4,1c8.6,0.3,16.2,2.7,23.2,8.8
			c21.4,18.6,43.4,36.3,65.4,54.2c3.8,3.1,4,5,0.7,8.7c-9.2,10.1-18,20.6-26.8,31c-2.6,3.1-4.6,3.3-7.5,0.7
			c-18.7-17-38.6-32.6-58-48.8c-14.6-12.3-29.2-24.5-43.8-36.9c-6.2-5.3-12-11-18.8-15.4c-1.5-1-1.5-2-1.2-3.3
			C1079.5,670.6,1080.8,671.3,1081.6,672z"/>
		<path class="st3" d="M685,364.1c-8.3,0.6-18.7-1.4-29.2-1c-4.2,0.2-4.4-2.5-4.8-5.4c-2.3-14.8-4.7-29.5-6.8-44.3
			c-0.4-2.9-1.8-3.9-4.4-4.3c-17.5-3-35-6.1-52.5-9c-3.4-0.6-4.9-2.1-5.2-5.5c-0.9-13.6-2-27.1-3-40.6c-0.2-2.7-1.2-4.1-4-4.8
			c-16.9-3.9-33.1-9.8-49.7-14.7c-3.3-1-2.5-2.8-1.6-5c4.6-11.4,9-22.9,13.8-34.2c1.2-2.9,1.2-5.1-0.6-7.8
			c-7.6-11.6-14.8-23.3-22.4-34.8c-2.5-3.7-2.9-6.8-1.1-11c5.7-13.1,5.5-13.1,16.3-3.4c7.4,6.7,15,13.2,22.6,19.6
			c2.9,2.4,3.9,4.5,2.4,8.4c-6.3,15.6-6.3,31.4-0.9,47.3c2.5,7.4,7.4,13.4,12.5,19.1c20.9,23.2,43.8,44.2,67.7,64.2
			c19.6,16.4,38.9,33.3,58.3,50c4.2,3.6,8.4,7.1,12.5,10.7c1.4,1.2,2.7,2.6,1.9,4.7c-0.8,2.3-2.8,1.9-4.6,1.9
			C697.2,364.1,692.2,364.1,685,364.1z"/>
		<path class="st4" d="M704.1,867.8c-0.1-1.5-1.4-2.1-2.4-3c-19.3-18.7-36.4-39.4-54.2-59.5c-14.3-16.3-28.2-33-42.1-49.6
			c-3.9-4.7-7.9-9.4-10.6-15c-1-2-1-3.5,0.1-5.4c3-5.3,7.6-9.1,12.2-13c6-5.1,12.7-3.5,17,1.5c7.9,9.2,15.7,18.5,23.6,27.8
			c14.7,17.5,29.4,35.1,44.2,52.6c11.1,13.2,22.2,26.3,33.1,39.5c5.4,6.5,5.2,7-0.6,13.2c-2,2.1-4,4-6,6
			C714.5,866.8,710.4,870.3,704.1,867.8C704.1,867.8,704.1,867.8,704.1,867.8z"/>
		<path class="st4" d="M1269.2,714c7.4-1.1,18.7,11.4,18.3,19.4c-0.1,3.3-3,5.8-5,8.3c-18.8,24-38.2,47.5-58.2,70.6
			c-13.8,15.9-27.3,32-41.7,47.4c-4.1,4.4-6.3,4.4-11.1,1c-5-3.6-9.3-8-13.6-12.5c-2.8-3-2.8-5.6-0.3-8.6
			c8.6-10.1,17.1-20.3,25.7-30.5c13.4-15.8,26.8-31.7,40.3-47.4c13.1-15.1,25.9-30.5,39.7-45C1265.1,715.1,1266.6,712.8,1269.2,714z
			"/>
		<path class="st1" d="M509.8,150.2c9,14.1,17.3,26.9,25.6,39.7c1.1,1.6,0.2,2.8-0.3,4.1c-5,12.2-9.8,24.5-14.9,36.6
			c-1.5,3.6-0.5,5.4,2.9,6.4c13.5,4,26.9,8,40.4,12c3.7,1.1,7.2,3,11.2,3c1.9,0,1.2,1.4,1.4,2.5c1.2,8.6,1.5,17.4,2.1,26.1
			c0.4,5.3,0.6,10.5,0.9,15.8c0.2,3.9,2.3,6.1,6.3,6.6c17.6,2.3,35,5.9,52.5,8.8c3.3,0.6,3.7,2.4,4,4.3c2.2,14.2,4.3,28.4,6.1,42.6
			c0.2,1.7,2.7,3.9,0.3,5.3c-2.3,1.4-3.5-1.8-4.8-2.8c-8.4-6.5-16.5-13.3-24.6-20.2c-15-13-30.6-25.5-44.7-39.6
			c-11.9-12-23.9-23.9-35.3-36.4c-12.7-14-24.2-28.9-29-47.8c-2.3-9.1-3.6-18.5-5-27.8C503,176.2,507.1,164.2,509.8,150.2z"/>
		<path class="st4" d="M753.4,571.5c0.8,14,0.1,28-0.7,41.8c-1.1,18.6,0,37.2-0.9,55.8c-0.5,9-0.5,18.1-2.7,26.9
			c-1.3,5-4.1,7.7-9.6,7c-2.9-0.4-5.8,0.3-8.8-0.7c-5.7-1.9-9.4-5.6-9.4-11.6c-0.2-26.6-0.6-53.3,0.1-79.9c0.3-10.7,0.4-21.4,1.1-32
			c0.5-7.9-0.4-15.8,1.5-23.6c2.4-10.1,11.7-14.6,21.8-11.6c5.7,1.7,7.8,5,7.8,10.4C753.4,559.8,753.4,565.6,753.4,571.5z"/>
		<path class="st2" d="M610.4,670.4c-4.6,0-9.3-0.1-13.9,0c-2.5,0.1-3.2-1.1-3.1-3.3c0.1-2.7-0.3-5.4,0-8c0.8-7.1-1.8-12.4-7.4-16.8
			c-7.6-6-14.6-12.6-22.2-18.7c-2.3-1.8-1.7-2.4-0.1-4c7.8-7.8,17.4-13.4,26-20.3c3.8-3.1,5.9-6.3,5.4-11.4
			c-0.4-4.6-0.2-9.2,0.8-13.8c0.5-2.2,1.1-2.3,2.8-1.5c0.8,0.4,2,0.4,3,0.2c13-2.6,22.5,2.7,30.1,12.9c2.1,2.8,4.8,5.1,7.4,7.4
			c2.1,1.8,1.7,3-0.1,4.7c-7.4,7-14.5,14.2-22.1,21c-2.5,2.2-2.2,3.3-0.1,5.4c7.1,7.1,13.9,14.4,21,21.4c2,2,2.1,3.2,0,5.2
			c-5.8,5.5-11.4,11.2-17,16.9C617.9,671.1,614.3,671.1,610.4,670.4z"/>
		<path class="st4" d="M534.1,871.8c0.5,5.5-1.2,10.8-2.3,16.1c-0.5,2.6-0.6,5.2-0.7,7.8c-0.1,4.3,2.2,6.4,6.4,6.2
			c5.9-0.2,11.4-2.7,17.3-3.5c3.8-0.5,7.1-0.3,10.1,1.9c7,5,12.8,11.4,19.1,17.2c1.6,1.5,0.9,1.9-0.4,2.8
			c-8.7,6.7-17.3,13.5-26.1,20.1c-4.7,3.6-9.6,3.1-14.8,0.7c-10.4-5-17.5-13.6-24.7-22c-7.4-8.7-15.9-16.4-21.7-26.4
			c-6.8-11.7-7.3-14.3,0.9-26.5c5.3-7.8,13.1-13.1,19.3-20.1c1.6-1.8,3.7-2,5.3,0.5c3.5,5.4,7.2,10.7,10.8,15.9
			C534.8,865.5,533.8,868.7,534.1,871.8z"/>
		<path class="st4" d="M1333.7,941.9c-4.3,0-6.9-1.6-9.5-3c-6.7-3.7-12.9-8.1-18.9-12.9c-3-2.4-0.5-3.7,0.7-5.1
			c14.4-16.3,28.8-32.5,43.2-48.8c5.4-6.1,10.7-12.1,16.1-18.2c1-1.2,1.9-2.9,3.9-0.9c5.2,5.2,10.6,10,15,15.9
			c5,6.7,4.6,13.5,0.4,20.3c-3.8,6.3-8.9,11.6-14,16.8c-9,9.3-16.7,19.7-25.3,29.4C1341.9,939.3,1337.8,941.6,1333.7,941.9z"/>
		<path class="st3" d="M1079.1,678.1c6.1,3.7,10.8,8.4,15.9,12.5c13.6,11.1,27.6,22,40.5,33.9c12.3,11.4,26.1,20.8,38.2,32.4
			c8.4,8,17.4,15.4,27,21.9c2.4,1.7,2.7,2.9,0.8,5.1c-6.1,7-12.1,14.2-18.2,21.2c-3.1,3.6-3.6,3.5-5.1-1.3c-4.9-16-9.7-32-14.5-48
			c-1.5-4.9-3.2-8.5-9.6-8.3c-7.4,0.3-14.9-1.1-22.3-1.6c-11.7-0.8-23.5-1.5-35.2-2.1c-2.7-0.1-4-1.4-4.5-3.8
			c-4.4-19.8-8.8-39.5-13.2-59.3C1078.8,680.2,1079.1,679.3,1079.1,678.1z"/>
		<path class="st1" d="M926.9,710.9c-12.5,0.6-24.7-2.4-36.9-4.3c-7.2-1.1-14.2-3.1-21.3-4.6c-2.7-0.5-3.8-1.5-3.8-4.5
			c-0.1-12.2,2-24.3,2.1-36.5c0-2.4,1.1-2.1,2.8-1.7c7.3,1.6,14.5,3.1,21.8,4.6c10.5,2.2,21.2,1.9,31.9,2.3c4.8,0.2,11.2-2.1,13.8,1
			c2.3,2.7,0.2,8.9,0.7,13.5c1,8.7,0.7,17.5,1,26.2c0.1,3.4-1,4.3-4.2,4C932.3,710.7,929.6,710.9,926.9,710.9z"/>
		<path class="st1" d="M942,686c0-6.3,0.2-11.3-0.1-16.2c-0.1-3,0.9-3.8,3.7-3.6c2.6,0.2,5.3-0.1,8,0c17.8,0,35.3-2.4,52.5-6.6
			c5.7-1.4,6.4-0.5,7,5.2c1,9.7,2.4,19.4,3.7,29c0.4,2.7,0.5,4.9-3.1,5.9c-13.7,3.9-27.5,7.6-41.7,9.4c-8.5,1.1-16.9,1.9-25.5,2
			c-2.8,0-3.4-0.9-3.7-3.6C941.8,699.9,942.1,692.3,942,686z"/>
		<path class="st4" d="M578.4,571.4c1.5,0,3,0,4.5,0c10.9,0.2,12.4,2.3,9.8,13.2c-0.1,0.5-0.6,1-0.5,1.4c2.2,8.3-4.1,11.5-9.2,15.3
			c-7.1,5.4-14.5,10.5-21.2,16.5c-3.7,3.3-2.8,4.9,0.4,7.7c8.1,7.1,16.6,13.8,24.5,21.2c3,2.8,4.5,5.5,4.2,9.5
			c-0.2,4.6,2,10.7-0.8,13.5c-3,3-9.2,1-14,1.3c-5.9,0.3-11.7,0.1-17.2-2.9c-5.7-3.1-8.7-7.8-8.8-13.9c-0.3-15.5-0.8-31,0.2-46.4
			c0.5-8.1-0.1-16.4,2.5-24.4c2.8-8.7,4.5-10.7,13.6-11.2c4-0.2,8,0,12,0C578.4,571.8,578.4,571.6,578.4,571.4z"/>
		<path class="st1" d="M863.7,661.1c-0.9,11.6-1.7,23.7-2.8,35.8c-0.4,4-3.9,2.1-5.3,1.7c-5.9-1.6-11.7-3.6-17.3-6
			c-10.9-4.8-21.6-10-32.4-15.1c-6.9-3.3-8.5-6.1-6.8-13.5c1.4-6.1,1.1-12.3,1.8-18.5c0.4-3.6,1.3-7,1.3-10.7c0.1-3.1,1.8-5,5.4-2.6
			c7.5,4.8,15.7,8.2,23.8,12c9.6,4.5,19.4,8.8,29.5,12.2C863.1,657.2,865,657.7,863.7,661.1z"/>
		<path class="st1" d="M941,642.9c0-5.2,0.1-10.3-0.1-15.5c-0.1-2.5,0.5-3.3,3.2-3.5c14-0.7,27.9-2.2,41.6-5.6
			c5.9-1.5,11.9-3.1,18-3.9c1.2-0.2,3-1.3,3.3,1.3c1.3,12,2.6,24,4,35.9c0.3,2.5-0.7,3.3-3,3.9c-12.7,3.1-25.4,6-38.6,6.5
			c-8.1,0.3-16.3,0.5-24.4,0.9c-3,0.1-4.2-0.8-4.1-4C941.2,653.5,941,648.2,941,642.9C941,642.9,941,642.9,941,642.9z"/>
		<path class="st1" d="M871.5,613.2c12.1,4.2,24.1,7,36.4,8.8c8.8,1.3,17.6,2.2,26.5,2c1.9-0.1,2.7,0.5,2.6,2.5
			c-0.5,10.9,0.4,21.8,1,32.7c0.2,3.3-1.2,3.7-4,3.7c-21.2,0.4-42.1-1.3-62.7-6.9c-3-0.8-3.4-2-3.3-4.2c0.4-8,0.6-16,1.9-24
			C870.7,623,868.9,617.9,871.5,613.2z"/>
		<path class="st4" d="M1322.4,811.4c-0.7,0.9-1.2,1.8-1.9,2.5c-19.2,23.2-38.5,46.2-57.3,69.6c-3.4,4.3-5.1,4.1-8.7,0.6
			c-4.6-4.5-9.7-8.5-14.8-12.5c-2.3-1.8-2.2-3-0.3-5c10.7-11.8,21.3-23.8,32-35.6c9.9-10.9,20-21.6,29.9-32.6
			c2.3-2.6,3.8-2.9,6.4-0.4c4.1,3.9,8.5,7.5,12.7,11.3C1321.2,809.9,1321.7,810.7,1322.4,811.4z"/>
		<path class="st1" d="M867.1,616.7c-1,10.4-2.1,20.9-2.2,31.4c0,3.4-1,6-6,4c-17.8-7-35.2-14.8-52-24.1c-2.6-1.4-3.2-3.1-2.8-5.5
			c1.1-7.6,2.3-15.1,3.5-22.7c0.7-4.1,1.1-8.3,2.1-12.4c0.8-3.3,2.5-3.1,4.5-1.8c15.5,10,32.1,18,49.4,24.4
			C867.1,611.3,867.4,613.7,867.1,616.7z"/>
		<path class="st1" d="M1072.1,625.7c0,1.9-0.3,3.4-2.4,4.4c-17.1,8.2-34.3,15.9-52.1,22.6c-1.6,0.6-2.4,0.2-2.6-1.6
			c-0.9-7.4-2-14.9-3-22.3c-0.6-4-1.1-8.1-1.8-12.1c-0.4-2.5-0.5-4,2.9-4.9c17.9-4.7,34.5-12.5,49.7-23.1c2-1.4,2.6-2,3.4,1.5
			c2.3,10.9,3.1,22.1,5.7,33C1072.1,624.1,1072.1,624.9,1072.1,625.7z"/>
		<path class="st2" d="M779.3,576.8c5.8,0,11.6-0.1,17.5,0c6.7,0.2,11.8,2.9,9.6,11.8c-2.5,9.9-3.8,20.1-5,30.2
			c-0.9,6.8-0.7,7.1-7.4,7.1c-11.5-0.1-22.9-0.3-34.4-0.3c-2.7,0-4.3-0.3-4.1-3.7c0.5-13.8,0.9-27.6,1-41.4c0-3.8,1.4-4.7,5-4.5
			c6,0.3,12,0.1,18,0.1C779.3,576.3,779.3,576.6,779.3,576.8z"/>
		<path class="st1" d="M1076.3,665.5c1.4,4.4-2.2,6.9-7.4,9.7c-14.6,7.9-29.7,14.4-45,20.8c-2.7,1.2-3.8,1-4-2.3
			c-0.7-10.3-2.3-20.4-3.9-30.6c-0.5-3.5-0.6-6.7,4.4-8.2c14.2-4.3,27.6-10.7,41-17.1c2.3-1.1,4.9-1.8,7-3.3c4.1-2.9,5-0.1,5.4,2.9
			C1074.8,646.1,1075.4,654.7,1076.3,665.5z"/>
		<path class="st4" d="M1210.8,581.1c0.3,1.4-0.6,2-1.4,2.5c-8.6,6.3-17.7,11.8-27,17c-1.6,0.9-2.4,1.2-3.2-1.3
			c-7.6-22.5-16.7-44.4-23.6-67.2c-0.8-2.6,0-3.5,2.2-4.4c4.3-2,9.7-1.8,12.9-6.3c0.6-0.8,3.2-1.2,4.5,1
			c11.6,19.2,23.3,38.4,35,57.6C1210.4,580.4,1210.6,580.8,1210.8,581.1z"/>
		<path class="st1" d="M1093.4,746.9c16.2,0,31.1,1.6,46,3c5.6,0.5,11.2,0.2,16.8,0.8c3.4,0.4,4,2.1,4.6,4.3
			c4.8,16.4,9.5,32.8,14.1,49.2c0.8,3,4.6,6.9,0.8,9.1c-2.6,1.5-5.2-2.9-7.7-4.9c-16-13-32-25.9-47.9-38.9
			C1111.4,762.3,1102.9,754.9,1093.4,746.9z"/>
		<path class="st1" d="M799.1,630.1c-0.7,12.9-3.4,25.7-3.1,38.7c0.1,2.9-2,2.1-3.5,2c-9.3-0.1-18.6-0.3-28-0.4
			c-0.8,0-1.7-0.1-2.5-0.1c-7.9,0-7.5,0-7.8-7.9c-0.4-10.3,0.7-20.5,0.8-30.7c0-2.1-0.1-3.9,3-3.8c13.6,0.4,27.3,0.6,40.9,0.9
			C799.1,629.3,799.1,629.7,799.1,630.1z"/>
		<path class="st5" d="M1219.2,313.6c-1.7,12.2-3.4,22.9-4.8,33.7c-0.9,6.9-1.7,13.8-2.3,20.7c-0.2,2.6-1.1,3.8-3.9,3.9
			c-13,0.6-26.1,1.4-39.1,2.2c-3.6,0.2-5.2-0.9-5.1-4.7c0.1-2.7,0.6-5.6-0.7-8.3c-0.9-1.7,1-2.8,2-3.6c6.5-5.6,12.7-11.6,19.7-16.5
			c9.9-7,18.8-15.2,28.4-22.7C1214.8,317.1,1216.5,315.7,1219.2,313.6z"/>
		<path class="st4" d="M1176.3,494.9c-0.2,5.6,1.3,11.4-1.3,16.6c-3.7,7.7-11,10.7-18.6,12.4c-9.1,2-17.3-0.2-22.3-9
			c-5.3-9.5-6.6-19.2-0.3-28.8c5.4-8.4,19-12.6,29-8.9c8.2,3.1,11,9.6,13.4,16.9C1176,494.4,1176,494.7,1176.3,494.9z"/>
		<path class="st5" d="M1313,893.1c0.4,3.9-0.7,8.1,0.8,12.1c0.5,1.4,0.2,2.9-0.9,4.2c-3.3,3.7-6.7,7.4-9.9,11.2
			c-1.5,1.8-2.7,1.2-4.2,0c-11.9-9.9-23.8-19.7-35.8-29.5c-1.7-1.4-1.3-2-0.1-3.4c3.6-4.1,7.1-8.4,10.6-12.6c1-1.2,1.9-2.1,3.6-2.3
			c10.3-1.2,20.7-2.6,31-3.8c1.6-0.2,4.1-1.1,3.9,2.1C1311.4,878.4,1313.9,885.6,1313,893.1z"/>
		<path class="st4" d="M1129.2,523.9c-0.4-2.6-0.1-3.9,1.2-4.7c1.1-0.7,1.9,0.1,2.5,0.9c3.5,5.3,9.3,6.2,14.6,7.7
			c1.9,0.6,2.9,0.9,3.6,3.1c7.1,20.3,14.4,40.4,21.7,60.6c1.2,3.3-0.4,4.9-2.7,6.3c-4.9,2.8-9.9,5.6-14.6,8.8
			c-3.7,2.5-3.8-1.5-4.3-3.2c-2.4-7.4-4.6-14.9-6.5-22.5c-4.5-18.8-9.9-37.3-15.1-55.9C1129.3,524.3,1129.1,523.5,1129.2,523.9z"/>
		<path class="st5" d="M1313.9,852c0.8-5.8-1-12-1.1-18.3c-0.1-4.6,1.1-8,4.2-11.5c8-9,7.7-9.1,16.6-1.3
			c9.3,8.3,18.7,16.5,28.2,24.6c3,2.6,3.4,4.1,0.9,7.9c-5.2,8.1-13,8.6-21.1,9.5c-7.9,0.9-15.8,0.8-23.6,2.8
			c-2.5,0.7-4.2-0.3-4.2-3.3C1314,859.2,1313.9,855.8,1313.9,852z"/>
		<path class="st5" d="M743.8,748.4c-9.1,0.2-18.2-1.3-27.3,0.5c-1.2,0.2-3,0.5-3.6-1c-0.6-1.6,1.1-2.2,2-3
			c16.8-14.3,33.6-28.7,50.7-42.7c3.5-2.9,6.3-6.7,10.9-8.5c2.9-1.2,3,0.2,2.6,2c-3,16.8-6.1,33.5-9.1,50.3
			c-0.5,2.7-2.4,2.3-4.2,2.3C758.5,748.4,751.1,748.4,743.8,748.4z"/>
		<path class="st4" d="M1125.8,525.1c4.9,17.7,9.6,34.3,14.1,50.8c2.3,8.3,4.2,16.6,6.5,24.9c0.8,2.7,0.7,4.1-2,5.5
			c-4.9,2.4-9.6,5.2-14.4,7.8c-1.9,1-2.5,1.2-3.1-1.5c-3.9-19.3-8.1-38.5-12.2-57.8c-0.4-1.9-0.9-3.9-1.7-5.6
			c-4-8.8,3.8-12.7,7.6-18.2C1121.8,529.2,1123.4,527.7,1125.8,525.1z"/>
		<path class="st5" d="M1253,827.8c0.3,6.6-1.7,13.2-1,19.8c0.1,1.2-0.6,2.2-1.4,3.1c-4.5,4.9-9,9.8-13.4,14.8
			c-1.6,1.8-2.8,1.7-4.5,0.2c-9-7.6-18.1-15.2-27.1-22.7c-1.6-1.3-1.7-2.4-0.4-4.1c4.7-5.6,9-11,17.2-12.3c8.5-1.4,16.7-4.3,25-6.6
			c5.6-1.5,5.6-1.5,5.6,4.4C1253,825.5,1253,826.6,1253,827.8z"/>
		<path class="st5" d="M1288.1,254.5c-0.4,10.7-1.7,19.8-2.9,28.9c-0.6,5.2-1.1,10.5-1.3,15.8c-0.1,3.3-1.2,4.7-4.6,4.9
			c-14.2,0.8-28.4,2-42.5,3c-3.1,0.2-6.3,2.3-9.7-0.3C1247.3,289.5,1267.2,272.5,1288.1,254.5z"/>
		<path class="st5" d="M1257,806.3c1.9-7.8,1.7-16.1,1.9-23.9c0.1-7.5,4.3-11.1,7.4-16.1c0.8-1.3,1.6-2.8,3.8-0.9
			c10.2,9,20.5,17.8,30.8,26.7c1.8,1.5,0.5,2.6-0.4,3.7c-4.8,5.8-9.9,10.9-18,12.2c-6.7,1-13.2,3.4-19.8,5.1
			c-5.7,1.5-5.7,1.5-5.6-4.3C1257,807.9,1257,807.1,1257,806.3z"/>
		<path class="st5" d="M1319.4,186.2c8,11.1,16.1,22.2,24.1,33.3c1.9,2.7,3.5,5.6,5.7,8.1c2.4,2.7,1.3,4-1.5,4.8
			c-11.5,3.5-23,7-34.5,10.5c-4.3,1.3-8.5,2.7-12.8,3.8c-1.2,0.3-2.8,2-4,0.1c-1-1.6,0.8-2.3,1.6-3.2c2.9-3.8,5.9-7.5,8.7-11.4
			c7.7-10.9,11.6-23,11.3-36.4c-0.1-3.1,0-6.2,0-9.2C1318.4,186.4,1318.9,186.3,1319.4,186.2z"/>
		<path class="st1" d="M705.4,411.6c-19.2-15.5-37.4-30.3-56.1-45.4c19.4-0.9,37.8,1.3,56.4,0.9C703.5,381.7,703.4,396,705.4,411.6z
			"/>
		<path class="st1" d="M666.9,621.5c-0.7,0.8-1.2,1.6-1.9,2.3c-6.8,6.8-13.7,13.6-20.4,20.5c-1.9,2-3,1.6-4.7-0.2
			c-6.5-6.7-13.1-13.3-19.8-19.7c-2.1-2-1.9-3.2,0.1-5c7.1-6.5,14.1-13.1,21-19.8c1.4-1.3,2.3-2,4-0.2c6.7,6.9,13.6,13.7,20.3,20.6
			C666,620.4,666.4,620.9,666.9,621.5z"/>
		<path class="st1" d="M692,596.6c-0.7,0.8-1.3,1.4-1.9,2c-6.1,6.1-12.3,12.1-18.3,18.4c-2.2,2.3-3.5,2-5.6-0.1
			c-6.5-6.7-13-13.4-19.8-19.7c-1.7-1.6-1-2,0-2.9c6.7-6.6,14.2-12.5,20.6-19.5c1.4-1.5,3.8-1.5,5.3,0.3c5.6,7,13,12.4,18.2,19.7
			C690.9,595.5,691.5,596,692,596.6z"/>
		<path class="st1" d="M690.9,645.7c0.1,1.1-0.7,1.5-1.3,2c-7.3,6.3-14.7,12.6-22,19c-2.4,2.1-4.2,2.6-6.7-0.4
			c-4.6-5.4-9.6-10.5-14.6-15.5c-1.9-1.9-1.5-3,0.2-4.7c6.9-6.7,13.6-13.6,20.5-20.4c0.9-0.9,1.8-2.7,3.6-0.9
			c6.5,6.6,13.1,13.2,19.6,19.8C690.4,645,690.6,645.4,690.9,645.7z"/>
		<path class="st1" d="M717.1,623.8c-0.4,0.3-0.9,0.7-1.3,1.1c-6.6,5.8-13.1,11.6-19.7,17.3c-1.9,1.7-3.5,2.1-5.6-0.3
			c-5.7-6.3-11.6-12.3-17.6-18.4c-1.6-1.6-1.4-2.5,0.1-3.9c6.4-6.3,12.7-12.7,19.1-19.1c1-1,1.9-2.4,3.6-0.6
			c6.7,7.4,13.5,14.7,20.2,22C716.3,622.4,716.6,623,717.1,623.8z"/>
		<path class="st5" d="M1317.2,182.1c-0.3-9.2-2.6-16.4-5-23.7c-1.5-4.5,3.9-11.5,9-11.3c7.1,0.3,14.2,1,21.1,2.3
			c3.9,0.7,8.1-0.4,12.2,2.4C1342.4,161.8,1330.2,171.6,1317.2,182.1z"/>
		<path class="st5" d="M698.6,807.7c-8-9.3-15.1-17.8-22.4-26.1c-1.3-1.5-0.5-2.6,0.4-3.3c8.3-7.2,16.7-14.3,25.2-21.4
			c2-1.7,3.2-1.3,3.3,1.6c0.2,6.5-1.6,12.7-2.2,19.1C701.9,787.2,700.2,796.7,698.6,807.7z"/>
		<path class="st5" d="M1351.1,864.9c-1,3.1-2.9,4.5-4.4,6.2c-8.9,10.1-17.8,20.2-26.7,30.2c-0.9,1-1.7,3-3.4,2.1
			c-1.3-0.7-0.6-2.4-0.6-3.7c0.4-9-1.4-17.8-1.1-26.8c0.1-3.9,1.2-5,5-5.2C1330,867.1,1340.1,864.8,1351.1,864.9z"/>
		<path class="st5" d="M1218.3,823.7c12.5-14.7,24.6-29,37.8-44.6c-0.6,9.2-1.1,16.8-1.6,24.5c-0.1,1.1-0.5,2.3-0.5,3.4
			c-0.4,8.4-0.3,8.5-8.6,10.7c-6.9,1.9-13.8,3.6-20.7,5.5C1222.7,823.8,1220.8,824.1,1218.3,823.7z"/>
		<path class="st5" d="M1309.2,831.9c1.5,2.9,1.9,5.4,1.9,8.1c0,7.1-0.6,14.2,0.9,21.3c0.9,3.9-1.2,5.5-4.7,5.7
			c-8.6,0.4-17,1.7-25.5,3c-0.8,0.1-2,0.1-2.3-0.4c-0.8-0.9,0.2-1.8,0.8-2.6C1289.8,855.4,1299.3,843.8,1309.2,831.9z"/>
		<path class="st2" d="M718.1,620.3c-6.7-7.2-13.3-14.4-20-21.5c-1.5-1.6-1.8-2.7,0-4.4c6.4-6.3,12.7-12.7,19.1-19
			c0.6-0.6,1.2-1.8,2.5-1.2c0.9,0.5,0.6,1.4,0.6,2.2c0,14.6,0,29.1,0,43.7C719.5,620.2,718.8,620.2,718.1,620.3z"/>
		<path class="st2" d="M716.2,670.5c-16.6,0-31.8,0-47.6,0c1.8-3.7,4.8-5.2,7.1-7.4c5.1-4.6,10.3-8.9,15.5-13.3
			c1.1-1,2.1-2.1,3.7-0.5C701.8,656.3,708.7,663.1,716.2,670.5z"/>
		<path class="st1" d="M1077.7,689.3c3.2,12.3,5.9,24.6,8.3,36.9c0.9,4.4,2,8.7,3.1,13.1c0.2,1,1.4,2.1,0,3c-1.2,0.8-1.7-0.5-2.4-1
			c-6.2-4.9-12.3-9.8-18.4-14.8c-1-0.8-1.4-2-0.7-3.5c4.3-10.3,7.1-21,8.9-31.9C1076.6,690.5,1077.2,690,1077.7,689.3z"/>
		<path class="st2" d="M717.6,667.7c-6.8-6.5-13.5-13.1-20.4-19.6c-1.4-1.3-1.4-2.3,0.1-3.6c6.4-5.5,12.8-11,19.2-16.6
			c1.9-1.7,2.5-1.1,2.5,1.2c0,12.9,0,25.7,0,38.6C718.5,667.8,718.1,667.7,717.6,667.7z"/>
		<path class="st1" d="M612.2,815.2c6.9,1.3,13.5,2.6,20.2,3.6c1.8,0.3,2.8,0.5,2.6,2.5c-0.6,5-1.3,10-1.8,15
			c-0.2,2.1-1.1,2.6-3.1,2.6c-5.3,0-10.4-1.5-15.7-1.2c-2,0.1-3.2-1.2-3.3-3.8C610.6,827.6,612.6,821.6,612.2,815.2z"/>
		<path class="st1" d="M594,860.9c0.5,4.6-1.5,8.4-0.9,12.4c0.3,1.7-1.2,1.7-2.3,1.6c-6.5-0.7-13-1.3-19.6-2.1
			c-1.3-0.1-2.4-1.3-1.9-2.4c2.2-5.2-0.1-10.8,1.8-16.1c0.8-2.2,1.6-2.6,3.4-2.3c4.8,0.9,9.5,2.7,14.2,2.7
			C594.2,854.7,594.7,857.3,594,860.9z"/>
		<path class="st5" d="M1255.4,845.3c-1.4-9.3,0.7-17.4,0.8-25.6c0-1.5,0.8-2.4,2.3-2.8c8.8-2.3,17.7-4.6,26.5-6.9
			c0.4-0.1,0.9,0.2,2,0.4C1276.5,822,1266.2,833.4,1255.4,845.3z"/>
		<path class="st2" d="M664.9,573.4c-6.9,6.6-13.5,12.7-19.8,19c-1.9,1.9-2.8,0.4-4-0.7c-6-5.8-12-11.5-19-18.3
			C637.1,573.4,650.6,573.4,664.9,573.4z"/>
		<path class="st2" d="M674.6,573.5c13.6,0,26.4,0,40.8,0c-7.3,7.3-13.5,13.5-19.7,19.8c-1.1,1.2-2,0.7-2.9-0.3
			C686.8,586.6,680.9,580.2,674.6,573.5z"/>
		<path class="st2" d="M623.4,668.8c5.6-5.5,11.2-10.9,16.8-16.4c0.9-0.9,1.8-2.4,3.2-0.8c5.5,6,11.9,11.1,16.5,17.9
			c0.1,0.2,0,0.6,0,1.5c-12,0-23.9-2.1-35.9-0.8C623.7,669.7,623.5,669.2,623.4,668.8z"/>
		<path class="st3" d="M1086.2,569.6c3.9-4.3,7.4-8.3,11-12.2c3.6-3.9,7.3-7.7,11.6-12.1c2,8.6,3.9,17,5.9,25.6
			C1105,571.1,1095.9,571,1086.2,569.6z"/>
		<path class="st3" d="M935.1,430.9c-1.1,0.1-2.3,0.8-3.1-0.6C933.4,428.6,934.4,429.1,935.1,430.9z"/>
		<path class="st2" d="M1419,577.1c-0.3,0.3-0.6,0.6-0.9,0.9C1417.9,577.3,1418.2,576.9,1419,577.1z"/>
		<path class="st3" d="M1176.3,494.9c-0.3-0.2-0.3-0.5-0.1-0.7c0.1,0.2,0.3,0.4,0.4,0.6C1176.5,494.8,1176.4,494.8,1176.3,494.9z"/>
		<path class="st3" d="M1210.1,573c-0.2-0.1-0.5-0.3-0.7-0.4C1210.1,572.1,1210,572.7,1210.1,573C1210,573.1,1210.1,573,1210.1,573z
			"/>
		<path class="st2" d="M799.1,630.1c0-0.4,0-0.8,0-1.2c0.2,0.1,0.5,0.2,0.7,0.3C799.6,629.5,799.3,629.8,799.1,630.1z"/>
		<path class="st0" d="M936.9,525c13.7,0,28.4,11.6,28.1,23c-0.6,20.4-9,32.8-29.6,34c-11.5,0.7-27.8-11.8-28.5-26.7
			C906,536.4,919.3,523.9,936.9,525z"/>
	</g>
</g>
</svg>
